<?xml version="1.0" encoding="utf-8" standalone="no"?>
<!DOCTYPE svg PUBLIC "-//W3C//DTD SVG 1.1//EN"
  "http://www.w3.org/Graphics/SVG/1.1/DTD/svg11.dtd">
<svg xmlns:xlink="http://www.w3.org/1999/xlink" width="414.46375pt" height="325.986375pt" viewBox="0 0 414.46375 325.986375" xmlns="http://www.w3.org/2000/svg" version="1.1">
 <metadata>
  <rdf:RDF xmlns:dc="http://purl.org/dc/elements/1.1/" xmlns:cc="http://creativecommons.org/ns#" xmlns:rdf="http://www.w3.org/1999/02/22-rdf-syntax-ns#">
   <cc:Work>
    <dc:type rdf:resource="http://purl.org/dc/dcmitype/StillImage"/>
    <dc:date>2023-06-28T15:45:21.971281</dc:date>
    <dc:format>image/svg+xml</dc:format>
    <dc:creator>
     <cc:Agent>
      <dc:title>Matplotlib v3.7.1, https://matplotlib.org/</dc:title>
     </cc:Agent>
    </dc:creator>
   </cc:Work>
  </rdf:RDF>
 </metadata>
 <defs>
  <style type="text/css">*{stroke-linejoin: round; stroke-linecap: butt}</style>
 </defs>
 <g id="figure_1">
  <g id="patch_1">
   <path d="M 0 325.986375 
L 414.46375 325.986375 
L 414.46375 0 
L 0 0 
L 0 325.986375 
z
" style="fill: none"/>
  </g>
  <g id="axes_1">
   <g id="patch_2">
    <path d="M 50.14375 288.430125 
L 407.26375 288.430125 
L 407.26375 22.318125 
L 50.14375 22.318125 
L 50.14375 288.430125 
z
" style="fill: none"/>
   </g>
   <g id="matplotlib.axis_1">
    <g id="xtick_1">
     <g id="line2d_1">
      <path d="M 66.376477 288.430125 
L 66.376477 22.318125 
" clip-path="url(#p482832af3f)" style="fill: none; stroke: #b0b0b0; stroke-width: 0.8; stroke-linecap: square"/>
     </g>
     <g id="line2d_2">
      <defs>
       <path id="m14e51f1c0c" d="M 0 0 
L 0 3.5 
" style="stroke: #000000; stroke-width: 0.8"/>
      </defs>
      <g>
       <use xlink:href="#m14e51f1c0c" x="66.376477" y="288.430125" style="stroke: #000000; stroke-width: 0.8"/>
      </g>
     </g>
     <g id="text_1">
      <!-- 0.0 -->
      <g transform="translate(58.424915 303.028562) scale(0.1 -0.1)">
       <defs>
        <path id="DejaVuSans-30" d="M 2034 4250 
Q 1547 4250 1301 3770 
Q 1056 3291 1056 2328 
Q 1056 1369 1301 889 
Q 1547 409 2034 409 
Q 2525 409 2770 889 
Q 3016 1369 3016 2328 
Q 3016 3291 2770 3770 
Q 2525 4250 2034 4250 
z
M 2034 4750 
Q 2819 4750 3233 4129 
Q 3647 3509 3647 2328 
Q 3647 1150 3233 529 
Q 2819 -91 2034 -91 
Q 1250 -91 836 529 
Q 422 1150 422 2328 
Q 422 3509 836 4129 
Q 1250 4750 2034 4750 
z
" transform="scale(0.015625)"/>
        <path id="DejaVuSans-2e" d="M 684 794 
L 1344 794 
L 1344 0 
L 684 0 
L 684 794 
z
" transform="scale(0.015625)"/>
       </defs>
       <use xlink:href="#DejaVuSans-30"/>
       <use xlink:href="#DejaVuSans-2e" x="63.623047"/>
       <use xlink:href="#DejaVuSans-30" x="95.410156"/>
      </g>
     </g>
    </g>
    <g id="xtick_2">
     <g id="line2d_3">
      <path d="M 106.958295 288.430125 
L 106.958295 22.318125 
" clip-path="url(#p482832af3f)" style="fill: none; stroke: #b0b0b0; stroke-width: 0.8; stroke-linecap: square"/>
     </g>
     <g id="line2d_4">
      <g>
       <use xlink:href="#m14e51f1c0c" x="106.958295" y="288.430125" style="stroke: #000000; stroke-width: 0.8"/>
      </g>
     </g>
     <g id="text_2">
      <!-- 2.5 -->
      <g transform="translate(99.006733 303.028562) scale(0.1 -0.1)">
       <defs>
        <path id="DejaVuSans-32" d="M 1228 531 
L 3431 531 
L 3431 0 
L 469 0 
L 469 531 
Q 828 903 1448 1529 
Q 2069 2156 2228 2338 
Q 2531 2678 2651 2914 
Q 2772 3150 2772 3378 
Q 2772 3750 2511 3984 
Q 2250 4219 1831 4219 
Q 1534 4219 1204 4116 
Q 875 4013 500 3803 
L 500 4441 
Q 881 4594 1212 4672 
Q 1544 4750 1819 4750 
Q 2544 4750 2975 4387 
Q 3406 4025 3406 3419 
Q 3406 3131 3298 2873 
Q 3191 2616 2906 2266 
Q 2828 2175 2409 1742 
Q 1991 1309 1228 531 
z
" transform="scale(0.015625)"/>
        <path id="DejaVuSans-35" d="M 691 4666 
L 3169 4666 
L 3169 4134 
L 1269 4134 
L 1269 2991 
Q 1406 3038 1543 3061 
Q 1681 3084 1819 3084 
Q 2600 3084 3056 2656 
Q 3513 2228 3513 1497 
Q 3513 744 3044 326 
Q 2575 -91 1722 -91 
Q 1428 -91 1123 -41 
Q 819 9 494 109 
L 494 744 
Q 775 591 1075 516 
Q 1375 441 1709 441 
Q 2250 441 2565 725 
Q 2881 1009 2881 1497 
Q 2881 1984 2565 2268 
Q 2250 2553 1709 2553 
Q 1456 2553 1204 2497 
Q 953 2441 691 2322 
L 691 4666 
z
" transform="scale(0.015625)"/>
       </defs>
       <use xlink:href="#DejaVuSans-32"/>
       <use xlink:href="#DejaVuSans-2e" x="63.623047"/>
       <use xlink:href="#DejaVuSans-35" x="95.410156"/>
      </g>
     </g>
    </g>
    <g id="xtick_3">
     <g id="line2d_5">
      <path d="M 147.540114 288.430125 
L 147.540114 22.318125 
" clip-path="url(#p482832af3f)" style="fill: none; stroke: #b0b0b0; stroke-width: 0.8; stroke-linecap: square"/>
     </g>
     <g id="line2d_6">
      <g>
       <use xlink:href="#m14e51f1c0c" x="147.540114" y="288.430125" style="stroke: #000000; stroke-width: 0.8"/>
      </g>
     </g>
     <g id="text_3">
      <!-- 5.0 -->
      <g transform="translate(139.588551 303.028562) scale(0.1 -0.1)">
       <use xlink:href="#DejaVuSans-35"/>
       <use xlink:href="#DejaVuSans-2e" x="63.623047"/>
       <use xlink:href="#DejaVuSans-30" x="95.410156"/>
      </g>
     </g>
    </g>
    <g id="xtick_4">
     <g id="line2d_7">
      <path d="M 188.121932 288.430125 
L 188.121932 22.318125 
" clip-path="url(#p482832af3f)" style="fill: none; stroke: #b0b0b0; stroke-width: 0.8; stroke-linecap: square"/>
     </g>
     <g id="line2d_8">
      <g>
       <use xlink:href="#m14e51f1c0c" x="188.121932" y="288.430125" style="stroke: #000000; stroke-width: 0.8"/>
      </g>
     </g>
     <g id="text_4">
      <!-- 7.5 -->
      <g transform="translate(180.170369 303.028562) scale(0.1 -0.1)">
       <defs>
        <path id="DejaVuSans-37" d="M 525 4666 
L 3525 4666 
L 3525 4397 
L 1831 0 
L 1172 0 
L 2766 4134 
L 525 4134 
L 525 4666 
z
" transform="scale(0.015625)"/>
       </defs>
       <use xlink:href="#DejaVuSans-37"/>
       <use xlink:href="#DejaVuSans-2e" x="63.623047"/>
       <use xlink:href="#DejaVuSans-35" x="95.410156"/>
      </g>
     </g>
    </g>
    <g id="xtick_5">
     <g id="line2d_9">
      <path d="M 228.70375 288.430125 
L 228.70375 22.318125 
" clip-path="url(#p482832af3f)" style="fill: none; stroke: #b0b0b0; stroke-width: 0.8; stroke-linecap: square"/>
     </g>
     <g id="line2d_10">
      <g>
       <use xlink:href="#m14e51f1c0c" x="228.70375" y="288.430125" style="stroke: #000000; stroke-width: 0.8"/>
      </g>
     </g>
     <g id="text_5">
      <!-- 10.0 -->
      <g transform="translate(217.570938 303.028562) scale(0.1 -0.1)">
       <defs>
        <path id="DejaVuSans-31" d="M 794 531 
L 1825 531 
L 1825 4091 
L 703 3866 
L 703 4441 
L 1819 4666 
L 2450 4666 
L 2450 531 
L 3481 531 
L 3481 0 
L 794 0 
L 794 531 
z
" transform="scale(0.015625)"/>
       </defs>
       <use xlink:href="#DejaVuSans-31"/>
       <use xlink:href="#DejaVuSans-30" x="63.623047"/>
       <use xlink:href="#DejaVuSans-2e" x="127.246094"/>
       <use xlink:href="#DejaVuSans-30" x="159.033203"/>
      </g>
     </g>
    </g>
    <g id="xtick_6">
     <g id="line2d_11">
      <path d="M 269.285568 288.430125 
L 269.285568 22.318125 
" clip-path="url(#p482832af3f)" style="fill: none; stroke: #b0b0b0; stroke-width: 0.8; stroke-linecap: square"/>
     </g>
     <g id="line2d_12">
      <g>
       <use xlink:href="#m14e51f1c0c" x="269.285568" y="288.430125" style="stroke: #000000; stroke-width: 0.8"/>
      </g>
     </g>
     <g id="text_6">
      <!-- 12.5 -->
      <g transform="translate(258.152756 303.028562) scale(0.1 -0.1)">
       <use xlink:href="#DejaVuSans-31"/>
       <use xlink:href="#DejaVuSans-32" x="63.623047"/>
       <use xlink:href="#DejaVuSans-2e" x="127.246094"/>
       <use xlink:href="#DejaVuSans-35" x="159.033203"/>
      </g>
     </g>
    </g>
    <g id="xtick_7">
     <g id="line2d_13">
      <path d="M 309.867386 288.430125 
L 309.867386 22.318125 
" clip-path="url(#p482832af3f)" style="fill: none; stroke: #b0b0b0; stroke-width: 0.8; stroke-linecap: square"/>
     </g>
     <g id="line2d_14">
      <g>
       <use xlink:href="#m14e51f1c0c" x="309.867386" y="288.430125" style="stroke: #000000; stroke-width: 0.8"/>
      </g>
     </g>
     <g id="text_7">
      <!-- 15.0 -->
      <g transform="translate(298.734574 303.028562) scale(0.1 -0.1)">
       <use xlink:href="#DejaVuSans-31"/>
       <use xlink:href="#DejaVuSans-35" x="63.623047"/>
       <use xlink:href="#DejaVuSans-2e" x="127.246094"/>
       <use xlink:href="#DejaVuSans-30" x="159.033203"/>
      </g>
     </g>
    </g>
    <g id="xtick_8">
     <g id="line2d_15">
      <path d="M 350.449205 288.430125 
L 350.449205 22.318125 
" clip-path="url(#p482832af3f)" style="fill: none; stroke: #b0b0b0; stroke-width: 0.8; stroke-linecap: square"/>
     </g>
     <g id="line2d_16">
      <g>
       <use xlink:href="#m14e51f1c0c" x="350.449205" y="288.430125" style="stroke: #000000; stroke-width: 0.8"/>
      </g>
     </g>
     <g id="text_8">
      <!-- 17.5 -->
      <g transform="translate(339.316392 303.028562) scale(0.1 -0.1)">
       <use xlink:href="#DejaVuSans-31"/>
       <use xlink:href="#DejaVuSans-37" x="63.623047"/>
       <use xlink:href="#DejaVuSans-2e" x="127.246094"/>
       <use xlink:href="#DejaVuSans-35" x="159.033203"/>
      </g>
     </g>
    </g>
    <g id="xtick_9">
     <g id="line2d_17">
      <path d="M 391.031023 288.430125 
L 391.031023 22.318125 
" clip-path="url(#p482832af3f)" style="fill: none; stroke: #b0b0b0; stroke-width: 0.8; stroke-linecap: square"/>
     </g>
     <g id="line2d_18">
      <g>
       <use xlink:href="#m14e51f1c0c" x="391.031023" y="288.430125" style="stroke: #000000; stroke-width: 0.8"/>
      </g>
     </g>
     <g id="text_9">
      <!-- 20.0 -->
      <g transform="translate(379.89821 303.028562) scale(0.1 -0.1)">
       <use xlink:href="#DejaVuSans-32"/>
       <use xlink:href="#DejaVuSans-30" x="63.623047"/>
       <use xlink:href="#DejaVuSans-2e" x="127.246094"/>
       <use xlink:href="#DejaVuSans-30" x="159.033203"/>
      </g>
     </g>
    </g>
    <g id="text_10">
     <!-- time (s) -->
     <g transform="translate(209.312344 316.706687) scale(0.1 -0.1)">
      <defs>
       <path id="DejaVuSans-74" d="M 1172 4494 
L 1172 3500 
L 2356 3500 
L 2356 3053 
L 1172 3053 
L 1172 1153 
Q 1172 725 1289 603 
Q 1406 481 1766 481 
L 2356 481 
L 2356 0 
L 1766 0 
Q 1100 0 847 248 
Q 594 497 594 1153 
L 594 3053 
L 172 3053 
L 172 3500 
L 594 3500 
L 594 4494 
L 1172 4494 
z
" transform="scale(0.015625)"/>
       <path id="DejaVuSans-69" d="M 603 3500 
L 1178 3500 
L 1178 0 
L 603 0 
L 603 3500 
z
M 603 4863 
L 1178 4863 
L 1178 4134 
L 603 4134 
L 603 4863 
z
" transform="scale(0.015625)"/>
       <path id="DejaVuSans-6d" d="M 3328 2828 
Q 3544 3216 3844 3400 
Q 4144 3584 4550 3584 
Q 5097 3584 5394 3201 
Q 5691 2819 5691 2113 
L 5691 0 
L 5113 0 
L 5113 2094 
Q 5113 2597 4934 2840 
Q 4756 3084 4391 3084 
Q 3944 3084 3684 2787 
Q 3425 2491 3425 1978 
L 3425 0 
L 2847 0 
L 2847 2094 
Q 2847 2600 2669 2842 
Q 2491 3084 2119 3084 
Q 1678 3084 1418 2786 
Q 1159 2488 1159 1978 
L 1159 0 
L 581 0 
L 581 3500 
L 1159 3500 
L 1159 2956 
Q 1356 3278 1631 3431 
Q 1906 3584 2284 3584 
Q 2666 3584 2933 3390 
Q 3200 3197 3328 2828 
z
" transform="scale(0.015625)"/>
       <path id="DejaVuSans-65" d="M 3597 1894 
L 3597 1613 
L 953 1613 
Q 991 1019 1311 708 
Q 1631 397 2203 397 
Q 2534 397 2845 478 
Q 3156 559 3463 722 
L 3463 178 
Q 3153 47 2828 -22 
Q 2503 -91 2169 -91 
Q 1331 -91 842 396 
Q 353 884 353 1716 
Q 353 2575 817 3079 
Q 1281 3584 2069 3584 
Q 2775 3584 3186 3129 
Q 3597 2675 3597 1894 
z
M 3022 2063 
Q 3016 2534 2758 2815 
Q 2500 3097 2075 3097 
Q 1594 3097 1305 2825 
Q 1016 2553 972 2059 
L 3022 2063 
z
" transform="scale(0.015625)"/>
       <path id="DejaVuSans-20" transform="scale(0.015625)"/>
       <path id="DejaVuSans-28" d="M 1984 4856 
Q 1566 4138 1362 3434 
Q 1159 2731 1159 2009 
Q 1159 1288 1364 580 
Q 1569 -128 1984 -844 
L 1484 -844 
Q 1016 -109 783 600 
Q 550 1309 550 2009 
Q 550 2706 781 3412 
Q 1013 4119 1484 4856 
L 1984 4856 
z
" transform="scale(0.015625)"/>
       <path id="DejaVuSans-73" d="M 2834 3397 
L 2834 2853 
Q 2591 2978 2328 3040 
Q 2066 3103 1784 3103 
Q 1356 3103 1142 2972 
Q 928 2841 928 2578 
Q 928 2378 1081 2264 
Q 1234 2150 1697 2047 
L 1894 2003 
Q 2506 1872 2764 1633 
Q 3022 1394 3022 966 
Q 3022 478 2636 193 
Q 2250 -91 1575 -91 
Q 1294 -91 989 -36 
Q 684 19 347 128 
L 347 722 
Q 666 556 975 473 
Q 1284 391 1588 391 
Q 1994 391 2212 530 
Q 2431 669 2431 922 
Q 2431 1156 2273 1281 
Q 2116 1406 1581 1522 
L 1381 1569 
Q 847 1681 609 1914 
Q 372 2147 372 2553 
Q 372 3047 722 3315 
Q 1072 3584 1716 3584 
Q 2034 3584 2315 3537 
Q 2597 3491 2834 3397 
z
" transform="scale(0.015625)"/>
       <path id="DejaVuSans-29" d="M 513 4856 
L 1013 4856 
Q 1481 4119 1714 3412 
Q 1947 2706 1947 2009 
Q 1947 1309 1714 600 
Q 1481 -109 1013 -844 
L 513 -844 
Q 928 -128 1133 580 
Q 1338 1288 1338 2009 
Q 1338 2731 1133 3434 
Q 928 4138 513 4856 
z
" transform="scale(0.015625)"/>
      </defs>
      <use xlink:href="#DejaVuSans-74"/>
      <use xlink:href="#DejaVuSans-69" x="39.208984"/>
      <use xlink:href="#DejaVuSans-6d" x="66.992188"/>
      <use xlink:href="#DejaVuSans-65" x="164.404297"/>
      <use xlink:href="#DejaVuSans-20" x="225.927734"/>
      <use xlink:href="#DejaVuSans-28" x="257.714844"/>
      <use xlink:href="#DejaVuSans-73" x="296.728516"/>
      <use xlink:href="#DejaVuSans-29" x="348.828125"/>
     </g>
    </g>
   </g>
   <g id="matplotlib.axis_2">
    <g id="ytick_1">
     <g id="line2d_19">
      <path d="M 50.14375 278.913158 
L 407.26375 278.913158 
" clip-path="url(#p482832af3f)" style="fill: none; stroke: #b0b0b0; stroke-width: 0.8; stroke-linecap: square"/>
     </g>
     <g id="line2d_20">
      <defs>
       <path id="m2e126f8468" d="M 0 0 
L -3.5 0 
" style="stroke: #000000; stroke-width: 0.8"/>
      </defs>
      <g>
       <use xlink:href="#m2e126f8468" x="50.14375" y="278.913158" style="stroke: #000000; stroke-width: 0.8"/>
      </g>
     </g>
     <g id="text_11">
      <!-- 0.00 -->
      <g transform="translate(20.878125 282.712376) scale(0.1 -0.1)">
       <use xlink:href="#DejaVuSans-30"/>
       <use xlink:href="#DejaVuSans-2e" x="63.623047"/>
       <use xlink:href="#DejaVuSans-30" x="95.410156"/>
       <use xlink:href="#DejaVuSans-30" x="159.033203"/>
      </g>
     </g>
    </g>
    <g id="ytick_2">
     <g id="line2d_21">
      <path d="M 50.14375 246.675249 
L 407.26375 246.675249 
" clip-path="url(#p482832af3f)" style="fill: none; stroke: #b0b0b0; stroke-width: 0.8; stroke-linecap: square"/>
     </g>
     <g id="line2d_22">
      <g>
       <use xlink:href="#m2e126f8468" x="50.14375" y="246.675249" style="stroke: #000000; stroke-width: 0.8"/>
      </g>
     </g>
     <g id="text_12">
      <!-- 0.25 -->
      <g transform="translate(20.878125 250.474468) scale(0.1 -0.1)">
       <use xlink:href="#DejaVuSans-30"/>
       <use xlink:href="#DejaVuSans-2e" x="63.623047"/>
       <use xlink:href="#DejaVuSans-32" x="95.410156"/>
       <use xlink:href="#DejaVuSans-35" x="159.033203"/>
      </g>
     </g>
    </g>
    <g id="ytick_3">
     <g id="line2d_23">
      <path d="M 50.14375 214.437341 
L 407.26375 214.437341 
" clip-path="url(#p482832af3f)" style="fill: none; stroke: #b0b0b0; stroke-width: 0.8; stroke-linecap: square"/>
     </g>
     <g id="line2d_24">
      <g>
       <use xlink:href="#m2e126f8468" x="50.14375" y="214.437341" style="stroke: #000000; stroke-width: 0.8"/>
      </g>
     </g>
     <g id="text_13">
      <!-- 0.50 -->
      <g transform="translate(20.878125 218.23656) scale(0.1 -0.1)">
       <use xlink:href="#DejaVuSans-30"/>
       <use xlink:href="#DejaVuSans-2e" x="63.623047"/>
       <use xlink:href="#DejaVuSans-35" x="95.410156"/>
       <use xlink:href="#DejaVuSans-30" x="159.033203"/>
      </g>
     </g>
    </g>
    <g id="ytick_4">
     <g id="line2d_25">
      <path d="M 50.14375 182.199433 
L 407.26375 182.199433 
" clip-path="url(#p482832af3f)" style="fill: none; stroke: #b0b0b0; stroke-width: 0.8; stroke-linecap: square"/>
     </g>
     <g id="line2d_26">
      <g>
       <use xlink:href="#m2e126f8468" x="50.14375" y="182.199433" style="stroke: #000000; stroke-width: 0.8"/>
      </g>
     </g>
     <g id="text_14">
      <!-- 0.75 -->
      <g transform="translate(20.878125 185.998652) scale(0.1 -0.1)">
       <use xlink:href="#DejaVuSans-30"/>
       <use xlink:href="#DejaVuSans-2e" x="63.623047"/>
       <use xlink:href="#DejaVuSans-37" x="95.410156"/>
       <use xlink:href="#DejaVuSans-35" x="159.033203"/>
      </g>
     </g>
    </g>
    <g id="ytick_5">
     <g id="line2d_27">
      <path d="M 50.14375 149.961525 
L 407.26375 149.961525 
" clip-path="url(#p482832af3f)" style="fill: none; stroke: #b0b0b0; stroke-width: 0.8; stroke-linecap: square"/>
     </g>
     <g id="line2d_28">
      <g>
       <use xlink:href="#m2e126f8468" x="50.14375" y="149.961525" style="stroke: #000000; stroke-width: 0.8"/>
      </g>
     </g>
     <g id="text_15">
      <!-- 1.00 -->
      <g transform="translate(20.878125 153.760744) scale(0.1 -0.1)">
       <use xlink:href="#DejaVuSans-31"/>
       <use xlink:href="#DejaVuSans-2e" x="63.623047"/>
       <use xlink:href="#DejaVuSans-30" x="95.410156"/>
       <use xlink:href="#DejaVuSans-30" x="159.033203"/>
      </g>
     </g>
    </g>
    <g id="ytick_6">
     <g id="line2d_29">
      <path d="M 50.14375 117.723617 
L 407.26375 117.723617 
" clip-path="url(#p482832af3f)" style="fill: none; stroke: #b0b0b0; stroke-width: 0.8; stroke-linecap: square"/>
     </g>
     <g id="line2d_30">
      <g>
       <use xlink:href="#m2e126f8468" x="50.14375" y="117.723617" style="stroke: #000000; stroke-width: 0.8"/>
      </g>
     </g>
     <g id="text_16">
      <!-- 1.25 -->
      <g transform="translate(20.878125 121.522835) scale(0.1 -0.1)">
       <use xlink:href="#DejaVuSans-31"/>
       <use xlink:href="#DejaVuSans-2e" x="63.623047"/>
       <use xlink:href="#DejaVuSans-32" x="95.410156"/>
       <use xlink:href="#DejaVuSans-35" x="159.033203"/>
      </g>
     </g>
    </g>
    <g id="ytick_7">
     <g id="line2d_31">
      <path d="M 50.14375 85.485708 
L 407.26375 85.485708 
" clip-path="url(#p482832af3f)" style="fill: none; stroke: #b0b0b0; stroke-width: 0.8; stroke-linecap: square"/>
     </g>
     <g id="line2d_32">
      <g>
       <use xlink:href="#m2e126f8468" x="50.14375" y="85.485708" style="stroke: #000000; stroke-width: 0.8"/>
      </g>
     </g>
     <g id="text_17">
      <!-- 1.50 -->
      <g transform="translate(20.878125 89.284927) scale(0.1 -0.1)">
       <use xlink:href="#DejaVuSans-31"/>
       <use xlink:href="#DejaVuSans-2e" x="63.623047"/>
       <use xlink:href="#DejaVuSans-35" x="95.410156"/>
       <use xlink:href="#DejaVuSans-30" x="159.033203"/>
      </g>
     </g>
    </g>
    <g id="ytick_8">
     <g id="line2d_33">
      <path d="M 50.14375 53.2478 
L 407.26375 53.2478 
" clip-path="url(#p482832af3f)" style="fill: none; stroke: #b0b0b0; stroke-width: 0.8; stroke-linecap: square"/>
     </g>
     <g id="line2d_34">
      <g>
       <use xlink:href="#m2e126f8468" x="50.14375" y="53.2478" style="stroke: #000000; stroke-width: 0.8"/>
      </g>
     </g>
     <g id="text_18">
      <!-- 1.75 -->
      <g transform="translate(20.878125 57.047019) scale(0.1 -0.1)">
       <use xlink:href="#DejaVuSans-31"/>
       <use xlink:href="#DejaVuSans-2e" x="63.623047"/>
       <use xlink:href="#DejaVuSans-37" x="95.410156"/>
       <use xlink:href="#DejaVuSans-35" x="159.033203"/>
      </g>
     </g>
    </g>
    <g id="text_19">
     <!-- x (m) -->
     <g transform="translate(14.798438 168.694437) rotate(-90) scale(0.1 -0.1)">
      <defs>
       <path id="DejaVuSans-78" d="M 3513 3500 
L 2247 1797 
L 3578 0 
L 2900 0 
L 1881 1375 
L 863 0 
L 184 0 
L 1544 1831 
L 300 3500 
L 978 3500 
L 1906 2253 
L 2834 3500 
L 3513 3500 
z
" transform="scale(0.015625)"/>
      </defs>
      <use xlink:href="#DejaVuSans-78"/>
      <use xlink:href="#DejaVuSans-20" x="59.179688"/>
      <use xlink:href="#DejaVuSans-28" x="90.966797"/>
      <use xlink:href="#DejaVuSans-6d" x="129.980469"/>
      <use xlink:href="#DejaVuSans-29" x="227.392578"/>
     </g>
    </g>
   </g>
   <g id="line2d_35">
    <path d="M 66.376477 117.723617 
L 67.10695 117.62067 
L 68.162077 117.212544 
L 69.704186 116.629194 
L 70.515823 116.566821 
L 71.165132 116.724369 
L 71.814441 117.108661 
L 72.46375 117.750382 
L 73.194223 118.807786 
L 74.005859 120.421566 
L 74.898659 122.738908 
L 75.872623 125.896265 
L 77.008914 130.337746 
L 78.469859 137.027868 
L 80.661277 148.305105 
L 82.528041 158.994785 
L 85.449932 175.680976 
L 86.910877 182.756044 
L 88.047168 187.27449 
L 89.021132 190.33505 
L 89.832768 192.262868 
L 90.563241 193.495709 
L 91.21255 194.183761 
L 91.780695 194.471268 
L 92.267677 194.489765 
L 92.754659 194.301038 
L 93.322805 193.82832 
L 93.972114 192.965315 
L 94.78375 191.43611 
L 95.757714 189.004698 
L 96.894005 185.467803 
L 98.35495 180.074219 
L 100.708695 170.291362 
L 103.71175 158.02556 
L 105.253859 152.633985 
L 106.633641 148.633257 
L 107.688768 146.173811 
L 108.743895 144.273569 
L 109.636695 143.103688 
L 110.448332 142.387859 
L 111.259968 141.990646 
L 111.990441 141.893605 
L 112.63975 141.998855 
L 113.370223 142.316137 
L 114.344186 143.036972 
L 115.480477 144.238387 
L 116.941423 146.21113 
L 119.376332 150.054886 
L 121.730077 153.721011 
L 123.434514 155.963458 
L 124.651968 157.242503 
L 125.869423 158.199504 
L 126.843386 158.721878 
L 127.81735 159.023567 
L 128.71015 159.111409 
L 129.846441 158.97098 
L 131.063895 158.535428 
L 132.200186 157.901722 
L 133.498805 156.959832 
L 135.122077 155.553063 
L 138.449786 152.403042 
L 140.397714 150.720618 
L 141.939823 149.605901 
L 143.644259 148.668475 
L 144.942877 148.179307 
L 146.160332 147.899759 
L 147.783605 147.788621 
L 149.569205 147.96934 
L 151.679459 148.500225 
L 155.250659 149.811157 
L 158.091386 150.85298 
L 160.932114 151.611834 
L 162.63655 151.875685 
L 165.071459 151.980411 
L 167.831023 151.758754 
L 171.889205 151.018286 
L 175.866223 150.207974 
L 180.086732 149.644921 
L 183.901423 149.530482 
L 186.417495 149.630318 
L 198.023895 150.475672 
L 204.59815 150.428373 
L 208.656332 150.250066 
L 222.048332 149.99738 
L 226.512332 150.079425 
L 231.38215 150.16708 
L 235.683823 150.200788 
L 245.342295 150.131791 
L 251.91655 150.085801 
L 256.705205 150.083127 
L 262.792477 150.109637 
L 268.717423 150.129413 
L 273.830732 150.133435 
L 279.59335 150.120975 
L 285.193641 150.111225 
L 290.469277 150.106161 
L 296.231895 150.11171 
L 301.832186 150.115712 
L 307.27015 150.119729 
L 312.870441 150.116723 
L 318.470732 150.115515 
L 324.071023 150.112264 
L 329.671314 150.114214 
L 335.271605 150.113888 
L 340.871895 150.116424 
L 346.472186 150.114782 
L 352.072477 150.115807 
L 357.672768 150.113673 
L 363.273059 150.115216 
L 368.87335 150.113846 
L 374.473641 150.115733 
L 380.073932 150.114186 
L 385.674223 150.115704 
L 391.031023 150.115572 
L 391.031023 150.115572 
" clip-path="url(#p482832af3f)" style="fill: none; stroke: #1f77b4; stroke-width: 1.5; stroke-linecap: square"/>
   </g>
   <g id="line2d_36">
    <path d="M 66.376477 276.334125 
L 67.025786 276.245966 
L 67.756259 275.920776 
L 68.567895 275.30811 
L 69.541859 274.26621 
L 70.67815 272.688191 
L 71.976768 270.486243 
L 73.518877 267.422637 
L 75.385641 263.186115 
L 77.414732 258.010763 
L 79.443823 252.230837 
L 81.878732 245.207519 
L 84.07015 239.719952 
L 87.722514 230.659132 
L 89.995095 224.337527 
L 92.267677 217.260493 
L 95.027241 207.785259 
L 101.439168 185.216716 
L 103.549423 178.819367 
L 105.335023 174.163431 
L 106.877132 170.781643 
L 108.17575 168.411699 
L 109.393205 166.583811 
L 110.691823 165.0401 
L 111.990441 163.88224 
L 113.289059 163.066742 
L 114.668841 162.518463 
L 115.886295 162.248065 
L 117.834223 162.110693 
L 124.002659 162.100768 
L 125.544768 161.845086 
L 127.573859 161.24101 
L 129.115968 160.585028 
L 131.550877 159.247825 
L 135.690223 156.502603 
L 139.910732 153.840441 
L 142.507968 152.583397 
L 144.861714 151.785384 
L 146.56615 151.409508 
L 149.163386 151.132968 
L 152.409932 151.154511 
L 160.607459 151.617412 
L 165.071459 151.468433 
L 167.749859 151.211446 
L 177.002514 150.076692 
L 179.924405 149.854207 
L 182.765132 149.742218 
L 191.693132 149.844 
L 195.994805 149.9255 
L 212.227532 149.655516 
L 216.529205 149.592885 
L 228.622586 149.628256 
L 235.196841 149.645299 
L 240.147823 149.631587 
L 245.910441 149.599154 
L 251.997714 149.579786 
L 257.192186 149.578835 
L 262.63015 149.585603 
L 268.068114 149.594156 
L 273.830732 149.592124 
L 279.268695 149.588113 
L 284.706659 149.581057 
L 290.30695 149.580776 
L 295.744914 149.580546 
L 301.345205 149.584341 
L 306.945495 149.583517 
L 312.545786 149.584302 
L 318.146077 149.581329 
L 323.746368 149.5822 
L 329.346659 149.580703 
L 334.94695 149.582849 
L 340.547241 149.581569 
L 346.147532 149.58313 
L 351.747823 149.581222 
L 357.348114 149.582615 
L 362.948405 149.580962 
L 368.548695 149.58269 
L 374.148986 149.581175 
L 379.749277 149.582817 
L 385.349568 149.581144 
L 390.949859 149.582704 
L 391.031023 149.581082 
L 391.031023 149.581082 
" clip-path="url(#p482832af3f)" style="fill: none; stroke: #ff7f0e; stroke-width: 1.5; stroke-linecap: square"/>
   </g>
   <g id="line2d_37">
    <path d="M 66.376477 36.484088 
L 67.10695 36.58741 
L 68.162077 37.007298 
L 70.353495 37.945807 
L 71.408623 38.122389 
L 72.382586 38.053724 
L 73.35655 37.765905 
L 74.492841 37.198439 
L 76.359605 35.966498 
L 78.145205 34.879517 
L 79.200332 34.496278 
L 80.011968 34.416003 
L 80.742441 34.544177 
L 81.472914 34.893079 
L 82.203386 35.489257 
L 83.015023 36.469617 
L 83.826659 37.809852 
L 84.719459 39.72377 
L 86.342732 43.947815 
L 88.047168 49.005792 
L 89.589277 54.270281 
L 91.456041 61.530426 
L 93.566295 70.679922 
L 101.195677 104.484839 
L 102.981277 110.875249 
L 104.60455 115.839285 
L 106.065495 119.586333 
L 107.445277 122.50734 
L 108.662732 124.619433 
L 109.96135 126.4313 
L 111.341132 127.921713 
L 112.558586 128.931116 
L 114.100695 129.884105 
L 115.561641 130.55448 
L 117.509568 131.255824 
L 122.379386 133.083253 
L 124.895459 134.446382 
L 126.762223 135.676147 
L 130.333423 138.402015 
L 134.472768 141.657825 
L 137.475823 143.691714 
L 139.342586 144.722477 
L 141.777495 145.754798 
L 144.212405 146.445493 
L 146.971968 146.880879 
L 150.867823 147.089714 
L 156.630441 147.194761 
L 162.311895 147.639147 
L 175.054586 149.266887 
L 181.547677 149.578584 
L 198.023895 149.603578 
L 205.734441 149.800226 
L 259.95175 149.99309 
L 265.389714 149.98791 
L 271.152332 149.99187 
L 276.752623 149.99598 
L 282.190586 150.002095 
L 287.790877 150.001773 
L 293.391168 150.002206 
L 298.991459 149.999185 
L 304.59175 150.000662 
L 310.192041 150.000037 
L 315.792332 150.0028 
L 321.392623 150.001686 
L 326.992914 150.003136 
L 332.593205 150.001125 
L 338.193495 150.00257 
L 343.793786 150.001082 
L 349.394077 150.002959 
L 354.994368 150.001502 
L 360.594659 150.003122 
L 366.19495 150.001411 
L 371.795241 150.002964 
L 377.395532 150.001347 
L 382.995823 150.003019 
L 388.596114 150.001445 
L 391.031023 150.001454 
L 391.031023 150.001454 
" clip-path="url(#p482832af3f)" style="fill: none; stroke: #2ca02c; stroke-width: 1.5; stroke-linecap: square"/>
   </g>
   <g id="line2d_38">
    <path d="M 66.376477 129.329264 
L 67.188114 129.219617 
L 68.811386 128.942453 
L 69.623023 129.067776 
L 70.434659 129.435059 
L 71.327459 130.090434 
L 72.057932 130.867774 
L 72.950732 132.193914 
L 74.574005 135.158136 
L 77.008914 139.635095 
L 78.388695 141.767258 
L 79.768477 143.483479 
L 80.904768 144.578564 
L 82.041059 145.400471 
L 83.096186 145.944896 
L 84.475968 146.380855 
L 85.693423 146.56306 
L 87.64135 146.57394 
L 92.348841 146.092878 
L 94.540259 145.959726 
L 97.624477 146.05594 
L 101.114514 146.541159 
L 103.955241 147.110271 
L 108.17575 147.980632 
L 110.85415 148.426891 
L 115.480477 148.882135 
L 118.240041 148.981246 
L 121.405423 148.992802 
L 127.655023 148.926315 
L 141.452841 149.26426 
L 145.916841 149.401378 
L 220.262732 149.560524 
L 225.863023 149.559052 
L 231.463314 149.558718 
L 237.063605 149.555857 
L 242.663895 149.558039 
L 248.264186 149.557998 
L 253.864477 149.560882 
L 259.464768 149.559547 
L 265.065059 149.560756 
L 270.66535 149.558691 
L 276.265641 149.560253 
L 281.865932 149.558912 
L 287.466223 149.560855 
L 293.066514 149.559369 
L 298.666805 149.560928 
L 304.267095 149.559185 
L 309.867386 149.56075 
L 315.467677 149.559165 
L 321.067968 149.56086 
L 326.668259 149.559286 
L 332.26855 149.560905 
L 337.868841 149.559256 
L 343.469132 149.560856 
L 349.069423 149.559235 
L 354.669714 149.560871 
L 360.270005 149.559264 
L 365.870295 149.560888 
L 371.470586 149.559262 
L 377.070877 149.560877 
L 382.671168 149.559254 
L 388.271459 149.560877 
L 391.031023 149.560879 
L 391.031023 149.560879 
" clip-path="url(#p482832af3f)" style="fill: none; stroke: #d62728; stroke-width: 1.5; stroke-linecap: square"/>
   </g>
   <g id="line2d_39">
    <path d="M 66.376477 97.091355 
L 67.025786 97.181284 
L 67.756259 97.525785 
L 68.730223 98.303287 
L 70.921641 100.228086 
L 72.707241 102.115186 
L 74.330514 104.213624 
L 76.03495 106.867281 
L 77.577059 109.656177 
L 79.768477 114.164468 
L 82.365714 120.021614 
L 86.829714 129.945004 
L 88.615314 133.386982 
L 90.157423 135.968709 
L 91.780695 138.236148 
L 93.241641 139.86372 
L 94.702586 141.103735 
L 96.082368 141.938004 
L 97.299823 142.432921 
L 98.841932 142.774834 
L 100.221714 142.869631 
L 102.494295 142.727821 
L 107.851095 142.106242 
L 109.555532 142.096792 
L 111.909277 142.355633 
L 113.613714 142.739915 
L 116.373277 143.668577 
L 121.730077 145.997976 
L 124.24615 147.027633 
L 127.411532 148.031544 
L 129.278295 148.435983 
L 132.200186 148.78028 
L 135.690223 148.816356 
L 138.53095 148.670055 
L 143.157277 148.380355 
L 148.838732 148.34098 
L 155.981132 148.845705 
L 160.282805 149.207877 
L 168.236841 149.516851 
L 186.092841 149.351567 
L 190.556841 149.415593 
L 195.994805 149.511335 
L 208.412841 149.555337 
L 213.850805 149.530022 
L 218.964114 149.51679 
L 225.213714 149.530581 
L 230.651677 149.548999 
L 235.927314 149.56331 
L 241.852259 149.562391 
L 247.290223 149.557647 
L 252.728186 149.551067 
L 258.490805 149.553054 
L 263.928768 149.555387 
L 269.529059 149.560759 
L 275.12935 149.560189 
L 280.729641 149.560612 
L 286.329932 149.557466 
L 291.930223 149.55864 
L 297.530514 149.557679 
L 303.130805 149.560224 
L 308.731095 149.559048 
L 314.331386 149.560517 
L 319.931677 149.558516 
L 325.531968 149.559923 
L 331.132259 149.55837 
L 336.73255 149.560196 
L 342.332841 149.55872 
L 347.933132 149.560345 
L 353.533423 149.558643 
L 359.133714 149.560194 
L 364.734005 149.558566 
L 370.334295 149.560227 
L 375.934586 149.558646 
L 381.534877 149.560278 
L 387.135168 149.558643 
L 391.031023 149.558629 
L 391.031023 149.558629 
" clip-path="url(#p482832af3f)" style="fill: none; stroke: #9467bd; stroke-width: 1.5; stroke-linecap: square"/>
   </g>
   <g id="patch_3">
    <path d="M 50.14375 288.430125 
L 50.14375 22.318125 
" style="fill: none; stroke: #000000; stroke-width: 0.8; stroke-linejoin: miter; stroke-linecap: square"/>
   </g>
   <g id="patch_4">
    <path d="M 407.26375 288.430125 
L 407.26375 22.318125 
" style="fill: none; stroke: #000000; stroke-width: 0.8; stroke-linejoin: miter; stroke-linecap: square"/>
   </g>
   <g id="patch_5">
    <path d="M 50.14375 288.430125 
L 407.26375 288.430125 
" style="fill: none; stroke: #000000; stroke-width: 0.8; stroke-linejoin: miter; stroke-linecap: square"/>
   </g>
   <g id="patch_6">
    <path d="M 50.14375 22.318125 
L 407.26375 22.318125 
" style="fill: none; stroke: #000000; stroke-width: 0.8; stroke-linejoin: miter; stroke-linecap: square"/>
   </g>
   <g id="text_20">
    <!-- x vs time -->
    <g transform="translate(201.106563 16.318125) scale(0.12 -0.12)">
     <defs>
      <path id="DejaVuSans-76" d="M 191 3500 
L 800 3500 
L 1894 563 
L 2988 3500 
L 3597 3500 
L 2284 0 
L 1503 0 
L 191 3500 
z
" transform="scale(0.015625)"/>
     </defs>
     <use xlink:href="#DejaVuSans-78"/>
     <use xlink:href="#DejaVuSans-20" x="59.179688"/>
     <use xlink:href="#DejaVuSans-76" x="90.966797"/>
     <use xlink:href="#DejaVuSans-73" x="150.146484"/>
     <use xlink:href="#DejaVuSans-20" x="202.246094"/>
     <use xlink:href="#DejaVuSans-74" x="234.033203"/>
     <use xlink:href="#DejaVuSans-69" x="273.242188"/>
     <use xlink:href="#DejaVuSans-6d" x="301.025391"/>
     <use xlink:href="#DejaVuSans-65" x="398.4375"/>
    </g>
   </g>
  </g>
 </g>
 <defs>
  <clipPath id="p482832af3f">
   <rect x="50.14375" y="22.318125" width="357.12" height="266.112"/>
  </clipPath>
 </defs>
</svg>
