<?xml version="1.0" encoding="utf-8" standalone="no"?>
<!DOCTYPE svg PUBLIC "-//W3C//DTD SVG 1.1//EN"
  "http://www.w3.org/Graphics/SVG/1.1/DTD/svg11.dtd">
<svg xmlns:xlink="http://www.w3.org/1999/xlink" width="408.10125pt" height="325.986375pt" viewBox="0 0 408.10125 325.986375" xmlns="http://www.w3.org/2000/svg" version="1.1">
 <metadata>
  <rdf:RDF xmlns:dc="http://purl.org/dc/elements/1.1/" xmlns:cc="http://creativecommons.org/ns#" xmlns:rdf="http://www.w3.org/1999/02/22-rdf-syntax-ns#">
   <cc:Work>
    <dc:type rdf:resource="http://purl.org/dc/dcmitype/StillImage"/>
    <dc:date>2023-06-28T15:38:15.455769</dc:date>
    <dc:format>image/svg+xml</dc:format>
    <dc:creator>
     <cc:Agent>
      <dc:title>Matplotlib v3.7.1, https://matplotlib.org/</dc:title>
     </cc:Agent>
    </dc:creator>
   </cc:Work>
  </rdf:RDF>
 </metadata>
 <defs>
  <style type="text/css">*{stroke-linejoin: round; stroke-linecap: butt}</style>
 </defs>
 <g id="figure_1">
  <g id="patch_1">
   <path d="M 0 325.986375 
L 408.10125 325.986375 
L 408.10125 0 
L 0 0 
L 0 325.986375 
z
" style="fill: none"/>
  </g>
  <g id="axes_1">
   <g id="patch_2">
    <path d="M 43.78125 288.430125 
L 400.90125 288.430125 
L 400.90125 22.318125 
L 43.78125 22.318125 
L 43.78125 288.430125 
z
" style="fill: none"/>
   </g>
   <g id="matplotlib.axis_1">
    <g id="xtick_1">
     <g id="line2d_1">
      <path d="M 60.013977 288.430125 
L 60.013977 22.318125 
" clip-path="url(#p852fdf1269)" style="fill: none; stroke: #b0b0b0; stroke-width: 0.8; stroke-linecap: square"/>
     </g>
     <g id="line2d_2">
      <defs>
       <path id="m9d1c2115e9" d="M 0 0 
L 0 3.5 
" style="stroke: #000000; stroke-width: 0.8"/>
      </defs>
      <g>
       <use xlink:href="#m9d1c2115e9" x="60.013977" y="288.430125" style="stroke: #000000; stroke-width: 0.8"/>
      </g>
     </g>
     <g id="text_1">
      <!-- 0.0 -->
      <g transform="translate(52.062415 303.028562) scale(0.1 -0.1)">
       <defs>
        <path id="DejaVuSans-30" d="M 2034 4250 
Q 1547 4250 1301 3770 
Q 1056 3291 1056 2328 
Q 1056 1369 1301 889 
Q 1547 409 2034 409 
Q 2525 409 2770 889 
Q 3016 1369 3016 2328 
Q 3016 3291 2770 3770 
Q 2525 4250 2034 4250 
z
M 2034 4750 
Q 2819 4750 3233 4129 
Q 3647 3509 3647 2328 
Q 3647 1150 3233 529 
Q 2819 -91 2034 -91 
Q 1250 -91 836 529 
Q 422 1150 422 2328 
Q 422 3509 836 4129 
Q 1250 4750 2034 4750 
z
" transform="scale(0.015625)"/>
        <path id="DejaVuSans-2e" d="M 684 794 
L 1344 794 
L 1344 0 
L 684 0 
L 684 794 
z
" transform="scale(0.015625)"/>
       </defs>
       <use xlink:href="#DejaVuSans-30"/>
       <use xlink:href="#DejaVuSans-2e" x="63.623047"/>
       <use xlink:href="#DejaVuSans-30" x="95.410156"/>
      </g>
     </g>
    </g>
    <g id="xtick_2">
     <g id="line2d_3">
      <path d="M 100.595795 288.430125 
L 100.595795 22.318125 
" clip-path="url(#p852fdf1269)" style="fill: none; stroke: #b0b0b0; stroke-width: 0.8; stroke-linecap: square"/>
     </g>
     <g id="line2d_4">
      <g>
       <use xlink:href="#m9d1c2115e9" x="100.595795" y="288.430125" style="stroke: #000000; stroke-width: 0.8"/>
      </g>
     </g>
     <g id="text_2">
      <!-- 2.5 -->
      <g transform="translate(92.644233 303.028562) scale(0.1 -0.1)">
       <defs>
        <path id="DejaVuSans-32" d="M 1228 531 
L 3431 531 
L 3431 0 
L 469 0 
L 469 531 
Q 828 903 1448 1529 
Q 2069 2156 2228 2338 
Q 2531 2678 2651 2914 
Q 2772 3150 2772 3378 
Q 2772 3750 2511 3984 
Q 2250 4219 1831 4219 
Q 1534 4219 1204 4116 
Q 875 4013 500 3803 
L 500 4441 
Q 881 4594 1212 4672 
Q 1544 4750 1819 4750 
Q 2544 4750 2975 4387 
Q 3406 4025 3406 3419 
Q 3406 3131 3298 2873 
Q 3191 2616 2906 2266 
Q 2828 2175 2409 1742 
Q 1991 1309 1228 531 
z
" transform="scale(0.015625)"/>
        <path id="DejaVuSans-35" d="M 691 4666 
L 3169 4666 
L 3169 4134 
L 1269 4134 
L 1269 2991 
Q 1406 3038 1543 3061 
Q 1681 3084 1819 3084 
Q 2600 3084 3056 2656 
Q 3513 2228 3513 1497 
Q 3513 744 3044 326 
Q 2575 -91 1722 -91 
Q 1428 -91 1123 -41 
Q 819 9 494 109 
L 494 744 
Q 775 591 1075 516 
Q 1375 441 1709 441 
Q 2250 441 2565 725 
Q 2881 1009 2881 1497 
Q 2881 1984 2565 2268 
Q 2250 2553 1709 2553 
Q 1456 2553 1204 2497 
Q 953 2441 691 2322 
L 691 4666 
z
" transform="scale(0.015625)"/>
       </defs>
       <use xlink:href="#DejaVuSans-32"/>
       <use xlink:href="#DejaVuSans-2e" x="63.623047"/>
       <use xlink:href="#DejaVuSans-35" x="95.410156"/>
      </g>
     </g>
    </g>
    <g id="xtick_3">
     <g id="line2d_5">
      <path d="M 141.177614 288.430125 
L 141.177614 22.318125 
" clip-path="url(#p852fdf1269)" style="fill: none; stroke: #b0b0b0; stroke-width: 0.8; stroke-linecap: square"/>
     </g>
     <g id="line2d_6">
      <g>
       <use xlink:href="#m9d1c2115e9" x="141.177614" y="288.430125" style="stroke: #000000; stroke-width: 0.8"/>
      </g>
     </g>
     <g id="text_3">
      <!-- 5.0 -->
      <g transform="translate(133.226051 303.028562) scale(0.1 -0.1)">
       <use xlink:href="#DejaVuSans-35"/>
       <use xlink:href="#DejaVuSans-2e" x="63.623047"/>
       <use xlink:href="#DejaVuSans-30" x="95.410156"/>
      </g>
     </g>
    </g>
    <g id="xtick_4">
     <g id="line2d_7">
      <path d="M 181.759432 288.430125 
L 181.759432 22.318125 
" clip-path="url(#p852fdf1269)" style="fill: none; stroke: #b0b0b0; stroke-width: 0.8; stroke-linecap: square"/>
     </g>
     <g id="line2d_8">
      <g>
       <use xlink:href="#m9d1c2115e9" x="181.759432" y="288.430125" style="stroke: #000000; stroke-width: 0.8"/>
      </g>
     </g>
     <g id="text_4">
      <!-- 7.5 -->
      <g transform="translate(173.807869 303.028562) scale(0.1 -0.1)">
       <defs>
        <path id="DejaVuSans-37" d="M 525 4666 
L 3525 4666 
L 3525 4397 
L 1831 0 
L 1172 0 
L 2766 4134 
L 525 4134 
L 525 4666 
z
" transform="scale(0.015625)"/>
       </defs>
       <use xlink:href="#DejaVuSans-37"/>
       <use xlink:href="#DejaVuSans-2e" x="63.623047"/>
       <use xlink:href="#DejaVuSans-35" x="95.410156"/>
      </g>
     </g>
    </g>
    <g id="xtick_5">
     <g id="line2d_9">
      <path d="M 222.34125 288.430125 
L 222.34125 22.318125 
" clip-path="url(#p852fdf1269)" style="fill: none; stroke: #b0b0b0; stroke-width: 0.8; stroke-linecap: square"/>
     </g>
     <g id="line2d_10">
      <g>
       <use xlink:href="#m9d1c2115e9" x="222.34125" y="288.430125" style="stroke: #000000; stroke-width: 0.8"/>
      </g>
     </g>
     <g id="text_5">
      <!-- 10.0 -->
      <g transform="translate(211.208438 303.028562) scale(0.1 -0.1)">
       <defs>
        <path id="DejaVuSans-31" d="M 794 531 
L 1825 531 
L 1825 4091 
L 703 3866 
L 703 4441 
L 1819 4666 
L 2450 4666 
L 2450 531 
L 3481 531 
L 3481 0 
L 794 0 
L 794 531 
z
" transform="scale(0.015625)"/>
       </defs>
       <use xlink:href="#DejaVuSans-31"/>
       <use xlink:href="#DejaVuSans-30" x="63.623047"/>
       <use xlink:href="#DejaVuSans-2e" x="127.246094"/>
       <use xlink:href="#DejaVuSans-30" x="159.033203"/>
      </g>
     </g>
    </g>
    <g id="xtick_6">
     <g id="line2d_11">
      <path d="M 262.923068 288.430125 
L 262.923068 22.318125 
" clip-path="url(#p852fdf1269)" style="fill: none; stroke: #b0b0b0; stroke-width: 0.8; stroke-linecap: square"/>
     </g>
     <g id="line2d_12">
      <g>
       <use xlink:href="#m9d1c2115e9" x="262.923068" y="288.430125" style="stroke: #000000; stroke-width: 0.8"/>
      </g>
     </g>
     <g id="text_6">
      <!-- 12.5 -->
      <g transform="translate(251.790256 303.028562) scale(0.1 -0.1)">
       <use xlink:href="#DejaVuSans-31"/>
       <use xlink:href="#DejaVuSans-32" x="63.623047"/>
       <use xlink:href="#DejaVuSans-2e" x="127.246094"/>
       <use xlink:href="#DejaVuSans-35" x="159.033203"/>
      </g>
     </g>
    </g>
    <g id="xtick_7">
     <g id="line2d_13">
      <path d="M 303.504886 288.430125 
L 303.504886 22.318125 
" clip-path="url(#p852fdf1269)" style="fill: none; stroke: #b0b0b0; stroke-width: 0.8; stroke-linecap: square"/>
     </g>
     <g id="line2d_14">
      <g>
       <use xlink:href="#m9d1c2115e9" x="303.504886" y="288.430125" style="stroke: #000000; stroke-width: 0.8"/>
      </g>
     </g>
     <g id="text_7">
      <!-- 15.0 -->
      <g transform="translate(292.372074 303.028562) scale(0.1 -0.1)">
       <use xlink:href="#DejaVuSans-31"/>
       <use xlink:href="#DejaVuSans-35" x="63.623047"/>
       <use xlink:href="#DejaVuSans-2e" x="127.246094"/>
       <use xlink:href="#DejaVuSans-30" x="159.033203"/>
      </g>
     </g>
    </g>
    <g id="xtick_8">
     <g id="line2d_15">
      <path d="M 344.086705 288.430125 
L 344.086705 22.318125 
" clip-path="url(#p852fdf1269)" style="fill: none; stroke: #b0b0b0; stroke-width: 0.8; stroke-linecap: square"/>
     </g>
     <g id="line2d_16">
      <g>
       <use xlink:href="#m9d1c2115e9" x="344.086705" y="288.430125" style="stroke: #000000; stroke-width: 0.8"/>
      </g>
     </g>
     <g id="text_8">
      <!-- 17.5 -->
      <g transform="translate(332.953892 303.028562) scale(0.1 -0.1)">
       <use xlink:href="#DejaVuSans-31"/>
       <use xlink:href="#DejaVuSans-37" x="63.623047"/>
       <use xlink:href="#DejaVuSans-2e" x="127.246094"/>
       <use xlink:href="#DejaVuSans-35" x="159.033203"/>
      </g>
     </g>
    </g>
    <g id="xtick_9">
     <g id="line2d_17">
      <path d="M 384.668523 288.430125 
L 384.668523 22.318125 
" clip-path="url(#p852fdf1269)" style="fill: none; stroke: #b0b0b0; stroke-width: 0.8; stroke-linecap: square"/>
     </g>
     <g id="line2d_18">
      <g>
       <use xlink:href="#m9d1c2115e9" x="384.668523" y="288.430125" style="stroke: #000000; stroke-width: 0.8"/>
      </g>
     </g>
     <g id="text_9">
      <!-- 20.0 -->
      <g transform="translate(373.53571 303.028562) scale(0.1 -0.1)">
       <use xlink:href="#DejaVuSans-32"/>
       <use xlink:href="#DejaVuSans-30" x="63.623047"/>
       <use xlink:href="#DejaVuSans-2e" x="127.246094"/>
       <use xlink:href="#DejaVuSans-30" x="159.033203"/>
      </g>
     </g>
    </g>
    <g id="text_10">
     <!-- time (s) -->
     <g transform="translate(202.949844 316.706687) scale(0.1 -0.1)">
      <defs>
       <path id="DejaVuSans-74" d="M 1172 4494 
L 1172 3500 
L 2356 3500 
L 2356 3053 
L 1172 3053 
L 1172 1153 
Q 1172 725 1289 603 
Q 1406 481 1766 481 
L 2356 481 
L 2356 0 
L 1766 0 
Q 1100 0 847 248 
Q 594 497 594 1153 
L 594 3053 
L 172 3053 
L 172 3500 
L 594 3500 
L 594 4494 
L 1172 4494 
z
" transform="scale(0.015625)"/>
       <path id="DejaVuSans-69" d="M 603 3500 
L 1178 3500 
L 1178 0 
L 603 0 
L 603 3500 
z
M 603 4863 
L 1178 4863 
L 1178 4134 
L 603 4134 
L 603 4863 
z
" transform="scale(0.015625)"/>
       <path id="DejaVuSans-6d" d="M 3328 2828 
Q 3544 3216 3844 3400 
Q 4144 3584 4550 3584 
Q 5097 3584 5394 3201 
Q 5691 2819 5691 2113 
L 5691 0 
L 5113 0 
L 5113 2094 
Q 5113 2597 4934 2840 
Q 4756 3084 4391 3084 
Q 3944 3084 3684 2787 
Q 3425 2491 3425 1978 
L 3425 0 
L 2847 0 
L 2847 2094 
Q 2847 2600 2669 2842 
Q 2491 3084 2119 3084 
Q 1678 3084 1418 2786 
Q 1159 2488 1159 1978 
L 1159 0 
L 581 0 
L 581 3500 
L 1159 3500 
L 1159 2956 
Q 1356 3278 1631 3431 
Q 1906 3584 2284 3584 
Q 2666 3584 2933 3390 
Q 3200 3197 3328 2828 
z
" transform="scale(0.015625)"/>
       <path id="DejaVuSans-65" d="M 3597 1894 
L 3597 1613 
L 953 1613 
Q 991 1019 1311 708 
Q 1631 397 2203 397 
Q 2534 397 2845 478 
Q 3156 559 3463 722 
L 3463 178 
Q 3153 47 2828 -22 
Q 2503 -91 2169 -91 
Q 1331 -91 842 396 
Q 353 884 353 1716 
Q 353 2575 817 3079 
Q 1281 3584 2069 3584 
Q 2775 3584 3186 3129 
Q 3597 2675 3597 1894 
z
M 3022 2063 
Q 3016 2534 2758 2815 
Q 2500 3097 2075 3097 
Q 1594 3097 1305 2825 
Q 1016 2553 972 2059 
L 3022 2063 
z
" transform="scale(0.015625)"/>
       <path id="DejaVuSans-20" transform="scale(0.015625)"/>
       <path id="DejaVuSans-28" d="M 1984 4856 
Q 1566 4138 1362 3434 
Q 1159 2731 1159 2009 
Q 1159 1288 1364 580 
Q 1569 -128 1984 -844 
L 1484 -844 
Q 1016 -109 783 600 
Q 550 1309 550 2009 
Q 550 2706 781 3412 
Q 1013 4119 1484 4856 
L 1984 4856 
z
" transform="scale(0.015625)"/>
       <path id="DejaVuSans-73" d="M 2834 3397 
L 2834 2853 
Q 2591 2978 2328 3040 
Q 2066 3103 1784 3103 
Q 1356 3103 1142 2972 
Q 928 2841 928 2578 
Q 928 2378 1081 2264 
Q 1234 2150 1697 2047 
L 1894 2003 
Q 2506 1872 2764 1633 
Q 3022 1394 3022 966 
Q 3022 478 2636 193 
Q 2250 -91 1575 -91 
Q 1294 -91 989 -36 
Q 684 19 347 128 
L 347 722 
Q 666 556 975 473 
Q 1284 391 1588 391 
Q 1994 391 2212 530 
Q 2431 669 2431 922 
Q 2431 1156 2273 1281 
Q 2116 1406 1581 1522 
L 1381 1569 
Q 847 1681 609 1914 
Q 372 2147 372 2553 
Q 372 3047 722 3315 
Q 1072 3584 1716 3584 
Q 2034 3584 2315 3537 
Q 2597 3491 2834 3397 
z
" transform="scale(0.015625)"/>
       <path id="DejaVuSans-29" d="M 513 4856 
L 1013 4856 
Q 1481 4119 1714 3412 
Q 1947 2706 1947 2009 
Q 1947 1309 1714 600 
Q 1481 -109 1013 -844 
L 513 -844 
Q 928 -128 1133 580 
Q 1338 1288 1338 2009 
Q 1338 2731 1133 3434 
Q 928 4138 513 4856 
z
" transform="scale(0.015625)"/>
      </defs>
      <use xlink:href="#DejaVuSans-74"/>
      <use xlink:href="#DejaVuSans-69" x="39.208984"/>
      <use xlink:href="#DejaVuSans-6d" x="66.992188"/>
      <use xlink:href="#DejaVuSans-65" x="164.404297"/>
      <use xlink:href="#DejaVuSans-20" x="225.927734"/>
      <use xlink:href="#DejaVuSans-28" x="257.714844"/>
      <use xlink:href="#DejaVuSans-73" x="296.728516"/>
      <use xlink:href="#DejaVuSans-29" x="348.828125"/>
     </g>
    </g>
   </g>
   <g id="matplotlib.axis_2">
    <g id="ytick_1">
     <g id="line2d_19">
      <path d="M 43.78125 235.528342 
L 400.90125 235.528342 
" clip-path="url(#p852fdf1269)" style="fill: none; stroke: #b0b0b0; stroke-width: 0.8; stroke-linecap: square"/>
     </g>
     <g id="line2d_20">
      <defs>
       <path id="m90737f4a46" d="M 0 0 
L -3.5 0 
" style="stroke: #000000; stroke-width: 0.8"/>
      </defs>
      <g>
       <use xlink:href="#m90737f4a46" x="43.78125" y="235.528342" style="stroke: #000000; stroke-width: 0.8"/>
      </g>
     </g>
     <g id="text_11">
      <!-- 0.8 -->
      <g transform="translate(20.878125 239.327561) scale(0.1 -0.1)">
       <defs>
        <path id="DejaVuSans-38" d="M 2034 2216 
Q 1584 2216 1326 1975 
Q 1069 1734 1069 1313 
Q 1069 891 1326 650 
Q 1584 409 2034 409 
Q 2484 409 2743 651 
Q 3003 894 3003 1313 
Q 3003 1734 2745 1975 
Q 2488 2216 2034 2216 
z
M 1403 2484 
Q 997 2584 770 2862 
Q 544 3141 544 3541 
Q 544 4100 942 4425 
Q 1341 4750 2034 4750 
Q 2731 4750 3128 4425 
Q 3525 4100 3525 3541 
Q 3525 3141 3298 2862 
Q 3072 2584 2669 2484 
Q 3125 2378 3379 2068 
Q 3634 1759 3634 1313 
Q 3634 634 3220 271 
Q 2806 -91 2034 -91 
Q 1263 -91 848 271 
Q 434 634 434 1313 
Q 434 1759 690 2068 
Q 947 2378 1403 2484 
z
M 1172 3481 
Q 1172 3119 1398 2916 
Q 1625 2713 2034 2713 
Q 2441 2713 2670 2916 
Q 2900 3119 2900 3481 
Q 2900 3844 2670 4047 
Q 2441 4250 2034 4250 
Q 1625 4250 1398 4047 
Q 1172 3844 1172 3481 
z
" transform="scale(0.015625)"/>
       </defs>
       <use xlink:href="#DejaVuSans-30"/>
       <use xlink:href="#DejaVuSans-2e" x="63.623047"/>
       <use xlink:href="#DejaVuSans-38" x="95.410156"/>
      </g>
     </g>
    </g>
    <g id="ytick_2">
     <g id="line2d_21">
      <path d="M 43.78125 177.234366 
L 400.90125 177.234366 
" clip-path="url(#p852fdf1269)" style="fill: none; stroke: #b0b0b0; stroke-width: 0.8; stroke-linecap: square"/>
     </g>
     <g id="line2d_22">
      <g>
       <use xlink:href="#m90737f4a46" x="43.78125" y="177.234366" style="stroke: #000000; stroke-width: 0.8"/>
      </g>
     </g>
     <g id="text_12">
      <!-- 1.0 -->
      <g transform="translate(20.878125 181.033585) scale(0.1 -0.1)">
       <use xlink:href="#DejaVuSans-31"/>
       <use xlink:href="#DejaVuSans-2e" x="63.623047"/>
       <use xlink:href="#DejaVuSans-30" x="95.410156"/>
      </g>
     </g>
    </g>
    <g id="ytick_3">
     <g id="line2d_23">
      <path d="M 43.78125 118.94039 
L 400.90125 118.94039 
" clip-path="url(#p852fdf1269)" style="fill: none; stroke: #b0b0b0; stroke-width: 0.8; stroke-linecap: square"/>
     </g>
     <g id="line2d_24">
      <g>
       <use xlink:href="#m90737f4a46" x="43.78125" y="118.94039" style="stroke: #000000; stroke-width: 0.8"/>
      </g>
     </g>
     <g id="text_13">
      <!-- 1.2 -->
      <g transform="translate(20.878125 122.739609) scale(0.1 -0.1)">
       <use xlink:href="#DejaVuSans-31"/>
       <use xlink:href="#DejaVuSans-2e" x="63.623047"/>
       <use xlink:href="#DejaVuSans-32" x="95.410156"/>
      </g>
     </g>
    </g>
    <g id="ytick_4">
     <g id="line2d_25">
      <path d="M 43.78125 60.646414 
L 400.90125 60.646414 
" clip-path="url(#p852fdf1269)" style="fill: none; stroke: #b0b0b0; stroke-width: 0.8; stroke-linecap: square"/>
     </g>
     <g id="line2d_26">
      <g>
       <use xlink:href="#m90737f4a46" x="43.78125" y="60.646414" style="stroke: #000000; stroke-width: 0.8"/>
      </g>
     </g>
     <g id="text_14">
      <!-- 1.4 -->
      <g transform="translate(20.878125 64.445633) scale(0.1 -0.1)">
       <defs>
        <path id="DejaVuSans-34" d="M 2419 4116 
L 825 1625 
L 2419 1625 
L 2419 4116 
z
M 2253 4666 
L 3047 4666 
L 3047 1625 
L 3713 1625 
L 3713 1100 
L 3047 1100 
L 3047 0 
L 2419 0 
L 2419 1100 
L 313 1100 
L 313 1709 
L 2253 4666 
z
" transform="scale(0.015625)"/>
       </defs>
       <use xlink:href="#DejaVuSans-31"/>
       <use xlink:href="#DejaVuSans-2e" x="63.623047"/>
       <use xlink:href="#DejaVuSans-34" x="95.410156"/>
      </g>
     </g>
    </g>
    <g id="text_15">
     <!-- l (m) -->
     <g transform="translate(14.798438 167.124125) rotate(-90) scale(0.1 -0.1)">
      <defs>
       <path id="DejaVuSans-6c" d="M 603 4863 
L 1178 4863 
L 1178 0 
L 603 0 
L 603 4863 
z
" transform="scale(0.015625)"/>
      </defs>
      <use xlink:href="#DejaVuSans-6c"/>
      <use xlink:href="#DejaVuSans-20" x="27.783203"/>
      <use xlink:href="#DejaVuSans-28" x="59.570312"/>
      <use xlink:href="#DejaVuSans-6d" x="98.583984"/>
      <use xlink:href="#DejaVuSans-29" x="195.996094"/>
     </g>
    </g>
   </g>
   <g id="line2d_27">
    <path d="M 60.013977 247.187137 
L 60.500959 247.078345 
L 60.987941 246.711779 
L 61.556086 245.965474 
L 62.205395 244.702545 
L 63.017032 242.555661 
L 65.776595 235.238208 
L 68.617323 228.567164 
L 70.646414 224.273202 
L 73.649468 218.578982 
L 75.597395 215.259246 
L 77.545323 212.207428 
L 79.49325 209.401904 
L 81.441177 206.822798 
L 83.307941 204.543044 
L 87.041468 200.506201 
L 91.09965 196.79726 
L 95.644814 193.346565 
L 100.758123 190.197798 
L 102.624886 189.206073 
L 109.036814 186.363285 
L 111.065905 185.611146 
L 119.66925 183.075009 
L 131.843795 180.770652 
L 135.009177 180.34873 
L 137.200595 180.08275 
L 140.041323 179.781289 
L 142.232741 179.566563 
L 145.073468 179.324713 
L 147.427214 179.139274 
L 150.105614 178.957341 
L 152.459359 178.807419 
L 155.137759 178.661745 
L 157.491505 178.540401 
L 160.169905 178.423901 
L 162.52365 178.325552 
L 165.039723 178.238073 
L 167.393468 178.157689 
L 169.909541 178.087499 
L 172.263286 178.021673 
L 174.779359 177.965491 
L 177.133105 177.91146 
L 179.649177 177.866629 
L 182.002923 177.822157 
L 184.518995 177.786523 
L 186.953905 177.752363 
L 189.469977 177.716994 
L 191.98605 177.692191 
L 194.502123 177.66302 
L 197.018195 177.643776 
L 199.534268 177.61959 
L 202.050341 177.604819 
L 204.566414 177.584646 
L 207.082486 177.573474 
L 209.598559 177.556529 
L 212.114632 177.548253 
L 214.630705 177.533905 
L 217.146777 177.527959 
L 219.66285 177.515702 
L 222.178923 177.51163 
L 224.694995 177.501055 
L 227.211068 177.498492 
L 229.727141 177.48927 
L 232.243214 177.487921 
L 234.759286 177.479787 
L 237.275359 177.479414 
L 239.791432 177.472157 
L 242.307505 177.47257 
L 244.823577 177.466017 
L 247.33965 177.467063 
L 249.855723 177.461078 
L 252.371795 177.462632 
L 254.887868 177.457103 
L 257.403941 177.459067 
L 259.920014 177.453905 
L 262.436086 177.456198 
L 264.952159 177.451332 
L 267.468232 177.45389 
L 269.984305 177.449261 
L 272.500377 177.452033 
L 275.01645 177.447595 
L 277.532523 177.450538 
L 280.048595 177.446254 
L 282.564668 177.449336 
L 285.080741 177.445176 
L 287.596814 177.448368 
L 290.112886 177.444308 
L 292.628959 177.44759 
L 295.145032 177.44361 
L 297.661105 177.446963 
L 300.177177 177.443048 
L 302.69325 177.446459 
L 305.209323 177.442596 
L 307.725395 177.446054 
L 310.241468 177.442232 
L 312.757541 177.445727 
L 315.273614 177.441939 
L 317.789686 177.445465 
L 320.305759 177.441704 
L 322.821832 177.445254 
L 325.337905 177.441514 
L 327.853977 177.445084 
L 330.37005 177.441362 
L 332.886123 177.444947 
L 335.402195 177.441239 
L 337.918268 177.444837 
L 340.434341 177.44114 
L 342.950414 177.444748 
L 345.466486 177.441061 
L 347.982559 177.444677 
L 350.498632 177.440997 
L 353.014705 177.44462 
L 355.530777 177.440946 
L 358.04685 177.444574 
L 360.562923 177.440904 
L 363.078995 177.444536 
L 365.595068 177.440871 
L 368.111141 177.444507 
L 370.627214 177.440844 
L 373.143286 177.444483 
L 375.659359 177.440823 
L 378.175432 177.444463 
L 380.691505 177.440805 
L 383.207577 177.444448 
L 384.668523 177.444444 
L 384.668523 177.444444 
" clip-path="url(#p852fdf1269)" style="fill: none; stroke: #1f77b4; stroke-width: 1.5; stroke-linecap: square"/>
   </g>
   <g id="line2d_28">
    <path d="M 60.013977 267.590029 
L 60.500959 267.481236 
L 60.987941 267.11467 
L 61.556086 266.368366 
L 62.205395 265.105437 
L 62.935868 263.176331 
L 63.828668 260.140239 
L 66.507068 251.062654 
L 68.536159 244.845887 
L 71.295723 237.224272 
L 74.13645 230.275783 
L 76.165541 225.803486 
L 79.168595 219.872425 
L 81.116523 216.414699 
L 83.06445 213.236027 
L 85.012377 210.313887 
L 86.960305 207.627575 
L 88.827068 205.253212 
L 92.479432 201.1366 
L 94.346195 199.265128 
L 98.485541 195.627121 
L 100.352305 194.182497 
L 105.222123 190.927351 
L 110.903577 187.901616 
L 117.721323 185.126741 
L 126.486995 182.572675 
L 138.905032 180.272809 
L 141.09645 179.976078 
L 144.099505 179.620606 
L 146.290923 179.382784 
L 149.13165 179.114071 
L 151.404232 178.919009 
L 153.757977 178.732537 
L 156.436377 178.54955 
L 158.790123 178.398797 
L 161.468523 178.252275 
L 163.822268 178.130262 
L 166.500668 178.01308 
L 168.854414 177.914193 
L 171.370486 177.826196 
L 173.724232 177.745377 
L 176.240305 177.674766 
L 178.59405 177.608587 
L 181.110123 177.552065 
L 183.463868 177.497749 
L 185.979941 177.452642 
L 188.333686 177.407938 
L 190.849759 177.372081 
L 193.284668 177.337727 
L 195.800741 177.302178 
L 198.316814 177.277214 
L 200.832886 177.247897 
L 203.348959 177.228523 
L 205.865032 177.204221 
L 208.381105 177.189345 
L 210.897177 177.169078 
L 213.41325 177.157822 
L 215.929323 177.140801 
L 218.445395 177.132457 
L 220.961468 177.118049 
L 223.477541 177.112048 
L 225.993614 177.099742 
L 228.509686 177.095627 
L 231.025759 177.085012 
L 233.541832 177.082414 
L 236.057905 177.07316 
L 238.573977 177.071782 
L 241.09005 177.063623 
L 243.606123 177.063228 
L 246.122195 177.05595 
L 248.638268 177.056345 
L 251.154341 177.049776 
L 253.670414 177.050807 
L 256.186486 177.044808 
L 258.702559 177.04635 
L 261.218632 177.04081 
L 263.734705 177.042765 
L 266.250777 177.037594 
L 268.76685 177.03988 
L 271.282923 177.035006 
L 273.798995 177.037558 
L 276.315068 177.032924 
L 278.831141 177.03569 
L 281.347214 177.031248 
L 283.863286 177.034188 
L 286.379359 177.0299 
L 288.895432 177.032978 
L 291.411505 177.028816 
L 293.927577 177.032005 
L 296.44365 177.027943 
L 298.959723 177.031222 
L 301.475795 177.027241 
L 303.991868 177.030592 
L 306.507941 177.026675 
L 309.024014 177.030086 
L 311.540086 177.026221 
L 314.056159 177.029678 
L 316.572232 177.025855 
L 319.088305 177.02935 
L 321.604377 177.025561 
L 324.12045 177.029085 
L 326.636523 177.025324 
L 329.152595 177.028873 
L 331.668668 177.025133 
L 334.184741 177.028702 
L 336.700814 177.02498 
L 339.216886 177.028565 
L 341.732959 177.024856 
L 344.249032 177.028454 
L 346.765105 177.024757 
L 349.281177 177.028365 
L 351.79725 177.024677 
L 354.313323 177.028293 
L 356.829395 177.024613 
L 359.345468 177.028236 
L 361.861541 177.024561 
L 364.377614 177.028189 
L 366.893686 177.02452 
L 369.409759 177.028152 
L 371.925832 177.024486 
L 374.441905 177.028122 
L 376.957977 177.024459 
L 379.47405 177.028098 
L 381.990123 177.024438 
L 384.506195 177.028078 
L 384.668523 177.028078 
L 384.668523 177.028078 
" clip-path="url(#p852fdf1269)" style="fill: none; stroke: #ff7f0e; stroke-width: 1.5; stroke-linecap: square"/>
   </g>
   <g id="line2d_29">
    <path d="M 60.013977 34.414125 
L 60.500959 34.522917 
L 60.987941 34.889483 
L 61.556086 35.635788 
L 62.205395 36.898717 
L 62.935868 38.827822 
L 63.828668 41.893011 
L 64.802632 46.091762 
L 66.020086 52.453169 
L 68.536159 65.27971 
L 70.646414 75.015798 
L 72.756668 83.903601 
L 74.866923 92.017027 
L 76.977177 99.423546 
L 79.006268 105.93959 
L 81.765832 113.928328 
L 84.525395 121.019311 
L 87.447286 127.66082 
L 90.450341 133.663426 
L 92.398268 137.162835 
L 94.346195 140.379826 
L 96.294123 143.337193 
L 98.24205 146.055889 
L 100.108814 148.458831 
L 103.761177 152.625113 
L 105.627941 154.519103 
L 109.767286 158.20101 
L 111.63405 159.663005 
L 116.503868 162.957392 
L 122.104159 165.977289 
L 124.052086 166.868833 
L 126.000014 167.688426 
L 128.029105 168.475562 
L 136.307795 171.046985 
L 147.833032 173.392602 
L 150.998414 173.853565 
L 153.189832 174.14361 
L 156.192886 174.490889 
L 158.384305 174.723368 
L 161.225032 174.985867 
L 163.578777 175.186596 
L 166.257177 175.384138 
L 168.610923 175.546363 
L 171.289323 175.704596 
L 173.643068 175.835839 
L 176.321468 175.962445 
L 178.675214 176.068759 
L 181.191286 176.163903 
L 183.545032 176.25074 
L 186.061105 176.327142 
L 188.41485 176.398197 
L 190.930923 176.459412 
L 193.284668 176.517679 
L 195.800741 176.566588 
L 198.154486 176.614494 
L 200.670559 176.653432 
L 203.024305 176.692942 
L 205.540377 176.7238 
L 208.05645 176.758404 
L 210.572523 176.78252 
L 213.088595 176.811076 
L 215.604668 176.829768 
L 218.120741 176.853458 
L 220.636814 176.867784 
L 223.152886 176.887559 
L 225.668959 176.898373 
L 228.185032 176.914997 
L 230.701105 176.922986 
L 233.217177 176.937075 
L 235.73325 176.942789 
L 238.249323 176.954839 
L 240.765395 176.958724 
L 243.281468 176.969133 
L 245.797541 176.971546 
L 248.313614 176.980634 
L 250.829686 176.981862 
L 253.345759 176.989887 
L 255.861832 176.990163 
L 258.377905 176.997333 
L 260.893977 176.996842 
L 263.41005 177.003325 
L 265.926123 177.002216 
L 268.442195 177.008145 
L 270.958268 177.00654 
L 273.474341 177.012024 
L 275.990414 177.010019 
L 278.506486 177.015145 
L 281.022559 177.012819 
L 283.538632 177.017656 
L 286.054705 177.015071 
L 288.570777 177.019677 
L 291.08685 177.016884 
L 293.602923 177.021302 
L 296.118995 177.018342 
L 298.635068 177.022611 
L 301.151141 177.019516 
L 303.667214 177.023663 
L 306.183286 177.02046 
L 308.699359 177.02451 
L 311.215432 177.02122 
L 313.731505 177.025192 
L 316.247577 177.021831 
L 318.76365 177.02574 
L 321.279723 177.022323 
L 323.795795 177.026181 
L 326.311868 177.022718 
L 328.827941 177.026536 
L 331.344014 177.023037 
L 333.860086 177.026822 
L 336.376159 177.023293 
L 338.892232 177.027052 
L 341.408305 177.023499 
L 343.924377 177.027236 
L 346.44045 177.023665 
L 348.956523 177.027385 
L 351.472595 177.023799 
L 353.988668 177.027505 
L 356.504741 177.023906 
L 359.020814 177.027601 
L 361.536886 177.023992 
L 364.052959 177.027679 
L 366.569032 177.024062 
L 369.085105 177.027741 
L 371.601177 177.024118 
L 374.11725 177.027791 
L 376.633323 177.024163 
L 379.149395 177.027832 
L 381.665468 177.024199 
L 384.181541 177.027864 
L 384.668523 177.027867 
L 384.668523 177.027867 
" clip-path="url(#p852fdf1269)" style="fill: none; stroke: #2ca02c; stroke-width: 1.5; stroke-linecap: square"/>
   </g>
   <g id="line2d_30">
    <path d="M 60.013977 151.002077 
L 60.500959 151.110869 
L 60.987941 151.477435 
L 64.883795 155.435096 
L 69.104305 159.033871 
L 73.811795 162.345013 
L 79.249759 165.415379 
L 81.197686 166.352272 
L 83.145614 167.213553 
L 85.093541 168.005326 
L 87.122632 168.765868 
L 95.725977 171.330474 
L 107.819359 173.645223 
L 110.010777 173.954086 
L 113.013832 174.324423 
L 115.20525 174.571938 
L 118.045977 174.851925 
L 120.318559 175.055061 
L 122.672305 175.249101 
L 125.350705 175.439814 
L 127.70445 175.596656 
L 130.38285 175.749394 
L 132.736595 175.876306 
L 135.414995 175.99849 
L 137.768741 176.101319 
L 140.284814 176.19311 
L 142.638559 176.277124 
L 145.154632 176.350808 
L 147.508377 176.419575 
L 150.02445 176.478588 
L 152.378195 176.535002 
L 154.894268 176.582127 
L 157.248014 176.62853 
L 159.764086 176.666022 
L 162.117832 176.704315 
L 164.633905 176.734002 
L 167.149977 176.767555 
L 169.66605 176.790729 
L 172.182123 176.818439 
L 174.698195 176.836372 
L 177.214268 176.859382 
L 179.730341 176.873099 
L 182.246414 176.892326 
L 184.762486 176.902649 
L 187.278559 176.918833 
L 189.794632 176.926426 
L 192.310705 176.940161 
L 194.826777 176.945558 
L 197.34285 176.957322 
L 199.858923 176.960952 
L 202.374995 176.971131 
L 204.891068 176.973338 
L 207.407141 176.982241 
L 209.923214 176.983304 
L 212.439286 176.991181 
L 214.955359 176.991323 
L 217.471432 176.998374 
L 219.987505 176.997776 
L 222.503577 177.004162 
L 225.01965 177.002967 
L 227.535723 177.008819 
L 230.051795 177.007145 
L 232.567868 177.012566 
L 235.083941 177.010506 
L 237.600014 177.015581 
L 240.116086 177.01321 
L 242.632159 177.018007 
L 245.148232 177.015386 
L 247.664305 177.019959 
L 250.180377 177.017137 
L 252.69645 177.02153 
L 255.212523 177.018546 
L 257.728595 177.022794 
L 260.244668 177.01968 
L 262.760741 177.02381 
L 265.276814 177.020592 
L 267.792886 177.024629 
L 270.308959 177.021326 
L 272.825032 177.025287 
L 275.341105 177.021916 
L 277.857177 177.025817 
L 280.37325 177.022391 
L 282.889323 177.026243 
L 285.405395 177.022774 
L 287.921468 177.026586 
L 290.437541 177.023081 
L 292.953614 177.026862 
L 295.469686 177.023329 
L 297.985759 177.027084 
L 300.501832 177.023528 
L 303.017905 177.027262 
L 305.533977 177.023688 
L 308.05005 177.027406 
L 310.566123 177.023817 
L 313.082195 177.027522 
L 315.598268 177.023921 
L 318.114341 177.027615 
L 320.630414 177.024005 
L 323.146486 177.02769 
L 325.662559 177.024072 
L 328.178632 177.02775 
L 330.694705 177.024126 
L 333.210777 177.027798 
L 335.72685 177.024169 
L 338.242923 177.027837 
L 340.758995 177.024204 
L 343.275068 177.027869 
L 345.791141 177.024232 
L 348.307214 177.027894 
L 350.823286 177.024255 
L 353.339359 177.027914 
L 355.855432 177.024273 
L 358.371505 177.027931 
L 360.887577 177.024288 
L 363.40365 177.027944 
L 365.919723 177.0243 
L 368.435795 177.027954 
L 370.951868 177.024309 
L 373.467941 177.027963 
L 375.984014 177.024317 
L 378.500086 177.02797 
L 381.016159 177.024323 
L 383.532232 177.027975 
L 384.668523 177.027976 
L 384.668523 177.027976 
" clip-path="url(#p852fdf1269)" style="fill: none; stroke: #d62728; stroke-width: 1.5; stroke-linecap: square"/>
   </g>
   <g id="line2d_31">
    <path d="M 60.013977 276.334125 
L 60.500959 276.225333 
L 60.987941 275.858767 
L 61.556086 275.112462 
L 62.205395 273.849533 
L 62.935868 271.920428 
L 63.828668 268.855239 
L 66.425905 259.153293 
L 69.104305 250.229036 
L 71.133395 244.117171 
L 73.892959 236.62424 
L 76.733686 229.793131 
L 78.762777 225.396283 
L 81.765832 219.565423 
L 83.713759 216.166078 
L 85.661686 213.041075 
L 87.609614 210.168272 
L 89.557541 207.527317 
L 91.424305 205.19298 
L 95.157832 201.05933 
L 99.216014 197.261445 
L 103.680014 193.788856 
L 105.546777 192.518912 
L 110.903577 189.404031 
L 117.234341 186.541554 
L 125.188377 183.895139 
L 135.901977 181.503859 
L 139.229686 180.963468 
L 141.421105 180.641963 
L 144.424159 180.256136 
L 146.615577 179.99852 
L 149.456305 179.706786 
L 151.647723 179.498789 
L 154.48845 179.264766 
L 156.842195 179.085122 
L 159.520595 178.909106 
L 161.874341 178.763848 
L 164.552741 178.622934 
L 166.906486 178.505342 
L 169.584886 178.392673 
L 171.938632 178.297343 
L 174.454705 178.212769 
L 176.80845 178.134832 
L 179.324523 178.066995 
L 181.678268 178.003152 
L 184.194341 177.948877 
L 186.548086 177.896453 
L 189.064159 177.853167 
L 191.417905 177.809997 
L 193.933977 177.775615 
L 196.368886 177.742545 
L 198.884959 177.708187 
L 201.401032 177.684291 
L 203.917105 177.655933 
L 206.433177 177.637419 
L 208.94925 177.613888 
L 211.465323 177.599704 
L 213.981395 177.580058 
L 216.497468 177.569358 
L 219.013541 177.552837 
L 221.529614 177.544941 
L 224.045686 177.530935 
L 226.561759 177.525295 
L 229.077832 177.513312 
L 231.593905 177.509487 
L 234.109977 177.499132 
L 236.62605 177.496767 
L 239.142123 177.487722 
L 241.658195 177.486532 
L 244.174268 177.478542 
L 246.690341 177.478298 
L 249.206414 177.471155 
L 251.722486 177.471672 
L 254.238559 177.465211 
L 256.754632 177.46634 
L 259.270705 177.460429 
L 261.786777 177.46205 
L 264.30285 177.456581 
L 266.818923 177.458599 
L 269.334995 177.453485 
L 271.851068 177.455821 
L 274.367141 177.450994 
L 276.883214 177.453587 
L 279.399286 177.448989 
L 281.915359 177.451789 
L 284.431432 177.447376 
L 286.947505 177.450342 
L 289.463577 177.446078 
L 291.97965 177.449178 
L 294.495723 177.445034 
L 297.011795 177.448241 
L 299.527868 177.444194 
L 302.043941 177.447487 
L 304.560014 177.443518 
L 307.076086 177.446881 
L 309.592159 177.442974 
L 312.108232 177.446393 
L 314.624305 177.442536 
L 317.140377 177.446 
L 319.65645 177.442184 
L 322.172523 177.445685 
L 324.688595 177.441901 
L 327.204668 177.44543 
L 329.720741 177.441673 
L 332.236814 177.445226 
L 334.752886 177.441489 
L 337.268959 177.445061 
L 339.785032 177.441342 
L 342.301105 177.444929 
L 344.817177 177.441223 
L 347.33325 177.444822 
L 349.849323 177.441127 
L 352.365395 177.444737 
L 354.881468 177.441051 
L 357.397541 177.444668 
L 359.913614 177.440989 
L 362.429686 177.444612 
L 364.945759 177.440939 
L 367.461832 177.444568 
L 369.977905 177.440899 
L 372.493977 177.444532 
L 375.01005 177.440867 
L 377.526123 177.444503 
L 380.042195 177.440841 
L 382.558268 177.444479 
L 384.668523 177.444471 
L 384.668523 177.444471 
" clip-path="url(#p852fdf1269)" style="fill: none; stroke: #9467bd; stroke-width: 1.5; stroke-linecap: square"/>
   </g>
   <g id="patch_3">
    <path d="M 43.78125 288.430125 
L 43.78125 22.318125 
" style="fill: none; stroke: #000000; stroke-width: 0.8; stroke-linejoin: miter; stroke-linecap: square"/>
   </g>
   <g id="patch_4">
    <path d="M 400.90125 288.430125 
L 400.90125 22.318125 
" style="fill: none; stroke: #000000; stroke-width: 0.8; stroke-linejoin: miter; stroke-linecap: square"/>
   </g>
   <g id="patch_5">
    <path d="M 43.78125 288.430125 
L 400.90125 288.430125 
" style="fill: none; stroke: #000000; stroke-width: 0.8; stroke-linejoin: miter; stroke-linecap: square"/>
   </g>
   <g id="patch_6">
    <path d="M 43.78125 22.318125 
L 400.90125 22.318125 
" style="fill: none; stroke: #000000; stroke-width: 0.8; stroke-linejoin: miter; stroke-linecap: square"/>
   </g>
   <g id="text_16">
    <!-- l vs time -->
    <g transform="translate(196.628438 16.318125) scale(0.12 -0.12)">
     <defs>
      <path id="DejaVuSans-76" d="M 191 3500 
L 800 3500 
L 1894 563 
L 2988 3500 
L 3597 3500 
L 2284 0 
L 1503 0 
L 191 3500 
z
" transform="scale(0.015625)"/>
     </defs>
     <use xlink:href="#DejaVuSans-6c"/>
     <use xlink:href="#DejaVuSans-20" x="27.783203"/>
     <use xlink:href="#DejaVuSans-76" x="59.570312"/>
     <use xlink:href="#DejaVuSans-73" x="118.75"/>
     <use xlink:href="#DejaVuSans-20" x="170.849609"/>
     <use xlink:href="#DejaVuSans-74" x="202.636719"/>
     <use xlink:href="#DejaVuSans-69" x="241.845703"/>
     <use xlink:href="#DejaVuSans-6d" x="269.628906"/>
     <use xlink:href="#DejaVuSans-65" x="367.041016"/>
    </g>
   </g>
  </g>
 </g>
 <defs>
  <clipPath id="p852fdf1269">
   <rect x="43.78125" y="22.318125" width="357.12" height="266.112"/>
  </clipPath>
 </defs>
</svg>
