<?xml version="1.0" encoding="utf-8" standalone="no"?>
<!DOCTYPE svg PUBLIC "-//W3C//DTD SVG 1.1//EN"
  "http://www.w3.org/Graphics/SVG/1.1/DTD/svg11.dtd">
<svg xmlns:xlink="http://www.w3.org/1999/xlink" width="408.10125pt" height="325.986375pt" viewBox="0 0 408.10125 325.986375" xmlns="http://www.w3.org/2000/svg" version="1.1">
 <metadata>
  <rdf:RDF xmlns:dc="http://purl.org/dc/elements/1.1/" xmlns:cc="http://creativecommons.org/ns#" xmlns:rdf="http://www.w3.org/1999/02/22-rdf-syntax-ns#">
   <cc:Work>
    <dc:type rdf:resource="http://purl.org/dc/dcmitype/StillImage"/>
    <dc:date>2023-06-28T15:45:22.105206</dc:date>
    <dc:format>image/svg+xml</dc:format>
    <dc:creator>
     <cc:Agent>
      <dc:title>Matplotlib v3.7.1, https://matplotlib.org/</dc:title>
     </cc:Agent>
    </dc:creator>
   </cc:Work>
  </rdf:RDF>
 </metadata>
 <defs>
  <style type="text/css">*{stroke-linejoin: round; stroke-linecap: butt}</style>
 </defs>
 <g id="figure_1">
  <g id="patch_1">
   <path d="M 0 325.986375 
L 408.10125 325.986375 
L 408.10125 0 
L 0 0 
L 0 325.986375 
z
" style="fill: none"/>
  </g>
  <g id="axes_1">
   <g id="patch_2">
    <path d="M 43.78125 288.430125 
L 400.90125 288.430125 
L 400.90125 22.318125 
L 43.78125 22.318125 
L 43.78125 288.430125 
z
" style="fill: none"/>
   </g>
   <g id="matplotlib.axis_1">
    <g id="xtick_1">
     <g id="line2d_1">
      <path d="M 60.013977 288.430125 
L 60.013977 22.318125 
" clip-path="url(#p031b72a2be)" style="fill: none; stroke: #b0b0b0; stroke-width: 0.8; stroke-linecap: square"/>
     </g>
     <g id="line2d_2">
      <defs>
       <path id="mc99c5276e3" d="M 0 0 
L 0 3.5 
" style="stroke: #000000; stroke-width: 0.8"/>
      </defs>
      <g>
       <use xlink:href="#mc99c5276e3" x="60.013977" y="288.430125" style="stroke: #000000; stroke-width: 0.8"/>
      </g>
     </g>
     <g id="text_1">
      <!-- 0.0 -->
      <g transform="translate(52.062415 303.028562) scale(0.1 -0.1)">
       <defs>
        <path id="DejaVuSans-30" d="M 2034 4250 
Q 1547 4250 1301 3770 
Q 1056 3291 1056 2328 
Q 1056 1369 1301 889 
Q 1547 409 2034 409 
Q 2525 409 2770 889 
Q 3016 1369 3016 2328 
Q 3016 3291 2770 3770 
Q 2525 4250 2034 4250 
z
M 2034 4750 
Q 2819 4750 3233 4129 
Q 3647 3509 3647 2328 
Q 3647 1150 3233 529 
Q 2819 -91 2034 -91 
Q 1250 -91 836 529 
Q 422 1150 422 2328 
Q 422 3509 836 4129 
Q 1250 4750 2034 4750 
z
" transform="scale(0.015625)"/>
        <path id="DejaVuSans-2e" d="M 684 794 
L 1344 794 
L 1344 0 
L 684 0 
L 684 794 
z
" transform="scale(0.015625)"/>
       </defs>
       <use xlink:href="#DejaVuSans-30"/>
       <use xlink:href="#DejaVuSans-2e" x="63.623047"/>
       <use xlink:href="#DejaVuSans-30" x="95.410156"/>
      </g>
     </g>
    </g>
    <g id="xtick_2">
     <g id="line2d_3">
      <path d="M 100.595795 288.430125 
L 100.595795 22.318125 
" clip-path="url(#p031b72a2be)" style="fill: none; stroke: #b0b0b0; stroke-width: 0.8; stroke-linecap: square"/>
     </g>
     <g id="line2d_4">
      <g>
       <use xlink:href="#mc99c5276e3" x="100.595795" y="288.430125" style="stroke: #000000; stroke-width: 0.8"/>
      </g>
     </g>
     <g id="text_2">
      <!-- 2.5 -->
      <g transform="translate(92.644233 303.028562) scale(0.1 -0.1)">
       <defs>
        <path id="DejaVuSans-32" d="M 1228 531 
L 3431 531 
L 3431 0 
L 469 0 
L 469 531 
Q 828 903 1448 1529 
Q 2069 2156 2228 2338 
Q 2531 2678 2651 2914 
Q 2772 3150 2772 3378 
Q 2772 3750 2511 3984 
Q 2250 4219 1831 4219 
Q 1534 4219 1204 4116 
Q 875 4013 500 3803 
L 500 4441 
Q 881 4594 1212 4672 
Q 1544 4750 1819 4750 
Q 2544 4750 2975 4387 
Q 3406 4025 3406 3419 
Q 3406 3131 3298 2873 
Q 3191 2616 2906 2266 
Q 2828 2175 2409 1742 
Q 1991 1309 1228 531 
z
" transform="scale(0.015625)"/>
        <path id="DejaVuSans-35" d="M 691 4666 
L 3169 4666 
L 3169 4134 
L 1269 4134 
L 1269 2991 
Q 1406 3038 1543 3061 
Q 1681 3084 1819 3084 
Q 2600 3084 3056 2656 
Q 3513 2228 3513 1497 
Q 3513 744 3044 326 
Q 2575 -91 1722 -91 
Q 1428 -91 1123 -41 
Q 819 9 494 109 
L 494 744 
Q 775 591 1075 516 
Q 1375 441 1709 441 
Q 2250 441 2565 725 
Q 2881 1009 2881 1497 
Q 2881 1984 2565 2268 
Q 2250 2553 1709 2553 
Q 1456 2553 1204 2497 
Q 953 2441 691 2322 
L 691 4666 
z
" transform="scale(0.015625)"/>
       </defs>
       <use xlink:href="#DejaVuSans-32"/>
       <use xlink:href="#DejaVuSans-2e" x="63.623047"/>
       <use xlink:href="#DejaVuSans-35" x="95.410156"/>
      </g>
     </g>
    </g>
    <g id="xtick_3">
     <g id="line2d_5">
      <path d="M 141.177614 288.430125 
L 141.177614 22.318125 
" clip-path="url(#p031b72a2be)" style="fill: none; stroke: #b0b0b0; stroke-width: 0.8; stroke-linecap: square"/>
     </g>
     <g id="line2d_6">
      <g>
       <use xlink:href="#mc99c5276e3" x="141.177614" y="288.430125" style="stroke: #000000; stroke-width: 0.8"/>
      </g>
     </g>
     <g id="text_3">
      <!-- 5.0 -->
      <g transform="translate(133.226051 303.028562) scale(0.1 -0.1)">
       <use xlink:href="#DejaVuSans-35"/>
       <use xlink:href="#DejaVuSans-2e" x="63.623047"/>
       <use xlink:href="#DejaVuSans-30" x="95.410156"/>
      </g>
     </g>
    </g>
    <g id="xtick_4">
     <g id="line2d_7">
      <path d="M 181.759432 288.430125 
L 181.759432 22.318125 
" clip-path="url(#p031b72a2be)" style="fill: none; stroke: #b0b0b0; stroke-width: 0.8; stroke-linecap: square"/>
     </g>
     <g id="line2d_8">
      <g>
       <use xlink:href="#mc99c5276e3" x="181.759432" y="288.430125" style="stroke: #000000; stroke-width: 0.8"/>
      </g>
     </g>
     <g id="text_4">
      <!-- 7.5 -->
      <g transform="translate(173.807869 303.028562) scale(0.1 -0.1)">
       <defs>
        <path id="DejaVuSans-37" d="M 525 4666 
L 3525 4666 
L 3525 4397 
L 1831 0 
L 1172 0 
L 2766 4134 
L 525 4134 
L 525 4666 
z
" transform="scale(0.015625)"/>
       </defs>
       <use xlink:href="#DejaVuSans-37"/>
       <use xlink:href="#DejaVuSans-2e" x="63.623047"/>
       <use xlink:href="#DejaVuSans-35" x="95.410156"/>
      </g>
     </g>
    </g>
    <g id="xtick_5">
     <g id="line2d_9">
      <path d="M 222.34125 288.430125 
L 222.34125 22.318125 
" clip-path="url(#p031b72a2be)" style="fill: none; stroke: #b0b0b0; stroke-width: 0.8; stroke-linecap: square"/>
     </g>
     <g id="line2d_10">
      <g>
       <use xlink:href="#mc99c5276e3" x="222.34125" y="288.430125" style="stroke: #000000; stroke-width: 0.8"/>
      </g>
     </g>
     <g id="text_5">
      <!-- 10.0 -->
      <g transform="translate(211.208438 303.028562) scale(0.1 -0.1)">
       <defs>
        <path id="DejaVuSans-31" d="M 794 531 
L 1825 531 
L 1825 4091 
L 703 3866 
L 703 4441 
L 1819 4666 
L 2450 4666 
L 2450 531 
L 3481 531 
L 3481 0 
L 794 0 
L 794 531 
z
" transform="scale(0.015625)"/>
       </defs>
       <use xlink:href="#DejaVuSans-31"/>
       <use xlink:href="#DejaVuSans-30" x="63.623047"/>
       <use xlink:href="#DejaVuSans-2e" x="127.246094"/>
       <use xlink:href="#DejaVuSans-30" x="159.033203"/>
      </g>
     </g>
    </g>
    <g id="xtick_6">
     <g id="line2d_11">
      <path d="M 262.923068 288.430125 
L 262.923068 22.318125 
" clip-path="url(#p031b72a2be)" style="fill: none; stroke: #b0b0b0; stroke-width: 0.8; stroke-linecap: square"/>
     </g>
     <g id="line2d_12">
      <g>
       <use xlink:href="#mc99c5276e3" x="262.923068" y="288.430125" style="stroke: #000000; stroke-width: 0.8"/>
      </g>
     </g>
     <g id="text_6">
      <!-- 12.5 -->
      <g transform="translate(251.790256 303.028562) scale(0.1 -0.1)">
       <use xlink:href="#DejaVuSans-31"/>
       <use xlink:href="#DejaVuSans-32" x="63.623047"/>
       <use xlink:href="#DejaVuSans-2e" x="127.246094"/>
       <use xlink:href="#DejaVuSans-35" x="159.033203"/>
      </g>
     </g>
    </g>
    <g id="xtick_7">
     <g id="line2d_13">
      <path d="M 303.504886 288.430125 
L 303.504886 22.318125 
" clip-path="url(#p031b72a2be)" style="fill: none; stroke: #b0b0b0; stroke-width: 0.8; stroke-linecap: square"/>
     </g>
     <g id="line2d_14">
      <g>
       <use xlink:href="#mc99c5276e3" x="303.504886" y="288.430125" style="stroke: #000000; stroke-width: 0.8"/>
      </g>
     </g>
     <g id="text_7">
      <!-- 15.0 -->
      <g transform="translate(292.372074 303.028562) scale(0.1 -0.1)">
       <use xlink:href="#DejaVuSans-31"/>
       <use xlink:href="#DejaVuSans-35" x="63.623047"/>
       <use xlink:href="#DejaVuSans-2e" x="127.246094"/>
       <use xlink:href="#DejaVuSans-30" x="159.033203"/>
      </g>
     </g>
    </g>
    <g id="xtick_8">
     <g id="line2d_15">
      <path d="M 344.086705 288.430125 
L 344.086705 22.318125 
" clip-path="url(#p031b72a2be)" style="fill: none; stroke: #b0b0b0; stroke-width: 0.8; stroke-linecap: square"/>
     </g>
     <g id="line2d_16">
      <g>
       <use xlink:href="#mc99c5276e3" x="344.086705" y="288.430125" style="stroke: #000000; stroke-width: 0.8"/>
      </g>
     </g>
     <g id="text_8">
      <!-- 17.5 -->
      <g transform="translate(332.953892 303.028562) scale(0.1 -0.1)">
       <use xlink:href="#DejaVuSans-31"/>
       <use xlink:href="#DejaVuSans-37" x="63.623047"/>
       <use xlink:href="#DejaVuSans-2e" x="127.246094"/>
       <use xlink:href="#DejaVuSans-35" x="159.033203"/>
      </g>
     </g>
    </g>
    <g id="xtick_9">
     <g id="line2d_17">
      <path d="M 384.668523 288.430125 
L 384.668523 22.318125 
" clip-path="url(#p031b72a2be)" style="fill: none; stroke: #b0b0b0; stroke-width: 0.8; stroke-linecap: square"/>
     </g>
     <g id="line2d_18">
      <g>
       <use xlink:href="#mc99c5276e3" x="384.668523" y="288.430125" style="stroke: #000000; stroke-width: 0.8"/>
      </g>
     </g>
     <g id="text_9">
      <!-- 20.0 -->
      <g transform="translate(373.53571 303.028562) scale(0.1 -0.1)">
       <use xlink:href="#DejaVuSans-32"/>
       <use xlink:href="#DejaVuSans-30" x="63.623047"/>
       <use xlink:href="#DejaVuSans-2e" x="127.246094"/>
       <use xlink:href="#DejaVuSans-30" x="159.033203"/>
      </g>
     </g>
    </g>
    <g id="text_10">
     <!-- time (s) -->
     <g transform="translate(202.949844 316.706687) scale(0.1 -0.1)">
      <defs>
       <path id="DejaVuSans-74" d="M 1172 4494 
L 1172 3500 
L 2356 3500 
L 2356 3053 
L 1172 3053 
L 1172 1153 
Q 1172 725 1289 603 
Q 1406 481 1766 481 
L 2356 481 
L 2356 0 
L 1766 0 
Q 1100 0 847 248 
Q 594 497 594 1153 
L 594 3053 
L 172 3053 
L 172 3500 
L 594 3500 
L 594 4494 
L 1172 4494 
z
" transform="scale(0.015625)"/>
       <path id="DejaVuSans-69" d="M 603 3500 
L 1178 3500 
L 1178 0 
L 603 0 
L 603 3500 
z
M 603 4863 
L 1178 4863 
L 1178 4134 
L 603 4134 
L 603 4863 
z
" transform="scale(0.015625)"/>
       <path id="DejaVuSans-6d" d="M 3328 2828 
Q 3544 3216 3844 3400 
Q 4144 3584 4550 3584 
Q 5097 3584 5394 3201 
Q 5691 2819 5691 2113 
L 5691 0 
L 5113 0 
L 5113 2094 
Q 5113 2597 4934 2840 
Q 4756 3084 4391 3084 
Q 3944 3084 3684 2787 
Q 3425 2491 3425 1978 
L 3425 0 
L 2847 0 
L 2847 2094 
Q 2847 2600 2669 2842 
Q 2491 3084 2119 3084 
Q 1678 3084 1418 2786 
Q 1159 2488 1159 1978 
L 1159 0 
L 581 0 
L 581 3500 
L 1159 3500 
L 1159 2956 
Q 1356 3278 1631 3431 
Q 1906 3584 2284 3584 
Q 2666 3584 2933 3390 
Q 3200 3197 3328 2828 
z
" transform="scale(0.015625)"/>
       <path id="DejaVuSans-65" d="M 3597 1894 
L 3597 1613 
L 953 1613 
Q 991 1019 1311 708 
Q 1631 397 2203 397 
Q 2534 397 2845 478 
Q 3156 559 3463 722 
L 3463 178 
Q 3153 47 2828 -22 
Q 2503 -91 2169 -91 
Q 1331 -91 842 396 
Q 353 884 353 1716 
Q 353 2575 817 3079 
Q 1281 3584 2069 3584 
Q 2775 3584 3186 3129 
Q 3597 2675 3597 1894 
z
M 3022 2063 
Q 3016 2534 2758 2815 
Q 2500 3097 2075 3097 
Q 1594 3097 1305 2825 
Q 1016 2553 972 2059 
L 3022 2063 
z
" transform="scale(0.015625)"/>
       <path id="DejaVuSans-20" transform="scale(0.015625)"/>
       <path id="DejaVuSans-28" d="M 1984 4856 
Q 1566 4138 1362 3434 
Q 1159 2731 1159 2009 
Q 1159 1288 1364 580 
Q 1569 -128 1984 -844 
L 1484 -844 
Q 1016 -109 783 600 
Q 550 1309 550 2009 
Q 550 2706 781 3412 
Q 1013 4119 1484 4856 
L 1984 4856 
z
" transform="scale(0.015625)"/>
       <path id="DejaVuSans-73" d="M 2834 3397 
L 2834 2853 
Q 2591 2978 2328 3040 
Q 2066 3103 1784 3103 
Q 1356 3103 1142 2972 
Q 928 2841 928 2578 
Q 928 2378 1081 2264 
Q 1234 2150 1697 2047 
L 1894 2003 
Q 2506 1872 2764 1633 
Q 3022 1394 3022 966 
Q 3022 478 2636 193 
Q 2250 -91 1575 -91 
Q 1294 -91 989 -36 
Q 684 19 347 128 
L 347 722 
Q 666 556 975 473 
Q 1284 391 1588 391 
Q 1994 391 2212 530 
Q 2431 669 2431 922 
Q 2431 1156 2273 1281 
Q 2116 1406 1581 1522 
L 1381 1569 
Q 847 1681 609 1914 
Q 372 2147 372 2553 
Q 372 3047 722 3315 
Q 1072 3584 1716 3584 
Q 2034 3584 2315 3537 
Q 2597 3491 2834 3397 
z
" transform="scale(0.015625)"/>
       <path id="DejaVuSans-29" d="M 513 4856 
L 1013 4856 
Q 1481 4119 1714 3412 
Q 1947 2706 1947 2009 
Q 1947 1309 1714 600 
Q 1481 -109 1013 -844 
L 513 -844 
Q 928 -128 1133 580 
Q 1338 1288 1338 2009 
Q 1338 2731 1133 3434 
Q 928 4138 513 4856 
z
" transform="scale(0.015625)"/>
      </defs>
      <use xlink:href="#DejaVuSans-74"/>
      <use xlink:href="#DejaVuSans-69" x="39.208984"/>
      <use xlink:href="#DejaVuSans-6d" x="66.992188"/>
      <use xlink:href="#DejaVuSans-65" x="164.404297"/>
      <use xlink:href="#DejaVuSans-20" x="225.927734"/>
      <use xlink:href="#DejaVuSans-28" x="257.714844"/>
      <use xlink:href="#DejaVuSans-73" x="296.728516"/>
      <use xlink:href="#DejaVuSans-29" x="348.828125"/>
     </g>
    </g>
   </g>
   <g id="matplotlib.axis_2">
    <g id="ytick_1">
     <g id="line2d_19">
      <path d="M 43.78125 256.340737 
L 400.90125 256.340737 
" clip-path="url(#p031b72a2be)" style="fill: none; stroke: #b0b0b0; stroke-width: 0.8; stroke-linecap: square"/>
     </g>
     <g id="line2d_20">
      <defs>
       <path id="m13ba0805db" d="M 0 0 
L -3.5 0 
" style="stroke: #000000; stroke-width: 0.8"/>
      </defs>
      <g>
       <use xlink:href="#m13ba0805db" x="43.78125" y="256.340737" style="stroke: #000000; stroke-width: 0.8"/>
      </g>
     </g>
     <g id="text_11">
      <!-- 0.4 -->
      <g transform="translate(20.878125 260.139955) scale(0.1 -0.1)">
       <defs>
        <path id="DejaVuSans-34" d="M 2419 4116 
L 825 1625 
L 2419 1625 
L 2419 4116 
z
M 2253 4666 
L 3047 4666 
L 3047 1625 
L 3713 1625 
L 3713 1100 
L 3047 1100 
L 3047 0 
L 2419 0 
L 2419 1100 
L 313 1100 
L 313 1709 
L 2253 4666 
z
" transform="scale(0.015625)"/>
       </defs>
       <use xlink:href="#DejaVuSans-30"/>
       <use xlink:href="#DejaVuSans-2e" x="63.623047"/>
       <use xlink:href="#DejaVuSans-34" x="95.410156"/>
      </g>
     </g>
    </g>
    <g id="ytick_2">
     <g id="line2d_21">
      <path d="M 43.78125 216.35396 
L 400.90125 216.35396 
" clip-path="url(#p031b72a2be)" style="fill: none; stroke: #b0b0b0; stroke-width: 0.8; stroke-linecap: square"/>
     </g>
     <g id="line2d_22">
      <g>
       <use xlink:href="#m13ba0805db" x="43.78125" y="216.35396" style="stroke: #000000; stroke-width: 0.8"/>
      </g>
     </g>
     <g id="text_12">
      <!-- 0.6 -->
      <g transform="translate(20.878125 220.153178) scale(0.1 -0.1)">
       <defs>
        <path id="DejaVuSans-36" d="M 2113 2584 
Q 1688 2584 1439 2293 
Q 1191 2003 1191 1497 
Q 1191 994 1439 701 
Q 1688 409 2113 409 
Q 2538 409 2786 701 
Q 3034 994 3034 1497 
Q 3034 2003 2786 2293 
Q 2538 2584 2113 2584 
z
M 3366 4563 
L 3366 3988 
Q 3128 4100 2886 4159 
Q 2644 4219 2406 4219 
Q 1781 4219 1451 3797 
Q 1122 3375 1075 2522 
Q 1259 2794 1537 2939 
Q 1816 3084 2150 3084 
Q 2853 3084 3261 2657 
Q 3669 2231 3669 1497 
Q 3669 778 3244 343 
Q 2819 -91 2113 -91 
Q 1303 -91 875 529 
Q 447 1150 447 2328 
Q 447 3434 972 4092 
Q 1497 4750 2381 4750 
Q 2619 4750 2861 4703 
Q 3103 4656 3366 4563 
z
" transform="scale(0.015625)"/>
       </defs>
       <use xlink:href="#DejaVuSans-30"/>
       <use xlink:href="#DejaVuSans-2e" x="63.623047"/>
       <use xlink:href="#DejaVuSans-36" x="95.410156"/>
      </g>
     </g>
    </g>
    <g id="ytick_3">
     <g id="line2d_23">
      <path d="M 43.78125 176.367183 
L 400.90125 176.367183 
" clip-path="url(#p031b72a2be)" style="fill: none; stroke: #b0b0b0; stroke-width: 0.8; stroke-linecap: square"/>
     </g>
     <g id="line2d_24">
      <g>
       <use xlink:href="#m13ba0805db" x="43.78125" y="176.367183" style="stroke: #000000; stroke-width: 0.8"/>
      </g>
     </g>
     <g id="text_13">
      <!-- 0.8 -->
      <g transform="translate(20.878125 180.166402) scale(0.1 -0.1)">
       <defs>
        <path id="DejaVuSans-38" d="M 2034 2216 
Q 1584 2216 1326 1975 
Q 1069 1734 1069 1313 
Q 1069 891 1326 650 
Q 1584 409 2034 409 
Q 2484 409 2743 651 
Q 3003 894 3003 1313 
Q 3003 1734 2745 1975 
Q 2488 2216 2034 2216 
z
M 1403 2484 
Q 997 2584 770 2862 
Q 544 3141 544 3541 
Q 544 4100 942 4425 
Q 1341 4750 2034 4750 
Q 2731 4750 3128 4425 
Q 3525 4100 3525 3541 
Q 3525 3141 3298 2862 
Q 3072 2584 2669 2484 
Q 3125 2378 3379 2068 
Q 3634 1759 3634 1313 
Q 3634 634 3220 271 
Q 2806 -91 2034 -91 
Q 1263 -91 848 271 
Q 434 634 434 1313 
Q 434 1759 690 2068 
Q 947 2378 1403 2484 
z
M 1172 3481 
Q 1172 3119 1398 2916 
Q 1625 2713 2034 2713 
Q 2441 2713 2670 2916 
Q 2900 3119 2900 3481 
Q 2900 3844 2670 4047 
Q 2441 4250 2034 4250 
Q 1625 4250 1398 4047 
Q 1172 3844 1172 3481 
z
" transform="scale(0.015625)"/>
       </defs>
       <use xlink:href="#DejaVuSans-30"/>
       <use xlink:href="#DejaVuSans-2e" x="63.623047"/>
       <use xlink:href="#DejaVuSans-38" x="95.410156"/>
      </g>
     </g>
    </g>
    <g id="ytick_4">
     <g id="line2d_25">
      <path d="M 43.78125 136.380406 
L 400.90125 136.380406 
" clip-path="url(#p031b72a2be)" style="fill: none; stroke: #b0b0b0; stroke-width: 0.8; stroke-linecap: square"/>
     </g>
     <g id="line2d_26">
      <g>
       <use xlink:href="#m13ba0805db" x="43.78125" y="136.380406" style="stroke: #000000; stroke-width: 0.8"/>
      </g>
     </g>
     <g id="text_14">
      <!-- 1.0 -->
      <g transform="translate(20.878125 140.179625) scale(0.1 -0.1)">
       <use xlink:href="#DejaVuSans-31"/>
       <use xlink:href="#DejaVuSans-2e" x="63.623047"/>
       <use xlink:href="#DejaVuSans-30" x="95.410156"/>
      </g>
     </g>
    </g>
    <g id="ytick_5">
     <g id="line2d_27">
      <path d="M 43.78125 96.393629 
L 400.90125 96.393629 
" clip-path="url(#p031b72a2be)" style="fill: none; stroke: #b0b0b0; stroke-width: 0.8; stroke-linecap: square"/>
     </g>
     <g id="line2d_28">
      <g>
       <use xlink:href="#m13ba0805db" x="43.78125" y="96.393629" style="stroke: #000000; stroke-width: 0.8"/>
      </g>
     </g>
     <g id="text_15">
      <!-- 1.2 -->
      <g transform="translate(20.878125 100.192848) scale(0.1 -0.1)">
       <use xlink:href="#DejaVuSans-31"/>
       <use xlink:href="#DejaVuSans-2e" x="63.623047"/>
       <use xlink:href="#DejaVuSans-32" x="95.410156"/>
      </g>
     </g>
    </g>
    <g id="ytick_6">
     <g id="line2d_29">
      <path d="M 43.78125 56.406852 
L 400.90125 56.406852 
" clip-path="url(#p031b72a2be)" style="fill: none; stroke: #b0b0b0; stroke-width: 0.8; stroke-linecap: square"/>
     </g>
     <g id="line2d_30">
      <g>
       <use xlink:href="#m13ba0805db" x="43.78125" y="56.406852" style="stroke: #000000; stroke-width: 0.8"/>
      </g>
     </g>
     <g id="text_16">
      <!-- 1.4 -->
      <g transform="translate(20.878125 60.206071) scale(0.1 -0.1)">
       <use xlink:href="#DejaVuSans-31"/>
       <use xlink:href="#DejaVuSans-2e" x="63.623047"/>
       <use xlink:href="#DejaVuSans-34" x="95.410156"/>
      </g>
     </g>
    </g>
    <g id="text_17">
     <!-- l (m) -->
     <g transform="translate(14.798438 167.124125) rotate(-90) scale(0.1 -0.1)">
      <defs>
       <path id="DejaVuSans-6c" d="M 603 4863 
L 1178 4863 
L 1178 0 
L 603 0 
L 603 4863 
z
" transform="scale(0.015625)"/>
      </defs>
      <use xlink:href="#DejaVuSans-6c"/>
      <use xlink:href="#DejaVuSans-20" x="27.783203"/>
      <use xlink:href="#DejaVuSans-28" x="59.570312"/>
      <use xlink:href="#DejaVuSans-6d" x="98.583984"/>
      <use xlink:href="#DejaVuSans-29" x="195.996094"/>
     </g>
    </g>
   </g>
   <g id="line2d_31">
    <path d="M 60.013977 102.391646 
L 60.582123 102.496001 
L 61.150268 102.840188 
L 61.799577 103.519765 
L 66.425905 109.388805 
L 69.834777 113.026234 
L 73.405977 116.303866 
L 77.301832 119.347459 
L 81.603505 122.160985 
L 83.794923 123.40902 
L 88.908232 125.892685 
L 91.261977 126.867597 
L 97.592741 129.04153 
L 105.465614 131.031653 
L 108.144014 131.571614 
L 119.831577 133.308593 
L 139.148523 134.80517 
L 143.287868 134.990647 
L 146.615577 135.121702 
L 150.592595 135.250458 
L 153.920305 135.346725 
L 157.734995 135.436366 
L 161.225032 135.510853 
L 165.039723 135.575558 
L 168.529759 135.630566 
L 172.182123 135.675158 
L 175.672159 135.716227 
L 179.324523 135.748316 
L 182.814559 135.779146 
L 186.466923 135.802052 
L 189.956959 135.825362 
L 193.609323 135.841522 
L 197.099359 135.859308 
L 200.751723 135.870513 
L 204.404086 135.884724 
L 208.05645 135.892219 
L 211.708814 135.903262 
L 215.361177 135.908052 
L 219.013541 135.916784 
L 222.665905 135.9196 
L 226.318268 135.926646 
L 229.970632 135.928022 
L 233.622995 135.933839 
L 237.275359 135.934166 
L 240.927723 135.939086 
L 244.580086 135.938647 
L 248.23245 135.942913 
L 251.884814 135.941915 
L 255.537177 135.945705 
L 259.189541 135.944299 
L 262.841905 135.947741 
L 266.494268 135.946038 
L 270.146632 135.949226 
L 273.798995 135.947306 
L 277.451359 135.950309 
L 281.103723 135.948231 
L 284.756086 135.951099 
L 288.40845 135.948906 
L 292.060814 135.951675 
L 295.713177 135.949398 
L 299.365541 135.952095 
L 303.017905 135.949757 
L 306.670268 135.952402 
L 310.322632 135.950019 
L 313.974995 135.952625 
L 317.627359 135.95021 
L 321.279723 135.952788 
L 324.932086 135.950349 
L 328.58445 135.952907 
L 332.236814 135.950451 
L 335.889177 135.952994 
L 339.541541 135.950525 
L 343.193905 135.953057 
L 346.846268 135.950579 
L 350.498632 135.953104 
L 354.150995 135.950618 
L 357.803359 135.953137 
L 361.455723 135.950647 
L 365.108086 135.953162 
L 368.76045 135.950668 
L 372.412814 135.95318 
L 376.065177 135.950683 
L 379.717541 135.953193 
L 383.369905 135.950694 
L 384.668523 135.950696 
L 384.668523 135.950696 
" clip-path="url(#p031b72a2be)" style="fill: none; stroke: #1f77b4; stroke-width: 1.5; stroke-linecap: square"/>
   </g>
   <g id="line2d_32">
    <path d="M 60.013977 34.414125 
L 60.582123 34.51848 
L 61.150268 34.862668 
L 61.799577 35.542244 
L 62.53005 36.661611 
L 63.341686 38.332325 
L 64.31565 40.909359 
L 65.370777 44.377325 
L 70.484086 62.569448 
L 73.081323 70.418395 
L 75.759723 77.638635 
L 77.869977 82.769023 
L 79.980232 87.45241 
L 82.090486 91.727743 
L 84.200741 95.630574 
L 86.310995 99.19336 
L 88.42125 102.445727 
L 90.531505 105.414722 
L 92.641759 108.125034 
L 94.752014 110.599203 
L 96.862268 112.857801 
L 98.972523 114.919613 
L 101.082777 116.801783 
L 103.274195 118.585474 
L 107.332377 121.470075 
L 111.877541 124.153827 
L 117.072014 126.640311 
L 123.078123 128.899113 
L 130.38285 130.962643 
L 139.797832 132.821206 
L 153.433323 134.469659 
L 158.546632 134.874403 
L 161.712014 135.087469 
L 166.013686 135.328654 
L 169.260232 135.484805 
L 172.587941 135.626181 
L 176.564959 135.765475 
L 179.892668 135.86927 
L 183.707359 135.966309 
L 187.197395 136.046576 
L 191.012086 136.116677 
L 194.502123 136.1759 
L 198.316814 136.226354 
L 201.80685 136.270228 
L 205.459214 136.304833 
L 208.94925 136.337724 
L 212.601614 136.362477 
L 216.09165 136.387301 
L 219.744014 136.404818 
L 223.23405 136.423716 
L 226.886414 136.435918 
L 230.538777 136.450981 
L 234.191141 136.459203 
L 237.843505 136.470867 
L 241.495868 136.476187 
L 245.148232 136.485372 
L 248.800595 136.488575 
L 252.452959 136.495952 
L 256.105323 136.497611 
L 259.757686 136.503669 
L 263.41005 136.504201 
L 267.062414 136.509297 
L 270.714777 136.509008 
L 274.367141 136.513403 
L 278.019505 136.512514 
L 281.671868 136.516397 
L 285.324232 136.515071 
L 288.976595 136.518581 
L 292.628959 136.516937 
L 296.281323 136.520174 
L 299.933686 136.518297 
L 303.58605 136.521336 
L 307.238414 136.51929 
L 310.890777 136.522183 
L 314.543141 136.520013 
L 318.195505 136.522802 
L 321.847868 136.520541 
L 325.500232 136.523252 
L 329.152595 136.520926 
L 332.804959 136.523581 
L 336.457323 136.521207 
L 340.109686 136.523821 
L 343.76205 136.521412 
L 347.414414 136.523996 
L 351.066777 136.521561 
L 354.719141 136.524124 
L 358.371505 136.52167 
L 362.023868 136.524217 
L 365.676232 136.52175 
L 369.328595 136.524285 
L 372.980959 136.521808 
L 376.633323 136.524334 
L 380.285686 136.52185 
L 383.93805 136.52437 
L 384.668523 136.52187 
L 384.668523 136.52187 
" clip-path="url(#p031b72a2be)" style="fill: none; stroke: #ff7f0e; stroke-width: 1.5; stroke-linecap: square"/>
   </g>
   <g id="line2d_33">
    <path d="M 60.013977 200.359249 
L 60.582123 200.254894 
L 61.150268 199.910706 
L 61.799577 199.23113 
L 62.53005 198.111763 
L 63.341686 196.441049 
L 68.536159 184.48744 
L 70.646414 180.333407 
L 72.756668 176.541306 
L 74.866923 173.079604 
L 76.977177 169.919513 
L 79.087432 167.034754 
L 81.197686 164.401339 
L 83.307941 161.997368 
L 85.418195 159.80285 
L 87.52845 157.799537 
L 89.638705 155.970767 
L 91.830123 154.237613 
L 95.969468 151.386161 
L 98.160886 150.067102 
L 103.030705 147.551582 
L 108.712159 145.213347 
L 115.529905 143.068972 
L 124.13325 141.125406 
L 135.983141 139.395505 
L 155.787068 137.907635 
L 159.926414 137.730019 
L 163.254123 137.604339 
L 167.231141 137.481072 
L 170.55885 137.388726 
L 174.373541 137.302938 
L 177.863577 137.23146 
L 181.678268 137.169566 
L 185.168305 137.116753 
L 188.820668 137.074131 
L 192.310705 137.034675 
L 195.963068 137.004032 
L 199.453105 136.974386 
L 203.105468 136.952543 
L 206.595505 136.930103 
L 210.247868 136.914724 
L 213.737905 136.897577 
L 217.390268 136.886945 
L 221.042632 136.873223 
L 224.694995 136.866146 
L 228.347359 136.85546 
L 231.999723 136.850976 
L 235.652086 136.842504 
L 239.30445 136.839911 
L 242.956814 136.833054 
L 246.609177 136.83184 
L 250.261541 136.826162 
L 253.913905 136.825954 
L 257.566268 136.821134 
L 261.218632 136.82166 
L 264.870995 136.817467 
L 268.523359 136.818528 
L 272.175723 136.814793 
L 275.828086 136.816244 
L 279.48045 136.812842 
L 283.132814 136.814578 
L 286.785177 136.811419 
L 290.437541 136.813363 
L 294.089905 136.810381 
L 297.742268 136.812477 
L 301.394632 136.809624 
L 305.046995 136.81183 
L 308.699359 136.809072 
L 312.351723 136.811358 
L 316.004086 136.808669 
L 319.65645 136.811015 
L 323.308814 136.808376 
L 326.961177 136.810764 
L 330.613541 136.808161 
L 334.265905 136.810581 
L 337.918268 136.808005 
L 341.570632 136.810447 
L 345.222995 136.807891 
L 348.875359 136.81035 
L 352.527723 136.807808 
L 356.180086 136.810279 
L 359.83245 136.807747 
L 363.484814 136.810227 
L 367.137177 136.807703 
L 370.789541 136.810189 
L 374.441905 136.807671 
L 378.094268 136.810162 
L 381.746632 136.807647 
L 384.668523 136.80764 
L 384.668523 136.80764 
" clip-path="url(#p031b72a2be)" style="fill: none; stroke: #2ca02c; stroke-width: 1.5; stroke-linecap: square"/>
   </g>
   <g id="line2d_34">
    <path d="M 60.013977 276.334125 
L 60.582123 276.22977 
L 61.150268 275.885582 
L 61.799577 275.206006 
L 62.53005 274.086639 
L 63.341686 272.415925 
L 64.31565 269.838891 
L 65.370777 266.370925 
L 66.588232 261.535473 
L 67.88685 255.442119 
L 70.646414 241.991063 
L 72.837832 232.385099 
L 75.353905 222.426233 
L 77.545323 214.587424 
L 80.142559 206.21129 
L 82.739795 198.724127 
L 85.418195 191.836808 
L 87.52845 186.942897 
L 89.638705 182.475383 
L 91.748959 178.397114 
L 93.859214 174.674177 
L 95.969468 171.275612 
L 98.079723 168.173157 
L 100.189977 165.341013 
L 102.300232 162.755628 
L 104.410486 160.395503 
L 106.520741 158.241011 
L 108.630995 156.274235 
L 110.74125 154.47882 
L 112.932668 152.77723 
L 117.153177 149.925242 
L 121.860668 147.301201 
L 127.217468 144.897392 
L 133.548232 142.688368 
L 141.339941 140.681133 
L 151.728886 138.867352 
L 167.474632 137.287107 
L 171.938632 137.005137 
L 175.104014 136.831694 
L 179.243359 136.643183 
L 182.571068 136.510053 
L 186.548086 136.379178 
L 189.875795 136.281398 
L 193.690486 136.19027 
L 197.180523 136.11462 
L 200.995214 136.04883 
L 204.48525 135.992975 
L 208.137614 135.947623 
L 211.62765 135.905931 
L 215.280014 135.873284 
L 218.77005 135.841996 
L 222.422414 135.818681 
L 225.91245 135.795035 
L 229.564814 135.778574 
L 233.05485 135.760541 
L 236.707214 135.749114 
L 240.359577 135.734714 
L 244.011941 135.727058 
L 247.664305 135.715877 
L 251.316668 135.71097 
L 254.969032 135.702137 
L 258.621395 135.699236 
L 262.273759 135.692116 
L 265.926123 135.690677 
L 269.578486 135.684806 
L 273.23085 135.684434 
L 276.883214 135.679475 
L 280.535577 135.679881 
L 284.187941 135.675586 
L 287.840305 135.67656 
L 291.492668 135.67275 
L 295.145032 135.674137 
L 298.797395 135.670681 
L 302.449759 135.67237 
L 306.102123 135.669172 
L 309.754486 135.671082 
L 313.40685 135.668071 
L 317.059214 135.670142 
L 320.711577 135.667268 
L 324.363941 135.669456 
L 328.016305 135.666683 
L 331.668668 135.668956 
L 335.321032 135.666256 
L 338.973395 135.668591 
L 342.625759 135.665944 
L 346.278123 135.668325 
L 349.930486 135.665717 
L 353.58285 135.668131 
L 357.235214 135.665551 
L 360.887577 135.66799 
L 364.539941 135.66543 
L 368.192305 135.667886 
L 371.844668 135.665342 
L 375.497032 135.667811 
L 379.149395 135.665278 
L 382.801759 135.667756 
L 384.668523 135.665241 
L 384.668523 135.665241 
" clip-path="url(#p031b72a2be)" style="fill: none; stroke: #d62728; stroke-width: 1.5; stroke-linecap: square"/>
   </g>
   <g id="line2d_35">
    <path d="M 60.013977 96.393629 
L 60.582123 96.497984 
L 61.150268 96.842172 
L 61.799577 97.521749 
L 62.53005 98.631118 
L 64.640305 101.982243 
L 66.588232 104.796423 
L 69.753614 108.92185 
L 73.24365 112.68457 
L 76.81485 115.970214 
L 80.791868 119.087002 
L 84.85005 121.982813 
L 89.395214 124.676994 
L 94.508523 127.135787 
L 96.862268 128.10097 
L 103.274195 130.2746 
L 105.790268 130.979364 
L 114.555941 132.907381 
L 126.730486 134.620361 
L 132.980086 135.203523 
L 136.145468 135.447533 
L 140.771795 135.74359 
L 143.937177 135.918578 
L 148.076523 136.108815 
L 151.404232 136.243125 
L 155.38125 136.375205 
L 158.708959 136.473846 
L 162.52365 136.56582 
L 166.013686 136.642131 
L 169.828377 136.708538 
L 173.318414 136.764875 
L 176.970777 136.810659 
L 180.460814 136.852705 
L 184.113177 136.88567 
L 187.603214 136.917218 
L 191.255577 136.940766 
L 194.745614 136.964603 
L 198.397977 136.981236 
L 201.888014 136.999409 
L 205.540377 137.010961 
L 209.192741 137.025469 
L 212.845105 137.033217 
L 216.497468 137.044476 
L 220.149832 137.04945 
L 223.802195 137.05834 
L 227.454559 137.061291 
L 231.106923 137.068452 
L 234.759286 137.069927 
L 238.41165 137.075828 
L 242.064014 137.076226 
L 245.716377 137.081208 
L 249.368741 137.08082 
L 253.021105 137.085131 
L 256.673468 137.084172 
L 260.325832 137.087993 
L 263.978195 137.086616 
L 267.630559 137.090081 
L 271.282923 137.088399 
L 274.935286 137.091604 
L 278.58765 137.089699 
L 282.240014 137.092714 
L 285.892377 137.090647 
L 289.544741 137.093524 
L 293.197105 137.091339 
L 296.849468 137.094115 
L 300.501832 137.091844 
L 304.154195 137.094546 
L 307.806559 137.092212 
L 311.458923 137.09486 
L 315.111286 137.09248 
L 318.76365 137.095089 
L 322.416014 137.092676 
L 326.068377 137.095257 
L 329.720741 137.092819 
L 333.373105 137.095379 
L 337.025468 137.092923 
L 340.677832 137.095468 
L 344.330195 137.092999 
L 347.982559 137.095532 
L 351.634923 137.093054 
L 355.287286 137.09558 
L 358.93965 137.093095 
L 362.592014 137.095614 
L 366.244377 137.093124 
L 369.896741 137.095639 
L 373.549105 137.093146 
L 377.201468 137.095658 
L 380.853832 137.093162 
L 384.506195 137.095671 
L 384.668523 137.095672 
L 384.668523 137.095672 
" clip-path="url(#p031b72a2be)" style="fill: none; stroke: #9467bd; stroke-width: 1.5; stroke-linecap: square"/>
   </g>
   <g id="patch_3">
    <path d="M 43.78125 288.430125 
L 43.78125 22.318125 
" style="fill: none; stroke: #000000; stroke-width: 0.8; stroke-linejoin: miter; stroke-linecap: square"/>
   </g>
   <g id="patch_4">
    <path d="M 400.90125 288.430125 
L 400.90125 22.318125 
" style="fill: none; stroke: #000000; stroke-width: 0.8; stroke-linejoin: miter; stroke-linecap: square"/>
   </g>
   <g id="patch_5">
    <path d="M 43.78125 288.430125 
L 400.90125 288.430125 
" style="fill: none; stroke: #000000; stroke-width: 0.8; stroke-linejoin: miter; stroke-linecap: square"/>
   </g>
   <g id="patch_6">
    <path d="M 43.78125 22.318125 
L 400.90125 22.318125 
" style="fill: none; stroke: #000000; stroke-width: 0.8; stroke-linejoin: miter; stroke-linecap: square"/>
   </g>
   <g id="text_18">
    <!-- l vs time -->
    <g transform="translate(196.628438 16.318125) scale(0.12 -0.12)">
     <defs>
      <path id="DejaVuSans-76" d="M 191 3500 
L 800 3500 
L 1894 563 
L 2988 3500 
L 3597 3500 
L 2284 0 
L 1503 0 
L 191 3500 
z
" transform="scale(0.015625)"/>
     </defs>
     <use xlink:href="#DejaVuSans-6c"/>
     <use xlink:href="#DejaVuSans-20" x="27.783203"/>
     <use xlink:href="#DejaVuSans-76" x="59.570312"/>
     <use xlink:href="#DejaVuSans-73" x="118.75"/>
     <use xlink:href="#DejaVuSans-20" x="170.849609"/>
     <use xlink:href="#DejaVuSans-74" x="202.636719"/>
     <use xlink:href="#DejaVuSans-69" x="241.845703"/>
     <use xlink:href="#DejaVuSans-6d" x="269.628906"/>
     <use xlink:href="#DejaVuSans-65" x="367.041016"/>
    </g>
   </g>
  </g>
 </g>
 <defs>
  <clipPath id="p031b72a2be">
   <rect x="43.78125" y="22.318125" width="357.12" height="266.112"/>
  </clipPath>
 </defs>
</svg>
