<?xml version="1.0" encoding="utf-8" standalone="no"?>
<!DOCTYPE svg PUBLIC "-//W3C//DTD SVG 1.1//EN"
  "http://www.w3.org/Graphics/SVG/1.1/DTD/svg11.dtd">
<svg xmlns:xlink="http://www.w3.org/1999/xlink" width="408.10125pt" height="411.675375pt" viewBox="0 0 408.10125 411.675375" xmlns="http://www.w3.org/2000/svg" version="1.1">
 <metadata>
  <rdf:RDF xmlns:dc="http://purl.org/dc/elements/1.1/" xmlns:cc="http://creativecommons.org/ns#" xmlns:rdf="http://www.w3.org/1999/02/22-rdf-syntax-ns#">
   <cc:Work>
    <dc:type rdf:resource="http://purl.org/dc/dcmitype/StillImage"/>
    <dc:date>2023-06-26T20:20:50.597628</dc:date>
    <dc:format>image/svg+xml</dc:format>
    <dc:creator>
     <cc:Agent>
      <dc:title>Matplotlib v3.7.1, https://matplotlib.org/</dc:title>
     </cc:Agent>
    </dc:creator>
   </cc:Work>
  </rdf:RDF>
 </metadata>
 <defs>
  <style type="text/css">*{stroke-linejoin: round; stroke-linecap: butt}</style>
 </defs>
 <g id="figure_1">
  <g id="patch_1">
   <path d="M 0 411.675375 
L 408.10125 411.675375 
L 408.10125 -0 
L 0 -0 
L 0 411.675375 
z
" style="fill: none"/>
  </g>
  <g id="axes_1">
   <g id="patch_2">
    <path d="M 43.78125 288.430125 
L 400.90125 288.430125 
L 400.90125 22.318125 
L 43.78125 22.318125 
L 43.78125 288.430125 
z
" style="fill: none"/>
   </g>
   <g id="matplotlib.axis_1">
    <g id="xtick_1">
     <g id="line2d_1">
      <path d="M 60.013977 288.430125 
L 60.013977 22.318125 
" clip-path="url(#p2ce0961d92)" style="fill: none; stroke: #b0b0b0; stroke-width: 0.8; stroke-linecap: square"/>
     </g>
     <g id="line2d_2">
      <defs>
       <path id="mef74ccee7a" d="M 0 0 
L 0 3.5 
" style="stroke: #000000; stroke-width: 0.8"/>
      </defs>
      <g>
       <use xlink:href="#mef74ccee7a" x="60.013977" y="288.430125" style="stroke: #000000; stroke-width: 0.8"/>
      </g>
     </g>
     <g id="text_1">
      <!-- 0 -->
      <g transform="translate(56.832727 303.028562) scale(0.1 -0.1)">
       <defs>
        <path id="DejaVuSans-30" d="M 2034 4250 
Q 1547 4250 1301 3770 
Q 1056 3291 1056 2328 
Q 1056 1369 1301 889 
Q 1547 409 2034 409 
Q 2525 409 2770 889 
Q 3016 1369 3016 2328 
Q 3016 3291 2770 3770 
Q 2525 4250 2034 4250 
z
M 2034 4750 
Q 2819 4750 3233 4129 
Q 3647 3509 3647 2328 
Q 3647 1150 3233 529 
Q 2819 -91 2034 -91 
Q 1250 -91 836 529 
Q 422 1150 422 2328 
Q 422 3509 836 4129 
Q 1250 4750 2034 4750 
z
" transform="scale(0.015625)"/>
       </defs>
       <use xlink:href="#DejaVuSans-30"/>
      </g>
     </g>
    </g>
    <g id="xtick_2">
     <g id="line2d_3">
      <path d="M 114.123068 288.430125 
L 114.123068 22.318125 
" clip-path="url(#p2ce0961d92)" style="fill: none; stroke: #b0b0b0; stroke-width: 0.8; stroke-linecap: square"/>
     </g>
     <g id="line2d_4">
      <g>
       <use xlink:href="#mef74ccee7a" x="114.123068" y="288.430125" style="stroke: #000000; stroke-width: 0.8"/>
      </g>
     </g>
     <g id="text_2">
      <!-- 2 -->
      <g transform="translate(110.941818 303.028562) scale(0.1 -0.1)">
       <defs>
        <path id="DejaVuSans-32" d="M 1228 531 
L 3431 531 
L 3431 0 
L 469 0 
L 469 531 
Q 828 903 1448 1529 
Q 2069 2156 2228 2338 
Q 2531 2678 2651 2914 
Q 2772 3150 2772 3378 
Q 2772 3750 2511 3984 
Q 2250 4219 1831 4219 
Q 1534 4219 1204 4116 
Q 875 4013 500 3803 
L 500 4441 
Q 881 4594 1212 4672 
Q 1544 4750 1819 4750 
Q 2544 4750 2975 4387 
Q 3406 4025 3406 3419 
Q 3406 3131 3298 2873 
Q 3191 2616 2906 2266 
Q 2828 2175 2409 1742 
Q 1991 1309 1228 531 
z
" transform="scale(0.015625)"/>
       </defs>
       <use xlink:href="#DejaVuSans-32"/>
      </g>
     </g>
    </g>
    <g id="xtick_3">
     <g id="line2d_5">
      <path d="M 168.232159 288.430125 
L 168.232159 22.318125 
" clip-path="url(#p2ce0961d92)" style="fill: none; stroke: #b0b0b0; stroke-width: 0.8; stroke-linecap: square"/>
     </g>
     <g id="line2d_6">
      <g>
       <use xlink:href="#mef74ccee7a" x="168.232159" y="288.430125" style="stroke: #000000; stroke-width: 0.8"/>
      </g>
     </g>
     <g id="text_3">
      <!-- 4 -->
      <g transform="translate(165.050909 303.028562) scale(0.1 -0.1)">
       <defs>
        <path id="DejaVuSans-34" d="M 2419 4116 
L 825 1625 
L 2419 1625 
L 2419 4116 
z
M 2253 4666 
L 3047 4666 
L 3047 1625 
L 3713 1625 
L 3713 1100 
L 3047 1100 
L 3047 0 
L 2419 0 
L 2419 1100 
L 313 1100 
L 313 1709 
L 2253 4666 
z
" transform="scale(0.015625)"/>
       </defs>
       <use xlink:href="#DejaVuSans-34"/>
      </g>
     </g>
    </g>
    <g id="xtick_4">
     <g id="line2d_7">
      <path d="M 222.34125 288.430125 
L 222.34125 22.318125 
" clip-path="url(#p2ce0961d92)" style="fill: none; stroke: #b0b0b0; stroke-width: 0.8; stroke-linecap: square"/>
     </g>
     <g id="line2d_8">
      <g>
       <use xlink:href="#mef74ccee7a" x="222.34125" y="288.430125" style="stroke: #000000; stroke-width: 0.8"/>
      </g>
     </g>
     <g id="text_4">
      <!-- 6 -->
      <g transform="translate(219.16 303.028562) scale(0.1 -0.1)">
       <defs>
        <path id="DejaVuSans-36" d="M 2113 2584 
Q 1688 2584 1439 2293 
Q 1191 2003 1191 1497 
Q 1191 994 1439 701 
Q 1688 409 2113 409 
Q 2538 409 2786 701 
Q 3034 994 3034 1497 
Q 3034 2003 2786 2293 
Q 2538 2584 2113 2584 
z
M 3366 4563 
L 3366 3988 
Q 3128 4100 2886 4159 
Q 2644 4219 2406 4219 
Q 1781 4219 1451 3797 
Q 1122 3375 1075 2522 
Q 1259 2794 1537 2939 
Q 1816 3084 2150 3084 
Q 2853 3084 3261 2657 
Q 3669 2231 3669 1497 
Q 3669 778 3244 343 
Q 2819 -91 2113 -91 
Q 1303 -91 875 529 
Q 447 1150 447 2328 
Q 447 3434 972 4092 
Q 1497 4750 2381 4750 
Q 2619 4750 2861 4703 
Q 3103 4656 3366 4563 
z
" transform="scale(0.015625)"/>
       </defs>
       <use xlink:href="#DejaVuSans-36"/>
      </g>
     </g>
    </g>
    <g id="xtick_5">
     <g id="line2d_9">
      <path d="M 276.450341 288.430125 
L 276.450341 22.318125 
" clip-path="url(#p2ce0961d92)" style="fill: none; stroke: #b0b0b0; stroke-width: 0.8; stroke-linecap: square"/>
     </g>
     <g id="line2d_10">
      <g>
       <use xlink:href="#mef74ccee7a" x="276.450341" y="288.430125" style="stroke: #000000; stroke-width: 0.8"/>
      </g>
     </g>
     <g id="text_5">
      <!-- 8 -->
      <g transform="translate(273.269091 303.028562) scale(0.1 -0.1)">
       <defs>
        <path id="DejaVuSans-38" d="M 2034 2216 
Q 1584 2216 1326 1975 
Q 1069 1734 1069 1313 
Q 1069 891 1326 650 
Q 1584 409 2034 409 
Q 2484 409 2743 651 
Q 3003 894 3003 1313 
Q 3003 1734 2745 1975 
Q 2488 2216 2034 2216 
z
M 1403 2484 
Q 997 2584 770 2862 
Q 544 3141 544 3541 
Q 544 4100 942 4425 
Q 1341 4750 2034 4750 
Q 2731 4750 3128 4425 
Q 3525 4100 3525 3541 
Q 3525 3141 3298 2862 
Q 3072 2584 2669 2484 
Q 3125 2378 3379 2068 
Q 3634 1759 3634 1313 
Q 3634 634 3220 271 
Q 2806 -91 2034 -91 
Q 1263 -91 848 271 
Q 434 634 434 1313 
Q 434 1759 690 2068 
Q 947 2378 1403 2484 
z
M 1172 3481 
Q 1172 3119 1398 2916 
Q 1625 2713 2034 2713 
Q 2441 2713 2670 2916 
Q 2900 3119 2900 3481 
Q 2900 3844 2670 4047 
Q 2441 4250 2034 4250 
Q 1625 4250 1398 4047 
Q 1172 3844 1172 3481 
z
" transform="scale(0.015625)"/>
       </defs>
       <use xlink:href="#DejaVuSans-38"/>
      </g>
     </g>
    </g>
    <g id="xtick_6">
     <g id="line2d_11">
      <path d="M 330.559432 288.430125 
L 330.559432 22.318125 
" clip-path="url(#p2ce0961d92)" style="fill: none; stroke: #b0b0b0; stroke-width: 0.8; stroke-linecap: square"/>
     </g>
     <g id="line2d_12">
      <g>
       <use xlink:href="#mef74ccee7a" x="330.559432" y="288.430125" style="stroke: #000000; stroke-width: 0.8"/>
      </g>
     </g>
     <g id="text_6">
      <!-- 10 -->
      <g transform="translate(324.196932 303.028562) scale(0.1 -0.1)">
       <defs>
        <path id="DejaVuSans-31" d="M 794 531 
L 1825 531 
L 1825 4091 
L 703 3866 
L 703 4441 
L 1819 4666 
L 2450 4666 
L 2450 531 
L 3481 531 
L 3481 0 
L 794 0 
L 794 531 
z
" transform="scale(0.015625)"/>
       </defs>
       <use xlink:href="#DejaVuSans-31"/>
       <use xlink:href="#DejaVuSans-30" x="63.623047"/>
      </g>
     </g>
    </g>
    <g id="xtick_7">
     <g id="line2d_13">
      <path d="M 384.668523 288.430125 
L 384.668523 22.318125 
" clip-path="url(#p2ce0961d92)" style="fill: none; stroke: #b0b0b0; stroke-width: 0.8; stroke-linecap: square"/>
     </g>
     <g id="line2d_14">
      <g>
       <use xlink:href="#mef74ccee7a" x="384.668523" y="288.430125" style="stroke: #000000; stroke-width: 0.8"/>
      </g>
     </g>
     <g id="text_7">
      <!-- 12 -->
      <g transform="translate(378.306023 303.028562) scale(0.1 -0.1)">
       <use xlink:href="#DejaVuSans-31"/>
       <use xlink:href="#DejaVuSans-32" x="63.623047"/>
      </g>
     </g>
    </g>
    <g id="text_8">
     <!-- time (s) -->
     <g transform="translate(202.949844 316.706687) scale(0.1 -0.1)">
      <defs>
       <path id="DejaVuSans-74" d="M 1172 4494 
L 1172 3500 
L 2356 3500 
L 2356 3053 
L 1172 3053 
L 1172 1153 
Q 1172 725 1289 603 
Q 1406 481 1766 481 
L 2356 481 
L 2356 0 
L 1766 0 
Q 1100 0 847 248 
Q 594 497 594 1153 
L 594 3053 
L 172 3053 
L 172 3500 
L 594 3500 
L 594 4494 
L 1172 4494 
z
" transform="scale(0.015625)"/>
       <path id="DejaVuSans-69" d="M 603 3500 
L 1178 3500 
L 1178 0 
L 603 0 
L 603 3500 
z
M 603 4863 
L 1178 4863 
L 1178 4134 
L 603 4134 
L 603 4863 
z
" transform="scale(0.015625)"/>
       <path id="DejaVuSans-6d" d="M 3328 2828 
Q 3544 3216 3844 3400 
Q 4144 3584 4550 3584 
Q 5097 3584 5394 3201 
Q 5691 2819 5691 2113 
L 5691 0 
L 5113 0 
L 5113 2094 
Q 5113 2597 4934 2840 
Q 4756 3084 4391 3084 
Q 3944 3084 3684 2787 
Q 3425 2491 3425 1978 
L 3425 0 
L 2847 0 
L 2847 2094 
Q 2847 2600 2669 2842 
Q 2491 3084 2119 3084 
Q 1678 3084 1418 2786 
Q 1159 2488 1159 1978 
L 1159 0 
L 581 0 
L 581 3500 
L 1159 3500 
L 1159 2956 
Q 1356 3278 1631 3431 
Q 1906 3584 2284 3584 
Q 2666 3584 2933 3390 
Q 3200 3197 3328 2828 
z
" transform="scale(0.015625)"/>
       <path id="DejaVuSans-65" d="M 3597 1894 
L 3597 1613 
L 953 1613 
Q 991 1019 1311 708 
Q 1631 397 2203 397 
Q 2534 397 2845 478 
Q 3156 559 3463 722 
L 3463 178 
Q 3153 47 2828 -22 
Q 2503 -91 2169 -91 
Q 1331 -91 842 396 
Q 353 884 353 1716 
Q 353 2575 817 3079 
Q 1281 3584 2069 3584 
Q 2775 3584 3186 3129 
Q 3597 2675 3597 1894 
z
M 3022 2063 
Q 3016 2534 2758 2815 
Q 2500 3097 2075 3097 
Q 1594 3097 1305 2825 
Q 1016 2553 972 2059 
L 3022 2063 
z
" transform="scale(0.015625)"/>
       <path id="DejaVuSans-20" transform="scale(0.015625)"/>
       <path id="DejaVuSans-28" d="M 1984 4856 
Q 1566 4138 1362 3434 
Q 1159 2731 1159 2009 
Q 1159 1288 1364 580 
Q 1569 -128 1984 -844 
L 1484 -844 
Q 1016 -109 783 600 
Q 550 1309 550 2009 
Q 550 2706 781 3412 
Q 1013 4119 1484 4856 
L 1984 4856 
z
" transform="scale(0.015625)"/>
       <path id="DejaVuSans-73" d="M 2834 3397 
L 2834 2853 
Q 2591 2978 2328 3040 
Q 2066 3103 1784 3103 
Q 1356 3103 1142 2972 
Q 928 2841 928 2578 
Q 928 2378 1081 2264 
Q 1234 2150 1697 2047 
L 1894 2003 
Q 2506 1872 2764 1633 
Q 3022 1394 3022 966 
Q 3022 478 2636 193 
Q 2250 -91 1575 -91 
Q 1294 -91 989 -36 
Q 684 19 347 128 
L 347 722 
Q 666 556 975 473 
Q 1284 391 1588 391 
Q 1994 391 2212 530 
Q 2431 669 2431 922 
Q 2431 1156 2273 1281 
Q 2116 1406 1581 1522 
L 1381 1569 
Q 847 1681 609 1914 
Q 372 2147 372 2553 
Q 372 3047 722 3315 
Q 1072 3584 1716 3584 
Q 2034 3584 2315 3537 
Q 2597 3491 2834 3397 
z
" transform="scale(0.015625)"/>
       <path id="DejaVuSans-29" d="M 513 4856 
L 1013 4856 
Q 1481 4119 1714 3412 
Q 1947 2706 1947 2009 
Q 1947 1309 1714 600 
Q 1481 -109 1013 -844 
L 513 -844 
Q 928 -128 1133 580 
Q 1338 1288 1338 2009 
Q 1338 2731 1133 3434 
Q 928 4138 513 4856 
z
" transform="scale(0.015625)"/>
      </defs>
      <use xlink:href="#DejaVuSans-74"/>
      <use xlink:href="#DejaVuSans-69" x="39.208984"/>
      <use xlink:href="#DejaVuSans-6d" x="66.992188"/>
      <use xlink:href="#DejaVuSans-65" x="164.404297"/>
      <use xlink:href="#DejaVuSans-20" x="225.927734"/>
      <use xlink:href="#DejaVuSans-28" x="257.714844"/>
      <use xlink:href="#DejaVuSans-73" x="296.728516"/>
      <use xlink:href="#DejaVuSans-29" x="348.828125"/>
     </g>
    </g>
   </g>
   <g id="matplotlib.axis_2">
    <g id="ytick_1">
     <g id="line2d_15">
      <path d="M 43.78125 274.154666 
L 400.90125 274.154666 
" clip-path="url(#p2ce0961d92)" style="fill: none; stroke: #b0b0b0; stroke-width: 0.8; stroke-linecap: square"/>
     </g>
     <g id="line2d_16">
      <defs>
       <path id="md08b12f6b7" d="M 0 0 
L -3.5 0 
" style="stroke: #000000; stroke-width: 0.8"/>
      </defs>
      <g>
       <use xlink:href="#md08b12f6b7" x="43.78125" y="274.154666" style="stroke: #000000; stroke-width: 0.8"/>
      </g>
     </g>
     <g id="text_9">
      <!-- 0.4 -->
      <g transform="translate(20.878125 277.953884) scale(0.1 -0.1)">
       <defs>
        <path id="DejaVuSans-2e" d="M 684 794 
L 1344 794 
L 1344 0 
L 684 0 
L 684 794 
z
" transform="scale(0.015625)"/>
       </defs>
       <use xlink:href="#DejaVuSans-30"/>
       <use xlink:href="#DejaVuSans-2e" x="63.623047"/>
       <use xlink:href="#DejaVuSans-34" x="95.410156"/>
      </g>
     </g>
    </g>
    <g id="ytick_2">
     <g id="line2d_17">
      <path d="M 43.78125 230.565476 
L 400.90125 230.565476 
" clip-path="url(#p2ce0961d92)" style="fill: none; stroke: #b0b0b0; stroke-width: 0.8; stroke-linecap: square"/>
     </g>
     <g id="line2d_18">
      <g>
       <use xlink:href="#md08b12f6b7" x="43.78125" y="230.565476" style="stroke: #000000; stroke-width: 0.8"/>
      </g>
     </g>
     <g id="text_10">
      <!-- 0.6 -->
      <g transform="translate(20.878125 234.364695) scale(0.1 -0.1)">
       <use xlink:href="#DejaVuSans-30"/>
       <use xlink:href="#DejaVuSans-2e" x="63.623047"/>
       <use xlink:href="#DejaVuSans-36" x="95.410156"/>
      </g>
     </g>
    </g>
    <g id="ytick_3">
     <g id="line2d_19">
      <path d="M 43.78125 186.976287 
L 400.90125 186.976287 
" clip-path="url(#p2ce0961d92)" style="fill: none; stroke: #b0b0b0; stroke-width: 0.8; stroke-linecap: square"/>
     </g>
     <g id="line2d_20">
      <g>
       <use xlink:href="#md08b12f6b7" x="43.78125" y="186.976287" style="stroke: #000000; stroke-width: 0.8"/>
      </g>
     </g>
     <g id="text_11">
      <!-- 0.8 -->
      <g transform="translate(20.878125 190.775506) scale(0.1 -0.1)">
       <use xlink:href="#DejaVuSans-30"/>
       <use xlink:href="#DejaVuSans-2e" x="63.623047"/>
       <use xlink:href="#DejaVuSans-38" x="95.410156"/>
      </g>
     </g>
    </g>
    <g id="ytick_4">
     <g id="line2d_21">
      <path d="M 43.78125 143.387098 
L 400.90125 143.387098 
" clip-path="url(#p2ce0961d92)" style="fill: none; stroke: #b0b0b0; stroke-width: 0.8; stroke-linecap: square"/>
     </g>
     <g id="line2d_22">
      <g>
       <use xlink:href="#md08b12f6b7" x="43.78125" y="143.387098" style="stroke: #000000; stroke-width: 0.8"/>
      </g>
     </g>
     <g id="text_12">
      <!-- 1.0 -->
      <g transform="translate(20.878125 147.186317) scale(0.1 -0.1)">
       <use xlink:href="#DejaVuSans-31"/>
       <use xlink:href="#DejaVuSans-2e" x="63.623047"/>
       <use xlink:href="#DejaVuSans-30" x="95.410156"/>
      </g>
     </g>
    </g>
    <g id="ytick_5">
     <g id="line2d_23">
      <path d="M 43.78125 99.797909 
L 400.90125 99.797909 
" clip-path="url(#p2ce0961d92)" style="fill: none; stroke: #b0b0b0; stroke-width: 0.8; stroke-linecap: square"/>
     </g>
     <g id="line2d_24">
      <g>
       <use xlink:href="#md08b12f6b7" x="43.78125" y="99.797909" style="stroke: #000000; stroke-width: 0.8"/>
      </g>
     </g>
     <g id="text_13">
      <!-- 1.2 -->
      <g transform="translate(20.878125 103.597128) scale(0.1 -0.1)">
       <use xlink:href="#DejaVuSans-31"/>
       <use xlink:href="#DejaVuSans-2e" x="63.623047"/>
       <use xlink:href="#DejaVuSans-32" x="95.410156"/>
      </g>
     </g>
    </g>
    <g id="ytick_6">
     <g id="line2d_25">
      <path d="M 43.78125 56.20872 
L 400.90125 56.20872 
" clip-path="url(#p2ce0961d92)" style="fill: none; stroke: #b0b0b0; stroke-width: 0.8; stroke-linecap: square"/>
     </g>
     <g id="line2d_26">
      <g>
       <use xlink:href="#md08b12f6b7" x="43.78125" y="56.20872" style="stroke: #000000; stroke-width: 0.8"/>
      </g>
     </g>
     <g id="text_14">
      <!-- 1.4 -->
      <g transform="translate(20.878125 60.007938) scale(0.1 -0.1)">
       <use xlink:href="#DejaVuSans-31"/>
       <use xlink:href="#DejaVuSans-2e" x="63.623047"/>
       <use xlink:href="#DejaVuSans-34" x="95.410156"/>
      </g>
     </g>
    </g>
    <g id="text_15">
     <!-- l (m) -->
     <g transform="translate(14.798438 167.124125) rotate(-90) scale(0.1 -0.1)">
      <defs>
       <path id="DejaVuSans-6c" d="M 603 4863 
L 1178 4863 
L 1178 0 
L 603 0 
L 603 4863 
z
" transform="scale(0.015625)"/>
      </defs>
      <use xlink:href="#DejaVuSans-6c"/>
      <use xlink:href="#DejaVuSans-20" x="27.783203"/>
      <use xlink:href="#DejaVuSans-28" x="59.570312"/>
      <use xlink:href="#DejaVuSans-6d" x="98.583984"/>
      <use xlink:href="#DejaVuSans-29" x="195.996094"/>
     </g>
    </g>
   </g>
   <g id="line2d_27">
    <path d="M 60.013977 221.847639 
L 60.690341 221.746318 
L 61.366705 221.394337 
L 62.043068 220.796036 
L 62.854705 219.758917 
L 63.801614 218.11798 
L 65.830705 214.28076 
L 67.995068 210.397317 
L 71.512159 204.547261 
L 76.923068 196.456735 
L 81.251795 190.73515 
L 85.851068 185.319752 
L 90.856159 180.120576 
L 93.155795 177.941678 
L 98.83725 173.094849 
L 105.059795 168.544433 
L 111.823432 164.363557 
L 119.398705 160.473676 
L 128.191432 156.824169 
L 130.761614 155.899305 
L 141.853977 152.561664 
L 156.463432 149.402785 
L 160.656886 148.700793 
L 163.497614 148.258976 
L 167.420523 147.710823 
L 170.26125 147.339256 
L 173.913614 146.910472 
L 176.754341 146.595697 
L 180.406705 146.234018 
L 183.247432 145.967236 
L 186.899795 145.662274 
L 189.740523 145.436044 
L 193.122341 145.197575 
L 195.963068 145.004296 
L 199.344886 144.802027 
L 202.320886 144.634227 
L 205.296886 144.478868 
L 208.408159 144.323952 
L 211.789977 144.178712 
L 214.90125 144.047011 
L 218.283068 143.924973 
L 221.394341 143.812896 
L 224.776159 143.710463 
L 227.887432 143.614971 
L 230.998705 143.53607 
L 234.109977 143.454057 
L 237.22125 143.387586 
L 240.332523 143.317044 
L 243.443795 143.261151 
L 246.555068 143.200371 
L 249.666341 143.153483 
L 252.777614 143.101009 
L 255.888886 143.061785 
L 259.000159 143.01638 
L 262.111432 142.983679 
L 265.222705 142.944289 
L 268.333977 142.917139 
L 271.44525 142.882869 
L 274.556523 142.860444 
L 277.667795 142.83053 
L 280.779068 142.812125 
L 283.890341 142.785921 
L 287.001614 142.770937 
L 290.112886 142.74789 
L 293.224159 142.735816 
L 296.335432 142.715456 
L 299.446705 142.70586 
L 302.557977 142.687786 
L 305.66925 142.680299 
L 308.780523 142.664171 
L 311.891795 142.658479 
L 315.003068 142.644006 
L 318.114341 142.639842 
L 321.225614 142.626778 
L 324.336886 142.623914 
L 327.448159 142.61205 
L 330.559432 142.610292 
L 333.670705 142.599448 
L 336.781977 142.598632 
L 339.89325 142.588656 
L 343.004523 142.588642 
L 346.115795 142.579406 
L 349.227068 142.580073 
L 352.338341 142.571466 
L 355.449614 142.572713 
L 358.560886 142.564642 
L 361.672159 142.566383 
L 364.783432 142.558768 
L 367.894705 142.560929 
L 371.005977 142.553701 
L 374.11725 142.556221 
L 377.228523 142.549323 
L 380.339795 142.552147 
L 383.451068 142.54553 
L 384.668523 142.549637 
L 384.668523 142.549637 
" clip-path="url(#p2ce0961d92)" style="fill: none; stroke: #33ff33; stroke-width: 1.5; stroke-linecap: square"/>
   </g>
   <g id="line2d_28">
    <path d="M 60.013977 241.462774 
L 61.366705 241.354419 
L 62.719432 241.009496 
L 64.072159 240.432437 
L 65.424886 239.624224 
L 66.912886 238.464404 
L 68.400886 237.010694 
L 69.888886 235.246227 
L 71.376886 233.148708 
L 73.000159 230.450395 
L 74.623432 227.290652 
L 79.222705 217.838426 
L 82.333977 212.05371 
L 85.174705 207.163059 
L 87.609614 203.28664 
L 91.39725 197.724216 
L 95.049614 192.838923 
L 98.025614 189.185322 
L 101.001614 185.80293 
L 103.977614 182.6716 
L 106.953614 179.772683 
L 109.929614 177.088922 
L 112.905614 174.604344 
L 116.016886 172.201617 
L 120.886705 168.812114 
L 126.027068 165.66931 
L 131.437977 162.783594 
L 137.119432 160.159003 
L 143.341977 157.694864 
L 150.105614 155.430785 
L 157.680886 153.324245 
L 166.608886 151.318209 
L 177.160159 149.474567 
L 190.011068 147.815633 
L 195.421977 147.265724 
L 200.968159 146.77479 
L 222.070705 145.44147 
L 258.594341 144.319291 
L 268.198705 144.163998 
L 275.638705 144.06455 
L 284.701977 143.970191 
L 292.412523 143.902422 
L 300.934705 143.845089 
L 308.64525 143.799771 
L 317.167432 143.762547 
L 325.148523 143.731059 
L 333.400159 143.707951 
L 341.38125 143.686444 
L 349.632886 143.671701 
L 357.613977 143.656748 
L 365.865614 143.647496 
L 373.846705 143.636847 
L 382.098341 143.631201 
L 384.668523 143.627308 
L 384.668523 143.627308 
" clip-path="url(#p2ce0961d92)" style="fill: none; stroke: #66cc66; stroke-width: 1.5; stroke-linecap: square"/>
   </g>
   <g id="line2d_29">
    <path d="M 60.013977 34.414125 
L 61.096159 34.520066 
L 62.178341 34.866885 
L 63.260523 35.445989 
L 64.477977 36.368484 
L 65.695432 37.568075 
L 67.048159 39.217252 
L 68.536159 41.401106 
L 70.159432 44.209552 
L 71.917977 47.731957 
L 73.811795 52.051855 
L 76.652523 58.545081 
L 80.034341 65.672812 
L 82.875068 71.199071 
L 86.392159 77.498547 
L 89.90925 83.249152 
L 93.426341 88.498708 
L 97.078705 93.464797 
L 100.054705 97.179023 
L 103.030705 100.617507 
L 106.006705 103.80072 
L 108.982705 106.747611 
L 112.093977 109.59672 
L 116.422705 113.19484 
L 121.021977 116.600334 
L 125.891795 119.78992 
L 131.032159 122.747257 
L 136.578341 125.523726 
L 140.095432 127.089579 
L 143.747795 128.573314 
L 150.511432 130.973011 
L 158.086705 133.205544 
L 166.608886 135.243098 
L 171.072886 136.146441 
L 181.894705 137.943771 
L 195.421977 139.585202 
L 213.548523 141.050095 
L 241.414705 142.305614 
L 252.10125 142.590182 
L 259.000159 142.738989 
L 268.063432 142.894002 
L 275.232886 142.996328 
L 283.755068 143.091741 
L 291.195068 143.162623 
L 299.446705 143.223024 
L 306.886705 143.270683 
L 315.138341 143.310058 
L 322.848886 143.343246 
L 330.829977 143.36763 
L 338.540523 143.390183 
L 346.521614 143.405583 
L 354.232159 143.421056 
L 362.21325 143.430475 
L 369.923795 143.441233 
L 377.904886 143.446669 
L 384.668523 143.451733 
L 384.668523 143.451733 
" clip-path="url(#p2ce0961d92)" style="fill: none; stroke: #999999; stroke-width: 1.5; stroke-linecap: square"/>
   </g>
   <g id="line2d_30">
    <path d="M 60.013977 276.334125 
L 60.825614 276.253884 
L 61.772523 275.920423 
L 62.719432 275.335334 
L 63.801614 274.368004 
L 65.019068 272.948221 
L 66.371795 271.026888 
L 67.859795 268.51081 
L 69.483068 265.302823 
L 71.241614 261.303709 
L 73.135432 256.415407 
L 79.222705 240.015422 
L 82.604523 231.927905 
L 85.44525 225.657205 
L 88.962341 218.509264 
L 92.479432 211.984077 
L 95.996523 206.027385 
L 99.648886 200.392418 
L 102.489614 196.360217 
L 106.27725 191.42825 
L 110.200159 186.807827 
L 113.176159 183.601556 
L 116.152159 180.633286 
L 119.128159 177.885349 
L 122.104159 175.341388 
L 125.215432 172.881342 
L 129.949977 169.503515 
L 133.06125 167.495693 
L 138.336886 164.445561 
L 141.718705 162.695262 
L 147.670705 159.967164 
L 154.163795 157.433791 
L 161.468523 155.049566 
L 169.720159 152.849106 
L 173.913614 151.895673 
L 184.329614 149.937302 
L 188.793614 149.24399 
L 202.861977 147.521997 
L 222.070705 145.986651 
L 253.048159 144.67423 
L 259.405977 144.509826 
L 267.657614 144.337406 
L 274.150705 144.223955 
L 280.779068 144.124055 
L 288.489614 144.031575 
L 295.117977 143.961879 
L 302.557977 143.90067 
L 309.456886 143.84972 
L 316.896886 143.808 
L 323.795795 143.772053 
L 330.96525 143.74478 
L 337.864159 143.719018 
L 345.033614 143.700566 
L 351.932523 143.681876 
L 359.101977 143.66955 
L 366.271432 143.655354 
L 373.440886 143.647349 
L 380.610341 143.636742 
L 384.668523 143.63255 
L 384.668523 143.63255 
" clip-path="url(#p2ce0961d92)" style="fill: none; stroke: #cc66cc; stroke-width: 1.5; stroke-linecap: square"/>
   </g>
   <g id="line2d_31">
    <path d="M 60.013977 99.797909 
L 60.825614 99.908644 
L 61.63725 100.281768 
L 62.448886 100.911868 
L 64.072159 102.617244 
L 66.371795 104.972845 
L 68.941977 107.497096 
L 73.811795 111.835935 
L 79.222705 116.056161 
L 85.174705 120.063404 
L 91.803068 123.851177 
L 94.37325 125.159218 
L 102.354341 128.691585 
L 105.059795 129.733744 
L 107.900523 130.756244 
L 118.18125 133.873712 
L 130.626341 136.688495 
L 147.129614 139.261665 
L 152.134705 139.843979 
L 155.38125 140.185593 
L 158.763068 140.516211 
L 163.227068 140.901574 
L 166.608886 141.172032 
L 170.802341 141.467481 
L 174.184159 141.690369 
L 178.377614 141.932405 
L 181.759432 142.11621 
L 185.952886 142.314344 
L 189.60525 142.477315 
L 193.528159 142.628093 
L 197.180523 142.762688 
L 201.103432 142.88581 
L 204.755795 142.997092 
L 208.678705 143.097487 
L 212.331068 143.189608 
L 216.253977 143.271333 
L 219.906341 143.347702 
L 223.82925 143.414092 
L 227.481614 143.477511 
L 231.404523 143.531305 
L 235.056886 143.58408 
L 238.979795 143.627523 
L 242.632159 143.671554 
L 246.555068 143.70649 
L 250.207432 143.743339 
L 254.130341 143.771281 
L 257.782705 143.802231 
L 261.705614 143.824423 
L 265.357977 143.850527 
L 269.010341 143.866582 
L 272.662705 143.888832 
L 276.315068 143.901378 
L 279.967432 143.920437 
L 283.619795 143.930082 
L 287.272159 143.946499 
L 290.924523 143.953743 
L 294.576886 143.967974 
L 298.22925 143.973232 
L 301.881614 143.985653 
L 305.533977 143.989267 
L 309.186341 144.000193 
L 312.838705 144.002445 
L 316.491068 144.012133 
L 320.143432 144.013258 
L 323.795795 144.021922 
L 327.448159 144.022115 
L 331.100523 144.029932 
L 334.752886 144.029353 
L 338.40525 144.036468 
L 342.057614 144.035251 
L 345.709977 144.041785 
L 349.362341 144.040041 
L 353.014705 144.046094 
L 356.667068 144.043912 
L 360.319432 144.049568 
L 363.971795 144.047025 
L 367.624159 144.052351 
L 371.276523 144.049509 
L 374.928886 144.054564 
L 378.58125 144.051473 
L 382.233614 144.056303 
L 384.668523 144.056792 
L 384.668523 144.056792 
" clip-path="url(#p2ce0961d92)" style="fill: none; stroke: #ff33ff; stroke-width: 1.5; stroke-linecap: square"/>
   </g>
   <g id="patch_3">
    <path d="M 43.78125 288.430125 
L 43.78125 22.318125 
" style="fill: none; stroke: #000000; stroke-width: 0.8; stroke-linejoin: miter; stroke-linecap: square"/>
   </g>
   <g id="patch_4">
    <path d="M 400.90125 288.430125 
L 400.90125 22.318125 
" style="fill: none; stroke: #000000; stroke-width: 0.8; stroke-linejoin: miter; stroke-linecap: square"/>
   </g>
   <g id="patch_5">
    <path d="M 43.78125 288.430125 
L 400.90125 288.430125 
" style="fill: none; stroke: #000000; stroke-width: 0.8; stroke-linejoin: miter; stroke-linecap: square"/>
   </g>
   <g id="patch_6">
    <path d="M 43.78125 22.318125 
L 400.90125 22.318125 
" style="fill: none; stroke: #000000; stroke-width: 0.8; stroke-linejoin: miter; stroke-linecap: square"/>
   </g>
   <g id="text_16">
    <!-- l vs time -->
    <g transform="translate(196.628438 16.318125) scale(0.12 -0.12)">
     <defs>
      <path id="DejaVuSans-76" d="M 191 3500 
L 800 3500 
L 1894 563 
L 2988 3500 
L 3597 3500 
L 2284 0 
L 1503 0 
L 191 3500 
z
" transform="scale(0.015625)"/>
     </defs>
     <use xlink:href="#DejaVuSans-6c"/>
     <use xlink:href="#DejaVuSans-20" x="27.783203"/>
     <use xlink:href="#DejaVuSans-76" x="59.570312"/>
     <use xlink:href="#DejaVuSans-73" x="118.75"/>
     <use xlink:href="#DejaVuSans-20" x="170.849609"/>
     <use xlink:href="#DejaVuSans-74" x="202.636719"/>
     <use xlink:href="#DejaVuSans-69" x="241.845703"/>
     <use xlink:href="#DejaVuSans-6d" x="269.628906"/>
     <use xlink:href="#DejaVuSans-65" x="367.041016"/>
    </g>
   </g>
   <g id="legend_1">
    <g id="patch_7">
     <path d="M 39.269787 404.475375 
L 386.75885 404.475375 
Q 388.75885 404.475375 388.75885 402.475375 
L 388.75885 328.694125 
Q 388.75885 326.694125 386.75885 326.694125 
L 39.269787 326.694125 
Q 37.269787 326.694125 37.269787 328.694125 
L 37.269787 402.475375 
Q 37.269787 404.475375 39.269787 404.475375 
z
" style="fill: #ffffff; opacity: 0.8; stroke: #cccccc; stroke-linejoin: miter"/>
    </g>
    <g id="line2d_32">
     <path d="M 41.269787 334.792562 
L 51.269787 334.792562 
L 61.269787 334.792562 
" style="fill: none; stroke: #33ff33; stroke-width: 1.5; stroke-linecap: square"/>
    </g>
    <g id="text_17">
     <!-- Var1: x_init = 0.15, l_init = 0.64, theta_init = 5.82, mc = 0.57 -->
     <g transform="translate(69.269787 338.292562) scale(0.1 -0.1)">
      <defs>
       <path id="DejaVuSans-56" d="M 1831 0 
L 50 4666 
L 709 4666 
L 2188 738 
L 3669 4666 
L 4325 4666 
L 2547 0 
L 1831 0 
z
" transform="scale(0.015625)"/>
       <path id="DejaVuSans-61" d="M 2194 1759 
Q 1497 1759 1228 1600 
Q 959 1441 959 1056 
Q 959 750 1161 570 
Q 1363 391 1709 391 
Q 2188 391 2477 730 
Q 2766 1069 2766 1631 
L 2766 1759 
L 2194 1759 
z
M 3341 1997 
L 3341 0 
L 2766 0 
L 2766 531 
Q 2569 213 2275 61 
Q 1981 -91 1556 -91 
Q 1019 -91 701 211 
Q 384 513 384 1019 
Q 384 1609 779 1909 
Q 1175 2209 1959 2209 
L 2766 2209 
L 2766 2266 
Q 2766 2663 2505 2880 
Q 2244 3097 1772 3097 
Q 1472 3097 1187 3025 
Q 903 2953 641 2809 
L 641 3341 
Q 956 3463 1253 3523 
Q 1550 3584 1831 3584 
Q 2591 3584 2966 3190 
Q 3341 2797 3341 1997 
z
" transform="scale(0.015625)"/>
       <path id="DejaVuSans-72" d="M 2631 2963 
Q 2534 3019 2420 3045 
Q 2306 3072 2169 3072 
Q 1681 3072 1420 2755 
Q 1159 2438 1159 1844 
L 1159 0 
L 581 0 
L 581 3500 
L 1159 3500 
L 1159 2956 
Q 1341 3275 1631 3429 
Q 1922 3584 2338 3584 
Q 2397 3584 2469 3576 
Q 2541 3569 2628 3553 
L 2631 2963 
z
" transform="scale(0.015625)"/>
       <path id="DejaVuSans-3a" d="M 750 794 
L 1409 794 
L 1409 0 
L 750 0 
L 750 794 
z
M 750 3309 
L 1409 3309 
L 1409 2516 
L 750 2516 
L 750 3309 
z
" transform="scale(0.015625)"/>
       <path id="DejaVuSans-78" d="M 3513 3500 
L 2247 1797 
L 3578 0 
L 2900 0 
L 1881 1375 
L 863 0 
L 184 0 
L 1544 1831 
L 300 3500 
L 978 3500 
L 1906 2253 
L 2834 3500 
L 3513 3500 
z
" transform="scale(0.015625)"/>
       <path id="DejaVuSans-5f" d="M 3263 -1063 
L 3263 -1509 
L -63 -1509 
L -63 -1063 
L 3263 -1063 
z
" transform="scale(0.015625)"/>
       <path id="DejaVuSans-6e" d="M 3513 2113 
L 3513 0 
L 2938 0 
L 2938 2094 
Q 2938 2591 2744 2837 
Q 2550 3084 2163 3084 
Q 1697 3084 1428 2787 
Q 1159 2491 1159 1978 
L 1159 0 
L 581 0 
L 581 3500 
L 1159 3500 
L 1159 2956 
Q 1366 3272 1645 3428 
Q 1925 3584 2291 3584 
Q 2894 3584 3203 3211 
Q 3513 2838 3513 2113 
z
" transform="scale(0.015625)"/>
       <path id="DejaVuSans-3d" d="M 678 2906 
L 4684 2906 
L 4684 2381 
L 678 2381 
L 678 2906 
z
M 678 1631 
L 4684 1631 
L 4684 1100 
L 678 1100 
L 678 1631 
z
" transform="scale(0.015625)"/>
       <path id="DejaVuSans-35" d="M 691 4666 
L 3169 4666 
L 3169 4134 
L 1269 4134 
L 1269 2991 
Q 1406 3038 1543 3061 
Q 1681 3084 1819 3084 
Q 2600 3084 3056 2656 
Q 3513 2228 3513 1497 
Q 3513 744 3044 326 
Q 2575 -91 1722 -91 
Q 1428 -91 1123 -41 
Q 819 9 494 109 
L 494 744 
Q 775 591 1075 516 
Q 1375 441 1709 441 
Q 2250 441 2565 725 
Q 2881 1009 2881 1497 
Q 2881 1984 2565 2268 
Q 2250 2553 1709 2553 
Q 1456 2553 1204 2497 
Q 953 2441 691 2322 
L 691 4666 
z
" transform="scale(0.015625)"/>
       <path id="DejaVuSans-2c" d="M 750 794 
L 1409 794 
L 1409 256 
L 897 -744 
L 494 -744 
L 750 256 
L 750 794 
z
" transform="scale(0.015625)"/>
       <path id="DejaVuSans-68" d="M 3513 2113 
L 3513 0 
L 2938 0 
L 2938 2094 
Q 2938 2591 2744 2837 
Q 2550 3084 2163 3084 
Q 1697 3084 1428 2787 
Q 1159 2491 1159 1978 
L 1159 0 
L 581 0 
L 581 4863 
L 1159 4863 
L 1159 2956 
Q 1366 3272 1645 3428 
Q 1925 3584 2291 3584 
Q 2894 3584 3203 3211 
Q 3513 2838 3513 2113 
z
" transform="scale(0.015625)"/>
       <path id="DejaVuSans-63" d="M 3122 3366 
L 3122 2828 
Q 2878 2963 2633 3030 
Q 2388 3097 2138 3097 
Q 1578 3097 1268 2742 
Q 959 2388 959 1747 
Q 959 1106 1268 751 
Q 1578 397 2138 397 
Q 2388 397 2633 464 
Q 2878 531 3122 666 
L 3122 134 
Q 2881 22 2623 -34 
Q 2366 -91 2075 -91 
Q 1284 -91 818 406 
Q 353 903 353 1747 
Q 353 2603 823 3093 
Q 1294 3584 2113 3584 
Q 2378 3584 2631 3529 
Q 2884 3475 3122 3366 
z
" transform="scale(0.015625)"/>
       <path id="DejaVuSans-37" d="M 525 4666 
L 3525 4666 
L 3525 4397 
L 1831 0 
L 1172 0 
L 2766 4134 
L 525 4134 
L 525 4666 
z
" transform="scale(0.015625)"/>
      </defs>
      <use xlink:href="#DejaVuSans-56"/>
      <use xlink:href="#DejaVuSans-61" x="60.658203"/>
      <use xlink:href="#DejaVuSans-72" x="121.9375"/>
      <use xlink:href="#DejaVuSans-31" x="163.050781"/>
      <use xlink:href="#DejaVuSans-3a" x="226.673828"/>
      <use xlink:href="#DejaVuSans-20" x="260.365234"/>
      <use xlink:href="#DejaVuSans-78" x="292.152344"/>
      <use xlink:href="#DejaVuSans-5f" x="351.332031"/>
      <use xlink:href="#DejaVuSans-69" x="401.332031"/>
      <use xlink:href="#DejaVuSans-6e" x="429.115234"/>
      <use xlink:href="#DejaVuSans-69" x="492.494141"/>
      <use xlink:href="#DejaVuSans-74" x="520.277344"/>
      <use xlink:href="#DejaVuSans-20" x="559.486328"/>
      <use xlink:href="#DejaVuSans-3d" x="591.273438"/>
      <use xlink:href="#DejaVuSans-20" x="675.0625"/>
      <use xlink:href="#DejaVuSans-30" x="706.849609"/>
      <use xlink:href="#DejaVuSans-2e" x="770.472656"/>
      <use xlink:href="#DejaVuSans-31" x="802.259766"/>
      <use xlink:href="#DejaVuSans-35" x="865.882812"/>
      <use xlink:href="#DejaVuSans-2c" x="929.505859"/>
      <use xlink:href="#DejaVuSans-20" x="961.292969"/>
      <use xlink:href="#DejaVuSans-6c" x="993.080078"/>
      <use xlink:href="#DejaVuSans-5f" x="1020.863281"/>
      <use xlink:href="#DejaVuSans-69" x="1070.863281"/>
      <use xlink:href="#DejaVuSans-6e" x="1098.646484"/>
      <use xlink:href="#DejaVuSans-69" x="1162.025391"/>
      <use xlink:href="#DejaVuSans-74" x="1189.808594"/>
      <use xlink:href="#DejaVuSans-20" x="1229.017578"/>
      <use xlink:href="#DejaVuSans-3d" x="1260.804688"/>
      <use xlink:href="#DejaVuSans-20" x="1344.59375"/>
      <use xlink:href="#DejaVuSans-30" x="1376.380859"/>
      <use xlink:href="#DejaVuSans-2e" x="1440.003906"/>
      <use xlink:href="#DejaVuSans-36" x="1471.791016"/>
      <use xlink:href="#DejaVuSans-34" x="1535.414062"/>
      <use xlink:href="#DejaVuSans-2c" x="1599.037109"/>
      <use xlink:href="#DejaVuSans-20" x="1630.824219"/>
      <use xlink:href="#DejaVuSans-74" x="1662.611328"/>
      <use xlink:href="#DejaVuSans-68" x="1701.820312"/>
      <use xlink:href="#DejaVuSans-65" x="1765.199219"/>
      <use xlink:href="#DejaVuSans-74" x="1826.722656"/>
      <use xlink:href="#DejaVuSans-61" x="1865.931641"/>
      <use xlink:href="#DejaVuSans-5f" x="1927.210938"/>
      <use xlink:href="#DejaVuSans-69" x="1977.210938"/>
      <use xlink:href="#DejaVuSans-6e" x="2004.994141"/>
      <use xlink:href="#DejaVuSans-69" x="2068.373047"/>
      <use xlink:href="#DejaVuSans-74" x="2096.15625"/>
      <use xlink:href="#DejaVuSans-20" x="2135.365234"/>
      <use xlink:href="#DejaVuSans-3d" x="2167.152344"/>
      <use xlink:href="#DejaVuSans-20" x="2250.941406"/>
      <use xlink:href="#DejaVuSans-35" x="2282.728516"/>
      <use xlink:href="#DejaVuSans-2e" x="2346.351562"/>
      <use xlink:href="#DejaVuSans-38" x="2378.138672"/>
      <use xlink:href="#DejaVuSans-32" x="2441.761719"/>
      <use xlink:href="#DejaVuSans-2c" x="2505.384766"/>
      <use xlink:href="#DejaVuSans-20" x="2537.171875"/>
      <use xlink:href="#DejaVuSans-6d" x="2568.958984"/>
      <use xlink:href="#DejaVuSans-63" x="2666.371094"/>
      <use xlink:href="#DejaVuSans-20" x="2721.351562"/>
      <use xlink:href="#DejaVuSans-3d" x="2753.138672"/>
      <use xlink:href="#DejaVuSans-20" x="2836.927734"/>
      <use xlink:href="#DejaVuSans-30" x="2868.714844"/>
      <use xlink:href="#DejaVuSans-2e" x="2932.337891"/>
      <use xlink:href="#DejaVuSans-35" x="2964.125"/>
      <use xlink:href="#DejaVuSans-37" x="3027.748047"/>
     </g>
    </g>
    <g id="line2d_33">
     <path d="M 41.269787 349.748812 
L 51.269787 349.748812 
L 61.269787 349.748812 
" style="fill: none; stroke: #66cc66; stroke-width: 1.5; stroke-linecap: square"/>
    </g>
    <g id="text_18">
     <!-- Var2: x_init = 1.37, l_init = 0.55, theta_init = 20.98, mc = 1.48 -->
     <g transform="translate(69.269787 353.248812) scale(0.1 -0.1)">
      <defs>
       <path id="DejaVuSans-33" d="M 2597 2516 
Q 3050 2419 3304 2112 
Q 3559 1806 3559 1356 
Q 3559 666 3084 287 
Q 2609 -91 1734 -91 
Q 1441 -91 1130 -33 
Q 819 25 488 141 
L 488 750 
Q 750 597 1062 519 
Q 1375 441 1716 441 
Q 2309 441 2620 675 
Q 2931 909 2931 1356 
Q 2931 1769 2642 2001 
Q 2353 2234 1838 2234 
L 1294 2234 
L 1294 2753 
L 1863 2753 
Q 2328 2753 2575 2939 
Q 2822 3125 2822 3475 
Q 2822 3834 2567 4026 
Q 2313 4219 1838 4219 
Q 1578 4219 1281 4162 
Q 984 4106 628 3988 
L 628 4550 
Q 988 4650 1302 4700 
Q 1616 4750 1894 4750 
Q 2613 4750 3031 4423 
Q 3450 4097 3450 3541 
Q 3450 3153 3228 2886 
Q 3006 2619 2597 2516 
z
" transform="scale(0.015625)"/>
       <path id="DejaVuSans-39" d="M 703 97 
L 703 672 
Q 941 559 1184 500 
Q 1428 441 1663 441 
Q 2288 441 2617 861 
Q 2947 1281 2994 2138 
Q 2813 1869 2534 1725 
Q 2256 1581 1919 1581 
Q 1219 1581 811 2004 
Q 403 2428 403 3163 
Q 403 3881 828 4315 
Q 1253 4750 1959 4750 
Q 2769 4750 3195 4129 
Q 3622 3509 3622 2328 
Q 3622 1225 3098 567 
Q 2575 -91 1691 -91 
Q 1453 -91 1209 -44 
Q 966 3 703 97 
z
M 1959 2075 
Q 2384 2075 2632 2365 
Q 2881 2656 2881 3163 
Q 2881 3666 2632 3958 
Q 2384 4250 1959 4250 
Q 1534 4250 1286 3958 
Q 1038 3666 1038 3163 
Q 1038 2656 1286 2365 
Q 1534 2075 1959 2075 
z
" transform="scale(0.015625)"/>
      </defs>
      <use xlink:href="#DejaVuSans-56"/>
      <use xlink:href="#DejaVuSans-61" x="60.658203"/>
      <use xlink:href="#DejaVuSans-72" x="121.9375"/>
      <use xlink:href="#DejaVuSans-32" x="163.050781"/>
      <use xlink:href="#DejaVuSans-3a" x="226.673828"/>
      <use xlink:href="#DejaVuSans-20" x="260.365234"/>
      <use xlink:href="#DejaVuSans-78" x="292.152344"/>
      <use xlink:href="#DejaVuSans-5f" x="351.332031"/>
      <use xlink:href="#DejaVuSans-69" x="401.332031"/>
      <use xlink:href="#DejaVuSans-6e" x="429.115234"/>
      <use xlink:href="#DejaVuSans-69" x="492.494141"/>
      <use xlink:href="#DejaVuSans-74" x="520.277344"/>
      <use xlink:href="#DejaVuSans-20" x="559.486328"/>
      <use xlink:href="#DejaVuSans-3d" x="591.273438"/>
      <use xlink:href="#DejaVuSans-20" x="675.0625"/>
      <use xlink:href="#DejaVuSans-31" x="706.849609"/>
      <use xlink:href="#DejaVuSans-2e" x="770.472656"/>
      <use xlink:href="#DejaVuSans-33" x="802.259766"/>
      <use xlink:href="#DejaVuSans-37" x="865.882812"/>
      <use xlink:href="#DejaVuSans-2c" x="929.505859"/>
      <use xlink:href="#DejaVuSans-20" x="961.292969"/>
      <use xlink:href="#DejaVuSans-6c" x="993.080078"/>
      <use xlink:href="#DejaVuSans-5f" x="1020.863281"/>
      <use xlink:href="#DejaVuSans-69" x="1070.863281"/>
      <use xlink:href="#DejaVuSans-6e" x="1098.646484"/>
      <use xlink:href="#DejaVuSans-69" x="1162.025391"/>
      <use xlink:href="#DejaVuSans-74" x="1189.808594"/>
      <use xlink:href="#DejaVuSans-20" x="1229.017578"/>
      <use xlink:href="#DejaVuSans-3d" x="1260.804688"/>
      <use xlink:href="#DejaVuSans-20" x="1344.59375"/>
      <use xlink:href="#DejaVuSans-30" x="1376.380859"/>
      <use xlink:href="#DejaVuSans-2e" x="1440.003906"/>
      <use xlink:href="#DejaVuSans-35" x="1471.791016"/>
      <use xlink:href="#DejaVuSans-35" x="1535.414062"/>
      <use xlink:href="#DejaVuSans-2c" x="1599.037109"/>
      <use xlink:href="#DejaVuSans-20" x="1630.824219"/>
      <use xlink:href="#DejaVuSans-74" x="1662.611328"/>
      <use xlink:href="#DejaVuSans-68" x="1701.820312"/>
      <use xlink:href="#DejaVuSans-65" x="1765.199219"/>
      <use xlink:href="#DejaVuSans-74" x="1826.722656"/>
      <use xlink:href="#DejaVuSans-61" x="1865.931641"/>
      <use xlink:href="#DejaVuSans-5f" x="1927.210938"/>
      <use xlink:href="#DejaVuSans-69" x="1977.210938"/>
      <use xlink:href="#DejaVuSans-6e" x="2004.994141"/>
      <use xlink:href="#DejaVuSans-69" x="2068.373047"/>
      <use xlink:href="#DejaVuSans-74" x="2096.15625"/>
      <use xlink:href="#DejaVuSans-20" x="2135.365234"/>
      <use xlink:href="#DejaVuSans-3d" x="2167.152344"/>
      <use xlink:href="#DejaVuSans-20" x="2250.941406"/>
      <use xlink:href="#DejaVuSans-32" x="2282.728516"/>
      <use xlink:href="#DejaVuSans-30" x="2346.351562"/>
      <use xlink:href="#DejaVuSans-2e" x="2409.974609"/>
      <use xlink:href="#DejaVuSans-39" x="2441.761719"/>
      <use xlink:href="#DejaVuSans-38" x="2505.384766"/>
      <use xlink:href="#DejaVuSans-2c" x="2569.007812"/>
      <use xlink:href="#DejaVuSans-20" x="2600.794922"/>
      <use xlink:href="#DejaVuSans-6d" x="2632.582031"/>
      <use xlink:href="#DejaVuSans-63" x="2729.994141"/>
      <use xlink:href="#DejaVuSans-20" x="2784.974609"/>
      <use xlink:href="#DejaVuSans-3d" x="2816.761719"/>
      <use xlink:href="#DejaVuSans-20" x="2900.550781"/>
      <use xlink:href="#DejaVuSans-31" x="2932.337891"/>
      <use xlink:href="#DejaVuSans-2e" x="2995.960938"/>
      <use xlink:href="#DejaVuSans-34" x="3027.748047"/>
      <use xlink:href="#DejaVuSans-38" x="3091.371094"/>
     </g>
    </g>
    <g id="line2d_34">
     <path d="M 41.269787 364.705062 
L 51.269787 364.705062 
L 61.269787 364.705062 
" style="fill: none; stroke: #999999; stroke-width: 1.5; stroke-linecap: square"/>
    </g>
    <g id="text_19">
     <!-- Var3: x_init = 0.88, l_init = 1.5, theta_init = 3.43, mc = 1.42 -->
     <g transform="translate(69.269787 368.205062) scale(0.1 -0.1)">
      <use xlink:href="#DejaVuSans-56"/>
      <use xlink:href="#DejaVuSans-61" x="60.658203"/>
      <use xlink:href="#DejaVuSans-72" x="121.9375"/>
      <use xlink:href="#DejaVuSans-33" x="163.050781"/>
      <use xlink:href="#DejaVuSans-3a" x="226.673828"/>
      <use xlink:href="#DejaVuSans-20" x="260.365234"/>
      <use xlink:href="#DejaVuSans-78" x="292.152344"/>
      <use xlink:href="#DejaVuSans-5f" x="351.332031"/>
      <use xlink:href="#DejaVuSans-69" x="401.332031"/>
      <use xlink:href="#DejaVuSans-6e" x="429.115234"/>
      <use xlink:href="#DejaVuSans-69" x="492.494141"/>
      <use xlink:href="#DejaVuSans-74" x="520.277344"/>
      <use xlink:href="#DejaVuSans-20" x="559.486328"/>
      <use xlink:href="#DejaVuSans-3d" x="591.273438"/>
      <use xlink:href="#DejaVuSans-20" x="675.0625"/>
      <use xlink:href="#DejaVuSans-30" x="706.849609"/>
      <use xlink:href="#DejaVuSans-2e" x="770.472656"/>
      <use xlink:href="#DejaVuSans-38" x="802.259766"/>
      <use xlink:href="#DejaVuSans-38" x="865.882812"/>
      <use xlink:href="#DejaVuSans-2c" x="929.505859"/>
      <use xlink:href="#DejaVuSans-20" x="961.292969"/>
      <use xlink:href="#DejaVuSans-6c" x="993.080078"/>
      <use xlink:href="#DejaVuSans-5f" x="1020.863281"/>
      <use xlink:href="#DejaVuSans-69" x="1070.863281"/>
      <use xlink:href="#DejaVuSans-6e" x="1098.646484"/>
      <use xlink:href="#DejaVuSans-69" x="1162.025391"/>
      <use xlink:href="#DejaVuSans-74" x="1189.808594"/>
      <use xlink:href="#DejaVuSans-20" x="1229.017578"/>
      <use xlink:href="#DejaVuSans-3d" x="1260.804688"/>
      <use xlink:href="#DejaVuSans-20" x="1344.59375"/>
      <use xlink:href="#DejaVuSans-31" x="1376.380859"/>
      <use xlink:href="#DejaVuSans-2e" x="1440.003906"/>
      <use xlink:href="#DejaVuSans-35" x="1471.791016"/>
      <use xlink:href="#DejaVuSans-2c" x="1535.414062"/>
      <use xlink:href="#DejaVuSans-20" x="1567.201172"/>
      <use xlink:href="#DejaVuSans-74" x="1598.988281"/>
      <use xlink:href="#DejaVuSans-68" x="1638.197266"/>
      <use xlink:href="#DejaVuSans-65" x="1701.576172"/>
      <use xlink:href="#DejaVuSans-74" x="1763.099609"/>
      <use xlink:href="#DejaVuSans-61" x="1802.308594"/>
      <use xlink:href="#DejaVuSans-5f" x="1863.587891"/>
      <use xlink:href="#DejaVuSans-69" x="1913.587891"/>
      <use xlink:href="#DejaVuSans-6e" x="1941.371094"/>
      <use xlink:href="#DejaVuSans-69" x="2004.75"/>
      <use xlink:href="#DejaVuSans-74" x="2032.533203"/>
      <use xlink:href="#DejaVuSans-20" x="2071.742188"/>
      <use xlink:href="#DejaVuSans-3d" x="2103.529297"/>
      <use xlink:href="#DejaVuSans-20" x="2187.318359"/>
      <use xlink:href="#DejaVuSans-33" x="2219.105469"/>
      <use xlink:href="#DejaVuSans-2e" x="2282.728516"/>
      <use xlink:href="#DejaVuSans-34" x="2314.515625"/>
      <use xlink:href="#DejaVuSans-33" x="2378.138672"/>
      <use xlink:href="#DejaVuSans-2c" x="2441.761719"/>
      <use xlink:href="#DejaVuSans-20" x="2473.548828"/>
      <use xlink:href="#DejaVuSans-6d" x="2505.335938"/>
      <use xlink:href="#DejaVuSans-63" x="2602.748047"/>
      <use xlink:href="#DejaVuSans-20" x="2657.728516"/>
      <use xlink:href="#DejaVuSans-3d" x="2689.515625"/>
      <use xlink:href="#DejaVuSans-20" x="2773.304688"/>
      <use xlink:href="#DejaVuSans-31" x="2805.091797"/>
      <use xlink:href="#DejaVuSans-2e" x="2868.714844"/>
      <use xlink:href="#DejaVuSans-34" x="2900.501953"/>
      <use xlink:href="#DejaVuSans-32" x="2964.125"/>
     </g>
    </g>
    <g id="line2d_35">
     <path d="M 41.269787 379.661313 
L 51.269787 379.661313 
L 61.269787 379.661313 
" style="fill: none; stroke: #cc66cc; stroke-width: 1.5; stroke-linecap: square"/>
    </g>
    <g id="text_20">
     <!-- Var4: x_init = 0.42, l_init = 0.39, theta_init = 10.32, mc = 1.29 -->
     <g transform="translate(69.269787 383.161313) scale(0.1 -0.1)">
      <use xlink:href="#DejaVuSans-56"/>
      <use xlink:href="#DejaVuSans-61" x="60.658203"/>
      <use xlink:href="#DejaVuSans-72" x="121.9375"/>
      <use xlink:href="#DejaVuSans-34" x="163.050781"/>
      <use xlink:href="#DejaVuSans-3a" x="226.673828"/>
      <use xlink:href="#DejaVuSans-20" x="260.365234"/>
      <use xlink:href="#DejaVuSans-78" x="292.152344"/>
      <use xlink:href="#DejaVuSans-5f" x="351.332031"/>
      <use xlink:href="#DejaVuSans-69" x="401.332031"/>
      <use xlink:href="#DejaVuSans-6e" x="429.115234"/>
      <use xlink:href="#DejaVuSans-69" x="492.494141"/>
      <use xlink:href="#DejaVuSans-74" x="520.277344"/>
      <use xlink:href="#DejaVuSans-20" x="559.486328"/>
      <use xlink:href="#DejaVuSans-3d" x="591.273438"/>
      <use xlink:href="#DejaVuSans-20" x="675.0625"/>
      <use xlink:href="#DejaVuSans-30" x="706.849609"/>
      <use xlink:href="#DejaVuSans-2e" x="770.472656"/>
      <use xlink:href="#DejaVuSans-34" x="802.259766"/>
      <use xlink:href="#DejaVuSans-32" x="865.882812"/>
      <use xlink:href="#DejaVuSans-2c" x="929.505859"/>
      <use xlink:href="#DejaVuSans-20" x="961.292969"/>
      <use xlink:href="#DejaVuSans-6c" x="993.080078"/>
      <use xlink:href="#DejaVuSans-5f" x="1020.863281"/>
      <use xlink:href="#DejaVuSans-69" x="1070.863281"/>
      <use xlink:href="#DejaVuSans-6e" x="1098.646484"/>
      <use xlink:href="#DejaVuSans-69" x="1162.025391"/>
      <use xlink:href="#DejaVuSans-74" x="1189.808594"/>
      <use xlink:href="#DejaVuSans-20" x="1229.017578"/>
      <use xlink:href="#DejaVuSans-3d" x="1260.804688"/>
      <use xlink:href="#DejaVuSans-20" x="1344.59375"/>
      <use xlink:href="#DejaVuSans-30" x="1376.380859"/>
      <use xlink:href="#DejaVuSans-2e" x="1440.003906"/>
      <use xlink:href="#DejaVuSans-33" x="1471.791016"/>
      <use xlink:href="#DejaVuSans-39" x="1535.414062"/>
      <use xlink:href="#DejaVuSans-2c" x="1599.037109"/>
      <use xlink:href="#DejaVuSans-20" x="1630.824219"/>
      <use xlink:href="#DejaVuSans-74" x="1662.611328"/>
      <use xlink:href="#DejaVuSans-68" x="1701.820312"/>
      <use xlink:href="#DejaVuSans-65" x="1765.199219"/>
      <use xlink:href="#DejaVuSans-74" x="1826.722656"/>
      <use xlink:href="#DejaVuSans-61" x="1865.931641"/>
      <use xlink:href="#DejaVuSans-5f" x="1927.210938"/>
      <use xlink:href="#DejaVuSans-69" x="1977.210938"/>
      <use xlink:href="#DejaVuSans-6e" x="2004.994141"/>
      <use xlink:href="#DejaVuSans-69" x="2068.373047"/>
      <use xlink:href="#DejaVuSans-74" x="2096.15625"/>
      <use xlink:href="#DejaVuSans-20" x="2135.365234"/>
      <use xlink:href="#DejaVuSans-3d" x="2167.152344"/>
      <use xlink:href="#DejaVuSans-20" x="2250.941406"/>
      <use xlink:href="#DejaVuSans-31" x="2282.728516"/>
      <use xlink:href="#DejaVuSans-30" x="2346.351562"/>
      <use xlink:href="#DejaVuSans-2e" x="2409.974609"/>
      <use xlink:href="#DejaVuSans-33" x="2441.761719"/>
      <use xlink:href="#DejaVuSans-32" x="2505.384766"/>
      <use xlink:href="#DejaVuSans-2c" x="2569.007812"/>
      <use xlink:href="#DejaVuSans-20" x="2600.794922"/>
      <use xlink:href="#DejaVuSans-6d" x="2632.582031"/>
      <use xlink:href="#DejaVuSans-63" x="2729.994141"/>
      <use xlink:href="#DejaVuSans-20" x="2784.974609"/>
      <use xlink:href="#DejaVuSans-3d" x="2816.761719"/>
      <use xlink:href="#DejaVuSans-20" x="2900.550781"/>
      <use xlink:href="#DejaVuSans-31" x="2932.337891"/>
      <use xlink:href="#DejaVuSans-2e" x="2995.960938"/>
      <use xlink:href="#DejaVuSans-32" x="3027.748047"/>
      <use xlink:href="#DejaVuSans-39" x="3091.371094"/>
     </g>
    </g>
    <g id="line2d_36">
     <path d="M 41.269787 394.617562 
L 51.269787 394.617562 
L 61.269787 394.617562 
" style="fill: none; stroke: #ff33ff; stroke-width: 1.5; stroke-linecap: square"/>
    </g>
    <g id="text_21">
     <!-- Var5: x_init = 1.5, l_init = 1.2, theta_init = -7.18, mc = 0.68 -->
     <g transform="translate(69.269787 398.117562) scale(0.1 -0.1)">
      <defs>
       <path id="DejaVuSans-2d" d="M 313 2009 
L 1997 2009 
L 1997 1497 
L 313 1497 
L 313 2009 
z
" transform="scale(0.015625)"/>
      </defs>
      <use xlink:href="#DejaVuSans-56"/>
      <use xlink:href="#DejaVuSans-61" x="60.658203"/>
      <use xlink:href="#DejaVuSans-72" x="121.9375"/>
      <use xlink:href="#DejaVuSans-35" x="163.050781"/>
      <use xlink:href="#DejaVuSans-3a" x="226.673828"/>
      <use xlink:href="#DejaVuSans-20" x="260.365234"/>
      <use xlink:href="#DejaVuSans-78" x="292.152344"/>
      <use xlink:href="#DejaVuSans-5f" x="351.332031"/>
      <use xlink:href="#DejaVuSans-69" x="401.332031"/>
      <use xlink:href="#DejaVuSans-6e" x="429.115234"/>
      <use xlink:href="#DejaVuSans-69" x="492.494141"/>
      <use xlink:href="#DejaVuSans-74" x="520.277344"/>
      <use xlink:href="#DejaVuSans-20" x="559.486328"/>
      <use xlink:href="#DejaVuSans-3d" x="591.273438"/>
      <use xlink:href="#DejaVuSans-20" x="675.0625"/>
      <use xlink:href="#DejaVuSans-31" x="706.849609"/>
      <use xlink:href="#DejaVuSans-2e" x="770.472656"/>
      <use xlink:href="#DejaVuSans-35" x="802.259766"/>
      <use xlink:href="#DejaVuSans-2c" x="865.882812"/>
      <use xlink:href="#DejaVuSans-20" x="897.669922"/>
      <use xlink:href="#DejaVuSans-6c" x="929.457031"/>
      <use xlink:href="#DejaVuSans-5f" x="957.240234"/>
      <use xlink:href="#DejaVuSans-69" x="1007.240234"/>
      <use xlink:href="#DejaVuSans-6e" x="1035.023438"/>
      <use xlink:href="#DejaVuSans-69" x="1098.402344"/>
      <use xlink:href="#DejaVuSans-74" x="1126.185547"/>
      <use xlink:href="#DejaVuSans-20" x="1165.394531"/>
      <use xlink:href="#DejaVuSans-3d" x="1197.181641"/>
      <use xlink:href="#DejaVuSans-20" x="1280.970703"/>
      <use xlink:href="#DejaVuSans-31" x="1312.757812"/>
      <use xlink:href="#DejaVuSans-2e" x="1376.380859"/>
      <use xlink:href="#DejaVuSans-32" x="1408.167969"/>
      <use xlink:href="#DejaVuSans-2c" x="1471.791016"/>
      <use xlink:href="#DejaVuSans-20" x="1503.578125"/>
      <use xlink:href="#DejaVuSans-74" x="1535.365234"/>
      <use xlink:href="#DejaVuSans-68" x="1574.574219"/>
      <use xlink:href="#DejaVuSans-65" x="1637.953125"/>
      <use xlink:href="#DejaVuSans-74" x="1699.476562"/>
      <use xlink:href="#DejaVuSans-61" x="1738.685547"/>
      <use xlink:href="#DejaVuSans-5f" x="1799.964844"/>
      <use xlink:href="#DejaVuSans-69" x="1849.964844"/>
      <use xlink:href="#DejaVuSans-6e" x="1877.748047"/>
      <use xlink:href="#DejaVuSans-69" x="1941.126953"/>
      <use xlink:href="#DejaVuSans-74" x="1968.910156"/>
      <use xlink:href="#DejaVuSans-20" x="2008.119141"/>
      <use xlink:href="#DejaVuSans-3d" x="2039.90625"/>
      <use xlink:href="#DejaVuSans-20" x="2123.695312"/>
      <use xlink:href="#DejaVuSans-2d" x="2155.482422"/>
      <use xlink:href="#DejaVuSans-37" x="2191.566406"/>
      <use xlink:href="#DejaVuSans-2e" x="2255.189453"/>
      <use xlink:href="#DejaVuSans-31" x="2286.976562"/>
      <use xlink:href="#DejaVuSans-38" x="2350.599609"/>
      <use xlink:href="#DejaVuSans-2c" x="2414.222656"/>
      <use xlink:href="#DejaVuSans-20" x="2446.009766"/>
      <use xlink:href="#DejaVuSans-6d" x="2477.796875"/>
      <use xlink:href="#DejaVuSans-63" x="2575.208984"/>
      <use xlink:href="#DejaVuSans-20" x="2630.189453"/>
      <use xlink:href="#DejaVuSans-3d" x="2661.976562"/>
      <use xlink:href="#DejaVuSans-20" x="2745.765625"/>
      <use xlink:href="#DejaVuSans-30" x="2777.552734"/>
      <use xlink:href="#DejaVuSans-2e" x="2841.175781"/>
      <use xlink:href="#DejaVuSans-36" x="2872.962891"/>
      <use xlink:href="#DejaVuSans-38" x="2936.585938"/>
     </g>
    </g>
   </g>
  </g>
 </g>
 <defs>
  <clipPath id="p2ce0961d92">
   <rect x="43.78125" y="22.318125" width="357.12" height="266.112"/>
  </clipPath>
 </defs>
</svg>
