<?xml version="1.0" encoding="utf-8" standalone="no"?>
<!DOCTYPE svg PUBLIC "-//W3C//DTD SVG 1.1//EN"
  "http://www.w3.org/Graphics/SVG/1.1/DTD/svg11.dtd">
<svg xmlns:xlink="http://www.w3.org/1999/xlink" width="460.8pt" height="345.6pt" viewBox="0 0 460.8 345.6" xmlns="http://www.w3.org/2000/svg" version="1.1">
 <metadata>
  <rdf:RDF xmlns:dc="http://purl.org/dc/elements/1.1/" xmlns:cc="http://creativecommons.org/ns#" xmlns:rdf="http://www.w3.org/1999/02/22-rdf-syntax-ns#">
   <cc:Work>
    <dc:type rdf:resource="http://purl.org/dc/dcmitype/StillImage"/>
    <dc:date>2023-06-26T20:09:06.023078</dc:date>
    <dc:format>image/svg+xml</dc:format>
    <dc:creator>
     <cc:Agent>
      <dc:title>Matplotlib v3.7.1, https://matplotlib.org/</dc:title>
     </cc:Agent>
    </dc:creator>
   </cc:Work>
  </rdf:RDF>
 </metadata>
 <defs>
  <style type="text/css">*{stroke-linejoin: round; stroke-linecap: butt}</style>
 </defs>
 <g id="figure_1">
  <g id="patch_1">
   <path d="M 0 345.6 
L 460.8 345.6 
L 460.8 0 
L 0 0 
L 0 345.6 
z
" style="fill: none"/>
  </g>
  <g id="axes_1">
   <g id="patch_2">
    <path d="M 57.6 307.584 
L 414.72 307.584 
L 414.72 41.472 
L 57.6 41.472 
L 57.6 307.584 
z
" style="fill: none"/>
   </g>
   <g id="matplotlib.axis_1">
    <g id="xtick_1">
     <g id="line2d_1">
      <path d="M 73.832727 307.584 
L 73.832727 41.472 
" clip-path="url(#p2ac23d468f)" style="fill: none; stroke: #b0b0b0; stroke-width: 0.8; stroke-linecap: square"/>
     </g>
     <g id="line2d_2">
      <defs>
       <path id="m595a15e166" d="M 0 0 
L 0 3.5 
" style="stroke: #000000; stroke-width: 0.8"/>
      </defs>
      <g>
       <use xlink:href="#m595a15e166" x="73.832727" y="307.584" style="stroke: #000000; stroke-width: 0.8"/>
      </g>
     </g>
     <g id="text_1">
      <!-- 0 -->
      <g transform="translate(70.651477 322.182437) scale(0.1 -0.1)">
       <defs>
        <path id="DejaVuSans-30" d="M 2034 4250 
Q 1547 4250 1301 3770 
Q 1056 3291 1056 2328 
Q 1056 1369 1301 889 
Q 1547 409 2034 409 
Q 2525 409 2770 889 
Q 3016 1369 3016 2328 
Q 3016 3291 2770 3770 
Q 2525 4250 2034 4250 
z
M 2034 4750 
Q 2819 4750 3233 4129 
Q 3647 3509 3647 2328 
Q 3647 1150 3233 529 
Q 2819 -91 2034 -91 
Q 1250 -91 836 529 
Q 422 1150 422 2328 
Q 422 3509 836 4129 
Q 1250 4750 2034 4750 
z
" transform="scale(0.015625)"/>
       </defs>
       <use xlink:href="#DejaVuSans-30"/>
      </g>
     </g>
    </g>
    <g id="xtick_2">
     <g id="line2d_3">
      <path d="M 127.941818 307.584 
L 127.941818 41.472 
" clip-path="url(#p2ac23d468f)" style="fill: none; stroke: #b0b0b0; stroke-width: 0.8; stroke-linecap: square"/>
     </g>
     <g id="line2d_4">
      <g>
       <use xlink:href="#m595a15e166" x="127.941818" y="307.584" style="stroke: #000000; stroke-width: 0.8"/>
      </g>
     </g>
     <g id="text_2">
      <!-- 2 -->
      <g transform="translate(124.760568 322.182437) scale(0.1 -0.1)">
       <defs>
        <path id="DejaVuSans-32" d="M 1228 531 
L 3431 531 
L 3431 0 
L 469 0 
L 469 531 
Q 828 903 1448 1529 
Q 2069 2156 2228 2338 
Q 2531 2678 2651 2914 
Q 2772 3150 2772 3378 
Q 2772 3750 2511 3984 
Q 2250 4219 1831 4219 
Q 1534 4219 1204 4116 
Q 875 4013 500 3803 
L 500 4441 
Q 881 4594 1212 4672 
Q 1544 4750 1819 4750 
Q 2544 4750 2975 4387 
Q 3406 4025 3406 3419 
Q 3406 3131 3298 2873 
Q 3191 2616 2906 2266 
Q 2828 2175 2409 1742 
Q 1991 1309 1228 531 
z
" transform="scale(0.015625)"/>
       </defs>
       <use xlink:href="#DejaVuSans-32"/>
      </g>
     </g>
    </g>
    <g id="xtick_3">
     <g id="line2d_5">
      <path d="M 182.050909 307.584 
L 182.050909 41.472 
" clip-path="url(#p2ac23d468f)" style="fill: none; stroke: #b0b0b0; stroke-width: 0.8; stroke-linecap: square"/>
     </g>
     <g id="line2d_6">
      <g>
       <use xlink:href="#m595a15e166" x="182.050909" y="307.584" style="stroke: #000000; stroke-width: 0.8"/>
      </g>
     </g>
     <g id="text_3">
      <!-- 4 -->
      <g transform="translate(178.869659 322.182437) scale(0.1 -0.1)">
       <defs>
        <path id="DejaVuSans-34" d="M 2419 4116 
L 825 1625 
L 2419 1625 
L 2419 4116 
z
M 2253 4666 
L 3047 4666 
L 3047 1625 
L 3713 1625 
L 3713 1100 
L 3047 1100 
L 3047 0 
L 2419 0 
L 2419 1100 
L 313 1100 
L 313 1709 
L 2253 4666 
z
" transform="scale(0.015625)"/>
       </defs>
       <use xlink:href="#DejaVuSans-34"/>
      </g>
     </g>
    </g>
    <g id="xtick_4">
     <g id="line2d_7">
      <path d="M 236.16 307.584 
L 236.16 41.472 
" clip-path="url(#p2ac23d468f)" style="fill: none; stroke: #b0b0b0; stroke-width: 0.8; stroke-linecap: square"/>
     </g>
     <g id="line2d_8">
      <g>
       <use xlink:href="#m595a15e166" x="236.16" y="307.584" style="stroke: #000000; stroke-width: 0.8"/>
      </g>
     </g>
     <g id="text_4">
      <!-- 6 -->
      <g transform="translate(232.97875 322.182437) scale(0.1 -0.1)">
       <defs>
        <path id="DejaVuSans-36" d="M 2113 2584 
Q 1688 2584 1439 2293 
Q 1191 2003 1191 1497 
Q 1191 994 1439 701 
Q 1688 409 2113 409 
Q 2538 409 2786 701 
Q 3034 994 3034 1497 
Q 3034 2003 2786 2293 
Q 2538 2584 2113 2584 
z
M 3366 4563 
L 3366 3988 
Q 3128 4100 2886 4159 
Q 2644 4219 2406 4219 
Q 1781 4219 1451 3797 
Q 1122 3375 1075 2522 
Q 1259 2794 1537 2939 
Q 1816 3084 2150 3084 
Q 2853 3084 3261 2657 
Q 3669 2231 3669 1497 
Q 3669 778 3244 343 
Q 2819 -91 2113 -91 
Q 1303 -91 875 529 
Q 447 1150 447 2328 
Q 447 3434 972 4092 
Q 1497 4750 2381 4750 
Q 2619 4750 2861 4703 
Q 3103 4656 3366 4563 
z
" transform="scale(0.015625)"/>
       </defs>
       <use xlink:href="#DejaVuSans-36"/>
      </g>
     </g>
    </g>
    <g id="xtick_5">
     <g id="line2d_9">
      <path d="M 290.269091 307.584 
L 290.269091 41.472 
" clip-path="url(#p2ac23d468f)" style="fill: none; stroke: #b0b0b0; stroke-width: 0.8; stroke-linecap: square"/>
     </g>
     <g id="line2d_10">
      <g>
       <use xlink:href="#m595a15e166" x="290.269091" y="307.584" style="stroke: #000000; stroke-width: 0.8"/>
      </g>
     </g>
     <g id="text_5">
      <!-- 8 -->
      <g transform="translate(287.087841 322.182437) scale(0.1 -0.1)">
       <defs>
        <path id="DejaVuSans-38" d="M 2034 2216 
Q 1584 2216 1326 1975 
Q 1069 1734 1069 1313 
Q 1069 891 1326 650 
Q 1584 409 2034 409 
Q 2484 409 2743 651 
Q 3003 894 3003 1313 
Q 3003 1734 2745 1975 
Q 2488 2216 2034 2216 
z
M 1403 2484 
Q 997 2584 770 2862 
Q 544 3141 544 3541 
Q 544 4100 942 4425 
Q 1341 4750 2034 4750 
Q 2731 4750 3128 4425 
Q 3525 4100 3525 3541 
Q 3525 3141 3298 2862 
Q 3072 2584 2669 2484 
Q 3125 2378 3379 2068 
Q 3634 1759 3634 1313 
Q 3634 634 3220 271 
Q 2806 -91 2034 -91 
Q 1263 -91 848 271 
Q 434 634 434 1313 
Q 434 1759 690 2068 
Q 947 2378 1403 2484 
z
M 1172 3481 
Q 1172 3119 1398 2916 
Q 1625 2713 2034 2713 
Q 2441 2713 2670 2916 
Q 2900 3119 2900 3481 
Q 2900 3844 2670 4047 
Q 2441 4250 2034 4250 
Q 1625 4250 1398 4047 
Q 1172 3844 1172 3481 
z
" transform="scale(0.015625)"/>
       </defs>
       <use xlink:href="#DejaVuSans-38"/>
      </g>
     </g>
    </g>
    <g id="xtick_6">
     <g id="line2d_11">
      <path d="M 344.378182 307.584 
L 344.378182 41.472 
" clip-path="url(#p2ac23d468f)" style="fill: none; stroke: #b0b0b0; stroke-width: 0.8; stroke-linecap: square"/>
     </g>
     <g id="line2d_12">
      <g>
       <use xlink:href="#m595a15e166" x="344.378182" y="307.584" style="stroke: #000000; stroke-width: 0.8"/>
      </g>
     </g>
     <g id="text_6">
      <!-- 10 -->
      <g transform="translate(338.015682 322.182437) scale(0.1 -0.1)">
       <defs>
        <path id="DejaVuSans-31" d="M 794 531 
L 1825 531 
L 1825 4091 
L 703 3866 
L 703 4441 
L 1819 4666 
L 2450 4666 
L 2450 531 
L 3481 531 
L 3481 0 
L 794 0 
L 794 531 
z
" transform="scale(0.015625)"/>
       </defs>
       <use xlink:href="#DejaVuSans-31"/>
       <use xlink:href="#DejaVuSans-30" x="63.623047"/>
      </g>
     </g>
    </g>
    <g id="xtick_7">
     <g id="line2d_13">
      <path d="M 398.487273 307.584 
L 398.487273 41.472 
" clip-path="url(#p2ac23d468f)" style="fill: none; stroke: #b0b0b0; stroke-width: 0.8; stroke-linecap: square"/>
     </g>
     <g id="line2d_14">
      <g>
       <use xlink:href="#m595a15e166" x="398.487273" y="307.584" style="stroke: #000000; stroke-width: 0.8"/>
      </g>
     </g>
     <g id="text_7">
      <!-- 12 -->
      <g transform="translate(392.124773 322.182437) scale(0.1 -0.1)">
       <use xlink:href="#DejaVuSans-31"/>
       <use xlink:href="#DejaVuSans-32" x="63.623047"/>
      </g>
     </g>
    </g>
    <g id="text_8">
     <!-- time (s) -->
     <g transform="translate(216.768594 335.860562) scale(0.1 -0.1)">
      <defs>
       <path id="DejaVuSans-74" d="M 1172 4494 
L 1172 3500 
L 2356 3500 
L 2356 3053 
L 1172 3053 
L 1172 1153 
Q 1172 725 1289 603 
Q 1406 481 1766 481 
L 2356 481 
L 2356 0 
L 1766 0 
Q 1100 0 847 248 
Q 594 497 594 1153 
L 594 3053 
L 172 3053 
L 172 3500 
L 594 3500 
L 594 4494 
L 1172 4494 
z
" transform="scale(0.015625)"/>
       <path id="DejaVuSans-69" d="M 603 3500 
L 1178 3500 
L 1178 0 
L 603 0 
L 603 3500 
z
M 603 4863 
L 1178 4863 
L 1178 4134 
L 603 4134 
L 603 4863 
z
" transform="scale(0.015625)"/>
       <path id="DejaVuSans-6d" d="M 3328 2828 
Q 3544 3216 3844 3400 
Q 4144 3584 4550 3584 
Q 5097 3584 5394 3201 
Q 5691 2819 5691 2113 
L 5691 0 
L 5113 0 
L 5113 2094 
Q 5113 2597 4934 2840 
Q 4756 3084 4391 3084 
Q 3944 3084 3684 2787 
Q 3425 2491 3425 1978 
L 3425 0 
L 2847 0 
L 2847 2094 
Q 2847 2600 2669 2842 
Q 2491 3084 2119 3084 
Q 1678 3084 1418 2786 
Q 1159 2488 1159 1978 
L 1159 0 
L 581 0 
L 581 3500 
L 1159 3500 
L 1159 2956 
Q 1356 3278 1631 3431 
Q 1906 3584 2284 3584 
Q 2666 3584 2933 3390 
Q 3200 3197 3328 2828 
z
" transform="scale(0.015625)"/>
       <path id="DejaVuSans-65" d="M 3597 1894 
L 3597 1613 
L 953 1613 
Q 991 1019 1311 708 
Q 1631 397 2203 397 
Q 2534 397 2845 478 
Q 3156 559 3463 722 
L 3463 178 
Q 3153 47 2828 -22 
Q 2503 -91 2169 -91 
Q 1331 -91 842 396 
Q 353 884 353 1716 
Q 353 2575 817 3079 
Q 1281 3584 2069 3584 
Q 2775 3584 3186 3129 
Q 3597 2675 3597 1894 
z
M 3022 2063 
Q 3016 2534 2758 2815 
Q 2500 3097 2075 3097 
Q 1594 3097 1305 2825 
Q 1016 2553 972 2059 
L 3022 2063 
z
" transform="scale(0.015625)"/>
       <path id="DejaVuSans-20" transform="scale(0.015625)"/>
       <path id="DejaVuSans-28" d="M 1984 4856 
Q 1566 4138 1362 3434 
Q 1159 2731 1159 2009 
Q 1159 1288 1364 580 
Q 1569 -128 1984 -844 
L 1484 -844 
Q 1016 -109 783 600 
Q 550 1309 550 2009 
Q 550 2706 781 3412 
Q 1013 4119 1484 4856 
L 1984 4856 
z
" transform="scale(0.015625)"/>
       <path id="DejaVuSans-73" d="M 2834 3397 
L 2834 2853 
Q 2591 2978 2328 3040 
Q 2066 3103 1784 3103 
Q 1356 3103 1142 2972 
Q 928 2841 928 2578 
Q 928 2378 1081 2264 
Q 1234 2150 1697 2047 
L 1894 2003 
Q 2506 1872 2764 1633 
Q 3022 1394 3022 966 
Q 3022 478 2636 193 
Q 2250 -91 1575 -91 
Q 1294 -91 989 -36 
Q 684 19 347 128 
L 347 722 
Q 666 556 975 473 
Q 1284 391 1588 391 
Q 1994 391 2212 530 
Q 2431 669 2431 922 
Q 2431 1156 2273 1281 
Q 2116 1406 1581 1522 
L 1381 1569 
Q 847 1681 609 1914 
Q 372 2147 372 2553 
Q 372 3047 722 3315 
Q 1072 3584 1716 3584 
Q 2034 3584 2315 3537 
Q 2597 3491 2834 3397 
z
" transform="scale(0.015625)"/>
       <path id="DejaVuSans-29" d="M 513 4856 
L 1013 4856 
Q 1481 4119 1714 3412 
Q 1947 2706 1947 2009 
Q 1947 1309 1714 600 
Q 1481 -109 1013 -844 
L 513 -844 
Q 928 -128 1133 580 
Q 1338 1288 1338 2009 
Q 1338 2731 1133 3434 
Q 928 4138 513 4856 
z
" transform="scale(0.015625)"/>
      </defs>
      <use xlink:href="#DejaVuSans-74"/>
      <use xlink:href="#DejaVuSans-69" x="39.208984"/>
      <use xlink:href="#DejaVuSans-6d" x="66.992188"/>
      <use xlink:href="#DejaVuSans-65" x="164.404297"/>
      <use xlink:href="#DejaVuSans-20" x="225.927734"/>
      <use xlink:href="#DejaVuSans-28" x="257.714844"/>
      <use xlink:href="#DejaVuSans-73" x="296.728516"/>
      <use xlink:href="#DejaVuSans-29" x="348.828125"/>
     </g>
    </g>
   </g>
   <g id="matplotlib.axis_2">
    <g id="ytick_1">
     <g id="line2d_15">
      <path d="M 57.6 291.586065 
L 414.72 291.586065 
" clip-path="url(#p2ac23d468f)" style="fill: none; stroke: #b0b0b0; stroke-width: 0.8; stroke-linecap: square"/>
     </g>
     <g id="line2d_16">
      <defs>
       <path id="m47e516a719" d="M 0 0 
L -3.5 0 
" style="stroke: #000000; stroke-width: 0.8"/>
      </defs>
      <g>
       <use xlink:href="#m47e516a719" x="57.6" y="291.586065" style="stroke: #000000; stroke-width: 0.8"/>
      </g>
     </g>
     <g id="text_9">
      <!-- 0.4 -->
      <g transform="translate(34.696875 295.385283) scale(0.1 -0.1)">
       <defs>
        <path id="DejaVuSans-2e" d="M 684 794 
L 1344 794 
L 1344 0 
L 684 0 
L 684 794 
z
" transform="scale(0.015625)"/>
       </defs>
       <use xlink:href="#DejaVuSans-30"/>
       <use xlink:href="#DejaVuSans-2e" x="63.623047"/>
       <use xlink:href="#DejaVuSans-34" x="95.410156"/>
      </g>
     </g>
    </g>
    <g id="ytick_2">
     <g id="line2d_17">
      <path d="M 57.6 252.56671 
L 414.72 252.56671 
" clip-path="url(#p2ac23d468f)" style="fill: none; stroke: #b0b0b0; stroke-width: 0.8; stroke-linecap: square"/>
     </g>
     <g id="line2d_18">
      <g>
       <use xlink:href="#m47e516a719" x="57.6" y="252.56671" style="stroke: #000000; stroke-width: 0.8"/>
      </g>
     </g>
     <g id="text_10">
      <!-- 0.6 -->
      <g transform="translate(34.696875 256.365928) scale(0.1 -0.1)">
       <use xlink:href="#DejaVuSans-30"/>
       <use xlink:href="#DejaVuSans-2e" x="63.623047"/>
       <use xlink:href="#DejaVuSans-36" x="95.410156"/>
      </g>
     </g>
    </g>
    <g id="ytick_3">
     <g id="line2d_19">
      <path d="M 57.6 213.547355 
L 414.72 213.547355 
" clip-path="url(#p2ac23d468f)" style="fill: none; stroke: #b0b0b0; stroke-width: 0.8; stroke-linecap: square"/>
     </g>
     <g id="line2d_20">
      <g>
       <use xlink:href="#m47e516a719" x="57.6" y="213.547355" style="stroke: #000000; stroke-width: 0.8"/>
      </g>
     </g>
     <g id="text_11">
      <!-- 0.8 -->
      <g transform="translate(34.696875 217.346574) scale(0.1 -0.1)">
       <use xlink:href="#DejaVuSans-30"/>
       <use xlink:href="#DejaVuSans-2e" x="63.623047"/>
       <use xlink:href="#DejaVuSans-38" x="95.410156"/>
      </g>
     </g>
    </g>
    <g id="ytick_4">
     <g id="line2d_21">
      <path d="M 57.6 174.528 
L 414.72 174.528 
" clip-path="url(#p2ac23d468f)" style="fill: none; stroke: #b0b0b0; stroke-width: 0.8; stroke-linecap: square"/>
     </g>
     <g id="line2d_22">
      <g>
       <use xlink:href="#m47e516a719" x="57.6" y="174.528" style="stroke: #000000; stroke-width: 0.8"/>
      </g>
     </g>
     <g id="text_12">
      <!-- 1.0 -->
      <g transform="translate(34.696875 178.327219) scale(0.1 -0.1)">
       <use xlink:href="#DejaVuSans-31"/>
       <use xlink:href="#DejaVuSans-2e" x="63.623047"/>
       <use xlink:href="#DejaVuSans-30" x="95.410156"/>
      </g>
     </g>
    </g>
    <g id="ytick_5">
     <g id="line2d_23">
      <path d="M 57.6 135.508645 
L 414.72 135.508645 
" clip-path="url(#p2ac23d468f)" style="fill: none; stroke: #b0b0b0; stroke-width: 0.8; stroke-linecap: square"/>
     </g>
     <g id="line2d_24">
      <g>
       <use xlink:href="#m47e516a719" x="57.6" y="135.508645" style="stroke: #000000; stroke-width: 0.8"/>
      </g>
     </g>
     <g id="text_13">
      <!-- 1.2 -->
      <g transform="translate(34.696875 139.307864) scale(0.1 -0.1)">
       <use xlink:href="#DejaVuSans-31"/>
       <use xlink:href="#DejaVuSans-2e" x="63.623047"/>
       <use xlink:href="#DejaVuSans-32" x="95.410156"/>
      </g>
     </g>
    </g>
    <g id="ytick_6">
     <g id="line2d_25">
      <path d="M 57.6 96.48929 
L 414.72 96.48929 
" clip-path="url(#p2ac23d468f)" style="fill: none; stroke: #b0b0b0; stroke-width: 0.8; stroke-linecap: square"/>
     </g>
     <g id="line2d_26">
      <g>
       <use xlink:href="#m47e516a719" x="57.6" y="96.48929" style="stroke: #000000; stroke-width: 0.8"/>
      </g>
     </g>
     <g id="text_14">
      <!-- 1.4 -->
      <g transform="translate(34.696875 100.288509) scale(0.1 -0.1)">
       <use xlink:href="#DejaVuSans-31"/>
       <use xlink:href="#DejaVuSans-2e" x="63.623047"/>
       <use xlink:href="#DejaVuSans-34" x="95.410156"/>
      </g>
     </g>
    </g>
    <g id="ytick_7">
     <g id="line2d_27">
      <path d="M 57.6 57.469935 
L 414.72 57.469935 
" clip-path="url(#p2ac23d468f)" style="fill: none; stroke: #b0b0b0; stroke-width: 0.8; stroke-linecap: square"/>
     </g>
     <g id="line2d_28">
      <g>
       <use xlink:href="#m47e516a719" x="57.6" y="57.469935" style="stroke: #000000; stroke-width: 0.8"/>
      </g>
     </g>
     <g id="text_15">
      <!-- 1.6 -->
      <g transform="translate(34.696875 61.269154) scale(0.1 -0.1)">
       <use xlink:href="#DejaVuSans-31"/>
       <use xlink:href="#DejaVuSans-2e" x="63.623047"/>
       <use xlink:href="#DejaVuSans-36" x="95.410156"/>
      </g>
     </g>
    </g>
    <g id="text_16">
     <!-- l (m) -->
     <g transform="translate(28.617188 186.278) rotate(-90) scale(0.1 -0.1)">
      <defs>
       <path id="DejaVuSans-6c" d="M 603 4863 
L 1178 4863 
L 1178 0 
L 603 0 
L 603 4863 
z
" transform="scale(0.015625)"/>
      </defs>
      <use xlink:href="#DejaVuSans-6c"/>
      <use xlink:href="#DejaVuSans-20" x="27.783203"/>
      <use xlink:href="#DejaVuSans-28" x="59.570312"/>
      <use xlink:href="#DejaVuSans-6d" x="98.583984"/>
      <use xlink:href="#DejaVuSans-29" x="195.996094"/>
     </g>
    </g>
   </g>
   <g id="line2d_29">
    <path d="M 73.832727 53.568 
L 74.509091 53.652759 
L 75.185455 53.94702 
L 75.997091 54.570478 
L 76.808727 55.480747 
L 77.755636 56.892381 
L 78.837818 58.945896 
L 80.055273 61.783702 
L 81.543273 65.8924 
L 84.384 73.66317 
L 87.36 81.186975 
L 90.065455 87.523553 
L 92.906182 93.714212 
L 95.611636 99.164162 
L 99.128727 105.677588 
L 102.510545 111.394925 
L 106.162909 117.022498 
L 110.085818 122.491579 
L 113.738182 127.117891 
L 118.472727 132.52763 
L 122.260364 136.483738 
L 126.183273 140.18991 
L 129.294545 142.8759 
L 133.893818 146.467614 
L 139.034182 150.006191 
L 144.715636 153.405702 
L 150.938182 156.596956 
L 157.296 159.365321 
L 161.083636 160.81146 
L 165.141818 162.211119 
L 169.335273 163.512047 
L 176.504727 165.430149 
L 181.239273 166.517 
L 190.302545 168.255822 
L 195.037091 169.016682 
L 208.023273 170.677903 
L 225.067636 172.159817 
L 247.658182 173.34013 
L 254.692364 173.587463 
L 261.861818 173.79887 
L 273.901091 174.072153 
L 281.611636 174.20977 
L 292.298182 174.356597 
L 300.549818 174.447756 
L 310.424727 174.530668 
L 318.676364 174.588112 
L 328.010182 174.636505 
L 336.532364 174.67437 
L 345.595636 174.703186 
L 354.388364 174.728242 
L 363.451636 174.74554 
L 372.244364 174.761735 
L 381.307636 174.771772 
L 390.100364 174.782386 
L 398.487273 174.789081 
L 398.487273 174.789081 
" clip-path="url(#p2ac23d468f)" style="fill: none; stroke: #33ff33; stroke-width: 1.5; stroke-linecap: square"/>
   </g>
   <g id="line2d_30">
    <path d="M 73.832727 242.811871 
L 74.644364 242.731985 
L 75.591273 242.399966 
L 76.538182 241.817218 
L 77.620364 240.853075 
L 78.702545 239.5806 
L 79.92 237.792067 
L 82.760727 233.345146 
L 86.277818 228.242489 
L 88.983273 224.622662 
L 91.824 221.014892 
L 96.288 215.863848 
L 98.858182 213.150908 
L 103.863273 208.371283 
L 106.433455 206.141449 
L 111.844364 201.913524 
L 117.390545 198.156471 
L 120.231273 196.426751 
L 126.318545 193.131451 
L 129.429818 191.63322 
L 136.464 188.665781 
L 144.580364 185.850789 
L 154.32 183.16834 
L 166.494545 180.640356 
L 182.456727 178.331453 
L 205.182545 176.325156 
L 210.728727 175.99347 
L 214.922182 175.766995 
L 220.197818 175.521813 
L 224.391273 175.343858 
L 229.396364 175.161997 
L 233.589818 175.021058 
L 238.594909 174.878379 
L 243.058909 174.759996 
L 248.064 174.649001 
L 252.528 174.555612 
L 257.262545 174.473961 
L 261.726545 174.399623 
L 266.461091 174.335927 
L 270.925091 174.276599 
L 275.659636 174.227044 
L 280.123636 174.179547 
L 284.858182 174.141128 
L 289.322182 174.102957 
L 294.056727 174.07331 
L 298.520727 174.042487 
L 303.255273 174.019753 
L 307.719273 173.994718 
L 312.453818 173.977433 
L 316.917818 173.956955 
L 321.652364 173.943965 
L 326.116364 173.927077 
L 330.850909 173.91747 
L 335.314909 173.903411 
L 340.049455 173.896468 
L 344.513455 173.88464 
L 349.248 173.879795 
L 353.712 173.869725 
L 358.446545 173.866533 
L 363.181091 173.857537 
L 367.915636 173.855682 
L 372.650182 173.847869 
L 377.384727 173.84706 
L 382.119273 173.840171 
L 386.853818 173.840181 
L 391.588364 173.834016 
L 396.322909 173.834667 
L 398.487273 173.833565 
L 398.487273 173.833565 
" clip-path="url(#p2ac23d468f)" style="fill: none; stroke: #66cc66; stroke-width: 1.5; stroke-linecap: square"/>
   </g>
   <g id="line2d_31">
    <path d="M 73.832727 295.488 
L 74.779636 295.403315 
L 75.861818 295.068111 
L 76.944 294.483985 
L 78.026182 293.656906 
L 79.243636 292.444369 
L 80.596364 290.757551 
L 82.084364 288.503347 
L 83.572364 285.847112 
L 85.195636 282.509362 
L 86.954182 278.395594 
L 93.988364 261.149858 
L 97.370182 253.873607 
L 100.210909 248.231936 
L 103.728 241.801007 
L 107.245091 235.930363 
L 110.897455 230.376737 
L 113.738182 226.402858 
L 117.525818 221.542153 
L 121.448727 216.988481 
L 124.424727 213.828547 
L 127.400727 210.903173 
L 130.376727 208.194947 
L 133.488 205.576267 
L 138.087273 202.07488 
L 142.957091 198.795392 
L 148.097455 195.754598 
L 153.643636 192.899713 
L 157.025455 191.346767 
L 163.383273 188.776752 
L 167.035636 187.477844 
L 174.610909 185.149371 
L 183.133091 183.024114 
L 187.326545 182.135645 
L 198.148364 180.247242 
L 211.675636 178.522108 
L 229.802182 176.981652 
L 257.668364 175.659654 
L 267.272727 175.386385 
L 273.630545 175.236271 
L 282.152727 175.074422 
L 288.781091 174.967623 
L 296.762182 174.865161 
L 303.661091 174.788564 
L 311.371636 174.721565 
L 318.270545 174.668326 
L 325.981091 174.622936 
L 333.150545 174.584433 
L 340.590545 174.555098 
L 347.76 174.527939 
L 355.2 174.508347 
L 362.369455 174.488955 
L 369.809455 174.476034 
L 376.978909 174.461962 
L 384.418909 174.453609 
L 391.588364 174.443179 
L 398.487273 174.438441 
L 398.487273 174.438441 
" clip-path="url(#p2ac23d468f)" style="fill: none; stroke: #999999; stroke-width: 1.5; stroke-linecap: square"/>
   </g>
   <g id="line2d_32">
    <path d="M 73.832727 84.783484 
L 74.509091 84.862306 
L 75.185455 85.136012 
L 75.997091 85.716288 
L 76.808727 86.564486 
L 77.755636 87.882331 
L 78.837818 89.805168 
L 80.866909 94.106539 
L 83.572364 99.515304 
L 87.224727 106.210748 
L 90.741818 112.209706 
L 94.529455 118.109436 
L 98.452364 123.635454 
L 101.157818 127.134049 
L 103.728 130.241654 
L 108.192 135.16127 
L 110.762182 137.751432 
L 115.496727 142.084422 
L 118.337455 144.445117 
L 123.477818 148.293785 
L 127.671273 151.005579 
L 133.758545 154.31104 
L 136.734545 155.748158 
L 139.710545 157.078592 
L 142.821818 158.36716 
L 154.996364 162.788722 
L 158.378182 163.84116 
L 167.847273 166.334373 
L 179.616 168.687524 
L 183.538909 169.328995 
L 199.501091 171.350365 
L 222.497455 173.121097 
L 229.125818 173.461059 
L 233.860364 173.67512 
L 239.947636 173.908294 
L 244.682182 174.070593 
L 250.498909 174.238634 
L 255.504 174.369173 
L 261.320727 174.495339 
L 266.325818 174.594568 
L 271.872 174.684873 
L 276.877091 174.760974 
L 282.423273 174.828894 
L 287.428364 174.887396 
L 292.974545 174.938295 
L 298.114909 174.981621 
L 303.390545 175.023271 
L 308.666182 175.054237 
L 313.941818 175.086514 
L 319.217455 175.109312 
L 324.493091 175.134464 
L 329.768727 175.151044 
L 335.044364 175.170778 
L 340.32 175.182627 
L 345.595636 175.198239 
L 350.871273 175.20649 
L 356.146909 175.218963 
L 361.422545 175.224479 
L 366.698182 175.234565 
L 371.973818 175.238 
L 377.249455 175.246269 
L 382.525091 175.248121 
L 387.800727 175.25501 
L 393.076364 175.255657 
L 398.352 175.261495 
L 398.487273 175.258725 
L 398.487273 175.258725 
" clip-path="url(#p2ac23d468f)" style="fill: none; stroke: #cc66cc; stroke-width: 1.5; stroke-linecap: square"/>
   </g>
   <g id="line2d_33">
    <path d="M 73.832727 166.724129 
L 74.779636 166.828188 
L 82.490182 168.231729 
L 96.017455 169.984257 
L 111.709091 171.378847 
L 134.705455 172.62613 
L 146.474182 173.0262 
L 153.237818 173.20738 
L 160.407273 173.369451 
L 170.552727 173.548957 
L 177.992727 173.65646 
L 186.785455 173.755683 
L 194.225455 173.826785 
L 202.477091 173.887425 
L 210.187636 173.93672 
L 218.439273 173.976022 
L 226.149818 174.009069 
L 234.401455 174.034242 
L 242.382545 174.057216 
L 250.363636 174.072386 
L 258.344727 174.088043 
L 266.325818 174.097262 
L 274.306909 174.10807 
L 282.288 174.113359 
L 290.269091 174.120966 
L 298.250182 174.123651 
L 306.231273 174.129146 
L 314.212364 174.130107 
L 322.193455 174.134202 
L 330.174545 174.134027 
L 338.155636 174.137195 
L 346.136727 174.136269 
L 354.117818 174.138826 
L 362.098909 174.137402 
L 370.08 174.139555 
L 378.061091 174.137801 
L 386.042182 174.139687 
L 394.023273 174.137716 
L 398.487273 174.139509 
L 398.487273 174.139509 
" clip-path="url(#p2ac23d468f)" style="fill: none; stroke: #ff33ff; stroke-width: 1.5; stroke-linecap: square"/>
   </g>
   <g id="patch_3">
    <path d="M 57.6 307.584 
L 57.6 41.472 
" style="fill: none; stroke: #000000; stroke-width: 0.8; stroke-linejoin: miter; stroke-linecap: square"/>
   </g>
   <g id="patch_4">
    <path d="M 414.72 307.584 
L 414.72 41.472 
" style="fill: none; stroke: #000000; stroke-width: 0.8; stroke-linejoin: miter; stroke-linecap: square"/>
   </g>
   <g id="patch_5">
    <path d="M 57.6 307.584 
L 414.72 307.584 
" style="fill: none; stroke: #000000; stroke-width: 0.8; stroke-linejoin: miter; stroke-linecap: square"/>
   </g>
   <g id="patch_6">
    <path d="M 57.6 41.472 
L 414.72 41.472 
" style="fill: none; stroke: #000000; stroke-width: 0.8; stroke-linejoin: miter; stroke-linecap: square"/>
   </g>
   <g id="text_17">
    <!-- l vs time -->
    <g transform="translate(210.447187 35.472) scale(0.12 -0.12)">
     <defs>
      <path id="DejaVuSans-76" d="M 191 3500 
L 800 3500 
L 1894 563 
L 2988 3500 
L 3597 3500 
L 2284 0 
L 1503 0 
L 191 3500 
z
" transform="scale(0.015625)"/>
     </defs>
     <use xlink:href="#DejaVuSans-6c"/>
     <use xlink:href="#DejaVuSans-20" x="27.783203"/>
     <use xlink:href="#DejaVuSans-76" x="59.570312"/>
     <use xlink:href="#DejaVuSans-73" x="118.75"/>
     <use xlink:href="#DejaVuSans-20" x="170.849609"/>
     <use xlink:href="#DejaVuSans-74" x="202.636719"/>
     <use xlink:href="#DejaVuSans-69" x="241.845703"/>
     <use xlink:href="#DejaVuSans-6d" x="269.628906"/>
     <use xlink:href="#DejaVuSans-65" x="367.041016"/>
    </g>
   </g>
   <g id="legend_1">
    <g id="patch_7">
     <path d="M 49.480725 423.62925 
L 400.5776 423.62925 
Q 402.5776 423.62925 402.5776 421.62925 
L 402.5776 347.848 
Q 402.5776 345.848 400.5776 345.848 
L 49.480725 345.848 
Q 47.480725 345.848 47.480725 347.848 
L 47.480725 421.62925 
Q 47.480725 423.62925 49.480725 423.62925 
z
" style="fill: #ffffff; opacity: 0.8; stroke: #cccccc; stroke-linejoin: miter"/>
    </g>
    <g id="line2d_34">
     <path style="fill: none; stroke: #33ff33; stroke-width: 1.5; stroke-linecap: square"/>
    </g>
    <g id="text_18">
     <!-- Var1: x_init = 0.59, l_init = 1.62, theta_init = -39.79, mc = 1.44 -->
     <g transform="translate(79.480725 357.446438) scale(0.1 -0.1)">
      <defs>
       <path id="DejaVuSans-56" d="M 1831 0 
L 50 4666 
L 709 4666 
L 2188 738 
L 3669 4666 
L 4325 4666 
L 2547 0 
L 1831 0 
z
" transform="scale(0.015625)"/>
       <path id="DejaVuSans-61" d="M 2194 1759 
Q 1497 1759 1228 1600 
Q 959 1441 959 1056 
Q 959 750 1161 570 
Q 1363 391 1709 391 
Q 2188 391 2477 730 
Q 2766 1069 2766 1631 
L 2766 1759 
L 2194 1759 
z
M 3341 1997 
L 3341 0 
L 2766 0 
L 2766 531 
Q 2569 213 2275 61 
Q 1981 -91 1556 -91 
Q 1019 -91 701 211 
Q 384 513 384 1019 
Q 384 1609 779 1909 
Q 1175 2209 1959 2209 
L 2766 2209 
L 2766 2266 
Q 2766 2663 2505 2880 
Q 2244 3097 1772 3097 
Q 1472 3097 1187 3025 
Q 903 2953 641 2809 
L 641 3341 
Q 956 3463 1253 3523 
Q 1550 3584 1831 3584 
Q 2591 3584 2966 3190 
Q 3341 2797 3341 1997 
z
" transform="scale(0.015625)"/>
       <path id="DejaVuSans-72" d="M 2631 2963 
Q 2534 3019 2420 3045 
Q 2306 3072 2169 3072 
Q 1681 3072 1420 2755 
Q 1159 2438 1159 1844 
L 1159 0 
L 581 0 
L 581 3500 
L 1159 3500 
L 1159 2956 
Q 1341 3275 1631 3429 
Q 1922 3584 2338 3584 
Q 2397 3584 2469 3576 
Q 2541 3569 2628 3553 
L 2631 2963 
z
" transform="scale(0.015625)"/>
       <path id="DejaVuSans-3a" d="M 750 794 
L 1409 794 
L 1409 0 
L 750 0 
L 750 794 
z
M 750 3309 
L 1409 3309 
L 1409 2516 
L 750 2516 
L 750 3309 
z
" transform="scale(0.015625)"/>
       <path id="DejaVuSans-78" d="M 3513 3500 
L 2247 1797 
L 3578 0 
L 2900 0 
L 1881 1375 
L 863 0 
L 184 0 
L 1544 1831 
L 300 3500 
L 978 3500 
L 1906 2253 
L 2834 3500 
L 3513 3500 
z
" transform="scale(0.015625)"/>
       <path id="DejaVuSans-5f" d="M 3263 -1063 
L 3263 -1509 
L -63 -1509 
L -63 -1063 
L 3263 -1063 
z
" transform="scale(0.015625)"/>
       <path id="DejaVuSans-6e" d="M 3513 2113 
L 3513 0 
L 2938 0 
L 2938 2094 
Q 2938 2591 2744 2837 
Q 2550 3084 2163 3084 
Q 1697 3084 1428 2787 
Q 1159 2491 1159 1978 
L 1159 0 
L 581 0 
L 581 3500 
L 1159 3500 
L 1159 2956 
Q 1366 3272 1645 3428 
Q 1925 3584 2291 3584 
Q 2894 3584 3203 3211 
Q 3513 2838 3513 2113 
z
" transform="scale(0.015625)"/>
       <path id="DejaVuSans-3d" d="M 678 2906 
L 4684 2906 
L 4684 2381 
L 678 2381 
L 678 2906 
z
M 678 1631 
L 4684 1631 
L 4684 1100 
L 678 1100 
L 678 1631 
z
" transform="scale(0.015625)"/>
       <path id="DejaVuSans-35" d="M 691 4666 
L 3169 4666 
L 3169 4134 
L 1269 4134 
L 1269 2991 
Q 1406 3038 1543 3061 
Q 1681 3084 1819 3084 
Q 2600 3084 3056 2656 
Q 3513 2228 3513 1497 
Q 3513 744 3044 326 
Q 2575 -91 1722 -91 
Q 1428 -91 1123 -41 
Q 819 9 494 109 
L 494 744 
Q 775 591 1075 516 
Q 1375 441 1709 441 
Q 2250 441 2565 725 
Q 2881 1009 2881 1497 
Q 2881 1984 2565 2268 
Q 2250 2553 1709 2553 
Q 1456 2553 1204 2497 
Q 953 2441 691 2322 
L 691 4666 
z
" transform="scale(0.015625)"/>
       <path id="DejaVuSans-39" d="M 703 97 
L 703 672 
Q 941 559 1184 500 
Q 1428 441 1663 441 
Q 2288 441 2617 861 
Q 2947 1281 2994 2138 
Q 2813 1869 2534 1725 
Q 2256 1581 1919 1581 
Q 1219 1581 811 2004 
Q 403 2428 403 3163 
Q 403 3881 828 4315 
Q 1253 4750 1959 4750 
Q 2769 4750 3195 4129 
Q 3622 3509 3622 2328 
Q 3622 1225 3098 567 
Q 2575 -91 1691 -91 
Q 1453 -91 1209 -44 
Q 966 3 703 97 
z
M 1959 2075 
Q 2384 2075 2632 2365 
Q 2881 2656 2881 3163 
Q 2881 3666 2632 3958 
Q 2384 4250 1959 4250 
Q 1534 4250 1286 3958 
Q 1038 3666 1038 3163 
Q 1038 2656 1286 2365 
Q 1534 2075 1959 2075 
z
" transform="scale(0.015625)"/>
       <path id="DejaVuSans-2c" d="M 750 794 
L 1409 794 
L 1409 256 
L 897 -744 
L 494 -744 
L 750 256 
L 750 794 
z
" transform="scale(0.015625)"/>
       <path id="DejaVuSans-68" d="M 3513 2113 
L 3513 0 
L 2938 0 
L 2938 2094 
Q 2938 2591 2744 2837 
Q 2550 3084 2163 3084 
Q 1697 3084 1428 2787 
Q 1159 2491 1159 1978 
L 1159 0 
L 581 0 
L 581 4863 
L 1159 4863 
L 1159 2956 
Q 1366 3272 1645 3428 
Q 1925 3584 2291 3584 
Q 2894 3584 3203 3211 
Q 3513 2838 3513 2113 
z
" transform="scale(0.015625)"/>
       <path id="DejaVuSans-2d" d="M 313 2009 
L 1997 2009 
L 1997 1497 
L 313 1497 
L 313 2009 
z
" transform="scale(0.015625)"/>
       <path id="DejaVuSans-33" d="M 2597 2516 
Q 3050 2419 3304 2112 
Q 3559 1806 3559 1356 
Q 3559 666 3084 287 
Q 2609 -91 1734 -91 
Q 1441 -91 1130 -33 
Q 819 25 488 141 
L 488 750 
Q 750 597 1062 519 
Q 1375 441 1716 441 
Q 2309 441 2620 675 
Q 2931 909 2931 1356 
Q 2931 1769 2642 2001 
Q 2353 2234 1838 2234 
L 1294 2234 
L 1294 2753 
L 1863 2753 
Q 2328 2753 2575 2939 
Q 2822 3125 2822 3475 
Q 2822 3834 2567 4026 
Q 2313 4219 1838 4219 
Q 1578 4219 1281 4162 
Q 984 4106 628 3988 
L 628 4550 
Q 988 4650 1302 4700 
Q 1616 4750 1894 4750 
Q 2613 4750 3031 4423 
Q 3450 4097 3450 3541 
Q 3450 3153 3228 2886 
Q 3006 2619 2597 2516 
z
" transform="scale(0.015625)"/>
       <path id="DejaVuSans-37" d="M 525 4666 
L 3525 4666 
L 3525 4397 
L 1831 0 
L 1172 0 
L 2766 4134 
L 525 4134 
L 525 4666 
z
" transform="scale(0.015625)"/>
       <path id="DejaVuSans-63" d="M 3122 3366 
L 3122 2828 
Q 2878 2963 2633 3030 
Q 2388 3097 2138 3097 
Q 1578 3097 1268 2742 
Q 959 2388 959 1747 
Q 959 1106 1268 751 
Q 1578 397 2138 397 
Q 2388 397 2633 464 
Q 2878 531 3122 666 
L 3122 134 
Q 2881 22 2623 -34 
Q 2366 -91 2075 -91 
Q 1284 -91 818 406 
Q 353 903 353 1747 
Q 353 2603 823 3093 
Q 1294 3584 2113 3584 
Q 2378 3584 2631 3529 
Q 2884 3475 3122 3366 
z
" transform="scale(0.015625)"/>
      </defs>
      <use xlink:href="#DejaVuSans-56"/>
      <use xlink:href="#DejaVuSans-61" x="60.658203"/>
      <use xlink:href="#DejaVuSans-72" x="121.9375"/>
      <use xlink:href="#DejaVuSans-31" x="163.050781"/>
      <use xlink:href="#DejaVuSans-3a" x="226.673828"/>
      <use xlink:href="#DejaVuSans-20" x="260.365234"/>
      <use xlink:href="#DejaVuSans-78" x="292.152344"/>
      <use xlink:href="#DejaVuSans-5f" x="351.332031"/>
      <use xlink:href="#DejaVuSans-69" x="401.332031"/>
      <use xlink:href="#DejaVuSans-6e" x="429.115234"/>
      <use xlink:href="#DejaVuSans-69" x="492.494141"/>
      <use xlink:href="#DejaVuSans-74" x="520.277344"/>
      <use xlink:href="#DejaVuSans-20" x="559.486328"/>
      <use xlink:href="#DejaVuSans-3d" x="591.273438"/>
      <use xlink:href="#DejaVuSans-20" x="675.0625"/>
      <use xlink:href="#DejaVuSans-30" x="706.849609"/>
      <use xlink:href="#DejaVuSans-2e" x="770.472656"/>
      <use xlink:href="#DejaVuSans-35" x="802.259766"/>
      <use xlink:href="#DejaVuSans-39" x="865.882812"/>
      <use xlink:href="#DejaVuSans-2c" x="929.505859"/>
      <use xlink:href="#DejaVuSans-20" x="961.292969"/>
      <use xlink:href="#DejaVuSans-6c" x="993.080078"/>
      <use xlink:href="#DejaVuSans-5f" x="1020.863281"/>
      <use xlink:href="#DejaVuSans-69" x="1070.863281"/>
      <use xlink:href="#DejaVuSans-6e" x="1098.646484"/>
      <use xlink:href="#DejaVuSans-69" x="1162.025391"/>
      <use xlink:href="#DejaVuSans-74" x="1189.808594"/>
      <use xlink:href="#DejaVuSans-20" x="1229.017578"/>
      <use xlink:href="#DejaVuSans-3d" x="1260.804688"/>
      <use xlink:href="#DejaVuSans-20" x="1344.59375"/>
      <use xlink:href="#DejaVuSans-31" x="1376.380859"/>
      <use xlink:href="#DejaVuSans-2e" x="1440.003906"/>
      <use xlink:href="#DejaVuSans-36" x="1471.791016"/>
      <use xlink:href="#DejaVuSans-32" x="1535.414062"/>
      <use xlink:href="#DejaVuSans-2c" x="1599.037109"/>
      <use xlink:href="#DejaVuSans-20" x="1630.824219"/>
      <use xlink:href="#DejaVuSans-74" x="1662.611328"/>
      <use xlink:href="#DejaVuSans-68" x="1701.820312"/>
      <use xlink:href="#DejaVuSans-65" x="1765.199219"/>
      <use xlink:href="#DejaVuSans-74" x="1826.722656"/>
      <use xlink:href="#DejaVuSans-61" x="1865.931641"/>
      <use xlink:href="#DejaVuSans-5f" x="1927.210938"/>
      <use xlink:href="#DejaVuSans-69" x="1977.210938"/>
      <use xlink:href="#DejaVuSans-6e" x="2004.994141"/>
      <use xlink:href="#DejaVuSans-69" x="2068.373047"/>
      <use xlink:href="#DejaVuSans-74" x="2096.15625"/>
      <use xlink:href="#DejaVuSans-20" x="2135.365234"/>
      <use xlink:href="#DejaVuSans-3d" x="2167.152344"/>
      <use xlink:href="#DejaVuSans-20" x="2250.941406"/>
      <use xlink:href="#DejaVuSans-2d" x="2282.728516"/>
      <use xlink:href="#DejaVuSans-33" x="2318.8125"/>
      <use xlink:href="#DejaVuSans-39" x="2382.435547"/>
      <use xlink:href="#DejaVuSans-2e" x="2446.058594"/>
      <use xlink:href="#DejaVuSans-37" x="2477.845703"/>
      <use xlink:href="#DejaVuSans-39" x="2541.46875"/>
      <use xlink:href="#DejaVuSans-2c" x="2605.091797"/>
      <use xlink:href="#DejaVuSans-20" x="2636.878906"/>
      <use xlink:href="#DejaVuSans-6d" x="2668.666016"/>
      <use xlink:href="#DejaVuSans-63" x="2766.078125"/>
      <use xlink:href="#DejaVuSans-20" x="2821.058594"/>
      <use xlink:href="#DejaVuSans-3d" x="2852.845703"/>
      <use xlink:href="#DejaVuSans-20" x="2936.634766"/>
      <use xlink:href="#DejaVuSans-31" x="2968.421875"/>
      <use xlink:href="#DejaVuSans-2e" x="3032.044922"/>
      <use xlink:href="#DejaVuSans-34" x="3063.832031"/>
      <use xlink:href="#DejaVuSans-34" x="3127.455078"/>
     </g>
    </g>
    <g id="line2d_35">
     <path style="fill: none; stroke: #66cc66; stroke-width: 1.5; stroke-linecap: square"/>
    </g>
    <g id="text_19">
     <!-- Var2: x_init = 0.24, l_init = 0.65, theta_init = 38.11, mc = 0.75 -->
     <g transform="translate(79.480725 372.402687) scale(0.1 -0.1)">
      <use xlink:href="#DejaVuSans-56"/>
      <use xlink:href="#DejaVuSans-61" x="60.658203"/>
      <use xlink:href="#DejaVuSans-72" x="121.9375"/>
      <use xlink:href="#DejaVuSans-32" x="163.050781"/>
      <use xlink:href="#DejaVuSans-3a" x="226.673828"/>
      <use xlink:href="#DejaVuSans-20" x="260.365234"/>
      <use xlink:href="#DejaVuSans-78" x="292.152344"/>
      <use xlink:href="#DejaVuSans-5f" x="351.332031"/>
      <use xlink:href="#DejaVuSans-69" x="401.332031"/>
      <use xlink:href="#DejaVuSans-6e" x="429.115234"/>
      <use xlink:href="#DejaVuSans-69" x="492.494141"/>
      <use xlink:href="#DejaVuSans-74" x="520.277344"/>
      <use xlink:href="#DejaVuSans-20" x="559.486328"/>
      <use xlink:href="#DejaVuSans-3d" x="591.273438"/>
      <use xlink:href="#DejaVuSans-20" x="675.0625"/>
      <use xlink:href="#DejaVuSans-30" x="706.849609"/>
      <use xlink:href="#DejaVuSans-2e" x="770.472656"/>
      <use xlink:href="#DejaVuSans-32" x="802.259766"/>
      <use xlink:href="#DejaVuSans-34" x="865.882812"/>
      <use xlink:href="#DejaVuSans-2c" x="929.505859"/>
      <use xlink:href="#DejaVuSans-20" x="961.292969"/>
      <use xlink:href="#DejaVuSans-6c" x="993.080078"/>
      <use xlink:href="#DejaVuSans-5f" x="1020.863281"/>
      <use xlink:href="#DejaVuSans-69" x="1070.863281"/>
      <use xlink:href="#DejaVuSans-6e" x="1098.646484"/>
      <use xlink:href="#DejaVuSans-69" x="1162.025391"/>
      <use xlink:href="#DejaVuSans-74" x="1189.808594"/>
      <use xlink:href="#DejaVuSans-20" x="1229.017578"/>
      <use xlink:href="#DejaVuSans-3d" x="1260.804688"/>
      <use xlink:href="#DejaVuSans-20" x="1344.59375"/>
      <use xlink:href="#DejaVuSans-30" x="1376.380859"/>
      <use xlink:href="#DejaVuSans-2e" x="1440.003906"/>
      <use xlink:href="#DejaVuSans-36" x="1471.791016"/>
      <use xlink:href="#DejaVuSans-35" x="1535.414062"/>
      <use xlink:href="#DejaVuSans-2c" x="1599.037109"/>
      <use xlink:href="#DejaVuSans-20" x="1630.824219"/>
      <use xlink:href="#DejaVuSans-74" x="1662.611328"/>
      <use xlink:href="#DejaVuSans-68" x="1701.820312"/>
      <use xlink:href="#DejaVuSans-65" x="1765.199219"/>
      <use xlink:href="#DejaVuSans-74" x="1826.722656"/>
      <use xlink:href="#DejaVuSans-61" x="1865.931641"/>
      <use xlink:href="#DejaVuSans-5f" x="1927.210938"/>
      <use xlink:href="#DejaVuSans-69" x="1977.210938"/>
      <use xlink:href="#DejaVuSans-6e" x="2004.994141"/>
      <use xlink:href="#DejaVuSans-69" x="2068.373047"/>
      <use xlink:href="#DejaVuSans-74" x="2096.15625"/>
      <use xlink:href="#DejaVuSans-20" x="2135.365234"/>
      <use xlink:href="#DejaVuSans-3d" x="2167.152344"/>
      <use xlink:href="#DejaVuSans-20" x="2250.941406"/>
      <use xlink:href="#DejaVuSans-33" x="2282.728516"/>
      <use xlink:href="#DejaVuSans-38" x="2346.351562"/>
      <use xlink:href="#DejaVuSans-2e" x="2409.974609"/>
      <use xlink:href="#DejaVuSans-31" x="2441.761719"/>
      <use xlink:href="#DejaVuSans-31" x="2505.384766"/>
      <use xlink:href="#DejaVuSans-2c" x="2569.007812"/>
      <use xlink:href="#DejaVuSans-20" x="2600.794922"/>
      <use xlink:href="#DejaVuSans-6d" x="2632.582031"/>
      <use xlink:href="#DejaVuSans-63" x="2729.994141"/>
      <use xlink:href="#DejaVuSans-20" x="2784.974609"/>
      <use xlink:href="#DejaVuSans-3d" x="2816.761719"/>
      <use xlink:href="#DejaVuSans-20" x="2900.550781"/>
      <use xlink:href="#DejaVuSans-30" x="2932.337891"/>
      <use xlink:href="#DejaVuSans-2e" x="2995.960938"/>
      <use xlink:href="#DejaVuSans-37" x="3027.748047"/>
      <use xlink:href="#DejaVuSans-35" x="3091.371094"/>
     </g>
    </g>
    <g id="line2d_36">
     <path style="fill: none; stroke: #999999; stroke-width: 1.5; stroke-linecap: square"/>
    </g>
    <g id="text_20">
     <!-- Var3: x_init = 0.9, l_init = 0.38, theta_init = -0.51, mc = 1.19 -->
     <g transform="translate(79.480725 387.358937) scale(0.1 -0.1)">
      <use xlink:href="#DejaVuSans-56"/>
      <use xlink:href="#DejaVuSans-61" x="60.658203"/>
      <use xlink:href="#DejaVuSans-72" x="121.9375"/>
      <use xlink:href="#DejaVuSans-33" x="163.050781"/>
      <use xlink:href="#DejaVuSans-3a" x="226.673828"/>
      <use xlink:href="#DejaVuSans-20" x="260.365234"/>
      <use xlink:href="#DejaVuSans-78" x="292.152344"/>
      <use xlink:href="#DejaVuSans-5f" x="351.332031"/>
      <use xlink:href="#DejaVuSans-69" x="401.332031"/>
      <use xlink:href="#DejaVuSans-6e" x="429.115234"/>
      <use xlink:href="#DejaVuSans-69" x="492.494141"/>
      <use xlink:href="#DejaVuSans-74" x="520.277344"/>
      <use xlink:href="#DejaVuSans-20" x="559.486328"/>
      <use xlink:href="#DejaVuSans-3d" x="591.273438"/>
      <use xlink:href="#DejaVuSans-20" x="675.0625"/>
      <use xlink:href="#DejaVuSans-30" x="706.849609"/>
      <use xlink:href="#DejaVuSans-2e" x="770.472656"/>
      <use xlink:href="#DejaVuSans-39" x="802.259766"/>
      <use xlink:href="#DejaVuSans-2c" x="865.882812"/>
      <use xlink:href="#DejaVuSans-20" x="897.669922"/>
      <use xlink:href="#DejaVuSans-6c" x="929.457031"/>
      <use xlink:href="#DejaVuSans-5f" x="957.240234"/>
      <use xlink:href="#DejaVuSans-69" x="1007.240234"/>
      <use xlink:href="#DejaVuSans-6e" x="1035.023438"/>
      <use xlink:href="#DejaVuSans-69" x="1098.402344"/>
      <use xlink:href="#DejaVuSans-74" x="1126.185547"/>
      <use xlink:href="#DejaVuSans-20" x="1165.394531"/>
      <use xlink:href="#DejaVuSans-3d" x="1197.181641"/>
      <use xlink:href="#DejaVuSans-20" x="1280.970703"/>
      <use xlink:href="#DejaVuSans-30" x="1312.757812"/>
      <use xlink:href="#DejaVuSans-2e" x="1376.380859"/>
      <use xlink:href="#DejaVuSans-33" x="1408.167969"/>
      <use xlink:href="#DejaVuSans-38" x="1471.791016"/>
      <use xlink:href="#DejaVuSans-2c" x="1535.414062"/>
      <use xlink:href="#DejaVuSans-20" x="1567.201172"/>
      <use xlink:href="#DejaVuSans-74" x="1598.988281"/>
      <use xlink:href="#DejaVuSans-68" x="1638.197266"/>
      <use xlink:href="#DejaVuSans-65" x="1701.576172"/>
      <use xlink:href="#DejaVuSans-74" x="1763.099609"/>
      <use xlink:href="#DejaVuSans-61" x="1802.308594"/>
      <use xlink:href="#DejaVuSans-5f" x="1863.587891"/>
      <use xlink:href="#DejaVuSans-69" x="1913.587891"/>
      <use xlink:href="#DejaVuSans-6e" x="1941.371094"/>
      <use xlink:href="#DejaVuSans-69" x="2004.75"/>
      <use xlink:href="#DejaVuSans-74" x="2032.533203"/>
      <use xlink:href="#DejaVuSans-20" x="2071.742188"/>
      <use xlink:href="#DejaVuSans-3d" x="2103.529297"/>
      <use xlink:href="#DejaVuSans-20" x="2187.318359"/>
      <use xlink:href="#DejaVuSans-2d" x="2219.105469"/>
      <use xlink:href="#DejaVuSans-30" x="2255.189453"/>
      <use xlink:href="#DejaVuSans-2e" x="2318.8125"/>
      <use xlink:href="#DejaVuSans-35" x="2350.599609"/>
      <use xlink:href="#DejaVuSans-31" x="2414.222656"/>
      <use xlink:href="#DejaVuSans-2c" x="2477.845703"/>
      <use xlink:href="#DejaVuSans-20" x="2509.632812"/>
      <use xlink:href="#DejaVuSans-6d" x="2541.419922"/>
      <use xlink:href="#DejaVuSans-63" x="2638.832031"/>
      <use xlink:href="#DejaVuSans-20" x="2693.8125"/>
      <use xlink:href="#DejaVuSans-3d" x="2725.599609"/>
      <use xlink:href="#DejaVuSans-20" x="2809.388672"/>
      <use xlink:href="#DejaVuSans-31" x="2841.175781"/>
      <use xlink:href="#DejaVuSans-2e" x="2904.798828"/>
      <use xlink:href="#DejaVuSans-31" x="2936.585938"/>
      <use xlink:href="#DejaVuSans-39" x="3000.208984"/>
     </g>
    </g>
    <g id="line2d_37">
     <path style="fill: none; stroke: #cc66cc; stroke-width: 1.5; stroke-linecap: square"/>
    </g>
    <g id="text_21">
     <!-- Var4: x_init = 1.24, l_init = 1.46, theta_init = -20.0, mc = 0.86 -->
     <g transform="translate(79.480725 402.315187) scale(0.1 -0.1)">
      <use xlink:href="#DejaVuSans-56"/>
      <use xlink:href="#DejaVuSans-61" x="60.658203"/>
      <use xlink:href="#DejaVuSans-72" x="121.9375"/>
      <use xlink:href="#DejaVuSans-34" x="163.050781"/>
      <use xlink:href="#DejaVuSans-3a" x="226.673828"/>
      <use xlink:href="#DejaVuSans-20" x="260.365234"/>
      <use xlink:href="#DejaVuSans-78" x="292.152344"/>
      <use xlink:href="#DejaVuSans-5f" x="351.332031"/>
      <use xlink:href="#DejaVuSans-69" x="401.332031"/>
      <use xlink:href="#DejaVuSans-6e" x="429.115234"/>
      <use xlink:href="#DejaVuSans-69" x="492.494141"/>
      <use xlink:href="#DejaVuSans-74" x="520.277344"/>
      <use xlink:href="#DejaVuSans-20" x="559.486328"/>
      <use xlink:href="#DejaVuSans-3d" x="591.273438"/>
      <use xlink:href="#DejaVuSans-20" x="675.0625"/>
      <use xlink:href="#DejaVuSans-31" x="706.849609"/>
      <use xlink:href="#DejaVuSans-2e" x="770.472656"/>
      <use xlink:href="#DejaVuSans-32" x="802.259766"/>
      <use xlink:href="#DejaVuSans-34" x="865.882812"/>
      <use xlink:href="#DejaVuSans-2c" x="929.505859"/>
      <use xlink:href="#DejaVuSans-20" x="961.292969"/>
      <use xlink:href="#DejaVuSans-6c" x="993.080078"/>
      <use xlink:href="#DejaVuSans-5f" x="1020.863281"/>
      <use xlink:href="#DejaVuSans-69" x="1070.863281"/>
      <use xlink:href="#DejaVuSans-6e" x="1098.646484"/>
      <use xlink:href="#DejaVuSans-69" x="1162.025391"/>
      <use xlink:href="#DejaVuSans-74" x="1189.808594"/>
      <use xlink:href="#DejaVuSans-20" x="1229.017578"/>
      <use xlink:href="#DejaVuSans-3d" x="1260.804688"/>
      <use xlink:href="#DejaVuSans-20" x="1344.59375"/>
      <use xlink:href="#DejaVuSans-31" x="1376.380859"/>
      <use xlink:href="#DejaVuSans-2e" x="1440.003906"/>
      <use xlink:href="#DejaVuSans-34" x="1471.791016"/>
      <use xlink:href="#DejaVuSans-36" x="1535.414062"/>
      <use xlink:href="#DejaVuSans-2c" x="1599.037109"/>
      <use xlink:href="#DejaVuSans-20" x="1630.824219"/>
      <use xlink:href="#DejaVuSans-74" x="1662.611328"/>
      <use xlink:href="#DejaVuSans-68" x="1701.820312"/>
      <use xlink:href="#DejaVuSans-65" x="1765.199219"/>
      <use xlink:href="#DejaVuSans-74" x="1826.722656"/>
      <use xlink:href="#DejaVuSans-61" x="1865.931641"/>
      <use xlink:href="#DejaVuSans-5f" x="1927.210938"/>
      <use xlink:href="#DejaVuSans-69" x="1977.210938"/>
      <use xlink:href="#DejaVuSans-6e" x="2004.994141"/>
      <use xlink:href="#DejaVuSans-69" x="2068.373047"/>
      <use xlink:href="#DejaVuSans-74" x="2096.15625"/>
      <use xlink:href="#DejaVuSans-20" x="2135.365234"/>
      <use xlink:href="#DejaVuSans-3d" x="2167.152344"/>
      <use xlink:href="#DejaVuSans-20" x="2250.941406"/>
      <use xlink:href="#DejaVuSans-2d" x="2282.728516"/>
      <use xlink:href="#DejaVuSans-32" x="2318.8125"/>
      <use xlink:href="#DejaVuSans-30" x="2382.435547"/>
      <use xlink:href="#DejaVuSans-2e" x="2446.058594"/>
      <use xlink:href="#DejaVuSans-30" x="2477.845703"/>
      <use xlink:href="#DejaVuSans-2c" x="2541.46875"/>
      <use xlink:href="#DejaVuSans-20" x="2573.255859"/>
      <use xlink:href="#DejaVuSans-6d" x="2605.042969"/>
      <use xlink:href="#DejaVuSans-63" x="2702.455078"/>
      <use xlink:href="#DejaVuSans-20" x="2757.435547"/>
      <use xlink:href="#DejaVuSans-3d" x="2789.222656"/>
      <use xlink:href="#DejaVuSans-20" x="2873.011719"/>
      <use xlink:href="#DejaVuSans-30" x="2904.798828"/>
      <use xlink:href="#DejaVuSans-2e" x="2968.421875"/>
      <use xlink:href="#DejaVuSans-38" x="3000.208984"/>
      <use xlink:href="#DejaVuSans-36" x="3063.832031"/>
     </g>
    </g>
    <g id="line2d_38">
     <path style="fill: none; stroke: #ff33ff; stroke-width: 1.5; stroke-linecap: square"/>
    </g>
    <g id="text_22">
     <!-- Var5: x_init = 1.14, l_init = 1.04, theta_init = -12.07, mc = 1.3 -->
     <g transform="translate(79.480725 417.271437) scale(0.1 -0.1)">
      <use xlink:href="#DejaVuSans-56"/>
      <use xlink:href="#DejaVuSans-61" x="60.658203"/>
      <use xlink:href="#DejaVuSans-72" x="121.9375"/>
      <use xlink:href="#DejaVuSans-35" x="163.050781"/>
      <use xlink:href="#DejaVuSans-3a" x="226.673828"/>
      <use xlink:href="#DejaVuSans-20" x="260.365234"/>
      <use xlink:href="#DejaVuSans-78" x="292.152344"/>
      <use xlink:href="#DejaVuSans-5f" x="351.332031"/>
      <use xlink:href="#DejaVuSans-69" x="401.332031"/>
      <use xlink:href="#DejaVuSans-6e" x="429.115234"/>
      <use xlink:href="#DejaVuSans-69" x="492.494141"/>
      <use xlink:href="#DejaVuSans-74" x="520.277344"/>
      <use xlink:href="#DejaVuSans-20" x="559.486328"/>
      <use xlink:href="#DejaVuSans-3d" x="591.273438"/>
      <use xlink:href="#DejaVuSans-20" x="675.0625"/>
      <use xlink:href="#DejaVuSans-31" x="706.849609"/>
      <use xlink:href="#DejaVuSans-2e" x="770.472656"/>
      <use xlink:href="#DejaVuSans-31" x="802.259766"/>
      <use xlink:href="#DejaVuSans-34" x="865.882812"/>
      <use xlink:href="#DejaVuSans-2c" x="929.505859"/>
      <use xlink:href="#DejaVuSans-20" x="961.292969"/>
      <use xlink:href="#DejaVuSans-6c" x="993.080078"/>
      <use xlink:href="#DejaVuSans-5f" x="1020.863281"/>
      <use xlink:href="#DejaVuSans-69" x="1070.863281"/>
      <use xlink:href="#DejaVuSans-6e" x="1098.646484"/>
      <use xlink:href="#DejaVuSans-69" x="1162.025391"/>
      <use xlink:href="#DejaVuSans-74" x="1189.808594"/>
      <use xlink:href="#DejaVuSans-20" x="1229.017578"/>
      <use xlink:href="#DejaVuSans-3d" x="1260.804688"/>
      <use xlink:href="#DejaVuSans-20" x="1344.59375"/>
      <use xlink:href="#DejaVuSans-31" x="1376.380859"/>
      <use xlink:href="#DejaVuSans-2e" x="1440.003906"/>
      <use xlink:href="#DejaVuSans-30" x="1471.791016"/>
      <use xlink:href="#DejaVuSans-34" x="1535.414062"/>
      <use xlink:href="#DejaVuSans-2c" x="1599.037109"/>
      <use xlink:href="#DejaVuSans-20" x="1630.824219"/>
      <use xlink:href="#DejaVuSans-74" x="1662.611328"/>
      <use xlink:href="#DejaVuSans-68" x="1701.820312"/>
      <use xlink:href="#DejaVuSans-65" x="1765.199219"/>
      <use xlink:href="#DejaVuSans-74" x="1826.722656"/>
      <use xlink:href="#DejaVuSans-61" x="1865.931641"/>
      <use xlink:href="#DejaVuSans-5f" x="1927.210938"/>
      <use xlink:href="#DejaVuSans-69" x="1977.210938"/>
      <use xlink:href="#DejaVuSans-6e" x="2004.994141"/>
      <use xlink:href="#DejaVuSans-69" x="2068.373047"/>
      <use xlink:href="#DejaVuSans-74" x="2096.15625"/>
      <use xlink:href="#DejaVuSans-20" x="2135.365234"/>
      <use xlink:href="#DejaVuSans-3d" x="2167.152344"/>
      <use xlink:href="#DejaVuSans-20" x="2250.941406"/>
      <use xlink:href="#DejaVuSans-2d" x="2282.728516"/>
      <use xlink:href="#DejaVuSans-31" x="2318.8125"/>
      <use xlink:href="#DejaVuSans-32" x="2382.435547"/>
      <use xlink:href="#DejaVuSans-2e" x="2446.058594"/>
      <use xlink:href="#DejaVuSans-30" x="2477.845703"/>
      <use xlink:href="#DejaVuSans-37" x="2541.46875"/>
      <use xlink:href="#DejaVuSans-2c" x="2605.091797"/>
      <use xlink:href="#DejaVuSans-20" x="2636.878906"/>
      <use xlink:href="#DejaVuSans-6d" x="2668.666016"/>
      <use xlink:href="#DejaVuSans-63" x="2766.078125"/>
      <use xlink:href="#DejaVuSans-20" x="2821.058594"/>
      <use xlink:href="#DejaVuSans-3d" x="2852.845703"/>
      <use xlink:href="#DejaVuSans-20" x="2936.634766"/>
      <use xlink:href="#DejaVuSans-31" x="2968.421875"/>
      <use xlink:href="#DejaVuSans-2e" x="3032.044922"/>
      <use xlink:href="#DejaVuSans-33" x="3063.832031"/>
     </g>
    </g>
   </g>
  </g>
 </g>
 <defs>
  <clipPath id="p2ac23d468f">
   <rect x="57.6" y="41.472" width="357.12" height="266.112"/>
  </clipPath>
 </defs>
</svg>
