<?xml version="1.0" encoding="utf-8" standalone="no"?>
<!DOCTYPE svg PUBLIC "-//W3C//DTD SVG 1.1//EN"
  "http://www.w3.org/Graphics/SVG/1.1/DTD/svg11.dtd">
<svg xmlns:xlink="http://www.w3.org/1999/xlink" width="413.302812pt" height="325.986375pt" viewBox="0 0 413.302812 325.986375" xmlns="http://www.w3.org/2000/svg" version="1.1">
 <metadata>
  <rdf:RDF xmlns:dc="http://purl.org/dc/elements/1.1/" xmlns:cc="http://creativecommons.org/ns#" xmlns:rdf="http://www.w3.org/1999/02/22-rdf-syntax-ns#">
   <cc:Work>
    <dc:type rdf:resource="http://purl.org/dc/dcmitype/StillImage"/>
    <dc:date>2023-06-28T15:38:16.211745</dc:date>
    <dc:format>image/svg+xml</dc:format>
    <dc:creator>
     <cc:Agent>
      <dc:title>Matplotlib v3.7.1, https://matplotlib.org/</dc:title>
     </cc:Agent>
    </dc:creator>
   </cc:Work>
  </rdf:RDF>
 </metadata>
 <defs>
  <style type="text/css">*{stroke-linejoin: round; stroke-linecap: butt}</style>
 </defs>
 <g id="figure_1">
  <g id="patch_1">
   <path d="M 0 325.986375 
L 413.302812 325.986375 
L 413.302812 0 
L 0 0 
L 0 325.986375 
z
" style="fill: none"/>
  </g>
  <g id="axes_1">
   <g id="patch_2">
    <path d="M 48.982813 288.430125 
L 406.102813 288.430125 
L 406.102813 22.318125 
L 48.982813 22.318125 
L 48.982813 288.430125 
z
" style="fill: none"/>
   </g>
   <g id="matplotlib.axis_1">
    <g id="xtick_1">
     <g id="line2d_1">
      <path d="M 65.21554 288.430125 
L 65.21554 22.318125 
" clip-path="url(#pdba87bb0ec)" style="fill: none; stroke: #b0b0b0; stroke-width: 0.8; stroke-linecap: square"/>
     </g>
     <g id="line2d_2">
      <defs>
       <path id="md28d181142" d="M 0 0 
L 0 3.5 
" style="stroke: #000000; stroke-width: 0.8"/>
      </defs>
      <g>
       <use xlink:href="#md28d181142" x="65.21554" y="288.430125" style="stroke: #000000; stroke-width: 0.8"/>
      </g>
     </g>
     <g id="text_1">
      <!-- 0.0 -->
      <g transform="translate(57.263977 303.028562) scale(0.1 -0.1)">
       <defs>
        <path id="DejaVuSans-30" d="M 2034 4250 
Q 1547 4250 1301 3770 
Q 1056 3291 1056 2328 
Q 1056 1369 1301 889 
Q 1547 409 2034 409 
Q 2525 409 2770 889 
Q 3016 1369 3016 2328 
Q 3016 3291 2770 3770 
Q 2525 4250 2034 4250 
z
M 2034 4750 
Q 2819 4750 3233 4129 
Q 3647 3509 3647 2328 
Q 3647 1150 3233 529 
Q 2819 -91 2034 -91 
Q 1250 -91 836 529 
Q 422 1150 422 2328 
Q 422 3509 836 4129 
Q 1250 4750 2034 4750 
z
" transform="scale(0.015625)"/>
        <path id="DejaVuSans-2e" d="M 684 794 
L 1344 794 
L 1344 0 
L 684 0 
L 684 794 
z
" transform="scale(0.015625)"/>
       </defs>
       <use xlink:href="#DejaVuSans-30"/>
       <use xlink:href="#DejaVuSans-2e" x="63.623047"/>
       <use xlink:href="#DejaVuSans-30" x="95.410156"/>
      </g>
     </g>
    </g>
    <g id="xtick_2">
     <g id="line2d_3">
      <path d="M 105.797358 288.430125 
L 105.797358 22.318125 
" clip-path="url(#pdba87bb0ec)" style="fill: none; stroke: #b0b0b0; stroke-width: 0.8; stroke-linecap: square"/>
     </g>
     <g id="line2d_4">
      <g>
       <use xlink:href="#md28d181142" x="105.797358" y="288.430125" style="stroke: #000000; stroke-width: 0.8"/>
      </g>
     </g>
     <g id="text_2">
      <!-- 2.5 -->
      <g transform="translate(97.845795 303.028562) scale(0.1 -0.1)">
       <defs>
        <path id="DejaVuSans-32" d="M 1228 531 
L 3431 531 
L 3431 0 
L 469 0 
L 469 531 
Q 828 903 1448 1529 
Q 2069 2156 2228 2338 
Q 2531 2678 2651 2914 
Q 2772 3150 2772 3378 
Q 2772 3750 2511 3984 
Q 2250 4219 1831 4219 
Q 1534 4219 1204 4116 
Q 875 4013 500 3803 
L 500 4441 
Q 881 4594 1212 4672 
Q 1544 4750 1819 4750 
Q 2544 4750 2975 4387 
Q 3406 4025 3406 3419 
Q 3406 3131 3298 2873 
Q 3191 2616 2906 2266 
Q 2828 2175 2409 1742 
Q 1991 1309 1228 531 
z
" transform="scale(0.015625)"/>
        <path id="DejaVuSans-35" d="M 691 4666 
L 3169 4666 
L 3169 4134 
L 1269 4134 
L 1269 2991 
Q 1406 3038 1543 3061 
Q 1681 3084 1819 3084 
Q 2600 3084 3056 2656 
Q 3513 2228 3513 1497 
Q 3513 744 3044 326 
Q 2575 -91 1722 -91 
Q 1428 -91 1123 -41 
Q 819 9 494 109 
L 494 744 
Q 775 591 1075 516 
Q 1375 441 1709 441 
Q 2250 441 2565 725 
Q 2881 1009 2881 1497 
Q 2881 1984 2565 2268 
Q 2250 2553 1709 2553 
Q 1456 2553 1204 2497 
Q 953 2441 691 2322 
L 691 4666 
z
" transform="scale(0.015625)"/>
       </defs>
       <use xlink:href="#DejaVuSans-32"/>
       <use xlink:href="#DejaVuSans-2e" x="63.623047"/>
       <use xlink:href="#DejaVuSans-35" x="95.410156"/>
      </g>
     </g>
    </g>
    <g id="xtick_3">
     <g id="line2d_5">
      <path d="M 146.379176 288.430125 
L 146.379176 22.318125 
" clip-path="url(#pdba87bb0ec)" style="fill: none; stroke: #b0b0b0; stroke-width: 0.8; stroke-linecap: square"/>
     </g>
     <g id="line2d_6">
      <g>
       <use xlink:href="#md28d181142" x="146.379176" y="288.430125" style="stroke: #000000; stroke-width: 0.8"/>
      </g>
     </g>
     <g id="text_3">
      <!-- 5.0 -->
      <g transform="translate(138.427614 303.028562) scale(0.1 -0.1)">
       <use xlink:href="#DejaVuSans-35"/>
       <use xlink:href="#DejaVuSans-2e" x="63.623047"/>
       <use xlink:href="#DejaVuSans-30" x="95.410156"/>
      </g>
     </g>
    </g>
    <g id="xtick_4">
     <g id="line2d_7">
      <path d="M 186.960994 288.430125 
L 186.960994 22.318125 
" clip-path="url(#pdba87bb0ec)" style="fill: none; stroke: #b0b0b0; stroke-width: 0.8; stroke-linecap: square"/>
     </g>
     <g id="line2d_8">
      <g>
       <use xlink:href="#md28d181142" x="186.960994" y="288.430125" style="stroke: #000000; stroke-width: 0.8"/>
      </g>
     </g>
     <g id="text_4">
      <!-- 7.5 -->
      <g transform="translate(179.009432 303.028562) scale(0.1 -0.1)">
       <defs>
        <path id="DejaVuSans-37" d="M 525 4666 
L 3525 4666 
L 3525 4397 
L 1831 0 
L 1172 0 
L 2766 4134 
L 525 4134 
L 525 4666 
z
" transform="scale(0.015625)"/>
       </defs>
       <use xlink:href="#DejaVuSans-37"/>
       <use xlink:href="#DejaVuSans-2e" x="63.623047"/>
       <use xlink:href="#DejaVuSans-35" x="95.410156"/>
      </g>
     </g>
    </g>
    <g id="xtick_5">
     <g id="line2d_9">
      <path d="M 227.542813 288.430125 
L 227.542813 22.318125 
" clip-path="url(#pdba87bb0ec)" style="fill: none; stroke: #b0b0b0; stroke-width: 0.8; stroke-linecap: square"/>
     </g>
     <g id="line2d_10">
      <g>
       <use xlink:href="#md28d181142" x="227.542813" y="288.430125" style="stroke: #000000; stroke-width: 0.8"/>
      </g>
     </g>
     <g id="text_5">
      <!-- 10.0 -->
      <g transform="translate(216.41 303.028562) scale(0.1 -0.1)">
       <defs>
        <path id="DejaVuSans-31" d="M 794 531 
L 1825 531 
L 1825 4091 
L 703 3866 
L 703 4441 
L 1819 4666 
L 2450 4666 
L 2450 531 
L 3481 531 
L 3481 0 
L 794 0 
L 794 531 
z
" transform="scale(0.015625)"/>
       </defs>
       <use xlink:href="#DejaVuSans-31"/>
       <use xlink:href="#DejaVuSans-30" x="63.623047"/>
       <use xlink:href="#DejaVuSans-2e" x="127.246094"/>
       <use xlink:href="#DejaVuSans-30" x="159.033203"/>
      </g>
     </g>
    </g>
    <g id="xtick_6">
     <g id="line2d_11">
      <path d="M 268.124631 288.430125 
L 268.124631 22.318125 
" clip-path="url(#pdba87bb0ec)" style="fill: none; stroke: #b0b0b0; stroke-width: 0.8; stroke-linecap: square"/>
     </g>
     <g id="line2d_12">
      <g>
       <use xlink:href="#md28d181142" x="268.124631" y="288.430125" style="stroke: #000000; stroke-width: 0.8"/>
      </g>
     </g>
     <g id="text_6">
      <!-- 12.5 -->
      <g transform="translate(256.991818 303.028562) scale(0.1 -0.1)">
       <use xlink:href="#DejaVuSans-31"/>
       <use xlink:href="#DejaVuSans-32" x="63.623047"/>
       <use xlink:href="#DejaVuSans-2e" x="127.246094"/>
       <use xlink:href="#DejaVuSans-35" x="159.033203"/>
      </g>
     </g>
    </g>
    <g id="xtick_7">
     <g id="line2d_13">
      <path d="M 308.706449 288.430125 
L 308.706449 22.318125 
" clip-path="url(#pdba87bb0ec)" style="fill: none; stroke: #b0b0b0; stroke-width: 0.8; stroke-linecap: square"/>
     </g>
     <g id="line2d_14">
      <g>
       <use xlink:href="#md28d181142" x="308.706449" y="288.430125" style="stroke: #000000; stroke-width: 0.8"/>
      </g>
     </g>
     <g id="text_7">
      <!-- 15.0 -->
      <g transform="translate(297.573636 303.028562) scale(0.1 -0.1)">
       <use xlink:href="#DejaVuSans-31"/>
       <use xlink:href="#DejaVuSans-35" x="63.623047"/>
       <use xlink:href="#DejaVuSans-2e" x="127.246094"/>
       <use xlink:href="#DejaVuSans-30" x="159.033203"/>
      </g>
     </g>
    </g>
    <g id="xtick_8">
     <g id="line2d_15">
      <path d="M 349.288267 288.430125 
L 349.288267 22.318125 
" clip-path="url(#pdba87bb0ec)" style="fill: none; stroke: #b0b0b0; stroke-width: 0.8; stroke-linecap: square"/>
     </g>
     <g id="line2d_16">
      <g>
       <use xlink:href="#md28d181142" x="349.288267" y="288.430125" style="stroke: #000000; stroke-width: 0.8"/>
      </g>
     </g>
     <g id="text_8">
      <!-- 17.5 -->
      <g transform="translate(338.155455 303.028562) scale(0.1 -0.1)">
       <use xlink:href="#DejaVuSans-31"/>
       <use xlink:href="#DejaVuSans-37" x="63.623047"/>
       <use xlink:href="#DejaVuSans-2e" x="127.246094"/>
       <use xlink:href="#DejaVuSans-35" x="159.033203"/>
      </g>
     </g>
    </g>
    <g id="xtick_9">
     <g id="line2d_17">
      <path d="M 389.870085 288.430125 
L 389.870085 22.318125 
" clip-path="url(#pdba87bb0ec)" style="fill: none; stroke: #b0b0b0; stroke-width: 0.8; stroke-linecap: square"/>
     </g>
     <g id="line2d_18">
      <g>
       <use xlink:href="#md28d181142" x="389.870085" y="288.430125" style="stroke: #000000; stroke-width: 0.8"/>
      </g>
     </g>
     <g id="text_9">
      <!-- 20.0 -->
      <g transform="translate(378.737273 303.028562) scale(0.1 -0.1)">
       <use xlink:href="#DejaVuSans-32"/>
       <use xlink:href="#DejaVuSans-30" x="63.623047"/>
       <use xlink:href="#DejaVuSans-2e" x="127.246094"/>
       <use xlink:href="#DejaVuSans-30" x="159.033203"/>
      </g>
     </g>
    </g>
    <g id="text_10">
     <!-- time (s) -->
     <g transform="translate(208.151406 316.706687) scale(0.1 -0.1)">
      <defs>
       <path id="DejaVuSans-74" d="M 1172 4494 
L 1172 3500 
L 2356 3500 
L 2356 3053 
L 1172 3053 
L 1172 1153 
Q 1172 725 1289 603 
Q 1406 481 1766 481 
L 2356 481 
L 2356 0 
L 1766 0 
Q 1100 0 847 248 
Q 594 497 594 1153 
L 594 3053 
L 172 3053 
L 172 3500 
L 594 3500 
L 594 4494 
L 1172 4494 
z
" transform="scale(0.015625)"/>
       <path id="DejaVuSans-69" d="M 603 3500 
L 1178 3500 
L 1178 0 
L 603 0 
L 603 3500 
z
M 603 4863 
L 1178 4863 
L 1178 4134 
L 603 4134 
L 603 4863 
z
" transform="scale(0.015625)"/>
       <path id="DejaVuSans-6d" d="M 3328 2828 
Q 3544 3216 3844 3400 
Q 4144 3584 4550 3584 
Q 5097 3584 5394 3201 
Q 5691 2819 5691 2113 
L 5691 0 
L 5113 0 
L 5113 2094 
Q 5113 2597 4934 2840 
Q 4756 3084 4391 3084 
Q 3944 3084 3684 2787 
Q 3425 2491 3425 1978 
L 3425 0 
L 2847 0 
L 2847 2094 
Q 2847 2600 2669 2842 
Q 2491 3084 2119 3084 
Q 1678 3084 1418 2786 
Q 1159 2488 1159 1978 
L 1159 0 
L 581 0 
L 581 3500 
L 1159 3500 
L 1159 2956 
Q 1356 3278 1631 3431 
Q 1906 3584 2284 3584 
Q 2666 3584 2933 3390 
Q 3200 3197 3328 2828 
z
" transform="scale(0.015625)"/>
       <path id="DejaVuSans-65" d="M 3597 1894 
L 3597 1613 
L 953 1613 
Q 991 1019 1311 708 
Q 1631 397 2203 397 
Q 2534 397 2845 478 
Q 3156 559 3463 722 
L 3463 178 
Q 3153 47 2828 -22 
Q 2503 -91 2169 -91 
Q 1331 -91 842 396 
Q 353 884 353 1716 
Q 353 2575 817 3079 
Q 1281 3584 2069 3584 
Q 2775 3584 3186 3129 
Q 3597 2675 3597 1894 
z
M 3022 2063 
Q 3016 2534 2758 2815 
Q 2500 3097 2075 3097 
Q 1594 3097 1305 2825 
Q 1016 2553 972 2059 
L 3022 2063 
z
" transform="scale(0.015625)"/>
       <path id="DejaVuSans-20" transform="scale(0.015625)"/>
       <path id="DejaVuSans-28" d="M 1984 4856 
Q 1566 4138 1362 3434 
Q 1159 2731 1159 2009 
Q 1159 1288 1364 580 
Q 1569 -128 1984 -844 
L 1484 -844 
Q 1016 -109 783 600 
Q 550 1309 550 2009 
Q 550 2706 781 3412 
Q 1013 4119 1484 4856 
L 1984 4856 
z
" transform="scale(0.015625)"/>
       <path id="DejaVuSans-73" d="M 2834 3397 
L 2834 2853 
Q 2591 2978 2328 3040 
Q 2066 3103 1784 3103 
Q 1356 3103 1142 2972 
Q 928 2841 928 2578 
Q 928 2378 1081 2264 
Q 1234 2150 1697 2047 
L 1894 2003 
Q 2506 1872 2764 1633 
Q 3022 1394 3022 966 
Q 3022 478 2636 193 
Q 2250 -91 1575 -91 
Q 1294 -91 989 -36 
Q 684 19 347 128 
L 347 722 
Q 666 556 975 473 
Q 1284 391 1588 391 
Q 1994 391 2212 530 
Q 2431 669 2431 922 
Q 2431 1156 2273 1281 
Q 2116 1406 1581 1522 
L 1381 1569 
Q 847 1681 609 1914 
Q 372 2147 372 2553 
Q 372 3047 722 3315 
Q 1072 3584 1716 3584 
Q 2034 3584 2315 3537 
Q 2597 3491 2834 3397 
z
" transform="scale(0.015625)"/>
       <path id="DejaVuSans-29" d="M 513 4856 
L 1013 4856 
Q 1481 4119 1714 3412 
Q 1947 2706 1947 2009 
Q 1947 1309 1714 600 
Q 1481 -109 1013 -844 
L 513 -844 
Q 928 -128 1133 580 
Q 1338 1288 1338 2009 
Q 1338 2731 1133 3434 
Q 928 4138 513 4856 
z
" transform="scale(0.015625)"/>
      </defs>
      <use xlink:href="#DejaVuSans-74"/>
      <use xlink:href="#DejaVuSans-69" x="39.208984"/>
      <use xlink:href="#DejaVuSans-6d" x="66.992188"/>
      <use xlink:href="#DejaVuSans-65" x="164.404297"/>
      <use xlink:href="#DejaVuSans-20" x="225.927734"/>
      <use xlink:href="#DejaVuSans-28" x="257.714844"/>
      <use xlink:href="#DejaVuSans-73" x="296.728516"/>
      <use xlink:href="#DejaVuSans-29" x="348.828125"/>
     </g>
    </g>
   </g>
   <g id="matplotlib.axis_2">
    <g id="ytick_1">
     <g id="line2d_19">
      <path d="M 48.982813 280.528229 
L 406.102813 280.528229 
" clip-path="url(#pdba87bb0ec)" style="fill: none; stroke: #b0b0b0; stroke-width: 0.8; stroke-linecap: square"/>
     </g>
     <g id="line2d_20">
      <defs>
       <path id="mc9bd1b7eb6" d="M 0 0 
L -3.5 0 
" style="stroke: #000000; stroke-width: 0.8"/>
      </defs>
      <g>
       <use xlink:href="#mc9bd1b7eb6" x="48.982813" y="280.528229" style="stroke: #000000; stroke-width: 0.8"/>
      </g>
     </g>
     <g id="text_11">
      <!-- −20 -->
      <g transform="translate(20.878125 284.327448) scale(0.1 -0.1)">
       <defs>
        <path id="DejaVuSans-2212" d="M 678 2272 
L 4684 2272 
L 4684 1741 
L 678 1741 
L 678 2272 
z
" transform="scale(0.015625)"/>
       </defs>
       <use xlink:href="#DejaVuSans-2212"/>
       <use xlink:href="#DejaVuSans-32" x="83.789062"/>
       <use xlink:href="#DejaVuSans-30" x="147.412109"/>
      </g>
     </g>
    </g>
    <g id="ytick_2">
     <g id="line2d_21">
      <path d="M 48.982813 240.200308 
L 406.102813 240.200308 
" clip-path="url(#pdba87bb0ec)" style="fill: none; stroke: #b0b0b0; stroke-width: 0.8; stroke-linecap: square"/>
     </g>
     <g id="line2d_22">
      <g>
       <use xlink:href="#mc9bd1b7eb6" x="48.982813" y="240.200308" style="stroke: #000000; stroke-width: 0.8"/>
      </g>
     </g>
     <g id="text_12">
      <!-- −15 -->
      <g transform="translate(20.878125 243.999526) scale(0.1 -0.1)">
       <use xlink:href="#DejaVuSans-2212"/>
       <use xlink:href="#DejaVuSans-31" x="83.789062"/>
       <use xlink:href="#DejaVuSans-35" x="147.412109"/>
      </g>
     </g>
    </g>
    <g id="ytick_3">
     <g id="line2d_23">
      <path d="M 48.982813 199.872386 
L 406.102813 199.872386 
" clip-path="url(#pdba87bb0ec)" style="fill: none; stroke: #b0b0b0; stroke-width: 0.8; stroke-linecap: square"/>
     </g>
     <g id="line2d_24">
      <g>
       <use xlink:href="#mc9bd1b7eb6" x="48.982813" y="199.872386" style="stroke: #000000; stroke-width: 0.8"/>
      </g>
     </g>
     <g id="text_13">
      <!-- −10 -->
      <g transform="translate(20.878125 203.671605) scale(0.1 -0.1)">
       <use xlink:href="#DejaVuSans-2212"/>
       <use xlink:href="#DejaVuSans-31" x="83.789062"/>
       <use xlink:href="#DejaVuSans-30" x="147.412109"/>
      </g>
     </g>
    </g>
    <g id="ytick_4">
     <g id="line2d_25">
      <path d="M 48.982813 159.544465 
L 406.102813 159.544465 
" clip-path="url(#pdba87bb0ec)" style="fill: none; stroke: #b0b0b0; stroke-width: 0.8; stroke-linecap: square"/>
     </g>
     <g id="line2d_26">
      <g>
       <use xlink:href="#mc9bd1b7eb6" x="48.982813" y="159.544465" style="stroke: #000000; stroke-width: 0.8"/>
      </g>
     </g>
     <g id="text_14">
      <!-- −5 -->
      <g transform="translate(27.240625 163.343684) scale(0.1 -0.1)">
       <use xlink:href="#DejaVuSans-2212"/>
       <use xlink:href="#DejaVuSans-35" x="83.789062"/>
      </g>
     </g>
    </g>
    <g id="ytick_5">
     <g id="line2d_27">
      <path d="M 48.982813 119.216544 
L 406.102813 119.216544 
" clip-path="url(#pdba87bb0ec)" style="fill: none; stroke: #b0b0b0; stroke-width: 0.8; stroke-linecap: square"/>
     </g>
     <g id="line2d_28">
      <g>
       <use xlink:href="#mc9bd1b7eb6" x="48.982813" y="119.216544" style="stroke: #000000; stroke-width: 0.8"/>
      </g>
     </g>
     <g id="text_15">
      <!-- 0 -->
      <g transform="translate(35.620313 123.015763) scale(0.1 -0.1)">
       <use xlink:href="#DejaVuSans-30"/>
      </g>
     </g>
    </g>
    <g id="ytick_6">
     <g id="line2d_29">
      <path d="M 48.982813 78.888623 
L 406.102813 78.888623 
" clip-path="url(#pdba87bb0ec)" style="fill: none; stroke: #b0b0b0; stroke-width: 0.8; stroke-linecap: square"/>
     </g>
     <g id="line2d_30">
      <g>
       <use xlink:href="#mc9bd1b7eb6" x="48.982813" y="78.888623" style="stroke: #000000; stroke-width: 0.8"/>
      </g>
     </g>
     <g id="text_16">
      <!-- 5 -->
      <g transform="translate(35.620313 82.687842) scale(0.1 -0.1)">
       <use xlink:href="#DejaVuSans-35"/>
      </g>
     </g>
    </g>
    <g id="ytick_7">
     <g id="line2d_31">
      <path d="M 48.982813 38.560702 
L 406.102813 38.560702 
" clip-path="url(#pdba87bb0ec)" style="fill: none; stroke: #b0b0b0; stroke-width: 0.8; stroke-linecap: square"/>
     </g>
     <g id="line2d_32">
      <g>
       <use xlink:href="#mc9bd1b7eb6" x="48.982813" y="38.560702" style="stroke: #000000; stroke-width: 0.8"/>
      </g>
     </g>
     <g id="text_17">
      <!-- 10 -->
      <g transform="translate(29.257813 42.359921) scale(0.1 -0.1)">
       <use xlink:href="#DejaVuSans-31"/>
       <use xlink:href="#DejaVuSans-30" x="63.623047"/>
      </g>
     </g>
    </g>
    <g id="text_18">
     <!-- theta (degree) -->
     <g transform="translate(14.798438 191.615531) rotate(-90) scale(0.1 -0.1)">
      <defs>
       <path id="DejaVuSans-68" d="M 3513 2113 
L 3513 0 
L 2938 0 
L 2938 2094 
Q 2938 2591 2744 2837 
Q 2550 3084 2163 3084 
Q 1697 3084 1428 2787 
Q 1159 2491 1159 1978 
L 1159 0 
L 581 0 
L 581 4863 
L 1159 4863 
L 1159 2956 
Q 1366 3272 1645 3428 
Q 1925 3584 2291 3584 
Q 2894 3584 3203 3211 
Q 3513 2838 3513 2113 
z
" transform="scale(0.015625)"/>
       <path id="DejaVuSans-61" d="M 2194 1759 
Q 1497 1759 1228 1600 
Q 959 1441 959 1056 
Q 959 750 1161 570 
Q 1363 391 1709 391 
Q 2188 391 2477 730 
Q 2766 1069 2766 1631 
L 2766 1759 
L 2194 1759 
z
M 3341 1997 
L 3341 0 
L 2766 0 
L 2766 531 
Q 2569 213 2275 61 
Q 1981 -91 1556 -91 
Q 1019 -91 701 211 
Q 384 513 384 1019 
Q 384 1609 779 1909 
Q 1175 2209 1959 2209 
L 2766 2209 
L 2766 2266 
Q 2766 2663 2505 2880 
Q 2244 3097 1772 3097 
Q 1472 3097 1187 3025 
Q 903 2953 641 2809 
L 641 3341 
Q 956 3463 1253 3523 
Q 1550 3584 1831 3584 
Q 2591 3584 2966 3190 
Q 3341 2797 3341 1997 
z
" transform="scale(0.015625)"/>
       <path id="DejaVuSans-64" d="M 2906 2969 
L 2906 4863 
L 3481 4863 
L 3481 0 
L 2906 0 
L 2906 525 
Q 2725 213 2448 61 
Q 2172 -91 1784 -91 
Q 1150 -91 751 415 
Q 353 922 353 1747 
Q 353 2572 751 3078 
Q 1150 3584 1784 3584 
Q 2172 3584 2448 3432 
Q 2725 3281 2906 2969 
z
M 947 1747 
Q 947 1113 1208 752 
Q 1469 391 1925 391 
Q 2381 391 2643 752 
Q 2906 1113 2906 1747 
Q 2906 2381 2643 2742 
Q 2381 3103 1925 3103 
Q 1469 3103 1208 2742 
Q 947 2381 947 1747 
z
" transform="scale(0.015625)"/>
       <path id="DejaVuSans-67" d="M 2906 1791 
Q 2906 2416 2648 2759 
Q 2391 3103 1925 3103 
Q 1463 3103 1205 2759 
Q 947 2416 947 1791 
Q 947 1169 1205 825 
Q 1463 481 1925 481 
Q 2391 481 2648 825 
Q 2906 1169 2906 1791 
z
M 3481 434 
Q 3481 -459 3084 -895 
Q 2688 -1331 1869 -1331 
Q 1566 -1331 1297 -1286 
Q 1028 -1241 775 -1147 
L 775 -588 
Q 1028 -725 1275 -790 
Q 1522 -856 1778 -856 
Q 2344 -856 2625 -561 
Q 2906 -266 2906 331 
L 2906 616 
Q 2728 306 2450 153 
Q 2172 0 1784 0 
Q 1141 0 747 490 
Q 353 981 353 1791 
Q 353 2603 747 3093 
Q 1141 3584 1784 3584 
Q 2172 3584 2450 3431 
Q 2728 3278 2906 2969 
L 2906 3500 
L 3481 3500 
L 3481 434 
z
" transform="scale(0.015625)"/>
       <path id="DejaVuSans-72" d="M 2631 2963 
Q 2534 3019 2420 3045 
Q 2306 3072 2169 3072 
Q 1681 3072 1420 2755 
Q 1159 2438 1159 1844 
L 1159 0 
L 581 0 
L 581 3500 
L 1159 3500 
L 1159 2956 
Q 1341 3275 1631 3429 
Q 1922 3584 2338 3584 
Q 2397 3584 2469 3576 
Q 2541 3569 2628 3553 
L 2631 2963 
z
" transform="scale(0.015625)"/>
      </defs>
      <use xlink:href="#DejaVuSans-74"/>
      <use xlink:href="#DejaVuSans-68" x="39.208984"/>
      <use xlink:href="#DejaVuSans-65" x="102.587891"/>
      <use xlink:href="#DejaVuSans-74" x="164.111328"/>
      <use xlink:href="#DejaVuSans-61" x="203.320312"/>
      <use xlink:href="#DejaVuSans-20" x="264.599609"/>
      <use xlink:href="#DejaVuSans-28" x="296.386719"/>
      <use xlink:href="#DejaVuSans-64" x="335.400391"/>
      <use xlink:href="#DejaVuSans-65" x="398.876953"/>
      <use xlink:href="#DejaVuSans-67" x="460.400391"/>
      <use xlink:href="#DejaVuSans-72" x="523.876953"/>
      <use xlink:href="#DejaVuSans-65" x="562.740234"/>
      <use xlink:href="#DejaVuSans-65" x="624.263672"/>
      <use xlink:href="#DejaVuSans-29" x="685.787109"/>
     </g>
    </g>
   </g>
   <g id="line2d_33">
    <path d="M 65.21554 276.334125 
L 65.459031 276.228206 
L 65.702522 275.808896 
L 66.027176 274.77724 
L 66.514158 272.264776 
L 67.082303 267.864536 
L 67.650449 261.565367 
L 68.462085 249.636636 
L 69.517213 230.072877 
L 70.896994 199.929431 
L 75.117503 104.416644 
L 76.416122 80.874605 
L 77.471249 65.188483 
L 78.445213 53.720952 
L 79.338013 45.829554 
L 80.068485 41.214427 
L 80.717794 38.485264 
L 81.204776 37.254747 
L 81.610594 36.750726 
L 81.935249 36.667395 
L 82.17874 36.78194 
L 82.584558 37.32738 
L 82.990376 38.263108 
L 83.558522 40.223946 
L 84.207831 43.289197 
L 85.019467 48.218231 
L 85.993431 55.466744 
L 87.292049 66.788655 
L 89.483467 87.964847 
L 91.756049 109.292876 
L 93.216994 121.156742 
L 94.434449 129.419075 
L 95.57074 135.583481 
L 96.544703 139.612282 
L 97.437503 142.269713 
L 98.086813 143.598401 
L 98.654958 144.359624 
L 99.223103 144.742531 
L 99.628922 144.811857 
L 100.197067 144.608503 
L 100.602885 144.280451 
L 101.333358 143.296919 
L 101.982667 142.059339 
L 102.71314 140.310261 
L 103.930594 136.682966 
L 105.229213 132.14007 
L 107.420631 123.809808 
L 109.287394 116.975333 
L 110.991831 111.622897 
L 112.046958 108.900904 
L 113.264413 106.439599 
L 114.076049 105.215207 
L 114.806522 104.400014 
L 115.699322 103.789909 
L 116.267467 103.599832 
L 117.160267 103.628028 
L 117.728413 103.823373 
L 118.702376 104.478064 
L 119.919831 105.783567 
L 120.812631 107.010283 
L 122.760558 110.270832 
L 126.899903 117.872723 
L 129.010158 121.084107 
L 130.633431 122.943934 
L 132.094376 124.091672 
L 133.474158 124.699244 
L 134.204631 124.850163 
L 135.665576 124.794105 
L 137.288849 124.258471 
L 139.399103 123.001102 
L 146.216849 117.805686 
L 147.271976 117.195943 
L 149.625722 116.263781 
L 150.518522 116.059966 
L 152.791103 115.939189 
L 155.550667 116.427498 
L 161.069794 118.485736 
L 162.449576 119.020303 
L 167.157067 120.291536 
L 171.052922 120.511738 
L 176.896703 119.766273 
L 178.60114 119.449389 
L 180.305576 119.158865 
L 181.685358 118.941094 
L 184.039103 118.671859 
L 185.337722 118.575222 
L 186.555176 118.516243 
L 189.071249 118.521271 
L 190.451031 118.569311 
L 192.317794 118.694089 
L 193.697576 118.799567 
L 195.402013 118.95635 
L 196.944122 119.088104 
L 198.486231 119.222116 
L 200.190667 119.337451 
L 201.570449 119.420403 
L 203.437213 119.484703 
L 204.816994 119.516242 
L 206.521431 119.513126 
L 207.901213 119.500284 
L 209.605649 119.450729 
L 211.147758 119.402805 
L 212.689867 119.335578 
L 214.231976 119.277784 
L 215.774085 119.211122 
L 217.316194 119.16301 
L 218.858303 119.11333 
L 220.56274 119.08477 
L 222.104849 119.061532 
L 223.809285 119.06288 
L 225.351394 119.065092 
L 226.893503 119.088417 
L 228.435613 119.107204 
L 229.977722 119.142093 
L 231.519831 119.167195 
L 233.06194 119.203319 
L 234.604049 119.2251 
L 236.146158 119.254135 
L 237.688267 119.266029 
L 239.230376 119.283435 
L 240.772485 119.283011 
L 242.314594 119.288388 
L 243.856703 119.277063 
L 245.398813 119.273321 
L 246.940922 119.255104 
L 248.483031 119.246927 
L 250.02514 119.226757 
L 251.567249 119.218947 
L 253.109358 119.201155 
L 254.651467 119.197316 
L 256.193576 119.184604 
L 257.735685 119.18645 
L 259.277794 119.17954 
L 260.819903 119.186865 
L 262.362012 119.184752 
L 263.904122 119.195925 
L 265.446231 119.196543 
L 266.98834 119.209268 
L 268.530449 119.210287 
L 270.072558 119.222371 
L 271.614667 119.22188 
L 273.156776 119.2318 
L 274.698885 119.228727 
L 276.240994 119.235884 
L 277.783103 119.230091 
L 279.325213 119.234762 
L 280.867322 119.226871 
L 282.409431 119.229937 
L 283.95154 119.220989 
L 285.493649 119.223558 
L 287.035758 119.214642 
L 288.577867 119.217702 
L 290.119976 119.209647 
L 291.662085 119.213831 
L 293.204194 119.207047 
L 294.746303 119.21254 
L 296.288413 119.207002 
L 297.830522 119.213594 
L 299.372631 119.208948 
L 300.91474 119.216185 
L 302.456849 119.211917 
L 303.998958 119.219271 
L 305.541067 119.214884 
L 307.083176 119.221918 
L 308.625285 119.217057 
L 310.167394 119.223518 
L 311.709503 119.218038 
L 313.251613 119.223884 
L 314.793722 119.217838 
L 316.335831 119.223202 
L 317.87794 119.216782 
L 319.420049 119.221894 
L 320.962158 119.215349 
L 322.504267 119.220456 
L 324.046376 119.214012 
L 325.588485 119.219306 
L 327.130594 119.213109 
L 328.672703 119.218687 
L 330.214812 119.212785 
L 331.756922 119.218645 
L 333.299031 119.212996 
L 334.84114 119.219063 
L 336.383249 119.213565 
L 337.925358 119.219723 
L 339.467467 119.214258 
L 341.009576 119.220395 
L 342.551685 119.214862 
L 344.093794 119.220896 
L 345.635903 119.215236 
L 347.178013 119.221131 
L 348.720122 119.215332 
L 350.262231 119.221098 
L 351.80434 119.215188 
L 353.346449 119.220868 
L 354.888558 119.214898 
L 356.430667 119.220546 
L 357.972776 119.214573 
L 359.514885 119.220242 
L 361.056994 119.214309 
L 362.599103 119.220032 
L 364.141213 119.214162 
L 365.683322 119.219951 
L 367.225431 119.214146 
L 368.76754 119.219993 
L 370.309649 119.214235 
L 371.851758 119.220117 
L 373.393867 119.214382 
L 374.935976 119.220273 
L 376.478085 119.214534 
L 378.020194 119.220411 
L 379.562303 119.214649 
L 381.104413 119.220498 
L 382.646522 119.214705 
L 384.188631 119.220523 
L 385.73074 119.214701 
L 387.272849 119.220493 
L 388.814958 119.214651 
L 389.870085 119.22044 
L 389.870085 119.22044 
" clip-path="url(#pdba87bb0ec)" style="fill: none; stroke: #1f77b4; stroke-width: 1.5; stroke-linecap: square"/>
   </g>
   <g id="line2d_34">
    <path d="M 65.21554 39.77054 
L 65.377867 39.815135 
L 65.621358 40.210994 
L 65.946013 41.32852 
L 66.351831 43.616792 
L 66.919976 48.33212 
L 67.650449 56.618704 
L 68.624413 70.662547 
L 70.085358 95.560791 
L 73.494231 154.69484 
L 74.792849 172.972838 
L 75.847976 185.018392 
L 76.82194 193.672882 
L 77.633576 199.019468 
L 78.364049 202.386691 
L 78.932194 204.081196 
L 79.419176 204.91086 
L 79.824994 205.178792 
L 80.149649 205.125914 
L 80.474303 204.843995 
L 80.880122 204.18244 
L 81.28594 202.952572 
L 81.772922 200.666937 
L 82.341067 196.978994 
L 83.152703 190.024094 
L 84.207831 178.59491 
L 85.506449 161.976041 
L 90.700922 93.319575 
L 91.918376 81.387651 
L 92.89234 73.725837 
L 93.78514 68.269301 
L 94.596776 64.645465 
L 95.327249 62.465397 
L 95.814231 61.560531 
L 96.220049 61.128142 
L 96.625867 60.997542 
L 96.950522 61.089641 
L 97.275176 61.35497 
L 97.680994 61.914746 
L 98.330303 63.331967 
L 99.14194 65.91181 
L 100.115903 70.033646 
L 101.333358 76.444384 
L 102.71314 84.848408 
L 107.420631 114.644478 
L 108.719249 121.339924 
L 109.85554 126.225486 
L 110.829503 129.610647 
L 111.722303 132.039807 
L 112.615103 133.801418 
L 113.264413 134.681924 
L 113.832558 135.186996 
L 114.563031 135.465762 
L 115.050013 135.443627 
L 115.536994 135.26159 
L 116.10514 134.865577 
L 116.99794 133.852541 
L 117.728413 132.734751 
L 119.027031 130.20046 
L 120.974958 125.550869 
L 124.221503 117.365372 
L 125.601285 114.313735 
L 127.224558 111.380491 
L 128.523176 109.643637 
L 129.659467 108.605809 
L 130.795758 108.022951 
L 131.850885 107.882189 
L 132.500194 107.970195 
L 133.149503 108.184801 
L 133.879976 108.560186 
L 135.340922 109.708227 
L 137.288849 111.838728 
L 142.88914 118.927096 
L 145.080558 121.030425 
L 146.054522 121.736184 
L 146.947322 122.251745 
L 148.651758 122.848592 
L 149.463394 122.969022 
L 150.275031 122.988371 
L 151.167831 122.907113 
L 153.359249 122.279798 
L 154.414376 121.826156 
L 161.150958 118.257826 
L 164.397503 117.155149 
L 167.319394 116.831348 
L 170.728267 117.183619 
L 180.062085 119.576625 
L 185.256558 120.109176 
L 192.398958 119.555267 
L 193.941067 119.353072 
L 195.645503 119.152766 
L 197.025285 118.999997 
L 198.892049 118.848231 
L 200.271831 118.761954 
L 202.300922 118.708472 
L 203.680703 118.701071 
L 205.547467 118.748423 
L 206.927249 118.799548 
L 208.631685 118.897336 
L 210.173794 118.98666 
L 211.715903 119.090541 
L 213.258013 119.178413 
L 214.800122 119.267368 
L 216.504558 119.335673 
L 217.88434 119.385165 
L 219.588776 119.411768 
L 220.968558 119.42665 
L 222.672994 119.41277 
L 224.215103 119.395812 
L 225.91954 119.352108 
L 227.461649 119.316334 
L 229.003758 119.26607 
L 230.545867 119.228185 
L 232.087976 119.182596 
L 233.630085 119.154999 
L 235.172194 119.123877 
L 236.876631 119.112176 
L 238.41874 119.100121 
L 239.960849 119.108175 
L 241.502958 119.111958 
L 243.045067 119.13314 
L 244.587176 119.14671 
L 246.129285 119.174026 
L 247.671394 119.190068 
L 249.213503 119.216452 
L 250.755613 119.228636 
L 252.297722 119.248866 
L 253.839831 119.253322 
L 255.38194 119.264999 
L 256.924049 119.260795 
L 258.466158 119.264347 
L 260.008267 119.253076 
L 261.550376 119.251001 
L 263.092485 119.235779 
L 264.634594 119.231509 
L 266.176703 119.215793 
L 267.718813 119.212562 
L 269.260922 119.199153 
L 270.803031 119.199175 
L 272.34514 119.189614 
L 273.887249 119.193724 
L 275.429358 119.188166 
L 276.971467 119.195911 
L 278.513576 119.1934 
L 280.055685 119.203453 
L 281.597794 119.20243 
L 283.139903 119.213144 
L 284.682013 119.212005 
L 286.224122 119.221927 
L 287.766231 119.21946 
L 289.30834 119.227678 
L 290.850449 119.223301 
L 292.392558 119.229566 
L 293.934667 119.22334 
L 295.476776 119.22798 
L 297.018885 119.220444 
L 298.560994 119.224148 
L 300.103103 119.216071 
L 301.645213 119.21962 
L 303.187322 119.211739 
L 304.729431 119.215777 
L 306.27154 119.208608 
L 307.813649 119.213502 
L 309.355758 119.207253 
L 310.897867 119.213056 
L 312.439976 119.20764 
L 313.982085 119.214149 
L 315.524194 119.209276 
L 317.066303 119.216144 
L 318.608413 119.211443 
L 320.150522 119.218306 
L 321.692631 119.213444 
L 323.23474 119.220022 
L 324.776849 119.214785 
L 326.318958 119.220937 
L 327.861067 119.215259 
L 329.403176 119.22099 
L 330.945285 119.21494 
L 332.487394 119.220366 
L 334.029503 119.214094 
L 335.571613 119.219387 
L 337.113722 119.21307 
L 338.655831 119.218399 
L 340.19794 119.212185 
L 341.740049 119.217669 
L 343.282158 119.211645 
L 344.824267 119.217336 
L 346.366376 119.211519 
L 347.908485 119.2174 
L 349.450594 119.211746 
L 350.992703 119.217754 
L 352.534813 119.212186 
L 354.076922 119.218239 
L 355.619031 119.212674 
L 357.16114 119.218695 
L 358.703249 119.213069 
L 360.245358 119.219007 
L 361.787467 119.213287 
L 363.329576 119.219126 
L 364.871685 119.213309 
L 366.413794 119.219062 
L 367.955903 119.213175 
L 369.498013 119.218876 
L 371.040122 119.212957 
L 372.582231 119.218646 
L 374.12434 119.212732 
L 375.666449 119.218442 
L 377.208558 119.212562 
L 378.750667 119.218315 
L 380.292776 119.212481 
L 381.834885 119.21828 
L 383.376994 119.21249 
L 384.919103 119.218327 
L 386.461212 119.212567 
L 388.003322 119.218424 
L 389.545431 119.212675 
L 389.870085 119.212687 
L 389.870085 119.212687 
" clip-path="url(#pdba87bb0ec)" style="fill: none; stroke: #ff7f0e; stroke-width: 1.5; stroke-linecap: square"/>
   </g>
   <g id="line2d_35">
    <path d="M 65.21554 103.246687 
L 65.783685 103.141056 
L 66.351831 102.800512 
L 67.00114 102.147539 
L 67.812776 100.976208 
L 68.78674 99.121095 
L 70.004194 96.247828 
L 71.059322 93.783351 
L 71.708631 92.768132 
L 72.276776 92.204493 
L 72.844922 91.95415 
L 73.25074 91.952776 
L 73.818885 92.214219 
L 74.305867 92.664255 
L 74.874013 93.443461 
L 75.685649 95.020736 
L 76.659613 97.567131 
L 77.795903 101.322313 
L 79.256849 107.129497 
L 81.610594 117.840331 
L 84.938303 132.767885 
L 86.236922 137.659187 
L 87.373213 141.240621 
L 88.347176 143.70704 
L 89.158813 145.30037 
L 89.889285 146.364455 
L 90.700922 147.117168 
L 91.431394 147.407828 
L 91.918376 147.406599 
L 92.405358 147.250221 
L 92.973503 146.882198 
L 93.78514 146.009495 
L 94.759103 144.473435 
L 95.895394 142.088134 
L 97.35634 138.265877 
L 99.547758 131.516968 
L 103.930594 117.990197 
L 105.553867 114.045743 
L 106.852485 111.571646 
L 107.988776 109.961923 
L 109.043903 108.955049 
L 109.774376 108.521064 
L 110.74834 108.286632 
L 111.722303 108.418168 
L 112.777431 108.944681 
L 113.507903 109.506627 
L 114.887685 110.972592 
L 115.942813 112.356351 
L 118.864703 116.860131 
L 120.812631 119.892569 
L 122.192413 121.832466 
L 124.059176 123.972135 
L 125.03314 124.826761 
L 125.92594 125.440145 
L 127.386885 126.061273 
L 128.847831 126.225843 
L 130.308776 125.967971 
L 132.094376 125.165267 
L 134.529285 123.452419 
L 138.668631 119.97483 
L 141.834013 117.80085 
L 142.88914 117.271253 
L 145.161722 116.553283 
L 147.434303 116.395095 
L 150.03154 116.802083 
L 154.576703 118.397124 
L 156.118813 119.007753 
L 161.394449 120.531482 
L 162.53074 120.688372 
L 163.667031 120.776711 
L 164.803322 120.798799 
L 165.939613 120.759402 
L 167.157067 120.662514 
L 177.951831 118.825604 
L 184.931903 118.599326 
L 186.960994 118.729427 
L 188.340776 118.835316 
L 190.045213 118.994293 
L 191.587322 119.129107 
L 193.129431 119.266472 
L 194.833867 119.385317 
L 196.213649 119.470466 
L 198.080413 119.536485 
L 199.460194 119.568091 
L 201.326958 119.562141 
L 202.70674 119.544951 
L 204.411176 119.489419 
L 205.953285 119.435734 
L 207.495394 119.362782 
L 209.037503 119.299496 
L 210.579613 119.227875 
L 212.121722 119.17545 
L 213.663831 119.122289 
L 215.368267 119.090852 
L 216.910376 119.065945 
L 218.614813 119.066346 
L 220.156922 119.068456 
L 221.861358 119.094573 
L 223.403467 119.114835 
L 224.945576 119.151112 
L 226.487685 119.177428 
L 228.029794 119.214433 
L 229.571903 119.236742 
L 231.114013 119.265874 
L 232.656122 119.277485 
L 234.198231 119.294216 
L 235.74034 119.292833 
L 237.282449 119.296995 
L 238.824558 119.284332 
L 240.366667 119.279171 
L 241.908776 119.259584 
L 243.450885 119.250113 
L 244.992994 119.228829 
L 246.535103 119.220085 
L 248.077213 119.201604 
L 249.619322 119.197289 
L 251.161431 119.184345 
L 252.70354 119.186139 
L 254.245649 119.179363 
L 255.787758 119.186932 
L 257.329867 119.185165 
L 258.871976 119.196705 
L 260.414085 119.197711 
L 261.956194 119.210769 
L 263.498303 119.212079 
L 265.040413 119.224353 
L 266.582522 119.223981 
L 268.124631 119.233906 
L 269.66674 119.230767 
L 271.208849 119.237763 
L 272.750958 119.231764 
L 274.293067 119.236169 
L 275.835176 119.228005 
L 277.377285 119.230775 
L 278.919394 119.221563 
L 280.461503 119.223878 
L 282.003613 119.214764 
L 283.545722 119.217657 
L 285.087831 119.209501 
L 286.62994 119.213616 
L 288.172049 119.206826 
L 289.714158 119.212335 
L 291.256267 119.206862 
L 292.798376 119.213524 
L 294.340485 119.208977 
L 295.882594 119.216298 
L 297.424703 119.212127 
L 298.966813 119.219549 
L 300.508922 119.215229 
L 302.051031 119.222294 
L 303.59314 119.21746 
L 305.135249 119.223909 
L 306.677358 119.218415 
L 308.219467 119.224215 
L 309.761576 119.218128 
L 311.303685 119.223426 
L 312.845794 119.216954 
L 314.387903 119.221999 
L 315.930013 119.215409 
L 317.472122 119.220461 
L 319.014231 119.213988 
L 320.55634 119.219247 
L 322.098449 119.213043 
L 323.640558 119.218607 
L 325.182667 119.212718 
L 326.724776 119.218582 
L 328.266885 119.212958 
L 329.808994 119.219037 
L 331.351103 119.21357 
L 332.893213 119.219741 
L 334.435322 119.214304 
L 335.977431 119.220448 
L 337.51954 119.214935 
L 339.061649 119.220968 
L 340.603758 119.215318 
L 342.145867 119.221202 
L 343.687976 119.215405 
L 345.230085 119.221153 
L 346.772194 119.21524 
L 348.314303 119.220899 
L 349.856413 119.214925 
L 351.398522 119.220553 
L 352.940631 119.214577 
L 354.48274 119.220228 
L 356.024849 119.214297 
L 357.566958 119.220008 
L 359.109067 119.214145 
L 360.651176 119.219926 
L 362.193285 119.214131 
L 363.735394 119.219974 
L 365.277503 119.214229 
L 366.819613 119.220108 
L 368.361722 119.214386 
L 369.903831 119.220273 
L 371.44594 119.214547 
L 372.988049 119.220419 
L 374.530158 119.214667 
L 376.072267 119.220509 
L 377.614376 119.214724 
L 379.156485 119.220533 
L 380.698594 119.214717 
L 382.240703 119.220499 
L 383.782813 119.214662 
L 385.324922 119.220429 
L 386.867031 119.214584 
L 388.40914 119.22035 
L 389.870085 119.220317 
L 389.870085 119.220317 
" clip-path="url(#pdba87bb0ec)" style="fill: none; stroke: #2ca02c; stroke-width: 1.5; stroke-linecap: square"/>
   </g>
   <g id="line2d_36">
    <path d="M 65.21554 127.201473 
L 65.621358 127.288485 
L 66.10834 127.669071 
L 66.676485 128.466615 
L 67.325794 129.800499 
L 68.137431 132.018565 
L 69.192558 135.639202 
L 70.653503 141.580824 
L 74.305867 156.877249 
L 74.955176 158.351124 
L 75.442158 158.926667 
L 75.847976 159.065416 
L 76.172631 158.968267 
L 76.497285 158.688259 
L 76.903103 158.095866 
L 77.471249 156.813851 
L 78.120558 154.771993 
L 78.851031 151.811513 
L 79.906158 146.458549 
L 81.123613 139.091143 
L 83.396194 123.475157 
L 85.831103 106.91583 
L 87.210885 98.760152 
L 88.509503 92.389676 
L 89.645794 88.044352 
L 90.619758 85.311965 
L 91.431394 83.756288 
L 92.161867 82.922427 
L 92.648849 82.653036 
L 93.054667 82.596175 
L 93.622813 82.786991 
L 94.109794 83.175561 
L 94.67794 83.878162 
L 95.489576 85.333229 
L 96.46354 87.694628 
L 97.680994 91.43617 
L 98.898449 95.819335 
L 102.144994 108.881021 
L 104.011758 116.036028 
L 105.716194 121.618629 
L 106.771322 124.472167 
L 107.988776 127.086059 
L 108.800413 128.414737 
L 109.530885 129.326261 
L 110.504849 130.111548 
L 111.397649 130.415939 
L 111.965794 130.425346 
L 112.858594 130.141935 
L 113.507903 129.739502 
L 114.238376 129.111578 
L 115.536994 127.583316 
L 117.403758 124.729623 
L 119.027031 121.930476 
L 122.841722 115.717021 
L 123.978013 114.262735 
L 124.951976 113.23097 
L 125.844776 112.469696 
L 127.224558 111.682402 
L 127.955031 111.442021 
L 129.253649 111.331371 
L 130.714594 111.640524 
L 132.419031 112.498818 
L 133.392994 113.174273 
L 134.448122 114.013776 
L 139.886085 118.878804 
L 142.564485 120.705586 
L 143.619613 121.225498 
L 145.729867 121.861304 
L 147.921285 121.976436 
L 148.895249 121.872733 
L 149.869213 121.686699 
L 150.92434 121.412573 
L 160.176994 118.08153 
L 161.313285 117.834593 
L 162.449576 117.657687 
L 163.504703 117.551471 
L 167.562885 117.689779 
L 177.221358 119.460603 
L 184.039103 119.866646 
L 186.230522 119.760889 
L 187.610303 119.666378 
L 189.31474 119.512595 
L 190.856849 119.374919 
L 192.398958 119.2287 
L 194.103394 119.094931 
L 195.483176 118.995153 
L 197.34994 118.907954 
L 198.729722 118.861031 
L 200.596485 118.848515 
L 201.976267 118.854598 
L 203.680703 118.900169 
L 205.141649 118.951304 
L 206.683758 119.010715 
L 208.225867 119.087343 
L 209.767976 119.152251 
L 211.310085 119.223622 
L 213.014522 119.279455 
L 214.556631 119.328128 
L 216.261067 119.353521 
L 217.803176 119.37258 
L 219.507613 119.365893 
L 221.049722 119.358726 
L 222.591831 119.33084 
L 224.13394 119.308206 
L 225.676049 119.270488 
L 227.218158 119.243685 
L 228.760267 119.20707 
L 230.302376 119.185919 
L 231.844485 119.15854 
L 233.386594 119.149098 
L 234.928703 119.134746 
L 236.470813 119.138537 
L 238.012922 119.136635 
L 239.555031 119.151279 
L 241.09714 119.158031 
L 242.639249 119.178766 
L 244.181358 119.18891 
L 245.723467 119.210414 
L 247.265576 119.218963 
L 248.807685 119.236907 
L 250.349794 119.240427 
L 251.891903 119.252413 
L 253.434013 119.249589 
L 254.976122 119.255353 
L 256.518231 119.246863 
L 258.06034 119.247861 
L 259.602449 119.235742 
L 261.144558 119.234373 
L 262.686667 119.221167 
L 264.228776 119.219913 
L 265.770885 119.207871 
L 267.312994 119.208618 
L 268.855103 119.199165 
L 270.397213 119.20283 
L 271.939322 119.19637 
L 273.481431 119.202877 
L 275.02354 119.19892 
L 276.565649 119.207448 
L 278.107758 119.20494 
L 279.649867 119.21431 
L 281.191976 119.212049 
L 282.734085 119.221124 
L 284.276194 119.218112 
L 285.818303 119.22609 
L 287.360413 119.221756 
L 288.902522 119.22831 
L 290.444631 119.222567 
L 291.98674 119.227826 
L 293.528849 119.220982 
L 295.070958 119.225391 
L 296.613067 119.217979 
L 298.155176 119.222108 
L 299.697285 119.214692 
L 301.239394 119.219058 
L 302.781503 119.212072 
L 304.323613 119.217009 
L 305.865722 119.210676 
L 307.407831 119.216289 
L 308.94994 119.210604 
L 310.492049 119.216793 
L 312.034158 119.211578 
L 313.576267 119.218111 
L 315.118376 119.213103 
L 316.660485 119.219708 
L 318.202594 119.214648 
L 319.744703 119.221095 
L 321.286812 119.215797 
L 322.828922 119.221952 
L 324.371031 119.216334 
L 325.91314 119.22217 
L 327.455249 119.216256 
L 328.997358 119.221838 
L 330.539467 119.215725 
L 332.081576 119.221171 
L 333.623685 119.214988 
L 335.165794 119.220425 
L 336.707903 119.21429 
L 338.250013 119.21982 
L 339.792122 119.21381 
L 341.334231 119.219485 
L 342.87634 119.213627 
L 344.418449 119.21945 
L 345.960558 119.213725 
L 347.502667 119.219657 
L 349.044776 119.214013 
L 350.586885 119.219996 
L 352.128994 119.214372 
L 353.671103 119.220346 
L 355.213213 119.214689 
L 356.755322 119.220612 
L 358.297431 119.21489 
L 359.83954 119.220742 
L 361.381649 119.214948 
L 362.923758 119.220731 
L 364.465867 119.214879 
L 366.007976 119.220616 
L 367.550085 119.214731 
L 369.092194 119.220451 
L 370.634303 119.214563 
L 372.176413 119.220291 
L 373.718522 119.214423 
L 375.260631 119.220179 
L 376.80274 119.214343 
L 378.344849 119.220134 
L 379.886958 119.214331 
L 381.429067 119.220152 
L 382.971176 119.214375 
L 384.513285 119.220215 
L 386.055394 119.21445 
L 387.597503 119.220296 
L 389.139613 119.214529 
L 389.870085 119.220351 
L 389.870085 119.220351 
" clip-path="url(#pdba87bb0ec)" style="fill: none; stroke: #d62728; stroke-width: 1.5; stroke-linecap: square"/>
   </g>
   <g id="line2d_37">
    <path d="M 65.21554 214.955029 
L 65.377867 214.902577 
L 65.621358 214.437117 
L 65.946013 213.12377 
L 66.351831 210.436554 
L 66.919976 204.905761 
L 67.650449 195.204589 
L 68.624413 178.81348 
L 70.166522 148.270834 
L 73.169576 88.340892 
L 74.468194 66.905351 
L 75.604485 51.672301 
L 76.497285 42.320274 
L 77.146594 37.720729 
L 77.633576 35.599799 
L 78.039394 34.661013 
L 78.282885 34.427698 
L 78.526376 34.454747 
L 78.769867 34.704414 
L 79.175685 35.642251 
L 79.581503 37.156867 
L 80.230813 40.712244 
L 81.042449 46.849382 
L 82.016413 56.221351 
L 83.396194 72.117582 
L 88.752994 136.411325 
L 89.970449 147.124648 
L 90.944413 153.99178 
L 91.837213 158.882392 
L 92.648849 162.137112 
L 93.379322 164.108031 
L 93.866303 164.93929 
L 94.272122 165.350603 
L 94.759103 165.503232 
L 95.246085 165.307839 
L 95.733067 164.782662 
L 96.382376 163.604186 
L 97.194013 161.43547 
L 98.167976 157.956478 
L 99.466594 152.156105 
L 101.414522 141.936267 
L 104.49874 125.342072 
L 105.959685 118.510127 
L 107.17714 113.695055 
L 108.394594 109.838494 
L 109.287394 107.644152 
L 110.261358 105.891777 
L 111.154158 104.865792 
L 111.722303 104.479516 
L 112.452776 104.298197 
L 112.939758 104.352047 
L 113.507903 104.578399 
L 114.400703 105.288792 
L 115.131176 106.133545 
L 116.429794 108.148484 
L 118.215394 111.659069 
L 122.517067 120.889111 
L 124.383831 124.13959 
L 125.357794 125.495501 
L 126.250594 126.509362 
L 127.549213 127.554366 
L 128.766667 128.072335 
L 129.49714 128.187519 
L 130.714594 128.044336 
L 131.445067 127.792269 
L 132.987176 126.872141 
L 133.879976 126.160315 
L 136.63954 123.404113 
L 138.830958 121.035049 
L 141.99634 118.105154 
L 143.051467 117.357716 
L 144.999394 116.37899 
L 146.947322 115.925379 
L 149.057576 115.985902 
L 151.654813 116.685398 
L 160.014667 120.286571 
L 163.42354 121.027141 
L 166.913576 121.037522 
L 168.049867 120.904932 
L 169.267322 120.712225 
L 171.945722 120.135536 
L 173.487831 119.778327 
L 175.02994 119.419867 
L 177.221358 118.988346 
L 178.519976 118.782633 
L 179.737431 118.627485 
L 185.905867 118.533462 
L 187.934958 118.697773 
L 189.31474 118.827411 
L 191.019176 119.013776 
L 192.561285 119.169576 
L 194.022231 119.310087 
L 195.402013 119.429991 
L 197.268776 119.541205 
L 198.648558 119.602507 
L 200.515322 119.628851 
L 201.895103 119.628631 
L 203.59954 119.585252 
L 204.979322 119.541201 
L 206.683758 119.457253 
L 208.225867 119.383883 
L 209.767976 119.297671 
L 211.310085 119.227803 
L 212.852194 119.155871 
L 214.556631 119.104016 
L 216.017576 119.069572 
L 217.478522 119.04965 
L 218.939467 119.043833 
L 220.481576 119.045745 
L 222.186013 119.073867 
L 223.728122 119.097482 
L 225.270231 119.13817 
L 226.81234 119.169432 
L 228.354449 119.211528 
L 229.896558 119.238621 
L 231.438667 119.271952 
L 232.980776 119.286886 
L 234.522885 119.305965 
L 236.064994 119.30585 
L 237.607103 119.310277 
L 239.149213 119.29693 
L 240.691322 119.29034 
L 242.233431 119.268728 
L 243.77554 119.256895 
L 245.317649 119.233079 
L 246.859758 119.221877 
L 248.401867 119.201141 
L 249.943976 119.194947 
L 251.486085 119.18055 
L 253.028194 119.181407 
L 254.570303 119.174175 
L 256.112413 119.181775 
L 257.654522 119.180428 
L 259.196631 119.19273 
L 260.73874 119.194704 
L 262.280849 119.208875 
L 263.822958 119.211304 
L 265.365067 119.224656 
L 266.907176 119.225207 
L 268.449285 119.235887 
L 269.991394 119.233266 
L 271.533503 119.240562 
L 273.075613 119.23462 
L 274.617722 119.238893 
L 276.159831 119.230409 
L 277.70194 119.23275 
L 279.244049 119.223009 
L 280.786158 119.22478 
L 282.328267 119.215114 
L 283.870376 119.217521 
L 285.412485 119.20894 
L 286.954594 119.212746 
L 288.496703 119.205739 
L 290.038813 119.211158 
L 291.580922 119.205683 
L 293.123031 119.21245 
L 294.66514 119.208062 
L 296.207249 119.21561 
L 297.749358 119.211677 
L 299.291467 119.21936 
L 300.833576 119.21527 
L 302.375685 119.222553 
L 303.917794 119.217878 
L 305.459903 119.224454 
L 307.002013 119.219019 
L 308.544122 119.224844 
L 310.086231 119.218719 
L 311.62834 119.223957 
L 313.170449 119.217381 
L 314.712558 119.22232 
L 316.254667 119.215599 
L 317.796776 119.220539 
L 319.338885 119.213948 
L 320.880994 119.219123 
L 322.423103 119.212841 
L 323.965213 119.218367 
L 325.507322 119.212447 
L 327.049431 119.218321 
L 328.59154 119.21271 
L 330.133649 119.218835 
L 331.675758 119.213408 
L 333.217867 119.219643 
L 334.759976 119.214253 
L 336.302085 119.22046 
L 337.844194 119.214985 
L 339.386303 119.221064 
L 340.928413 119.215432 
L 342.470522 119.22134 
L 344.012631 119.215539 
L 345.55474 119.221289 
L 347.096849 119.215353 
L 348.638958 119.220999 
L 350.181067 119.214991 
L 351.723176 119.2206 
L 353.265285 119.214589 
L 354.807394 119.220225 
L 356.349503 119.214265 
L 357.891613 119.219968 
L 359.433722 119.214086 
L 360.975831 119.219871 
L 362.51794 119.214068 
L 364.060049 119.219924 
L 365.602158 119.214179 
L 367.144267 119.220077 
L 368.686376 119.214359 
L 370.228485 119.220268 
L 371.770594 119.214544 
L 373.312703 119.220435 
L 374.854812 119.214684 
L 376.396922 119.22054 
L 377.939031 119.214751 
L 379.48114 119.220568 
L 381.023249 119.214743 
L 382.565358 119.22053 
L 384.107467 119.21468 
L 385.649576 119.22045 
L 387.191685 119.214591 
L 388.733794 119.220359 
L 389.870085 119.220329 
L 389.870085 119.220329 
" clip-path="url(#pdba87bb0ec)" style="fill: none; stroke: #9467bd; stroke-width: 1.5; stroke-linecap: square"/>
   </g>
   <g id="patch_3">
    <path d="M 48.982813 288.430125 
L 48.982813 22.318125 
" style="fill: none; stroke: #000000; stroke-width: 0.8; stroke-linejoin: miter; stroke-linecap: square"/>
   </g>
   <g id="patch_4">
    <path d="M 406.102813 288.430125 
L 406.102813 22.318125 
" style="fill: none; stroke: #000000; stroke-width: 0.8; stroke-linejoin: miter; stroke-linecap: square"/>
   </g>
   <g id="patch_5">
    <path d="M 48.982813 288.430125 
L 406.102813 288.430125 
" style="fill: none; stroke: #000000; stroke-width: 0.8; stroke-linejoin: miter; stroke-linecap: square"/>
   </g>
   <g id="patch_6">
    <path d="M 48.982813 22.318125 
L 406.102813 22.318125 
" style="fill: none; stroke: #000000; stroke-width: 0.8; stroke-linejoin: miter; stroke-linecap: square"/>
   </g>
   <g id="text_19">
    <!-- theta vs time -->
    <g transform="translate(187.62125 16.318125) scale(0.12 -0.12)">
     <defs>
      <path id="DejaVuSans-76" d="M 191 3500 
L 800 3500 
L 1894 563 
L 2988 3500 
L 3597 3500 
L 2284 0 
L 1503 0 
L 191 3500 
z
" transform="scale(0.015625)"/>
     </defs>
     <use xlink:href="#DejaVuSans-74"/>
     <use xlink:href="#DejaVuSans-68" x="39.208984"/>
     <use xlink:href="#DejaVuSans-65" x="102.587891"/>
     <use xlink:href="#DejaVuSans-74" x="164.111328"/>
     <use xlink:href="#DejaVuSans-61" x="203.320312"/>
     <use xlink:href="#DejaVuSans-20" x="264.599609"/>
     <use xlink:href="#DejaVuSans-76" x="296.386719"/>
     <use xlink:href="#DejaVuSans-73" x="355.566406"/>
     <use xlink:href="#DejaVuSans-20" x="407.666016"/>
     <use xlink:href="#DejaVuSans-74" x="439.453125"/>
     <use xlink:href="#DejaVuSans-69" x="478.662109"/>
     <use xlink:href="#DejaVuSans-6d" x="506.445312"/>
     <use xlink:href="#DejaVuSans-65" x="603.857422"/>
    </g>
   </g>
  </g>
 </g>
 <defs>
  <clipPath id="pdba87bb0ec">
   <rect x="48.982813" y="22.318125" width="357.12" height="266.112"/>
  </clipPath>
 </defs>
</svg>
