<?xml version="1.0" encoding="utf-8" standalone="no"?>
<!DOCTYPE svg PUBLIC "-//W3C//DTD SVG 1.1//EN"
  "http://www.w3.org/Graphics/SVG/1.1/DTD/svg11.dtd">
<svg xmlns:xlink="http://www.w3.org/1999/xlink" width="413.302812pt" height="411.675375pt" viewBox="0 0 413.302812 411.675375" xmlns="http://www.w3.org/2000/svg" version="1.1">
 <metadata>
  <rdf:RDF xmlns:dc="http://purl.org/dc/elements/1.1/" xmlns:cc="http://creativecommons.org/ns#" xmlns:rdf="http://www.w3.org/1999/02/22-rdf-syntax-ns#">
   <cc:Work>
    <dc:type rdf:resource="http://purl.org/dc/dcmitype/StillImage"/>
    <dc:date>2023-06-26T20:20:50.776129</dc:date>
    <dc:format>image/svg+xml</dc:format>
    <dc:creator>
     <cc:Agent>
      <dc:title>Matplotlib v3.7.1, https://matplotlib.org/</dc:title>
     </cc:Agent>
    </dc:creator>
   </cc:Work>
  </rdf:RDF>
 </metadata>
 <defs>
  <style type="text/css">*{stroke-linejoin: round; stroke-linecap: butt}</style>
 </defs>
 <g id="figure_1">
  <g id="patch_1">
   <path d="M 0 411.675375 
L 413.302812 411.675375 
L 413.302812 -0 
L 0 -0 
L 0 411.675375 
z
" style="fill: none"/>
  </g>
  <g id="axes_1">
   <g id="patch_2">
    <path d="M 48.982813 288.430125 
L 406.102813 288.430125 
L 406.102813 22.318125 
L 48.982813 22.318125 
L 48.982813 288.430125 
z
" style="fill: none"/>
   </g>
   <g id="matplotlib.axis_1">
    <g id="xtick_1">
     <g id="line2d_1">
      <path d="M 65.21554 288.430125 
L 65.21554 22.318125 
" clip-path="url(#p707503eb3f)" style="fill: none; stroke: #b0b0b0; stroke-width: 0.8; stroke-linecap: square"/>
     </g>
     <g id="line2d_2">
      <defs>
       <path id="me7951f7447" d="M 0 0 
L 0 3.5 
" style="stroke: #000000; stroke-width: 0.8"/>
      </defs>
      <g>
       <use xlink:href="#me7951f7447" x="65.21554" y="288.430125" style="stroke: #000000; stroke-width: 0.8"/>
      </g>
     </g>
     <g id="text_1">
      <!-- 0 -->
      <g transform="translate(62.03429 303.028562) scale(0.1 -0.1)">
       <defs>
        <path id="DejaVuSans-30" d="M 2034 4250 
Q 1547 4250 1301 3770 
Q 1056 3291 1056 2328 
Q 1056 1369 1301 889 
Q 1547 409 2034 409 
Q 2525 409 2770 889 
Q 3016 1369 3016 2328 
Q 3016 3291 2770 3770 
Q 2525 4250 2034 4250 
z
M 2034 4750 
Q 2819 4750 3233 4129 
Q 3647 3509 3647 2328 
Q 3647 1150 3233 529 
Q 2819 -91 2034 -91 
Q 1250 -91 836 529 
Q 422 1150 422 2328 
Q 422 3509 836 4129 
Q 1250 4750 2034 4750 
z
" transform="scale(0.015625)"/>
       </defs>
       <use xlink:href="#DejaVuSans-30"/>
      </g>
     </g>
    </g>
    <g id="xtick_2">
     <g id="line2d_3">
      <path d="M 119.324631 288.430125 
L 119.324631 22.318125 
" clip-path="url(#p707503eb3f)" style="fill: none; stroke: #b0b0b0; stroke-width: 0.8; stroke-linecap: square"/>
     </g>
     <g id="line2d_4">
      <g>
       <use xlink:href="#me7951f7447" x="119.324631" y="288.430125" style="stroke: #000000; stroke-width: 0.8"/>
      </g>
     </g>
     <g id="text_2">
      <!-- 2 -->
      <g transform="translate(116.143381 303.028562) scale(0.1 -0.1)">
       <defs>
        <path id="DejaVuSans-32" d="M 1228 531 
L 3431 531 
L 3431 0 
L 469 0 
L 469 531 
Q 828 903 1448 1529 
Q 2069 2156 2228 2338 
Q 2531 2678 2651 2914 
Q 2772 3150 2772 3378 
Q 2772 3750 2511 3984 
Q 2250 4219 1831 4219 
Q 1534 4219 1204 4116 
Q 875 4013 500 3803 
L 500 4441 
Q 881 4594 1212 4672 
Q 1544 4750 1819 4750 
Q 2544 4750 2975 4387 
Q 3406 4025 3406 3419 
Q 3406 3131 3298 2873 
Q 3191 2616 2906 2266 
Q 2828 2175 2409 1742 
Q 1991 1309 1228 531 
z
" transform="scale(0.015625)"/>
       </defs>
       <use xlink:href="#DejaVuSans-32"/>
      </g>
     </g>
    </g>
    <g id="xtick_3">
     <g id="line2d_5">
      <path d="M 173.433722 288.430125 
L 173.433722 22.318125 
" clip-path="url(#p707503eb3f)" style="fill: none; stroke: #b0b0b0; stroke-width: 0.8; stroke-linecap: square"/>
     </g>
     <g id="line2d_6">
      <g>
       <use xlink:href="#me7951f7447" x="173.433722" y="288.430125" style="stroke: #000000; stroke-width: 0.8"/>
      </g>
     </g>
     <g id="text_3">
      <!-- 4 -->
      <g transform="translate(170.252472 303.028562) scale(0.1 -0.1)">
       <defs>
        <path id="DejaVuSans-34" d="M 2419 4116 
L 825 1625 
L 2419 1625 
L 2419 4116 
z
M 2253 4666 
L 3047 4666 
L 3047 1625 
L 3713 1625 
L 3713 1100 
L 3047 1100 
L 3047 0 
L 2419 0 
L 2419 1100 
L 313 1100 
L 313 1709 
L 2253 4666 
z
" transform="scale(0.015625)"/>
       </defs>
       <use xlink:href="#DejaVuSans-34"/>
      </g>
     </g>
    </g>
    <g id="xtick_4">
     <g id="line2d_7">
      <path d="M 227.542812 288.430125 
L 227.542812 22.318125 
" clip-path="url(#p707503eb3f)" style="fill: none; stroke: #b0b0b0; stroke-width: 0.8; stroke-linecap: square"/>
     </g>
     <g id="line2d_8">
      <g>
       <use xlink:href="#me7951f7447" x="227.542812" y="288.430125" style="stroke: #000000; stroke-width: 0.8"/>
      </g>
     </g>
     <g id="text_4">
      <!-- 6 -->
      <g transform="translate(224.361562 303.028562) scale(0.1 -0.1)">
       <defs>
        <path id="DejaVuSans-36" d="M 2113 2584 
Q 1688 2584 1439 2293 
Q 1191 2003 1191 1497 
Q 1191 994 1439 701 
Q 1688 409 2113 409 
Q 2538 409 2786 701 
Q 3034 994 3034 1497 
Q 3034 2003 2786 2293 
Q 2538 2584 2113 2584 
z
M 3366 4563 
L 3366 3988 
Q 3128 4100 2886 4159 
Q 2644 4219 2406 4219 
Q 1781 4219 1451 3797 
Q 1122 3375 1075 2522 
Q 1259 2794 1537 2939 
Q 1816 3084 2150 3084 
Q 2853 3084 3261 2657 
Q 3669 2231 3669 1497 
Q 3669 778 3244 343 
Q 2819 -91 2113 -91 
Q 1303 -91 875 529 
Q 447 1150 447 2328 
Q 447 3434 972 4092 
Q 1497 4750 2381 4750 
Q 2619 4750 2861 4703 
Q 3103 4656 3366 4563 
z
" transform="scale(0.015625)"/>
       </defs>
       <use xlink:href="#DejaVuSans-36"/>
      </g>
     </g>
    </g>
    <g id="xtick_5">
     <g id="line2d_9">
      <path d="M 281.651903 288.430125 
L 281.651903 22.318125 
" clip-path="url(#p707503eb3f)" style="fill: none; stroke: #b0b0b0; stroke-width: 0.8; stroke-linecap: square"/>
     </g>
     <g id="line2d_10">
      <g>
       <use xlink:href="#me7951f7447" x="281.651903" y="288.430125" style="stroke: #000000; stroke-width: 0.8"/>
      </g>
     </g>
     <g id="text_5">
      <!-- 8 -->
      <g transform="translate(278.470653 303.028562) scale(0.1 -0.1)">
       <defs>
        <path id="DejaVuSans-38" d="M 2034 2216 
Q 1584 2216 1326 1975 
Q 1069 1734 1069 1313 
Q 1069 891 1326 650 
Q 1584 409 2034 409 
Q 2484 409 2743 651 
Q 3003 894 3003 1313 
Q 3003 1734 2745 1975 
Q 2488 2216 2034 2216 
z
M 1403 2484 
Q 997 2584 770 2862 
Q 544 3141 544 3541 
Q 544 4100 942 4425 
Q 1341 4750 2034 4750 
Q 2731 4750 3128 4425 
Q 3525 4100 3525 3541 
Q 3525 3141 3298 2862 
Q 3072 2584 2669 2484 
Q 3125 2378 3379 2068 
Q 3634 1759 3634 1313 
Q 3634 634 3220 271 
Q 2806 -91 2034 -91 
Q 1263 -91 848 271 
Q 434 634 434 1313 
Q 434 1759 690 2068 
Q 947 2378 1403 2484 
z
M 1172 3481 
Q 1172 3119 1398 2916 
Q 1625 2713 2034 2713 
Q 2441 2713 2670 2916 
Q 2900 3119 2900 3481 
Q 2900 3844 2670 4047 
Q 2441 4250 2034 4250 
Q 1625 4250 1398 4047 
Q 1172 3844 1172 3481 
z
" transform="scale(0.015625)"/>
       </defs>
       <use xlink:href="#DejaVuSans-38"/>
      </g>
     </g>
    </g>
    <g id="xtick_6">
     <g id="line2d_11">
      <path d="M 335.760994 288.430125 
L 335.760994 22.318125 
" clip-path="url(#p707503eb3f)" style="fill: none; stroke: #b0b0b0; stroke-width: 0.8; stroke-linecap: square"/>
     </g>
     <g id="line2d_12">
      <g>
       <use xlink:href="#me7951f7447" x="335.760994" y="288.430125" style="stroke: #000000; stroke-width: 0.8"/>
      </g>
     </g>
     <g id="text_6">
      <!-- 10 -->
      <g transform="translate(329.398494 303.028562) scale(0.1 -0.1)">
       <defs>
        <path id="DejaVuSans-31" d="M 794 531 
L 1825 531 
L 1825 4091 
L 703 3866 
L 703 4441 
L 1819 4666 
L 2450 4666 
L 2450 531 
L 3481 531 
L 3481 0 
L 794 0 
L 794 531 
z
" transform="scale(0.015625)"/>
       </defs>
       <use xlink:href="#DejaVuSans-31"/>
       <use xlink:href="#DejaVuSans-30" x="63.623047"/>
      </g>
     </g>
    </g>
    <g id="xtick_7">
     <g id="line2d_13">
      <path d="M 389.870085 288.430125 
L 389.870085 22.318125 
" clip-path="url(#p707503eb3f)" style="fill: none; stroke: #b0b0b0; stroke-width: 0.8; stroke-linecap: square"/>
     </g>
     <g id="line2d_14">
      <g>
       <use xlink:href="#me7951f7447" x="389.870085" y="288.430125" style="stroke: #000000; stroke-width: 0.8"/>
      </g>
     </g>
     <g id="text_7">
      <!-- 12 -->
      <g transform="translate(383.507585 303.028562) scale(0.1 -0.1)">
       <use xlink:href="#DejaVuSans-31"/>
       <use xlink:href="#DejaVuSans-32" x="63.623047"/>
      </g>
     </g>
    </g>
    <g id="text_8">
     <!-- time (s) -->
     <g transform="translate(208.151406 316.706687) scale(0.1 -0.1)">
      <defs>
       <path id="DejaVuSans-74" d="M 1172 4494 
L 1172 3500 
L 2356 3500 
L 2356 3053 
L 1172 3053 
L 1172 1153 
Q 1172 725 1289 603 
Q 1406 481 1766 481 
L 2356 481 
L 2356 0 
L 1766 0 
Q 1100 0 847 248 
Q 594 497 594 1153 
L 594 3053 
L 172 3053 
L 172 3500 
L 594 3500 
L 594 4494 
L 1172 4494 
z
" transform="scale(0.015625)"/>
       <path id="DejaVuSans-69" d="M 603 3500 
L 1178 3500 
L 1178 0 
L 603 0 
L 603 3500 
z
M 603 4863 
L 1178 4863 
L 1178 4134 
L 603 4134 
L 603 4863 
z
" transform="scale(0.015625)"/>
       <path id="DejaVuSans-6d" d="M 3328 2828 
Q 3544 3216 3844 3400 
Q 4144 3584 4550 3584 
Q 5097 3584 5394 3201 
Q 5691 2819 5691 2113 
L 5691 0 
L 5113 0 
L 5113 2094 
Q 5113 2597 4934 2840 
Q 4756 3084 4391 3084 
Q 3944 3084 3684 2787 
Q 3425 2491 3425 1978 
L 3425 0 
L 2847 0 
L 2847 2094 
Q 2847 2600 2669 2842 
Q 2491 3084 2119 3084 
Q 1678 3084 1418 2786 
Q 1159 2488 1159 1978 
L 1159 0 
L 581 0 
L 581 3500 
L 1159 3500 
L 1159 2956 
Q 1356 3278 1631 3431 
Q 1906 3584 2284 3584 
Q 2666 3584 2933 3390 
Q 3200 3197 3328 2828 
z
" transform="scale(0.015625)"/>
       <path id="DejaVuSans-65" d="M 3597 1894 
L 3597 1613 
L 953 1613 
Q 991 1019 1311 708 
Q 1631 397 2203 397 
Q 2534 397 2845 478 
Q 3156 559 3463 722 
L 3463 178 
Q 3153 47 2828 -22 
Q 2503 -91 2169 -91 
Q 1331 -91 842 396 
Q 353 884 353 1716 
Q 353 2575 817 3079 
Q 1281 3584 2069 3584 
Q 2775 3584 3186 3129 
Q 3597 2675 3597 1894 
z
M 3022 2063 
Q 3016 2534 2758 2815 
Q 2500 3097 2075 3097 
Q 1594 3097 1305 2825 
Q 1016 2553 972 2059 
L 3022 2063 
z
" transform="scale(0.015625)"/>
       <path id="DejaVuSans-20" transform="scale(0.015625)"/>
       <path id="DejaVuSans-28" d="M 1984 4856 
Q 1566 4138 1362 3434 
Q 1159 2731 1159 2009 
Q 1159 1288 1364 580 
Q 1569 -128 1984 -844 
L 1484 -844 
Q 1016 -109 783 600 
Q 550 1309 550 2009 
Q 550 2706 781 3412 
Q 1013 4119 1484 4856 
L 1984 4856 
z
" transform="scale(0.015625)"/>
       <path id="DejaVuSans-73" d="M 2834 3397 
L 2834 2853 
Q 2591 2978 2328 3040 
Q 2066 3103 1784 3103 
Q 1356 3103 1142 2972 
Q 928 2841 928 2578 
Q 928 2378 1081 2264 
Q 1234 2150 1697 2047 
L 1894 2003 
Q 2506 1872 2764 1633 
Q 3022 1394 3022 966 
Q 3022 478 2636 193 
Q 2250 -91 1575 -91 
Q 1294 -91 989 -36 
Q 684 19 347 128 
L 347 722 
Q 666 556 975 473 
Q 1284 391 1588 391 
Q 1994 391 2212 530 
Q 2431 669 2431 922 
Q 2431 1156 2273 1281 
Q 2116 1406 1581 1522 
L 1381 1569 
Q 847 1681 609 1914 
Q 372 2147 372 2553 
Q 372 3047 722 3315 
Q 1072 3584 1716 3584 
Q 2034 3584 2315 3537 
Q 2597 3491 2834 3397 
z
" transform="scale(0.015625)"/>
       <path id="DejaVuSans-29" d="M 513 4856 
L 1013 4856 
Q 1481 4119 1714 3412 
Q 1947 2706 1947 2009 
Q 1947 1309 1714 600 
Q 1481 -109 1013 -844 
L 513 -844 
Q 928 -128 1133 580 
Q 1338 1288 1338 2009 
Q 1338 2731 1133 3434 
Q 928 4138 513 4856 
z
" transform="scale(0.015625)"/>
      </defs>
      <use xlink:href="#DejaVuSans-74"/>
      <use xlink:href="#DejaVuSans-69" x="39.208984"/>
      <use xlink:href="#DejaVuSans-6d" x="66.992188"/>
      <use xlink:href="#DejaVuSans-65" x="164.404297"/>
      <use xlink:href="#DejaVuSans-20" x="225.927734"/>
      <use xlink:href="#DejaVuSans-28" x="257.714844"/>
      <use xlink:href="#DejaVuSans-73" x="296.728516"/>
      <use xlink:href="#DejaVuSans-29" x="348.828125"/>
     </g>
    </g>
   </g>
   <g id="matplotlib.axis_2">
    <g id="ytick_1">
     <g id="line2d_15">
      <path d="M 48.982813 280.582273 
L 406.102813 280.582273 
" clip-path="url(#p707503eb3f)" style="fill: none; stroke: #b0b0b0; stroke-width: 0.8; stroke-linecap: square"/>
     </g>
     <g id="line2d_16">
      <defs>
       <path id="m7c4e303254" d="M 0 0 
L -3.5 0 
" style="stroke: #000000; stroke-width: 0.8"/>
      </defs>
      <g>
       <use xlink:href="#m7c4e303254" x="48.982813" y="280.582273" style="stroke: #000000; stroke-width: 0.8"/>
      </g>
     </g>
     <g id="text_9">
      <!-- −15 -->
      <g transform="translate(20.878125 284.381491) scale(0.1 -0.1)">
       <defs>
        <path id="DejaVuSans-2212" d="M 678 2272 
L 4684 2272 
L 4684 1741 
L 678 1741 
L 678 2272 
z
" transform="scale(0.015625)"/>
        <path id="DejaVuSans-35" d="M 691 4666 
L 3169 4666 
L 3169 4134 
L 1269 4134 
L 1269 2991 
Q 1406 3038 1543 3061 
Q 1681 3084 1819 3084 
Q 2600 3084 3056 2656 
Q 3513 2228 3513 1497 
Q 3513 744 3044 326 
Q 2575 -91 1722 -91 
Q 1428 -91 1123 -41 
Q 819 9 494 109 
L 494 744 
Q 775 591 1075 516 
Q 1375 441 1709 441 
Q 2250 441 2565 725 
Q 2881 1009 2881 1497 
Q 2881 1984 2565 2268 
Q 2250 2553 1709 2553 
Q 1456 2553 1204 2497 
Q 953 2441 691 2322 
L 691 4666 
z
" transform="scale(0.015625)"/>
       </defs>
       <use xlink:href="#DejaVuSans-2212"/>
       <use xlink:href="#DejaVuSans-31" x="83.789062"/>
       <use xlink:href="#DejaVuSans-35" x="147.412109"/>
      </g>
     </g>
    </g>
    <g id="ytick_2">
     <g id="line2d_17">
      <path d="M 48.982813 246.373247 
L 406.102813 246.373247 
" clip-path="url(#p707503eb3f)" style="fill: none; stroke: #b0b0b0; stroke-width: 0.8; stroke-linecap: square"/>
     </g>
     <g id="line2d_18">
      <g>
       <use xlink:href="#m7c4e303254" x="48.982813" y="246.373247" style="stroke: #000000; stroke-width: 0.8"/>
      </g>
     </g>
     <g id="text_10">
      <!-- −10 -->
      <g transform="translate(20.878125 250.172466) scale(0.1 -0.1)">
       <use xlink:href="#DejaVuSans-2212"/>
       <use xlink:href="#DejaVuSans-31" x="83.789062"/>
       <use xlink:href="#DejaVuSans-30" x="147.412109"/>
      </g>
     </g>
    </g>
    <g id="ytick_3">
     <g id="line2d_19">
      <path d="M 48.982813 212.164222 
L 406.102813 212.164222 
" clip-path="url(#p707503eb3f)" style="fill: none; stroke: #b0b0b0; stroke-width: 0.8; stroke-linecap: square"/>
     </g>
     <g id="line2d_20">
      <g>
       <use xlink:href="#m7c4e303254" x="48.982813" y="212.164222" style="stroke: #000000; stroke-width: 0.8"/>
      </g>
     </g>
     <g id="text_11">
      <!-- −5 -->
      <g transform="translate(27.240625 215.96344) scale(0.1 -0.1)">
       <use xlink:href="#DejaVuSans-2212"/>
       <use xlink:href="#DejaVuSans-35" x="83.789062"/>
      </g>
     </g>
    </g>
    <g id="ytick_4">
     <g id="line2d_21">
      <path d="M 48.982813 177.955196 
L 406.102813 177.955196 
" clip-path="url(#p707503eb3f)" style="fill: none; stroke: #b0b0b0; stroke-width: 0.8; stroke-linecap: square"/>
     </g>
     <g id="line2d_22">
      <g>
       <use xlink:href="#m7c4e303254" x="48.982813" y="177.955196" style="stroke: #000000; stroke-width: 0.8"/>
      </g>
     </g>
     <g id="text_12">
      <!-- 0 -->
      <g transform="translate(35.620313 181.754415) scale(0.1 -0.1)">
       <use xlink:href="#DejaVuSans-30"/>
      </g>
     </g>
    </g>
    <g id="ytick_5">
     <g id="line2d_23">
      <path d="M 48.982813 143.746171 
L 406.102813 143.746171 
" clip-path="url(#p707503eb3f)" style="fill: none; stroke: #b0b0b0; stroke-width: 0.8; stroke-linecap: square"/>
     </g>
     <g id="line2d_24">
      <g>
       <use xlink:href="#m7c4e303254" x="48.982813" y="143.746171" style="stroke: #000000; stroke-width: 0.8"/>
      </g>
     </g>
     <g id="text_13">
      <!-- 5 -->
      <g transform="translate(35.620313 147.545389) scale(0.1 -0.1)">
       <use xlink:href="#DejaVuSans-35"/>
      </g>
     </g>
    </g>
    <g id="ytick_6">
     <g id="line2d_25">
      <path d="M 48.982813 109.537145 
L 406.102813 109.537145 
" clip-path="url(#p707503eb3f)" style="fill: none; stroke: #b0b0b0; stroke-width: 0.8; stroke-linecap: square"/>
     </g>
     <g id="line2d_26">
      <g>
       <use xlink:href="#m7c4e303254" x="48.982813" y="109.537145" style="stroke: #000000; stroke-width: 0.8"/>
      </g>
     </g>
     <g id="text_14">
      <!-- 10 -->
      <g transform="translate(29.257813 113.336364) scale(0.1 -0.1)">
       <use xlink:href="#DejaVuSans-31"/>
       <use xlink:href="#DejaVuSans-30" x="63.623047"/>
      </g>
     </g>
    </g>
    <g id="ytick_7">
     <g id="line2d_27">
      <path d="M 48.982813 75.32812 
L 406.102813 75.32812 
" clip-path="url(#p707503eb3f)" style="fill: none; stroke: #b0b0b0; stroke-width: 0.8; stroke-linecap: square"/>
     </g>
     <g id="line2d_28">
      <g>
       <use xlink:href="#m7c4e303254" x="48.982813" y="75.32812" style="stroke: #000000; stroke-width: 0.8"/>
      </g>
     </g>
     <g id="text_15">
      <!-- 15 -->
      <g transform="translate(29.257813 79.127338) scale(0.1 -0.1)">
       <use xlink:href="#DejaVuSans-31"/>
       <use xlink:href="#DejaVuSans-35" x="63.623047"/>
      </g>
     </g>
    </g>
    <g id="ytick_8">
     <g id="line2d_29">
      <path d="M 48.982813 41.119094 
L 406.102813 41.119094 
" clip-path="url(#p707503eb3f)" style="fill: none; stroke: #b0b0b0; stroke-width: 0.8; stroke-linecap: square"/>
     </g>
     <g id="line2d_30">
      <g>
       <use xlink:href="#m7c4e303254" x="48.982813" y="41.119094" style="stroke: #000000; stroke-width: 0.8"/>
      </g>
     </g>
     <g id="text_16">
      <!-- 20 -->
      <g transform="translate(29.257813 44.918313) scale(0.1 -0.1)">
       <use xlink:href="#DejaVuSans-32"/>
       <use xlink:href="#DejaVuSans-30" x="63.623047"/>
      </g>
     </g>
    </g>
    <g id="text_17">
     <!-- theta (degree) -->
     <g transform="translate(14.798438 191.615531) rotate(-90) scale(0.1 -0.1)">
      <defs>
       <path id="DejaVuSans-68" d="M 3513 2113 
L 3513 0 
L 2938 0 
L 2938 2094 
Q 2938 2591 2744 2837 
Q 2550 3084 2163 3084 
Q 1697 3084 1428 2787 
Q 1159 2491 1159 1978 
L 1159 0 
L 581 0 
L 581 4863 
L 1159 4863 
L 1159 2956 
Q 1366 3272 1645 3428 
Q 1925 3584 2291 3584 
Q 2894 3584 3203 3211 
Q 3513 2838 3513 2113 
z
" transform="scale(0.015625)"/>
       <path id="DejaVuSans-61" d="M 2194 1759 
Q 1497 1759 1228 1600 
Q 959 1441 959 1056 
Q 959 750 1161 570 
Q 1363 391 1709 391 
Q 2188 391 2477 730 
Q 2766 1069 2766 1631 
L 2766 1759 
L 2194 1759 
z
M 3341 1997 
L 3341 0 
L 2766 0 
L 2766 531 
Q 2569 213 2275 61 
Q 1981 -91 1556 -91 
Q 1019 -91 701 211 
Q 384 513 384 1019 
Q 384 1609 779 1909 
Q 1175 2209 1959 2209 
L 2766 2209 
L 2766 2266 
Q 2766 2663 2505 2880 
Q 2244 3097 1772 3097 
Q 1472 3097 1187 3025 
Q 903 2953 641 2809 
L 641 3341 
Q 956 3463 1253 3523 
Q 1550 3584 1831 3584 
Q 2591 3584 2966 3190 
Q 3341 2797 3341 1997 
z
" transform="scale(0.015625)"/>
       <path id="DejaVuSans-64" d="M 2906 2969 
L 2906 4863 
L 3481 4863 
L 3481 0 
L 2906 0 
L 2906 525 
Q 2725 213 2448 61 
Q 2172 -91 1784 -91 
Q 1150 -91 751 415 
Q 353 922 353 1747 
Q 353 2572 751 3078 
Q 1150 3584 1784 3584 
Q 2172 3584 2448 3432 
Q 2725 3281 2906 2969 
z
M 947 1747 
Q 947 1113 1208 752 
Q 1469 391 1925 391 
Q 2381 391 2643 752 
Q 2906 1113 2906 1747 
Q 2906 2381 2643 2742 
Q 2381 3103 1925 3103 
Q 1469 3103 1208 2742 
Q 947 2381 947 1747 
z
" transform="scale(0.015625)"/>
       <path id="DejaVuSans-67" d="M 2906 1791 
Q 2906 2416 2648 2759 
Q 2391 3103 1925 3103 
Q 1463 3103 1205 2759 
Q 947 2416 947 1791 
Q 947 1169 1205 825 
Q 1463 481 1925 481 
Q 2391 481 2648 825 
Q 2906 1169 2906 1791 
z
M 3481 434 
Q 3481 -459 3084 -895 
Q 2688 -1331 1869 -1331 
Q 1566 -1331 1297 -1286 
Q 1028 -1241 775 -1147 
L 775 -588 
Q 1028 -725 1275 -790 
Q 1522 -856 1778 -856 
Q 2344 -856 2625 -561 
Q 2906 -266 2906 331 
L 2906 616 
Q 2728 306 2450 153 
Q 2172 0 1784 0 
Q 1141 0 747 490 
Q 353 981 353 1791 
Q 353 2603 747 3093 
Q 1141 3584 1784 3584 
Q 2172 3584 2450 3431 
Q 2728 3278 2906 2969 
L 2906 3500 
L 3481 3500 
L 3481 434 
z
" transform="scale(0.015625)"/>
       <path id="DejaVuSans-72" d="M 2631 2963 
Q 2534 3019 2420 3045 
Q 2306 3072 2169 3072 
Q 1681 3072 1420 2755 
Q 1159 2438 1159 1844 
L 1159 0 
L 581 0 
L 581 3500 
L 1159 3500 
L 1159 2956 
Q 1341 3275 1631 3429 
Q 1922 3584 2338 3584 
Q 2397 3584 2469 3576 
Q 2541 3569 2628 3553 
L 2631 2963 
z
" transform="scale(0.015625)"/>
      </defs>
      <use xlink:href="#DejaVuSans-74"/>
      <use xlink:href="#DejaVuSans-68" x="39.208984"/>
      <use xlink:href="#DejaVuSans-65" x="102.587891"/>
      <use xlink:href="#DejaVuSans-74" x="164.111328"/>
      <use xlink:href="#DejaVuSans-61" x="203.320312"/>
      <use xlink:href="#DejaVuSans-20" x="264.599609"/>
      <use xlink:href="#DejaVuSans-28" x="296.386719"/>
      <use xlink:href="#DejaVuSans-64" x="335.400391"/>
      <use xlink:href="#DejaVuSans-65" x="398.876953"/>
      <use xlink:href="#DejaVuSans-67" x="460.400391"/>
      <use xlink:href="#DejaVuSans-72" x="523.876953"/>
      <use xlink:href="#DejaVuSans-65" x="562.740234"/>
      <use xlink:href="#DejaVuSans-65" x="624.263672"/>
      <use xlink:href="#DejaVuSans-29" x="685.787109"/>
     </g>
    </g>
   </g>
   <g id="line2d_31">
    <path d="M 65.21554 138.13589 
L 66.974085 138.038292 
L 70.491176 137.778015 
L 71.843903 137.973899 
L 73.331903 138.447594 
L 74.684631 139.104465 
L 76.307903 140.160658 
L 77.931176 141.485107 
L 78.60754 142.20896 
L 79.283903 143.269811 
L 80.230813 145.294311 
L 81.177722 147.838878 
L 82.530449 152.235013 
L 84.288994 158.920555 
L 86.588631 168.542315 
L 89.970449 182.727223 
L 92.270085 191.330969 
L 93.758085 196.168968 
L 95.381358 200.646082 
L 96.869358 203.952816 
L 97.95154 205.868615 
L 98.898449 207.207285 
L 99.980631 208.340408 
L 101.062813 209.067262 
L 102.144994 209.402782 
L 103.227176 209.366652 
L 104.309358 208.982631 
L 105.526813 208.162598 
L 106.473722 207.282295 
L 107.961722 205.491558 
L 109.179176 203.734508 
L 111.34354 200.089306 
L 115.131176 192.859052 
L 118.107176 187.154359 
L 120.136267 183.555341 
L 122.571176 179.770562 
L 124.600267 177.16817 
L 125.952994 175.736348 
L 127.170449 174.660705 
L 128.928994 173.487455 
L 130.011176 172.974825 
L 131.093358 172.618798 
L 132.17554 172.412779 
L 133.257722 172.348564 
L 134.339903 172.416553 
L 135.557358 172.632449 
L 137.721722 173.352034 
L 140.427176 174.703311 
L 145.838085 178.129674 
L 148.137722 179.587111 
L 152.060631 181.689802 
L 153.683903 182.363166 
L 155.171903 182.864535 
L 158.012631 183.466554 
L 159.500631 183.610579 
L 162.476631 183.539262 
L 165.858449 182.963462 
L 167.616994 182.510007 
L 174.651176 180.108613 
L 177.221358 179.198913 
L 183.443903 177.440387 
L 188.043176 176.739051 
L 192.912994 176.591214 
L 199.270813 177.110149 
L 201.840994 177.443135 
L 205.222813 177.923842 
L 209.416267 178.462574 
L 211.715903 178.709547 
L 220.373358 179.096751 
L 232.277358 178.487313 
L 235.388631 178.244493 
L 238.770449 178.011768 
L 241.340631 177.855486 
L 245.804631 177.679345 
L 248.374813 177.621904 
L 252.838813 177.620838 
L 255.408994 177.653807 
L 259.061358 177.748941 
L 261.902085 177.83139 
L 265.013358 177.936281 
L 268.124631 178.024458 
L 270.965358 178.100462 
L 274.347176 178.156051 
L 277.187903 178.188834 
L 280.569722 178.189818 
L 283.410449 178.179198 
L 286.792267 178.136634 
L 289.632994 178.099073 
L 292.744267 178.042297 
L 295.85554 177.995606 
L 298.83154 177.951243 
L 301.672267 177.911745 
L 304.78354 177.889734 
L 307.624267 177.871077 
L 310.73554 177.872462 
L 313.576267 177.873617 
L 316.68754 177.893154 
L 319.798813 177.908435 
L 322.910085 177.936088 
L 326.021358 177.953636 
L 329.132631 177.978332 
L 332.243903 177.988776 
L 335.355176 178.003576 
L 338.466449 178.002783 
L 341.577722 178.006384 
L 344.688994 177.995608 
L 347.800267 177.991319 
L 350.91154 177.975278 
L 354.022812 177.968527 
L 357.134085 177.952691 
L 360.245358 177.948412 
L 363.356631 177.936736 
L 366.467903 177.937631 
L 369.579176 177.931463 
L 372.690449 177.93758 
L 375.801722 177.935847 
L 378.912994 177.945267 
L 382.024267 177.945525 
L 385.13554 177.955608 
L 388.246813 177.955327 
L 389.870085 177.957379 
L 389.870085 177.957379 
" clip-path="url(#p707503eb3f)" style="fill: none; stroke: #33ff33; stroke-width: 1.5; stroke-linecap: square"/>
   </g>
   <g id="line2d_32">
    <path d="M 65.21554 34.414125 
L 65.486085 34.487391 
L 65.756631 34.849799 
L 66.162449 35.917928 
L 66.70354 38.276978 
L 67.379903 42.628825 
L 68.19154 49.717223 
L 69.138449 60.228989 
L 70.355903 76.632444 
L 71.979176 102.087396 
L 78.742813 212.682168 
L 80.230813 231.667167 
L 81.58354 246.071713 
L 82.800994 256.55016 
L 83.883176 263.907162 
L 84.830085 268.877525 
L 85.641722 272.082166 
L 86.453358 274.357991 
L 87.129722 275.57665 
L 87.670813 276.134896 
L 88.076631 276.316858 
L 88.482449 276.305217 
L 88.888267 276.107196 
L 89.429358 275.56601 
L 90.105722 274.469271 
L 90.782085 272.909733 
L 91.458449 270.711126 
L 92.270085 267.231167 
L 93.352267 261.358555 
L 94.704994 252.39187 
L 96.598813 237.77113 
L 99.033722 216.988927 
L 103.091903 182.653785 
L 105.120994 167.618547 
L 106.608994 158.003367 
L 108.096994 149.78475 
L 109.314449 144.147159 
L 110.531903 139.540497 
L 111.478813 136.652886 
L 112.560994 134.108878 
L 113.507903 132.529184 
L 114.184267 131.743967 
L 114.995903 131.185266 
L 115.672267 131.02722 
L 116.213358 131.084459 
L 116.754449 131.302757 
L 117.430813 131.785496 
L 118.377722 132.855632 
L 119.189358 134.092015 
L 120.136267 135.870084 
L 121.488994 138.976137 
L 123.24754 143.808154 
L 125.006085 149.259559 
L 132.851903 174.649767 
L 134.475176 179.029983 
L 135.963176 182.56181 
L 137.586449 185.816375 
L 139.074449 188.219066 
L 140.156631 189.616571 
L 141.238812 190.716441 
L 142.185722 191.443482 
L 143.403176 192.046098 
L 144.350085 192.284607 
L 145.56754 192.289149 
L 146.514449 192.090491 
L 147.867176 191.507016 
L 149.490449 190.406979 
L 151.384267 188.671928 
L 153.819176 185.927682 
L 162.341358 175.419752 
L 164.776267 173.051592 
L 166.940631 171.400333 
L 168.969722 170.288038 
L 170.187176 169.818553 
L 172.080994 169.400663 
L 173.974813 169.337148 
L 176.139176 169.659596 
L 178.574085 170.451846 
L 181.550085 171.887468 
L 188.313722 175.986149 
L 190.613358 177.333308 
L 194.67154 179.304606 
L 197.918085 180.382391 
L 201.029358 180.941232 
L 202.517358 181.055673 
L 205.899176 180.949947 
L 207.657722 180.736596 
L 212.798085 179.649797 
L 217.262085 178.456295 
L 225.648994 176.636348 
L 231.059903 176.167082 
L 237.011903 176.333262 
L 256.896994 178.516072 
L 266.636631 178.604405 
L 271.100631 178.39963 
L 273.941358 178.240935 
L 277.052631 178.049689 
L 280.434449 177.867549 
L 283.139903 177.743377 
L 285.710085 177.648827 
L 289.90354 177.574649 
L 292.473722 177.562122 
L 296.126085 177.603007 
L 298.966813 177.655714 
L 302.348631 177.75069 
L 305.459903 177.837226 
L 308.435903 177.922375 
L 311.276631 177.999181 
L 314.658449 178.060874 
L 317.499176 178.102505 
L 320.880994 178.117144 
L 323.721722 178.119531 
L 327.10354 178.09275 
L 329.944267 178.06771 
L 333.05554 178.022885 
L 336.166812 177.985738 
L 339.278085 177.941328 
L 342.389358 177.913217 
L 345.230085 177.885946 
L 348.341358 177.876224 
L 351.182085 177.86694 
L 354.293358 177.876115 
L 357.134085 177.881804 
L 360.245358 177.903619 
L 363.356631 177.918572 
L 366.467903 177.943903 
L 369.579176 177.957683 
L 372.690449 177.977948 
L 375.801722 177.983864 
L 378.912994 177.994691 
L 382.024267 177.990811 
L 385.13554 177.992561 
L 388.246813 177.98117 
L 389.870085 177.976885 
L 389.870085 177.976885 
" clip-path="url(#p707503eb3f)" style="fill: none; stroke: #66cc66; stroke-width: 1.5; stroke-linecap: square"/>
   </g>
   <g id="line2d_33">
    <path d="M 65.21554 154.487805 
L 66.297722 154.579427 
L 67.379903 154.932778 
L 68.867903 155.762024 
L 70.355903 156.998152 
L 71.843903 158.591738 
L 73.331903 160.513366 
L 74.819903 162.706717 
L 77.390085 167.030368 
L 80.636631 173.153002 
L 85.371176 182.262768 
L 88.076631 186.933588 
L 90.240994 190.132372 
L 92.134813 192.433097 
L 93.758085 193.98485 
L 95.246085 195.037846 
L 96.328267 195.578948 
L 97.410449 195.926166 
L 98.492631 196.079905 
L 99.43954 196.061523 
L 100.792267 195.783046 
L 102.280267 195.152704 
L 103.497722 194.411121 
L 105.256267 192.997067 
L 106.744267 191.539439 
L 109.179176 188.730096 
L 112.966813 183.744996 
L 116.619176 178.85319 
L 119.865722 174.960379 
L 122.300631 172.547894 
L 124.329722 170.963489 
L 125.682449 170.139484 
L 126.899903 169.56113 
L 128.793722 168.988097 
L 130.552267 168.804011 
L 131.769722 168.854871 
L 133.66354 169.222738 
L 135.827903 170.017863 
L 138.398085 171.389169 
L 140.156631 172.51644 
L 150.572631 179.824913 
L 153.683903 181.410656 
L 155.171903 181.992197 
L 157.877358 182.708287 
L 160.44754 182.98158 
L 161.93554 182.975182 
L 164.91154 182.613229 
L 168.428631 181.71116 
L 174.921722 179.327888 
L 177.627176 178.30543 
L 179.926813 177.508604 
L 184.796631 176.231908 
L 188.854813 175.69248 
L 193.18354 175.655219 
L 198.594449 176.23506 
L 208.469358 178.011659 
L 216.856267 179.014988 
L 224.025722 179.079152 
L 226.325358 178.97162 
L 233.765358 178.360638 
L 236.876631 178.083524 
L 239.582085 177.860622 
L 242.152267 177.677781 
L 255.138449 177.460474 
L 259.061358 177.589803 
L 261.902085 177.701112 
L 265.013358 177.84131 
L 268.124631 177.965034 
L 270.965358 178.070871 
L 274.617722 178.161508 
L 277.323176 178.203443 
L 280.028631 178.220319 
L 282.869358 178.217964 
L 286.251176 178.176612 
L 289.091903 178.133956 
L 292.203176 178.066886 
L 295.314449 178.00695 
L 298.290449 177.949003 
L 301.131176 177.897188 
L 304.512994 177.861191 
L 307.353722 177.836147 
L 310.73554 177.834141 
L 313.576267 177.836262 
L 316.68754 177.859684 
L 319.528267 177.878527 
L 322.63954 177.913414 
L 325.750813 177.938908 
L 328.862085 177.971449 
L 331.973358 177.988833 
L 334.814085 178.00814 
L 337.925358 178.011779 
L 340.766085 178.018117 
L 343.877358 178.008546 
L 346.988631 178.003748 
L 350.099903 177.985766 
L 353.211176 177.976154 
L 356.322449 177.956939 
L 359.433722 177.949291 
L 362.544994 177.934567 
L 365.656267 177.933103 
L 368.76754 177.92536 
L 371.878812 177.93083 
L 374.990085 177.929254 
L 378.101358 177.939587 
L 381.212631 177.941248 
L 384.323903 177.953089 
L 387.435176 177.954621 
L 389.870085 177.958959 
L 389.870085 177.958959 
" clip-path="url(#p707503eb3f)" style="fill: none; stroke: #999999; stroke-width: 1.5; stroke-linecap: square"/>
   </g>
   <g id="line2d_34">
    <path d="M 65.21554 107.347767 
L 65.756631 107.437115 
L 66.297722 107.75755 
L 66.974085 108.461991 
L 67.785722 109.712248 
L 68.732631 111.654963 
L 69.544267 113.808161 
L 70.220631 116.446049 
L 71.032267 120.491527 
L 72.384994 128.919107 
L 74.008267 140.555713 
L 77.660631 167.002998 
L 79.419176 177.699542 
L 80.771903 184.657439 
L 81.989358 189.954436 
L 83.342085 194.762101 
L 84.55954 198.157007 
L 85.506449 200.242427 
L 86.588631 202.041685 
L 87.670813 203.273973 
L 88.617722 203.91742 
L 89.294085 204.168728 
L 90.240994 204.214328 
L 90.917358 204.075135 
L 91.99954 203.551082 
L 93.352267 202.467207 
L 94.97554 200.664989 
L 97.275176 197.455199 
L 99.033722 194.720824 
L 102.686085 188.892758 
L 106.067903 184.057436 
L 107.555903 182.228776 
L 109.85554 179.87061 
L 111.072994 178.846838 
L 113.102085 177.52215 
L 114.31954 176.930734 
L 116.348631 176.295682 
L 117.566085 176.089862 
L 120.000994 176.052243 
L 122.841722 176.504178 
L 124.329722 176.886076 
L 136.63954 180.888193 
L 140.968267 181.599651 
L 145.296994 181.70976 
L 150.437358 181.176893 
L 165.452631 178.298928 
L 173.027903 177.588654 
L 181.820631 177.699025 
L 184.390813 177.840869 
L 187.502085 178.048487 
L 190.613358 178.244476 
L 193.18354 178.396593 
L 197.106449 178.558201 
L 199.676631 178.625875 
L 204.140631 178.637725 
L 206.710813 178.604353 
L 210.363176 178.497834 
L 213.203903 178.398215 
L 216.315176 178.266891 
L 219.426449 178.146606 
L 222.267176 178.038039 
L 225.648994 177.942752 
L 228.489722 177.877669 
L 231.87154 177.842003 
L 234.712267 177.827718 
L 238.094085 177.846892 
L 240.934813 177.870077 
L 244.046085 177.916586 
L 247.157358 177.957817 
L 250.268631 178.007471 
L 253.379903 178.040653 
L 256.220631 178.071678 
L 259.331903 178.083816 
L 262.172631 178.093547 
L 265.283903 178.082779 
L 268.124631 178.073964 
L 271.235903 178.047171 
L 274.347176 178.02619 
L 277.458449 177.994287 
L 280.569722 177.97401 
L 283.680994 177.947762 
L 286.792267 177.936803 
L 289.632994 177.922674 
L 292.744267 177.92341 
L 295.720267 177.924578 
L 298.83154 177.925256 
L 301.942813 177.938966 
L 305.054085 177.94446 
L 308.165358 177.960061 
L 311.276631 177.964772 
L 314.387903 177.977402 
L 317.499176 177.9776 
L 320.610449 177.984887 
L 323.721722 177.979608 
L 326.832994 177.981886 
L 329.944267 177.97254 
L 333.05554 177.971989 
L 336.166812 177.96118 
L 339.278085 177.960494 
L 342.389358 177.95071 
L 345.500631 177.951936 
L 348.611903 177.94463 
L 351.723176 177.948561 
L 354.834449 177.943877 
L 357.945722 177.950087 
L 361.056994 177.947153 
L 364.168267 177.95448 
L 367.27954 177.952011 
L 370.390813 177.959196 
L 373.502085 177.956084 
L 376.613358 177.962269 
L 379.724631 177.957958 
L 382.835903 177.962902 
L 385.947176 177.957445 
L 389.058449 177.961447 
L 389.870085 177.961155 
L 389.870085 177.961155 
" clip-path="url(#p707503eb3f)" style="fill: none; stroke: #cc66cc; stroke-width: 1.5; stroke-linecap: square"/>
   </g>
   <g id="line2d_35">
    <path d="M 65.21554 227.079357 
L 66.432994 226.973429 
L 67.650449 226.626032 
L 69.003176 225.976654 
L 70.491176 225.008222 
L 71.302813 224.304938 
L 71.979176 223.457718 
L 72.926085 221.860178 
L 73.872994 219.828529 
L 75.090449 216.61437 
L 76.307903 212.814165 
L 77.931176 206.967858 
L 80.09554 198.144353 
L 84.424267 178.967923 
L 87.129722 167.422099 
L 89.02354 160.122235 
L 90.646813 154.593997 
L 92.134813 150.224375 
L 93.622813 146.611054 
L 94.704994 144.478237 
L 95.651903 142.962855 
L 96.734085 141.648765 
L 97.816267 140.774925 
L 98.763176 140.37264 
L 99.43954 140.277285 
L 100.386449 140.429083 
L 101.062813 140.718438 
L 102.144994 141.503352 
L 103.227176 142.652995 
L 104.579903 144.559625 
L 106.067903 147.194509 
L 107.420631 149.995078 
L 109.043903 153.764333 
L 111.072994 158.907531 
L 117.430813 175.501527 
L 119.865722 181.006273 
L 121.75954 184.65634 
L 123.518085 187.456185 
L 124.73554 189.045257 
L 126.22354 190.56496 
L 127.305722 191.385593 
L 128.252631 191.910492 
L 129.605358 192.340308 
L 130.958085 192.415156 
L 132.310812 192.156244 
L 133.798812 191.513393 
L 134.880994 190.839692 
L 136.098449 189.900501 
L 138.12754 187.958293 
L 139.886085 186.004746 
L 149.490449 174.579867 
L 151.925358 172.384334 
L 154.089722 170.884425 
L 156.118812 169.906428 
L 157.336267 169.513364 
L 159.230085 169.206187 
L 161.259176 169.263828 
L 162.476631 169.465526 
L 164.776267 170.175869 
L 166.264267 170.814578 
L 169.646085 172.678002 
L 171.945722 174.123984 
L 175.32754 176.307983 
L 180.197358 179.060773 
L 183.443903 180.39128 
L 186.419903 181.162312 
L 189.395903 181.490255 
L 192.642449 181.380781 
L 196.430085 180.754236 
L 203.193722 178.898644 
L 206.034449 178.066834 
L 212.798085 176.535951 
L 217.803176 176.043852 
L 219.696994 176.008999 
L 221.726085 176.052139 
L 228.760267 176.736854 
L 232.683176 177.307156 
L 236.064994 177.787697 
L 238.635176 178.121739 
L 247.833722 178.768242 
L 258.384994 178.464928 
L 261.766813 178.237287 
L 264.878085 178.033325 
L 267.718813 177.854288 
L 271.641722 177.66982 
L 274.211903 177.582149 
L 278.675903 177.527844 
L 281.246085 177.534506 
L 284.898449 177.602668 
L 287.739176 177.674288 
L 290.850449 177.778066 
L 293.961722 177.875412 
L 296.802449 177.967273 
L 300.184267 178.048199 
L 303.024994 178.105256 
L 306.406813 178.135486 
L 309.24754 178.147621 
L 312.629358 178.127754 
L 315.470085 178.104546 
L 318.581358 178.057924 
L 321.692631 178.015767 
L 324.803903 177.964099 
L 327.915176 177.927588 
L 330.755903 177.892511 
L 333.867176 177.874972 
L 336.707903 177.859774 
L 339.819176 177.864279 
L 342.659903 177.867497 
L 345.771176 177.888582 
L 348.882449 177.904606 
L 351.993722 177.932457 
L 355.104994 177.949692 
L 358.216267 177.973871 
L 361.32754 177.983644 
L 364.30354 177.992671 
L 367.27954 177.996579 
L 370.390813 178.000513 
L 373.502085 177.990221 
L 376.613358 177.986673 
L 379.724631 177.971456 
L 382.835903 177.965687 
L 385.947176 177.950793 
L 389.058449 177.947486 
L 389.870085 177.9457 
L 389.870085 177.9457 
" clip-path="url(#p707503eb3f)" style="fill: none; stroke: #ff33ff; stroke-width: 1.5; stroke-linecap: square"/>
   </g>
   <g id="patch_3">
    <path d="M 48.982813 288.430125 
L 48.982813 22.318125 
" style="fill: none; stroke: #000000; stroke-width: 0.8; stroke-linejoin: miter; stroke-linecap: square"/>
   </g>
   <g id="patch_4">
    <path d="M 406.102813 288.430125 
L 406.102813 22.318125 
" style="fill: none; stroke: #000000; stroke-width: 0.8; stroke-linejoin: miter; stroke-linecap: square"/>
   </g>
   <g id="patch_5">
    <path d="M 48.982813 288.430125 
L 406.102813 288.430125 
" style="fill: none; stroke: #000000; stroke-width: 0.8; stroke-linejoin: miter; stroke-linecap: square"/>
   </g>
   <g id="patch_6">
    <path d="M 48.982813 22.318125 
L 406.102813 22.318125 
" style="fill: none; stroke: #000000; stroke-width: 0.8; stroke-linejoin: miter; stroke-linecap: square"/>
   </g>
   <g id="text_18">
    <!-- theta vs time -->
    <g transform="translate(187.62125 16.318125) scale(0.12 -0.12)">
     <defs>
      <path id="DejaVuSans-76" d="M 191 3500 
L 800 3500 
L 1894 563 
L 2988 3500 
L 3597 3500 
L 2284 0 
L 1503 0 
L 191 3500 
z
" transform="scale(0.015625)"/>
     </defs>
     <use xlink:href="#DejaVuSans-74"/>
     <use xlink:href="#DejaVuSans-68" x="39.208984"/>
     <use xlink:href="#DejaVuSans-65" x="102.587891"/>
     <use xlink:href="#DejaVuSans-74" x="164.111328"/>
     <use xlink:href="#DejaVuSans-61" x="203.320312"/>
     <use xlink:href="#DejaVuSans-20" x="264.599609"/>
     <use xlink:href="#DejaVuSans-76" x="296.386719"/>
     <use xlink:href="#DejaVuSans-73" x="355.566406"/>
     <use xlink:href="#DejaVuSans-20" x="407.666016"/>
     <use xlink:href="#DejaVuSans-74" x="439.453125"/>
     <use xlink:href="#DejaVuSans-69" x="478.662109"/>
     <use xlink:href="#DejaVuSans-6d" x="506.445312"/>
     <use xlink:href="#DejaVuSans-65" x="603.857422"/>
    </g>
   </g>
   <g id="legend_1">
    <g id="patch_7">
     <path d="M 44.47135 404.475375 
L 391.960413 404.475375 
Q 393.960413 404.475375 393.960413 402.475375 
L 393.960413 328.694125 
Q 393.960413 326.694125 391.960413 326.694125 
L 44.47135 326.694125 
Q 42.47135 326.694125 42.47135 328.694125 
L 42.47135 402.475375 
Q 42.47135 404.475375 44.47135 404.475375 
z
" style="fill: #ffffff; opacity: 0.8; stroke: #cccccc; stroke-linejoin: miter"/>
    </g>
    <g id="line2d_36">
     <path d="M 46.47135 334.792562 
L 56.47135 334.792562 
L 66.47135 334.792562 
" style="fill: none; stroke: #33ff33; stroke-width: 1.5; stroke-linecap: square"/>
    </g>
    <g id="text_19">
     <!-- Var1: x_init = 0.15, l_init = 0.64, theta_init = 5.82, mc = 0.57 -->
     <g transform="translate(74.47135 338.292562) scale(0.1 -0.1)">
      <defs>
       <path id="DejaVuSans-56" d="M 1831 0 
L 50 4666 
L 709 4666 
L 2188 738 
L 3669 4666 
L 4325 4666 
L 2547 0 
L 1831 0 
z
" transform="scale(0.015625)"/>
       <path id="DejaVuSans-3a" d="M 750 794 
L 1409 794 
L 1409 0 
L 750 0 
L 750 794 
z
M 750 3309 
L 1409 3309 
L 1409 2516 
L 750 2516 
L 750 3309 
z
" transform="scale(0.015625)"/>
       <path id="DejaVuSans-78" d="M 3513 3500 
L 2247 1797 
L 3578 0 
L 2900 0 
L 1881 1375 
L 863 0 
L 184 0 
L 1544 1831 
L 300 3500 
L 978 3500 
L 1906 2253 
L 2834 3500 
L 3513 3500 
z
" transform="scale(0.015625)"/>
       <path id="DejaVuSans-5f" d="M 3263 -1063 
L 3263 -1509 
L -63 -1509 
L -63 -1063 
L 3263 -1063 
z
" transform="scale(0.015625)"/>
       <path id="DejaVuSans-6e" d="M 3513 2113 
L 3513 0 
L 2938 0 
L 2938 2094 
Q 2938 2591 2744 2837 
Q 2550 3084 2163 3084 
Q 1697 3084 1428 2787 
Q 1159 2491 1159 1978 
L 1159 0 
L 581 0 
L 581 3500 
L 1159 3500 
L 1159 2956 
Q 1366 3272 1645 3428 
Q 1925 3584 2291 3584 
Q 2894 3584 3203 3211 
Q 3513 2838 3513 2113 
z
" transform="scale(0.015625)"/>
       <path id="DejaVuSans-3d" d="M 678 2906 
L 4684 2906 
L 4684 2381 
L 678 2381 
L 678 2906 
z
M 678 1631 
L 4684 1631 
L 4684 1100 
L 678 1100 
L 678 1631 
z
" transform="scale(0.015625)"/>
       <path id="DejaVuSans-2e" d="M 684 794 
L 1344 794 
L 1344 0 
L 684 0 
L 684 794 
z
" transform="scale(0.015625)"/>
       <path id="DejaVuSans-2c" d="M 750 794 
L 1409 794 
L 1409 256 
L 897 -744 
L 494 -744 
L 750 256 
L 750 794 
z
" transform="scale(0.015625)"/>
       <path id="DejaVuSans-6c" d="M 603 4863 
L 1178 4863 
L 1178 0 
L 603 0 
L 603 4863 
z
" transform="scale(0.015625)"/>
       <path id="DejaVuSans-63" d="M 3122 3366 
L 3122 2828 
Q 2878 2963 2633 3030 
Q 2388 3097 2138 3097 
Q 1578 3097 1268 2742 
Q 959 2388 959 1747 
Q 959 1106 1268 751 
Q 1578 397 2138 397 
Q 2388 397 2633 464 
Q 2878 531 3122 666 
L 3122 134 
Q 2881 22 2623 -34 
Q 2366 -91 2075 -91 
Q 1284 -91 818 406 
Q 353 903 353 1747 
Q 353 2603 823 3093 
Q 1294 3584 2113 3584 
Q 2378 3584 2631 3529 
Q 2884 3475 3122 3366 
z
" transform="scale(0.015625)"/>
       <path id="DejaVuSans-37" d="M 525 4666 
L 3525 4666 
L 3525 4397 
L 1831 0 
L 1172 0 
L 2766 4134 
L 525 4134 
L 525 4666 
z
" transform="scale(0.015625)"/>
      </defs>
      <use xlink:href="#DejaVuSans-56"/>
      <use xlink:href="#DejaVuSans-61" x="60.658203"/>
      <use xlink:href="#DejaVuSans-72" x="121.9375"/>
      <use xlink:href="#DejaVuSans-31" x="163.050781"/>
      <use xlink:href="#DejaVuSans-3a" x="226.673828"/>
      <use xlink:href="#DejaVuSans-20" x="260.365234"/>
      <use xlink:href="#DejaVuSans-78" x="292.152344"/>
      <use xlink:href="#DejaVuSans-5f" x="351.332031"/>
      <use xlink:href="#DejaVuSans-69" x="401.332031"/>
      <use xlink:href="#DejaVuSans-6e" x="429.115234"/>
      <use xlink:href="#DejaVuSans-69" x="492.494141"/>
      <use xlink:href="#DejaVuSans-74" x="520.277344"/>
      <use xlink:href="#DejaVuSans-20" x="559.486328"/>
      <use xlink:href="#DejaVuSans-3d" x="591.273438"/>
      <use xlink:href="#DejaVuSans-20" x="675.0625"/>
      <use xlink:href="#DejaVuSans-30" x="706.849609"/>
      <use xlink:href="#DejaVuSans-2e" x="770.472656"/>
      <use xlink:href="#DejaVuSans-31" x="802.259766"/>
      <use xlink:href="#DejaVuSans-35" x="865.882812"/>
      <use xlink:href="#DejaVuSans-2c" x="929.505859"/>
      <use xlink:href="#DejaVuSans-20" x="961.292969"/>
      <use xlink:href="#DejaVuSans-6c" x="993.080078"/>
      <use xlink:href="#DejaVuSans-5f" x="1020.863281"/>
      <use xlink:href="#DejaVuSans-69" x="1070.863281"/>
      <use xlink:href="#DejaVuSans-6e" x="1098.646484"/>
      <use xlink:href="#DejaVuSans-69" x="1162.025391"/>
      <use xlink:href="#DejaVuSans-74" x="1189.808594"/>
      <use xlink:href="#DejaVuSans-20" x="1229.017578"/>
      <use xlink:href="#DejaVuSans-3d" x="1260.804688"/>
      <use xlink:href="#DejaVuSans-20" x="1344.59375"/>
      <use xlink:href="#DejaVuSans-30" x="1376.380859"/>
      <use xlink:href="#DejaVuSans-2e" x="1440.003906"/>
      <use xlink:href="#DejaVuSans-36" x="1471.791016"/>
      <use xlink:href="#DejaVuSans-34" x="1535.414062"/>
      <use xlink:href="#DejaVuSans-2c" x="1599.037109"/>
      <use xlink:href="#DejaVuSans-20" x="1630.824219"/>
      <use xlink:href="#DejaVuSans-74" x="1662.611328"/>
      <use xlink:href="#DejaVuSans-68" x="1701.820312"/>
      <use xlink:href="#DejaVuSans-65" x="1765.199219"/>
      <use xlink:href="#DejaVuSans-74" x="1826.722656"/>
      <use xlink:href="#DejaVuSans-61" x="1865.931641"/>
      <use xlink:href="#DejaVuSans-5f" x="1927.210938"/>
      <use xlink:href="#DejaVuSans-69" x="1977.210938"/>
      <use xlink:href="#DejaVuSans-6e" x="2004.994141"/>
      <use xlink:href="#DejaVuSans-69" x="2068.373047"/>
      <use xlink:href="#DejaVuSans-74" x="2096.15625"/>
      <use xlink:href="#DejaVuSans-20" x="2135.365234"/>
      <use xlink:href="#DejaVuSans-3d" x="2167.152344"/>
      <use xlink:href="#DejaVuSans-20" x="2250.941406"/>
      <use xlink:href="#DejaVuSans-35" x="2282.728516"/>
      <use xlink:href="#DejaVuSans-2e" x="2346.351562"/>
      <use xlink:href="#DejaVuSans-38" x="2378.138672"/>
      <use xlink:href="#DejaVuSans-32" x="2441.761719"/>
      <use xlink:href="#DejaVuSans-2c" x="2505.384766"/>
      <use xlink:href="#DejaVuSans-20" x="2537.171875"/>
      <use xlink:href="#DejaVuSans-6d" x="2568.958984"/>
      <use xlink:href="#DejaVuSans-63" x="2666.371094"/>
      <use xlink:href="#DejaVuSans-20" x="2721.351562"/>
      <use xlink:href="#DejaVuSans-3d" x="2753.138672"/>
      <use xlink:href="#DejaVuSans-20" x="2836.927734"/>
      <use xlink:href="#DejaVuSans-30" x="2868.714844"/>
      <use xlink:href="#DejaVuSans-2e" x="2932.337891"/>
      <use xlink:href="#DejaVuSans-35" x="2964.125"/>
      <use xlink:href="#DejaVuSans-37" x="3027.748047"/>
     </g>
    </g>
    <g id="line2d_37">
     <path d="M 46.47135 349.748812 
L 56.47135 349.748812 
L 66.47135 349.748812 
" style="fill: none; stroke: #66cc66; stroke-width: 1.5; stroke-linecap: square"/>
    </g>
    <g id="text_20">
     <!-- Var2: x_init = 1.37, l_init = 0.55, theta_init = 20.98, mc = 1.48 -->
     <g transform="translate(74.47135 353.248812) scale(0.1 -0.1)">
      <defs>
       <path id="DejaVuSans-33" d="M 2597 2516 
Q 3050 2419 3304 2112 
Q 3559 1806 3559 1356 
Q 3559 666 3084 287 
Q 2609 -91 1734 -91 
Q 1441 -91 1130 -33 
Q 819 25 488 141 
L 488 750 
Q 750 597 1062 519 
Q 1375 441 1716 441 
Q 2309 441 2620 675 
Q 2931 909 2931 1356 
Q 2931 1769 2642 2001 
Q 2353 2234 1838 2234 
L 1294 2234 
L 1294 2753 
L 1863 2753 
Q 2328 2753 2575 2939 
Q 2822 3125 2822 3475 
Q 2822 3834 2567 4026 
Q 2313 4219 1838 4219 
Q 1578 4219 1281 4162 
Q 984 4106 628 3988 
L 628 4550 
Q 988 4650 1302 4700 
Q 1616 4750 1894 4750 
Q 2613 4750 3031 4423 
Q 3450 4097 3450 3541 
Q 3450 3153 3228 2886 
Q 3006 2619 2597 2516 
z
" transform="scale(0.015625)"/>
       <path id="DejaVuSans-39" d="M 703 97 
L 703 672 
Q 941 559 1184 500 
Q 1428 441 1663 441 
Q 2288 441 2617 861 
Q 2947 1281 2994 2138 
Q 2813 1869 2534 1725 
Q 2256 1581 1919 1581 
Q 1219 1581 811 2004 
Q 403 2428 403 3163 
Q 403 3881 828 4315 
Q 1253 4750 1959 4750 
Q 2769 4750 3195 4129 
Q 3622 3509 3622 2328 
Q 3622 1225 3098 567 
Q 2575 -91 1691 -91 
Q 1453 -91 1209 -44 
Q 966 3 703 97 
z
M 1959 2075 
Q 2384 2075 2632 2365 
Q 2881 2656 2881 3163 
Q 2881 3666 2632 3958 
Q 2384 4250 1959 4250 
Q 1534 4250 1286 3958 
Q 1038 3666 1038 3163 
Q 1038 2656 1286 2365 
Q 1534 2075 1959 2075 
z
" transform="scale(0.015625)"/>
      </defs>
      <use xlink:href="#DejaVuSans-56"/>
      <use xlink:href="#DejaVuSans-61" x="60.658203"/>
      <use xlink:href="#DejaVuSans-72" x="121.9375"/>
      <use xlink:href="#DejaVuSans-32" x="163.050781"/>
      <use xlink:href="#DejaVuSans-3a" x="226.673828"/>
      <use xlink:href="#DejaVuSans-20" x="260.365234"/>
      <use xlink:href="#DejaVuSans-78" x="292.152344"/>
      <use xlink:href="#DejaVuSans-5f" x="351.332031"/>
      <use xlink:href="#DejaVuSans-69" x="401.332031"/>
      <use xlink:href="#DejaVuSans-6e" x="429.115234"/>
      <use xlink:href="#DejaVuSans-69" x="492.494141"/>
      <use xlink:href="#DejaVuSans-74" x="520.277344"/>
      <use xlink:href="#DejaVuSans-20" x="559.486328"/>
      <use xlink:href="#DejaVuSans-3d" x="591.273438"/>
      <use xlink:href="#DejaVuSans-20" x="675.0625"/>
      <use xlink:href="#DejaVuSans-31" x="706.849609"/>
      <use xlink:href="#DejaVuSans-2e" x="770.472656"/>
      <use xlink:href="#DejaVuSans-33" x="802.259766"/>
      <use xlink:href="#DejaVuSans-37" x="865.882812"/>
      <use xlink:href="#DejaVuSans-2c" x="929.505859"/>
      <use xlink:href="#DejaVuSans-20" x="961.292969"/>
      <use xlink:href="#DejaVuSans-6c" x="993.080078"/>
      <use xlink:href="#DejaVuSans-5f" x="1020.863281"/>
      <use xlink:href="#DejaVuSans-69" x="1070.863281"/>
      <use xlink:href="#DejaVuSans-6e" x="1098.646484"/>
      <use xlink:href="#DejaVuSans-69" x="1162.025391"/>
      <use xlink:href="#DejaVuSans-74" x="1189.808594"/>
      <use xlink:href="#DejaVuSans-20" x="1229.017578"/>
      <use xlink:href="#DejaVuSans-3d" x="1260.804688"/>
      <use xlink:href="#DejaVuSans-20" x="1344.59375"/>
      <use xlink:href="#DejaVuSans-30" x="1376.380859"/>
      <use xlink:href="#DejaVuSans-2e" x="1440.003906"/>
      <use xlink:href="#DejaVuSans-35" x="1471.791016"/>
      <use xlink:href="#DejaVuSans-35" x="1535.414062"/>
      <use xlink:href="#DejaVuSans-2c" x="1599.037109"/>
      <use xlink:href="#DejaVuSans-20" x="1630.824219"/>
      <use xlink:href="#DejaVuSans-74" x="1662.611328"/>
      <use xlink:href="#DejaVuSans-68" x="1701.820312"/>
      <use xlink:href="#DejaVuSans-65" x="1765.199219"/>
      <use xlink:href="#DejaVuSans-74" x="1826.722656"/>
      <use xlink:href="#DejaVuSans-61" x="1865.931641"/>
      <use xlink:href="#DejaVuSans-5f" x="1927.210938"/>
      <use xlink:href="#DejaVuSans-69" x="1977.210938"/>
      <use xlink:href="#DejaVuSans-6e" x="2004.994141"/>
      <use xlink:href="#DejaVuSans-69" x="2068.373047"/>
      <use xlink:href="#DejaVuSans-74" x="2096.15625"/>
      <use xlink:href="#DejaVuSans-20" x="2135.365234"/>
      <use xlink:href="#DejaVuSans-3d" x="2167.152344"/>
      <use xlink:href="#DejaVuSans-20" x="2250.941406"/>
      <use xlink:href="#DejaVuSans-32" x="2282.728516"/>
      <use xlink:href="#DejaVuSans-30" x="2346.351562"/>
      <use xlink:href="#DejaVuSans-2e" x="2409.974609"/>
      <use xlink:href="#DejaVuSans-39" x="2441.761719"/>
      <use xlink:href="#DejaVuSans-38" x="2505.384766"/>
      <use xlink:href="#DejaVuSans-2c" x="2569.007812"/>
      <use xlink:href="#DejaVuSans-20" x="2600.794922"/>
      <use xlink:href="#DejaVuSans-6d" x="2632.582031"/>
      <use xlink:href="#DejaVuSans-63" x="2729.994141"/>
      <use xlink:href="#DejaVuSans-20" x="2784.974609"/>
      <use xlink:href="#DejaVuSans-3d" x="2816.761719"/>
      <use xlink:href="#DejaVuSans-20" x="2900.550781"/>
      <use xlink:href="#DejaVuSans-31" x="2932.337891"/>
      <use xlink:href="#DejaVuSans-2e" x="2995.960938"/>
      <use xlink:href="#DejaVuSans-34" x="3027.748047"/>
      <use xlink:href="#DejaVuSans-38" x="3091.371094"/>
     </g>
    </g>
    <g id="line2d_38">
     <path d="M 46.47135 364.705062 
L 56.47135 364.705062 
L 66.47135 364.705062 
" style="fill: none; stroke: #999999; stroke-width: 1.5; stroke-linecap: square"/>
    </g>
    <g id="text_21">
     <!-- Var3: x_init = 0.88, l_init = 1.5, theta_init = 3.43, mc = 1.42 -->
     <g transform="translate(74.47135 368.205062) scale(0.1 -0.1)">
      <use xlink:href="#DejaVuSans-56"/>
      <use xlink:href="#DejaVuSans-61" x="60.658203"/>
      <use xlink:href="#DejaVuSans-72" x="121.9375"/>
      <use xlink:href="#DejaVuSans-33" x="163.050781"/>
      <use xlink:href="#DejaVuSans-3a" x="226.673828"/>
      <use xlink:href="#DejaVuSans-20" x="260.365234"/>
      <use xlink:href="#DejaVuSans-78" x="292.152344"/>
      <use xlink:href="#DejaVuSans-5f" x="351.332031"/>
      <use xlink:href="#DejaVuSans-69" x="401.332031"/>
      <use xlink:href="#DejaVuSans-6e" x="429.115234"/>
      <use xlink:href="#DejaVuSans-69" x="492.494141"/>
      <use xlink:href="#DejaVuSans-74" x="520.277344"/>
      <use xlink:href="#DejaVuSans-20" x="559.486328"/>
      <use xlink:href="#DejaVuSans-3d" x="591.273438"/>
      <use xlink:href="#DejaVuSans-20" x="675.0625"/>
      <use xlink:href="#DejaVuSans-30" x="706.849609"/>
      <use xlink:href="#DejaVuSans-2e" x="770.472656"/>
      <use xlink:href="#DejaVuSans-38" x="802.259766"/>
      <use xlink:href="#DejaVuSans-38" x="865.882812"/>
      <use xlink:href="#DejaVuSans-2c" x="929.505859"/>
      <use xlink:href="#DejaVuSans-20" x="961.292969"/>
      <use xlink:href="#DejaVuSans-6c" x="993.080078"/>
      <use xlink:href="#DejaVuSans-5f" x="1020.863281"/>
      <use xlink:href="#DejaVuSans-69" x="1070.863281"/>
      <use xlink:href="#DejaVuSans-6e" x="1098.646484"/>
      <use xlink:href="#DejaVuSans-69" x="1162.025391"/>
      <use xlink:href="#DejaVuSans-74" x="1189.808594"/>
      <use xlink:href="#DejaVuSans-20" x="1229.017578"/>
      <use xlink:href="#DejaVuSans-3d" x="1260.804688"/>
      <use xlink:href="#DejaVuSans-20" x="1344.59375"/>
      <use xlink:href="#DejaVuSans-31" x="1376.380859"/>
      <use xlink:href="#DejaVuSans-2e" x="1440.003906"/>
      <use xlink:href="#DejaVuSans-35" x="1471.791016"/>
      <use xlink:href="#DejaVuSans-2c" x="1535.414062"/>
      <use xlink:href="#DejaVuSans-20" x="1567.201172"/>
      <use xlink:href="#DejaVuSans-74" x="1598.988281"/>
      <use xlink:href="#DejaVuSans-68" x="1638.197266"/>
      <use xlink:href="#DejaVuSans-65" x="1701.576172"/>
      <use xlink:href="#DejaVuSans-74" x="1763.099609"/>
      <use xlink:href="#DejaVuSans-61" x="1802.308594"/>
      <use xlink:href="#DejaVuSans-5f" x="1863.587891"/>
      <use xlink:href="#DejaVuSans-69" x="1913.587891"/>
      <use xlink:href="#DejaVuSans-6e" x="1941.371094"/>
      <use xlink:href="#DejaVuSans-69" x="2004.75"/>
      <use xlink:href="#DejaVuSans-74" x="2032.533203"/>
      <use xlink:href="#DejaVuSans-20" x="2071.742188"/>
      <use xlink:href="#DejaVuSans-3d" x="2103.529297"/>
      <use xlink:href="#DejaVuSans-20" x="2187.318359"/>
      <use xlink:href="#DejaVuSans-33" x="2219.105469"/>
      <use xlink:href="#DejaVuSans-2e" x="2282.728516"/>
      <use xlink:href="#DejaVuSans-34" x="2314.515625"/>
      <use xlink:href="#DejaVuSans-33" x="2378.138672"/>
      <use xlink:href="#DejaVuSans-2c" x="2441.761719"/>
      <use xlink:href="#DejaVuSans-20" x="2473.548828"/>
      <use xlink:href="#DejaVuSans-6d" x="2505.335938"/>
      <use xlink:href="#DejaVuSans-63" x="2602.748047"/>
      <use xlink:href="#DejaVuSans-20" x="2657.728516"/>
      <use xlink:href="#DejaVuSans-3d" x="2689.515625"/>
      <use xlink:href="#DejaVuSans-20" x="2773.304688"/>
      <use xlink:href="#DejaVuSans-31" x="2805.091797"/>
      <use xlink:href="#DejaVuSans-2e" x="2868.714844"/>
      <use xlink:href="#DejaVuSans-34" x="2900.501953"/>
      <use xlink:href="#DejaVuSans-32" x="2964.125"/>
     </g>
    </g>
    <g id="line2d_39">
     <path d="M 46.47135 379.661313 
L 56.47135 379.661313 
L 66.47135 379.661313 
" style="fill: none; stroke: #cc66cc; stroke-width: 1.5; stroke-linecap: square"/>
    </g>
    <g id="text_22">
     <!-- Var4: x_init = 0.42, l_init = 0.39, theta_init = 10.32, mc = 1.29 -->
     <g transform="translate(74.47135 383.161313) scale(0.1 -0.1)">
      <use xlink:href="#DejaVuSans-56"/>
      <use xlink:href="#DejaVuSans-61" x="60.658203"/>
      <use xlink:href="#DejaVuSans-72" x="121.9375"/>
      <use xlink:href="#DejaVuSans-34" x="163.050781"/>
      <use xlink:href="#DejaVuSans-3a" x="226.673828"/>
      <use xlink:href="#DejaVuSans-20" x="260.365234"/>
      <use xlink:href="#DejaVuSans-78" x="292.152344"/>
      <use xlink:href="#DejaVuSans-5f" x="351.332031"/>
      <use xlink:href="#DejaVuSans-69" x="401.332031"/>
      <use xlink:href="#DejaVuSans-6e" x="429.115234"/>
      <use xlink:href="#DejaVuSans-69" x="492.494141"/>
      <use xlink:href="#DejaVuSans-74" x="520.277344"/>
      <use xlink:href="#DejaVuSans-20" x="559.486328"/>
      <use xlink:href="#DejaVuSans-3d" x="591.273438"/>
      <use xlink:href="#DejaVuSans-20" x="675.0625"/>
      <use xlink:href="#DejaVuSans-30" x="706.849609"/>
      <use xlink:href="#DejaVuSans-2e" x="770.472656"/>
      <use xlink:href="#DejaVuSans-34" x="802.259766"/>
      <use xlink:href="#DejaVuSans-32" x="865.882812"/>
      <use xlink:href="#DejaVuSans-2c" x="929.505859"/>
      <use xlink:href="#DejaVuSans-20" x="961.292969"/>
      <use xlink:href="#DejaVuSans-6c" x="993.080078"/>
      <use xlink:href="#DejaVuSans-5f" x="1020.863281"/>
      <use xlink:href="#DejaVuSans-69" x="1070.863281"/>
      <use xlink:href="#DejaVuSans-6e" x="1098.646484"/>
      <use xlink:href="#DejaVuSans-69" x="1162.025391"/>
      <use xlink:href="#DejaVuSans-74" x="1189.808594"/>
      <use xlink:href="#DejaVuSans-20" x="1229.017578"/>
      <use xlink:href="#DejaVuSans-3d" x="1260.804688"/>
      <use xlink:href="#DejaVuSans-20" x="1344.59375"/>
      <use xlink:href="#DejaVuSans-30" x="1376.380859"/>
      <use xlink:href="#DejaVuSans-2e" x="1440.003906"/>
      <use xlink:href="#DejaVuSans-33" x="1471.791016"/>
      <use xlink:href="#DejaVuSans-39" x="1535.414062"/>
      <use xlink:href="#DejaVuSans-2c" x="1599.037109"/>
      <use xlink:href="#DejaVuSans-20" x="1630.824219"/>
      <use xlink:href="#DejaVuSans-74" x="1662.611328"/>
      <use xlink:href="#DejaVuSans-68" x="1701.820312"/>
      <use xlink:href="#DejaVuSans-65" x="1765.199219"/>
      <use xlink:href="#DejaVuSans-74" x="1826.722656"/>
      <use xlink:href="#DejaVuSans-61" x="1865.931641"/>
      <use xlink:href="#DejaVuSans-5f" x="1927.210938"/>
      <use xlink:href="#DejaVuSans-69" x="1977.210938"/>
      <use xlink:href="#DejaVuSans-6e" x="2004.994141"/>
      <use xlink:href="#DejaVuSans-69" x="2068.373047"/>
      <use xlink:href="#DejaVuSans-74" x="2096.15625"/>
      <use xlink:href="#DejaVuSans-20" x="2135.365234"/>
      <use xlink:href="#DejaVuSans-3d" x="2167.152344"/>
      <use xlink:href="#DejaVuSans-20" x="2250.941406"/>
      <use xlink:href="#DejaVuSans-31" x="2282.728516"/>
      <use xlink:href="#DejaVuSans-30" x="2346.351562"/>
      <use xlink:href="#DejaVuSans-2e" x="2409.974609"/>
      <use xlink:href="#DejaVuSans-33" x="2441.761719"/>
      <use xlink:href="#DejaVuSans-32" x="2505.384766"/>
      <use xlink:href="#DejaVuSans-2c" x="2569.007812"/>
      <use xlink:href="#DejaVuSans-20" x="2600.794922"/>
      <use xlink:href="#DejaVuSans-6d" x="2632.582031"/>
      <use xlink:href="#DejaVuSans-63" x="2729.994141"/>
      <use xlink:href="#DejaVuSans-20" x="2784.974609"/>
      <use xlink:href="#DejaVuSans-3d" x="2816.761719"/>
      <use xlink:href="#DejaVuSans-20" x="2900.550781"/>
      <use xlink:href="#DejaVuSans-31" x="2932.337891"/>
      <use xlink:href="#DejaVuSans-2e" x="2995.960938"/>
      <use xlink:href="#DejaVuSans-32" x="3027.748047"/>
      <use xlink:href="#DejaVuSans-39" x="3091.371094"/>
     </g>
    </g>
    <g id="line2d_40">
     <path d="M 46.47135 394.617562 
L 56.47135 394.617562 
L 66.47135 394.617562 
" style="fill: none; stroke: #ff33ff; stroke-width: 1.5; stroke-linecap: square"/>
    </g>
    <g id="text_23">
     <!-- Var5: x_init = 1.5, l_init = 1.2, theta_init = -7.18, mc = 0.68 -->
     <g transform="translate(74.47135 398.117562) scale(0.1 -0.1)">
      <defs>
       <path id="DejaVuSans-2d" d="M 313 2009 
L 1997 2009 
L 1997 1497 
L 313 1497 
L 313 2009 
z
" transform="scale(0.015625)"/>
      </defs>
      <use xlink:href="#DejaVuSans-56"/>
      <use xlink:href="#DejaVuSans-61" x="60.658203"/>
      <use xlink:href="#DejaVuSans-72" x="121.9375"/>
      <use xlink:href="#DejaVuSans-35" x="163.050781"/>
      <use xlink:href="#DejaVuSans-3a" x="226.673828"/>
      <use xlink:href="#DejaVuSans-20" x="260.365234"/>
      <use xlink:href="#DejaVuSans-78" x="292.152344"/>
      <use xlink:href="#DejaVuSans-5f" x="351.332031"/>
      <use xlink:href="#DejaVuSans-69" x="401.332031"/>
      <use xlink:href="#DejaVuSans-6e" x="429.115234"/>
      <use xlink:href="#DejaVuSans-69" x="492.494141"/>
      <use xlink:href="#DejaVuSans-74" x="520.277344"/>
      <use xlink:href="#DejaVuSans-20" x="559.486328"/>
      <use xlink:href="#DejaVuSans-3d" x="591.273438"/>
      <use xlink:href="#DejaVuSans-20" x="675.0625"/>
      <use xlink:href="#DejaVuSans-31" x="706.849609"/>
      <use xlink:href="#DejaVuSans-2e" x="770.472656"/>
      <use xlink:href="#DejaVuSans-35" x="802.259766"/>
      <use xlink:href="#DejaVuSans-2c" x="865.882812"/>
      <use xlink:href="#DejaVuSans-20" x="897.669922"/>
      <use xlink:href="#DejaVuSans-6c" x="929.457031"/>
      <use xlink:href="#DejaVuSans-5f" x="957.240234"/>
      <use xlink:href="#DejaVuSans-69" x="1007.240234"/>
      <use xlink:href="#DejaVuSans-6e" x="1035.023438"/>
      <use xlink:href="#DejaVuSans-69" x="1098.402344"/>
      <use xlink:href="#DejaVuSans-74" x="1126.185547"/>
      <use xlink:href="#DejaVuSans-20" x="1165.394531"/>
      <use xlink:href="#DejaVuSans-3d" x="1197.181641"/>
      <use xlink:href="#DejaVuSans-20" x="1280.970703"/>
      <use xlink:href="#DejaVuSans-31" x="1312.757812"/>
      <use xlink:href="#DejaVuSans-2e" x="1376.380859"/>
      <use xlink:href="#DejaVuSans-32" x="1408.167969"/>
      <use xlink:href="#DejaVuSans-2c" x="1471.791016"/>
      <use xlink:href="#DejaVuSans-20" x="1503.578125"/>
      <use xlink:href="#DejaVuSans-74" x="1535.365234"/>
      <use xlink:href="#DejaVuSans-68" x="1574.574219"/>
      <use xlink:href="#DejaVuSans-65" x="1637.953125"/>
      <use xlink:href="#DejaVuSans-74" x="1699.476562"/>
      <use xlink:href="#DejaVuSans-61" x="1738.685547"/>
      <use xlink:href="#DejaVuSans-5f" x="1799.964844"/>
      <use xlink:href="#DejaVuSans-69" x="1849.964844"/>
      <use xlink:href="#DejaVuSans-6e" x="1877.748047"/>
      <use xlink:href="#DejaVuSans-69" x="1941.126953"/>
      <use xlink:href="#DejaVuSans-74" x="1968.910156"/>
      <use xlink:href="#DejaVuSans-20" x="2008.119141"/>
      <use xlink:href="#DejaVuSans-3d" x="2039.90625"/>
      <use xlink:href="#DejaVuSans-20" x="2123.695312"/>
      <use xlink:href="#DejaVuSans-2d" x="2155.482422"/>
      <use xlink:href="#DejaVuSans-37" x="2191.566406"/>
      <use xlink:href="#DejaVuSans-2e" x="2255.189453"/>
      <use xlink:href="#DejaVuSans-31" x="2286.976562"/>
      <use xlink:href="#DejaVuSans-38" x="2350.599609"/>
      <use xlink:href="#DejaVuSans-2c" x="2414.222656"/>
      <use xlink:href="#DejaVuSans-20" x="2446.009766"/>
      <use xlink:href="#DejaVuSans-6d" x="2477.796875"/>
      <use xlink:href="#DejaVuSans-63" x="2575.208984"/>
      <use xlink:href="#DejaVuSans-20" x="2630.189453"/>
      <use xlink:href="#DejaVuSans-3d" x="2661.976562"/>
      <use xlink:href="#DejaVuSans-20" x="2745.765625"/>
      <use xlink:href="#DejaVuSans-30" x="2777.552734"/>
      <use xlink:href="#DejaVuSans-2e" x="2841.175781"/>
      <use xlink:href="#DejaVuSans-36" x="2872.962891"/>
      <use xlink:href="#DejaVuSans-38" x="2936.585938"/>
     </g>
    </g>
   </g>
  </g>
 </g>
 <defs>
  <clipPath id="p707503eb3f">
   <rect x="48.982813" y="22.318125" width="357.12" height="266.112"/>
  </clipPath>
 </defs>
</svg>
