<?xml version="1.0" encoding="utf-8" standalone="no"?>
<!DOCTYPE svg PUBLIC "-//W3C//DTD SVG 1.1//EN"
  "http://www.w3.org/Graphics/SVG/1.1/DTD/svg11.dtd">
<svg xmlns:xlink="http://www.w3.org/1999/xlink" width="408.10125pt" height="325.986375pt" viewBox="0 0 408.10125 325.986375" xmlns="http://www.w3.org/2000/svg" version="1.1">
 <metadata>
  <rdf:RDF xmlns:dc="http://purl.org/dc/elements/1.1/" xmlns:cc="http://creativecommons.org/ns#" xmlns:rdf="http://www.w3.org/1999/02/22-rdf-syntax-ns#">
   <cc:Work>
    <dc:type rdf:resource="http://purl.org/dc/dcmitype/StillImage"/>
    <dc:date>2023-06-28T15:38:15.118670</dc:date>
    <dc:format>image/svg+xml</dc:format>
    <dc:creator>
     <cc:Agent>
      <dc:title>Matplotlib v3.7.1, https://matplotlib.org/</dc:title>
     </cc:Agent>
    </dc:creator>
   </cc:Work>
  </rdf:RDF>
 </metadata>
 <defs>
  <style type="text/css">*{stroke-linejoin: round; stroke-linecap: butt}</style>
 </defs>
 <g id="figure_1">
  <g id="patch_1">
   <path d="M 0 325.986375 
L 408.10125 325.986375 
L 408.10125 0 
L 0 0 
L 0 325.986375 
z
" style="fill: none"/>
  </g>
  <g id="axes_1">
   <g id="patch_2">
    <path d="M 43.78125 288.430125 
L 400.90125 288.430125 
L 400.90125 22.318125 
L 43.78125 22.318125 
L 43.78125 288.430125 
z
" style="fill: none"/>
   </g>
   <g id="matplotlib.axis_1">
    <g id="xtick_1">
     <g id="line2d_1">
      <path d="M 60.013977 288.430125 
L 60.013977 22.318125 
" clip-path="url(#p8ef723a24a)" style="fill: none; stroke: #b0b0b0; stroke-width: 0.8; stroke-linecap: square"/>
     </g>
     <g id="line2d_2">
      <defs>
       <path id="mca1d4118be" d="M 0 0 
L 0 3.5 
" style="stroke: #000000; stroke-width: 0.8"/>
      </defs>
      <g>
       <use xlink:href="#mca1d4118be" x="60.013977" y="288.430125" style="stroke: #000000; stroke-width: 0.8"/>
      </g>
     </g>
     <g id="text_1">
      <!-- 0.0 -->
      <g transform="translate(52.062415 303.028562) scale(0.1 -0.1)">
       <defs>
        <path id="DejaVuSans-30" d="M 2034 4250 
Q 1547 4250 1301 3770 
Q 1056 3291 1056 2328 
Q 1056 1369 1301 889 
Q 1547 409 2034 409 
Q 2525 409 2770 889 
Q 3016 1369 3016 2328 
Q 3016 3291 2770 3770 
Q 2525 4250 2034 4250 
z
M 2034 4750 
Q 2819 4750 3233 4129 
Q 3647 3509 3647 2328 
Q 3647 1150 3233 529 
Q 2819 -91 2034 -91 
Q 1250 -91 836 529 
Q 422 1150 422 2328 
Q 422 3509 836 4129 
Q 1250 4750 2034 4750 
z
" transform="scale(0.015625)"/>
        <path id="DejaVuSans-2e" d="M 684 794 
L 1344 794 
L 1344 0 
L 684 0 
L 684 794 
z
" transform="scale(0.015625)"/>
       </defs>
       <use xlink:href="#DejaVuSans-30"/>
       <use xlink:href="#DejaVuSans-2e" x="63.623047"/>
       <use xlink:href="#DejaVuSans-30" x="95.410156"/>
      </g>
     </g>
    </g>
    <g id="xtick_2">
     <g id="line2d_3">
      <path d="M 100.595795 288.430125 
L 100.595795 22.318125 
" clip-path="url(#p8ef723a24a)" style="fill: none; stroke: #b0b0b0; stroke-width: 0.8; stroke-linecap: square"/>
     </g>
     <g id="line2d_4">
      <g>
       <use xlink:href="#mca1d4118be" x="100.595795" y="288.430125" style="stroke: #000000; stroke-width: 0.8"/>
      </g>
     </g>
     <g id="text_2">
      <!-- 2.5 -->
      <g transform="translate(92.644233 303.028562) scale(0.1 -0.1)">
       <defs>
        <path id="DejaVuSans-32" d="M 1228 531 
L 3431 531 
L 3431 0 
L 469 0 
L 469 531 
Q 828 903 1448 1529 
Q 2069 2156 2228 2338 
Q 2531 2678 2651 2914 
Q 2772 3150 2772 3378 
Q 2772 3750 2511 3984 
Q 2250 4219 1831 4219 
Q 1534 4219 1204 4116 
Q 875 4013 500 3803 
L 500 4441 
Q 881 4594 1212 4672 
Q 1544 4750 1819 4750 
Q 2544 4750 2975 4387 
Q 3406 4025 3406 3419 
Q 3406 3131 3298 2873 
Q 3191 2616 2906 2266 
Q 2828 2175 2409 1742 
Q 1991 1309 1228 531 
z
" transform="scale(0.015625)"/>
        <path id="DejaVuSans-35" d="M 691 4666 
L 3169 4666 
L 3169 4134 
L 1269 4134 
L 1269 2991 
Q 1406 3038 1543 3061 
Q 1681 3084 1819 3084 
Q 2600 3084 3056 2656 
Q 3513 2228 3513 1497 
Q 3513 744 3044 326 
Q 2575 -91 1722 -91 
Q 1428 -91 1123 -41 
Q 819 9 494 109 
L 494 744 
Q 775 591 1075 516 
Q 1375 441 1709 441 
Q 2250 441 2565 725 
Q 2881 1009 2881 1497 
Q 2881 1984 2565 2268 
Q 2250 2553 1709 2553 
Q 1456 2553 1204 2497 
Q 953 2441 691 2322 
L 691 4666 
z
" transform="scale(0.015625)"/>
       </defs>
       <use xlink:href="#DejaVuSans-32"/>
       <use xlink:href="#DejaVuSans-2e" x="63.623047"/>
       <use xlink:href="#DejaVuSans-35" x="95.410156"/>
      </g>
     </g>
    </g>
    <g id="xtick_3">
     <g id="line2d_5">
      <path d="M 141.177614 288.430125 
L 141.177614 22.318125 
" clip-path="url(#p8ef723a24a)" style="fill: none; stroke: #b0b0b0; stroke-width: 0.8; stroke-linecap: square"/>
     </g>
     <g id="line2d_6">
      <g>
       <use xlink:href="#mca1d4118be" x="141.177614" y="288.430125" style="stroke: #000000; stroke-width: 0.8"/>
      </g>
     </g>
     <g id="text_3">
      <!-- 5.0 -->
      <g transform="translate(133.226051 303.028562) scale(0.1 -0.1)">
       <use xlink:href="#DejaVuSans-35"/>
       <use xlink:href="#DejaVuSans-2e" x="63.623047"/>
       <use xlink:href="#DejaVuSans-30" x="95.410156"/>
      </g>
     </g>
    </g>
    <g id="xtick_4">
     <g id="line2d_7">
      <path d="M 181.759432 288.430125 
L 181.759432 22.318125 
" clip-path="url(#p8ef723a24a)" style="fill: none; stroke: #b0b0b0; stroke-width: 0.8; stroke-linecap: square"/>
     </g>
     <g id="line2d_8">
      <g>
       <use xlink:href="#mca1d4118be" x="181.759432" y="288.430125" style="stroke: #000000; stroke-width: 0.8"/>
      </g>
     </g>
     <g id="text_4">
      <!-- 7.5 -->
      <g transform="translate(173.807869 303.028562) scale(0.1 -0.1)">
       <defs>
        <path id="DejaVuSans-37" d="M 525 4666 
L 3525 4666 
L 3525 4397 
L 1831 0 
L 1172 0 
L 2766 4134 
L 525 4134 
L 525 4666 
z
" transform="scale(0.015625)"/>
       </defs>
       <use xlink:href="#DejaVuSans-37"/>
       <use xlink:href="#DejaVuSans-2e" x="63.623047"/>
       <use xlink:href="#DejaVuSans-35" x="95.410156"/>
      </g>
     </g>
    </g>
    <g id="xtick_5">
     <g id="line2d_9">
      <path d="M 222.34125 288.430125 
L 222.34125 22.318125 
" clip-path="url(#p8ef723a24a)" style="fill: none; stroke: #b0b0b0; stroke-width: 0.8; stroke-linecap: square"/>
     </g>
     <g id="line2d_10">
      <g>
       <use xlink:href="#mca1d4118be" x="222.34125" y="288.430125" style="stroke: #000000; stroke-width: 0.8"/>
      </g>
     </g>
     <g id="text_5">
      <!-- 10.0 -->
      <g transform="translate(211.208438 303.028562) scale(0.1 -0.1)">
       <defs>
        <path id="DejaVuSans-31" d="M 794 531 
L 1825 531 
L 1825 4091 
L 703 3866 
L 703 4441 
L 1819 4666 
L 2450 4666 
L 2450 531 
L 3481 531 
L 3481 0 
L 794 0 
L 794 531 
z
" transform="scale(0.015625)"/>
       </defs>
       <use xlink:href="#DejaVuSans-31"/>
       <use xlink:href="#DejaVuSans-30" x="63.623047"/>
       <use xlink:href="#DejaVuSans-2e" x="127.246094"/>
       <use xlink:href="#DejaVuSans-30" x="159.033203"/>
      </g>
     </g>
    </g>
    <g id="xtick_6">
     <g id="line2d_11">
      <path d="M 262.923068 288.430125 
L 262.923068 22.318125 
" clip-path="url(#p8ef723a24a)" style="fill: none; stroke: #b0b0b0; stroke-width: 0.8; stroke-linecap: square"/>
     </g>
     <g id="line2d_12">
      <g>
       <use xlink:href="#mca1d4118be" x="262.923068" y="288.430125" style="stroke: #000000; stroke-width: 0.8"/>
      </g>
     </g>
     <g id="text_6">
      <!-- 12.5 -->
      <g transform="translate(251.790256 303.028562) scale(0.1 -0.1)">
       <use xlink:href="#DejaVuSans-31"/>
       <use xlink:href="#DejaVuSans-32" x="63.623047"/>
       <use xlink:href="#DejaVuSans-2e" x="127.246094"/>
       <use xlink:href="#DejaVuSans-35" x="159.033203"/>
      </g>
     </g>
    </g>
    <g id="xtick_7">
     <g id="line2d_13">
      <path d="M 303.504886 288.430125 
L 303.504886 22.318125 
" clip-path="url(#p8ef723a24a)" style="fill: none; stroke: #b0b0b0; stroke-width: 0.8; stroke-linecap: square"/>
     </g>
     <g id="line2d_14">
      <g>
       <use xlink:href="#mca1d4118be" x="303.504886" y="288.430125" style="stroke: #000000; stroke-width: 0.8"/>
      </g>
     </g>
     <g id="text_7">
      <!-- 15.0 -->
      <g transform="translate(292.372074 303.028562) scale(0.1 -0.1)">
       <use xlink:href="#DejaVuSans-31"/>
       <use xlink:href="#DejaVuSans-35" x="63.623047"/>
       <use xlink:href="#DejaVuSans-2e" x="127.246094"/>
       <use xlink:href="#DejaVuSans-30" x="159.033203"/>
      </g>
     </g>
    </g>
    <g id="xtick_8">
     <g id="line2d_15">
      <path d="M 344.086705 288.430125 
L 344.086705 22.318125 
" clip-path="url(#p8ef723a24a)" style="fill: none; stroke: #b0b0b0; stroke-width: 0.8; stroke-linecap: square"/>
     </g>
     <g id="line2d_16">
      <g>
       <use xlink:href="#mca1d4118be" x="344.086705" y="288.430125" style="stroke: #000000; stroke-width: 0.8"/>
      </g>
     </g>
     <g id="text_8">
      <!-- 17.5 -->
      <g transform="translate(332.953892 303.028562) scale(0.1 -0.1)">
       <use xlink:href="#DejaVuSans-31"/>
       <use xlink:href="#DejaVuSans-37" x="63.623047"/>
       <use xlink:href="#DejaVuSans-2e" x="127.246094"/>
       <use xlink:href="#DejaVuSans-35" x="159.033203"/>
      </g>
     </g>
    </g>
    <g id="xtick_9">
     <g id="line2d_17">
      <path d="M 384.668523 288.430125 
L 384.668523 22.318125 
" clip-path="url(#p8ef723a24a)" style="fill: none; stroke: #b0b0b0; stroke-width: 0.8; stroke-linecap: square"/>
     </g>
     <g id="line2d_18">
      <g>
       <use xlink:href="#mca1d4118be" x="384.668523" y="288.430125" style="stroke: #000000; stroke-width: 0.8"/>
      </g>
     </g>
     <g id="text_9">
      <!-- 20.0 -->
      <g transform="translate(373.53571 303.028562) scale(0.1 -0.1)">
       <use xlink:href="#DejaVuSans-32"/>
       <use xlink:href="#DejaVuSans-30" x="63.623047"/>
       <use xlink:href="#DejaVuSans-2e" x="127.246094"/>
       <use xlink:href="#DejaVuSans-30" x="159.033203"/>
      </g>
     </g>
    </g>
    <g id="text_10">
     <!-- time (s) -->
     <g transform="translate(202.949844 316.706687) scale(0.1 -0.1)">
      <defs>
       <path id="DejaVuSans-74" d="M 1172 4494 
L 1172 3500 
L 2356 3500 
L 2356 3053 
L 1172 3053 
L 1172 1153 
Q 1172 725 1289 603 
Q 1406 481 1766 481 
L 2356 481 
L 2356 0 
L 1766 0 
Q 1100 0 847 248 
Q 594 497 594 1153 
L 594 3053 
L 172 3053 
L 172 3500 
L 594 3500 
L 594 4494 
L 1172 4494 
z
" transform="scale(0.015625)"/>
       <path id="DejaVuSans-69" d="M 603 3500 
L 1178 3500 
L 1178 0 
L 603 0 
L 603 3500 
z
M 603 4863 
L 1178 4863 
L 1178 4134 
L 603 4134 
L 603 4863 
z
" transform="scale(0.015625)"/>
       <path id="DejaVuSans-6d" d="M 3328 2828 
Q 3544 3216 3844 3400 
Q 4144 3584 4550 3584 
Q 5097 3584 5394 3201 
Q 5691 2819 5691 2113 
L 5691 0 
L 5113 0 
L 5113 2094 
Q 5113 2597 4934 2840 
Q 4756 3084 4391 3084 
Q 3944 3084 3684 2787 
Q 3425 2491 3425 1978 
L 3425 0 
L 2847 0 
L 2847 2094 
Q 2847 2600 2669 2842 
Q 2491 3084 2119 3084 
Q 1678 3084 1418 2786 
Q 1159 2488 1159 1978 
L 1159 0 
L 581 0 
L 581 3500 
L 1159 3500 
L 1159 2956 
Q 1356 3278 1631 3431 
Q 1906 3584 2284 3584 
Q 2666 3584 2933 3390 
Q 3200 3197 3328 2828 
z
" transform="scale(0.015625)"/>
       <path id="DejaVuSans-65" d="M 3597 1894 
L 3597 1613 
L 953 1613 
Q 991 1019 1311 708 
Q 1631 397 2203 397 
Q 2534 397 2845 478 
Q 3156 559 3463 722 
L 3463 178 
Q 3153 47 2828 -22 
Q 2503 -91 2169 -91 
Q 1331 -91 842 396 
Q 353 884 353 1716 
Q 353 2575 817 3079 
Q 1281 3584 2069 3584 
Q 2775 3584 3186 3129 
Q 3597 2675 3597 1894 
z
M 3022 2063 
Q 3016 2534 2758 2815 
Q 2500 3097 2075 3097 
Q 1594 3097 1305 2825 
Q 1016 2553 972 2059 
L 3022 2063 
z
" transform="scale(0.015625)"/>
       <path id="DejaVuSans-20" transform="scale(0.015625)"/>
       <path id="DejaVuSans-28" d="M 1984 4856 
Q 1566 4138 1362 3434 
Q 1159 2731 1159 2009 
Q 1159 1288 1364 580 
Q 1569 -128 1984 -844 
L 1484 -844 
Q 1016 -109 783 600 
Q 550 1309 550 2009 
Q 550 2706 781 3412 
Q 1013 4119 1484 4856 
L 1984 4856 
z
" transform="scale(0.015625)"/>
       <path id="DejaVuSans-73" d="M 2834 3397 
L 2834 2853 
Q 2591 2978 2328 3040 
Q 2066 3103 1784 3103 
Q 1356 3103 1142 2972 
Q 928 2841 928 2578 
Q 928 2378 1081 2264 
Q 1234 2150 1697 2047 
L 1894 2003 
Q 2506 1872 2764 1633 
Q 3022 1394 3022 966 
Q 3022 478 2636 193 
Q 2250 -91 1575 -91 
Q 1294 -91 989 -36 
Q 684 19 347 128 
L 347 722 
Q 666 556 975 473 
Q 1284 391 1588 391 
Q 1994 391 2212 530 
Q 2431 669 2431 922 
Q 2431 1156 2273 1281 
Q 2116 1406 1581 1522 
L 1381 1569 
Q 847 1681 609 1914 
Q 372 2147 372 2553 
Q 372 3047 722 3315 
Q 1072 3584 1716 3584 
Q 2034 3584 2315 3537 
Q 2597 3491 2834 3397 
z
" transform="scale(0.015625)"/>
       <path id="DejaVuSans-29" d="M 513 4856 
L 1013 4856 
Q 1481 4119 1714 3412 
Q 1947 2706 1947 2009 
Q 1947 1309 1714 600 
Q 1481 -109 1013 -844 
L 513 -844 
Q 928 -128 1133 580 
Q 1338 1288 1338 2009 
Q 1338 2731 1133 3434 
Q 928 4138 513 4856 
z
" transform="scale(0.015625)"/>
      </defs>
      <use xlink:href="#DejaVuSans-74"/>
      <use xlink:href="#DejaVuSans-69" x="39.208984"/>
      <use xlink:href="#DejaVuSans-6d" x="66.992188"/>
      <use xlink:href="#DejaVuSans-65" x="164.404297"/>
      <use xlink:href="#DejaVuSans-20" x="225.927734"/>
      <use xlink:href="#DejaVuSans-28" x="257.714844"/>
      <use xlink:href="#DejaVuSans-73" x="296.728516"/>
      <use xlink:href="#DejaVuSans-29" x="348.828125"/>
     </g>
    </g>
   </g>
   <g id="matplotlib.axis_2">
    <g id="ytick_1">
     <g id="line2d_19">
      <path d="M 43.78125 261.001167 
L 400.90125 261.001167 
" clip-path="url(#p8ef723a24a)" style="fill: none; stroke: #b0b0b0; stroke-width: 0.8; stroke-linecap: square"/>
     </g>
     <g id="line2d_20">
      <defs>
       <path id="m6d96b6292d" d="M 0 0 
L -3.5 0 
" style="stroke: #000000; stroke-width: 0.8"/>
      </defs>
      <g>
       <use xlink:href="#m6d96b6292d" x="43.78125" y="261.001167" style="stroke: #000000; stroke-width: 0.8"/>
      </g>
     </g>
     <g id="text_11">
      <!-- 0.6 -->
      <g transform="translate(20.878125 264.800386) scale(0.1 -0.1)">
       <defs>
        <path id="DejaVuSans-36" d="M 2113 2584 
Q 1688 2584 1439 2293 
Q 1191 2003 1191 1497 
Q 1191 994 1439 701 
Q 1688 409 2113 409 
Q 2538 409 2786 701 
Q 3034 994 3034 1497 
Q 3034 2003 2786 2293 
Q 2538 2584 2113 2584 
z
M 3366 4563 
L 3366 3988 
Q 3128 4100 2886 4159 
Q 2644 4219 2406 4219 
Q 1781 4219 1451 3797 
Q 1122 3375 1075 2522 
Q 1259 2794 1537 2939 
Q 1816 3084 2150 3084 
Q 2853 3084 3261 2657 
Q 3669 2231 3669 1497 
Q 3669 778 3244 343 
Q 2819 -91 2113 -91 
Q 1303 -91 875 529 
Q 447 1150 447 2328 
Q 447 3434 972 4092 
Q 1497 4750 2381 4750 
Q 2619 4750 2861 4703 
Q 3103 4656 3366 4563 
z
" transform="scale(0.015625)"/>
       </defs>
       <use xlink:href="#DejaVuSans-30"/>
       <use xlink:href="#DejaVuSans-2e" x="63.623047"/>
       <use xlink:href="#DejaVuSans-36" x="95.410156"/>
      </g>
     </g>
    </g>
    <g id="ytick_2">
     <g id="line2d_21">
      <path d="M 43.78125 226.927928 
L 400.90125 226.927928 
" clip-path="url(#p8ef723a24a)" style="fill: none; stroke: #b0b0b0; stroke-width: 0.8; stroke-linecap: square"/>
     </g>
     <g id="line2d_22">
      <g>
       <use xlink:href="#m6d96b6292d" x="43.78125" y="226.927928" style="stroke: #000000; stroke-width: 0.8"/>
      </g>
     </g>
     <g id="text_12">
      <!-- 0.8 -->
      <g transform="translate(20.878125 230.727147) scale(0.1 -0.1)">
       <defs>
        <path id="DejaVuSans-38" d="M 2034 2216 
Q 1584 2216 1326 1975 
Q 1069 1734 1069 1313 
Q 1069 891 1326 650 
Q 1584 409 2034 409 
Q 2484 409 2743 651 
Q 3003 894 3003 1313 
Q 3003 1734 2745 1975 
Q 2488 2216 2034 2216 
z
M 1403 2484 
Q 997 2584 770 2862 
Q 544 3141 544 3541 
Q 544 4100 942 4425 
Q 1341 4750 2034 4750 
Q 2731 4750 3128 4425 
Q 3525 4100 3525 3541 
Q 3525 3141 3298 2862 
Q 3072 2584 2669 2484 
Q 3125 2378 3379 2068 
Q 3634 1759 3634 1313 
Q 3634 634 3220 271 
Q 2806 -91 2034 -91 
Q 1263 -91 848 271 
Q 434 634 434 1313 
Q 434 1759 690 2068 
Q 947 2378 1403 2484 
z
M 1172 3481 
Q 1172 3119 1398 2916 
Q 1625 2713 2034 2713 
Q 2441 2713 2670 2916 
Q 2900 3119 2900 3481 
Q 2900 3844 2670 4047 
Q 2441 4250 2034 4250 
Q 1625 4250 1398 4047 
Q 1172 3844 1172 3481 
z
" transform="scale(0.015625)"/>
       </defs>
       <use xlink:href="#DejaVuSans-30"/>
       <use xlink:href="#DejaVuSans-2e" x="63.623047"/>
       <use xlink:href="#DejaVuSans-38" x="95.410156"/>
      </g>
     </g>
    </g>
    <g id="ytick_3">
     <g id="line2d_23">
      <path d="M 43.78125 192.854688 
L 400.90125 192.854688 
" clip-path="url(#p8ef723a24a)" style="fill: none; stroke: #b0b0b0; stroke-width: 0.8; stroke-linecap: square"/>
     </g>
     <g id="line2d_24">
      <g>
       <use xlink:href="#m6d96b6292d" x="43.78125" y="192.854688" style="stroke: #000000; stroke-width: 0.8"/>
      </g>
     </g>
     <g id="text_13">
      <!-- 1.0 -->
      <g transform="translate(20.878125 196.653907) scale(0.1 -0.1)">
       <use xlink:href="#DejaVuSans-31"/>
       <use xlink:href="#DejaVuSans-2e" x="63.623047"/>
       <use xlink:href="#DejaVuSans-30" x="95.410156"/>
      </g>
     </g>
    </g>
    <g id="ytick_4">
     <g id="line2d_25">
      <path d="M 43.78125 158.781449 
L 400.90125 158.781449 
" clip-path="url(#p8ef723a24a)" style="fill: none; stroke: #b0b0b0; stroke-width: 0.8; stroke-linecap: square"/>
     </g>
     <g id="line2d_26">
      <g>
       <use xlink:href="#m6d96b6292d" x="43.78125" y="158.781449" style="stroke: #000000; stroke-width: 0.8"/>
      </g>
     </g>
     <g id="text_14">
      <!-- 1.2 -->
      <g transform="translate(20.878125 162.580668) scale(0.1 -0.1)">
       <use xlink:href="#DejaVuSans-31"/>
       <use xlink:href="#DejaVuSans-2e" x="63.623047"/>
       <use xlink:href="#DejaVuSans-32" x="95.410156"/>
      </g>
     </g>
    </g>
    <g id="ytick_5">
     <g id="line2d_27">
      <path d="M 43.78125 124.70821 
L 400.90125 124.70821 
" clip-path="url(#p8ef723a24a)" style="fill: none; stroke: #b0b0b0; stroke-width: 0.8; stroke-linecap: square"/>
     </g>
     <g id="line2d_28">
      <g>
       <use xlink:href="#m6d96b6292d" x="43.78125" y="124.70821" style="stroke: #000000; stroke-width: 0.8"/>
      </g>
     </g>
     <g id="text_15">
      <!-- 1.4 -->
      <g transform="translate(20.878125 128.507428) scale(0.1 -0.1)">
       <defs>
        <path id="DejaVuSans-34" d="M 2419 4116 
L 825 1625 
L 2419 1625 
L 2419 4116 
z
M 2253 4666 
L 3047 4666 
L 3047 1625 
L 3713 1625 
L 3713 1100 
L 3047 1100 
L 3047 0 
L 2419 0 
L 2419 1100 
L 313 1100 
L 313 1709 
L 2253 4666 
z
" transform="scale(0.015625)"/>
       </defs>
       <use xlink:href="#DejaVuSans-31"/>
       <use xlink:href="#DejaVuSans-2e" x="63.623047"/>
       <use xlink:href="#DejaVuSans-34" x="95.410156"/>
      </g>
     </g>
    </g>
    <g id="ytick_6">
     <g id="line2d_29">
      <path d="M 43.78125 90.63497 
L 400.90125 90.63497 
" clip-path="url(#p8ef723a24a)" style="fill: none; stroke: #b0b0b0; stroke-width: 0.8; stroke-linecap: square"/>
     </g>
     <g id="line2d_30">
      <g>
       <use xlink:href="#m6d96b6292d" x="43.78125" y="90.63497" style="stroke: #000000; stroke-width: 0.8"/>
      </g>
     </g>
     <g id="text_16">
      <!-- 1.6 -->
      <g transform="translate(20.878125 94.434189) scale(0.1 -0.1)">
       <use xlink:href="#DejaVuSans-31"/>
       <use xlink:href="#DejaVuSans-2e" x="63.623047"/>
       <use xlink:href="#DejaVuSans-36" x="95.410156"/>
      </g>
     </g>
    </g>
    <g id="ytick_7">
     <g id="line2d_31">
      <path d="M 43.78125 56.561731 
L 400.90125 56.561731 
" clip-path="url(#p8ef723a24a)" style="fill: none; stroke: #b0b0b0; stroke-width: 0.8; stroke-linecap: square"/>
     </g>
     <g id="line2d_32">
      <g>
       <use xlink:href="#m6d96b6292d" x="43.78125" y="56.561731" style="stroke: #000000; stroke-width: 0.8"/>
      </g>
     </g>
     <g id="text_17">
      <!-- 1.8 -->
      <g transform="translate(20.878125 60.360949) scale(0.1 -0.1)">
       <use xlink:href="#DejaVuSans-31"/>
       <use xlink:href="#DejaVuSans-2e" x="63.623047"/>
       <use xlink:href="#DejaVuSans-38" x="95.410156"/>
      </g>
     </g>
    </g>
    <g id="ytick_8">
     <g id="line2d_33">
      <path d="M 43.78125 22.488491 
L 400.90125 22.488491 
" clip-path="url(#p8ef723a24a)" style="fill: none; stroke: #b0b0b0; stroke-width: 0.8; stroke-linecap: square"/>
     </g>
     <g id="line2d_34">
      <g>
       <use xlink:href="#m6d96b6292d" x="43.78125" y="22.488491" style="stroke: #000000; stroke-width: 0.8"/>
      </g>
     </g>
     <g id="text_18">
      <!-- 2.0 -->
      <g transform="translate(20.878125 26.28771) scale(0.1 -0.1)">
       <use xlink:href="#DejaVuSans-32"/>
       <use xlink:href="#DejaVuSans-2e" x="63.623047"/>
       <use xlink:href="#DejaVuSans-30" x="95.410156"/>
      </g>
     </g>
    </g>
    <g id="text_19">
     <!-- x (m) -->
     <g transform="translate(14.798438 168.694437) rotate(-90) scale(0.1 -0.1)">
      <defs>
       <path id="DejaVuSans-78" d="M 3513 3500 
L 2247 1797 
L 3578 0 
L 2900 0 
L 1881 1375 
L 863 0 
L 184 0 
L 1544 1831 
L 300 3500 
L 978 3500 
L 1906 2253 
L 2834 3500 
L 3513 3500 
z
" transform="scale(0.015625)"/>
      </defs>
      <use xlink:href="#DejaVuSans-78"/>
      <use xlink:href="#DejaVuSans-20" x="59.179688"/>
      <use xlink:href="#DejaVuSans-28" x="90.966797"/>
      <use xlink:href="#DejaVuSans-6d" x="129.980469"/>
      <use xlink:href="#DejaVuSans-29" x="227.392578"/>
     </g>
    </g>
   </g>
   <g id="line2d_35">
    <path d="M 60.013977 56.561731 
L 60.582123 56.654001 
L 61.150268 56.977988 
L 61.799577 57.646144 
L 62.773541 58.933279 
L 63.666341 60.448909 
L 64.640305 62.581834 
L 65.695432 65.538188 
L 66.750559 69.19853 
L 67.968014 74.294751 
L 69.266632 80.666237 
L 70.889905 89.742439 
L 73.162486 103.758859 
L 77.545323 130.773698 
L 79.49325 141.140234 
L 81.116523 148.533402 
L 82.577468 154.115042 
L 83.95725 158.438138 
L 85.093541 161.33467 
L 86.148668 163.524817 
L 87.284959 165.391394 
L 88.42125 166.812502 
L 89.638705 167.919054 
L 90.693832 168.604594 
L 92.154777 169.241149 
L 94.427359 169.837685 
L 96.781105 170.393561 
L 98.972523 171.19157 
L 100.352305 171.909986 
L 102.300232 173.248976 
L 104.410486 175.093525 
L 107.332377 178.12515 
L 111.796377 182.962322 
L 114.474777 185.462212 
L 116.09805 186.715437 
L 117.558995 187.649289 
L 119.019941 188.395508 
L 120.480886 188.960933 
L 121.941832 189.361098 
L 123.483941 189.631093 
L 126.405832 189.817603 
L 134.84685 189.801468 
L 137.038268 189.973314 
L 142.070414 190.75018 
L 147.508377 191.826866 
L 153.676814 192.698155 
L 159.439432 192.943752 
L 162.361323 192.923679 
L 166.176014 192.854948 
L 169.584886 192.816713 
L 172.750268 192.832706 
L 185.330632 193.243852 
L 265.357977 193.420708 
L 269.65965 193.417034 
L 273.798995 193.417284 
L 277.938341 193.414036 
L 282.240014 193.41632 
L 286.379359 193.415261 
L 290.518705 193.418749 
L 294.820377 193.417642 
L 298.959723 193.420136 
L 303.261395 193.417777 
L 307.400741 193.419457 
L 311.540086 193.416926 
L 315.679432 193.418933 
L 319.818777 193.416921 
L 323.958123 193.419338 
L 328.097468 193.417464 
L 332.236814 193.419759 
L 336.376159 193.417628 
L 340.515505 193.419684 
L 344.65485 193.417432 
L 348.794195 193.419501 
L 352.933541 193.417351 
L 357.072886 193.419536 
L 361.212232 193.417457 
L 365.351577 193.419649 
L 369.490923 193.417528 
L 373.630268 193.41966 
L 377.769614 193.417494 
L 381.908959 193.419612 
L 384.668523 193.419603 
L 384.668523 193.419603 
" clip-path="url(#p8ef723a24a)" style="fill: none; stroke: #1f77b4; stroke-width: 1.5; stroke-linecap: square"/>
   </g>
   <g id="line2d_36">
    <path d="M 60.013977 34.414125 
L 60.582123 34.498764 
L 61.312595 34.851051 
L 62.286559 35.612092 
L 63.828668 37.157702 
L 69.915941 43.78874 
L 71.214559 45.638525 
L 72.35085 47.63139 
L 73.487141 50.085918 
L 74.623432 53.10134 
L 75.840886 57.035467 
L 79.006268 68.138479 
L 80.954195 75.927701 
L 82.983286 85.139562 
L 85.093541 95.764814 
L 88.745905 115.374251 
L 91.586632 130.088918 
L 93.696886 139.870832 
L 95.482486 147.075285 
L 97.105759 152.662995 
L 98.647868 157.098551 
L 99.946486 160.197857 
L 101.163941 162.612132 
L 102.543723 164.824624 
L 103.761177 166.383491 
L 105.222123 167.848375 
L 106.845395 169.084819 
L 109.036814 170.345194 
L 111.877541 171.747212 
L 113.906632 172.83179 
L 116.666195 174.624215 
L 119.588086 176.956519 
L 129.003068 185.20601 
L 130.788668 186.419997 
L 132.411941 187.346493 
L 134.035214 188.098892 
L 135.658486 188.683084 
L 137.281759 189.1142 
L 138.986195 189.428656 
L 142.719723 189.764243 
L 148.806995 190.005756 
L 155.137759 190.652143 
L 163.659941 191.992248 
L 170.640014 192.684641 
L 179.568014 192.819981 
L 183.545032 192.799886 
L 205.053395 193.247265 
L 210.653686 193.274121 
L 214.630705 193.267009 
L 218.77005 193.25168 
L 223.23405 193.252094 
L 227.211068 193.26302 
L 231.512741 193.28895 
L 235.814414 193.310636 
L 239.791432 193.327786 
L 244.255432 193.331824 
L 248.394777 193.332055 
L 252.69645 193.325186 
L 256.998123 193.32434 
L 261.137468 193.322927 
L 265.439141 193.328994 
L 269.578486 193.331697 
L 273.717832 193.337742 
L 278.019505 193.337528 
L 282.15885 193.33957 
L 286.460523 193.336244 
L 290.599868 193.337274 
L 294.739214 193.334728 
L 299.040886 193.33732 
L 303.180232 193.336117 
L 307.319577 193.339209 
L 311.62125 193.337681 
L 315.760595 193.339946 
L 319.899941 193.337593 
L 324.039286 193.33942 
L 328.178632 193.337063 
L 332.317977 193.339182 
L 336.457323 193.337184 
L 340.596668 193.339537 
L 344.736014 193.337572 
L 348.875359 193.339795 
L 353.014705 193.337639 
L 357.15405 193.339712 
L 361.293395 193.337499 
L 365.432741 193.339605 
L 369.572086 193.337471 
L 373.711432 193.339652 
L 377.850777 193.337555 
L 381.990123 193.339727 
L 384.668523 193.337594 
L 384.668523 193.337594 
" clip-path="url(#p8ef723a24a)" style="fill: none; stroke: #ff7f0e; stroke-width: 1.5; stroke-linecap: square"/>
   </g>
   <g id="line2d_37">
    <path d="M 60.013977 274.630463 
L 60.582123 274.542066 
L 61.231432 274.196604 
L 61.961905 273.513163 
L 62.773541 272.409439 
L 63.666341 270.803422 
L 64.721468 268.41257 
L 67.724523 261.112605 
L 70.889905 254.440135 
L 76.409032 242.747027 
L 80.38605 233.419245 
L 86.716814 218.567124 
L 89.070559 213.842313 
L 90.693832 211.018872 
L 92.154777 208.82354 
L 93.534559 207.062531 
L 95.157832 205.383424 
L 96.781105 204.105674 
L 98.404377 203.189386 
L 100.189977 202.532816 
L 102.300232 202.114333 
L 105.709105 201.880303 
L 108.468668 201.740891 
L 110.416595 201.530032 
L 112.202195 201.208338 
L 113.987795 200.750852 
L 115.854559 200.137339 
L 120.399723 198.241435 
L 123.727432 196.785708 
L 127.785614 195.330367 
L 131.032159 194.579505 
L 134.441032 194.201959 
L 139.148523 194.175059 
L 144.261832 194.353465 
L 151.728886 194.229628 
L 163.659941 193.314785 
L 173.561905 193.132772 
L 178.350559 193.19992 
L 183.788523 193.239705 
L 187.278559 193.224549 
L 192.391868 193.148946 
L 196.693541 193.079389 
L 200.508232 193.030684 
L 205.621541 193.009854 
L 209.517395 193.016948 
L 213.656741 193.031353 
L 217.796086 193.046069 
L 222.260086 193.044985 
L 226.237105 193.037809 
L 230.538777 193.02079 
L 234.84045 193.010155 
L 238.979795 193.001808 
L 243.281468 193.004048 
L 247.420814 193.005686 
L 251.560159 193.011872 
L 255.861832 193.011708 
L 260.001177 193.012991 
L 264.30285 193.008057 
L 268.442195 193.007246 
L 272.581541 193.003137 
L 276.883214 193.004762 
L 281.022559 193.003268 
L 285.161905 193.006462 
L 289.463577 193.005125 
L 293.602923 193.007422 
L 297.904595 193.004862 
L 302.043941 193.006357 
L 306.183286 193.003665 
L 310.322632 193.005548 
L 314.461977 193.003452 
L 318.601323 193.005818 
L 322.740668 193.003912 
L 326.880014 193.00618 
L 331.019359 193.004023 
L 335.158705 193.006048 
L 339.29805 193.003766 
L 343.437395 193.005809 
L 347.576741 193.003641 
L 351.716086 193.005815 
L 355.855432 193.003731 
L 359.994777 193.00592 
L 364.134123 193.003796 
L 368.273468 193.005925 
L 372.412814 193.003753 
L 376.552159 193.005866 
L 380.691505 193.003709 
L 384.668523 193.005851 
L 384.668523 193.005851 
" clip-path="url(#p8ef723a24a)" style="fill: none; stroke: #2ca02c; stroke-width: 1.5; stroke-linecap: square"/>
   </g>
   <g id="line2d_38">
    <path d="M 60.013977 68.487364 
L 60.582123 68.575411 
L 61.231432 68.916814 
L 61.961905 69.585786 
L 62.773541 70.655044 
L 63.747505 72.352283 
L 64.802632 74.655601 
L 66.020086 77.861164 
L 67.399868 82.149173 
L 69.185468 88.538355 
L 71.052232 94.79409 
L 79.899068 123.10839 
L 88.42125 152.696804 
L 90.612668 159.088669 
L 92.235941 163.207236 
L 93.696886 166.421434 
L 95.076668 169.022024 
L 96.618777 171.434075 
L 97.917395 173.090934 
L 99.13485 174.363631 
L 100.758123 175.689201 
L 102.543723 176.756546 
L 104.735141 177.678543 
L 106.764232 178.332448 
L 110.091941 179.352592 
L 113.581977 180.735718 
L 115.529905 181.70411 
L 117.721323 182.93623 
L 124.457905 186.972247 
L 127.947941 188.670619 
L 129.733541 189.34353 
L 131.519141 189.872473 
L 133.304741 190.263149 
L 135.171505 190.542144 
L 139.392014 190.809014 
L 145.966268 190.898851 
L 153.839141 191.436519 
L 157.329177 191.815067 
L 160.819214 192.187067 
L 169.909541 192.72509 
L 185.411795 192.727587 
L 190.849759 192.814147 
L 194.989105 192.897959 
L 198.803795 192.968578 
L 203.917105 193.018151 
L 207.731795 193.028476 
L 212.195795 193.016837 
L 216.497468 193.007437 
L 220.474486 193.002971 
L 224.938486 193.014743 
L 229.077832 193.028658 
L 233.217177 193.046824 
L 237.51885 193.055704 
L 241.658195 193.061338 
L 245.959868 193.05732 
L 250.099214 193.055829 
L 254.238559 193.051288 
L 258.540232 193.053717 
L 262.679577 193.054151 
L 266.818923 193.059715 
L 271.120595 193.060468 
L 275.259941 193.063928 
L 279.561614 193.061678 
L 283.700959 193.062942 
L 287.840305 193.059932 
L 292.141977 193.061717 
L 296.281323 193.059854 
L 300.420668 193.062653 
L 304.560014 193.061196 
L 308.699359 193.063778 
L 312.838705 193.061742 
L 316.97805 193.063735 
L 321.117395 193.061356 
L 325.256741 193.063325 
L 329.396086 193.06115 
L 333.535432 193.063385 
L 337.674777 193.061394 
L 341.814123 193.063667 
L 345.953468 193.06159 
L 350.092814 193.063724 
L 354.232159 193.061533 
L 358.371505 193.06362 
L 362.51085 193.061449 
L 366.650195 193.063593 
L 370.789541 193.061478 
L 374.928886 193.063653 
L 379.068232 193.061534 
L 383.207577 193.063683 
L 384.668523 193.063682 
L 384.668523 193.063682 
" clip-path="url(#p8ef723a24a)" style="fill: none; stroke: #d62728; stroke-width: 1.5; stroke-linecap: square"/>
   </g>
   <g id="line2d_39">
    <path d="M 60.013977 276.334125 
L 60.663286 276.223714 
L 61.393759 275.858393 
L 62.53005 274.995771 
L 66.020086 272.165284 
L 68.130341 270.87563 
L 70.078268 269.614693 
L 71.376886 268.479366 
L 72.35085 267.773603 
L 73.974123 266.864918 
L 75.597395 265.780374 
L 76.733686 264.684728 
L 77.869977 263.203952 
L 79.006268 261.289202 
L 80.304886 258.555403 
L 81.765832 254.825502 
L 83.551432 249.483545 
L 86.148668 240.751538 
L 89.963359 227.812352 
L 92.073614 221.518098 
L 93.77805 217.18182 
L 95.157832 214.222413 
L 96.618777 211.647803 
L 97.998559 209.728437 
L 99.13485 208.491895 
L 100.271141 207.53628 
L 101.407432 206.825925 
L 102.543723 206.321264 
L 103.761177 205.959481 
L 105.952595 205.626975 
L 108.468668 205.436108 
L 110.497759 205.223276 
L 113.176159 204.650194 
L 114.718268 204.13558 
L 117.396668 202.920756 
L 119.425759 201.798127 
L 125.675359 198.10416 
L 128.840741 196.615519 
L 130.545177 196.004566 
L 133.304741 195.323145 
L 136.388959 194.956111 
L 140.934123 194.901813 
L 145.154632 194.990882 
L 147.833032 194.978726 
L 154.407286 194.542664 
L 157.734995 194.181163 
L 161.306195 193.795812 
L 164.228086 193.54104 
L 166.98765 193.375395 
L 169.828377 193.281844 
L 188.577177 193.313332 
L 193.528159 193.213411 
L 197.992159 193.12465 
L 201.644523 193.071143 
L 206.920159 193.047856 
L 210.73485 193.053895 
L 215.036523 193.073389 
L 219.500523 193.081568 
L 223.477541 193.080054 
L 227.941541 193.062285 
L 232.080886 193.046685 
L 236.220232 193.030863 
L 240.521905 193.026774 
L 244.66125 193.025571 
L 248.962923 193.032211 
L 253.264595 193.034046 
L 257.403941 193.037195 
L 261.705614 193.033007 
L 265.844959 193.031587 
L 269.984305 193.026087 
L 274.285977 193.026236 
L 278.425323 193.023871 
L 282.726995 193.026944 
L 286.866341 193.02593 
L 291.005686 193.028733 
L 295.307359 193.026521 
L 299.446705 193.028042 
L 303.58605 193.025126 
L 307.725395 193.026691 
L 311.864741 193.024339 
L 316.004086 193.026595 
L 320.143432 193.024724 
L 324.282777 193.027104 
L 328.422123 193.025056 
L 332.561468 193.027134 
L 336.700814 193.024836 
L 340.840159 193.02682 
L 344.979505 193.024585 
L 349.11885 193.026715 
L 353.258195 193.024622 
L 357.397541 193.026829 
L 361.536886 193.024732 
L 365.676232 193.026882 
L 369.815577 193.024717 
L 373.954923 193.026823 
L 378.094268 193.024651 
L 382.233614 193.02678 
L 384.668523 193.02678 
L 384.668523 193.02678 
" clip-path="url(#p8ef723a24a)" style="fill: none; stroke: #9467bd; stroke-width: 1.5; stroke-linecap: square"/>
   </g>
   <g id="patch_3">
    <path d="M 43.78125 288.430125 
L 43.78125 22.318125 
" style="fill: none; stroke: #000000; stroke-width: 0.8; stroke-linejoin: miter; stroke-linecap: square"/>
   </g>
   <g id="patch_4">
    <path d="M 400.90125 288.430125 
L 400.90125 22.318125 
" style="fill: none; stroke: #000000; stroke-width: 0.8; stroke-linejoin: miter; stroke-linecap: square"/>
   </g>
   <g id="patch_5">
    <path d="M 43.78125 288.430125 
L 400.90125 288.430125 
" style="fill: none; stroke: #000000; stroke-width: 0.8; stroke-linejoin: miter; stroke-linecap: square"/>
   </g>
   <g id="patch_6">
    <path d="M 43.78125 22.318125 
L 400.90125 22.318125 
" style="fill: none; stroke: #000000; stroke-width: 0.8; stroke-linejoin: miter; stroke-linecap: square"/>
   </g>
   <g id="text_20">
    <!-- x vs time -->
    <g transform="translate(194.744063 16.318125) scale(0.12 -0.12)">
     <defs>
      <path id="DejaVuSans-76" d="M 191 3500 
L 800 3500 
L 1894 563 
L 2988 3500 
L 3597 3500 
L 2284 0 
L 1503 0 
L 191 3500 
z
" transform="scale(0.015625)"/>
     </defs>
     <use xlink:href="#DejaVuSans-78"/>
     <use xlink:href="#DejaVuSans-20" x="59.179688"/>
     <use xlink:href="#DejaVuSans-76" x="90.966797"/>
     <use xlink:href="#DejaVuSans-73" x="150.146484"/>
     <use xlink:href="#DejaVuSans-20" x="202.246094"/>
     <use xlink:href="#DejaVuSans-74" x="234.033203"/>
     <use xlink:href="#DejaVuSans-69" x="273.242188"/>
     <use xlink:href="#DejaVuSans-6d" x="301.025391"/>
     <use xlink:href="#DejaVuSans-65" x="398.4375"/>
    </g>
   </g>
  </g>
 </g>
 <defs>
  <clipPath id="p8ef723a24a">
   <rect x="43.78125" y="22.318125" width="357.12" height="266.112"/>
  </clipPath>
 </defs>
</svg>
