<?xml version="1.0" encoding="utf-8" standalone="no"?>
<!DOCTYPE svg PUBLIC "-//W3C//DTD SVG 1.1//EN"
  "http://www.w3.org/Graphics/SVG/1.1/DTD/svg11.dtd">
<svg xmlns:xlink="http://www.w3.org/1999/xlink" width="408.10125pt" height="411.675375pt" viewBox="0 0 408.10125 411.675375" xmlns="http://www.w3.org/2000/svg" version="1.1">
 <metadata>
  <rdf:RDF xmlns:dc="http://purl.org/dc/elements/1.1/" xmlns:cc="http://creativecommons.org/ns#" xmlns:rdf="http://www.w3.org/1999/02/22-rdf-syntax-ns#">
   <cc:Work>
    <dc:type rdf:resource="http://purl.org/dc/dcmitype/StillImage"/>
    <dc:date>2023-06-28T15:07:38.504189</dc:date>
    <dc:format>image/svg+xml</dc:format>
    <dc:creator>
     <cc:Agent>
      <dc:title>Matplotlib v3.7.1, https://matplotlib.org/</dc:title>
     </cc:Agent>
    </dc:creator>
   </cc:Work>
  </rdf:RDF>
 </metadata>
 <defs>
  <style type="text/css">*{stroke-linejoin: round; stroke-linecap: butt}</style>
 </defs>
 <g id="figure_1">
  <g id="patch_1">
   <path d="M 0 411.675375 
L 408.10125 411.675375 
L 408.10125 -0 
L 0 -0 
L 0 411.675375 
z
" style="fill: none"/>
  </g>
  <g id="axes_1">
   <g id="patch_2">
    <path d="M 43.78125 288.430125 
L 400.90125 288.430125 
L 400.90125 22.318125 
L 43.78125 22.318125 
L 43.78125 288.430125 
z
" style="fill: none"/>
   </g>
   <g id="matplotlib.axis_1">
    <g id="xtick_1">
     <g id="line2d_1">
      <path d="M 60.013977 288.430125 
L 60.013977 22.318125 
" clip-path="url(#p8ce13fdf64)" style="fill: none; stroke: #b0b0b0; stroke-width: 0.8; stroke-linecap: square"/>
     </g>
     <g id="line2d_2">
      <defs>
       <path id="m65923997c1" d="M 0 0 
L 0 3.5 
" style="stroke: #000000; stroke-width: 0.8"/>
      </defs>
      <g>
       <use xlink:href="#m65923997c1" x="60.013977" y="288.430125" style="stroke: #000000; stroke-width: 0.8"/>
      </g>
     </g>
     <g id="text_1">
      <!-- 0 -->
      <g transform="translate(56.832727 303.028562) scale(0.1 -0.1)">
       <defs>
        <path id="DejaVuSans-30" d="M 2034 4250 
Q 1547 4250 1301 3770 
Q 1056 3291 1056 2328 
Q 1056 1369 1301 889 
Q 1547 409 2034 409 
Q 2525 409 2770 889 
Q 3016 1369 3016 2328 
Q 3016 3291 2770 3770 
Q 2525 4250 2034 4250 
z
M 2034 4750 
Q 2819 4750 3233 4129 
Q 3647 3509 3647 2328 
Q 3647 1150 3233 529 
Q 2819 -91 2034 -91 
Q 1250 -91 836 529 
Q 422 1150 422 2328 
Q 422 3509 836 4129 
Q 1250 4750 2034 4750 
z
" transform="scale(0.015625)"/>
       </defs>
       <use xlink:href="#DejaVuSans-30"/>
      </g>
     </g>
    </g>
    <g id="xtick_2">
     <g id="line2d_3">
      <path d="M 114.123068 288.430125 
L 114.123068 22.318125 
" clip-path="url(#p8ce13fdf64)" style="fill: none; stroke: #b0b0b0; stroke-width: 0.8; stroke-linecap: square"/>
     </g>
     <g id="line2d_4">
      <g>
       <use xlink:href="#m65923997c1" x="114.123068" y="288.430125" style="stroke: #000000; stroke-width: 0.8"/>
      </g>
     </g>
     <g id="text_2">
      <!-- 2 -->
      <g transform="translate(110.941818 303.028562) scale(0.1 -0.1)">
       <defs>
        <path id="DejaVuSans-32" d="M 1228 531 
L 3431 531 
L 3431 0 
L 469 0 
L 469 531 
Q 828 903 1448 1529 
Q 2069 2156 2228 2338 
Q 2531 2678 2651 2914 
Q 2772 3150 2772 3378 
Q 2772 3750 2511 3984 
Q 2250 4219 1831 4219 
Q 1534 4219 1204 4116 
Q 875 4013 500 3803 
L 500 4441 
Q 881 4594 1212 4672 
Q 1544 4750 1819 4750 
Q 2544 4750 2975 4387 
Q 3406 4025 3406 3419 
Q 3406 3131 3298 2873 
Q 3191 2616 2906 2266 
Q 2828 2175 2409 1742 
Q 1991 1309 1228 531 
z
" transform="scale(0.015625)"/>
       </defs>
       <use xlink:href="#DejaVuSans-32"/>
      </g>
     </g>
    </g>
    <g id="xtick_3">
     <g id="line2d_5">
      <path d="M 168.232159 288.430125 
L 168.232159 22.318125 
" clip-path="url(#p8ce13fdf64)" style="fill: none; stroke: #b0b0b0; stroke-width: 0.8; stroke-linecap: square"/>
     </g>
     <g id="line2d_6">
      <g>
       <use xlink:href="#m65923997c1" x="168.232159" y="288.430125" style="stroke: #000000; stroke-width: 0.8"/>
      </g>
     </g>
     <g id="text_3">
      <!-- 4 -->
      <g transform="translate(165.050909 303.028562) scale(0.1 -0.1)">
       <defs>
        <path id="DejaVuSans-34" d="M 2419 4116 
L 825 1625 
L 2419 1625 
L 2419 4116 
z
M 2253 4666 
L 3047 4666 
L 3047 1625 
L 3713 1625 
L 3713 1100 
L 3047 1100 
L 3047 0 
L 2419 0 
L 2419 1100 
L 313 1100 
L 313 1709 
L 2253 4666 
z
" transform="scale(0.015625)"/>
       </defs>
       <use xlink:href="#DejaVuSans-34"/>
      </g>
     </g>
    </g>
    <g id="xtick_4">
     <g id="line2d_7">
      <path d="M 222.34125 288.430125 
L 222.34125 22.318125 
" clip-path="url(#p8ce13fdf64)" style="fill: none; stroke: #b0b0b0; stroke-width: 0.8; stroke-linecap: square"/>
     </g>
     <g id="line2d_8">
      <g>
       <use xlink:href="#m65923997c1" x="222.34125" y="288.430125" style="stroke: #000000; stroke-width: 0.8"/>
      </g>
     </g>
     <g id="text_4">
      <!-- 6 -->
      <g transform="translate(219.16 303.028562) scale(0.1 -0.1)">
       <defs>
        <path id="DejaVuSans-36" d="M 2113 2584 
Q 1688 2584 1439 2293 
Q 1191 2003 1191 1497 
Q 1191 994 1439 701 
Q 1688 409 2113 409 
Q 2538 409 2786 701 
Q 3034 994 3034 1497 
Q 3034 2003 2786 2293 
Q 2538 2584 2113 2584 
z
M 3366 4563 
L 3366 3988 
Q 3128 4100 2886 4159 
Q 2644 4219 2406 4219 
Q 1781 4219 1451 3797 
Q 1122 3375 1075 2522 
Q 1259 2794 1537 2939 
Q 1816 3084 2150 3084 
Q 2853 3084 3261 2657 
Q 3669 2231 3669 1497 
Q 3669 778 3244 343 
Q 2819 -91 2113 -91 
Q 1303 -91 875 529 
Q 447 1150 447 2328 
Q 447 3434 972 4092 
Q 1497 4750 2381 4750 
Q 2619 4750 2861 4703 
Q 3103 4656 3366 4563 
z
" transform="scale(0.015625)"/>
       </defs>
       <use xlink:href="#DejaVuSans-36"/>
      </g>
     </g>
    </g>
    <g id="xtick_5">
     <g id="line2d_9">
      <path d="M 276.450341 288.430125 
L 276.450341 22.318125 
" clip-path="url(#p8ce13fdf64)" style="fill: none; stroke: #b0b0b0; stroke-width: 0.8; stroke-linecap: square"/>
     </g>
     <g id="line2d_10">
      <g>
       <use xlink:href="#m65923997c1" x="276.450341" y="288.430125" style="stroke: #000000; stroke-width: 0.8"/>
      </g>
     </g>
     <g id="text_5">
      <!-- 8 -->
      <g transform="translate(273.269091 303.028562) scale(0.1 -0.1)">
       <defs>
        <path id="DejaVuSans-38" d="M 2034 2216 
Q 1584 2216 1326 1975 
Q 1069 1734 1069 1313 
Q 1069 891 1326 650 
Q 1584 409 2034 409 
Q 2484 409 2743 651 
Q 3003 894 3003 1313 
Q 3003 1734 2745 1975 
Q 2488 2216 2034 2216 
z
M 1403 2484 
Q 997 2584 770 2862 
Q 544 3141 544 3541 
Q 544 4100 942 4425 
Q 1341 4750 2034 4750 
Q 2731 4750 3128 4425 
Q 3525 4100 3525 3541 
Q 3525 3141 3298 2862 
Q 3072 2584 2669 2484 
Q 3125 2378 3379 2068 
Q 3634 1759 3634 1313 
Q 3634 634 3220 271 
Q 2806 -91 2034 -91 
Q 1263 -91 848 271 
Q 434 634 434 1313 
Q 434 1759 690 2068 
Q 947 2378 1403 2484 
z
M 1172 3481 
Q 1172 3119 1398 2916 
Q 1625 2713 2034 2713 
Q 2441 2713 2670 2916 
Q 2900 3119 2900 3481 
Q 2900 3844 2670 4047 
Q 2441 4250 2034 4250 
Q 1625 4250 1398 4047 
Q 1172 3844 1172 3481 
z
" transform="scale(0.015625)"/>
       </defs>
       <use xlink:href="#DejaVuSans-38"/>
      </g>
     </g>
    </g>
    <g id="xtick_6">
     <g id="line2d_11">
      <path d="M 330.559432 288.430125 
L 330.559432 22.318125 
" clip-path="url(#p8ce13fdf64)" style="fill: none; stroke: #b0b0b0; stroke-width: 0.8; stroke-linecap: square"/>
     </g>
     <g id="line2d_12">
      <g>
       <use xlink:href="#m65923997c1" x="330.559432" y="288.430125" style="stroke: #000000; stroke-width: 0.8"/>
      </g>
     </g>
     <g id="text_6">
      <!-- 10 -->
      <g transform="translate(324.196932 303.028562) scale(0.1 -0.1)">
       <defs>
        <path id="DejaVuSans-31" d="M 794 531 
L 1825 531 
L 1825 4091 
L 703 3866 
L 703 4441 
L 1819 4666 
L 2450 4666 
L 2450 531 
L 3481 531 
L 3481 0 
L 794 0 
L 794 531 
z
" transform="scale(0.015625)"/>
       </defs>
       <use xlink:href="#DejaVuSans-31"/>
       <use xlink:href="#DejaVuSans-30" x="63.623047"/>
      </g>
     </g>
    </g>
    <g id="xtick_7">
     <g id="line2d_13">
      <path d="M 384.668523 288.430125 
L 384.668523 22.318125 
" clip-path="url(#p8ce13fdf64)" style="fill: none; stroke: #b0b0b0; stroke-width: 0.8; stroke-linecap: square"/>
     </g>
     <g id="line2d_14">
      <g>
       <use xlink:href="#m65923997c1" x="384.668523" y="288.430125" style="stroke: #000000; stroke-width: 0.8"/>
      </g>
     </g>
     <g id="text_7">
      <!-- 12 -->
      <g transform="translate(378.306023 303.028562) scale(0.1 -0.1)">
       <use xlink:href="#DejaVuSans-31"/>
       <use xlink:href="#DejaVuSans-32" x="63.623047"/>
      </g>
     </g>
    </g>
    <g id="text_8">
     <!-- time (s) -->
     <g transform="translate(202.949844 316.706687) scale(0.1 -0.1)">
      <defs>
       <path id="DejaVuSans-74" d="M 1172 4494 
L 1172 3500 
L 2356 3500 
L 2356 3053 
L 1172 3053 
L 1172 1153 
Q 1172 725 1289 603 
Q 1406 481 1766 481 
L 2356 481 
L 2356 0 
L 1766 0 
Q 1100 0 847 248 
Q 594 497 594 1153 
L 594 3053 
L 172 3053 
L 172 3500 
L 594 3500 
L 594 4494 
L 1172 4494 
z
" transform="scale(0.015625)"/>
       <path id="DejaVuSans-69" d="M 603 3500 
L 1178 3500 
L 1178 0 
L 603 0 
L 603 3500 
z
M 603 4863 
L 1178 4863 
L 1178 4134 
L 603 4134 
L 603 4863 
z
" transform="scale(0.015625)"/>
       <path id="DejaVuSans-6d" d="M 3328 2828 
Q 3544 3216 3844 3400 
Q 4144 3584 4550 3584 
Q 5097 3584 5394 3201 
Q 5691 2819 5691 2113 
L 5691 0 
L 5113 0 
L 5113 2094 
Q 5113 2597 4934 2840 
Q 4756 3084 4391 3084 
Q 3944 3084 3684 2787 
Q 3425 2491 3425 1978 
L 3425 0 
L 2847 0 
L 2847 2094 
Q 2847 2600 2669 2842 
Q 2491 3084 2119 3084 
Q 1678 3084 1418 2786 
Q 1159 2488 1159 1978 
L 1159 0 
L 581 0 
L 581 3500 
L 1159 3500 
L 1159 2956 
Q 1356 3278 1631 3431 
Q 1906 3584 2284 3584 
Q 2666 3584 2933 3390 
Q 3200 3197 3328 2828 
z
" transform="scale(0.015625)"/>
       <path id="DejaVuSans-65" d="M 3597 1894 
L 3597 1613 
L 953 1613 
Q 991 1019 1311 708 
Q 1631 397 2203 397 
Q 2534 397 2845 478 
Q 3156 559 3463 722 
L 3463 178 
Q 3153 47 2828 -22 
Q 2503 -91 2169 -91 
Q 1331 -91 842 396 
Q 353 884 353 1716 
Q 353 2575 817 3079 
Q 1281 3584 2069 3584 
Q 2775 3584 3186 3129 
Q 3597 2675 3597 1894 
z
M 3022 2063 
Q 3016 2534 2758 2815 
Q 2500 3097 2075 3097 
Q 1594 3097 1305 2825 
Q 1016 2553 972 2059 
L 3022 2063 
z
" transform="scale(0.015625)"/>
       <path id="DejaVuSans-20" transform="scale(0.015625)"/>
       <path id="DejaVuSans-28" d="M 1984 4856 
Q 1566 4138 1362 3434 
Q 1159 2731 1159 2009 
Q 1159 1288 1364 580 
Q 1569 -128 1984 -844 
L 1484 -844 
Q 1016 -109 783 600 
Q 550 1309 550 2009 
Q 550 2706 781 3412 
Q 1013 4119 1484 4856 
L 1984 4856 
z
" transform="scale(0.015625)"/>
       <path id="DejaVuSans-73" d="M 2834 3397 
L 2834 2853 
Q 2591 2978 2328 3040 
Q 2066 3103 1784 3103 
Q 1356 3103 1142 2972 
Q 928 2841 928 2578 
Q 928 2378 1081 2264 
Q 1234 2150 1697 2047 
L 1894 2003 
Q 2506 1872 2764 1633 
Q 3022 1394 3022 966 
Q 3022 478 2636 193 
Q 2250 -91 1575 -91 
Q 1294 -91 989 -36 
Q 684 19 347 128 
L 347 722 
Q 666 556 975 473 
Q 1284 391 1588 391 
Q 1994 391 2212 530 
Q 2431 669 2431 922 
Q 2431 1156 2273 1281 
Q 2116 1406 1581 1522 
L 1381 1569 
Q 847 1681 609 1914 
Q 372 2147 372 2553 
Q 372 3047 722 3315 
Q 1072 3584 1716 3584 
Q 2034 3584 2315 3537 
Q 2597 3491 2834 3397 
z
" transform="scale(0.015625)"/>
       <path id="DejaVuSans-29" d="M 513 4856 
L 1013 4856 
Q 1481 4119 1714 3412 
Q 1947 2706 1947 2009 
Q 1947 1309 1714 600 
Q 1481 -109 1013 -844 
L 513 -844 
Q 928 -128 1133 580 
Q 1338 1288 1338 2009 
Q 1338 2731 1133 3434 
Q 928 4138 513 4856 
z
" transform="scale(0.015625)"/>
      </defs>
      <use xlink:href="#DejaVuSans-74"/>
      <use xlink:href="#DejaVuSans-69" x="39.208984"/>
      <use xlink:href="#DejaVuSans-6d" x="66.992188"/>
      <use xlink:href="#DejaVuSans-65" x="164.404297"/>
      <use xlink:href="#DejaVuSans-20" x="225.927734"/>
      <use xlink:href="#DejaVuSans-28" x="257.714844"/>
      <use xlink:href="#DejaVuSans-73" x="296.728516"/>
      <use xlink:href="#DejaVuSans-29" x="348.828125"/>
     </g>
    </g>
   </g>
   <g id="matplotlib.axis_2">
    <g id="ytick_1">
     <g id="line2d_15">
      <path d="M 43.78125 241.149662 
L 400.90125 241.149662 
" clip-path="url(#p8ce13fdf64)" style="fill: none; stroke: #b0b0b0; stroke-width: 0.8; stroke-linecap: square"/>
     </g>
     <g id="line2d_16">
      <defs>
       <path id="meebf0120a2" d="M 0 0 
L -3.5 0 
" style="stroke: #000000; stroke-width: 0.8"/>
      </defs>
      <g>
       <use xlink:href="#meebf0120a2" x="43.78125" y="241.149662" style="stroke: #000000; stroke-width: 0.8"/>
      </g>
     </g>
     <g id="text_9">
      <!-- 0.5 -->
      <g transform="translate(20.878125 244.94888) scale(0.1 -0.1)">
       <defs>
        <path id="DejaVuSans-2e" d="M 684 794 
L 1344 794 
L 1344 0 
L 684 0 
L 684 794 
z
" transform="scale(0.015625)"/>
        <path id="DejaVuSans-35" d="M 691 4666 
L 3169 4666 
L 3169 4134 
L 1269 4134 
L 1269 2991 
Q 1406 3038 1543 3061 
Q 1681 3084 1819 3084 
Q 2600 3084 3056 2656 
Q 3513 2228 3513 1497 
Q 3513 744 3044 326 
Q 2575 -91 1722 -91 
Q 1428 -91 1123 -41 
Q 819 9 494 109 
L 494 744 
Q 775 591 1075 516 
Q 1375 441 1709 441 
Q 2250 441 2565 725 
Q 2881 1009 2881 1497 
Q 2881 1984 2565 2268 
Q 2250 2553 1709 2553 
Q 1456 2553 1204 2497 
Q 953 2441 691 2322 
L 691 4666 
z
" transform="scale(0.015625)"/>
       </defs>
       <use xlink:href="#DejaVuSans-30"/>
       <use xlink:href="#DejaVuSans-2e" x="63.623047"/>
       <use xlink:href="#DejaVuSans-35" x="95.410156"/>
      </g>
     </g>
    </g>
    <g id="ytick_2">
     <g id="line2d_17">
      <path d="M 43.78125 189.407804 
L 400.90125 189.407804 
" clip-path="url(#p8ce13fdf64)" style="fill: none; stroke: #b0b0b0; stroke-width: 0.8; stroke-linecap: square"/>
     </g>
     <g id="line2d_18">
      <g>
       <use xlink:href="#meebf0120a2" x="43.78125" y="189.407804" style="stroke: #000000; stroke-width: 0.8"/>
      </g>
     </g>
     <g id="text_10">
      <!-- 1.0 -->
      <g transform="translate(20.878125 193.207022) scale(0.1 -0.1)">
       <use xlink:href="#DejaVuSans-31"/>
       <use xlink:href="#DejaVuSans-2e" x="63.623047"/>
       <use xlink:href="#DejaVuSans-30" x="95.410156"/>
      </g>
     </g>
    </g>
    <g id="ytick_3">
     <g id="line2d_19">
      <path d="M 43.78125 137.665946 
L 400.90125 137.665946 
" clip-path="url(#p8ce13fdf64)" style="fill: none; stroke: #b0b0b0; stroke-width: 0.8; stroke-linecap: square"/>
     </g>
     <g id="line2d_20">
      <g>
       <use xlink:href="#meebf0120a2" x="43.78125" y="137.665946" style="stroke: #000000; stroke-width: 0.8"/>
      </g>
     </g>
     <g id="text_11">
      <!-- 1.5 -->
      <g transform="translate(20.878125 141.465165) scale(0.1 -0.1)">
       <use xlink:href="#DejaVuSans-31"/>
       <use xlink:href="#DejaVuSans-2e" x="63.623047"/>
       <use xlink:href="#DejaVuSans-35" x="95.410156"/>
      </g>
     </g>
    </g>
    <g id="ytick_4">
     <g id="line2d_21">
      <path d="M 43.78125 85.924088 
L 400.90125 85.924088 
" clip-path="url(#p8ce13fdf64)" style="fill: none; stroke: #b0b0b0; stroke-width: 0.8; stroke-linecap: square"/>
     </g>
     <g id="line2d_22">
      <g>
       <use xlink:href="#meebf0120a2" x="43.78125" y="85.924088" style="stroke: #000000; stroke-width: 0.8"/>
      </g>
     </g>
     <g id="text_12">
      <!-- 2.0 -->
      <g transform="translate(20.878125 89.723307) scale(0.1 -0.1)">
       <use xlink:href="#DejaVuSans-32"/>
       <use xlink:href="#DejaVuSans-2e" x="63.623047"/>
       <use xlink:href="#DejaVuSans-30" x="95.410156"/>
      </g>
     </g>
    </g>
    <g id="ytick_5">
     <g id="line2d_23">
      <path d="M 43.78125 34.18223 
L 400.90125 34.18223 
" clip-path="url(#p8ce13fdf64)" style="fill: none; stroke: #b0b0b0; stroke-width: 0.8; stroke-linecap: square"/>
     </g>
     <g id="line2d_24">
      <g>
       <use xlink:href="#meebf0120a2" x="43.78125" y="34.18223" style="stroke: #000000; stroke-width: 0.8"/>
      </g>
     </g>
     <g id="text_13">
      <!-- 2.5 -->
      <g transform="translate(20.878125 37.981449) scale(0.1 -0.1)">
       <use xlink:href="#DejaVuSans-32"/>
       <use xlink:href="#DejaVuSans-2e" x="63.623047"/>
       <use xlink:href="#DejaVuSans-35" x="95.410156"/>
      </g>
     </g>
    </g>
    <g id="text_14">
     <!-- x (m) -->
     <g transform="translate(14.798438 168.694437) rotate(-90) scale(0.1 -0.1)">
      <defs>
       <path id="DejaVuSans-78" d="M 3513 3500 
L 2247 1797 
L 3578 0 
L 2900 0 
L 1881 1375 
L 863 0 
L 184 0 
L 1544 1831 
L 300 3500 
L 978 3500 
L 1906 2253 
L 2834 3500 
L 3513 3500 
z
" transform="scale(0.015625)"/>
      </defs>
      <use xlink:href="#DejaVuSans-78"/>
      <use xlink:href="#DejaVuSans-20" x="59.179688"/>
      <use xlink:href="#DejaVuSans-28" x="90.966797"/>
      <use xlink:href="#DejaVuSans-6d" x="129.980469"/>
      <use xlink:href="#DejaVuSans-29" x="227.392578"/>
     </g>
    </g>
   </g>
   <g id="line2d_25">
    <path d="M 60.013977 86.958925 
L 61.501977 87.066176 
L 64.072159 87.277638 
L 65.289614 87.124678 
L 66.371795 86.754292 
L 67.453977 86.121068 
L 68.536159 85.198685 
L 69.618341 83.973547 
L 70.835795 82.231395 
L 72.188523 79.859991 
L 73.676523 76.767166 
L 75.435068 72.559487 
L 77.734705 66.406793 
L 84.768886 47.104158 
L 86.527432 43.105216 
L 88.015432 40.214431 
L 89.368159 38.042774 
L 90.585614 36.497592 
L 91.667795 35.471038 
L 92.614705 34.851842 
L 93.561614 34.499905 
L 94.37325 34.414125 
L 95.184886 34.528986 
L 95.996523 34.844542 
L 96.943432 35.464832 
L 97.890341 36.353173 
L 98.972523 37.689564 
L 100.189977 39.589257 
L 101.542705 42.169136 
L 103.030705 45.540531 
L 104.653977 49.800853 
L 106.547795 55.450215 
L 108.712159 62.661204 
L 111.282341 72.03969 
L 115.475795 87.380727 
L 118.722341 98.499098 
L 121.698341 107.965888 
L 124.403795 115.881636 
L 126.838705 122.395805 
L 129.138341 127.997345 
L 131.57325 133.338282 
L 134.008159 138.086747 
L 136.307795 142.052549 
L 138.472159 145.359986 
L 140.636523 148.292112 
L 142.800886 150.891102 
L 145.100523 153.339018 
L 147.94125 155.991867 
L 150.646705 158.225812 
L 153.622705 160.445466 
L 157.275068 162.951582 
L 165.79725 168.384728 
L 171.884523 172.097718 
L 178.512886 175.842388 
L 182.16525 177.681837 
L 186.62925 179.639077 
L 189.740523 180.799181 
L 194.06925 182.127465 
L 198.668523 183.20637 
L 203.944159 184.102979 
L 208.272886 184.650519 
L 213.819068 185.216714 
L 226.940523 186.43722 
L 237.085977 187.402093 
L 250.61325 188.379535 
L 263.464159 188.800966 
L 271.44525 188.915352 
L 282.402341 189.045825 
L 296.335432 189.261095 
L 370.194341 189.586101 
L 382.504159 189.592949 
L 384.668523 189.593153 
L 384.668523 189.593153 
" clip-path="url(#p8ce13fdf64)" style="fill: none; stroke: #1f77b4; stroke-width: 1.5; stroke-linecap: square"/>
   </g>
   <g id="line2d_26">
    <path d="M 60.013977 242.184499 
L 61.366705 242.083408 
L 63.666341 241.631032 
L 65.965977 241.253025 
L 67.453977 241.228119 
L 68.806705 241.427679 
L 70.024159 241.817711 
L 71.376886 242.501559 
L 72.729614 243.452157 
L 74.217614 244.793042 
L 75.840886 246.572171 
L 77.734705 248.984365 
L 80.575432 253.01207 
L 84.363068 258.351983 
L 86.256886 260.651639 
L 87.744886 262.14994 
L 89.097614 263.214338 
L 90.315068 263.890987 
L 91.39725 264.244103 
L 92.749977 264.409752 
L 94.237977 264.370312 
L 95.455432 264.131836 
L 96.808159 263.611452 
L 98.160886 262.799395 
L 99.513614 261.680449 
L 100.866341 260.249215 
L 102.354341 258.317658 
L 103.842341 256.032357 
L 105.600886 252.907481 
L 107.494705 249.101224 
L 109.794341 243.997615 
L 113.581977 234.92312 
L 118.316523 223.603662 
L 121.15725 217.430452 
L 123.321614 213.241304 
L 125.215432 210.012561 
L 126.973977 207.409877 
L 128.732523 205.20568 
L 130.220523 203.648154 
L 131.843795 202.266863 
L 133.467068 201.200449 
L 135.090341 200.426612 
L 136.713614 199.917465 
L 138.472159 199.628415 
L 140.095432 199.563612 
L 141.98925 199.683561 
L 144.288886 200.028617 
L 153.757977 201.775599 
L 156.057614 201.899378 
L 158.627795 201.792665 
L 160.792159 201.496324 
L 162.956523 201.016412 
L 165.256159 200.326197 
L 168.637977 199.035334 
L 172.155068 197.475307 
L 181.083068 193.559455 
L 184.735432 192.3381 
L 187.305614 191.679724 
L 190.552159 191.10207 
L 194.06925 190.77668 
L 197.992159 190.722074 
L 201.50925 190.86681 
L 206.649614 191.234315 
L 215.712886 191.724788 
L 219.635795 191.729463 
L 225.993614 191.439329 
L 231.133977 191.021397 
L 247.63725 189.807934 
L 256.294705 189.695822 
L 281.86125 190.00869 
L 310.944886 189.624363 
L 337.052523 189.713796 
L 354.502705 189.669746 
L 367.624159 189.636222 
L 377.904886 189.638083 
L 384.668523 189.646743 
L 384.668523 189.646743 
" clip-path="url(#p8ce13fdf64)" style="fill: none; stroke: #ff7f0e; stroke-width: 1.5; stroke-linecap: square"/>
   </g>
   <g id="line2d_27">
    <path d="M 60.013977 107.655668 
L 61.366705 107.76264 
L 62.989977 108.134894 
L 65.695432 109.035853 
L 68.536159 109.905645 
L 70.294705 110.209256 
L 71.782705 110.249721 
L 73.135432 110.080028 
L 74.488159 109.69312 
L 75.840886 109.078158 
L 77.328886 108.136218 
L 78.816886 106.925637 
L 80.440159 105.324254 
L 82.333977 103.142787 
L 84.904159 99.805187 
L 90.450341 92.482053 
L 92.208886 90.560616 
L 93.696886 89.236492 
L 95.049614 88.333507 
L 96.131795 87.851055 
L 97.213977 87.60697 
L 98.83725 87.55328 
L 100.189977 87.742222 
L 101.407432 88.140398 
L 102.489614 88.699955 
L 103.571795 89.472979 
L 104.78925 90.613985 
L 106.141977 92.238118 
L 107.494705 94.245642 
L 108.982705 96.898744 
L 110.470705 100.002191 
L 112.22925 104.222645 
L 114.123068 109.365342 
L 116.287432 115.876904 
L 119.128159 125.154907 
L 127.515068 153.132636 
L 129.814705 159.869443 
L 131.979068 165.505944 
L 133.872886 169.78986 
L 135.631432 173.179224 
L 137.119432 175.591455 
L 138.607432 177.578042 
L 139.960159 179.023184 
L 141.177614 180.039142 
L 142.530341 180.863047 
L 143.883068 181.386879 
L 145.235795 181.634649 
L 146.588523 181.633762 
L 148.076523 181.380268 
L 149.564523 180.907714 
L 151.593614 179.983522 
L 153.89325 178.684558 
L 160.115795 174.999093 
L 162.144886 174.06074 
L 164.30925 173.331017 
L 166.203068 172.958981 
L 168.096886 172.855173 
L 169.990705 173.024422 
L 171.884523 173.459172 
L 173.913614 174.199588 
L 175.807432 175.11462 
L 177.971795 176.379585 
L 180.541977 178.102037 
L 190.416886 185.042587 
L 193.257614 186.618971 
L 195.421977 187.593147 
L 197.451068 188.312355 
L 199.885977 188.919567 
L 202.320886 189.259118 
L 205.026341 189.352699 
L 208.002341 189.169783 
L 211.789977 188.633059 
L 222.882341 186.716272 
L 225.993614 186.424168 
L 229.916523 186.319213 
L 232.892523 186.429815 
L 236.139068 186.712199 
L 240.061977 187.215736 
L 251.560159 188.884769 
L 257.376886 189.39882 
L 261.164523 189.545683 
L 265.222705 189.551855 
L 269.95725 189.413644 
L 283.890341 188.815384 
L 293.494705 188.770481 
L 299.581977 188.913747 
L 311.350705 189.276286 
L 326.771795 189.389265 
L 342.86925 189.22217 
L 384.668523 189.337848 
L 384.668523 189.337848 
" clip-path="url(#p8ce13fdf64)" style="fill: none; stroke: #2ca02c; stroke-width: 1.5; stroke-linecap: square"/>
   </g>
   <g id="line2d_28">
    <path d="M 60.013977 222.522593 
L 61.366705 222.629874 
L 62.989977 223.006287 
L 65.424886 223.841706 
L 68.536159 224.888064 
L 69.618341 224.993289 
L 70.700523 224.889872 
L 71.782705 224.579489 
L 72.864886 224.066429 
L 74.082341 223.256795 
L 75.435068 222.081117 
L 77.058341 220.320346 
L 78.816886 218.033772 
L 80.710705 215.212562 
L 83.145614 211.190801 
L 87.880159 202.882393 
L 90.856159 197.900621 
L 93.020523 194.632527 
L 94.914341 192.111075 
L 96.672886 190.099461 
L 98.431432 188.439311 
L 99.919432 187.317357 
L 101.542705 186.39714 
L 103.030705 185.828631 
L 104.383432 185.530146 
L 105.736159 185.429919 
L 107.088886 185.514264 
L 108.576886 185.799288 
L 110.470705 186.418346 
L 112.635068 187.406405 
L 115.611068 189.092086 
L 122.780523 193.397688 
L 125.485977 194.683866 
L 127.920886 195.547343 
L 130.08525 196.047514 
L 132.249614 196.28491 
L 134.413977 196.264198 
L 136.713614 195.978307 
L 138.742705 195.531125 
L 141.718705 194.606899 
L 146.047432 192.913043 
L 151.864159 190.560074 
L 155.651795 189.302636 
L 158.898341 188.520497 
L 162.009614 188.065081 
L 164.444523 187.907235 
L 167.014705 187.913792 
L 170.802341 188.19505 
L 176.21325 188.947375 
L 183.112159 189.998952 
L 188.523068 190.549573 
L 193.392886 190.717709 
L 198.668523 190.562648 
L 203.132523 190.239396 
L 214.630705 189.251988 
L 222.205977 188.930652 
L 230.322341 188.987602 
L 249.260523 189.562936 
L 255.212523 189.582338 
L 261.840886 189.500927 
L 274.42125 189.264092 
L 296.876523 189.271939 
L 306.751432 189.342554 
L 340.704886 189.269365 
L 354.908523 189.284619 
L 366.947795 189.302573 
L 377.634341 189.304275 
L 384.668523 189.298097 
L 384.668523 189.298097 
" clip-path="url(#p8ce13fdf64)" style="fill: none; stroke: #d62728; stroke-width: 1.5; stroke-linecap: square"/>
   </g>
   <g id="line2d_29">
    <path d="M 60.013977 276.334125 
L 61.231432 276.238377 
L 62.448886 275.913796 
L 63.666341 275.341636 
L 64.883795 274.507064 
L 66.10125 273.399471 
L 68.265614 271.011572 
L 70.159432 268.647424 
L 72.05325 265.972973 
L 74.082341 262.746222 
L 76.51725 258.402245 
L 79.357977 252.794697 
L 82.875068 245.347069 
L 89.638705 231.059785 
L 92.614705 225.412916 
L 95.184886 221.064857 
L 97.213977 218.02518 
L 99.378341 215.189632 
L 101.407432 212.914038 
L 103.165977 211.228839 
L 105.195068 209.60088 
L 107.088886 208.357057 
L 108.982705 207.34902 
L 111.011795 206.490262 
L 113.71725 205.629625 
L 117.234341 204.834535 
L 128.732523 202.63848 
L 133.467068 201.317635 
L 137.254705 200.053562 
L 142.530341 198.12518 
L 148.076523 196.133558 
L 153.352159 194.518255 
L 156.598705 193.724971 
L 159.84525 193.102018 
L 163.091795 192.644587 
L 166.608886 192.314383 
L 170.531795 192.104284 
L 181.353614 191.927192 
L 187.440886 191.800222 
L 199.074341 191.214043 
L 209.490341 190.550145 
L 221.935432 190.078566 
L 240.332523 190.028087 
L 248.854705 190.018502 
L 273.339068 189.766115 
L 315.679432 189.725358 
L 327.718705 189.696613 
L 340.299068 189.681069 
L 351.256159 189.680639 
L 362.754341 189.686612 
L 374.793614 189.684224 
L 384.668523 189.681051 
L 384.668523 189.681051 
" clip-path="url(#p8ce13fdf64)" style="fill: none; stroke: #9467bd; stroke-width: 1.5; stroke-linecap: square"/>
   </g>
   <g id="patch_3">
    <path d="M 43.78125 288.430125 
L 43.78125 22.318125 
" style="fill: none; stroke: #000000; stroke-width: 0.8; stroke-linejoin: miter; stroke-linecap: square"/>
   </g>
   <g id="patch_4">
    <path d="M 400.90125 288.430125 
L 400.90125 22.318125 
" style="fill: none; stroke: #000000; stroke-width: 0.8; stroke-linejoin: miter; stroke-linecap: square"/>
   </g>
   <g id="patch_5">
    <path d="M 43.78125 288.430125 
L 400.90125 288.430125 
" style="fill: none; stroke: #000000; stroke-width: 0.8; stroke-linejoin: miter; stroke-linecap: square"/>
   </g>
   <g id="patch_6">
    <path d="M 43.78125 22.318125 
L 400.90125 22.318125 
" style="fill: none; stroke: #000000; stroke-width: 0.8; stroke-linejoin: miter; stroke-linecap: square"/>
   </g>
   <g id="text_15">
    <!-- x vs time -->
    <g transform="translate(194.744063 16.318125) scale(0.12 -0.12)">
     <defs>
      <path id="DejaVuSans-76" d="M 191 3500 
L 800 3500 
L 1894 563 
L 2988 3500 
L 3597 3500 
L 2284 0 
L 1503 0 
L 191 3500 
z
" transform="scale(0.015625)"/>
     </defs>
     <use xlink:href="#DejaVuSans-78"/>
     <use xlink:href="#DejaVuSans-20" x="59.179688"/>
     <use xlink:href="#DejaVuSans-76" x="90.966797"/>
     <use xlink:href="#DejaVuSans-73" x="150.146484"/>
     <use xlink:href="#DejaVuSans-20" x="202.246094"/>
     <use xlink:href="#DejaVuSans-74" x="234.033203"/>
     <use xlink:href="#DejaVuSans-69" x="273.242188"/>
     <use xlink:href="#DejaVuSans-6d" x="301.025391"/>
     <use xlink:href="#DejaVuSans-65" x="398.4375"/>
    </g>
   </g>
   <g id="legend_1">
    <g id="patch_7">
     <path d="M 35.661975 404.475375 
L 386.75885 404.475375 
Q 388.75885 404.475375 388.75885 402.475375 
L 388.75885 328.694125 
Q 388.75885 326.694125 386.75885 326.694125 
L 35.661975 326.694125 
Q 33.661975 326.694125 33.661975 328.694125 
L 33.661975 402.475375 
Q 33.661975 404.475375 35.661975 404.475375 
z
" style="fill: #ffffff; opacity: 0.8; stroke: #cccccc; stroke-linejoin: miter"/>
    </g>
    <g id="line2d_30">
     <path d="M 37.661975 334.792562 
L 47.661975 334.792562 
L 57.661975 334.792562 
" style="fill: none; stroke: #1f77b4; stroke-width: 1.5; stroke-linecap: square"/>
    </g>
    <g id="text_16">
     <!-- Var1: x_init = 1.99, l_init = 0.7, theta_init = 43.68, mc = 1.49 -->
     <g transform="translate(65.661975 338.292562) scale(0.1 -0.1)">
      <defs>
       <path id="DejaVuSans-56" d="M 1831 0 
L 50 4666 
L 709 4666 
L 2188 738 
L 3669 4666 
L 4325 4666 
L 2547 0 
L 1831 0 
z
" transform="scale(0.015625)"/>
       <path id="DejaVuSans-61" d="M 2194 1759 
Q 1497 1759 1228 1600 
Q 959 1441 959 1056 
Q 959 750 1161 570 
Q 1363 391 1709 391 
Q 2188 391 2477 730 
Q 2766 1069 2766 1631 
L 2766 1759 
L 2194 1759 
z
M 3341 1997 
L 3341 0 
L 2766 0 
L 2766 531 
Q 2569 213 2275 61 
Q 1981 -91 1556 -91 
Q 1019 -91 701 211 
Q 384 513 384 1019 
Q 384 1609 779 1909 
Q 1175 2209 1959 2209 
L 2766 2209 
L 2766 2266 
Q 2766 2663 2505 2880 
Q 2244 3097 1772 3097 
Q 1472 3097 1187 3025 
Q 903 2953 641 2809 
L 641 3341 
Q 956 3463 1253 3523 
Q 1550 3584 1831 3584 
Q 2591 3584 2966 3190 
Q 3341 2797 3341 1997 
z
" transform="scale(0.015625)"/>
       <path id="DejaVuSans-72" d="M 2631 2963 
Q 2534 3019 2420 3045 
Q 2306 3072 2169 3072 
Q 1681 3072 1420 2755 
Q 1159 2438 1159 1844 
L 1159 0 
L 581 0 
L 581 3500 
L 1159 3500 
L 1159 2956 
Q 1341 3275 1631 3429 
Q 1922 3584 2338 3584 
Q 2397 3584 2469 3576 
Q 2541 3569 2628 3553 
L 2631 2963 
z
" transform="scale(0.015625)"/>
       <path id="DejaVuSans-3a" d="M 750 794 
L 1409 794 
L 1409 0 
L 750 0 
L 750 794 
z
M 750 3309 
L 1409 3309 
L 1409 2516 
L 750 2516 
L 750 3309 
z
" transform="scale(0.015625)"/>
       <path id="DejaVuSans-5f" d="M 3263 -1063 
L 3263 -1509 
L -63 -1509 
L -63 -1063 
L 3263 -1063 
z
" transform="scale(0.015625)"/>
       <path id="DejaVuSans-6e" d="M 3513 2113 
L 3513 0 
L 2938 0 
L 2938 2094 
Q 2938 2591 2744 2837 
Q 2550 3084 2163 3084 
Q 1697 3084 1428 2787 
Q 1159 2491 1159 1978 
L 1159 0 
L 581 0 
L 581 3500 
L 1159 3500 
L 1159 2956 
Q 1366 3272 1645 3428 
Q 1925 3584 2291 3584 
Q 2894 3584 3203 3211 
Q 3513 2838 3513 2113 
z
" transform="scale(0.015625)"/>
       <path id="DejaVuSans-3d" d="M 678 2906 
L 4684 2906 
L 4684 2381 
L 678 2381 
L 678 2906 
z
M 678 1631 
L 4684 1631 
L 4684 1100 
L 678 1100 
L 678 1631 
z
" transform="scale(0.015625)"/>
       <path id="DejaVuSans-39" d="M 703 97 
L 703 672 
Q 941 559 1184 500 
Q 1428 441 1663 441 
Q 2288 441 2617 861 
Q 2947 1281 2994 2138 
Q 2813 1869 2534 1725 
Q 2256 1581 1919 1581 
Q 1219 1581 811 2004 
Q 403 2428 403 3163 
Q 403 3881 828 4315 
Q 1253 4750 1959 4750 
Q 2769 4750 3195 4129 
Q 3622 3509 3622 2328 
Q 3622 1225 3098 567 
Q 2575 -91 1691 -91 
Q 1453 -91 1209 -44 
Q 966 3 703 97 
z
M 1959 2075 
Q 2384 2075 2632 2365 
Q 2881 2656 2881 3163 
Q 2881 3666 2632 3958 
Q 2384 4250 1959 4250 
Q 1534 4250 1286 3958 
Q 1038 3666 1038 3163 
Q 1038 2656 1286 2365 
Q 1534 2075 1959 2075 
z
" transform="scale(0.015625)"/>
       <path id="DejaVuSans-2c" d="M 750 794 
L 1409 794 
L 1409 256 
L 897 -744 
L 494 -744 
L 750 256 
L 750 794 
z
" transform="scale(0.015625)"/>
       <path id="DejaVuSans-6c" d="M 603 4863 
L 1178 4863 
L 1178 0 
L 603 0 
L 603 4863 
z
" transform="scale(0.015625)"/>
       <path id="DejaVuSans-37" d="M 525 4666 
L 3525 4666 
L 3525 4397 
L 1831 0 
L 1172 0 
L 2766 4134 
L 525 4134 
L 525 4666 
z
" transform="scale(0.015625)"/>
       <path id="DejaVuSans-68" d="M 3513 2113 
L 3513 0 
L 2938 0 
L 2938 2094 
Q 2938 2591 2744 2837 
Q 2550 3084 2163 3084 
Q 1697 3084 1428 2787 
Q 1159 2491 1159 1978 
L 1159 0 
L 581 0 
L 581 4863 
L 1159 4863 
L 1159 2956 
Q 1366 3272 1645 3428 
Q 1925 3584 2291 3584 
Q 2894 3584 3203 3211 
Q 3513 2838 3513 2113 
z
" transform="scale(0.015625)"/>
       <path id="DejaVuSans-33" d="M 2597 2516 
Q 3050 2419 3304 2112 
Q 3559 1806 3559 1356 
Q 3559 666 3084 287 
Q 2609 -91 1734 -91 
Q 1441 -91 1130 -33 
Q 819 25 488 141 
L 488 750 
Q 750 597 1062 519 
Q 1375 441 1716 441 
Q 2309 441 2620 675 
Q 2931 909 2931 1356 
Q 2931 1769 2642 2001 
Q 2353 2234 1838 2234 
L 1294 2234 
L 1294 2753 
L 1863 2753 
Q 2328 2753 2575 2939 
Q 2822 3125 2822 3475 
Q 2822 3834 2567 4026 
Q 2313 4219 1838 4219 
Q 1578 4219 1281 4162 
Q 984 4106 628 3988 
L 628 4550 
Q 988 4650 1302 4700 
Q 1616 4750 1894 4750 
Q 2613 4750 3031 4423 
Q 3450 4097 3450 3541 
Q 3450 3153 3228 2886 
Q 3006 2619 2597 2516 
z
" transform="scale(0.015625)"/>
       <path id="DejaVuSans-63" d="M 3122 3366 
L 3122 2828 
Q 2878 2963 2633 3030 
Q 2388 3097 2138 3097 
Q 1578 3097 1268 2742 
Q 959 2388 959 1747 
Q 959 1106 1268 751 
Q 1578 397 2138 397 
Q 2388 397 2633 464 
Q 2878 531 3122 666 
L 3122 134 
Q 2881 22 2623 -34 
Q 2366 -91 2075 -91 
Q 1284 -91 818 406 
Q 353 903 353 1747 
Q 353 2603 823 3093 
Q 1294 3584 2113 3584 
Q 2378 3584 2631 3529 
Q 2884 3475 3122 3366 
z
" transform="scale(0.015625)"/>
      </defs>
      <use xlink:href="#DejaVuSans-56"/>
      <use xlink:href="#DejaVuSans-61" x="60.658203"/>
      <use xlink:href="#DejaVuSans-72" x="121.9375"/>
      <use xlink:href="#DejaVuSans-31" x="163.050781"/>
      <use xlink:href="#DejaVuSans-3a" x="226.673828"/>
      <use xlink:href="#DejaVuSans-20" x="260.365234"/>
      <use xlink:href="#DejaVuSans-78" x="292.152344"/>
      <use xlink:href="#DejaVuSans-5f" x="351.332031"/>
      <use xlink:href="#DejaVuSans-69" x="401.332031"/>
      <use xlink:href="#DejaVuSans-6e" x="429.115234"/>
      <use xlink:href="#DejaVuSans-69" x="492.494141"/>
      <use xlink:href="#DejaVuSans-74" x="520.277344"/>
      <use xlink:href="#DejaVuSans-20" x="559.486328"/>
      <use xlink:href="#DejaVuSans-3d" x="591.273438"/>
      <use xlink:href="#DejaVuSans-20" x="675.0625"/>
      <use xlink:href="#DejaVuSans-31" x="706.849609"/>
      <use xlink:href="#DejaVuSans-2e" x="770.472656"/>
      <use xlink:href="#DejaVuSans-39" x="802.259766"/>
      <use xlink:href="#DejaVuSans-39" x="865.882812"/>
      <use xlink:href="#DejaVuSans-2c" x="929.505859"/>
      <use xlink:href="#DejaVuSans-20" x="961.292969"/>
      <use xlink:href="#DejaVuSans-6c" x="993.080078"/>
      <use xlink:href="#DejaVuSans-5f" x="1020.863281"/>
      <use xlink:href="#DejaVuSans-69" x="1070.863281"/>
      <use xlink:href="#DejaVuSans-6e" x="1098.646484"/>
      <use xlink:href="#DejaVuSans-69" x="1162.025391"/>
      <use xlink:href="#DejaVuSans-74" x="1189.808594"/>
      <use xlink:href="#DejaVuSans-20" x="1229.017578"/>
      <use xlink:href="#DejaVuSans-3d" x="1260.804688"/>
      <use xlink:href="#DejaVuSans-20" x="1344.59375"/>
      <use xlink:href="#DejaVuSans-30" x="1376.380859"/>
      <use xlink:href="#DejaVuSans-2e" x="1440.003906"/>
      <use xlink:href="#DejaVuSans-37" x="1471.791016"/>
      <use xlink:href="#DejaVuSans-2c" x="1535.414062"/>
      <use xlink:href="#DejaVuSans-20" x="1567.201172"/>
      <use xlink:href="#DejaVuSans-74" x="1598.988281"/>
      <use xlink:href="#DejaVuSans-68" x="1638.197266"/>
      <use xlink:href="#DejaVuSans-65" x="1701.576172"/>
      <use xlink:href="#DejaVuSans-74" x="1763.099609"/>
      <use xlink:href="#DejaVuSans-61" x="1802.308594"/>
      <use xlink:href="#DejaVuSans-5f" x="1863.587891"/>
      <use xlink:href="#DejaVuSans-69" x="1913.587891"/>
      <use xlink:href="#DejaVuSans-6e" x="1941.371094"/>
      <use xlink:href="#DejaVuSans-69" x="2004.75"/>
      <use xlink:href="#DejaVuSans-74" x="2032.533203"/>
      <use xlink:href="#DejaVuSans-20" x="2071.742188"/>
      <use xlink:href="#DejaVuSans-3d" x="2103.529297"/>
      <use xlink:href="#DejaVuSans-20" x="2187.318359"/>
      <use xlink:href="#DejaVuSans-34" x="2219.105469"/>
      <use xlink:href="#DejaVuSans-33" x="2282.728516"/>
      <use xlink:href="#DejaVuSans-2e" x="2346.351562"/>
      <use xlink:href="#DejaVuSans-36" x="2378.138672"/>
      <use xlink:href="#DejaVuSans-38" x="2441.761719"/>
      <use xlink:href="#DejaVuSans-2c" x="2505.384766"/>
      <use xlink:href="#DejaVuSans-20" x="2537.171875"/>
      <use xlink:href="#DejaVuSans-6d" x="2568.958984"/>
      <use xlink:href="#DejaVuSans-63" x="2666.371094"/>
      <use xlink:href="#DejaVuSans-20" x="2721.351562"/>
      <use xlink:href="#DejaVuSans-3d" x="2753.138672"/>
      <use xlink:href="#DejaVuSans-20" x="2836.927734"/>
      <use xlink:href="#DejaVuSans-31" x="2868.714844"/>
      <use xlink:href="#DejaVuSans-2e" x="2932.337891"/>
      <use xlink:href="#DejaVuSans-34" x="2964.125"/>
      <use xlink:href="#DejaVuSans-39" x="3027.748047"/>
     </g>
    </g>
    <g id="line2d_31">
     <path d="M 37.661975 349.748812 
L 47.661975 349.748812 
L 57.661975 349.748812 
" style="fill: none; stroke: #ff7f0e; stroke-width: 1.5; stroke-linecap: square"/>
    </g>
    <g id="text_17">
     <!-- Var2: x_init = 0.49, l_init = 0.93, theta_init = -30.05, mc = 0.97 -->
     <g transform="translate(65.661975 353.248812) scale(0.1 -0.1)">
      <defs>
       <path id="DejaVuSans-2d" d="M 313 2009 
L 1997 2009 
L 1997 1497 
L 313 1497 
L 313 2009 
z
" transform="scale(0.015625)"/>
      </defs>
      <use xlink:href="#DejaVuSans-56"/>
      <use xlink:href="#DejaVuSans-61" x="60.658203"/>
      <use xlink:href="#DejaVuSans-72" x="121.9375"/>
      <use xlink:href="#DejaVuSans-32" x="163.050781"/>
      <use xlink:href="#DejaVuSans-3a" x="226.673828"/>
      <use xlink:href="#DejaVuSans-20" x="260.365234"/>
      <use xlink:href="#DejaVuSans-78" x="292.152344"/>
      <use xlink:href="#DejaVuSans-5f" x="351.332031"/>
      <use xlink:href="#DejaVuSans-69" x="401.332031"/>
      <use xlink:href="#DejaVuSans-6e" x="429.115234"/>
      <use xlink:href="#DejaVuSans-69" x="492.494141"/>
      <use xlink:href="#DejaVuSans-74" x="520.277344"/>
      <use xlink:href="#DejaVuSans-20" x="559.486328"/>
      <use xlink:href="#DejaVuSans-3d" x="591.273438"/>
      <use xlink:href="#DejaVuSans-20" x="675.0625"/>
      <use xlink:href="#DejaVuSans-30" x="706.849609"/>
      <use xlink:href="#DejaVuSans-2e" x="770.472656"/>
      <use xlink:href="#DejaVuSans-34" x="802.259766"/>
      <use xlink:href="#DejaVuSans-39" x="865.882812"/>
      <use xlink:href="#DejaVuSans-2c" x="929.505859"/>
      <use xlink:href="#DejaVuSans-20" x="961.292969"/>
      <use xlink:href="#DejaVuSans-6c" x="993.080078"/>
      <use xlink:href="#DejaVuSans-5f" x="1020.863281"/>
      <use xlink:href="#DejaVuSans-69" x="1070.863281"/>
      <use xlink:href="#DejaVuSans-6e" x="1098.646484"/>
      <use xlink:href="#DejaVuSans-69" x="1162.025391"/>
      <use xlink:href="#DejaVuSans-74" x="1189.808594"/>
      <use xlink:href="#DejaVuSans-20" x="1229.017578"/>
      <use xlink:href="#DejaVuSans-3d" x="1260.804688"/>
      <use xlink:href="#DejaVuSans-20" x="1344.59375"/>
      <use xlink:href="#DejaVuSans-30" x="1376.380859"/>
      <use xlink:href="#DejaVuSans-2e" x="1440.003906"/>
      <use xlink:href="#DejaVuSans-39" x="1471.791016"/>
      <use xlink:href="#DejaVuSans-33" x="1535.414062"/>
      <use xlink:href="#DejaVuSans-2c" x="1599.037109"/>
      <use xlink:href="#DejaVuSans-20" x="1630.824219"/>
      <use xlink:href="#DejaVuSans-74" x="1662.611328"/>
      <use xlink:href="#DejaVuSans-68" x="1701.820312"/>
      <use xlink:href="#DejaVuSans-65" x="1765.199219"/>
      <use xlink:href="#DejaVuSans-74" x="1826.722656"/>
      <use xlink:href="#DejaVuSans-61" x="1865.931641"/>
      <use xlink:href="#DejaVuSans-5f" x="1927.210938"/>
      <use xlink:href="#DejaVuSans-69" x="1977.210938"/>
      <use xlink:href="#DejaVuSans-6e" x="2004.994141"/>
      <use xlink:href="#DejaVuSans-69" x="2068.373047"/>
      <use xlink:href="#DejaVuSans-74" x="2096.15625"/>
      <use xlink:href="#DejaVuSans-20" x="2135.365234"/>
      <use xlink:href="#DejaVuSans-3d" x="2167.152344"/>
      <use xlink:href="#DejaVuSans-20" x="2250.941406"/>
      <use xlink:href="#DejaVuSans-2d" x="2282.728516"/>
      <use xlink:href="#DejaVuSans-33" x="2318.8125"/>
      <use xlink:href="#DejaVuSans-30" x="2382.435547"/>
      <use xlink:href="#DejaVuSans-2e" x="2446.058594"/>
      <use xlink:href="#DejaVuSans-30" x="2477.845703"/>
      <use xlink:href="#DejaVuSans-35" x="2541.46875"/>
      <use xlink:href="#DejaVuSans-2c" x="2605.091797"/>
      <use xlink:href="#DejaVuSans-20" x="2636.878906"/>
      <use xlink:href="#DejaVuSans-6d" x="2668.666016"/>
      <use xlink:href="#DejaVuSans-63" x="2766.078125"/>
      <use xlink:href="#DejaVuSans-20" x="2821.058594"/>
      <use xlink:href="#DejaVuSans-3d" x="2852.845703"/>
      <use xlink:href="#DejaVuSans-20" x="2936.634766"/>
      <use xlink:href="#DejaVuSans-30" x="2968.421875"/>
      <use xlink:href="#DejaVuSans-2e" x="3032.044922"/>
      <use xlink:href="#DejaVuSans-39" x="3063.832031"/>
      <use xlink:href="#DejaVuSans-37" x="3127.455078"/>
     </g>
    </g>
    <g id="line2d_32">
     <path d="M 37.661975 364.705062 
L 47.661975 364.705062 
L 57.661975 364.705062 
" style="fill: none; stroke: #2ca02c; stroke-width: 1.5; stroke-linecap: square"/>
    </g>
    <g id="text_18">
     <!-- Var3: x_init = 1.79, l_init = 1.59, theta_init = 29.82, mc = 0.62 -->
     <g transform="translate(65.661975 368.205062) scale(0.1 -0.1)">
      <use xlink:href="#DejaVuSans-56"/>
      <use xlink:href="#DejaVuSans-61" x="60.658203"/>
      <use xlink:href="#DejaVuSans-72" x="121.9375"/>
      <use xlink:href="#DejaVuSans-33" x="163.050781"/>
      <use xlink:href="#DejaVuSans-3a" x="226.673828"/>
      <use xlink:href="#DejaVuSans-20" x="260.365234"/>
      <use xlink:href="#DejaVuSans-78" x="292.152344"/>
      <use xlink:href="#DejaVuSans-5f" x="351.332031"/>
      <use xlink:href="#DejaVuSans-69" x="401.332031"/>
      <use xlink:href="#DejaVuSans-6e" x="429.115234"/>
      <use xlink:href="#DejaVuSans-69" x="492.494141"/>
      <use xlink:href="#DejaVuSans-74" x="520.277344"/>
      <use xlink:href="#DejaVuSans-20" x="559.486328"/>
      <use xlink:href="#DejaVuSans-3d" x="591.273438"/>
      <use xlink:href="#DejaVuSans-20" x="675.0625"/>
      <use xlink:href="#DejaVuSans-31" x="706.849609"/>
      <use xlink:href="#DejaVuSans-2e" x="770.472656"/>
      <use xlink:href="#DejaVuSans-37" x="802.259766"/>
      <use xlink:href="#DejaVuSans-39" x="865.882812"/>
      <use xlink:href="#DejaVuSans-2c" x="929.505859"/>
      <use xlink:href="#DejaVuSans-20" x="961.292969"/>
      <use xlink:href="#DejaVuSans-6c" x="993.080078"/>
      <use xlink:href="#DejaVuSans-5f" x="1020.863281"/>
      <use xlink:href="#DejaVuSans-69" x="1070.863281"/>
      <use xlink:href="#DejaVuSans-6e" x="1098.646484"/>
      <use xlink:href="#DejaVuSans-69" x="1162.025391"/>
      <use xlink:href="#DejaVuSans-74" x="1189.808594"/>
      <use xlink:href="#DejaVuSans-20" x="1229.017578"/>
      <use xlink:href="#DejaVuSans-3d" x="1260.804688"/>
      <use xlink:href="#DejaVuSans-20" x="1344.59375"/>
      <use xlink:href="#DejaVuSans-31" x="1376.380859"/>
      <use xlink:href="#DejaVuSans-2e" x="1440.003906"/>
      <use xlink:href="#DejaVuSans-35" x="1471.791016"/>
      <use xlink:href="#DejaVuSans-39" x="1535.414062"/>
      <use xlink:href="#DejaVuSans-2c" x="1599.037109"/>
      <use xlink:href="#DejaVuSans-20" x="1630.824219"/>
      <use xlink:href="#DejaVuSans-74" x="1662.611328"/>
      <use xlink:href="#DejaVuSans-68" x="1701.820312"/>
      <use xlink:href="#DejaVuSans-65" x="1765.199219"/>
      <use xlink:href="#DejaVuSans-74" x="1826.722656"/>
      <use xlink:href="#DejaVuSans-61" x="1865.931641"/>
      <use xlink:href="#DejaVuSans-5f" x="1927.210938"/>
      <use xlink:href="#DejaVuSans-69" x="1977.210938"/>
      <use xlink:href="#DejaVuSans-6e" x="2004.994141"/>
      <use xlink:href="#DejaVuSans-69" x="2068.373047"/>
      <use xlink:href="#DejaVuSans-74" x="2096.15625"/>
      <use xlink:href="#DejaVuSans-20" x="2135.365234"/>
      <use xlink:href="#DejaVuSans-3d" x="2167.152344"/>
      <use xlink:href="#DejaVuSans-20" x="2250.941406"/>
      <use xlink:href="#DejaVuSans-32" x="2282.728516"/>
      <use xlink:href="#DejaVuSans-39" x="2346.351562"/>
      <use xlink:href="#DejaVuSans-2e" x="2409.974609"/>
      <use xlink:href="#DejaVuSans-38" x="2441.761719"/>
      <use xlink:href="#DejaVuSans-32" x="2505.384766"/>
      <use xlink:href="#DejaVuSans-2c" x="2569.007812"/>
      <use xlink:href="#DejaVuSans-20" x="2600.794922"/>
      <use xlink:href="#DejaVuSans-6d" x="2632.582031"/>
      <use xlink:href="#DejaVuSans-63" x="2729.994141"/>
      <use xlink:href="#DejaVuSans-20" x="2784.974609"/>
      <use xlink:href="#DejaVuSans-3d" x="2816.761719"/>
      <use xlink:href="#DejaVuSans-20" x="2900.550781"/>
      <use xlink:href="#DejaVuSans-30" x="2932.337891"/>
      <use xlink:href="#DejaVuSans-2e" x="2995.960938"/>
      <use xlink:href="#DejaVuSans-36" x="3027.748047"/>
      <use xlink:href="#DejaVuSans-32" x="3091.371094"/>
     </g>
    </g>
    <g id="line2d_33">
     <path d="M 37.661975 379.661313 
L 47.661975 379.661313 
L 57.661975 379.661313 
" style="fill: none; stroke: #d62728; stroke-width: 1.5; stroke-linecap: square"/>
    </g>
    <g id="text_19">
     <!-- Var4: x_init = 0.68, l_init = 1.23, theta_init = 19.99, mc = 0.67 -->
     <g transform="translate(65.661975 383.161313) scale(0.1 -0.1)">
      <use xlink:href="#DejaVuSans-56"/>
      <use xlink:href="#DejaVuSans-61" x="60.658203"/>
      <use xlink:href="#DejaVuSans-72" x="121.9375"/>
      <use xlink:href="#DejaVuSans-34" x="163.050781"/>
      <use xlink:href="#DejaVuSans-3a" x="226.673828"/>
      <use xlink:href="#DejaVuSans-20" x="260.365234"/>
      <use xlink:href="#DejaVuSans-78" x="292.152344"/>
      <use xlink:href="#DejaVuSans-5f" x="351.332031"/>
      <use xlink:href="#DejaVuSans-69" x="401.332031"/>
      <use xlink:href="#DejaVuSans-6e" x="429.115234"/>
      <use xlink:href="#DejaVuSans-69" x="492.494141"/>
      <use xlink:href="#DejaVuSans-74" x="520.277344"/>
      <use xlink:href="#DejaVuSans-20" x="559.486328"/>
      <use xlink:href="#DejaVuSans-3d" x="591.273438"/>
      <use xlink:href="#DejaVuSans-20" x="675.0625"/>
      <use xlink:href="#DejaVuSans-30" x="706.849609"/>
      <use xlink:href="#DejaVuSans-2e" x="770.472656"/>
      <use xlink:href="#DejaVuSans-36" x="802.259766"/>
      <use xlink:href="#DejaVuSans-38" x="865.882812"/>
      <use xlink:href="#DejaVuSans-2c" x="929.505859"/>
      <use xlink:href="#DejaVuSans-20" x="961.292969"/>
      <use xlink:href="#DejaVuSans-6c" x="993.080078"/>
      <use xlink:href="#DejaVuSans-5f" x="1020.863281"/>
      <use xlink:href="#DejaVuSans-69" x="1070.863281"/>
      <use xlink:href="#DejaVuSans-6e" x="1098.646484"/>
      <use xlink:href="#DejaVuSans-69" x="1162.025391"/>
      <use xlink:href="#DejaVuSans-74" x="1189.808594"/>
      <use xlink:href="#DejaVuSans-20" x="1229.017578"/>
      <use xlink:href="#DejaVuSans-3d" x="1260.804688"/>
      <use xlink:href="#DejaVuSans-20" x="1344.59375"/>
      <use xlink:href="#DejaVuSans-31" x="1376.380859"/>
      <use xlink:href="#DejaVuSans-2e" x="1440.003906"/>
      <use xlink:href="#DejaVuSans-32" x="1471.791016"/>
      <use xlink:href="#DejaVuSans-33" x="1535.414062"/>
      <use xlink:href="#DejaVuSans-2c" x="1599.037109"/>
      <use xlink:href="#DejaVuSans-20" x="1630.824219"/>
      <use xlink:href="#DejaVuSans-74" x="1662.611328"/>
      <use xlink:href="#DejaVuSans-68" x="1701.820312"/>
      <use xlink:href="#DejaVuSans-65" x="1765.199219"/>
      <use xlink:href="#DejaVuSans-74" x="1826.722656"/>
      <use xlink:href="#DejaVuSans-61" x="1865.931641"/>
      <use xlink:href="#DejaVuSans-5f" x="1927.210938"/>
      <use xlink:href="#DejaVuSans-69" x="1977.210938"/>
      <use xlink:href="#DejaVuSans-6e" x="2004.994141"/>
      <use xlink:href="#DejaVuSans-69" x="2068.373047"/>
      <use xlink:href="#DejaVuSans-74" x="2096.15625"/>
      <use xlink:href="#DejaVuSans-20" x="2135.365234"/>
      <use xlink:href="#DejaVuSans-3d" x="2167.152344"/>
      <use xlink:href="#DejaVuSans-20" x="2250.941406"/>
      <use xlink:href="#DejaVuSans-31" x="2282.728516"/>
      <use xlink:href="#DejaVuSans-39" x="2346.351562"/>
      <use xlink:href="#DejaVuSans-2e" x="2409.974609"/>
      <use xlink:href="#DejaVuSans-39" x="2441.761719"/>
      <use xlink:href="#DejaVuSans-39" x="2505.384766"/>
      <use xlink:href="#DejaVuSans-2c" x="2569.007812"/>
      <use xlink:href="#DejaVuSans-20" x="2600.794922"/>
      <use xlink:href="#DejaVuSans-6d" x="2632.582031"/>
      <use xlink:href="#DejaVuSans-63" x="2729.994141"/>
      <use xlink:href="#DejaVuSans-20" x="2784.974609"/>
      <use xlink:href="#DejaVuSans-3d" x="2816.761719"/>
      <use xlink:href="#DejaVuSans-20" x="2900.550781"/>
      <use xlink:href="#DejaVuSans-30" x="2932.337891"/>
      <use xlink:href="#DejaVuSans-2e" x="2995.960938"/>
      <use xlink:href="#DejaVuSans-36" x="3027.748047"/>
      <use xlink:href="#DejaVuSans-37" x="3091.371094"/>
     </g>
    </g>
    <g id="line2d_34">
     <path d="M 37.661975 394.617562 
L 47.661975 394.617562 
L 57.661975 394.617562 
" style="fill: none; stroke: #9467bd; stroke-width: 1.5; stroke-linecap: square"/>
    </g>
    <g id="text_20">
     <!-- Var5: x_init = 0.16, l_init = 0.76, theta_init = 15.3, mc = 1.09 -->
     <g transform="translate(65.661975 398.117562) scale(0.1 -0.1)">
      <use xlink:href="#DejaVuSans-56"/>
      <use xlink:href="#DejaVuSans-61" x="60.658203"/>
      <use xlink:href="#DejaVuSans-72" x="121.9375"/>
      <use xlink:href="#DejaVuSans-35" x="163.050781"/>
      <use xlink:href="#DejaVuSans-3a" x="226.673828"/>
      <use xlink:href="#DejaVuSans-20" x="260.365234"/>
      <use xlink:href="#DejaVuSans-78" x="292.152344"/>
      <use xlink:href="#DejaVuSans-5f" x="351.332031"/>
      <use xlink:href="#DejaVuSans-69" x="401.332031"/>
      <use xlink:href="#DejaVuSans-6e" x="429.115234"/>
      <use xlink:href="#DejaVuSans-69" x="492.494141"/>
      <use xlink:href="#DejaVuSans-74" x="520.277344"/>
      <use xlink:href="#DejaVuSans-20" x="559.486328"/>
      <use xlink:href="#DejaVuSans-3d" x="591.273438"/>
      <use xlink:href="#DejaVuSans-20" x="675.0625"/>
      <use xlink:href="#DejaVuSans-30" x="706.849609"/>
      <use xlink:href="#DejaVuSans-2e" x="770.472656"/>
      <use xlink:href="#DejaVuSans-31" x="802.259766"/>
      <use xlink:href="#DejaVuSans-36" x="865.882812"/>
      <use xlink:href="#DejaVuSans-2c" x="929.505859"/>
      <use xlink:href="#DejaVuSans-20" x="961.292969"/>
      <use xlink:href="#DejaVuSans-6c" x="993.080078"/>
      <use xlink:href="#DejaVuSans-5f" x="1020.863281"/>
      <use xlink:href="#DejaVuSans-69" x="1070.863281"/>
      <use xlink:href="#DejaVuSans-6e" x="1098.646484"/>
      <use xlink:href="#DejaVuSans-69" x="1162.025391"/>
      <use xlink:href="#DejaVuSans-74" x="1189.808594"/>
      <use xlink:href="#DejaVuSans-20" x="1229.017578"/>
      <use xlink:href="#DejaVuSans-3d" x="1260.804688"/>
      <use xlink:href="#DejaVuSans-20" x="1344.59375"/>
      <use xlink:href="#DejaVuSans-30" x="1376.380859"/>
      <use xlink:href="#DejaVuSans-2e" x="1440.003906"/>
      <use xlink:href="#DejaVuSans-37" x="1471.791016"/>
      <use xlink:href="#DejaVuSans-36" x="1535.414062"/>
      <use xlink:href="#DejaVuSans-2c" x="1599.037109"/>
      <use xlink:href="#DejaVuSans-20" x="1630.824219"/>
      <use xlink:href="#DejaVuSans-74" x="1662.611328"/>
      <use xlink:href="#DejaVuSans-68" x="1701.820312"/>
      <use xlink:href="#DejaVuSans-65" x="1765.199219"/>
      <use xlink:href="#DejaVuSans-74" x="1826.722656"/>
      <use xlink:href="#DejaVuSans-61" x="1865.931641"/>
      <use xlink:href="#DejaVuSans-5f" x="1927.210938"/>
      <use xlink:href="#DejaVuSans-69" x="1977.210938"/>
      <use xlink:href="#DejaVuSans-6e" x="2004.994141"/>
      <use xlink:href="#DejaVuSans-69" x="2068.373047"/>
      <use xlink:href="#DejaVuSans-74" x="2096.15625"/>
      <use xlink:href="#DejaVuSans-20" x="2135.365234"/>
      <use xlink:href="#DejaVuSans-3d" x="2167.152344"/>
      <use xlink:href="#DejaVuSans-20" x="2250.941406"/>
      <use xlink:href="#DejaVuSans-31" x="2282.728516"/>
      <use xlink:href="#DejaVuSans-35" x="2346.351562"/>
      <use xlink:href="#DejaVuSans-2e" x="2409.974609"/>
      <use xlink:href="#DejaVuSans-33" x="2441.761719"/>
      <use xlink:href="#DejaVuSans-2c" x="2505.384766"/>
      <use xlink:href="#DejaVuSans-20" x="2537.171875"/>
      <use xlink:href="#DejaVuSans-6d" x="2568.958984"/>
      <use xlink:href="#DejaVuSans-63" x="2666.371094"/>
      <use xlink:href="#DejaVuSans-20" x="2721.351562"/>
      <use xlink:href="#DejaVuSans-3d" x="2753.138672"/>
      <use xlink:href="#DejaVuSans-20" x="2836.927734"/>
      <use xlink:href="#DejaVuSans-31" x="2868.714844"/>
      <use xlink:href="#DejaVuSans-2e" x="2932.337891"/>
      <use xlink:href="#DejaVuSans-30" x="2964.125"/>
      <use xlink:href="#DejaVuSans-39" x="3027.748047"/>
     </g>
    </g>
   </g>
  </g>
 </g>
 <defs>
  <clipPath id="p8ce13fdf64">
   <rect x="43.78125" y="22.318125" width="357.12" height="266.112"/>
  </clipPath>
 </defs>
</svg>
