<?xml version="1.0" encoding="utf-8" standalone="no"?>
<!DOCTYPE svg PUBLIC "-//W3C//DTD SVG 1.1//EN"
  "http://www.w3.org/Graphics/SVG/1.1/DTD/svg11.dtd">
<svg xmlns:xlink="http://www.w3.org/1999/xlink" width="460.8pt" height="345.6pt" viewBox="0 0 460.8 345.6" xmlns="http://www.w3.org/2000/svg" version="1.1">
 <metadata>
  <rdf:RDF xmlns:dc="http://purl.org/dc/elements/1.1/" xmlns:cc="http://creativecommons.org/ns#" xmlns:rdf="http://www.w3.org/1999/02/22-rdf-syntax-ns#">
   <cc:Work>
    <dc:type rdf:resource="http://purl.org/dc/dcmitype/StillImage"/>
    <dc:date>2023-06-26T20:09:05.909187</dc:date>
    <dc:format>image/svg+xml</dc:format>
    <dc:creator>
     <cc:Agent>
      <dc:title>Matplotlib v3.7.1, https://matplotlib.org/</dc:title>
     </cc:Agent>
    </dc:creator>
   </cc:Work>
  </rdf:RDF>
 </metadata>
 <defs>
  <style type="text/css">*{stroke-linejoin: round; stroke-linecap: butt}</style>
 </defs>
 <g id="figure_1">
  <g id="patch_1">
   <path d="M 0 345.6 
L 460.8 345.6 
L 460.8 0 
L 0 0 
L 0 345.6 
z
" style="fill: none"/>
  </g>
  <g id="axes_1">
   <g id="patch_2">
    <path d="M 57.6 307.584 
L 414.72 307.584 
L 414.72 41.472 
L 57.6 41.472 
L 57.6 307.584 
z
" style="fill: none"/>
   </g>
   <g id="matplotlib.axis_1">
    <g id="xtick_1">
     <g id="line2d_1">
      <path d="M 73.832727 307.584 
L 73.832727 41.472 
" clip-path="url(#pf87a8d42e2)" style="fill: none; stroke: #b0b0b0; stroke-width: 0.8; stroke-linecap: square"/>
     </g>
     <g id="line2d_2">
      <defs>
       <path id="m5e82b998b4" d="M 0 0 
L 0 3.5 
" style="stroke: #000000; stroke-width: 0.8"/>
      </defs>
      <g>
       <use xlink:href="#m5e82b998b4" x="73.832727" y="307.584" style="stroke: #000000; stroke-width: 0.8"/>
      </g>
     </g>
     <g id="text_1">
      <!-- 0 -->
      <g transform="translate(70.651477 322.182437) scale(0.1 -0.1)">
       <defs>
        <path id="DejaVuSans-30" d="M 2034 4250 
Q 1547 4250 1301 3770 
Q 1056 3291 1056 2328 
Q 1056 1369 1301 889 
Q 1547 409 2034 409 
Q 2525 409 2770 889 
Q 3016 1369 3016 2328 
Q 3016 3291 2770 3770 
Q 2525 4250 2034 4250 
z
M 2034 4750 
Q 2819 4750 3233 4129 
Q 3647 3509 3647 2328 
Q 3647 1150 3233 529 
Q 2819 -91 2034 -91 
Q 1250 -91 836 529 
Q 422 1150 422 2328 
Q 422 3509 836 4129 
Q 1250 4750 2034 4750 
z
" transform="scale(0.015625)"/>
       </defs>
       <use xlink:href="#DejaVuSans-30"/>
      </g>
     </g>
    </g>
    <g id="xtick_2">
     <g id="line2d_3">
      <path d="M 127.941818 307.584 
L 127.941818 41.472 
" clip-path="url(#pf87a8d42e2)" style="fill: none; stroke: #b0b0b0; stroke-width: 0.8; stroke-linecap: square"/>
     </g>
     <g id="line2d_4">
      <g>
       <use xlink:href="#m5e82b998b4" x="127.941818" y="307.584" style="stroke: #000000; stroke-width: 0.8"/>
      </g>
     </g>
     <g id="text_2">
      <!-- 2 -->
      <g transform="translate(124.760568 322.182437) scale(0.1 -0.1)">
       <defs>
        <path id="DejaVuSans-32" d="M 1228 531 
L 3431 531 
L 3431 0 
L 469 0 
L 469 531 
Q 828 903 1448 1529 
Q 2069 2156 2228 2338 
Q 2531 2678 2651 2914 
Q 2772 3150 2772 3378 
Q 2772 3750 2511 3984 
Q 2250 4219 1831 4219 
Q 1534 4219 1204 4116 
Q 875 4013 500 3803 
L 500 4441 
Q 881 4594 1212 4672 
Q 1544 4750 1819 4750 
Q 2544 4750 2975 4387 
Q 3406 4025 3406 3419 
Q 3406 3131 3298 2873 
Q 3191 2616 2906 2266 
Q 2828 2175 2409 1742 
Q 1991 1309 1228 531 
z
" transform="scale(0.015625)"/>
       </defs>
       <use xlink:href="#DejaVuSans-32"/>
      </g>
     </g>
    </g>
    <g id="xtick_3">
     <g id="line2d_5">
      <path d="M 182.050909 307.584 
L 182.050909 41.472 
" clip-path="url(#pf87a8d42e2)" style="fill: none; stroke: #b0b0b0; stroke-width: 0.8; stroke-linecap: square"/>
     </g>
     <g id="line2d_6">
      <g>
       <use xlink:href="#m5e82b998b4" x="182.050909" y="307.584" style="stroke: #000000; stroke-width: 0.8"/>
      </g>
     </g>
     <g id="text_3">
      <!-- 4 -->
      <g transform="translate(178.869659 322.182437) scale(0.1 -0.1)">
       <defs>
        <path id="DejaVuSans-34" d="M 2419 4116 
L 825 1625 
L 2419 1625 
L 2419 4116 
z
M 2253 4666 
L 3047 4666 
L 3047 1625 
L 3713 1625 
L 3713 1100 
L 3047 1100 
L 3047 0 
L 2419 0 
L 2419 1100 
L 313 1100 
L 313 1709 
L 2253 4666 
z
" transform="scale(0.015625)"/>
       </defs>
       <use xlink:href="#DejaVuSans-34"/>
      </g>
     </g>
    </g>
    <g id="xtick_4">
     <g id="line2d_7">
      <path d="M 236.16 307.584 
L 236.16 41.472 
" clip-path="url(#pf87a8d42e2)" style="fill: none; stroke: #b0b0b0; stroke-width: 0.8; stroke-linecap: square"/>
     </g>
     <g id="line2d_8">
      <g>
       <use xlink:href="#m5e82b998b4" x="236.16" y="307.584" style="stroke: #000000; stroke-width: 0.8"/>
      </g>
     </g>
     <g id="text_4">
      <!-- 6 -->
      <g transform="translate(232.97875 322.182437) scale(0.1 -0.1)">
       <defs>
        <path id="DejaVuSans-36" d="M 2113 2584 
Q 1688 2584 1439 2293 
Q 1191 2003 1191 1497 
Q 1191 994 1439 701 
Q 1688 409 2113 409 
Q 2538 409 2786 701 
Q 3034 994 3034 1497 
Q 3034 2003 2786 2293 
Q 2538 2584 2113 2584 
z
M 3366 4563 
L 3366 3988 
Q 3128 4100 2886 4159 
Q 2644 4219 2406 4219 
Q 1781 4219 1451 3797 
Q 1122 3375 1075 2522 
Q 1259 2794 1537 2939 
Q 1816 3084 2150 3084 
Q 2853 3084 3261 2657 
Q 3669 2231 3669 1497 
Q 3669 778 3244 343 
Q 2819 -91 2113 -91 
Q 1303 -91 875 529 
Q 447 1150 447 2328 
Q 447 3434 972 4092 
Q 1497 4750 2381 4750 
Q 2619 4750 2861 4703 
Q 3103 4656 3366 4563 
z
" transform="scale(0.015625)"/>
       </defs>
       <use xlink:href="#DejaVuSans-36"/>
      </g>
     </g>
    </g>
    <g id="xtick_5">
     <g id="line2d_9">
      <path d="M 290.269091 307.584 
L 290.269091 41.472 
" clip-path="url(#pf87a8d42e2)" style="fill: none; stroke: #b0b0b0; stroke-width: 0.8; stroke-linecap: square"/>
     </g>
     <g id="line2d_10">
      <g>
       <use xlink:href="#m5e82b998b4" x="290.269091" y="307.584" style="stroke: #000000; stroke-width: 0.8"/>
      </g>
     </g>
     <g id="text_5">
      <!-- 8 -->
      <g transform="translate(287.087841 322.182437) scale(0.1 -0.1)">
       <defs>
        <path id="DejaVuSans-38" d="M 2034 2216 
Q 1584 2216 1326 1975 
Q 1069 1734 1069 1313 
Q 1069 891 1326 650 
Q 1584 409 2034 409 
Q 2484 409 2743 651 
Q 3003 894 3003 1313 
Q 3003 1734 2745 1975 
Q 2488 2216 2034 2216 
z
M 1403 2484 
Q 997 2584 770 2862 
Q 544 3141 544 3541 
Q 544 4100 942 4425 
Q 1341 4750 2034 4750 
Q 2731 4750 3128 4425 
Q 3525 4100 3525 3541 
Q 3525 3141 3298 2862 
Q 3072 2584 2669 2484 
Q 3125 2378 3379 2068 
Q 3634 1759 3634 1313 
Q 3634 634 3220 271 
Q 2806 -91 2034 -91 
Q 1263 -91 848 271 
Q 434 634 434 1313 
Q 434 1759 690 2068 
Q 947 2378 1403 2484 
z
M 1172 3481 
Q 1172 3119 1398 2916 
Q 1625 2713 2034 2713 
Q 2441 2713 2670 2916 
Q 2900 3119 2900 3481 
Q 2900 3844 2670 4047 
Q 2441 4250 2034 4250 
Q 1625 4250 1398 4047 
Q 1172 3844 1172 3481 
z
" transform="scale(0.015625)"/>
       </defs>
       <use xlink:href="#DejaVuSans-38"/>
      </g>
     </g>
    </g>
    <g id="xtick_6">
     <g id="line2d_11">
      <path d="M 344.378182 307.584 
L 344.378182 41.472 
" clip-path="url(#pf87a8d42e2)" style="fill: none; stroke: #b0b0b0; stroke-width: 0.8; stroke-linecap: square"/>
     </g>
     <g id="line2d_12">
      <g>
       <use xlink:href="#m5e82b998b4" x="344.378182" y="307.584" style="stroke: #000000; stroke-width: 0.8"/>
      </g>
     </g>
     <g id="text_6">
      <!-- 10 -->
      <g transform="translate(338.015682 322.182437) scale(0.1 -0.1)">
       <defs>
        <path id="DejaVuSans-31" d="M 794 531 
L 1825 531 
L 1825 4091 
L 703 3866 
L 703 4441 
L 1819 4666 
L 2450 4666 
L 2450 531 
L 3481 531 
L 3481 0 
L 794 0 
L 794 531 
z
" transform="scale(0.015625)"/>
       </defs>
       <use xlink:href="#DejaVuSans-31"/>
       <use xlink:href="#DejaVuSans-30" x="63.623047"/>
      </g>
     </g>
    </g>
    <g id="xtick_7">
     <g id="line2d_13">
      <path d="M 398.487273 307.584 
L 398.487273 41.472 
" clip-path="url(#pf87a8d42e2)" style="fill: none; stroke: #b0b0b0; stroke-width: 0.8; stroke-linecap: square"/>
     </g>
     <g id="line2d_14">
      <g>
       <use xlink:href="#m5e82b998b4" x="398.487273" y="307.584" style="stroke: #000000; stroke-width: 0.8"/>
      </g>
     </g>
     <g id="text_7">
      <!-- 12 -->
      <g transform="translate(392.124773 322.182437) scale(0.1 -0.1)">
       <use xlink:href="#DejaVuSans-31"/>
       <use xlink:href="#DejaVuSans-32" x="63.623047"/>
      </g>
     </g>
    </g>
    <g id="text_8">
     <!-- time (s) -->
     <g transform="translate(216.768594 335.860562) scale(0.1 -0.1)">
      <defs>
       <path id="DejaVuSans-74" d="M 1172 4494 
L 1172 3500 
L 2356 3500 
L 2356 3053 
L 1172 3053 
L 1172 1153 
Q 1172 725 1289 603 
Q 1406 481 1766 481 
L 2356 481 
L 2356 0 
L 1766 0 
Q 1100 0 847 248 
Q 594 497 594 1153 
L 594 3053 
L 172 3053 
L 172 3500 
L 594 3500 
L 594 4494 
L 1172 4494 
z
" transform="scale(0.015625)"/>
       <path id="DejaVuSans-69" d="M 603 3500 
L 1178 3500 
L 1178 0 
L 603 0 
L 603 3500 
z
M 603 4863 
L 1178 4863 
L 1178 4134 
L 603 4134 
L 603 4863 
z
" transform="scale(0.015625)"/>
       <path id="DejaVuSans-6d" d="M 3328 2828 
Q 3544 3216 3844 3400 
Q 4144 3584 4550 3584 
Q 5097 3584 5394 3201 
Q 5691 2819 5691 2113 
L 5691 0 
L 5113 0 
L 5113 2094 
Q 5113 2597 4934 2840 
Q 4756 3084 4391 3084 
Q 3944 3084 3684 2787 
Q 3425 2491 3425 1978 
L 3425 0 
L 2847 0 
L 2847 2094 
Q 2847 2600 2669 2842 
Q 2491 3084 2119 3084 
Q 1678 3084 1418 2786 
Q 1159 2488 1159 1978 
L 1159 0 
L 581 0 
L 581 3500 
L 1159 3500 
L 1159 2956 
Q 1356 3278 1631 3431 
Q 1906 3584 2284 3584 
Q 2666 3584 2933 3390 
Q 3200 3197 3328 2828 
z
" transform="scale(0.015625)"/>
       <path id="DejaVuSans-65" d="M 3597 1894 
L 3597 1613 
L 953 1613 
Q 991 1019 1311 708 
Q 1631 397 2203 397 
Q 2534 397 2845 478 
Q 3156 559 3463 722 
L 3463 178 
Q 3153 47 2828 -22 
Q 2503 -91 2169 -91 
Q 1331 -91 842 396 
Q 353 884 353 1716 
Q 353 2575 817 3079 
Q 1281 3584 2069 3584 
Q 2775 3584 3186 3129 
Q 3597 2675 3597 1894 
z
M 3022 2063 
Q 3016 2534 2758 2815 
Q 2500 3097 2075 3097 
Q 1594 3097 1305 2825 
Q 1016 2553 972 2059 
L 3022 2063 
z
" transform="scale(0.015625)"/>
       <path id="DejaVuSans-20" transform="scale(0.015625)"/>
       <path id="DejaVuSans-28" d="M 1984 4856 
Q 1566 4138 1362 3434 
Q 1159 2731 1159 2009 
Q 1159 1288 1364 580 
Q 1569 -128 1984 -844 
L 1484 -844 
Q 1016 -109 783 600 
Q 550 1309 550 2009 
Q 550 2706 781 3412 
Q 1013 4119 1484 4856 
L 1984 4856 
z
" transform="scale(0.015625)"/>
       <path id="DejaVuSans-73" d="M 2834 3397 
L 2834 2853 
Q 2591 2978 2328 3040 
Q 2066 3103 1784 3103 
Q 1356 3103 1142 2972 
Q 928 2841 928 2578 
Q 928 2378 1081 2264 
Q 1234 2150 1697 2047 
L 1894 2003 
Q 2506 1872 2764 1633 
Q 3022 1394 3022 966 
Q 3022 478 2636 193 
Q 2250 -91 1575 -91 
Q 1294 -91 989 -36 
Q 684 19 347 128 
L 347 722 
Q 666 556 975 473 
Q 1284 391 1588 391 
Q 1994 391 2212 530 
Q 2431 669 2431 922 
Q 2431 1156 2273 1281 
Q 2116 1406 1581 1522 
L 1381 1569 
Q 847 1681 609 1914 
Q 372 2147 372 2553 
Q 372 3047 722 3315 
Q 1072 3584 1716 3584 
Q 2034 3584 2315 3537 
Q 2597 3491 2834 3397 
z
" transform="scale(0.015625)"/>
       <path id="DejaVuSans-29" d="M 513 4856 
L 1013 4856 
Q 1481 4119 1714 3412 
Q 1947 2706 1947 2009 
Q 1947 1309 1714 600 
Q 1481 -109 1013 -844 
L 513 -844 
Q 928 -128 1133 580 
Q 1338 1288 1338 2009 
Q 1338 2731 1133 3434 
Q 928 4138 513 4856 
z
" transform="scale(0.015625)"/>
      </defs>
      <use xlink:href="#DejaVuSans-74"/>
      <use xlink:href="#DejaVuSans-69" x="39.208984"/>
      <use xlink:href="#DejaVuSans-6d" x="66.992188"/>
      <use xlink:href="#DejaVuSans-65" x="164.404297"/>
      <use xlink:href="#DejaVuSans-20" x="225.927734"/>
      <use xlink:href="#DejaVuSans-28" x="257.714844"/>
      <use xlink:href="#DejaVuSans-73" x="296.728516"/>
      <use xlink:href="#DejaVuSans-29" x="348.828125"/>
     </g>
    </g>
   </g>
   <g id="matplotlib.axis_2">
    <g id="ytick_1">
     <g id="line2d_15">
      <path d="M 57.6 285.565255 
L 414.72 285.565255 
" clip-path="url(#pf87a8d42e2)" style="fill: none; stroke: #b0b0b0; stroke-width: 0.8; stroke-linecap: square"/>
     </g>
     <g id="line2d_16">
      <defs>
       <path id="m54850ed440" d="M 0 0 
L -3.5 0 
" style="stroke: #000000; stroke-width: 0.8"/>
      </defs>
      <g>
       <use xlink:href="#m54850ed440" x="57.6" y="285.565255" style="stroke: #000000; stroke-width: 0.8"/>
      </g>
     </g>
     <g id="text_9">
      <!-- 0.2 -->
      <g transform="translate(34.696875 289.364474) scale(0.1 -0.1)">
       <defs>
        <path id="DejaVuSans-2e" d="M 684 794 
L 1344 794 
L 1344 0 
L 684 0 
L 684 794 
z
" transform="scale(0.015625)"/>
       </defs>
       <use xlink:href="#DejaVuSans-30"/>
       <use xlink:href="#DejaVuSans-2e" x="63.623047"/>
       <use xlink:href="#DejaVuSans-32" x="95.410156"/>
      </g>
     </g>
    </g>
    <g id="ytick_2">
     <g id="line2d_17">
      <path d="M 57.6 242.711411 
L 414.72 242.711411 
" clip-path="url(#pf87a8d42e2)" style="fill: none; stroke: #b0b0b0; stroke-width: 0.8; stroke-linecap: square"/>
     </g>
     <g id="line2d_18">
      <g>
       <use xlink:href="#m54850ed440" x="57.6" y="242.711411" style="stroke: #000000; stroke-width: 0.8"/>
      </g>
     </g>
     <g id="text_10">
      <!-- 0.4 -->
      <g transform="translate(34.696875 246.51063) scale(0.1 -0.1)">
       <use xlink:href="#DejaVuSans-30"/>
       <use xlink:href="#DejaVuSans-2e" x="63.623047"/>
       <use xlink:href="#DejaVuSans-34" x="95.410156"/>
      </g>
     </g>
    </g>
    <g id="ytick_3">
     <g id="line2d_19">
      <path d="M 57.6 199.857567 
L 414.72 199.857567 
" clip-path="url(#pf87a8d42e2)" style="fill: none; stroke: #b0b0b0; stroke-width: 0.8; stroke-linecap: square"/>
     </g>
     <g id="line2d_20">
      <g>
       <use xlink:href="#m54850ed440" x="57.6" y="199.857567" style="stroke: #000000; stroke-width: 0.8"/>
      </g>
     </g>
     <g id="text_11">
      <!-- 0.6 -->
      <g transform="translate(34.696875 203.656786) scale(0.1 -0.1)">
       <use xlink:href="#DejaVuSans-30"/>
       <use xlink:href="#DejaVuSans-2e" x="63.623047"/>
       <use xlink:href="#DejaVuSans-36" x="95.410156"/>
      </g>
     </g>
    </g>
    <g id="ytick_4">
     <g id="line2d_21">
      <path d="M 57.6 157.003723 
L 414.72 157.003723 
" clip-path="url(#pf87a8d42e2)" style="fill: none; stroke: #b0b0b0; stroke-width: 0.8; stroke-linecap: square"/>
     </g>
     <g id="line2d_22">
      <g>
       <use xlink:href="#m54850ed440" x="57.6" y="157.003723" style="stroke: #000000; stroke-width: 0.8"/>
      </g>
     </g>
     <g id="text_12">
      <!-- 0.8 -->
      <g transform="translate(34.696875 160.802942) scale(0.1 -0.1)">
       <use xlink:href="#DejaVuSans-30"/>
       <use xlink:href="#DejaVuSans-2e" x="63.623047"/>
       <use xlink:href="#DejaVuSans-38" x="95.410156"/>
      </g>
     </g>
    </g>
    <g id="ytick_5">
     <g id="line2d_23">
      <path d="M 57.6 114.149879 
L 414.72 114.149879 
" clip-path="url(#pf87a8d42e2)" style="fill: none; stroke: #b0b0b0; stroke-width: 0.8; stroke-linecap: square"/>
     </g>
     <g id="line2d_24">
      <g>
       <use xlink:href="#m54850ed440" x="57.6" y="114.149879" style="stroke: #000000; stroke-width: 0.8"/>
      </g>
     </g>
     <g id="text_13">
      <!-- 1.0 -->
      <g transform="translate(34.696875 117.949098) scale(0.1 -0.1)">
       <use xlink:href="#DejaVuSans-31"/>
       <use xlink:href="#DejaVuSans-2e" x="63.623047"/>
       <use xlink:href="#DejaVuSans-30" x="95.410156"/>
      </g>
     </g>
    </g>
    <g id="ytick_6">
     <g id="line2d_25">
      <path d="M 57.6 71.296035 
L 414.72 71.296035 
" clip-path="url(#pf87a8d42e2)" style="fill: none; stroke: #b0b0b0; stroke-width: 0.8; stroke-linecap: square"/>
     </g>
     <g id="line2d_26">
      <g>
       <use xlink:href="#m54850ed440" x="57.6" y="71.296035" style="stroke: #000000; stroke-width: 0.8"/>
      </g>
     </g>
     <g id="text_14">
      <!-- 1.2 -->
      <g transform="translate(34.696875 75.095254) scale(0.1 -0.1)">
       <use xlink:href="#DejaVuSans-31"/>
       <use xlink:href="#DejaVuSans-2e" x="63.623047"/>
       <use xlink:href="#DejaVuSans-32" x="95.410156"/>
      </g>
     </g>
    </g>
    <g id="text_15">
     <!-- x (m) -->
     <g transform="translate(28.617188 187.848312) rotate(-90) scale(0.1 -0.1)">
      <defs>
       <path id="DejaVuSans-78" d="M 3513 3500 
L 2247 1797 
L 3578 0 
L 2900 0 
L 1881 1375 
L 863 0 
L 184 0 
L 1544 1831 
L 300 3500 
L 978 3500 
L 1906 2253 
L 2834 3500 
L 3513 3500 
z
" transform="scale(0.015625)"/>
      </defs>
      <use xlink:href="#DejaVuSans-78"/>
      <use xlink:href="#DejaVuSans-20" x="59.179688"/>
      <use xlink:href="#DejaVuSans-28" x="90.966797"/>
      <use xlink:href="#DejaVuSans-6d" x="129.980469"/>
      <use xlink:href="#DejaVuSans-29" x="227.392578"/>
     </g>
    </g>
   </g>
   <g id="line2d_27">
    <path d="M 73.832727 202.000259 
L 74.509091 201.914604 
L 75.320727 201.553008 
L 76.267636 200.832278 
L 77.349818 199.700892 
L 78.837818 197.788682 
L 82.219636 193.294452 
L 83.166545 192.522274 
L 83.978182 192.123646 
L 84.789818 191.989937 
L 85.466182 192.07844 
L 86.277818 192.438753 
L 87.089455 193.073338 
L 87.901091 193.986317 
L 88.848 195.402881 
L 89.930182 197.477049 
L 91.147636 200.377547 
L 92.500364 204.27585 
L 93.988364 209.337055 
L 95.611636 215.698373 
L 97.505455 224.070975 
L 99.805091 235.267138 
L 107.245091 272.414955 
L 108.868364 279.154747 
L 110.356364 284.446363 
L 111.573818 288.014155 
L 112.656 290.550927 
L 113.873455 292.793803 
L 114.820364 294.109697 
L 115.767273 294.998038 
L 116.443636 295.366004 
L 117.12 295.488 
L 117.796364 295.380483 
L 118.472727 295.017062 
L 119.149091 294.399743 
L 119.960727 293.31265 
L 120.907636 291.564406 
L 121.854545 289.306427 
L 122.936727 286.10253 
L 124.154182 281.725662 
L 125.506909 275.954379 
L 126.994909 268.583689 
L 128.753455 258.638469 
L 130.782545 245.802981 
L 133.488 227.071913 
L 141.604364 169.501375 
L 143.768727 156.130812 
L 145.662545 145.733782 
L 147.285818 137.936922 
L 148.773818 131.765613 
L 150.261818 126.578759 
L 151.479273 123.068328 
L 152.696727 120.228259 
L 153.778909 118.249113 
L 154.725818 116.926394 
L 155.672727 115.980861 
L 156.484364 115.451652 
L 157.296 115.172495 
L 157.972364 115.119141 
L 158.784 115.264935 
L 159.730909 115.703823 
L 160.677818 116.40081 
L 161.895273 117.647423 
L 163.112727 119.223612 
L 164.736 121.745759 
L 166.900364 125.622784 
L 173.393455 137.749077 
L 175.152 140.477239 
L 176.775273 142.591212 
L 178.263273 144.133922 
L 179.480727 145.09654 
L 180.698182 145.768335 
L 181.780364 146.122513 
L 182.727273 146.24516 
L 183.944727 146.140029 
L 184.891636 145.867549 
L 186.109091 145.270385 
L 187.191273 144.526262 
L 188.408727 143.466961 
L 190.032 141.718608 
L 191.925818 139.273766 
L 194.360727 135.653356 
L 199.501091 127.258226 
L 202.206545 122.999738 
L 204.235636 120.088603 
L 206.535273 117.2114 
L 208.158545 115.491723 
L 209.646545 114.16124 
L 211.405091 112.914007 
L 212.757818 112.189374 
L 214.110545 111.667489 
L 215.463273 111.341277 
L 216.816 111.200285 
L 218.168727 111.2311 
L 219.656727 111.441709 
L 221.821091 112.038777 
L 224.526545 113.149775 
L 228.990545 115.449775 
L 234.536727 118.188172 
L 236.565818 118.969674 
L 239.271273 119.732694 
L 241.841455 120.131378 
L 243.6 120.222768 
L 246.305455 120.078005 
L 249.281455 119.570488 
L 253.069091 118.525004 
L 265.649455 114.35416 
L 269.707636 113.501087 
L 273.495273 113.079078 
L 277.553455 113.011164 
L 282.693818 113.369256 
L 296.356364 114.970672 
L 302.984727 115.271399 
L 306.096 115.249683 
L 315.294545 114.734963 
L 320.840727 114.308866 
L 333.421091 113.761889 
L 337.208727 113.761997 
L 341.266909 113.829231 
L 345.730909 113.949114 
L 351.277091 114.119093 
L 374.273455 114.196244 
L 379.819636 114.101023 
L 386.177455 114.018372 
L 390.912 113.981793 
L 397.810909 113.983736 
L 398.487273 113.983559 
L 398.487273 113.983559 
" clip-path="url(#pf87a8d42e2)" style="fill: none; stroke: #33ff33; stroke-width: 1.5; stroke-linecap: square"/>
   </g>
   <g id="line2d_28">
    <path d="M 73.832727 276.994486 
L 76.808727 276.899413 
L 77.620364 276.594153 
L 78.432 276.062244 
L 79.243636 275.263994 
L 80.055273 274.169995 
L 81.002182 272.54918 
L 82.084364 270.228259 
L 83.166545 267.398016 
L 84.384 263.603563 
L 85.736727 258.66467 
L 87.36 251.833971 
L 89.253818 242.847333 
L 90.741818 234.928024 
L 92.906182 221.989092 
L 101.563636 168.1971 
L 103.457455 158.507173 
L 105.080727 151.236417 
L 106.568727 145.473049 
L 108.056727 140.607439 
L 109.274182 137.283039 
L 110.626909 134.275873 
L 111.844364 132.162553 
L 112.791273 130.88009 
L 113.873455 129.786254 
L 114.955636 129.057455 
L 116.037818 128.661756 
L 117.12 128.565099 
L 118.202182 128.731963 
L 119.419636 129.191886 
L 120.637091 129.882204 
L 122.395636 131.196681 
L 124.424727 132.990241 
L 128.618182 136.815292 
L 130.917818 138.548406 
L 132.405818 139.424806 
L 134.029091 140.10972 
L 135.652364 140.488245 
L 137.140364 140.551919 
L 138.357818 140.407929 
L 139.981091 139.938657 
L 141.604364 139.173431 
L 143.498182 137.942935 
L 145.662545 136.159388 
L 148.368 133.50681 
L 154.049455 127.277325 
L 156.890182 124.272727 
L 159.866182 121.478765 
L 162.436364 119.468833 
L 164.194909 118.334942 
L 166.494545 117.175783 
L 168.117818 116.571352 
L 169.741091 116.138729 
L 171.364364 115.867275 
L 173.122909 115.735862 
L 175.828364 115.82362 
L 179.345455 116.319607 
L 191.114182 118.623197 
L 195.172364 118.934912 
L 199.095273 118.847029 
L 201.530182 118.61471 
L 204.100364 118.247788 
L 211.405091 116.782071 
L 215.598545 115.893506 
L 222.497455 114.765695 
L 225.338182 114.476403 
L 231.154909 114.236137 
L 234.266182 114.265309 
L 256.315636 115.150363 
L 269.301818 114.799759 
L 274.848 114.55342 
L 294.597818 114.238376 
L 301.496727 114.328083 
L 307.313455 114.403759 
L 312.318545 114.450698 
L 319.488 114.456559 
L 324.493091 114.431376 
L 330.309818 114.377438 
L 336.126545 114.327843 
L 341.402182 114.290212 
L 347.489455 114.27496 
L 352.765091 114.275147 
L 358.581818 114.293954 
L 364.128 114.310537 
L 369.674182 114.328742 
L 375.490909 114.333557 
L 380.766545 114.334666 
L 386.583273 114.323436 
L 392.129455 114.315277 
L 397.675636 114.302906 
L 398.487273 114.301762 
L 398.487273 114.301762 
" clip-path="url(#pf87a8d42e2)" style="fill: none; stroke: #66cc66; stroke-width: 1.5; stroke-linecap: square"/>
   </g>
   <g id="line2d_29">
    <path d="M 73.832727 135.576801 
L 74.779636 135.469874 
L 75.726545 135.13887 
L 79.649455 133.420415 
L 83.842909 132.270625 
L 86.548364 131.586352 
L 89.118545 130.806546 
L 94.258909 128.902288 
L 107.650909 123.294841 
L 113.467636 121.347297 
L 116.308364 120.570492 
L 122.260364 119.304798 
L 129.970909 118.21483 
L 133.893818 117.801745 
L 146.203636 116.748195 
L 151.479273 116.327629 
L 158.107636 115.836688 
L 162.842182 115.519539 
L 186.920727 114.616297 
L 193.278545 114.518884 
L 198.554182 114.445652 
L 204.100364 114.377549 
L 209.646545 114.304677 
L 215.192727 114.239332 
L 220.603636 114.17858 
L 225.879273 114.125339 
L 231.696 114.084482 
L 236.971636 114.053314 
L 242.788364 114.034666 
L 248.334545 114.018267 
L 253.880727 114.010501 
L 259.426909 113.998151 
L 264.973091 113.990704 
L 270.519273 113.977238 
L 276.065455 113.969177 
L 281.611636 113.956702 
L 287.157818 113.951408 
L 292.704 113.942919 
L 298.250182 113.941917 
L 303.796364 113.937142 
L 309.342545 113.938704 
L 314.888727 113.935197 
L 320.434909 113.936959 
L 325.981091 113.933039 
L 331.527273 113.934264 
L 337.073455 113.930058 
L 342.619636 113.931426 
L 348.165818 113.927769 
L 353.712 113.929932 
L 359.258182 113.927099 
L 364.804364 113.929928 
L 370.350545 113.927501 
L 375.896727 113.930466 
L 381.442909 113.927974 
L 386.989091 113.930777 
L 392.535273 113.928131 
L 398.081455 113.93086 
L 398.487273 113.92817 
L 398.487273 113.92817 
" clip-path="url(#pf87a8d42e2)" style="fill: none; stroke: #999999; stroke-width: 1.5; stroke-linecap: square"/>
   </g>
   <g id="line2d_30">
    <path d="M 73.832727 62.725266 
L 74.644364 62.620499 
L 75.456 62.284229 
L 76.402909 61.641678 
L 77.485091 60.636577 
L 78.837818 59.074704 
L 82.490182 54.626788 
L 83.437091 53.962838 
L 84.248727 53.649459 
L 84.925091 53.568 
L 85.736727 53.692597 
L 86.548364 54.053549 
L 87.495273 54.771365 
L 88.442182 55.790921 
L 89.524364 57.32279 
L 90.741818 59.490004 
L 91.959273 62.086367 
L 93.582545 66.160341 
L 95.476364 71.661612 
L 97.911273 79.62875 
L 102.104727 94.522065 
L 106.027636 108.086053 
L 108.056727 114.398143 
L 110.085818 119.964292 
L 111.573818 123.4931 
L 113.197091 126.739403 
L 114.549818 128.93751 
L 115.902545 130.659283 
L 117.12 131.794458 
L 118.066909 132.414622 
L 119.149091 132.837697 
L 120.231273 132.967911 
L 121.313455 132.816898 
L 122.395636 132.399195 
L 123.613091 131.629336 
L 124.695273 130.704863 
L 125.912727 129.422633 
L 127.671273 127.176656 
L 129.429818 124.570722 
L 132.405818 119.638097 
L 137.140364 111.613653 
L 139.710545 107.756013 
L 141.469091 105.480126 
L 143.362909 103.443379 
L 144.986182 102.07358 
L 146.609455 101.07072 
L 148.097455 100.481252 
L 149.314909 100.224116 
L 150.802909 100.191008 
L 152.020364 100.374212 
L 153.643636 100.901433 
L 155.402182 101.798787 
L 156.890182 102.77885 
L 159.189818 104.622943 
L 161.354182 106.605844 
L 164.871273 110.042627 
L 169.2 114.041397 
L 171.905455 116.120615 
L 174.205091 117.520952 
L 175.828364 118.284038 
L 177.316364 118.813414 
L 179.345455 119.261136 
L 180.833455 119.403282 
L 182.997818 119.336471 
L 185.432727 118.922452 
L 188.138182 118.123288 
L 191.925818 116.610224 
L 198.283636 113.828488 
L 202.341818 112.389033 
L 205.588364 111.60306 
L 208.699636 111.205307 
L 210.728727 111.12751 
L 214.110545 111.301504 
L 216.410182 111.593899 
L 221.821091 112.658452 
L 227.502545 113.939261 
L 230.613818 114.55159 
L 235.889455 115.260533 
L 238.459636 115.435441 
L 243.6 115.446025 
L 250.634182 114.931036 
L 257.262545 114.250889 
L 267.002182 113.610962 
L 275.659636 113.657657 
L 290.674909 114.353681 
L 305.284364 114.500144 
L 313.265455 114.330396 
L 319.352727 114.199337 
L 324.087273 114.126039 
L 334.773818 114.116807 
L 339.778909 114.160889 
L 345.325091 114.226453 
L 351.412364 114.280769 
L 356.417455 114.308667 
L 362.775273 114.30662 
L 368.050909 114.289653 
L 373.867636 114.256274 
L 379.684364 114.231214 
L 384.96 114.213169 
L 390.776727 114.212326 
L 396.052364 114.216569 
L 398.487273 114.221858 
L 398.487273 114.221858 
" clip-path="url(#pf87a8d42e2)" style="fill: none; stroke: #cc66cc; stroke-width: 1.5; stroke-linecap: square"/>
   </g>
   <g id="line2d_31">
    <path d="M 73.832727 84.152188 
L 74.644364 84.058001 
L 75.726545 83.65711 
L 76.944 82.949555 
L 78.432 81.824406 
L 81.137455 79.695237 
L 82.219636 79.258169 
L 83.301818 79.106036 
L 84.384 79.233357 
L 85.466182 79.631019 
L 86.683636 80.388665 
L 87.765818 81.315735 
L 88.983273 82.620405 
L 90.606545 84.749171 
L 92.500364 87.693814 
L 94.935273 92.004188 
L 103.592727 108.031842 
L 105.486545 110.946186 
L 107.245091 113.298289 
L 109.003636 115.261723 
L 110.356364 116.497351 
L 111.709091 117.487014 
L 112.926545 118.17032 
L 114.414545 118.735425 
L 115.632 118.994516 
L 117.255273 119.063557 
L 118.878545 118.848057 
L 120.772364 118.284279 
L 122.936727 117.305962 
L 125.777455 115.643004 
L 128.753455 113.680145 
L 134.029091 110.383854 
L 136.058182 109.362819 
L 138.628364 108.376028 
L 140.251636 107.944083 
L 141.874909 107.668337 
L 143.498182 107.548443 
L 145.121455 107.579288 
L 146.88 107.769169 
L 149.585455 108.349734 
L 152.967273 109.453297 
L 155.672727 110.522356 
L 165.953455 114.466572 
L 169.605818 115.342955 
L 171.770182 115.67479 
L 173.934545 115.864891 
L 176.098909 115.920871 
L 178.398545 115.851401 
L 183.268364 115.354789 
L 195.037091 113.60112 
L 201.124364 113.126364 
L 203.965091 113.071681 
L 210.458182 113.312504 
L 226.690909 114.63119 
L 230.208 114.787462 
L 233.725091 114.859668 
L 237.377455 114.854869 
L 260.779636 114.200971 
L 301.496727 114.554715 
L 307.313455 114.504406 
L 313.130182 114.460927 
L 318.405818 114.431112 
L 324.763636 114.426557 
L 330.039273 114.436248 
L 335.856 114.463312 
L 341.402182 114.484862 
L 346.677818 114.504688 
L 352.494545 114.510378 
L 357.770182 114.511386 
L 363.586909 114.499957 
L 369.133091 114.492109 
L 374.679273 114.480746 
L 380.496 114.47896 
L 386.042182 114.476864 
L 391.588364 114.483743 
L 397.134545 114.486829 
L 398.487273 114.488243 
L 398.487273 114.488243 
" clip-path="url(#pf87a8d42e2)" style="fill: none; stroke: #ff33ff; stroke-width: 1.5; stroke-linecap: square"/>
   </g>
   <g id="patch_3">
    <path d="M 57.6 307.584 
L 57.6 41.472 
" style="fill: none; stroke: #000000; stroke-width: 0.8; stroke-linejoin: miter; stroke-linecap: square"/>
   </g>
   <g id="patch_4">
    <path d="M 414.72 307.584 
L 414.72 41.472 
" style="fill: none; stroke: #000000; stroke-width: 0.8; stroke-linejoin: miter; stroke-linecap: square"/>
   </g>
   <g id="patch_5">
    <path d="M 57.6 307.584 
L 414.72 307.584 
" style="fill: none; stroke: #000000; stroke-width: 0.8; stroke-linejoin: miter; stroke-linecap: square"/>
   </g>
   <g id="patch_6">
    <path d="M 57.6 41.472 
L 414.72 41.472 
" style="fill: none; stroke: #000000; stroke-width: 0.8; stroke-linejoin: miter; stroke-linecap: square"/>
   </g>
   <g id="text_16">
    <!-- x vs time -->
    <g transform="translate(208.562813 35.472) scale(0.12 -0.12)">
     <defs>
      <path id="DejaVuSans-76" d="M 191 3500 
L 800 3500 
L 1894 563 
L 2988 3500 
L 3597 3500 
L 2284 0 
L 1503 0 
L 191 3500 
z
" transform="scale(0.015625)"/>
     </defs>
     <use xlink:href="#DejaVuSans-78"/>
     <use xlink:href="#DejaVuSans-20" x="59.179688"/>
     <use xlink:href="#DejaVuSans-76" x="90.966797"/>
     <use xlink:href="#DejaVuSans-73" x="150.146484"/>
     <use xlink:href="#DejaVuSans-20" x="202.246094"/>
     <use xlink:href="#DejaVuSans-74" x="234.033203"/>
     <use xlink:href="#DejaVuSans-69" x="273.242188"/>
     <use xlink:href="#DejaVuSans-6d" x="301.025391"/>
     <use xlink:href="#DejaVuSans-65" x="398.4375"/>
    </g>
   </g>
   <g id="legend_1">
    <g id="patch_7">
     <path d="M 49.480725 423.62925 
L 400.5776 423.62925 
Q 402.5776 423.62925 402.5776 421.62925 
L 402.5776 347.848 
Q 402.5776 345.848 400.5776 345.848 
L 49.480725 345.848 
Q 47.480725 345.848 47.480725 347.848 
L 47.480725 421.62925 
Q 47.480725 423.62925 49.480725 423.62925 
z
" style="fill: #ffffff; opacity: 0.8; stroke: #cccccc; stroke-linejoin: miter"/>
    </g>
    <g id="line2d_32">
     <path style="fill: none; stroke: #33ff33; stroke-width: 1.5; stroke-linecap: square"/>
    </g>
    <g id="text_17">
     <!-- Var1: x_init = 0.59, l_init = 1.62, theta_init = -39.79, mc = 1.44 -->
     <g transform="translate(79.480725 357.446438) scale(0.1 -0.1)">
      <defs>
       <path id="DejaVuSans-56" d="M 1831 0 
L 50 4666 
L 709 4666 
L 2188 738 
L 3669 4666 
L 4325 4666 
L 2547 0 
L 1831 0 
z
" transform="scale(0.015625)"/>
       <path id="DejaVuSans-61" d="M 2194 1759 
Q 1497 1759 1228 1600 
Q 959 1441 959 1056 
Q 959 750 1161 570 
Q 1363 391 1709 391 
Q 2188 391 2477 730 
Q 2766 1069 2766 1631 
L 2766 1759 
L 2194 1759 
z
M 3341 1997 
L 3341 0 
L 2766 0 
L 2766 531 
Q 2569 213 2275 61 
Q 1981 -91 1556 -91 
Q 1019 -91 701 211 
Q 384 513 384 1019 
Q 384 1609 779 1909 
Q 1175 2209 1959 2209 
L 2766 2209 
L 2766 2266 
Q 2766 2663 2505 2880 
Q 2244 3097 1772 3097 
Q 1472 3097 1187 3025 
Q 903 2953 641 2809 
L 641 3341 
Q 956 3463 1253 3523 
Q 1550 3584 1831 3584 
Q 2591 3584 2966 3190 
Q 3341 2797 3341 1997 
z
" transform="scale(0.015625)"/>
       <path id="DejaVuSans-72" d="M 2631 2963 
Q 2534 3019 2420 3045 
Q 2306 3072 2169 3072 
Q 1681 3072 1420 2755 
Q 1159 2438 1159 1844 
L 1159 0 
L 581 0 
L 581 3500 
L 1159 3500 
L 1159 2956 
Q 1341 3275 1631 3429 
Q 1922 3584 2338 3584 
Q 2397 3584 2469 3576 
Q 2541 3569 2628 3553 
L 2631 2963 
z
" transform="scale(0.015625)"/>
       <path id="DejaVuSans-3a" d="M 750 794 
L 1409 794 
L 1409 0 
L 750 0 
L 750 794 
z
M 750 3309 
L 1409 3309 
L 1409 2516 
L 750 2516 
L 750 3309 
z
" transform="scale(0.015625)"/>
       <path id="DejaVuSans-5f" d="M 3263 -1063 
L 3263 -1509 
L -63 -1509 
L -63 -1063 
L 3263 -1063 
z
" transform="scale(0.015625)"/>
       <path id="DejaVuSans-6e" d="M 3513 2113 
L 3513 0 
L 2938 0 
L 2938 2094 
Q 2938 2591 2744 2837 
Q 2550 3084 2163 3084 
Q 1697 3084 1428 2787 
Q 1159 2491 1159 1978 
L 1159 0 
L 581 0 
L 581 3500 
L 1159 3500 
L 1159 2956 
Q 1366 3272 1645 3428 
Q 1925 3584 2291 3584 
Q 2894 3584 3203 3211 
Q 3513 2838 3513 2113 
z
" transform="scale(0.015625)"/>
       <path id="DejaVuSans-3d" d="M 678 2906 
L 4684 2906 
L 4684 2381 
L 678 2381 
L 678 2906 
z
M 678 1631 
L 4684 1631 
L 4684 1100 
L 678 1100 
L 678 1631 
z
" transform="scale(0.015625)"/>
       <path id="DejaVuSans-35" d="M 691 4666 
L 3169 4666 
L 3169 4134 
L 1269 4134 
L 1269 2991 
Q 1406 3038 1543 3061 
Q 1681 3084 1819 3084 
Q 2600 3084 3056 2656 
Q 3513 2228 3513 1497 
Q 3513 744 3044 326 
Q 2575 -91 1722 -91 
Q 1428 -91 1123 -41 
Q 819 9 494 109 
L 494 744 
Q 775 591 1075 516 
Q 1375 441 1709 441 
Q 2250 441 2565 725 
Q 2881 1009 2881 1497 
Q 2881 1984 2565 2268 
Q 2250 2553 1709 2553 
Q 1456 2553 1204 2497 
Q 953 2441 691 2322 
L 691 4666 
z
" transform="scale(0.015625)"/>
       <path id="DejaVuSans-39" d="M 703 97 
L 703 672 
Q 941 559 1184 500 
Q 1428 441 1663 441 
Q 2288 441 2617 861 
Q 2947 1281 2994 2138 
Q 2813 1869 2534 1725 
Q 2256 1581 1919 1581 
Q 1219 1581 811 2004 
Q 403 2428 403 3163 
Q 403 3881 828 4315 
Q 1253 4750 1959 4750 
Q 2769 4750 3195 4129 
Q 3622 3509 3622 2328 
Q 3622 1225 3098 567 
Q 2575 -91 1691 -91 
Q 1453 -91 1209 -44 
Q 966 3 703 97 
z
M 1959 2075 
Q 2384 2075 2632 2365 
Q 2881 2656 2881 3163 
Q 2881 3666 2632 3958 
Q 2384 4250 1959 4250 
Q 1534 4250 1286 3958 
Q 1038 3666 1038 3163 
Q 1038 2656 1286 2365 
Q 1534 2075 1959 2075 
z
" transform="scale(0.015625)"/>
       <path id="DejaVuSans-2c" d="M 750 794 
L 1409 794 
L 1409 256 
L 897 -744 
L 494 -744 
L 750 256 
L 750 794 
z
" transform="scale(0.015625)"/>
       <path id="DejaVuSans-6c" d="M 603 4863 
L 1178 4863 
L 1178 0 
L 603 0 
L 603 4863 
z
" transform="scale(0.015625)"/>
       <path id="DejaVuSans-68" d="M 3513 2113 
L 3513 0 
L 2938 0 
L 2938 2094 
Q 2938 2591 2744 2837 
Q 2550 3084 2163 3084 
Q 1697 3084 1428 2787 
Q 1159 2491 1159 1978 
L 1159 0 
L 581 0 
L 581 4863 
L 1159 4863 
L 1159 2956 
Q 1366 3272 1645 3428 
Q 1925 3584 2291 3584 
Q 2894 3584 3203 3211 
Q 3513 2838 3513 2113 
z
" transform="scale(0.015625)"/>
       <path id="DejaVuSans-2d" d="M 313 2009 
L 1997 2009 
L 1997 1497 
L 313 1497 
L 313 2009 
z
" transform="scale(0.015625)"/>
       <path id="DejaVuSans-33" d="M 2597 2516 
Q 3050 2419 3304 2112 
Q 3559 1806 3559 1356 
Q 3559 666 3084 287 
Q 2609 -91 1734 -91 
Q 1441 -91 1130 -33 
Q 819 25 488 141 
L 488 750 
Q 750 597 1062 519 
Q 1375 441 1716 441 
Q 2309 441 2620 675 
Q 2931 909 2931 1356 
Q 2931 1769 2642 2001 
Q 2353 2234 1838 2234 
L 1294 2234 
L 1294 2753 
L 1863 2753 
Q 2328 2753 2575 2939 
Q 2822 3125 2822 3475 
Q 2822 3834 2567 4026 
Q 2313 4219 1838 4219 
Q 1578 4219 1281 4162 
Q 984 4106 628 3988 
L 628 4550 
Q 988 4650 1302 4700 
Q 1616 4750 1894 4750 
Q 2613 4750 3031 4423 
Q 3450 4097 3450 3541 
Q 3450 3153 3228 2886 
Q 3006 2619 2597 2516 
z
" transform="scale(0.015625)"/>
       <path id="DejaVuSans-37" d="M 525 4666 
L 3525 4666 
L 3525 4397 
L 1831 0 
L 1172 0 
L 2766 4134 
L 525 4134 
L 525 4666 
z
" transform="scale(0.015625)"/>
       <path id="DejaVuSans-63" d="M 3122 3366 
L 3122 2828 
Q 2878 2963 2633 3030 
Q 2388 3097 2138 3097 
Q 1578 3097 1268 2742 
Q 959 2388 959 1747 
Q 959 1106 1268 751 
Q 1578 397 2138 397 
Q 2388 397 2633 464 
Q 2878 531 3122 666 
L 3122 134 
Q 2881 22 2623 -34 
Q 2366 -91 2075 -91 
Q 1284 -91 818 406 
Q 353 903 353 1747 
Q 353 2603 823 3093 
Q 1294 3584 2113 3584 
Q 2378 3584 2631 3529 
Q 2884 3475 3122 3366 
z
" transform="scale(0.015625)"/>
      </defs>
      <use xlink:href="#DejaVuSans-56"/>
      <use xlink:href="#DejaVuSans-61" x="60.658203"/>
      <use xlink:href="#DejaVuSans-72" x="121.9375"/>
      <use xlink:href="#DejaVuSans-31" x="163.050781"/>
      <use xlink:href="#DejaVuSans-3a" x="226.673828"/>
      <use xlink:href="#DejaVuSans-20" x="260.365234"/>
      <use xlink:href="#DejaVuSans-78" x="292.152344"/>
      <use xlink:href="#DejaVuSans-5f" x="351.332031"/>
      <use xlink:href="#DejaVuSans-69" x="401.332031"/>
      <use xlink:href="#DejaVuSans-6e" x="429.115234"/>
      <use xlink:href="#DejaVuSans-69" x="492.494141"/>
      <use xlink:href="#DejaVuSans-74" x="520.277344"/>
      <use xlink:href="#DejaVuSans-20" x="559.486328"/>
      <use xlink:href="#DejaVuSans-3d" x="591.273438"/>
      <use xlink:href="#DejaVuSans-20" x="675.0625"/>
      <use xlink:href="#DejaVuSans-30" x="706.849609"/>
      <use xlink:href="#DejaVuSans-2e" x="770.472656"/>
      <use xlink:href="#DejaVuSans-35" x="802.259766"/>
      <use xlink:href="#DejaVuSans-39" x="865.882812"/>
      <use xlink:href="#DejaVuSans-2c" x="929.505859"/>
      <use xlink:href="#DejaVuSans-20" x="961.292969"/>
      <use xlink:href="#DejaVuSans-6c" x="993.080078"/>
      <use xlink:href="#DejaVuSans-5f" x="1020.863281"/>
      <use xlink:href="#DejaVuSans-69" x="1070.863281"/>
      <use xlink:href="#DejaVuSans-6e" x="1098.646484"/>
      <use xlink:href="#DejaVuSans-69" x="1162.025391"/>
      <use xlink:href="#DejaVuSans-74" x="1189.808594"/>
      <use xlink:href="#DejaVuSans-20" x="1229.017578"/>
      <use xlink:href="#DejaVuSans-3d" x="1260.804688"/>
      <use xlink:href="#DejaVuSans-20" x="1344.59375"/>
      <use xlink:href="#DejaVuSans-31" x="1376.380859"/>
      <use xlink:href="#DejaVuSans-2e" x="1440.003906"/>
      <use xlink:href="#DejaVuSans-36" x="1471.791016"/>
      <use xlink:href="#DejaVuSans-32" x="1535.414062"/>
      <use xlink:href="#DejaVuSans-2c" x="1599.037109"/>
      <use xlink:href="#DejaVuSans-20" x="1630.824219"/>
      <use xlink:href="#DejaVuSans-74" x="1662.611328"/>
      <use xlink:href="#DejaVuSans-68" x="1701.820312"/>
      <use xlink:href="#DejaVuSans-65" x="1765.199219"/>
      <use xlink:href="#DejaVuSans-74" x="1826.722656"/>
      <use xlink:href="#DejaVuSans-61" x="1865.931641"/>
      <use xlink:href="#DejaVuSans-5f" x="1927.210938"/>
      <use xlink:href="#DejaVuSans-69" x="1977.210938"/>
      <use xlink:href="#DejaVuSans-6e" x="2004.994141"/>
      <use xlink:href="#DejaVuSans-69" x="2068.373047"/>
      <use xlink:href="#DejaVuSans-74" x="2096.15625"/>
      <use xlink:href="#DejaVuSans-20" x="2135.365234"/>
      <use xlink:href="#DejaVuSans-3d" x="2167.152344"/>
      <use xlink:href="#DejaVuSans-20" x="2250.941406"/>
      <use xlink:href="#DejaVuSans-2d" x="2282.728516"/>
      <use xlink:href="#DejaVuSans-33" x="2318.8125"/>
      <use xlink:href="#DejaVuSans-39" x="2382.435547"/>
      <use xlink:href="#DejaVuSans-2e" x="2446.058594"/>
      <use xlink:href="#DejaVuSans-37" x="2477.845703"/>
      <use xlink:href="#DejaVuSans-39" x="2541.46875"/>
      <use xlink:href="#DejaVuSans-2c" x="2605.091797"/>
      <use xlink:href="#DejaVuSans-20" x="2636.878906"/>
      <use xlink:href="#DejaVuSans-6d" x="2668.666016"/>
      <use xlink:href="#DejaVuSans-63" x="2766.078125"/>
      <use xlink:href="#DejaVuSans-20" x="2821.058594"/>
      <use xlink:href="#DejaVuSans-3d" x="2852.845703"/>
      <use xlink:href="#DejaVuSans-20" x="2936.634766"/>
      <use xlink:href="#DejaVuSans-31" x="2968.421875"/>
      <use xlink:href="#DejaVuSans-2e" x="3032.044922"/>
      <use xlink:href="#DejaVuSans-34" x="3063.832031"/>
      <use xlink:href="#DejaVuSans-34" x="3127.455078"/>
     </g>
    </g>
    <g id="line2d_33">
     <path style="fill: none; stroke: #66cc66; stroke-width: 1.5; stroke-linecap: square"/>
    </g>
    <g id="text_18">
     <!-- Var2: x_init = 0.24, l_init = 0.65, theta_init = 38.11, mc = 0.75 -->
     <g transform="translate(79.480725 372.402687) scale(0.1 -0.1)">
      <use xlink:href="#DejaVuSans-56"/>
      <use xlink:href="#DejaVuSans-61" x="60.658203"/>
      <use xlink:href="#DejaVuSans-72" x="121.9375"/>
      <use xlink:href="#DejaVuSans-32" x="163.050781"/>
      <use xlink:href="#DejaVuSans-3a" x="226.673828"/>
      <use xlink:href="#DejaVuSans-20" x="260.365234"/>
      <use xlink:href="#DejaVuSans-78" x="292.152344"/>
      <use xlink:href="#DejaVuSans-5f" x="351.332031"/>
      <use xlink:href="#DejaVuSans-69" x="401.332031"/>
      <use xlink:href="#DejaVuSans-6e" x="429.115234"/>
      <use xlink:href="#DejaVuSans-69" x="492.494141"/>
      <use xlink:href="#DejaVuSans-74" x="520.277344"/>
      <use xlink:href="#DejaVuSans-20" x="559.486328"/>
      <use xlink:href="#DejaVuSans-3d" x="591.273438"/>
      <use xlink:href="#DejaVuSans-20" x="675.0625"/>
      <use xlink:href="#DejaVuSans-30" x="706.849609"/>
      <use xlink:href="#DejaVuSans-2e" x="770.472656"/>
      <use xlink:href="#DejaVuSans-32" x="802.259766"/>
      <use xlink:href="#DejaVuSans-34" x="865.882812"/>
      <use xlink:href="#DejaVuSans-2c" x="929.505859"/>
      <use xlink:href="#DejaVuSans-20" x="961.292969"/>
      <use xlink:href="#DejaVuSans-6c" x="993.080078"/>
      <use xlink:href="#DejaVuSans-5f" x="1020.863281"/>
      <use xlink:href="#DejaVuSans-69" x="1070.863281"/>
      <use xlink:href="#DejaVuSans-6e" x="1098.646484"/>
      <use xlink:href="#DejaVuSans-69" x="1162.025391"/>
      <use xlink:href="#DejaVuSans-74" x="1189.808594"/>
      <use xlink:href="#DejaVuSans-20" x="1229.017578"/>
      <use xlink:href="#DejaVuSans-3d" x="1260.804688"/>
      <use xlink:href="#DejaVuSans-20" x="1344.59375"/>
      <use xlink:href="#DejaVuSans-30" x="1376.380859"/>
      <use xlink:href="#DejaVuSans-2e" x="1440.003906"/>
      <use xlink:href="#DejaVuSans-36" x="1471.791016"/>
      <use xlink:href="#DejaVuSans-35" x="1535.414062"/>
      <use xlink:href="#DejaVuSans-2c" x="1599.037109"/>
      <use xlink:href="#DejaVuSans-20" x="1630.824219"/>
      <use xlink:href="#DejaVuSans-74" x="1662.611328"/>
      <use xlink:href="#DejaVuSans-68" x="1701.820312"/>
      <use xlink:href="#DejaVuSans-65" x="1765.199219"/>
      <use xlink:href="#DejaVuSans-74" x="1826.722656"/>
      <use xlink:href="#DejaVuSans-61" x="1865.931641"/>
      <use xlink:href="#DejaVuSans-5f" x="1927.210938"/>
      <use xlink:href="#DejaVuSans-69" x="1977.210938"/>
      <use xlink:href="#DejaVuSans-6e" x="2004.994141"/>
      <use xlink:href="#DejaVuSans-69" x="2068.373047"/>
      <use xlink:href="#DejaVuSans-74" x="2096.15625"/>
      <use xlink:href="#DejaVuSans-20" x="2135.365234"/>
      <use xlink:href="#DejaVuSans-3d" x="2167.152344"/>
      <use xlink:href="#DejaVuSans-20" x="2250.941406"/>
      <use xlink:href="#DejaVuSans-33" x="2282.728516"/>
      <use xlink:href="#DejaVuSans-38" x="2346.351562"/>
      <use xlink:href="#DejaVuSans-2e" x="2409.974609"/>
      <use xlink:href="#DejaVuSans-31" x="2441.761719"/>
      <use xlink:href="#DejaVuSans-31" x="2505.384766"/>
      <use xlink:href="#DejaVuSans-2c" x="2569.007812"/>
      <use xlink:href="#DejaVuSans-20" x="2600.794922"/>
      <use xlink:href="#DejaVuSans-6d" x="2632.582031"/>
      <use xlink:href="#DejaVuSans-63" x="2729.994141"/>
      <use xlink:href="#DejaVuSans-20" x="2784.974609"/>
      <use xlink:href="#DejaVuSans-3d" x="2816.761719"/>
      <use xlink:href="#DejaVuSans-20" x="2900.550781"/>
      <use xlink:href="#DejaVuSans-30" x="2932.337891"/>
      <use xlink:href="#DejaVuSans-2e" x="2995.960938"/>
      <use xlink:href="#DejaVuSans-37" x="3027.748047"/>
      <use xlink:href="#DejaVuSans-35" x="3091.371094"/>
     </g>
    </g>
    <g id="line2d_34">
     <path style="fill: none; stroke: #999999; stroke-width: 1.5; stroke-linecap: square"/>
    </g>
    <g id="text_19">
     <!-- Var3: x_init = 0.9, l_init = 0.38, theta_init = -0.51, mc = 1.19 -->
     <g transform="translate(79.480725 387.358937) scale(0.1 -0.1)">
      <use xlink:href="#DejaVuSans-56"/>
      <use xlink:href="#DejaVuSans-61" x="60.658203"/>
      <use xlink:href="#DejaVuSans-72" x="121.9375"/>
      <use xlink:href="#DejaVuSans-33" x="163.050781"/>
      <use xlink:href="#DejaVuSans-3a" x="226.673828"/>
      <use xlink:href="#DejaVuSans-20" x="260.365234"/>
      <use xlink:href="#DejaVuSans-78" x="292.152344"/>
      <use xlink:href="#DejaVuSans-5f" x="351.332031"/>
      <use xlink:href="#DejaVuSans-69" x="401.332031"/>
      <use xlink:href="#DejaVuSans-6e" x="429.115234"/>
      <use xlink:href="#DejaVuSans-69" x="492.494141"/>
      <use xlink:href="#DejaVuSans-74" x="520.277344"/>
      <use xlink:href="#DejaVuSans-20" x="559.486328"/>
      <use xlink:href="#DejaVuSans-3d" x="591.273438"/>
      <use xlink:href="#DejaVuSans-20" x="675.0625"/>
      <use xlink:href="#DejaVuSans-30" x="706.849609"/>
      <use xlink:href="#DejaVuSans-2e" x="770.472656"/>
      <use xlink:href="#DejaVuSans-39" x="802.259766"/>
      <use xlink:href="#DejaVuSans-2c" x="865.882812"/>
      <use xlink:href="#DejaVuSans-20" x="897.669922"/>
      <use xlink:href="#DejaVuSans-6c" x="929.457031"/>
      <use xlink:href="#DejaVuSans-5f" x="957.240234"/>
      <use xlink:href="#DejaVuSans-69" x="1007.240234"/>
      <use xlink:href="#DejaVuSans-6e" x="1035.023438"/>
      <use xlink:href="#DejaVuSans-69" x="1098.402344"/>
      <use xlink:href="#DejaVuSans-74" x="1126.185547"/>
      <use xlink:href="#DejaVuSans-20" x="1165.394531"/>
      <use xlink:href="#DejaVuSans-3d" x="1197.181641"/>
      <use xlink:href="#DejaVuSans-20" x="1280.970703"/>
      <use xlink:href="#DejaVuSans-30" x="1312.757812"/>
      <use xlink:href="#DejaVuSans-2e" x="1376.380859"/>
      <use xlink:href="#DejaVuSans-33" x="1408.167969"/>
      <use xlink:href="#DejaVuSans-38" x="1471.791016"/>
      <use xlink:href="#DejaVuSans-2c" x="1535.414062"/>
      <use xlink:href="#DejaVuSans-20" x="1567.201172"/>
      <use xlink:href="#DejaVuSans-74" x="1598.988281"/>
      <use xlink:href="#DejaVuSans-68" x="1638.197266"/>
      <use xlink:href="#DejaVuSans-65" x="1701.576172"/>
      <use xlink:href="#DejaVuSans-74" x="1763.099609"/>
      <use xlink:href="#DejaVuSans-61" x="1802.308594"/>
      <use xlink:href="#DejaVuSans-5f" x="1863.587891"/>
      <use xlink:href="#DejaVuSans-69" x="1913.587891"/>
      <use xlink:href="#DejaVuSans-6e" x="1941.371094"/>
      <use xlink:href="#DejaVuSans-69" x="2004.75"/>
      <use xlink:href="#DejaVuSans-74" x="2032.533203"/>
      <use xlink:href="#DejaVuSans-20" x="2071.742188"/>
      <use xlink:href="#DejaVuSans-3d" x="2103.529297"/>
      <use xlink:href="#DejaVuSans-20" x="2187.318359"/>
      <use xlink:href="#DejaVuSans-2d" x="2219.105469"/>
      <use xlink:href="#DejaVuSans-30" x="2255.189453"/>
      <use xlink:href="#DejaVuSans-2e" x="2318.8125"/>
      <use xlink:href="#DejaVuSans-35" x="2350.599609"/>
      <use xlink:href="#DejaVuSans-31" x="2414.222656"/>
      <use xlink:href="#DejaVuSans-2c" x="2477.845703"/>
      <use xlink:href="#DejaVuSans-20" x="2509.632812"/>
      <use xlink:href="#DejaVuSans-6d" x="2541.419922"/>
      <use xlink:href="#DejaVuSans-63" x="2638.832031"/>
      <use xlink:href="#DejaVuSans-20" x="2693.8125"/>
      <use xlink:href="#DejaVuSans-3d" x="2725.599609"/>
      <use xlink:href="#DejaVuSans-20" x="2809.388672"/>
      <use xlink:href="#DejaVuSans-31" x="2841.175781"/>
      <use xlink:href="#DejaVuSans-2e" x="2904.798828"/>
      <use xlink:href="#DejaVuSans-31" x="2936.585938"/>
      <use xlink:href="#DejaVuSans-39" x="3000.208984"/>
     </g>
    </g>
    <g id="line2d_35">
     <path style="fill: none; stroke: #cc66cc; stroke-width: 1.5; stroke-linecap: square"/>
    </g>
    <g id="text_20">
     <!-- Var4: x_init = 1.24, l_init = 1.46, theta_init = -20.0, mc = 0.86 -->
     <g transform="translate(79.480725 402.315187) scale(0.1 -0.1)">
      <use xlink:href="#DejaVuSans-56"/>
      <use xlink:href="#DejaVuSans-61" x="60.658203"/>
      <use xlink:href="#DejaVuSans-72" x="121.9375"/>
      <use xlink:href="#DejaVuSans-34" x="163.050781"/>
      <use xlink:href="#DejaVuSans-3a" x="226.673828"/>
      <use xlink:href="#DejaVuSans-20" x="260.365234"/>
      <use xlink:href="#DejaVuSans-78" x="292.152344"/>
      <use xlink:href="#DejaVuSans-5f" x="351.332031"/>
      <use xlink:href="#DejaVuSans-69" x="401.332031"/>
      <use xlink:href="#DejaVuSans-6e" x="429.115234"/>
      <use xlink:href="#DejaVuSans-69" x="492.494141"/>
      <use xlink:href="#DejaVuSans-74" x="520.277344"/>
      <use xlink:href="#DejaVuSans-20" x="559.486328"/>
      <use xlink:href="#DejaVuSans-3d" x="591.273438"/>
      <use xlink:href="#DejaVuSans-20" x="675.0625"/>
      <use xlink:href="#DejaVuSans-31" x="706.849609"/>
      <use xlink:href="#DejaVuSans-2e" x="770.472656"/>
      <use xlink:href="#DejaVuSans-32" x="802.259766"/>
      <use xlink:href="#DejaVuSans-34" x="865.882812"/>
      <use xlink:href="#DejaVuSans-2c" x="929.505859"/>
      <use xlink:href="#DejaVuSans-20" x="961.292969"/>
      <use xlink:href="#DejaVuSans-6c" x="993.080078"/>
      <use xlink:href="#DejaVuSans-5f" x="1020.863281"/>
      <use xlink:href="#DejaVuSans-69" x="1070.863281"/>
      <use xlink:href="#DejaVuSans-6e" x="1098.646484"/>
      <use xlink:href="#DejaVuSans-69" x="1162.025391"/>
      <use xlink:href="#DejaVuSans-74" x="1189.808594"/>
      <use xlink:href="#DejaVuSans-20" x="1229.017578"/>
      <use xlink:href="#DejaVuSans-3d" x="1260.804688"/>
      <use xlink:href="#DejaVuSans-20" x="1344.59375"/>
      <use xlink:href="#DejaVuSans-31" x="1376.380859"/>
      <use xlink:href="#DejaVuSans-2e" x="1440.003906"/>
      <use xlink:href="#DejaVuSans-34" x="1471.791016"/>
      <use xlink:href="#DejaVuSans-36" x="1535.414062"/>
      <use xlink:href="#DejaVuSans-2c" x="1599.037109"/>
      <use xlink:href="#DejaVuSans-20" x="1630.824219"/>
      <use xlink:href="#DejaVuSans-74" x="1662.611328"/>
      <use xlink:href="#DejaVuSans-68" x="1701.820312"/>
      <use xlink:href="#DejaVuSans-65" x="1765.199219"/>
      <use xlink:href="#DejaVuSans-74" x="1826.722656"/>
      <use xlink:href="#DejaVuSans-61" x="1865.931641"/>
      <use xlink:href="#DejaVuSans-5f" x="1927.210938"/>
      <use xlink:href="#DejaVuSans-69" x="1977.210938"/>
      <use xlink:href="#DejaVuSans-6e" x="2004.994141"/>
      <use xlink:href="#DejaVuSans-69" x="2068.373047"/>
      <use xlink:href="#DejaVuSans-74" x="2096.15625"/>
      <use xlink:href="#DejaVuSans-20" x="2135.365234"/>
      <use xlink:href="#DejaVuSans-3d" x="2167.152344"/>
      <use xlink:href="#DejaVuSans-20" x="2250.941406"/>
      <use xlink:href="#DejaVuSans-2d" x="2282.728516"/>
      <use xlink:href="#DejaVuSans-32" x="2318.8125"/>
      <use xlink:href="#DejaVuSans-30" x="2382.435547"/>
      <use xlink:href="#DejaVuSans-2e" x="2446.058594"/>
      <use xlink:href="#DejaVuSans-30" x="2477.845703"/>
      <use xlink:href="#DejaVuSans-2c" x="2541.46875"/>
      <use xlink:href="#DejaVuSans-20" x="2573.255859"/>
      <use xlink:href="#DejaVuSans-6d" x="2605.042969"/>
      <use xlink:href="#DejaVuSans-63" x="2702.455078"/>
      <use xlink:href="#DejaVuSans-20" x="2757.435547"/>
      <use xlink:href="#DejaVuSans-3d" x="2789.222656"/>
      <use xlink:href="#DejaVuSans-20" x="2873.011719"/>
      <use xlink:href="#DejaVuSans-30" x="2904.798828"/>
      <use xlink:href="#DejaVuSans-2e" x="2968.421875"/>
      <use xlink:href="#DejaVuSans-38" x="3000.208984"/>
      <use xlink:href="#DejaVuSans-36" x="3063.832031"/>
     </g>
    </g>
    <g id="line2d_36">
     <path style="fill: none; stroke: #ff33ff; stroke-width: 1.5; stroke-linecap: square"/>
    </g>
    <g id="text_21">
     <!-- Var5: x_init = 1.14, l_init = 1.04, theta_init = -12.07, mc = 1.3 -->
     <g transform="translate(79.480725 417.271437) scale(0.1 -0.1)">
      <use xlink:href="#DejaVuSans-56"/>
      <use xlink:href="#DejaVuSans-61" x="60.658203"/>
      <use xlink:href="#DejaVuSans-72" x="121.9375"/>
      <use xlink:href="#DejaVuSans-35" x="163.050781"/>
      <use xlink:href="#DejaVuSans-3a" x="226.673828"/>
      <use xlink:href="#DejaVuSans-20" x="260.365234"/>
      <use xlink:href="#DejaVuSans-78" x="292.152344"/>
      <use xlink:href="#DejaVuSans-5f" x="351.332031"/>
      <use xlink:href="#DejaVuSans-69" x="401.332031"/>
      <use xlink:href="#DejaVuSans-6e" x="429.115234"/>
      <use xlink:href="#DejaVuSans-69" x="492.494141"/>
      <use xlink:href="#DejaVuSans-74" x="520.277344"/>
      <use xlink:href="#DejaVuSans-20" x="559.486328"/>
      <use xlink:href="#DejaVuSans-3d" x="591.273438"/>
      <use xlink:href="#DejaVuSans-20" x="675.0625"/>
      <use xlink:href="#DejaVuSans-31" x="706.849609"/>
      <use xlink:href="#DejaVuSans-2e" x="770.472656"/>
      <use xlink:href="#DejaVuSans-31" x="802.259766"/>
      <use xlink:href="#DejaVuSans-34" x="865.882812"/>
      <use xlink:href="#DejaVuSans-2c" x="929.505859"/>
      <use xlink:href="#DejaVuSans-20" x="961.292969"/>
      <use xlink:href="#DejaVuSans-6c" x="993.080078"/>
      <use xlink:href="#DejaVuSans-5f" x="1020.863281"/>
      <use xlink:href="#DejaVuSans-69" x="1070.863281"/>
      <use xlink:href="#DejaVuSans-6e" x="1098.646484"/>
      <use xlink:href="#DejaVuSans-69" x="1162.025391"/>
      <use xlink:href="#DejaVuSans-74" x="1189.808594"/>
      <use xlink:href="#DejaVuSans-20" x="1229.017578"/>
      <use xlink:href="#DejaVuSans-3d" x="1260.804688"/>
      <use xlink:href="#DejaVuSans-20" x="1344.59375"/>
      <use xlink:href="#DejaVuSans-31" x="1376.380859"/>
      <use xlink:href="#DejaVuSans-2e" x="1440.003906"/>
      <use xlink:href="#DejaVuSans-30" x="1471.791016"/>
      <use xlink:href="#DejaVuSans-34" x="1535.414062"/>
      <use xlink:href="#DejaVuSans-2c" x="1599.037109"/>
      <use xlink:href="#DejaVuSans-20" x="1630.824219"/>
      <use xlink:href="#DejaVuSans-74" x="1662.611328"/>
      <use xlink:href="#DejaVuSans-68" x="1701.820312"/>
      <use xlink:href="#DejaVuSans-65" x="1765.199219"/>
      <use xlink:href="#DejaVuSans-74" x="1826.722656"/>
      <use xlink:href="#DejaVuSans-61" x="1865.931641"/>
      <use xlink:href="#DejaVuSans-5f" x="1927.210938"/>
      <use xlink:href="#DejaVuSans-69" x="1977.210938"/>
      <use xlink:href="#DejaVuSans-6e" x="2004.994141"/>
      <use xlink:href="#DejaVuSans-69" x="2068.373047"/>
      <use xlink:href="#DejaVuSans-74" x="2096.15625"/>
      <use xlink:href="#DejaVuSans-20" x="2135.365234"/>
      <use xlink:href="#DejaVuSans-3d" x="2167.152344"/>
      <use xlink:href="#DejaVuSans-20" x="2250.941406"/>
      <use xlink:href="#DejaVuSans-2d" x="2282.728516"/>
      <use xlink:href="#DejaVuSans-31" x="2318.8125"/>
      <use xlink:href="#DejaVuSans-32" x="2382.435547"/>
      <use xlink:href="#DejaVuSans-2e" x="2446.058594"/>
      <use xlink:href="#DejaVuSans-30" x="2477.845703"/>
      <use xlink:href="#DejaVuSans-37" x="2541.46875"/>
      <use xlink:href="#DejaVuSans-2c" x="2605.091797"/>
      <use xlink:href="#DejaVuSans-20" x="2636.878906"/>
      <use xlink:href="#DejaVuSans-6d" x="2668.666016"/>
      <use xlink:href="#DejaVuSans-63" x="2766.078125"/>
      <use xlink:href="#DejaVuSans-20" x="2821.058594"/>
      <use xlink:href="#DejaVuSans-3d" x="2852.845703"/>
      <use xlink:href="#DejaVuSans-20" x="2936.634766"/>
      <use xlink:href="#DejaVuSans-31" x="2968.421875"/>
      <use xlink:href="#DejaVuSans-2e" x="3032.044922"/>
      <use xlink:href="#DejaVuSans-33" x="3063.832031"/>
     </g>
    </g>
   </g>
  </g>
 </g>
 <defs>
  <clipPath id="pf87a8d42e2">
   <rect x="57.6" y="41.472" width="357.12" height="266.112"/>
  </clipPath>
 </defs>
</svg>
