<?xml version="1.0" encoding="utf-8" standalone="no"?>
<!DOCTYPE svg PUBLIC "-//W3C//DTD SVG 1.1//EN"
  "http://www.w3.org/Graphics/SVG/1.1/DTD/svg11.dtd">
<svg xmlns:xlink="http://www.w3.org/1999/xlink" width="460.8pt" height="345.6pt" viewBox="0 0 460.8 345.6" xmlns="http://www.w3.org/2000/svg" version="1.1">
 <metadata>
  <rdf:RDF xmlns:dc="http://purl.org/dc/elements/1.1/" xmlns:cc="http://creativecommons.org/ns#" xmlns:rdf="http://www.w3.org/1999/02/22-rdf-syntax-ns#">
   <cc:Work>
    <dc:type rdf:resource="http://purl.org/dc/dcmitype/StillImage"/>
    <dc:date>2023-06-29T15:15:47.635379</dc:date>
    <dc:format>image/svg+xml</dc:format>
    <dc:creator>
     <cc:Agent>
      <dc:title>Matplotlib v3.7.1, https://matplotlib.org/</dc:title>
     </cc:Agent>
    </dc:creator>
   </cc:Work>
  </rdf:RDF>
 </metadata>
 <defs>
  <style type="text/css">*{stroke-linejoin: round; stroke-linecap: butt}</style>
 </defs>
 <g id="figure_1">
  <g id="patch_1">
   <path d="M 0 345.6 
L 460.8 345.6 
L 460.8 0 
L 0 0 
L 0 345.6 
z
" style="fill: none"/>
  </g>
  <g id="axes_1">
   <g id="patch_2">
    <path d="M 57.6 307.584 
L 414.72 307.584 
L 414.72 41.472 
L 57.6 41.472 
L 57.6 307.584 
z
" style="fill: none"/>
   </g>
   <g id="matplotlib.axis_1">
    <g id="xtick_1">
     <g id="line2d_1">
      <path d="M 73.832727 307.584 
L 73.832727 41.472 
" clip-path="url(#pe7e5b9fea7)" style="fill: none; stroke: #b0b0b0; stroke-width: 0.8; stroke-linecap: square"/>
     </g>
     <g id="line2d_2">
      <defs>
       <path id="m73326e8215" d="M 0 0 
L 0 3.5 
" style="stroke: #000000; stroke-width: 0.8"/>
      </defs>
      <g>
       <use xlink:href="#m73326e8215" x="73.832727" y="307.584" style="stroke: #000000; stroke-width: 0.8"/>
      </g>
     </g>
     <g id="text_1">
      <!-- 0 -->
      <g transform="translate(70.651477 322.182437) scale(0.1 -0.1)">
       <defs>
        <path id="DejaVuSans-30" d="M 2034 4250 
Q 1547 4250 1301 3770 
Q 1056 3291 1056 2328 
Q 1056 1369 1301 889 
Q 1547 409 2034 409 
Q 2525 409 2770 889 
Q 3016 1369 3016 2328 
Q 3016 3291 2770 3770 
Q 2525 4250 2034 4250 
z
M 2034 4750 
Q 2819 4750 3233 4129 
Q 3647 3509 3647 2328 
Q 3647 1150 3233 529 
Q 2819 -91 2034 -91 
Q 1250 -91 836 529 
Q 422 1150 422 2328 
Q 422 3509 836 4129 
Q 1250 4750 2034 4750 
z
" transform="scale(0.015625)"/>
       </defs>
       <use xlink:href="#DejaVuSans-30"/>
      </g>
     </g>
    </g>
    <g id="xtick_2">
     <g id="line2d_3">
      <path d="M 127.941818 307.584 
L 127.941818 41.472 
" clip-path="url(#pe7e5b9fea7)" style="fill: none; stroke: #b0b0b0; stroke-width: 0.8; stroke-linecap: square"/>
     </g>
     <g id="line2d_4">
      <g>
       <use xlink:href="#m73326e8215" x="127.941818" y="307.584" style="stroke: #000000; stroke-width: 0.8"/>
      </g>
     </g>
     <g id="text_2">
      <!-- 10 -->
      <g transform="translate(121.579318 322.182437) scale(0.1 -0.1)">
       <defs>
        <path id="DejaVuSans-31" d="M 794 531 
L 1825 531 
L 1825 4091 
L 703 3866 
L 703 4441 
L 1819 4666 
L 2450 4666 
L 2450 531 
L 3481 531 
L 3481 0 
L 794 0 
L 794 531 
z
" transform="scale(0.015625)"/>
       </defs>
       <use xlink:href="#DejaVuSans-31"/>
       <use xlink:href="#DejaVuSans-30" x="63.623047"/>
      </g>
     </g>
    </g>
    <g id="xtick_3">
     <g id="line2d_5">
      <path d="M 182.050909 307.584 
L 182.050909 41.472 
" clip-path="url(#pe7e5b9fea7)" style="fill: none; stroke: #b0b0b0; stroke-width: 0.8; stroke-linecap: square"/>
     </g>
     <g id="line2d_6">
      <g>
       <use xlink:href="#m73326e8215" x="182.050909" y="307.584" style="stroke: #000000; stroke-width: 0.8"/>
      </g>
     </g>
     <g id="text_3">
      <!-- 20 -->
      <g transform="translate(175.688409 322.182437) scale(0.1 -0.1)">
       <defs>
        <path id="DejaVuSans-32" d="M 1228 531 
L 3431 531 
L 3431 0 
L 469 0 
L 469 531 
Q 828 903 1448 1529 
Q 2069 2156 2228 2338 
Q 2531 2678 2651 2914 
Q 2772 3150 2772 3378 
Q 2772 3750 2511 3984 
Q 2250 4219 1831 4219 
Q 1534 4219 1204 4116 
Q 875 4013 500 3803 
L 500 4441 
Q 881 4594 1212 4672 
Q 1544 4750 1819 4750 
Q 2544 4750 2975 4387 
Q 3406 4025 3406 3419 
Q 3406 3131 3298 2873 
Q 3191 2616 2906 2266 
Q 2828 2175 2409 1742 
Q 1991 1309 1228 531 
z
" transform="scale(0.015625)"/>
       </defs>
       <use xlink:href="#DejaVuSans-32"/>
       <use xlink:href="#DejaVuSans-30" x="63.623047"/>
      </g>
     </g>
    </g>
    <g id="xtick_4">
     <g id="line2d_7">
      <path d="M 236.16 307.584 
L 236.16 41.472 
" clip-path="url(#pe7e5b9fea7)" style="fill: none; stroke: #b0b0b0; stroke-width: 0.8; stroke-linecap: square"/>
     </g>
     <g id="line2d_8">
      <g>
       <use xlink:href="#m73326e8215" x="236.16" y="307.584" style="stroke: #000000; stroke-width: 0.8"/>
      </g>
     </g>
     <g id="text_4">
      <!-- 30 -->
      <g transform="translate(229.7975 322.182437) scale(0.1 -0.1)">
       <defs>
        <path id="DejaVuSans-33" d="M 2597 2516 
Q 3050 2419 3304 2112 
Q 3559 1806 3559 1356 
Q 3559 666 3084 287 
Q 2609 -91 1734 -91 
Q 1441 -91 1130 -33 
Q 819 25 488 141 
L 488 750 
Q 750 597 1062 519 
Q 1375 441 1716 441 
Q 2309 441 2620 675 
Q 2931 909 2931 1356 
Q 2931 1769 2642 2001 
Q 2353 2234 1838 2234 
L 1294 2234 
L 1294 2753 
L 1863 2753 
Q 2328 2753 2575 2939 
Q 2822 3125 2822 3475 
Q 2822 3834 2567 4026 
Q 2313 4219 1838 4219 
Q 1578 4219 1281 4162 
Q 984 4106 628 3988 
L 628 4550 
Q 988 4650 1302 4700 
Q 1616 4750 1894 4750 
Q 2613 4750 3031 4423 
Q 3450 4097 3450 3541 
Q 3450 3153 3228 2886 
Q 3006 2619 2597 2516 
z
" transform="scale(0.015625)"/>
       </defs>
       <use xlink:href="#DejaVuSans-33"/>
       <use xlink:href="#DejaVuSans-30" x="63.623047"/>
      </g>
     </g>
    </g>
    <g id="xtick_5">
     <g id="line2d_9">
      <path d="M 290.269091 307.584 
L 290.269091 41.472 
" clip-path="url(#pe7e5b9fea7)" style="fill: none; stroke: #b0b0b0; stroke-width: 0.8; stroke-linecap: square"/>
     </g>
     <g id="line2d_10">
      <g>
       <use xlink:href="#m73326e8215" x="290.269091" y="307.584" style="stroke: #000000; stroke-width: 0.8"/>
      </g>
     </g>
     <g id="text_5">
      <!-- 40 -->
      <g transform="translate(283.906591 322.182437) scale(0.1 -0.1)">
       <defs>
        <path id="DejaVuSans-34" d="M 2419 4116 
L 825 1625 
L 2419 1625 
L 2419 4116 
z
M 2253 4666 
L 3047 4666 
L 3047 1625 
L 3713 1625 
L 3713 1100 
L 3047 1100 
L 3047 0 
L 2419 0 
L 2419 1100 
L 313 1100 
L 313 1709 
L 2253 4666 
z
" transform="scale(0.015625)"/>
       </defs>
       <use xlink:href="#DejaVuSans-34"/>
       <use xlink:href="#DejaVuSans-30" x="63.623047"/>
      </g>
     </g>
    </g>
    <g id="xtick_6">
     <g id="line2d_11">
      <path d="M 344.378182 307.584 
L 344.378182 41.472 
" clip-path="url(#pe7e5b9fea7)" style="fill: none; stroke: #b0b0b0; stroke-width: 0.8; stroke-linecap: square"/>
     </g>
     <g id="line2d_12">
      <g>
       <use xlink:href="#m73326e8215" x="344.378182" y="307.584" style="stroke: #000000; stroke-width: 0.8"/>
      </g>
     </g>
     <g id="text_6">
      <!-- 50 -->
      <g transform="translate(338.015682 322.182437) scale(0.1 -0.1)">
       <defs>
        <path id="DejaVuSans-35" d="M 691 4666 
L 3169 4666 
L 3169 4134 
L 1269 4134 
L 1269 2991 
Q 1406 3038 1543 3061 
Q 1681 3084 1819 3084 
Q 2600 3084 3056 2656 
Q 3513 2228 3513 1497 
Q 3513 744 3044 326 
Q 2575 -91 1722 -91 
Q 1428 -91 1123 -41 
Q 819 9 494 109 
L 494 744 
Q 775 591 1075 516 
Q 1375 441 1709 441 
Q 2250 441 2565 725 
Q 2881 1009 2881 1497 
Q 2881 1984 2565 2268 
Q 2250 2553 1709 2553 
Q 1456 2553 1204 2497 
Q 953 2441 691 2322 
L 691 4666 
z
" transform="scale(0.015625)"/>
       </defs>
       <use xlink:href="#DejaVuSans-35"/>
       <use xlink:href="#DejaVuSans-30" x="63.623047"/>
      </g>
     </g>
    </g>
    <g id="xtick_7">
     <g id="line2d_13">
      <path d="M 398.487273 307.584 
L 398.487273 41.472 
" clip-path="url(#pe7e5b9fea7)" style="fill: none; stroke: #b0b0b0; stroke-width: 0.8; stroke-linecap: square"/>
     </g>
     <g id="line2d_14">
      <g>
       <use xlink:href="#m73326e8215" x="398.487273" y="307.584" style="stroke: #000000; stroke-width: 0.8"/>
      </g>
     </g>
     <g id="text_7">
      <!-- 60 -->
      <g transform="translate(392.124773 322.182437) scale(0.1 -0.1)">
       <defs>
        <path id="DejaVuSans-36" d="M 2113 2584 
Q 1688 2584 1439 2293 
Q 1191 2003 1191 1497 
Q 1191 994 1439 701 
Q 1688 409 2113 409 
Q 2538 409 2786 701 
Q 3034 994 3034 1497 
Q 3034 2003 2786 2293 
Q 2538 2584 2113 2584 
z
M 3366 4563 
L 3366 3988 
Q 3128 4100 2886 4159 
Q 2644 4219 2406 4219 
Q 1781 4219 1451 3797 
Q 1122 3375 1075 2522 
Q 1259 2794 1537 2939 
Q 1816 3084 2150 3084 
Q 2853 3084 3261 2657 
Q 3669 2231 3669 1497 
Q 3669 778 3244 343 
Q 2819 -91 2113 -91 
Q 1303 -91 875 529 
Q 447 1150 447 2328 
Q 447 3434 972 4092 
Q 1497 4750 2381 4750 
Q 2619 4750 2861 4703 
Q 3103 4656 3366 4563 
z
" transform="scale(0.015625)"/>
       </defs>
       <use xlink:href="#DejaVuSans-36"/>
       <use xlink:href="#DejaVuSans-30" x="63.623047"/>
      </g>
     </g>
    </g>
    <g id="text_8">
     <!-- time (s) -->
     <g transform="translate(216.768594 335.860562) scale(0.1 -0.1)">
      <defs>
       <path id="DejaVuSans-74" d="M 1172 4494 
L 1172 3500 
L 2356 3500 
L 2356 3053 
L 1172 3053 
L 1172 1153 
Q 1172 725 1289 603 
Q 1406 481 1766 481 
L 2356 481 
L 2356 0 
L 1766 0 
Q 1100 0 847 248 
Q 594 497 594 1153 
L 594 3053 
L 172 3053 
L 172 3500 
L 594 3500 
L 594 4494 
L 1172 4494 
z
" transform="scale(0.015625)"/>
       <path id="DejaVuSans-69" d="M 603 3500 
L 1178 3500 
L 1178 0 
L 603 0 
L 603 3500 
z
M 603 4863 
L 1178 4863 
L 1178 4134 
L 603 4134 
L 603 4863 
z
" transform="scale(0.015625)"/>
       <path id="DejaVuSans-6d" d="M 3328 2828 
Q 3544 3216 3844 3400 
Q 4144 3584 4550 3584 
Q 5097 3584 5394 3201 
Q 5691 2819 5691 2113 
L 5691 0 
L 5113 0 
L 5113 2094 
Q 5113 2597 4934 2840 
Q 4756 3084 4391 3084 
Q 3944 3084 3684 2787 
Q 3425 2491 3425 1978 
L 3425 0 
L 2847 0 
L 2847 2094 
Q 2847 2600 2669 2842 
Q 2491 3084 2119 3084 
Q 1678 3084 1418 2786 
Q 1159 2488 1159 1978 
L 1159 0 
L 581 0 
L 581 3500 
L 1159 3500 
L 1159 2956 
Q 1356 3278 1631 3431 
Q 1906 3584 2284 3584 
Q 2666 3584 2933 3390 
Q 3200 3197 3328 2828 
z
" transform="scale(0.015625)"/>
       <path id="DejaVuSans-65" d="M 3597 1894 
L 3597 1613 
L 953 1613 
Q 991 1019 1311 708 
Q 1631 397 2203 397 
Q 2534 397 2845 478 
Q 3156 559 3463 722 
L 3463 178 
Q 3153 47 2828 -22 
Q 2503 -91 2169 -91 
Q 1331 -91 842 396 
Q 353 884 353 1716 
Q 353 2575 817 3079 
Q 1281 3584 2069 3584 
Q 2775 3584 3186 3129 
Q 3597 2675 3597 1894 
z
M 3022 2063 
Q 3016 2534 2758 2815 
Q 2500 3097 2075 3097 
Q 1594 3097 1305 2825 
Q 1016 2553 972 2059 
L 3022 2063 
z
" transform="scale(0.015625)"/>
       <path id="DejaVuSans-20" transform="scale(0.015625)"/>
       <path id="DejaVuSans-28" d="M 1984 4856 
Q 1566 4138 1362 3434 
Q 1159 2731 1159 2009 
Q 1159 1288 1364 580 
Q 1569 -128 1984 -844 
L 1484 -844 
Q 1016 -109 783 600 
Q 550 1309 550 2009 
Q 550 2706 781 3412 
Q 1013 4119 1484 4856 
L 1984 4856 
z
" transform="scale(0.015625)"/>
       <path id="DejaVuSans-73" d="M 2834 3397 
L 2834 2853 
Q 2591 2978 2328 3040 
Q 2066 3103 1784 3103 
Q 1356 3103 1142 2972 
Q 928 2841 928 2578 
Q 928 2378 1081 2264 
Q 1234 2150 1697 2047 
L 1894 2003 
Q 2506 1872 2764 1633 
Q 3022 1394 3022 966 
Q 3022 478 2636 193 
Q 2250 -91 1575 -91 
Q 1294 -91 989 -36 
Q 684 19 347 128 
L 347 722 
Q 666 556 975 473 
Q 1284 391 1588 391 
Q 1994 391 2212 530 
Q 2431 669 2431 922 
Q 2431 1156 2273 1281 
Q 2116 1406 1581 1522 
L 1381 1569 
Q 847 1681 609 1914 
Q 372 2147 372 2553 
Q 372 3047 722 3315 
Q 1072 3584 1716 3584 
Q 2034 3584 2315 3537 
Q 2597 3491 2834 3397 
z
" transform="scale(0.015625)"/>
       <path id="DejaVuSans-29" d="M 513 4856 
L 1013 4856 
Q 1481 4119 1714 3412 
Q 1947 2706 1947 2009 
Q 1947 1309 1714 600 
Q 1481 -109 1013 -844 
L 513 -844 
Q 928 -128 1133 580 
Q 1338 1288 1338 2009 
Q 1338 2731 1133 3434 
Q 928 4138 513 4856 
z
" transform="scale(0.015625)"/>
      </defs>
      <use xlink:href="#DejaVuSans-74"/>
      <use xlink:href="#DejaVuSans-69" x="39.208984"/>
      <use xlink:href="#DejaVuSans-6d" x="66.992188"/>
      <use xlink:href="#DejaVuSans-65" x="164.404297"/>
      <use xlink:href="#DejaVuSans-20" x="225.927734"/>
      <use xlink:href="#DejaVuSans-28" x="257.714844"/>
      <use xlink:href="#DejaVuSans-73" x="296.728516"/>
      <use xlink:href="#DejaVuSans-29" x="348.828125"/>
     </g>
    </g>
   </g>
   <g id="matplotlib.axis_2">
    <g id="ytick_1">
     <g id="line2d_15">
      <path d="M 57.6 277.736737 
L 414.72 277.736737 
" clip-path="url(#pe7e5b9fea7)" style="fill: none; stroke: #b0b0b0; stroke-width: 0.8; stroke-linecap: square"/>
     </g>
     <g id="line2d_16">
      <defs>
       <path id="mdcac21d27a" d="M 0 0 
L -3.5 0 
" style="stroke: #000000; stroke-width: 0.8"/>
      </defs>
      <g>
       <use xlink:href="#mdcac21d27a" x="57.6" y="277.736737" style="stroke: #000000; stroke-width: 0.8"/>
      </g>
     </g>
     <g id="text_9">
      <!-- −3 -->
      <g transform="translate(35.857813 281.535956) scale(0.1 -0.1)">
       <defs>
        <path id="DejaVuSans-2212" d="M 678 2272 
L 4684 2272 
L 4684 1741 
L 678 1741 
L 678 2272 
z
" transform="scale(0.015625)"/>
       </defs>
       <use xlink:href="#DejaVuSans-2212"/>
       <use xlink:href="#DejaVuSans-33" x="83.789062"/>
      </g>
     </g>
    </g>
    <g id="ytick_2">
     <g id="line2d_17">
      <path d="M 57.6 241.564641 
L 414.72 241.564641 
" clip-path="url(#pe7e5b9fea7)" style="fill: none; stroke: #b0b0b0; stroke-width: 0.8; stroke-linecap: square"/>
     </g>
     <g id="line2d_18">
      <g>
       <use xlink:href="#mdcac21d27a" x="57.6" y="241.564641" style="stroke: #000000; stroke-width: 0.8"/>
      </g>
     </g>
     <g id="text_10">
      <!-- −2 -->
      <g transform="translate(35.857813 245.36386) scale(0.1 -0.1)">
       <use xlink:href="#DejaVuSans-2212"/>
       <use xlink:href="#DejaVuSans-32" x="83.789062"/>
      </g>
     </g>
    </g>
    <g id="ytick_3">
     <g id="line2d_19">
      <path d="M 57.6 205.392546 
L 414.72 205.392546 
" clip-path="url(#pe7e5b9fea7)" style="fill: none; stroke: #b0b0b0; stroke-width: 0.8; stroke-linecap: square"/>
     </g>
     <g id="line2d_20">
      <g>
       <use xlink:href="#mdcac21d27a" x="57.6" y="205.392546" style="stroke: #000000; stroke-width: 0.8"/>
      </g>
     </g>
     <g id="text_11">
      <!-- −1 -->
      <g transform="translate(35.857813 209.191764) scale(0.1 -0.1)">
       <use xlink:href="#DejaVuSans-2212"/>
       <use xlink:href="#DejaVuSans-31" x="83.789062"/>
      </g>
     </g>
    </g>
    <g id="ytick_4">
     <g id="line2d_21">
      <path d="M 57.6 169.22045 
L 414.72 169.22045 
" clip-path="url(#pe7e5b9fea7)" style="fill: none; stroke: #b0b0b0; stroke-width: 0.8; stroke-linecap: square"/>
     </g>
     <g id="line2d_22">
      <g>
       <use xlink:href="#mdcac21d27a" x="57.6" y="169.22045" style="stroke: #000000; stroke-width: 0.8"/>
      </g>
     </g>
     <g id="text_12">
      <!-- 0 -->
      <g transform="translate(44.2375 173.019669) scale(0.1 -0.1)">
       <use xlink:href="#DejaVuSans-30"/>
      </g>
     </g>
    </g>
    <g id="ytick_5">
     <g id="line2d_23">
      <path d="M 57.6 133.048354 
L 414.72 133.048354 
" clip-path="url(#pe7e5b9fea7)" style="fill: none; stroke: #b0b0b0; stroke-width: 0.8; stroke-linecap: square"/>
     </g>
     <g id="line2d_24">
      <g>
       <use xlink:href="#mdcac21d27a" x="57.6" y="133.048354" style="stroke: #000000; stroke-width: 0.8"/>
      </g>
     </g>
     <g id="text_13">
      <!-- 1 -->
      <g transform="translate(44.2375 136.847573) scale(0.1 -0.1)">
       <use xlink:href="#DejaVuSans-31"/>
      </g>
     </g>
    </g>
    <g id="ytick_6">
     <g id="line2d_25">
      <path d="M 57.6 96.876258 
L 414.72 96.876258 
" clip-path="url(#pe7e5b9fea7)" style="fill: none; stroke: #b0b0b0; stroke-width: 0.8; stroke-linecap: square"/>
     </g>
     <g id="line2d_26">
      <g>
       <use xlink:href="#mdcac21d27a" x="57.6" y="96.876258" style="stroke: #000000; stroke-width: 0.8"/>
      </g>
     </g>
     <g id="text_14">
      <!-- 2 -->
      <g transform="translate(44.2375 100.675477) scale(0.1 -0.1)">
       <use xlink:href="#DejaVuSans-32"/>
      </g>
     </g>
    </g>
    <g id="ytick_7">
     <g id="line2d_27">
      <path d="M 57.6 60.704163 
L 414.72 60.704163 
" clip-path="url(#pe7e5b9fea7)" style="fill: none; stroke: #b0b0b0; stroke-width: 0.8; stroke-linecap: square"/>
     </g>
     <g id="line2d_28">
      <g>
       <use xlink:href="#mdcac21d27a" x="57.6" y="60.704163" style="stroke: #000000; stroke-width: 0.8"/>
      </g>
     </g>
     <g id="text_15">
      <!-- 3 -->
      <g transform="translate(44.2375 64.503381) scale(0.1 -0.1)">
       <use xlink:href="#DejaVuSans-33"/>
      </g>
     </g>
    </g>
    <g id="text_16">
     <!-- theta -->
     <g transform="translate(29.778125 187.757688) rotate(-90) scale(0.1 -0.1)">
      <defs>
       <path id="DejaVuSans-68" d="M 3513 2113 
L 3513 0 
L 2938 0 
L 2938 2094 
Q 2938 2591 2744 2837 
Q 2550 3084 2163 3084 
Q 1697 3084 1428 2787 
Q 1159 2491 1159 1978 
L 1159 0 
L 581 0 
L 581 4863 
L 1159 4863 
L 1159 2956 
Q 1366 3272 1645 3428 
Q 1925 3584 2291 3584 
Q 2894 3584 3203 3211 
Q 3513 2838 3513 2113 
z
" transform="scale(0.015625)"/>
       <path id="DejaVuSans-61" d="M 2194 1759 
Q 1497 1759 1228 1600 
Q 959 1441 959 1056 
Q 959 750 1161 570 
Q 1363 391 1709 391 
Q 2188 391 2477 730 
Q 2766 1069 2766 1631 
L 2766 1759 
L 2194 1759 
z
M 3341 1997 
L 3341 0 
L 2766 0 
L 2766 531 
Q 2569 213 2275 61 
Q 1981 -91 1556 -91 
Q 1019 -91 701 211 
Q 384 513 384 1019 
Q 384 1609 779 1909 
Q 1175 2209 1959 2209 
L 2766 2209 
L 2766 2266 
Q 2766 2663 2505 2880 
Q 2244 3097 1772 3097 
Q 1472 3097 1187 3025 
Q 903 2953 641 2809 
L 641 3341 
Q 956 3463 1253 3523 
Q 1550 3584 1831 3584 
Q 2591 3584 2966 3190 
Q 3341 2797 3341 1997 
z
" transform="scale(0.015625)"/>
      </defs>
      <use xlink:href="#DejaVuSans-74"/>
      <use xlink:href="#DejaVuSans-68" x="39.208984"/>
      <use xlink:href="#DejaVuSans-65" x="102.587891"/>
      <use xlink:href="#DejaVuSans-74" x="164.111328"/>
      <use xlink:href="#DejaVuSans-61" x="203.320312"/>
     </g>
    </g>
   </g>
   <g id="line2d_29">
    <path d="M 73.832727 169.22045 
L 73.886836 169.117383 
L 74.000465 168.170941 
L 74.200669 164.218271 
L 74.509091 152.963698 
L 74.952785 127.607582 
L 76.105309 57.260237 
L 76.365033 53.640834 
L 76.413731 53.568503 
L 76.462429 53.680977 
L 76.570647 54.606239 
L 76.76544 58.542705 
L 77.068451 70.119405 
L 77.501324 96.661447 
L 78.188509 154.99561 
L 79.438429 261.212338 
L 79.947055 286.543998 
L 80.287942 294.452674 
L 80.466502 295.488 
L 80.482735 295.474189 
L 80.569309 295.110491 
L 80.737047 293.000478 
L 80.980538 286.77013 
L 81.343069 271.156917 
L 81.88416 236.909995 
L 83.664349 115.833077 
L 84.080989 103.421048 
L 84.351535 100.5606 
L 84.400233 100.480363 
L 84.459753 100.57099 
L 84.584204 101.393217 
L 84.784407 104.455715 
L 85.082007 112.698181 
L 85.547345 132.843083 
L 86.418502 182.279085 
L 87.203084 220.553797 
L 87.641367 232.68089 
L 87.933556 235.989487 
L 88.036364 236.207346 
L 88.079651 236.153565 
L 88.209513 235.461484 
L 88.393484 233.188202 
L 88.696495 226.362765 
L 89.156422 209.982763 
L 90.005935 170.382472 
L 90.741818 140.741505 
L 91.174691 130.563401 
L 91.46688 127.629751 
L 91.580509 127.382198 
L 91.623796 127.421432 
L 91.726604 127.789765 
L 91.94304 129.84146 
L 92.218996 134.756347 
L 92.646458 146.491326 
L 93.544669 178.399762 
L 94.226444 197.941928 
L 94.637673 204.068856 
L 94.881164 205.25309 
L 94.935273 205.264567 
L 94.97856 205.207932 
L 95.103011 204.717974 
L 95.286982 203.148236 
L 95.63328 197.678621 
L 96.098618 186.41443 
L 97.532509 148.959851 
L 97.911273 144.490609 
L 98.165585 143.508194 
L 98.25216 143.557193 
L 98.262982 143.578402 
L 98.441542 144.30913 
L 98.657978 146.190852 
L 99.058385 152.157683 
L 99.805091 168.16366 
L 100.546385 182.727638 
L 100.952204 187.31996 
L 101.233571 188.578655 
L 101.336378 188.648852 
L 101.385076 188.587283 
L 101.509527 188.259654 
L 101.725964 186.958824 
L 102.12096 182.516039 
L 102.824378 170.693268 
L 103.738822 156.703308 
L 104.128407 153.817039 
L 104.38272 153.254323 
L 104.572102 153.538654 
L 104.810182 154.672523 
L 105.167302 157.802191 
L 105.670516 164.136063 
L 106.736465 177.154666 
L 107.115229 179.250994 
L 107.342487 179.667367 
L 107.542691 179.397 
L 107.721251 178.793003 
L 108.067549 176.597007 
L 108.586996 171.548722 
L 109.56096 161.910119 
L 109.950545 159.795036 
L 110.188625 159.268479 
L 110.340131 159.235661 
L 110.345542 159.242425 
L 110.469993 159.404542 
L 110.670196 159.996185 
L 110.946153 161.366688 
L 111.270807 163.645402 
L 112.802095 174.249295 
L 113.056407 174.71407 
L 113.299898 174.673745 
L 113.435171 174.456851 
L 113.813935 173.147526 
L 114.414545 169.443227 
L 115.307345 164.13857 
L 115.707753 162.966669 
L 116.010764 162.759946 
L 116.091927 162.837151 
L 116.265076 163.077957 
L 116.854865 165.191427 
L 118.499782 172.180129 
L 118.835258 172.32035 
L 119.192378 171.79377 
L 119.744291 169.850104 
L 120.431476 166.987569 
L 121.210647 165.084686 
L 121.638109 165.105784 
L 122.108858 165.937162 
L 122.812276 168.180079 
L 123.261382 169.604344 
L 123.84576 170.539331 
L 124.018909 170.659118 
L 124.235345 170.792492 
L 124.397673 170.775052 
L 124.538356 170.681191 
L 124.689862 170.502676 
L 124.873833 170.186747 
L 125.106502 169.655445 
L 125.842385 167.718315 
L 126.6432 166.456779 
L 126.919156 166.492052 
L 127.113949 166.542846 
L 127.189702 166.638861 
L 127.660451 167.326442 
L 127.784902 167.582827 
L 129.186327 170.049149 
L 129.749062 170.201963 
L 130.441658 169.319202 
L 130.993571 168.245182 
L 131.220829 167.950142 
L 131.475142 167.616236 
L 131.740276 167.354552 
L 131.962124 167.341114 
L 132.205615 167.352858 
L 132.405818 167.375953 
L 132.649309 167.689466 
L 133.033484 168.171162 
L 133.298618 168.462011 
L 134.26176 169.787443 
L 134.997644 169.785537 
L 136.393658 168.211051 
L 136.593862 168.108292 
L 136.869818 167.967692 
L 137.080844 167.881123 
L 137.243171 167.874946 
L 137.584058 168.162505 
L 137.784262 168.322807 
L 138.092684 168.560328 
L 138.303709 168.698883 
L 138.574255 168.851015 
L 139.591505 169.7801 
L 140.522182 169.528873 
L 141.057862 168.936459 
L 141.279709 168.657125 
L 141.653062 168.189692 
L 141.907375 167.916917 
L 142.05888 167.877808 
L 142.345658 167.984688 
L 142.524218 168.06591 
L 142.83264 168.244598 
L 143.0112 168.356161 
L 143.319622 168.570174 
L 143.509004 168.698478 
L 144.726458 170.091599 
L 144.731869 170.084518 
L 144.899607 169.950288 
L 145.446109 169.323391 
L 146.090007 168.998897 
L 146.279389 168.927292 
L 146.555345 168.80328 
L 146.744727 168.721327 
L 147.009862 168.604617 
L 147.210065 168.532321 
L 147.453556 168.455451 
L 147.664582 168.415247 
L 147.875607 168.390494 
L 148.108276 168.397313 
L 148.221905 168.457791 
L 148.454575 168.759585 
L 148.817105 169.208439 
L 149.060596 169.461032 
L 149.341964 169.692535 
L 149.585455 169.829384 
L 149.828945 169.891646 
L 150.018327 169.897664 
L 150.337571 169.807426 
L 150.424145 169.713993 
L 150.737978 169.268057 
L 150.916538 169.159011 
L 151.22496 168.945279 
L 151.414342 168.81779 
L 151.70112 168.629021 
L 151.901324 168.520053 
L 152.144815 168.408097 
L 152.35584 168.347275 
L 152.566865 168.311468 
L 152.810356 168.318628 
L 152.994327 168.351068 
L 153.172887 168.402509 
L 153.470487 168.542573 
L 153.557062 168.643517 
L 153.984524 169.381161 
L 154.595956 169.836392 
L 154.861091 169.771654 
L 155.039651 169.707439 
L 155.337251 169.553099 
L 155.515811 169.448138 
L 155.824233 169.240303 
L 156.002793 169.122174 
L 156.289571 168.932147 
L 156.478953 168.824689 
L 156.733265 168.69703 
L 157.182371 168.891856 
L 157.501615 169.175736 
L 157.701818 169.332123 
L 157.977775 169.5218 
L 158.1888 169.627393 
L 158.421469 169.711422 
L 158.784 169.469776 
L 159.146531 169.059505 
L 159.509062 169.009186 
L 159.741731 169.048823 
L 159.941935 169.074023 
L 160.163782 169.10508 
L 160.374807 169.123716 
L 160.596655 169.144919 
L 160.80768 169.153409 
L 161.018705 169.163427 
L 161.229731 169.16189 
L 161.440756 169.162481 
L 161.662604 169.152077 
L 161.873629 169.145449 
L 162.095476 169.129269 
L 162.306502 169.119094 
L 162.528349 169.101344 
L 162.739375 169.091751 
L 162.9504 169.077203 
L 163.161425 169.071812 
L 163.372451 169.062909 
L 163.583476 169.064294 
L 163.794502 169.062918 
L 164.016349 169.072598 
L 164.216553 169.078635 
L 164.4384 169.096038 
L 164.638604 169.108239 
L 164.860451 169.131239 
L 165.060655 169.147126 
L 165.282502 169.1725 
L 165.482705 169.188877 
L 165.704553 169.212952 
L 165.904756 169.226548 
L 166.126604 169.245926 
L 166.337629 169.254554 
L 166.548655 169.266233 
L 166.75968 169.267324 
L 166.970705 169.271143 
L 167.181731 169.264422 
L 167.392756 169.260856 
L 167.614604 169.24693 
L 167.814807 169.238404 
L 168.036655 169.220076 
L 168.236858 169.209011 
L 168.458705 169.18956 
L 168.658909 169.179037 
L 168.869935 169.162472 
L 169.08096 169.154742 
L 169.291985 169.142996 
L 169.503011 169.141085 
L 169.714036 169.135846 
L 169.925062 169.140806 
L 170.136087 169.142449 
L 170.347113 169.153962 
L 170.547316 169.160886 
L 170.769164 169.177982 
L 170.969367 169.188531 
L 171.191215 169.208232 
L 171.391418 169.219751 
L 171.613265 169.238964 
L 171.813469 169.248663 
L 172.024495 169.263908 
L 172.23552 169.269953 
L 172.446545 169.279858 
L 172.657571 169.279889 
L 172.868596 169.283411 
L 173.079622 169.277002 
L 173.290647 169.274349 
L 173.501673 169.262322 
L 173.701876 169.255478 
L 173.923724 169.239113 
L 174.123927 169.229848 
L 174.334953 169.212884 
L 174.535156 169.203717 
L 174.746182 169.188128 
L 174.957207 169.180906 
L 175.168233 169.169065 
L 175.379258 169.166505 
L 175.590284 169.15999 
L 175.801309 169.163156 
L 176.012335 169.162472 
L 176.22336 169.171288 
L 176.423564 169.175336 
L 176.634589 169.188539 
L 176.834793 169.195921 
L 177.045818 169.211616 
L 177.246022 169.220289 
L 177.457047 169.236165 
L 177.657251 169.243893 
L 177.868276 169.257663 
L 178.079302 169.262827 
L 178.290327 169.272523 
L 178.501353 169.272937 
L 178.712378 169.277455 
L 178.923404 169.27252 
L 179.134429 169.271787 
L 179.345455 169.261953 
L 179.545658 169.257389 
L 179.756684 169.244111 
L 179.956887 169.237141 
L 180.167913 169.22234 
L 180.368116 169.214944 
L 180.579142 169.200772 
L 180.790167 169.194496 
L 181.001193 169.183023 
L 181.212218 169.180295 
L 181.423244 169.173028 
L 181.634269 169.174948 
L 181.845295 169.172534 
L 182.05632 169.179272 
L 182.261935 169.184623 
L 182.462138 169.188159 
L 182.673164 169.200324 
L 182.873367 169.20624 
L 183.084393 169.220008 
L 183.284596 169.226523 
L 183.495622 169.239938 
L 183.706647 169.245644 
L 183.917673 169.256783 
L 184.128698 169.259407 
L 184.339724 169.266824 
L 184.550749 169.265276 
L 184.761775 169.268286 
L 184.9728 169.262315 
L 185.183825 169.261109 
L 185.394851 169.251332 
L 185.595055 169.247346 
L 185.80608 169.235146 
L 186.006284 169.229635 
L 186.217309 169.216703 
L 186.417513 169.211353 
L 186.628538 169.199472 
L 186.839564 169.195559 
L 187.050589 169.186356 
L 187.261615 169.185738 
L 187.47264 169.180272 
L 187.683665 169.183644 
L 187.894691 169.182217 
L 188.105716 169.189478 
L 188.30592 169.191278 
L 188.516945 169.201511 
L 188.717149 169.20554 
L 188.928175 169.217401 
L 189.128378 169.222223 
L 189.339404 169.234099 
L 189.539607 169.238166 
L 189.750633 169.248486 
L 189.961658 169.250681 
L 190.172684 169.258114 
L 190.383709 169.256979 
L 190.594735 169.260814 
L 190.80576 169.255993 
L 191.016785 169.256238 
L 191.227811 169.248102 
L 191.428015 169.245805 
L 191.63904 169.235404 
L 191.839244 169.231571 
L 192.050269 169.220259 
L 192.250473 169.21627 
L 192.461498 169.205537 
L 192.672524 169.202461 
L 192.883549 169.193714 
L 193.094575 169.193186 
L 193.3056 169.187413 
L 193.516625 169.190133 
L 193.727651 169.187715 
L 193.938676 169.19373 
L 194.149702 169.194382 
L 194.360727 169.203093 
L 194.560931 169.205597 
L 194.771956 169.215871 
L 194.97216 169.219248 
L 195.183185 169.229768 
L 195.394211 169.233062 
L 195.605236 169.242453 
L 195.816262 169.244 
L 196.027287 169.251121 
L 196.238313 169.249995 
L 196.449338 169.25418 
L 196.660364 169.250003 
L 196.871389 169.251177 
L 197.082415 169.244176 
L 197.282618 169.243122 
L 197.493644 169.234112 
L 197.693847 169.231639 
L 197.904873 169.221711 
L 198.105076 169.218949 
L 198.316102 169.209334 
L 198.527127 169.207172 
L 198.738153 169.199066 
L 198.949178 169.198904 
L 199.160204 169.193182 
L 199.371229 169.195666 
L 199.582255 169.192714 
L 199.79328 169.197953 
L 200.004305 169.197604 
L 200.215331 169.205167 
L 200.415535 169.206476 
L 200.62656 169.215463 
L 200.826764 169.21763 
L 201.037789 169.226967 
L 201.248815 169.229208 
L 201.45984 169.237748 
L 201.670865 169.238663 
L 201.881891 169.245422 
L 202.092916 169.244195 
L 202.303942 169.248566 
L 202.514967 169.244824 
L 202.725993 169.246681 
L 202.937018 169.240553 
L 203.148044 169.240268 
L 203.359069 169.232345 
L 203.559273 169.23097 
L 203.770298 169.22219 
L 203.970502 169.22048 
L 204.181527 169.211862 
L 204.392553 169.210554 
L 204.603578 169.203101 
L 204.814604 169.20338 
L 205.025629 169.197849 
L 205.236655 169.200286 
L 205.44768 169.197037 
L 205.658705 169.201766 
L 205.869731 169.200704 
L 206.080756 169.207406 
L 206.291782 169.208006 
L 206.502807 169.215984 
L 206.703011 169.21716 
L 206.914036 169.225488 
L 207.125062 169.226787 
L 207.336087 169.234514 
L 207.547113 169.234767 
L 207.758138 169.241063 
L 207.969164 169.239577 
L 208.180189 169.243917 
L 208.391215 169.240356 
L 208.60224 169.24261 
L 208.813265 169.237056 
L 209.024291 169.237509 
L 209.235316 169.230431 
L 209.446342 169.229712 
L 209.657367 169.221867 
L 209.868393 169.220818 
L 210.079418 169.213092 
L 210.290444 169.212599 
L 210.501469 169.205831 
L 210.712495 169.206646 
L 210.92352 169.201465 
L 211.134545 169.204064 
L 211.345571 169.20077 
L 211.556596 169.205265 
L 211.767622 169.203781 
L 211.978647 169.209911 
L 212.189673 169.209806 
L 212.400698 169.216994 
L 212.611724 169.217578 
L 212.822749 169.225057 
L 213.033775 169.225523 
L 213.2448 169.232489 
L 213.455825 169.232075 
L 213.666851 169.237845 
L 213.877876 169.235983 
L 214.088902 169.240128 
L 214.299927 169.236548 
L 214.510953 169.23897 
L 214.721978 169.233748 
L 214.933004 169.234689 
L 215.144029 169.228219 
L 215.355055 169.228206 
L 215.56608 169.221119 
L 215.777105 169.220852 
L 215.988131 169.213881 
L 216.199156 169.214091 
L 216.410182 169.207927 
L 216.621207 169.209232 
L 216.832233 169.204391 
L 217.043258 169.207176 
L 217.254284 169.203898 
L 217.465309 169.20825 
L 217.676335 169.206462 
L 217.88736 169.212156 
L 218.098385 169.211495 
L 218.309411 169.218049 
L 218.520436 169.21794 
L 218.731462 169.224716 
L 218.942487 169.224492 
L 219.153513 169.230825 
L 219.364538 169.229858 
L 219.575564 169.23519 
L 219.786589 169.233016 
L 219.997615 169.236998 
L 220.20864 169.233401 
L 220.419665 169.235961 
L 220.630691 169.231012 
L 220.841716 169.232358 
L 221.052742 169.226391 
L 221.263767 169.226963 
L 221.474793 169.220503 
L 221.685818 169.220883 
L 221.896844 169.214538 
L 222.107869 169.21533 
L 222.318895 169.209667 
L 222.52992 169.211377 
L 222.740945 169.206817 
L 222.951971 169.209756 
L 223.162996 169.20649 
L 223.374022 169.210723 
L 223.585047 169.208683 
L 223.796073 169.214014 
L 224.007098 169.212893 
L 224.218124 169.21892 
L 224.429149 169.218238 
L 224.640175 169.224431 
L 224.8512 169.223636 
L 225.062225 169.229447 
L 225.273251 169.228023 
L 225.484276 169.232993 
L 225.695302 169.230562 
L 225.906327 169.234411 
L 226.117353 169.230803 
L 226.328378 169.233479 
L 226.539404 169.228759 
L 226.750429 169.23044 
L 226.961455 169.224892 
L 227.17248 169.225949 
L 227.383505 169.220009 
L 227.594531 169.220925 
L 227.805556 169.215096 
L 228.016582 169.216368 
L 228.227607 169.211119 
L 228.438633 169.213161 
L 228.649658 169.208832 
L 228.860684 169.211896 
L 229.071709 169.208637 
L 229.282735 169.212767 
L 229.49376 169.210516 
L 229.704785 169.215545 
L 229.915811 169.214041 
L 230.126836 169.21963 
L 230.337862 169.218474 
L 230.548887 169.224184 
L 230.759913 169.222918 
L 230.970938 169.228297 
L 231.181964 169.226497 
L 231.392989 169.231171 
L 231.604015 169.228531 
L 231.81504 169.232273 
L 232.026065 169.228659 
L 232.237091 169.231434 
L 232.448116 169.226907 
L 232.659142 169.22887 
L 232.870167 169.223669 
L 233.081193 169.225129 
L 233.292218 169.21962 
L 233.503244 169.220979 
L 233.714269 169.215578 
L 233.925295 169.217245 
L 234.13632 169.212335 
L 234.347345 169.214649 
L 234.558371 169.210507 
L 234.769396 169.21367 
L 234.980422 169.210413 
L 235.191447 169.214454 
L 235.402473 169.212024 
L 235.613498 169.2168 
L 235.824524 169.214977 
L 236.035549 169.220203 
L 236.246575 169.218653 
L 236.4576 169.223964 
L 236.668625 169.222309 
L 236.879651 169.227333 
L 237.090676 169.225225 
L 237.301702 169.229657 
L 237.512727 169.226848 
L 237.723753 169.230506 
L 237.934778 169.226891 
L 238.145804 169.229753 
L 238.356829 169.225389 
L 238.567855 169.227587 
L 238.77888 169.222677 
L 238.989905 169.224472 
L 239.200931 169.219321 
L 239.411956 169.221045 
L 239.622982 169.215996 
L 239.834007 169.217989 
L 240.045033 169.213356 
L 240.256058 169.215891 
L 240.467084 169.2119 
L 240.678109 169.21514 
L 240.889135 169.211881 
L 241.10016 169.215845 
L 241.311185 169.213263 
L 241.522211 169.217826 
L 241.733236 169.215737 
L 241.944262 169.22066 
L 242.155287 169.218784 
L 242.366313 169.223765 
L 242.577338 169.22179 
L 242.788364 169.226522 
L 242.999389 169.224163 
L 243.210415 169.228398 
L 243.42144 169.225453 
L 243.632465 169.229046 
L 243.843491 169.225435 
L 244.054516 169.228371 
L 244.265542 169.224147 
L 244.476567 169.226542 
L 244.687593 169.221875 
L 244.898618 169.223949 
L 245.109644 169.219094 
L 245.320669 169.221121 
L 245.531695 169.216362 
L 245.74272 169.21862 
L 245.953745 169.214215 
L 246.164771 169.216929 
L 246.375796 169.213059 
L 246.586822 169.216359 
L 246.797847 169.213093 
L 247.008873 169.216989 
L 247.219898 169.214279 
L 247.430924 169.218663 
L 247.641949 169.216351 
L 247.852975 169.221023 
L 248.064 169.218876 
L 248.275025 169.223585 
L 248.486051 169.221346 
L 248.697076 169.225839 
L 248.908102 169.223274 
L 249.119127 169.22735 
L 249.330153 169.224297 
L 249.541178 169.227839 
L 249.752204 169.224236 
L 249.963229 169.227238 
L 250.174255 169.223132 
L 250.38528 169.225693 
L 250.596305 169.22123 
L 250.807331 169.223534 
L 251.018356 169.218925 
L 251.229382 169.221201 
L 251.440407 169.216681 
L 251.651433 169.219158 
L 251.862458 169.214937 
L 252.073484 169.217797 
L 252.284509 169.214022 
L 252.495535 169.217368 
L 252.70656 169.214094 
L 252.917585 169.217929 
L 253.128611 169.21511 
L 253.339636 169.219343 
L 253.550662 169.216845 
L 253.761687 169.221308 
L 253.972713 169.218937 
L 254.183738 169.223421 
L 254.394764 169.220965 
L 254.605789 169.225263 
L 254.816815 169.222531 
L 255.02784 169.226477 
L 255.238865 169.223338 
L 255.449891 169.226843 
L 255.660916 169.223248 
L 255.871942 169.226309 
L 256.082967 169.222303 
L 256.293993 169.225005 
L 256.505018 169.220711 
L 256.716044 169.223208 
L 256.927069 169.218802 
L 257.138095 169.221284 
L 257.34912 169.21696 
L 257.560145 169.219616 
L 257.771171 169.215545 
L 257.982196 169.218522 
L 258.193222 169.214824 
L 258.404247 169.218204 
L 258.615273 169.214919 
L 258.826298 169.218702 
L 259.037324 169.215789 
L 259.248349 169.219895 
L 259.459375 169.217241 
L 259.6704 169.22153 
L 259.881425 169.218974 
L 260.092451 169.223272 
L 260.303476 169.220638 
L 260.514502 169.224776 
L 260.725527 169.221908 
L 260.936553 169.225751 
L 261.147578 169.222543 
L 261.358604 169.22602 
L 261.569629 169.222437 
L 261.780655 169.225548 
L 261.99168 169.221628 
L 262.202705 169.224448 
L 262.413731 169.220296 
L 262.624756 169.222953 
L 262.835782 169.218715 
L 263.046807 169.221367 
L 263.257833 169.217204 
L 263.468858 169.220005 
L 263.679884 169.216058 
L 263.890909 169.219129 
L 264.101935 169.215491 
L 264.31296 169.218896 
L 264.523985 169.215599 
L 264.735011 169.219336 
L 264.946036 169.216343 
L 265.157062 169.220342 
L 265.368087 169.217558 
L 265.579113 169.221702 
L 265.790138 169.218993 
L 266.001164 169.223138 
L 266.212189 169.220358 
L 266.423215 169.224365 
L 266.63424 169.221386 
L 266.845265 169.225146 
L 267.056291 169.221885 
L 267.267316 169.22534 
L 267.478342 169.221769 
L 267.689367 169.224925 
L 267.900393 169.221078 
L 268.111418 169.223997 
L 268.322444 169.219964 
L 268.533469 169.222754 
L 268.744495 169.218656 
L 268.95552 169.221448 
L 269.166545 169.217417 
L 269.377571 169.220337 
L 269.588596 169.216489 
L 269.799622 169.219635 
L 270.010647 169.216045 
L 270.221673 169.219469 
L 270.432698 169.21616 
L 270.643724 169.219855 
L 270.854749 169.216795 
L 271.065775 169.220704 
L 271.2768 169.217811 
L 271.487825 169.221835 
L 271.698851 169.218998 
L 271.909876 169.223017 
L 272.120902 169.220117 
L 272.331927 169.224017 
L 272.542953 169.22095 
L 272.753978 169.224642 
L 272.965004 169.221339 
L 273.176029 169.22478 
L 273.387055 169.221221 
L 273.59808 169.224415 
L 273.809105 169.220631 
L 274.020131 169.223634 
L 274.231156 169.2197 
L 274.442182 169.2226 
L 274.653207 169.218618 
L 274.864233 169.221525 
L 275.075258 169.217602 
L 275.286284 169.22062 
L 275.497309 169.216852 
L 275.708335 169.220059 
L 275.91936 169.216505 
L 276.130385 169.219942 
L 276.341411 169.216621 
L 276.552436 169.220281 
L 276.763462 169.217163 
L 276.974487 169.220996 
L 277.185513 169.218013 
L 277.396538 169.221936 
L 277.607564 169.218994 
L 277.818589 169.222909 
L 278.029615 169.219911 
L 278.24064 169.223724 
L 278.451665 169.220584 
L 278.662691 169.224223 
L 278.873716 169.220887 
L 279.084742 169.224317 
L 279.295767 169.22077 
L 279.506793 169.223999 
L 279.717818 169.220268 
L 279.928844 169.223341 
L 280.139869 169.219489 
L 280.350895 169.222482 
L 280.56192 169.218595 
L 280.772945 169.221597 
L 280.983971 169.217763 
L 281.194996 169.22086 
L 281.406022 169.217157 
L 281.617047 169.220412 
L 281.828073 169.216888 
L 282.039098 169.220333 
L 282.250124 169.217001 
L 282.461149 169.220629 
L 282.672175 169.217462 
L 282.8832 169.221231 
L 283.094225 169.218172 
L 283.305251 169.222012 
L 283.516276 169.218984 
L 283.727302 169.222813 
L 283.938327 169.219734 
L 284.149353 169.223476 
L 284.360378 169.220278 
L 284.571404 169.223874 
L 284.782429 169.220513 
L 284.993455 169.223936 
L 285.20448 169.220401 
L 285.415505 169.223658 
L 285.626531 169.219973 
L 285.837556 169.223105 
L 286.048582 169.219323 
L 286.259607 169.222392 
L 286.470633 169.218583 
L 286.681658 169.221663 
L 286.892684 169.217903 
L 287.103709 169.221064 
L 287.314735 169.217413 
L 287.52576 169.220707 
L 287.736785 169.217205 
L 287.947811 169.220657 
L 288.158836 169.217313 
L 288.369862 169.220914 
L 288.580887 169.217705 
L 288.791913 169.22142 
L 289.002938 169.218298 
L 289.213964 169.222069 
L 289.424989 169.218969 
L 289.636015 169.222728 
L 289.84704 169.219583 
L 290.058065 169.223267 
L 290.269091 169.220022 
L 290.480116 169.223584 
L 290.691142 169.220203 
L 290.902167 169.223622 
L 291.113193 169.220097 
L 291.324218 169.223381 
L 291.535244 169.219734 
L 291.746269 169.222915 
L 291.957295 169.219191 
L 292.16832 169.222323 
L 292.379345 169.21858 
L 292.590371 169.221724 
L 292.801396 169.218023 
L 293.012422 169.221237 
L 293.223447 169.217628 
L 293.434473 169.220953 
L 293.645498 169.217469 
L 293.856524 169.220924 
L 294.067549 169.217569 
L 294.278575 169.221147 
L 294.4896 169.217903 
L 294.700625 169.221573 
L 294.911651 169.218398 
L 295.122676 169.222111 
L 295.333702 169.218952 
L 295.544727 169.222653 
L 295.755753 169.219454 
L 295.966778 169.223091 
L 296.177804 169.219807 
L 296.388829 169.223343 
L 296.599855 169.219946 
L 296.81088 169.223363 
L 297.021905 169.219848 
L 297.232931 169.223154 
L 297.443956 169.21954 
L 297.654982 169.222763 
L 297.866007 169.219087 
L 298.077033 169.222272 
L 298.288058 169.218583 
L 298.499084 169.22178 
L 298.710109 169.218127 
L 298.921135 169.221383 
L 299.13216 169.217809 
L 299.343185 169.221158 
L 299.554211 169.217687 
L 299.765236 169.221144 
L 299.976262 169.21778 
L 300.187287 169.221337 
L 300.398313 169.218063 
L 300.609338 169.221695 
L 300.820364 169.218476 
L 301.031389 169.222141 
L 301.242415 169.218933 
L 301.45344 169.222587 
L 301.664465 169.219344 
L 301.875491 169.222943 
L 302.086516 169.219628 
L 302.297542 169.223142 
L 302.508567 169.219734 
L 302.719593 169.22315 
L 302.930618 169.219645 
L 303.141644 169.222969 
L 303.352669 169.219383 
L 303.563695 169.222641 
L 303.77472 169.219005 
L 303.985745 169.222233 
L 304.196771 169.218589 
L 304.407796 169.221829 
L 304.618822 169.218217 
L 304.829847 169.221507 
L 305.040873 169.217961 
L 305.251898 169.221329 
L 305.462924 169.217868 
L 305.673949 169.221326 
L 305.884975 169.217953 
L 306.096 169.221493 
L 306.307025 169.218193 
L 306.518051 169.221793 
L 306.729076 169.218537 
L 306.940102 169.222163 
L 307.151127 169.218914 
L 307.362153 169.222529 
L 307.573178 169.21925 
L 307.784204 169.222818 
L 307.995229 169.219479 
L 308.206255 169.222976 
L 308.41728 169.219558 
L 308.628305 169.222974 
L 308.839331 169.219477 
L 309.050356 169.222819 
L 309.261382 169.219256 
L 309.472407 169.222543 
L 309.683433 169.218941 
L 309.894458 169.222205 
L 310.105484 169.218598 
L 310.316509 169.221873 
L 310.527535 169.218294 
L 310.73856 169.221612 
L 310.949585 169.218088 
L 311.160611 169.221472 
L 311.371636 169.218018 
L 311.582662 169.221475 
L 311.793687 169.218094 
L 312.004713 169.221619 
L 312.215738 169.218298 
L 312.426764 169.221871 
L 312.637789 169.218584 
L 312.848815 169.222178 
L 313.05984 169.218896 
L 313.270865 169.222478 
L 313.481891 169.21917 
L 313.692916 169.222713 
L 313.903942 169.219354 
L 314.114967 169.222837 
L 314.325993 169.219413 
L 314.537018 169.22283 
L 314.748044 169.219341 
L 314.959069 169.222696 
L 315.170095 169.219153 
L 315.38112 169.222465 
L 315.592145 169.218891 
L 315.803171 169.222185 
L 316.014196 169.218608 
L 316.225222 169.221913 
L 316.436247 169.218359 
L 316.647273 169.221701 
L 316.858298 169.218194 
L 317.069324 169.22159 
L 317.280349 169.218142 
L 317.491375 169.221599 
L 317.7024 169.218211 
L 317.913425 169.221723 
L 318.124451 169.218383 
L 318.335476 169.221934 
L 318.546502 169.218622 
L 318.757527 169.222188 
L 318.968553 169.218878 
L 319.179578 169.222434 
L 319.390604 169.219102 
L 319.601629 169.222624 
L 319.812655 169.219249 
L 320.02368 169.222722 
L 320.234705 169.219294 
L 320.445731 169.222711 
L 320.656756 169.219229 
L 320.867782 169.222596 
L 321.078807 169.21907 
L 321.289833 169.222403 
L 321.500858 169.218852 
L 321.711884 169.222171 
L 321.922909 169.218618 
L 322.133935 169.221947 
L 322.34496 169.218416 
L 322.555985 169.221776 
L 322.767011 169.218283 
L 322.978036 169.221689 
L 323.189062 169.218245 
L 323.400087 169.221701 
L 323.611113 169.218306 
L 323.822138 169.221807 
L 324.033164 169.218451 
L 324.244189 169.221983 
L 324.455215 169.21865 
L 324.66624 169.222194 
L 324.877265 169.218862 
L 325.088291 169.222396 
L 325.299316 169.219044 
L 325.510342 169.22255 
L 325.721367 169.219162 
L 325.932393 169.222627 
L 326.143418 169.219195 
L 326.354444 169.222614 
L 326.565469 169.219137 
L 326.776495 169.222515 
L 326.98752 169.219003 
L 327.198545 169.222353 
L 327.409571 169.218821 
L 327.620596 169.222161 
L 327.831622 169.218629 
L 328.042647 169.221978 
L 328.253673 169.218464 
L 328.464698 169.221839 
L 328.675724 169.218358 
L 328.886749 169.221771 
L 329.097775 169.21833 
L 329.3088 169.221784 
L 329.519825 169.218384 
L 329.730851 169.221875 
L 329.941876 169.218507 
L 330.152902 169.222023 
L 330.363927 169.218672 
L 330.574953 169.222197 
L 330.785978 169.218847 
L 330.997004 169.222363 
L 331.208029 169.218995 
L 331.419055 169.222488 
L 331.63008 169.21909 
L 331.841105 169.222548 
L 332.052131 169.219113 
L 332.263156 169.222533 
L 332.474182 169.219062 
L 332.685207 169.222449 
L 332.896233 169.218949 
L 333.107258 169.222313 
L 333.318284 169.218798 
L 333.529309 169.222155 
L 333.740335 169.21864 
L 333.95136 169.222004 
L 334.162385 169.218505 
L 334.373411 169.221892 
L 334.584436 169.21842 
L 334.795462 169.221839 
L 335.006487 169.218401 
L 335.217513 169.221853 
L 335.428538 169.218448 
L 335.639564 169.221931 
L 335.850589 169.218552 
L 336.061615 169.222055 
L 336.27264 169.218689 
L 336.483665 169.222199 
L 336.694691 169.218833 
L 336.905716 169.222335 
L 337.116742 169.218954 
L 337.327767 169.222435 
L 337.538793 169.219029 
L 337.749818 169.222482 
L 337.960844 169.219046 
L 338.171869 169.222467 
L 338.382895 169.219001 
L 338.59392 169.222395 
L 338.804945 169.218906 
L 339.015971 169.222282 
L 339.226996 169.21878 
L 339.438022 169.222151 
L 339.649047 169.21865 
L 339.860073 169.222028 
L 340.071098 169.21854 
L 340.282124 169.221937 
L 340.493149 169.218472 
L 340.704175 169.221895 
L 340.9152 169.218459 
L 341.126225 169.22191 
L 341.337251 169.2185 
L 341.548276 169.221976 
L 341.759302 169.218588 
L 341.970327 169.22208 
L 342.181353 169.218702 
L 342.392378 169.222199 
L 342.603404 169.21882 
L 342.814429 169.22231 
L 343.025455 169.218919 
L 343.23648 169.222392 
L 343.447505 169.218979 
L 343.658531 169.222428 
L 343.869556 169.21899 
L 344.080582 169.222413 
L 344.291607 169.218951 
L 344.502633 169.222352 
L 344.713658 169.218871 
L 344.924684 169.222257 
L 345.135709 169.218766 
L 345.346735 169.222149 
L 345.55776 169.218659 
L 345.768785 169.222048 
L 345.979811 169.21857 
L 346.190836 169.221975 
L 346.401862 169.218516 
L 346.612887 169.221942 
L 346.823913 169.218507 
L 347.034938 169.221957 
L 347.245964 169.218543 
L 347.456989 169.222013 
L 347.668015 169.218617 
L 347.87904 169.222099 
L 348.090065 169.218711 
L 348.301091 169.222198 
L 348.512116 169.218809 
L 348.723142 169.222289 
L 348.934167 169.218889 
L 349.145193 169.222355 
L 349.356218 169.218937 
L 349.567244 169.222383 
L 349.778269 169.218944 
L 349.989295 169.222369 
L 350.20032 169.21891 
L 350.411345 169.222317 
L 350.622371 169.218843 
L 350.833396 169.222237 
L 351.044422 169.218756 
L 351.255447 169.222148 
L 351.466473 169.218668 
L 351.677498 169.222065 
L 351.888524 169.218595 
L 352.099549 169.222006 
L 352.310575 169.218552 
L 352.5216 169.221981 
L 352.732625 169.218546 
L 352.943651 169.221995 
L 353.154676 169.218578 
L 353.365702 169.222043 
L 353.576727 169.21864 
L 353.787753 169.222115 
L 353.998778 169.218719 
L 354.209804 169.222197 
L 354.420829 169.218799 
L 354.631855 169.222271 
L 354.84288 169.218864 
L 355.053905 169.222324 
L 355.264931 169.218902 
L 355.475956 169.222346 
L 355.686982 169.218906 
L 355.898007 169.222332 
L 356.109033 169.218877 
L 356.320058 169.222288 
L 356.531084 169.21882 
L 356.742109 169.222222 
L 356.953135 169.218748 
L 357.16416 169.222148 
L 357.375185 169.218675 
L 357.586211 169.22208 
L 357.797236 169.218616 
L 358.008262 169.222033 
L 358.219287 169.218582 
L 358.430313 169.222014 
L 358.641338 169.218579 
L 358.852364 169.222026 
L 359.063389 169.218607 
L 359.274415 169.222067 
L 359.48544 169.218659 
L 359.696465 169.222127 
L 359.907491 169.218724 
L 360.118516 169.222195 
L 360.329542 169.21879 
L 360.540567 169.222255 
L 360.751593 169.218843 
L 360.962618 169.222298 
L 361.173644 169.218873 
L 361.384669 169.222315 
L 361.595695 169.218875 
L 361.80672 169.222303 
L 362.017745 169.218849 
L 362.228771 169.222265 
L 362.439796 169.218802 
L 362.650822 169.22221 
L 362.861847 169.218742 
L 363.072873 169.222148 
L 363.283898 169.218682 
L 363.494924 169.222093 
L 363.705949 169.218635 
L 363.916975 169.222055 
L 364.128 169.218608 
L 364.339025 169.22204 
L 364.550051 169.218606 
L 364.761076 169.222052 
L 364.972102 169.21863 
L 365.183127 169.222087 
L 365.394153 169.218673 
L 365.605178 169.222137 
L 365.816204 169.218728 
L 366.027229 169.222192 
L 366.238255 169.218782 
L 366.44928 169.222242 
L 366.660305 169.218825 
L 366.871331 169.222277 
L 367.082356 169.218849 
L 367.293382 169.222289 
L 367.504407 169.218849 
L 367.715433 169.222278 
L 367.926458 169.218827 
L 368.137484 169.222246 
L 368.348509 169.218787 
L 368.559535 169.2222 
L 368.77056 169.218738 
L 368.981585 169.22215 
L 369.192611 169.218689 
L 369.403636 169.222105 
L 369.614662 169.21865 
L 369.825687 169.222074 
L 370.036713 169.218629 
L 370.247738 169.222063 
L 370.458764 169.218628 
L 370.669789 169.222073 
L 370.880815 169.218649 
L 371.09184 169.222103 
L 371.302865 169.218685 
L 371.513891 169.222144 
L 371.724916 169.21873 
L 371.935942 169.22219 
L 372.146967 169.218775 
L 372.357993 169.222231 
L 372.569018 169.21881 
L 372.780044 169.222259 
L 372.991069 169.218829 
L 373.202095 169.222268 
L 373.41312 169.218828 
L 373.624145 169.222258 
L 373.835171 169.218809 
L 374.046196 169.222231 
L 374.257222 169.218776 
L 374.468247 169.222193 
L 374.679273 169.218735 
L 374.890298 169.222151 
L 375.101324 169.218694 
L 375.312349 169.222114 
L 375.523375 169.218663 
L 375.7344 169.222089 
L 375.945425 169.218646 
L 376.156451 169.222081 
L 376.367476 169.218647 
L 376.578502 169.222091 
L 376.789527 169.218664 
L 377.000553 169.222115 
L 377.211578 169.218695 
L 377.422604 169.22215 
L 377.633629 169.218732 
L 377.844655 169.222188 
L 378.05568 169.218769 
L 378.266705 169.222221 
L 378.477731 169.218797 
L 378.688756 169.222243 
L 378.899782 169.218812 
L 379.110807 169.222251 
L 379.321833 169.218811 
L 379.532858 169.222242 
L 379.743884 169.218795 
L 379.954909 169.222219 
L 380.165935 169.218766 
L 380.37696 169.222187 
L 380.587985 169.218732 
L 380.799011 169.222152 
L 381.010036 169.218699 
L 381.221062 169.222122 
L 381.432087 169.218674 
L 381.643113 169.222102 
L 381.854138 169.218661 
L 382.065164 169.222096 
L 382.276189 169.218662 
L 382.487215 169.222105 
L 382.69824 169.218677 
L 382.909265 169.222126 
L 383.120291 169.218703 
L 383.331316 169.222155 
L 383.542342 169.218734 
L 383.753367 169.222186 
L 383.964393 169.218763 
L 384.175418 169.222213 
L 384.386444 169.218786 
L 384.597469 169.222231 
L 384.808495 169.218798 
L 385.01952 169.222236 
L 385.230545 169.218797 
L 385.441571 169.222228 
L 385.652596 169.218783 
L 385.863622 169.222209 
L 386.074647 169.218759 
L 386.285673 169.222182 
L 386.496698 169.218731 
L 386.707724 169.222154 
L 386.918749 169.218704 
L 387.129775 169.222129 
L 387.3408 169.218683 
L 387.551825 169.222113 
L 387.762851 169.218673 
L 387.973876 169.222109 
L 388.184902 169.218674 
L 388.395927 169.222116 
L 388.606953 169.218687 
L 388.817978 169.222134 
L 389.029004 169.218709 
L 389.240029 169.222158 
L 389.451055 169.218734 
L 389.66208 169.222184 
L 389.873105 169.218759 
L 390.084131 169.222206 
L 390.295156 169.218778 
L 390.506182 169.22222 
L 390.717207 169.218787 
L 390.928233 169.222224 
L 391.139258 169.218785 
L 391.350284 169.222217 
L 391.561309 169.218773 
L 391.772335 169.222201 
L 391.98336 169.218753 
L 392.194385 169.222179 
L 392.405411 169.21873 
L 392.616436 169.222155 
L 392.827462 169.218708 
L 393.038487 169.222135 
L 393.249513 169.218691 
L 393.460538 169.222123 
L 393.671564 169.218683 
L 393.882589 169.222119 
L 394.093615 169.218684 
L 394.30464 169.222126 
L 394.515665 169.218696 
L 394.726691 169.222141 
L 394.937716 169.218714 
L 395.148742 169.222161 
L 395.359767 169.218735 
L 395.570793 169.222182 
L 395.781818 169.218755 
L 395.992844 169.2222 
L 396.203869 169.21877 
L 396.414895 169.222212 
L 396.62592 169.218777 
L 396.836945 169.222214 
L 397.047971 169.218775 
L 397.258996 169.222208 
L 397.470022 169.218765 
L 397.681047 169.222194 
L 397.892073 169.218748 
L 398.103098 169.222176 
L 398.314124 169.218729 
L 398.487273 169.218721 
L 398.487273 169.218721 
" clip-path="url(#pe7e5b9fea7)" style="fill: none; stroke-dasharray: 5.55,2.4; stroke-dashoffset: 0; stroke: #ff0000; stroke-opacity: 0.2; stroke-width: 1.5"/>
   </g>
   <g id="line2d_30">
    <path d="M 73.832727 169.22045 
L 74.189847 169.113824 
L 74.417105 168.764339 
L 74.676829 167.885233 
L 74.985251 165.943166 
L 75.353193 162.036418 
L 75.829353 154.261598 
L 77.8368 118.341489 
L 78.177687 116.421723 
L 78.361658 116.203902 
L 78.37248 116.20931 
L 78.496931 116.417133 
L 78.691724 117.276384 
L 78.983913 119.747414 
L 79.395142 125.405137 
L 79.995753 137.163881 
L 81.802996 174.53288 
L 82.273745 179.401534 
L 82.603811 180.939402 
L 82.798604 181.121993 
L 82.804015 181.119595 
L 82.939287 180.932673 
L 83.150313 180.173721 
L 83.469556 178.058175 
L 83.956538 173.116486 
L 85.612276 155.044133 
L 85.980218 153.493612 
L 86.207476 153.252712 
L 86.353571 153.39358 
L 86.559185 153.976826 
L 86.862196 155.611297 
L 87.30048 159.370653 
L 88.052596 168.132846 
L 89.031971 178.891269 
L 89.524364 182.096733 
L 89.85984 183.0908 
L 90.070865 183.2062 
L 90.238604 183.02641 
L 90.482095 182.36712 
L 90.844625 180.632987 
L 91.439825 176.4943 
L 92.516596 169.083049 
L 92.949469 167.507595 
L 93.236247 167.133135 
L 93.420218 167.186248 
L 93.636655 167.534009 
L 93.945076 168.519952 
L 94.405004 170.852145 
L 96.201425 180.843799 
L 96.542313 181.423532 
L 96.769571 181.457915 
L 96.986007 181.238192 
L 97.289018 180.555401 
L 97.738124 178.911578 
L 99.377629 172.37328 
L 99.723927 171.940938 
L 99.967418 171.936898 
L 100.221731 172.186703 
L 100.568029 172.893166 
L 101.114531 174.603535 
L 102.24 178.167147 
L 102.65664 178.789989 
L 102.948829 178.888575 
L 103.213964 178.73573 
L 103.54944 178.243369 
L 104.041833 177.064539 
L 105.448669 173.485248 
L 105.849076 173.09098 
L 106.157498 173.065377 
L 106.476742 173.279494 
L 106.904204 173.870395 
L 108.516655 176.373214 
L 108.873775 176.446095 
L 109.214662 176.278696 
L 109.636713 175.792376 
L 110.350953 174.557478 
L 111.205876 173.213786 
L 111.676625 172.851472 
L 112.071622 172.811444 
L 112.493673 173.009237 
L 113.142982 173.602664 
L 114.035782 174.35895 
L 114.490298 174.464191 
L 114.91776 174.330074 
L 115.426385 173.915411 
L 117.314793 172.140818 
L 117.812596 172.106513 
L 118.359098 172.294572 
L 119.868742 172.929953 
L 120.415244 172.823115 
L 121.064553 172.440247 
L 122.612073 171.437349 
L 123.218095 171.359911 
L 124.035142 171.513288 
L 125.39328 171.765257 
L 126.085876 171.603093 
L 128.650647 170.726965 
L 129.608378 170.846316 
L 130.712204 170.942435 
L 131.58336 170.754448 
L 133.552931 170.232237 
L 134.472785 170.277746 
L 135.933731 170.349232 
L 137.221527 170.08959 
L 138.466036 169.891391 
L 139.645615 169.910513 
L 141.312175 169.978328 
L 142.491753 169.732576 
L 143.860713 169.550639 
L 144.861731 169.658048 
L 145.949324 169.698738 
L 147.680815 169.532842 
L 149.174225 169.420902 
L 151.971665 169.489401 
L 154.417396 169.267598 
L 156.213818 169.364893 
L 158.946327 169.354267 
L 162.625745 169.281279 
L 171.256145 169.197371 
L 219.597207 169.216179 
L 273.792873 169.220347 
L 398.487273 169.220453 
L 398.487273 169.220453 
" clip-path="url(#pe7e5b9fea7)" style="fill: none; stroke: #008000; stroke-width: 1.5; stroke-linecap: square"/>
   </g>
   <g id="patch_3">
    <path d="M 57.6 307.584 
L 57.6 41.472 
" style="fill: none; stroke: #000000; stroke-width: 0.8; stroke-linejoin: miter; stroke-linecap: square"/>
   </g>
   <g id="patch_4">
    <path d="M 414.72 307.584 
L 414.72 41.472 
" style="fill: none; stroke: #000000; stroke-width: 0.8; stroke-linejoin: miter; stroke-linecap: square"/>
   </g>
   <g id="patch_5">
    <path d="M 57.6 307.584 
L 414.72 307.584 
" style="fill: none; stroke: #000000; stroke-width: 0.8; stroke-linejoin: miter; stroke-linecap: square"/>
   </g>
   <g id="patch_6">
    <path d="M 57.6 41.472 
L 414.72 41.472 
" style="fill: none; stroke: #000000; stroke-width: 0.8; stroke-linejoin: miter; stroke-linecap: square"/>
   </g>
   <g id="text_17">
    <!-- theta vs time -->
    <g transform="translate(196.238438 35.472) scale(0.12 -0.12)">
     <defs>
      <path id="DejaVuSans-76" d="M 191 3500 
L 800 3500 
L 1894 563 
L 2988 3500 
L 3597 3500 
L 2284 0 
L 1503 0 
L 191 3500 
z
" transform="scale(0.015625)"/>
     </defs>
     <use xlink:href="#DejaVuSans-74"/>
     <use xlink:href="#DejaVuSans-68" x="39.208984"/>
     <use xlink:href="#DejaVuSans-65" x="102.587891"/>
     <use xlink:href="#DejaVuSans-74" x="164.111328"/>
     <use xlink:href="#DejaVuSans-61" x="203.320312"/>
     <use xlink:href="#DejaVuSans-20" x="264.599609"/>
     <use xlink:href="#DejaVuSans-76" x="296.386719"/>
     <use xlink:href="#DejaVuSans-73" x="355.566406"/>
     <use xlink:href="#DejaVuSans-20" x="407.666016"/>
     <use xlink:href="#DejaVuSans-74" x="439.453125"/>
     <use xlink:href="#DejaVuSans-69" x="478.662109"/>
     <use xlink:href="#DejaVuSans-6d" x="506.445312"/>
     <use xlink:href="#DejaVuSans-65" x="603.857422"/>
    </g>
   </g>
   <g id="legend_1">
    <g id="patch_7">
     <path d="M 273.271563 79.106375 
L 407.72 79.106375 
Q 409.72 79.106375 409.72 77.106375 
L 409.72 48.472 
Q 409.72 46.472 407.72 46.472 
L 273.271563 46.472 
Q 271.271563 46.472 271.271563 48.472 
L 271.271563 77.106375 
Q 271.271563 79.106375 273.271563 79.106375 
z
" style="fill: #ffffff; opacity: 0.8; stroke: #cccccc; stroke-linejoin: miter"/>
    </g>
    <g id="line2d_31">
     <path d="M 275.271563 54.570438 
L 285.271563 54.570438 
L 295.271563 54.570438 
" style="fill: none; stroke-dasharray: 5.55,2.4; stroke-dashoffset: 0; stroke: #ff0000; stroke-opacity: 0.2; stroke-width: 1.5"/>
    </g>
    <g id="text_18">
     <!-- theta_dot (degree/s) -->
     <g transform="translate(303.271563 58.070438) scale(0.1 -0.1)">
      <defs>
       <path id="DejaVuSans-5f" d="M 3263 -1063 
L 3263 -1509 
L -63 -1509 
L -63 -1063 
L 3263 -1063 
z
" transform="scale(0.015625)"/>
       <path id="DejaVuSans-64" d="M 2906 2969 
L 2906 4863 
L 3481 4863 
L 3481 0 
L 2906 0 
L 2906 525 
Q 2725 213 2448 61 
Q 2172 -91 1784 -91 
Q 1150 -91 751 415 
Q 353 922 353 1747 
Q 353 2572 751 3078 
Q 1150 3584 1784 3584 
Q 2172 3584 2448 3432 
Q 2725 3281 2906 2969 
z
M 947 1747 
Q 947 1113 1208 752 
Q 1469 391 1925 391 
Q 2381 391 2643 752 
Q 2906 1113 2906 1747 
Q 2906 2381 2643 2742 
Q 2381 3103 1925 3103 
Q 1469 3103 1208 2742 
Q 947 2381 947 1747 
z
" transform="scale(0.015625)"/>
       <path id="DejaVuSans-6f" d="M 1959 3097 
Q 1497 3097 1228 2736 
Q 959 2375 959 1747 
Q 959 1119 1226 758 
Q 1494 397 1959 397 
Q 2419 397 2687 759 
Q 2956 1122 2956 1747 
Q 2956 2369 2687 2733 
Q 2419 3097 1959 3097 
z
M 1959 3584 
Q 2709 3584 3137 3096 
Q 3566 2609 3566 1747 
Q 3566 888 3137 398 
Q 2709 -91 1959 -91 
Q 1206 -91 779 398 
Q 353 888 353 1747 
Q 353 2609 779 3096 
Q 1206 3584 1959 3584 
z
" transform="scale(0.015625)"/>
       <path id="DejaVuSans-67" d="M 2906 1791 
Q 2906 2416 2648 2759 
Q 2391 3103 1925 3103 
Q 1463 3103 1205 2759 
Q 947 2416 947 1791 
Q 947 1169 1205 825 
Q 1463 481 1925 481 
Q 2391 481 2648 825 
Q 2906 1169 2906 1791 
z
M 3481 434 
Q 3481 -459 3084 -895 
Q 2688 -1331 1869 -1331 
Q 1566 -1331 1297 -1286 
Q 1028 -1241 775 -1147 
L 775 -588 
Q 1028 -725 1275 -790 
Q 1522 -856 1778 -856 
Q 2344 -856 2625 -561 
Q 2906 -266 2906 331 
L 2906 616 
Q 2728 306 2450 153 
Q 2172 0 1784 0 
Q 1141 0 747 490 
Q 353 981 353 1791 
Q 353 2603 747 3093 
Q 1141 3584 1784 3584 
Q 2172 3584 2450 3431 
Q 2728 3278 2906 2969 
L 2906 3500 
L 3481 3500 
L 3481 434 
z
" transform="scale(0.015625)"/>
       <path id="DejaVuSans-72" d="M 2631 2963 
Q 2534 3019 2420 3045 
Q 2306 3072 2169 3072 
Q 1681 3072 1420 2755 
Q 1159 2438 1159 1844 
L 1159 0 
L 581 0 
L 581 3500 
L 1159 3500 
L 1159 2956 
Q 1341 3275 1631 3429 
Q 1922 3584 2338 3584 
Q 2397 3584 2469 3576 
Q 2541 3569 2628 3553 
L 2631 2963 
z
" transform="scale(0.015625)"/>
       <path id="DejaVuSans-2f" d="M 1625 4666 
L 2156 4666 
L 531 -594 
L 0 -594 
L 1625 4666 
z
" transform="scale(0.015625)"/>
      </defs>
      <use xlink:href="#DejaVuSans-74"/>
      <use xlink:href="#DejaVuSans-68" x="39.208984"/>
      <use xlink:href="#DejaVuSans-65" x="102.587891"/>
      <use xlink:href="#DejaVuSans-74" x="164.111328"/>
      <use xlink:href="#DejaVuSans-61" x="203.320312"/>
      <use xlink:href="#DejaVuSans-5f" x="264.599609"/>
      <use xlink:href="#DejaVuSans-64" x="314.599609"/>
      <use xlink:href="#DejaVuSans-6f" x="378.076172"/>
      <use xlink:href="#DejaVuSans-74" x="439.257812"/>
      <use xlink:href="#DejaVuSans-20" x="478.466797"/>
      <use xlink:href="#DejaVuSans-28" x="510.253906"/>
      <use xlink:href="#DejaVuSans-64" x="549.267578"/>
      <use xlink:href="#DejaVuSans-65" x="612.744141"/>
      <use xlink:href="#DejaVuSans-67" x="674.267578"/>
      <use xlink:href="#DejaVuSans-72" x="737.744141"/>
      <use xlink:href="#DejaVuSans-65" x="776.607422"/>
      <use xlink:href="#DejaVuSans-65" x="838.130859"/>
      <use xlink:href="#DejaVuSans-2f" x="899.654297"/>
      <use xlink:href="#DejaVuSans-73" x="933.345703"/>
      <use xlink:href="#DejaVuSans-29" x="985.445312"/>
     </g>
    </g>
    <g id="line2d_32">
     <path d="M 275.271563 69.526688 
L 285.271563 69.526688 
L 295.271563 69.526688 
" style="fill: none; stroke: #008000; stroke-width: 1.5; stroke-linecap: square"/>
    </g>
    <g id="text_19">
     <!-- theta (degree) -->
     <g transform="translate(303.271563 73.026688) scale(0.1 -0.1)">
      <use xlink:href="#DejaVuSans-74"/>
      <use xlink:href="#DejaVuSans-68" x="39.208984"/>
      <use xlink:href="#DejaVuSans-65" x="102.587891"/>
      <use xlink:href="#DejaVuSans-74" x="164.111328"/>
      <use xlink:href="#DejaVuSans-61" x="203.320312"/>
      <use xlink:href="#DejaVuSans-20" x="264.599609"/>
      <use xlink:href="#DejaVuSans-28" x="296.386719"/>
      <use xlink:href="#DejaVuSans-64" x="335.400391"/>
      <use xlink:href="#DejaVuSans-65" x="398.876953"/>
      <use xlink:href="#DejaVuSans-67" x="460.400391"/>
      <use xlink:href="#DejaVuSans-72" x="523.876953"/>
      <use xlink:href="#DejaVuSans-65" x="562.740234"/>
      <use xlink:href="#DejaVuSans-65" x="624.263672"/>
      <use xlink:href="#DejaVuSans-29" x="685.787109"/>
     </g>
    </g>
   </g>
  </g>
 </g>
 <defs>
  <clipPath id="pe7e5b9fea7">
   <rect x="57.6" y="41.472" width="357.12" height="266.112"/>
  </clipPath>
 </defs>
</svg>
