<svg xmlns="http://www.w3.org/2000/svg" xmlns:xlink="http://www.w3.org/1999/xlink" xmlns:lucid="lucid" width="849.45" height="280"><g transform="translate(-345.3543307086614 -180)" lucid:page-tab-id="0_0"><path d="M749.42 320c0 26.4-21.6 48-48 48s-48-21.6-48-48 21.6-48 48-48 48 21.6 48 48zm-48-48v-12m0 108v12" stroke="#000" stroke-width="2" fill="#fff"/><path d="M695.42 344h12m-12-48h12m-6-6v12" stroke="#000" stroke-width="2" fill="none"/><path d="M473.35 320c0 26.4-21.6 48-48 48s-48-21.6-48-48 21.6-48 48-48 48 21.6 48 48zm-48-48v-12m0 108v12" stroke="#000" stroke-width="2" fill="#fff"/><path d="M419.35 344h12m-12-48h12m-6-6v12" stroke="#000" stroke-width="2" fill="none"/><path d="M535.43 200v80h28v-80z" fill="none"/><path d="M535.43 248h14c0-15.04 6.3-24 14-24s14 8.96 14 20c0-11.04 6.3-20 14-20s14 8.96 14 20c0-11.04 6.3-20 14-20s14 8.96 14 20c0-11.04 6.3-20 14-20s14 8.96 14 20c0 1.44-.14 2.56-.28 4h14.28" stroke="#000" stroke-width="2" fill="#fff"/><use xlink:href="#a" transform="matrix(1,0,0,1,535.4330708661416,256) translate(62.1875 25.54144965277778)"/><path d="M447.24 360h160v80h-160z" fill="none"/><path d="M447.24 400h36l8-12 12 24 12-24 12 24 12-24 12 24 12-24 12 24 8-12h24" stroke="#000" stroke-width="2" fill="none"/><use xlink:href="#b" transform="matrix(1,0,0,1,447.2440944881889,356) translate(71.16753472222223 25.54144965277778)"/><path d="M479.9 249h-48.5l-.83.06-.76.2-.7.3-.68.4-.6.5-.5.6-.42.67-.3.73-.18.76-.07.82V259h-2v-5.04l.1-1.06.24-1.06.42-1.02.57-.94.7-.83.84-.72.94-.57 1-.42 1.08-.26 1.06-.08h48.57zm53.72 0h-47.57v-2h47.56z" stroke="#000" stroke-width=".05"/><path d="M426.35 260h-2v-1.03h2z"/><path d="M426.38 260.02h-2.05v-1.07h2.05zm-2-1.02v.98h1.95V259zM535.43 248l-18.67 11.04-1-1.72L531.5 248l-15.75-9.32 1-1.72z" stroke="#000" stroke-width=".05"/><use xlink:href="#c" transform="matrix(1,0,0,1,479.88941623345386,236.0078125) translate(0 20.42534722222222)"/><path d="M676.43 248h19a6 6 0 0 1 6 6v5" stroke="#000" stroke-width="2" fill="none"/><path d="M675.43 247h1.03v2h-1.03zM700.42 260v-1.03h2V260zM661.25 401h-52.2v-2h52.2zm41.17-6.96l-.1 1.06-.24 1.06-.42 1.02-.58.94-.7.83-.85.72-.93.57-1.02.42-1.07.26-1.04.08H667.4v-2h27.98l.82-.06.76-.2.73-.3.65-.4.6-.5.5-.6.42-.67.3-.73.18-.76.07-.82V381h2z" stroke="#000" stroke-width=".05"/><path d="M702.42 381.03h-2V380h2z"/><path d="M702.44 381.05h-2.05v-1.07h2.04zm-2-1.03v.98h1.95v-.98zM626.93 390.68L611.17 400l15.76 9.32-1.02 1.72L607.25 400l18.67-11.04z" stroke="#000" stroke-width=".05"/><use xlink:href="#c" transform="matrix(1,0,0,1,661.2491114391951,388.0078125) translate(0 20.42534722222222)"/><path d="M446.24 400h-14.9a6 6 0 0 1-6-6v-13" stroke="#000" stroke-width="2" fill="none"/><path d="M447.24 401h-1.02v-2h1.02zM426.35 381.03h-2V380h2z" stroke="#000" stroke-width=".05"/><path d="M701.42 366a6 6 0 0 1 6-6h50.2a6 6 0 0 1 6 6v28a6 6 0 0 1-6 6h-50.2a6 6 0 0 1-6-6z" stroke="#000" stroke-opacity="0" stroke-width="2" fill="#fff" fill-opacity="0"/><use xlink:href="#d" transform="matrix(1,0,0,1,706.4173228346456,365) translate(7.495008680555564 27.40668402777778)"/><path d="M384.25 237.18a6 6 0 0 1 6-6h28a6 6 0 0 1 6 6v28a6 6 0 0 1-6 6h-28a6 6 0 0 1-6-6z" stroke="#000" stroke-opacity="0" stroke-width="2" fill="#fff" fill-opacity="0"/><use xlink:href="#e" transform="matrix(1,0,0,1,389.25196850393695,236.1811023622048) translate(6.324869791666668 27.40668402777778)"/><g stroke="#000" stroke-width="2"><path d="M1089.3 231.18c9.38 0 17 35.82 17 80s-7.62 80-17 80H953.22c-9.4 0-17-35.82-17-80s7.6-80 17-80z" fill="#fff"/><path d="M953.23 231.18c9.4 0 17 35.82 17 80s-7.6 80-17 80" fill="none"/></g><path d="M986.88 305.98c0-58.18 21.4-105.35 47.78-105.35 26.4 0 47.78 47.17 47.78 105.35 0 58.2-21.4 105.36-47.78 105.36" stroke="#000" stroke-width="2" fill="none"/><path d="M1044.2 419.77l-9.54-8.43 9.55-10.54" stroke="#000" stroke-width="2" fill="none"/><path d="M986.88 305.98c0-58.18 21.4-105.35 47.78-105.35 26.4 0 47.78 47.17 47.78 105.35 0 58.2-21.4 105.36-47.78 105.36z" fill="none"/><g stroke="#000" stroke-width="2"><path d="M946.54 287.6c8.2 0 14.88 9.86 14.88 22.03 0 12.18-6.67 22.05-14.88 22.05H827.48c-8.22 0-14.88-9.87-14.88-22.05 0-12.17 6.66-22.04 14.88-22.04z" fill="#fff"/><path d="M827.48 287.6c8.22 0 14.88 9.86 14.88 22.03 0 12.18-6.66 22.05-14.88 22.05" fill="none"/></g><path d="M1023.62 295.13a6 6 0 0 1 6-6h15.87a6 6 0 0 1 6 6v29a6 6 0 0 1-6 6h-15.88a6 6 0 0 1-6-6z" stroke="#000" stroke-opacity="0" stroke-width="2" fill="#fff"/><use xlink:href="#f" transform="matrix(1,0,0,1,1028.6220472440943,294.1338582677164) translate(-0.1254340277777768 26.04144965277778)"/><path d="M791.34 346.16a6 6 0 0 1 6-6h57.3a6 6 0 0 1 6 6v36.87a6 6 0 0 1-6 6h-57.3a6 6 0 0 1-6-6z" stroke="#000" stroke-opacity="0" stroke-width="2" fill="#fff" fill-opacity="0"/><use xlink:href="#g" transform="matrix(1,0,0,1,796.3385826771653,345.15748031496054) translate(24.739592100694445 33.07546976996527)"/><path d="M854.3 311.18c0-22.1-11.3-40-25.2-40-13.9 0-25.16 17.9-25.16 40s11.27 40 25.17 40" stroke="#000" stroke-width="2" fill="none"/><path d="M824.08 354.38l5.03-3.2-5.02-4" stroke="#000" stroke-width="2" fill="none"/><path d="M854.3 311.18c0-22.1-11.3-40-25.2-40-13.9 0-25.16 17.9-25.16 40s11.27 40 25.17 40z" fill="none"/><path d="M883.42 311.18c0-22.1 9.9-40 22.12-40 12.2 0 22.12 17.9 22.12 40s-9.9 40-22.12 40" stroke="#000" stroke-width="2" fill="none"/><path d="M909.96 354.38l-4.42-3.2 4.42-4" stroke="#000" stroke-width="2" fill="none"/><path d="M883.42 311.18c0-22.1 9.9-40 22.12-40 12.2 0 22.12 17.9 22.12 40s-9.9 40-22.12 40z" fill="none"/><path d="M882.15 311.18a6 6 0 0 1-6-6V294.5a6 6 0 0 1 6-6h9.82a6 6 0 0 1 6 6v10.68a6 6 0 0 1-6 6z" stroke="#000" stroke-opacity="0" stroke-width="2" fill="#fff"/><path d="M870.9 350a6 6 0 0 1 6-6h57.28a6 6 0 0 1 6 6v32.1a6 6 0 0 1-6 6h-57.3a6 6 0 0 1-6-6z" stroke="#000" stroke-opacity="0" stroke-width="2" fill="#fff" fill-opacity="0"/><use xlink:href="#h" transform="matrix(1,0,0,1,875.8929274418924,348.99212598425163) translate(14.266524522569448 27.719132964409717)"/><path d="M974.02 401.9a6 6 0 0 1 6-6h57.3a6 6 0 0 1 6 6V434a6 6 0 0 1-6 6H980a6 6 0 0 1-6-6z" stroke="#000" stroke-opacity="0" stroke-width="2" fill="#fff" fill-opacity="0"/><use xlink:href="#i" transform="matrix(1,0,0,1,979.015748031496,400.90551181102364) translate(15.595738932291672 27.719132964409717)"/><path d="M1009.52 316.7a6 6 0 0 1-6 6h-15.87a6 6 0 0 1-6-6v-78.57a6 6 0 0 1 6-6h15.87a6 6 0 0 1 6 6z" stroke="#000" stroke-opacity="0" stroke-width="2" fill="#fff"/><path d="M1138 390.55h-2v-8.4h2zm0-16.8h-2v-11.62h2zm0-41.6h-2v-.4h2zm0-8.8h-2v-8.4h2z" stroke="#000" stroke-width=".05"/><path d="M1152 316.96h-30v-2h30zM1152 390.55h-30v-2h30z" stroke="#000" stroke-width=".05"/><use xlink:href="#j" transform="matrix(1,0,0,1,1129.1248445018591,332.14765166809445) translate(0 25.53168402777778)"/><path d="M775.3 310.13a.5.5 0 0 1 .5-.5h398a.5.5 0 0 1 .5.5.5.5 0 0 1-.5.5h-398a.5.5 0 0 1-.5-.5z" fill="none"/><path d="M785.85 309.63h4.02m8.04 0h4.03m8.05 0h4m8.05 0h4.03m8.04 0h4.02m8.04 0h4.02m8.04 0h4.02m8.04 0h4.02m8.04 0h4.02m8.04 0h4.02m8.04 0h4.02m8.04 0h4.02m8.04 0h4.02m8.04 0h4.02m8.04 0h4.02m8.04 0h4.02m8.04 0h4.02m8.04 0h4.02m8.05 0h4m8.05 0h4.02m8.05 0h4.02m8.03 0h4.02m8.04 0h4m8.05 0h4.02m8.04 0h4.03m8.04 0h4.02m8.03 0h4.02m8.04 0h4m8.05 0h4.02m8.04 0h4.03m8.04 0h4.02m8.03 0h4.02m8.04 0h2.08l.08.03.07.03.07.03.06.05.05.06.05.07.03.08.02.08V310.2l-.02.1-.03.06-.04.07-.04.06-.06.04-.07.04-.07.03-.08.03h-2.08m-8.05 0h-4.02m-8.04 0h-4.03m-8.04 0h-4.02m-8.03 0h-4.02m-8.04 0h-4m-8.05 0h-4.02m-8.04 0h-4.03m-8.04 0h-4.02m-8.03 0h-4.02m-8.04 0h-4m-8.05 0h-4.02m-8.04 0h-4.03m-8.04 0H1015m-8.03 0h-4.02m-8.05 0h-4.02m-8.04 0h-4.02m-8.04 0h-4.02m-8.04 0h-4.02m-8.04 0h-4.02m-8.04 0h-4.02m-8.04 0h-4.02m-8.04 0h-4.02m-8.04 0h-4.02m-8.04 0h-4.02m-8.04 0h-4.02m-8.04 0h-4.02m-8.04 0h-4.02m-8.04 0h-4.02m-8.04 0h-4.02m-8.04 0h-4.02m-8.05 0h-4.02m-8.03 0h-4.02m-8.04 0h-2.07l-.08-.02-.07-.02-.07-.04-.05-.05-.05-.07-.04-.07-.03-.07-.02-.1v-.14l.03-.08.03-.07.04-.06.05-.06.06-.05.08-.04.07-.04.08-.02h2.07" stroke="#000" fill="none"/><defs><path d="M175-1872c73 0 109 38 109 113v1550c425 0 730-24 909-83 53-17 104-43 161-43 60 0 94 37 94 103s-41 114-124 137C1133-42 917 1 678 3L269 6C138 0 68-66 68-191l-1-1565c2-77 38-116 108-116" id="k"/><use transform="matrix(0.010850694444444444,0,0,0.010850694444444444,0,0)" xlink:href="#k" id="a"/><path d="M150-1893c51 0 82 26 93 77 52-29 164-46 335-46 270 0 498 67 682 199s293 299 293 502c0 269-120 452-357 548l369 449c57 69 35 182-82 174-58-4-97-46-153-113L957-550H246v470c-9 53-40 94-97 94C76 14 39-20 39-87v-1724c0-52 37-82 111-82zm404 248c-149 0-252 12-308 37v857h513c382 0 574-132 574-397 0-131-69-246-206-346s-328-150-573-151" id="l"/><use transform="matrix(0.010850694444444444,0,0,0.010850694444444444,0,0)" xlink:href="#l" id="b"/><path d="M242-1649h-83c-72 0-108-39-108-118 0-62 38-93 113-93h378c75 0 113 31 113 93 0 79-36 118-108 118h-92v1442h92c72 0 108 39 108 118 0 62-38 93-113 93H164C89 4 51-27 51-89c0-79 36-118 108-118h83v-1442" id="m"/><use transform="matrix(0.008680555555555556,0,0,0.008680555555555556,0,0)" xlink:href="#m" id="c"/><path d="M803-356l571-1376c28-88 72-132 132-132 66 0 97 51 97 121 0 37-17 72-32 108L936-119C910-40 866 2 802 2c-63 0-101-45-133-121L34-1635c-16-35-32-71-32-108 0-70 28-121 87-121 67 0 107 47 142 132" id="n"/><path d="M947-844c0-91-72-136-215-136-218 0-355 99-413 240 98 5 181 10 249 10 251 0 379-38 379-114zM57-516c-18-392 299-655 674-655 276 0 417 118 417 323 0 204-191 318-570 318-128 0-227-10-299-11 6 228 127 361 365 361 107 0 206-41 296-122 44-40 87-61 130-61 55 1 84 33 84 97 0 52-51 112-148 181S764 20 569 20C251 20 72-195 57-516" id="o"/><path d="M1157-658c-2 153-6 339-20 557-4 68-45 101-114 101-57 0-85-41-85-107 0-239 16-432 16-581 0-169-58-270-157-270-97 0-191 63-280 190S364-417 333-97C327-35 294 0 226 6c-69-8-103-47-103-116 0-307-15-531-30-670s-23-234-23-285c0-63 42-95 101-95 71 0 108 50 113 131l16 264c112-257 280-392 503-392 153 0 256 71 310 199 102-129 232-199 390-199 233 0 354 158 354 454 0 161-4 362-20 602-4 68-45 101-114 101-57 0-85-41-85-107 0-239 16-432 16-581 0-169-58-270-157-270-97 0-191 63-280 190-22 31-42 68-60 110" id="p"/><path d="M591-1645c-61 0-121-36-200-30-67 5-101 81-104 218h235c51 7 81 33 81 77 0 60-33 98-85 98H284l11 1159C295-48 262 0 195 0 131 0 86-41 85-124L72-1281c-81 7-130-12-130-91 0-72 65-87 139-88 8-216 91-408 315-405 90 1 158 13 204 37s69 60 69 107c0 50-31 76-78 76" id="q"/><g id="d"><use transform="matrix(0.010850694444444444,0,0,0.010850694444444444,0,0)" xlink:href="#n"/><use transform="matrix(0.0054253472222222186,0,0,0.0054253472222222186,17.491319444444443,0)" xlink:href="#o"/><use transform="matrix(0.0054253472222222186,0,0,0.0054253472222222186,24.08854166666666,0)" xlink:href="#p"/><use transform="matrix(0.0054253472222222186,0,0,0.0054253472222222186,34.62456597222221,0)" xlink:href="#q"/></g><path d="M242-811c0 425 329 605 779 604 136 0 235-28 298-84v-1483c9-73 46-109 113-109 71 0 106 37 106 111V-78c0 52-34 82-101 82-65 0-104-26-115-77-59 49-167 76-325 76-270 0-497-67-681-199S22-532 22-808c0-219 27-536 77-951 9-77 45-116 112-116 69 0 105 42 105 123 0 431-74 742-74 941" id="r"/><use transform="matrix(0.010850694444444444,0,0,0.010850694444444444,0,0)" xlink:href="#r" id="e"/><path d="M1211-1552l-972 1c-85-1-127-36-127-106 0-72 46-108 126-108h936c0-75 34-118 102-118 73 0 110 39 111 118h177c87 0 131 33 131 100 0 75-47 112-121 112h-151c26 152 39 330 39 533 0 356-76 616-225 780S888 10 637 10c-145 0-275-32-387-94S81-209 81-273c0-65 38-97 97-98 47 0 102 28 167 85s166 85 305 85c187-1 334-66 440-197s159-342 160-631c0-200-13-374-39-523" id="s"/><use transform="matrix(0.010850694444444444,0,0,0.010850694444444444,0,0)" xlink:href="#s" id="f"/><path d="M666 0C473 51 308 0 308-228v-722c-108-6-205 11-279 34v-137c199-57 512-17 762-28v131H489v683c-17 125 57 176 176 137V1" id="t"/><use transform="matrix(0.013020811631944441,0,0,0.013020811631944441,0,0)" xlink:href="#t" id="g"/><path d="M860-926c-128 0-253 66-374 193S297-489 297-384c0 137 72 205 216 205 115 0 227-51 333-153s182-232 182-393c0-134-60-201-168-201zM75-1762c2-77 37-116 106-116 65 0 98 45 98 130v969c153-233 350-349 592-349 231 0 359 146 359 401 0 176-67 341-199 494S728 17 517 17C417 17 338 4 279-21c-20 25-59 38-116 38-58 0-88-38-88-113v-1666" id="u"/><path d="M495-119c256 0 222-319 222-580h165c-6 262-23 580 216 580 199 0 222-182 228-393 6-233-74-404-256-449l23-142c523 17 597 1126 28 1126-193 0-273-119-324-267C763-79 660 18 478 23-23 40-6-830 313-1029c57-34 114-63 188-74l23 142c-176 51-256 216-250 449 6 205 23 393 222 393" id="v"/><g id="h"><use transform="matrix(0.010850672743055553,0,0,0.010850672743055553,0,0)" xlink:href="#u"/><use transform="matrix(0.010850672743055553,0,0,0.010850672743055553,14.116725238715274,0)" xlink:href="#v"/></g><path d="M1099-1868c62 6 93 38 93 97 0 69-37 107-106 107H302v611h672c62 9 93 46 93 109-1 65-32 104-96 104H304l1 735C301-34 264 3 194 3 128 3 94-36 94-112v-1561c-27-11-40-45-41-102 0-56 35-93 106-93h940" id="w"/><path d="M146-1161c66 0 103 37 110 99 43-55 114-94 213-94 183 0 296 84 296 219 0 59-25 99-73 99-55 0-94-20-116-59s-55-61-100-68c-114 15-193 76-189 183l26 661C304-40 266 0 200 0c-60 0-95-39-97-115-11-443-19-697-32-761s-20-128-20-190c0-60 41-95 95-95" id="x"/><path d="M873-956c-128 0-253 74-374 198S314-521 307-420l3 86c0 83 72 135 216 135 115 0 226-51 332-153s188-232 188-393c0-141-62-211-173-211zM315-32l8 453c-7 75-38 116-94 116-69 0-110-39-113-119L69-1019c5-75 38-122 102-122 70 0 103 47 105 123l6 239c159-246 363-369 612-369 231 0 349 146 349 401 0 176-67 341-199 494S741-3 530-3c-87 0-159-10-215-29" id="y"/><g id="i"><use transform="matrix(0.010850672743055553,0,0,0.010850672743055553,0,0)" xlink:href="#w"/><use transform="matrix(0.010850672743055553,0,0,0.010850672743055553,13.042508637152775,0)" xlink:href="#x"/><use transform="matrix(0.0054253255208333295,0,0,0.0054253255208333295,21.80985221354166,0)" xlink:href="#y"/></g><g id="j"><use transform="matrix(0.010850694444444444,0,0,0.010850694444444444,0,0)" xlink:href="#x"/><use transform="matrix(0.005425347222222219,0,0,0.005425347222222219,8.76736111111111,0)" xlink:href="#y"/></g></defs></g></svg>