<?xml version="1.0" encoding="utf-8" standalone="no"?>
<!DOCTYPE svg PUBLIC "-//W3C//DTD SVG 1.1//EN"
  "http://www.w3.org/Graphics/SVG/1.1/DTD/svg11.dtd">
<svg xmlns:xlink="http://www.w3.org/1999/xlink" width="413.302812pt" height="325.986375pt" viewBox="0 0 413.302812 325.986375" xmlns="http://www.w3.org/2000/svg" version="1.1">
 <metadata>
  <rdf:RDF xmlns:dc="http://purl.org/dc/elements/1.1/" xmlns:cc="http://creativecommons.org/ns#" xmlns:rdf="http://www.w3.org/1999/02/22-rdf-syntax-ns#">
   <cc:Work>
    <dc:type rdf:resource="http://purl.org/dc/dcmitype/StillImage"/>
    <dc:date>2023-07-16T12:39:59.404887</dc:date>
    <dc:format>image/svg+xml</dc:format>
    <dc:creator>
     <cc:Agent>
      <dc:title>Matplotlib v3.7.1, https://matplotlib.org/</dc:title>
     </cc:Agent>
    </dc:creator>
   </cc:Work>
  </rdf:RDF>
 </metadata>
 <defs>
  <style type="text/css">*{stroke-linejoin: round; stroke-linecap: butt}</style>
 </defs>
 <g id="figure_1">
  <g id="patch_1">
   <path d="M 0 325.986375 
L 413.302812 325.986375 
L 413.302812 0 
L 0 0 
L 0 325.986375 
z
" style="fill: none"/>
  </g>
  <g id="axes_1">
   <g id="patch_2">
    <path d="M 48.982813 288.430125 
L 406.102813 288.430125 
L 406.102813 22.318125 
L 48.982813 22.318125 
L 48.982813 288.430125 
z
" style="fill: none"/>
   </g>
   <g id="matplotlib.axis_1">
    <g id="xtick_1">
     <g id="line2d_1">
      <path d="M 65.21554 288.430125 
L 65.21554 22.318125 
" clip-path="url(#pb079cee3fb)" style="fill: none; stroke: #b0b0b0; stroke-width: 0.8; stroke-linecap: square"/>
     </g>
     <g id="line2d_2">
      <defs>
       <path id="m82111566f9" d="M 0 0 
L 0 3.5 
" style="stroke: #000000; stroke-width: 0.8"/>
      </defs>
      <g>
       <use xlink:href="#m82111566f9" x="65.21554" y="288.430125" style="stroke: #000000; stroke-width: 0.8"/>
      </g>
     </g>
     <g id="text_1">
      <!-- 0.0 -->
      <g transform="translate(57.263977 303.028562) scale(0.1 -0.1)">
       <defs>
        <path id="DejaVuSans-30" d="M 2034 4250 
Q 1547 4250 1301 3770 
Q 1056 3291 1056 2328 
Q 1056 1369 1301 889 
Q 1547 409 2034 409 
Q 2525 409 2770 889 
Q 3016 1369 3016 2328 
Q 3016 3291 2770 3770 
Q 2525 4250 2034 4250 
z
M 2034 4750 
Q 2819 4750 3233 4129 
Q 3647 3509 3647 2328 
Q 3647 1150 3233 529 
Q 2819 -91 2034 -91 
Q 1250 -91 836 529 
Q 422 1150 422 2328 
Q 422 3509 836 4129 
Q 1250 4750 2034 4750 
z
" transform="scale(0.015625)"/>
        <path id="DejaVuSans-2e" d="M 684 794 
L 1344 794 
L 1344 0 
L 684 0 
L 684 794 
z
" transform="scale(0.015625)"/>
       </defs>
       <use xlink:href="#DejaVuSans-30"/>
       <use xlink:href="#DejaVuSans-2e" x="63.623047"/>
       <use xlink:href="#DejaVuSans-30" x="95.410156"/>
      </g>
     </g>
    </g>
    <g id="xtick_2">
     <g id="line2d_3">
      <path d="M 105.797358 288.430125 
L 105.797358 22.318125 
" clip-path="url(#pb079cee3fb)" style="fill: none; stroke: #b0b0b0; stroke-width: 0.8; stroke-linecap: square"/>
     </g>
     <g id="line2d_4">
      <g>
       <use xlink:href="#m82111566f9" x="105.797358" y="288.430125" style="stroke: #000000; stroke-width: 0.8"/>
      </g>
     </g>
     <g id="text_2">
      <!-- 2.5 -->
      <g transform="translate(97.845795 303.028562) scale(0.1 -0.1)">
       <defs>
        <path id="DejaVuSans-32" d="M 1228 531 
L 3431 531 
L 3431 0 
L 469 0 
L 469 531 
Q 828 903 1448 1529 
Q 2069 2156 2228 2338 
Q 2531 2678 2651 2914 
Q 2772 3150 2772 3378 
Q 2772 3750 2511 3984 
Q 2250 4219 1831 4219 
Q 1534 4219 1204 4116 
Q 875 4013 500 3803 
L 500 4441 
Q 881 4594 1212 4672 
Q 1544 4750 1819 4750 
Q 2544 4750 2975 4387 
Q 3406 4025 3406 3419 
Q 3406 3131 3298 2873 
Q 3191 2616 2906 2266 
Q 2828 2175 2409 1742 
Q 1991 1309 1228 531 
z
" transform="scale(0.015625)"/>
        <path id="DejaVuSans-35" d="M 691 4666 
L 3169 4666 
L 3169 4134 
L 1269 4134 
L 1269 2991 
Q 1406 3038 1543 3061 
Q 1681 3084 1819 3084 
Q 2600 3084 3056 2656 
Q 3513 2228 3513 1497 
Q 3513 744 3044 326 
Q 2575 -91 1722 -91 
Q 1428 -91 1123 -41 
Q 819 9 494 109 
L 494 744 
Q 775 591 1075 516 
Q 1375 441 1709 441 
Q 2250 441 2565 725 
Q 2881 1009 2881 1497 
Q 2881 1984 2565 2268 
Q 2250 2553 1709 2553 
Q 1456 2553 1204 2497 
Q 953 2441 691 2322 
L 691 4666 
z
" transform="scale(0.015625)"/>
       </defs>
       <use xlink:href="#DejaVuSans-32"/>
       <use xlink:href="#DejaVuSans-2e" x="63.623047"/>
       <use xlink:href="#DejaVuSans-35" x="95.410156"/>
      </g>
     </g>
    </g>
    <g id="xtick_3">
     <g id="line2d_5">
      <path d="M 146.379176 288.430125 
L 146.379176 22.318125 
" clip-path="url(#pb079cee3fb)" style="fill: none; stroke: #b0b0b0; stroke-width: 0.8; stroke-linecap: square"/>
     </g>
     <g id="line2d_6">
      <g>
       <use xlink:href="#m82111566f9" x="146.379176" y="288.430125" style="stroke: #000000; stroke-width: 0.8"/>
      </g>
     </g>
     <g id="text_3">
      <!-- 5.0 -->
      <g transform="translate(138.427614 303.028562) scale(0.1 -0.1)">
       <use xlink:href="#DejaVuSans-35"/>
       <use xlink:href="#DejaVuSans-2e" x="63.623047"/>
       <use xlink:href="#DejaVuSans-30" x="95.410156"/>
      </g>
     </g>
    </g>
    <g id="xtick_4">
     <g id="line2d_7">
      <path d="M 186.960994 288.430125 
L 186.960994 22.318125 
" clip-path="url(#pb079cee3fb)" style="fill: none; stroke: #b0b0b0; stroke-width: 0.8; stroke-linecap: square"/>
     </g>
     <g id="line2d_8">
      <g>
       <use xlink:href="#m82111566f9" x="186.960994" y="288.430125" style="stroke: #000000; stroke-width: 0.8"/>
      </g>
     </g>
     <g id="text_4">
      <!-- 7.5 -->
      <g transform="translate(179.009432 303.028562) scale(0.1 -0.1)">
       <defs>
        <path id="DejaVuSans-37" d="M 525 4666 
L 3525 4666 
L 3525 4397 
L 1831 0 
L 1172 0 
L 2766 4134 
L 525 4134 
L 525 4666 
z
" transform="scale(0.015625)"/>
       </defs>
       <use xlink:href="#DejaVuSans-37"/>
       <use xlink:href="#DejaVuSans-2e" x="63.623047"/>
       <use xlink:href="#DejaVuSans-35" x="95.410156"/>
      </g>
     </g>
    </g>
    <g id="xtick_5">
     <g id="line2d_9">
      <path d="M 227.542813 288.430125 
L 227.542813 22.318125 
" clip-path="url(#pb079cee3fb)" style="fill: none; stroke: #b0b0b0; stroke-width: 0.8; stroke-linecap: square"/>
     </g>
     <g id="line2d_10">
      <g>
       <use xlink:href="#m82111566f9" x="227.542813" y="288.430125" style="stroke: #000000; stroke-width: 0.8"/>
      </g>
     </g>
     <g id="text_5">
      <!-- 10.0 -->
      <g transform="translate(216.41 303.028562) scale(0.1 -0.1)">
       <defs>
        <path id="DejaVuSans-31" d="M 794 531 
L 1825 531 
L 1825 4091 
L 703 3866 
L 703 4441 
L 1819 4666 
L 2450 4666 
L 2450 531 
L 3481 531 
L 3481 0 
L 794 0 
L 794 531 
z
" transform="scale(0.015625)"/>
       </defs>
       <use xlink:href="#DejaVuSans-31"/>
       <use xlink:href="#DejaVuSans-30" x="63.623047"/>
       <use xlink:href="#DejaVuSans-2e" x="127.246094"/>
       <use xlink:href="#DejaVuSans-30" x="159.033203"/>
      </g>
     </g>
    </g>
    <g id="xtick_6">
     <g id="line2d_11">
      <path d="M 268.124631 288.430125 
L 268.124631 22.318125 
" clip-path="url(#pb079cee3fb)" style="fill: none; stroke: #b0b0b0; stroke-width: 0.8; stroke-linecap: square"/>
     </g>
     <g id="line2d_12">
      <g>
       <use xlink:href="#m82111566f9" x="268.124631" y="288.430125" style="stroke: #000000; stroke-width: 0.8"/>
      </g>
     </g>
     <g id="text_6">
      <!-- 12.5 -->
      <g transform="translate(256.991818 303.028562) scale(0.1 -0.1)">
       <use xlink:href="#DejaVuSans-31"/>
       <use xlink:href="#DejaVuSans-32" x="63.623047"/>
       <use xlink:href="#DejaVuSans-2e" x="127.246094"/>
       <use xlink:href="#DejaVuSans-35" x="159.033203"/>
      </g>
     </g>
    </g>
    <g id="xtick_7">
     <g id="line2d_13">
      <path d="M 308.706449 288.430125 
L 308.706449 22.318125 
" clip-path="url(#pb079cee3fb)" style="fill: none; stroke: #b0b0b0; stroke-width: 0.8; stroke-linecap: square"/>
     </g>
     <g id="line2d_14">
      <g>
       <use xlink:href="#m82111566f9" x="308.706449" y="288.430125" style="stroke: #000000; stroke-width: 0.8"/>
      </g>
     </g>
     <g id="text_7">
      <!-- 15.0 -->
      <g transform="translate(297.573636 303.028562) scale(0.1 -0.1)">
       <use xlink:href="#DejaVuSans-31"/>
       <use xlink:href="#DejaVuSans-35" x="63.623047"/>
       <use xlink:href="#DejaVuSans-2e" x="127.246094"/>
       <use xlink:href="#DejaVuSans-30" x="159.033203"/>
      </g>
     </g>
    </g>
    <g id="xtick_8">
     <g id="line2d_15">
      <path d="M 349.288267 288.430125 
L 349.288267 22.318125 
" clip-path="url(#pb079cee3fb)" style="fill: none; stroke: #b0b0b0; stroke-width: 0.8; stroke-linecap: square"/>
     </g>
     <g id="line2d_16">
      <g>
       <use xlink:href="#m82111566f9" x="349.288267" y="288.430125" style="stroke: #000000; stroke-width: 0.8"/>
      </g>
     </g>
     <g id="text_8">
      <!-- 17.5 -->
      <g transform="translate(338.155455 303.028562) scale(0.1 -0.1)">
       <use xlink:href="#DejaVuSans-31"/>
       <use xlink:href="#DejaVuSans-37" x="63.623047"/>
       <use xlink:href="#DejaVuSans-2e" x="127.246094"/>
       <use xlink:href="#DejaVuSans-35" x="159.033203"/>
      </g>
     </g>
    </g>
    <g id="xtick_9">
     <g id="line2d_17">
      <path d="M 389.870085 288.430125 
L 389.870085 22.318125 
" clip-path="url(#pb079cee3fb)" style="fill: none; stroke: #b0b0b0; stroke-width: 0.8; stroke-linecap: square"/>
     </g>
     <g id="line2d_18">
      <g>
       <use xlink:href="#m82111566f9" x="389.870085" y="288.430125" style="stroke: #000000; stroke-width: 0.8"/>
      </g>
     </g>
     <g id="text_9">
      <!-- 20.0 -->
      <g transform="translate(378.737273 303.028562) scale(0.1 -0.1)">
       <use xlink:href="#DejaVuSans-32"/>
       <use xlink:href="#DejaVuSans-30" x="63.623047"/>
       <use xlink:href="#DejaVuSans-2e" x="127.246094"/>
       <use xlink:href="#DejaVuSans-30" x="159.033203"/>
      </g>
     </g>
    </g>
    <g id="text_10">
     <!-- time (s) -->
     <g transform="translate(208.151406 316.706687) scale(0.1 -0.1)">
      <defs>
       <path id="DejaVuSans-74" d="M 1172 4494 
L 1172 3500 
L 2356 3500 
L 2356 3053 
L 1172 3053 
L 1172 1153 
Q 1172 725 1289 603 
Q 1406 481 1766 481 
L 2356 481 
L 2356 0 
L 1766 0 
Q 1100 0 847 248 
Q 594 497 594 1153 
L 594 3053 
L 172 3053 
L 172 3500 
L 594 3500 
L 594 4494 
L 1172 4494 
z
" transform="scale(0.015625)"/>
       <path id="DejaVuSans-69" d="M 603 3500 
L 1178 3500 
L 1178 0 
L 603 0 
L 603 3500 
z
M 603 4863 
L 1178 4863 
L 1178 4134 
L 603 4134 
L 603 4863 
z
" transform="scale(0.015625)"/>
       <path id="DejaVuSans-6d" d="M 3328 2828 
Q 3544 3216 3844 3400 
Q 4144 3584 4550 3584 
Q 5097 3584 5394 3201 
Q 5691 2819 5691 2113 
L 5691 0 
L 5113 0 
L 5113 2094 
Q 5113 2597 4934 2840 
Q 4756 3084 4391 3084 
Q 3944 3084 3684 2787 
Q 3425 2491 3425 1978 
L 3425 0 
L 2847 0 
L 2847 2094 
Q 2847 2600 2669 2842 
Q 2491 3084 2119 3084 
Q 1678 3084 1418 2786 
Q 1159 2488 1159 1978 
L 1159 0 
L 581 0 
L 581 3500 
L 1159 3500 
L 1159 2956 
Q 1356 3278 1631 3431 
Q 1906 3584 2284 3584 
Q 2666 3584 2933 3390 
Q 3200 3197 3328 2828 
z
" transform="scale(0.015625)"/>
       <path id="DejaVuSans-65" d="M 3597 1894 
L 3597 1613 
L 953 1613 
Q 991 1019 1311 708 
Q 1631 397 2203 397 
Q 2534 397 2845 478 
Q 3156 559 3463 722 
L 3463 178 
Q 3153 47 2828 -22 
Q 2503 -91 2169 -91 
Q 1331 -91 842 396 
Q 353 884 353 1716 
Q 353 2575 817 3079 
Q 1281 3584 2069 3584 
Q 2775 3584 3186 3129 
Q 3597 2675 3597 1894 
z
M 3022 2063 
Q 3016 2534 2758 2815 
Q 2500 3097 2075 3097 
Q 1594 3097 1305 2825 
Q 1016 2553 972 2059 
L 3022 2063 
z
" transform="scale(0.015625)"/>
       <path id="DejaVuSans-20" transform="scale(0.015625)"/>
       <path id="DejaVuSans-28" d="M 1984 4856 
Q 1566 4138 1362 3434 
Q 1159 2731 1159 2009 
Q 1159 1288 1364 580 
Q 1569 -128 1984 -844 
L 1484 -844 
Q 1016 -109 783 600 
Q 550 1309 550 2009 
Q 550 2706 781 3412 
Q 1013 4119 1484 4856 
L 1984 4856 
z
" transform="scale(0.015625)"/>
       <path id="DejaVuSans-73" d="M 2834 3397 
L 2834 2853 
Q 2591 2978 2328 3040 
Q 2066 3103 1784 3103 
Q 1356 3103 1142 2972 
Q 928 2841 928 2578 
Q 928 2378 1081 2264 
Q 1234 2150 1697 2047 
L 1894 2003 
Q 2506 1872 2764 1633 
Q 3022 1394 3022 966 
Q 3022 478 2636 193 
Q 2250 -91 1575 -91 
Q 1294 -91 989 -36 
Q 684 19 347 128 
L 347 722 
Q 666 556 975 473 
Q 1284 391 1588 391 
Q 1994 391 2212 530 
Q 2431 669 2431 922 
Q 2431 1156 2273 1281 
Q 2116 1406 1581 1522 
L 1381 1569 
Q 847 1681 609 1914 
Q 372 2147 372 2553 
Q 372 3047 722 3315 
Q 1072 3584 1716 3584 
Q 2034 3584 2315 3537 
Q 2597 3491 2834 3397 
z
" transform="scale(0.015625)"/>
       <path id="DejaVuSans-29" d="M 513 4856 
L 1013 4856 
Q 1481 4119 1714 3412 
Q 1947 2706 1947 2009 
Q 1947 1309 1714 600 
Q 1481 -109 1013 -844 
L 513 -844 
Q 928 -128 1133 580 
Q 1338 1288 1338 2009 
Q 1338 2731 1133 3434 
Q 928 4138 513 4856 
z
" transform="scale(0.015625)"/>
      </defs>
      <use xlink:href="#DejaVuSans-74"/>
      <use xlink:href="#DejaVuSans-69" x="39.208984"/>
      <use xlink:href="#DejaVuSans-6d" x="66.992188"/>
      <use xlink:href="#DejaVuSans-65" x="164.404297"/>
      <use xlink:href="#DejaVuSans-20" x="225.927734"/>
      <use xlink:href="#DejaVuSans-28" x="257.714844"/>
      <use xlink:href="#DejaVuSans-73" x="296.728516"/>
      <use xlink:href="#DejaVuSans-29" x="348.828125"/>
     </g>
    </g>
   </g>
   <g id="matplotlib.axis_2">
    <g id="ytick_1">
     <g id="line2d_19">
      <path d="M 48.982813 276.503129 
L 406.102813 276.503129 
" clip-path="url(#pb079cee3fb)" style="fill: none; stroke: #b0b0b0; stroke-width: 0.8; stroke-linecap: square"/>
     </g>
     <g id="line2d_20">
      <defs>
       <path id="m09a91e4570" d="M 0 0 
L -3.5 0 
" style="stroke: #000000; stroke-width: 0.8"/>
      </defs>
      <g>
       <use xlink:href="#m09a91e4570" x="48.982813" y="276.503129" style="stroke: #000000; stroke-width: 0.8"/>
      </g>
     </g>
     <g id="text_11">
      <!-- −40 -->
      <g transform="translate(20.878125 280.302347) scale(0.1 -0.1)">
       <defs>
        <path id="DejaVuSans-2212" d="M 678 2272 
L 4684 2272 
L 4684 1741 
L 678 1741 
L 678 2272 
z
" transform="scale(0.015625)"/>
        <path id="DejaVuSans-34" d="M 2419 4116 
L 825 1625 
L 2419 1625 
L 2419 4116 
z
M 2253 4666 
L 3047 4666 
L 3047 1625 
L 3713 1625 
L 3713 1100 
L 3047 1100 
L 3047 0 
L 2419 0 
L 2419 1100 
L 313 1100 
L 313 1709 
L 2253 4666 
z
" transform="scale(0.015625)"/>
       </defs>
       <use xlink:href="#DejaVuSans-2212"/>
       <use xlink:href="#DejaVuSans-34" x="83.789062"/>
       <use xlink:href="#DejaVuSans-30" x="147.412109"/>
      </g>
     </g>
    </g>
    <g id="ytick_2">
     <g id="line2d_21">
      <path d="M 48.982813 242.702384 
L 406.102813 242.702384 
" clip-path="url(#pb079cee3fb)" style="fill: none; stroke: #b0b0b0; stroke-width: 0.8; stroke-linecap: square"/>
     </g>
     <g id="line2d_22">
      <g>
       <use xlink:href="#m09a91e4570" x="48.982813" y="242.702384" style="stroke: #000000; stroke-width: 0.8"/>
      </g>
     </g>
     <g id="text_12">
      <!-- −30 -->
      <g transform="translate(20.878125 246.501603) scale(0.1 -0.1)">
       <defs>
        <path id="DejaVuSans-33" d="M 2597 2516 
Q 3050 2419 3304 2112 
Q 3559 1806 3559 1356 
Q 3559 666 3084 287 
Q 2609 -91 1734 -91 
Q 1441 -91 1130 -33 
Q 819 25 488 141 
L 488 750 
Q 750 597 1062 519 
Q 1375 441 1716 441 
Q 2309 441 2620 675 
Q 2931 909 2931 1356 
Q 2931 1769 2642 2001 
Q 2353 2234 1838 2234 
L 1294 2234 
L 1294 2753 
L 1863 2753 
Q 2328 2753 2575 2939 
Q 2822 3125 2822 3475 
Q 2822 3834 2567 4026 
Q 2313 4219 1838 4219 
Q 1578 4219 1281 4162 
Q 984 4106 628 3988 
L 628 4550 
Q 988 4650 1302 4700 
Q 1616 4750 1894 4750 
Q 2613 4750 3031 4423 
Q 3450 4097 3450 3541 
Q 3450 3153 3228 2886 
Q 3006 2619 2597 2516 
z
" transform="scale(0.015625)"/>
       </defs>
       <use xlink:href="#DejaVuSans-2212"/>
       <use xlink:href="#DejaVuSans-33" x="83.789062"/>
       <use xlink:href="#DejaVuSans-30" x="147.412109"/>
      </g>
     </g>
    </g>
    <g id="ytick_3">
     <g id="line2d_23">
      <path d="M 48.982813 208.901639 
L 406.102813 208.901639 
" clip-path="url(#pb079cee3fb)" style="fill: none; stroke: #b0b0b0; stroke-width: 0.8; stroke-linecap: square"/>
     </g>
     <g id="line2d_24">
      <g>
       <use xlink:href="#m09a91e4570" x="48.982813" y="208.901639" style="stroke: #000000; stroke-width: 0.8"/>
      </g>
     </g>
     <g id="text_13">
      <!-- −20 -->
      <g transform="translate(20.878125 212.700858) scale(0.1 -0.1)">
       <use xlink:href="#DejaVuSans-2212"/>
       <use xlink:href="#DejaVuSans-32" x="83.789062"/>
       <use xlink:href="#DejaVuSans-30" x="147.412109"/>
      </g>
     </g>
    </g>
    <g id="ytick_4">
     <g id="line2d_25">
      <path d="M 48.982813 175.100894 
L 406.102813 175.100894 
" clip-path="url(#pb079cee3fb)" style="fill: none; stroke: #b0b0b0; stroke-width: 0.8; stroke-linecap: square"/>
     </g>
     <g id="line2d_26">
      <g>
       <use xlink:href="#m09a91e4570" x="48.982813" y="175.100894" style="stroke: #000000; stroke-width: 0.8"/>
      </g>
     </g>
     <g id="text_14">
      <!-- −10 -->
      <g transform="translate(20.878125 178.900113) scale(0.1 -0.1)">
       <use xlink:href="#DejaVuSans-2212"/>
       <use xlink:href="#DejaVuSans-31" x="83.789062"/>
       <use xlink:href="#DejaVuSans-30" x="147.412109"/>
      </g>
     </g>
    </g>
    <g id="ytick_5">
     <g id="line2d_27">
      <path d="M 48.982813 141.300149 
L 406.102813 141.300149 
" clip-path="url(#pb079cee3fb)" style="fill: none; stroke: #b0b0b0; stroke-width: 0.8; stroke-linecap: square"/>
     </g>
     <g id="line2d_28">
      <g>
       <use xlink:href="#m09a91e4570" x="48.982813" y="141.300149" style="stroke: #000000; stroke-width: 0.8"/>
      </g>
     </g>
     <g id="text_15">
      <!-- 0 -->
      <g transform="translate(35.620313 145.099368) scale(0.1 -0.1)">
       <use xlink:href="#DejaVuSans-30"/>
      </g>
     </g>
    </g>
    <g id="ytick_6">
     <g id="line2d_29">
      <path d="M 48.982813 107.499404 
L 406.102813 107.499404 
" clip-path="url(#pb079cee3fb)" style="fill: none; stroke: #b0b0b0; stroke-width: 0.8; stroke-linecap: square"/>
     </g>
     <g id="line2d_30">
      <g>
       <use xlink:href="#m09a91e4570" x="48.982813" y="107.499404" style="stroke: #000000; stroke-width: 0.8"/>
      </g>
     </g>
     <g id="text_16">
      <!-- 10 -->
      <g transform="translate(29.257813 111.298623) scale(0.1 -0.1)">
       <use xlink:href="#DejaVuSans-31"/>
       <use xlink:href="#DejaVuSans-30" x="63.623047"/>
      </g>
     </g>
    </g>
    <g id="ytick_7">
     <g id="line2d_31">
      <path d="M 48.982813 73.698659 
L 406.102813 73.698659 
" clip-path="url(#pb079cee3fb)" style="fill: none; stroke: #b0b0b0; stroke-width: 0.8; stroke-linecap: square"/>
     </g>
     <g id="line2d_32">
      <g>
       <use xlink:href="#m09a91e4570" x="48.982813" y="73.698659" style="stroke: #000000; stroke-width: 0.8"/>
      </g>
     </g>
     <g id="text_17">
      <!-- 20 -->
      <g transform="translate(29.257813 77.497878) scale(0.1 -0.1)">
       <use xlink:href="#DejaVuSans-32"/>
       <use xlink:href="#DejaVuSans-30" x="63.623047"/>
      </g>
     </g>
    </g>
    <g id="ytick_8">
     <g id="line2d_33">
      <path d="M 48.982813 39.897914 
L 406.102813 39.897914 
" clip-path="url(#pb079cee3fb)" style="fill: none; stroke: #b0b0b0; stroke-width: 0.8; stroke-linecap: square"/>
     </g>
     <g id="line2d_34">
      <g>
       <use xlink:href="#m09a91e4570" x="48.982813" y="39.897914" style="stroke: #000000; stroke-width: 0.8"/>
      </g>
     </g>
     <g id="text_18">
      <!-- 30 -->
      <g transform="translate(29.257813 43.697133) scale(0.1 -0.1)">
       <use xlink:href="#DejaVuSans-33"/>
       <use xlink:href="#DejaVuSans-30" x="63.623047"/>
      </g>
     </g>
    </g>
    <g id="text_19">
     <!-- theta (degree) -->
     <g transform="translate(14.798438 191.615531) rotate(-90) scale(0.1 -0.1)">
      <defs>
       <path id="DejaVuSans-68" d="M 3513 2113 
L 3513 0 
L 2938 0 
L 2938 2094 
Q 2938 2591 2744 2837 
Q 2550 3084 2163 3084 
Q 1697 3084 1428 2787 
Q 1159 2491 1159 1978 
L 1159 0 
L 581 0 
L 581 4863 
L 1159 4863 
L 1159 2956 
Q 1366 3272 1645 3428 
Q 1925 3584 2291 3584 
Q 2894 3584 3203 3211 
Q 3513 2838 3513 2113 
z
" transform="scale(0.015625)"/>
       <path id="DejaVuSans-61" d="M 2194 1759 
Q 1497 1759 1228 1600 
Q 959 1441 959 1056 
Q 959 750 1161 570 
Q 1363 391 1709 391 
Q 2188 391 2477 730 
Q 2766 1069 2766 1631 
L 2766 1759 
L 2194 1759 
z
M 3341 1997 
L 3341 0 
L 2766 0 
L 2766 531 
Q 2569 213 2275 61 
Q 1981 -91 1556 -91 
Q 1019 -91 701 211 
Q 384 513 384 1019 
Q 384 1609 779 1909 
Q 1175 2209 1959 2209 
L 2766 2209 
L 2766 2266 
Q 2766 2663 2505 2880 
Q 2244 3097 1772 3097 
Q 1472 3097 1187 3025 
Q 903 2953 641 2809 
L 641 3341 
Q 956 3463 1253 3523 
Q 1550 3584 1831 3584 
Q 2591 3584 2966 3190 
Q 3341 2797 3341 1997 
z
" transform="scale(0.015625)"/>
       <path id="DejaVuSans-64" d="M 2906 2969 
L 2906 4863 
L 3481 4863 
L 3481 0 
L 2906 0 
L 2906 525 
Q 2725 213 2448 61 
Q 2172 -91 1784 -91 
Q 1150 -91 751 415 
Q 353 922 353 1747 
Q 353 2572 751 3078 
Q 1150 3584 1784 3584 
Q 2172 3584 2448 3432 
Q 2725 3281 2906 2969 
z
M 947 1747 
Q 947 1113 1208 752 
Q 1469 391 1925 391 
Q 2381 391 2643 752 
Q 2906 1113 2906 1747 
Q 2906 2381 2643 2742 
Q 2381 3103 1925 3103 
Q 1469 3103 1208 2742 
Q 947 2381 947 1747 
z
" transform="scale(0.015625)"/>
       <path id="DejaVuSans-67" d="M 2906 1791 
Q 2906 2416 2648 2759 
Q 2391 3103 1925 3103 
Q 1463 3103 1205 2759 
Q 947 2416 947 1791 
Q 947 1169 1205 825 
Q 1463 481 1925 481 
Q 2391 481 2648 825 
Q 2906 1169 2906 1791 
z
M 3481 434 
Q 3481 -459 3084 -895 
Q 2688 -1331 1869 -1331 
Q 1566 -1331 1297 -1286 
Q 1028 -1241 775 -1147 
L 775 -588 
Q 1028 -725 1275 -790 
Q 1522 -856 1778 -856 
Q 2344 -856 2625 -561 
Q 2906 -266 2906 331 
L 2906 616 
Q 2728 306 2450 153 
Q 2172 0 1784 0 
Q 1141 0 747 490 
Q 353 981 353 1791 
Q 353 2603 747 3093 
Q 1141 3584 1784 3584 
Q 2172 3584 2450 3431 
Q 2728 3278 2906 2969 
L 2906 3500 
L 3481 3500 
L 3481 434 
z
" transform="scale(0.015625)"/>
       <path id="DejaVuSans-72" d="M 2631 2963 
Q 2534 3019 2420 3045 
Q 2306 3072 2169 3072 
Q 1681 3072 1420 2755 
Q 1159 2438 1159 1844 
L 1159 0 
L 581 0 
L 581 3500 
L 1159 3500 
L 1159 2956 
Q 1341 3275 1631 3429 
Q 1922 3584 2338 3584 
Q 2397 3584 2469 3576 
Q 2541 3569 2628 3553 
L 2631 2963 
z
" transform="scale(0.015625)"/>
      </defs>
      <use xlink:href="#DejaVuSans-74"/>
      <use xlink:href="#DejaVuSans-68" x="39.208984"/>
      <use xlink:href="#DejaVuSans-65" x="102.587891"/>
      <use xlink:href="#DejaVuSans-74" x="164.111328"/>
      <use xlink:href="#DejaVuSans-61" x="203.320312"/>
      <use xlink:href="#DejaVuSans-20" x="264.599609"/>
      <use xlink:href="#DejaVuSans-28" x="296.386719"/>
      <use xlink:href="#DejaVuSans-64" x="335.400391"/>
      <use xlink:href="#DejaVuSans-65" x="398.876953"/>
      <use xlink:href="#DejaVuSans-67" x="460.400391"/>
      <use xlink:href="#DejaVuSans-72" x="523.876953"/>
      <use xlink:href="#DejaVuSans-65" x="562.740234"/>
      <use xlink:href="#DejaVuSans-65" x="624.263672"/>
      <use xlink:href="#DejaVuSans-29" x="685.787109"/>
     </g>
    </g>
   </g>
   <g id="line2d_35">
    <path d="M 65.21554 276.334125 
L 65.459031 276.246562 
L 65.702522 275.898624 
L 66.027176 275.036887 
L 66.432994 273.334365 
L 67.00114 269.819105 
L 67.650449 264.251975 
L 68.462085 255.121671 
L 69.436049 241.311128 
L 70.653503 220.409079 
L 72.276776 188.130646 
L 76.984267 91.789838 
L 78.364049 69.307 
L 79.50034 54.284204 
L 80.39314 45.304949 
L 81.123613 39.961333 
L 81.772922 36.721695 
L 82.259903 35.216666 
L 82.665722 34.556795 
L 82.990376 34.414125 
L 83.233867 34.529154 
L 83.558522 34.968247 
L 83.96434 35.968112 
L 84.451322 37.813097 
L 85.100631 41.311334 
L 85.831103 46.567527 
L 86.723903 54.684159 
L 87.860194 67.280196 
L 89.402303 87.309337 
L 94.921431 161.717723 
L 96.220049 174.952454 
L 97.275176 183.625391 
L 98.167976 189.389713 
L 98.979613 193.329251 
L 99.710085 195.807969 
L 100.278231 197.049554 
L 100.765213 197.640543 
L 101.171031 197.80637 
L 101.495685 197.73382 
L 101.901503 197.393901 
L 102.388485 196.627452 
L 102.956631 195.264461 
L 103.60594 193.135538 
L 104.417576 189.69589 
L 105.39154 184.58537 
L 106.608994 177.015891 
L 108.556922 163.247513 
L 111.722303 140.721788 
L 113.264413 131.374616 
L 114.481867 125.258358 
L 115.536994 121.016272 
L 116.429794 118.240385 
L 117.241431 116.385602 
L 117.971903 115.260346 
L 118.540049 114.729327 
L 119.108194 114.499204 
L 119.595176 114.527574 
L 120.082158 114.757484 
L 120.650303 115.265475 
L 121.380776 116.281051 
L 122.111249 117.656405 
L 123.166376 120.203018 
L 124.302667 123.5278 
L 125.844776 128.681231 
L 129.984122 142.921095 
L 131.526231 147.27876 
L 132.662522 149.903894 
L 133.636485 151.702891 
L 134.529285 152.96834 
L 135.422085 153.853607 
L 136.152558 154.30562 
L 136.964194 154.521762 
L 137.775831 154.453742 
L 138.587467 154.121046 
L 139.561431 153.406104 
L 140.697722 152.197372 
L 142.158667 150.181187 
L 144.350085 146.572604 
L 148.24594 140.184141 
L 149.869213 138.081344 
L 151.248994 136.707324 
L 152.304122 135.934969 
L 153.521576 135.36257 
L 154.414376 135.149131 
L 155.631831 135.136069 
L 156.605794 135.33166 
L 157.660922 135.724807 
L 159.284194 136.637987 
L 161.63794 138.394081 
L 167.238231 142.614928 
L 168.618013 143.337725 
L 170.403613 143.977869 
L 172.189212 144.275011 
L 174.055976 144.236977 
L 175.354594 144.030955 
L 176.81554 143.657043 
L 178.519976 143.087065 
L 183.95794 141.043477 
L 187.042158 140.237896 
L 189.801722 139.913844 
L 192.723613 139.972846 
L 196.781794 140.536302 
L 200.92114 141.29003 
L 206.196776 141.907445 
L 208.225867 141.975818 
L 213.663831 141.74534 
L 216.666885 141.489475 
L 219.751103 141.234974 
L 222.429503 141.071619 
L 230.545867 141.054639 
L 235.334522 141.24765 
L 240.610158 141.414837 
L 243.532049 141.449518 
L 246.535103 141.44187 
L 251.161431 141.36473 
L 254.976122 141.293696 
L 258.303831 141.245302 
L 262.930158 141.229728 
L 266.257867 141.243654 
L 270.072558 141.280013 
L 273.887249 141.310541 
L 277.377285 141.331328 
L 281.354303 141.331909 
L 284.84434 141.324416 
L 288.659031 141.305302 
L 292.473722 141.292971 
L 296.126085 141.283115 
L 299.940776 141.285846 
L 303.59314 141.289257 
L 307.245503 141.299378 
L 311.060194 141.303421 
L 314.712558 141.308621 
L 318.527249 141.305371 
L 322.179613 141.304699 
L 325.831976 141.298641 
L 329.646667 141.298284 
L 333.299031 141.294896 
L 337.113722 141.298006 
L 340.766085 141.297166 
L 344.418449 141.301275 
L 348.070813 141.299982 
L 351.723176 141.302735 
L 355.37554 141.299912 
L 359.027903 141.301561 
L 362.680267 141.298351 
L 366.332631 141.300281 
L 369.984994 141.297743 
L 373.637358 141.300389 
L 377.289722 141.298339 
L 380.942085 141.301129 
L 384.594449 141.298916 
L 388.246813 141.301376 
L 389.870085 141.301339 
L 389.870085 141.301339 
" clip-path="url(#pb079cee3fb)" style="fill: none; stroke: #1f77b4; stroke-width: 1.5; stroke-linecap: square"/>
   </g>
   <g id="line2d_36">
    <path d="M 65.21554 153.60362 
L 65.783685 153.495805 
L 66.351831 153.144479 
L 67.00114 152.461714 
L 67.731613 151.359098 
L 68.624413 149.572031 
L 69.67954 146.908847 
L 70.978158 142.94695 
L 72.601431 137.21509 
L 77.795903 118.289817 
L 79.013358 114.849566 
L 79.824994 113.210105 
L 80.474303 112.382379 
L 81.042449 112.010281 
L 81.529431 111.946003 
L 82.016413 112.113219 
L 82.503394 112.505687 
L 83.07154 113.236168 
L 83.802013 114.591716 
L 84.613649 116.598562 
L 85.587613 119.627075 
L 86.723903 123.873292 
L 88.266013 130.522892 
L 93.622813 154.565834 
L 94.921431 159.097172 
L 95.976558 162.095195 
L 96.950522 164.250962 
L 97.843322 165.681208 
L 98.573794 166.459523 
L 99.223103 166.850313 
L 99.872413 166.96354 
L 100.521722 166.806529 
L 101.171031 166.389777 
L 101.982667 165.524306 
L 102.875467 164.164252 
L 103.849431 162.255875 
L 104.985722 159.563436 
L 106.446667 155.564657 
L 109.206231 147.325438 
L 111.559976 140.745337 
L 112.939758 137.483967 
L 114.238376 134.975662 
L 115.374667 133.284946 
L 116.429794 132.162714 
L 117.241431 131.592886 
L 117.971903 131.293854 
L 118.864703 131.201738 
L 119.595176 131.330232 
L 120.56914 131.772852 
L 121.705431 132.632331 
L 123.004049 133.986061 
L 124.789649 136.301332 
L 129.902958 143.422541 
L 131.607394 145.244641 
L 132.743685 146.182733 
L 133.798812 146.835327 
L 135.097431 147.334047 
L 136.396049 147.504825 
L 137.694667 147.368556 
L 139.155613 146.892075 
L 140.860049 145.987074 
L 142.402158 144.948661 
L 147.921285 140.929759 
L 149.463394 140.058566 
L 151.411322 139.264067 
L 153.278085 138.853567 
L 154.49554 138.763913 
L 156.524631 138.908846 
L 157.985576 139.197376 
L 159.690013 139.674083 
L 166.588922 141.942299 
L 169.67314 142.536948 
L 172.595031 142.694186 
L 176.003903 142.440107 
L 186.798667 140.843025 
L 191.587322 140.722852 
L 193.941067 140.820677 
L 201.651612 141.399575 
L 210.254958 141.588889 
L 217.640849 141.331541 
L 223.403467 141.181539 
L 226.406522 141.163382 
L 231.682158 141.224501 
L 235.334522 141.28822 
L 238.743394 141.339217 
L 242.071103 141.367614 
L 246.535103 141.360126 
L 250.02514 141.337008 
L 253.677503 141.30276 
L 257.654522 141.279376 
L 261.144558 141.26836 
L 265.121576 141.276378 
L 268.77394 141.287567 
L 272.426303 141.304484 
L 276.240994 141.312137 
L 279.893358 141.317036 
L 283.708049 141.310684 
L 287.360413 141.306209 
L 291.012776 141.297122 
L 294.827467 141.295406 
L 298.479831 141.292442 
L 302.294522 141.297158 
L 305.946885 141.298063 
L 309.599249 141.303436 
L 313.251613 141.302567 
L 316.903976 141.304986 
L 320.55634 141.301371 
L 324.208703 141.302197 
L 327.861067 141.298419 
L 331.513431 141.300196 
L 335.165794 141.297843 
L 338.818158 141.300877 
L 342.470522 141.2992 
L 346.122885 141.302237 
L 349.775249 141.300065 
L 353.427613 141.302422 
L 357.079976 141.299681 
L 360.73234 141.301757 
L 364.384703 141.299051 
L 368.037067 141.301382 
L 371.689431 141.298999 
L 375.341794 141.301587 
L 378.994158 141.299318 
L 382.646522 141.301874 
L 386.298885 141.299477 
L 389.870085 141.299445 
L 389.870085 141.299445 
" clip-path="url(#pb079cee3fb)" style="fill: none; stroke: #ff7f0e; stroke-width: 1.5; stroke-linecap: square"/>
   </g>
   <g id="line2d_37">
    <path d="M 65.21554 79.681391 
L 65.459031 79.766903 
L 65.702522 80.103895 
L 66.027176 80.927682 
L 66.514158 82.914756 
L 67.082303 86.262253 
L 67.812776 91.950989 
L 68.78674 101.389194 
L 70.328849 118.840684 
L 73.413067 154.158493 
L 74.792849 167.229339 
L 75.92914 175.954138 
L 76.903103 181.800715 
L 77.71474 185.483586 
L 78.445213 187.877098 
L 79.094522 189.289662 
L 79.662667 189.993619 
L 80.068485 190.204777 
L 80.474303 190.183156 
L 80.880122 189.938867 
L 81.367103 189.367258 
L 81.935249 188.342221 
L 82.665722 186.510755 
L 83.558522 183.593047 
L 84.370158 180.233925 
L 85.262958 175.530858 
L 86.561576 167.28503 
L 88.915322 150.345242 
L 91.187903 134.657236 
L 92.648849 126.186836 
L 93.866303 120.502408 
L 94.840267 116.962994 
L 95.651903 114.729258 
L 96.382376 113.275385 
L 97.031685 112.423194 
L 97.680994 111.970701 
L 98.24914 111.892097 
L 98.736122 112.04516 
L 99.223103 112.393071 
L 99.791249 113.027506 
L 100.602885 114.33193 
L 101.576849 116.430035 
L 102.794303 119.706549 
L 104.255249 124.284313 
L 109.449722 140.90082 
L 110.829503 144.258422 
L 111.884631 146.333857 
L 113.020922 148.047226 
L 113.994885 149.079028 
L 114.887685 149.67362 
L 115.618158 149.926156 
L 116.510958 149.954773 
L 117.241431 149.775046 
L 118.215394 149.271772 
L 119.351685 148.363392 
L 120.812631 146.805375 
L 123.24754 143.664498 
L 125.763613 140.379723 
L 127.71154 138.232061 
L 129.253649 136.934315 
L 130.308776 136.280817 
L 131.607394 135.759206 
L 132.906013 135.543036 
L 134.285794 135.629512 
L 135.340922 135.886167 
L 137.045358 136.601404 
L 138.42514 137.375947 
L 145.648703 141.909466 
L 147.840122 142.76672 
L 149.13874 143.083611 
L 150.437358 143.255291 
L 151.81714 143.289507 
L 154.170885 143.03348 
L 155.875322 142.669145 
L 163.829358 140.559722 
L 165.614958 140.278617 
L 167.319394 140.124256 
L 170.728267 140.148822 
L 175.760413 140.73395 
L 179.088122 141.216115 
L 185.256558 141.743817 
L 191.424994 141.624443 
L 196.375976 141.306989 
L 207.333067 141.069637 
L 210.336122 141.146539 
L 214.150813 141.27183 
L 219.101794 141.384494 
L 222.104849 141.409496 
L 227.055831 141.37404 
L 230.545867 141.326376 
L 234.035903 141.27672 
L 238.337576 141.246886 
L 241.665285 141.243819 
L 245.642303 141.266386 
L 249.294667 141.290191 
L 252.947031 141.314645 
L 256.924049 141.323561 
L 260.414085 141.324312 
L 264.228776 141.311654 
L 267.88114 141.302004 
L 271.533503 141.290333 
L 275.348194 141.289021 
L 279.000558 141.28851 
L 282.815249 141.296435 
L 286.467613 141.299726 
L 290.119976 141.306143 
L 293.934667 141.304948 
L 297.587031 141.306103 
L 301.239394 141.30108 
L 304.891758 141.30093 
L 308.544122 141.296846 
L 312.196485 141.298943 
L 315.848849 141.297248 
L 319.501213 141.300966 
L 323.153576 141.299735 
L 326.80594 141.302894 
L 330.458303 141.300554 
L 334.110667 141.302603 
L 337.763031 141.299555 
L 341.415394 141.301449 
L 345.067758 141.29871 
L 348.720122 141.301141 
L 352.372485 141.298911 
L 356.024849 141.301645 
L 359.677212 141.299456 
L 363.329576 141.302022 
L 366.98194 141.299572 
L 370.634303 141.301905 
L 374.286667 141.299327 
L 377.939031 141.301655 
L 381.591394 141.299164 
L 385.243758 141.301616 
L 388.896122 141.299231 
L 389.870085 141.299249 
L 389.870085 141.299249 
" clip-path="url(#pb079cee3fb)" style="fill: none; stroke: #2ca02c; stroke-width: 1.5; stroke-linecap: square"/>
   </g>
   <g id="line2d_38">
    <path d="M 65.21554 196.192559 
L 65.377867 196.132788 
L 65.621358 195.610016 
L 65.946013 194.17027 
L 66.432994 190.631213 
L 67.082303 183.896565 
L 68.056267 171.138445 
L 70.491176 138.326955 
L 71.302813 130.608022 
L 72.033285 125.762252 
L 72.682594 122.880656 
L 73.25074 121.288913 
L 73.737722 120.516575 
L 74.224703 120.199564 
L 74.630522 120.236118 
L 75.03634 120.489973 
L 75.685649 121.297582 
L 76.497285 122.828813 
L 77.71474 125.829368 
L 79.50034 130.839751 
L 81.854085 137.059296 
L 83.07154 139.723691 
L 84.370158 142.016996 
L 85.587613 143.629804 
L 86.480413 144.498179 
L 87.616703 145.231435 
L 88.752994 145.593744 
L 89.970449 145.626037 
L 90.863249 145.463474 
L 92.486522 144.846283 
L 95.083758 143.365787 
L 97.762158 141.722596 
L 100.521722 140.365961 
L 102.794303 139.674155 
L 104.985722 139.40206 
L 106.365503 139.405175 
L 109.287394 139.767342 
L 118.296558 141.64467 
L 122.35474 141.95718 
L 127.224558 141.777953 
L 132.662522 141.285997 
L 141.022376 140.946721 
L 143.619613 140.998842 
L 146.541503 141.109958 
L 150.193867 141.26643 
L 153.196922 141.373676 
L 219.994594 141.294533 
L 223.646958 141.303857 
L 227.461649 141.305445 
L 231.114013 141.308057 
L 234.928703 141.302975 
L 238.581067 141.301827 
L 242.233431 141.296408 
L 246.048122 141.297341 
L 249.700485 141.295176 
L 253.352849 141.298995 
L 257.005213 141.298295 
L 260.657576 141.302072 
L 264.30994 141.300233 
L 267.962303 141.302474 
L 271.614667 141.299362 
L 275.267031 141.300983 
L 278.919394 141.297959 
L 282.571758 141.300157 
L 286.224122 141.29786 
L 289.876485 141.300632 
L 293.528849 141.298588 
L 297.181213 141.301284 
L 300.833576 141.298949 
L 304.48594 141.3013 
L 308.138303 141.298705 
L 311.790667 141.300954 
L 315.443031 141.29841 
L 319.095394 141.300803 
L 322.747758 141.298421 
L 326.400122 141.30093 
L 330.052485 141.298587 
L 333.704849 141.301066 
L 337.357213 141.298651 
L 341.009576 141.301053 
L 344.66194 141.298587 
L 348.314303 141.300975 
L 351.966667 141.298527 
L 355.619031 141.300949 
L 359.271394 141.298536 
L 362.923758 141.300981 
L 366.576122 141.298573 
L 370.228485 141.301009 
L 373.880849 141.298584 
L 377.533213 141.301003 
L 381.185576 141.298568 
L 384.83794 141.300985 
L 388.490303 141.298556 
L 389.870085 141.300981 
L 389.870085 141.300981 
" clip-path="url(#pb079cee3fb)" style="fill: none; stroke: #d62728; stroke-width: 1.5; stroke-linecap: square"/>
   </g>
   <g id="line2d_39">
    <path d="M 65.21554 166.819712 
L 66.270667 166.724013 
L 67.244631 166.42842 
L 67.89394 165.917619 
L 68.624413 164.960937 
L 69.354885 163.63572 
L 70.328849 161.348319 
L 71.546303 157.790429 
L 72.926085 153.071722 
L 78.932194 131.535747 
L 80.149649 128.292151 
L 81.28594 125.887511 
L 82.259903 124.346294 
L 83.152703 123.373534 
L 83.883176 122.886995 
L 84.613649 122.682807 
L 85.262958 122.725961 
L 85.912267 122.973563 
L 86.64274 123.480749 
L 87.53554 124.411307 
L 88.42834 125.636341 
L 89.726958 127.862613 
L 91.512558 131.523899 
L 96.301213 141.865078 
L 97.924485 144.671115 
L 99.304267 146.540952 
L 100.278231 147.543458 
L 101.171031 148.222807 
L 102.226158 148.7214 
L 103.037794 148.891426 
L 103.849431 148.882967 
L 104.661067 148.707369 
L 105.553867 148.340381 
L 106.852485 147.518279 
L 108.475758 146.122911 
L 111.316485 143.160834 
L 114.644194 139.825206 
L 116.023976 138.720682 
L 117.647249 137.735037 
L 119.189358 137.1468 
L 120.244485 136.938667 
L 121.786594 136.918042 
L 122.922885 137.09378 
L 124.14034 137.435754 
L 126.331758 138.368468 
L 128.279685 139.394518 
L 133.717649 142.100108 
L 135.259758 142.611293 
L 137.53234 143.057823 
L 139.804922 143.143242 
L 142.483322 142.849136 
L 144.350085 142.471247 
L 150.437358 140.994462 
L 154.333213 140.416743 
L 157.985576 140.331231 
L 160.014667 140.446532 
L 171.783394 141.656572 
L 178.114158 141.660288 
L 185.013067 141.28728 
L 196.862958 141.134883 
L 201.164631 141.253021 
L 205.466303 141.352446 
L 208.631685 141.393209 
L 213.744994 141.380192 
L 217.235031 141.342442 
L 220.887394 141.293571 
L 225.02674 141.260318 
L 228.354449 141.249824 
L 232.331467 141.264 
L 235.983831 141.283239 
L 239.636194 141.306972 
L 243.450885 141.318152 
L 246.940922 141.322832 
L 250.755613 141.31377 
L 254.407976 141.305763 
L 258.06034 141.293796 
L 261.875031 141.290767 
L 265.527394 141.288216 
L 269.342085 141.294509 
L 272.994449 141.297151 
L 276.646813 141.303811 
L 280.461503 141.30345 
L 284.113867 141.30551 
L 287.766231 141.301119 
L 291.418594 141.301176 
L 295.070958 141.296898 
L 298.723322 141.298584 
L 302.375685 141.296454 
L 306.028049 141.299885 
L 309.680413 141.298569 
L 313.332776 141.30183 
L 316.98514 141.299681 
L 320.637503 141.301925 
L 324.289867 141.298994 
L 327.942231 141.300915 
L 331.594594 141.298116 
L 335.246958 141.300454 
L 338.899322 141.298131 
L 342.551685 141.300815 
L 346.204049 141.298614 
L 349.856413 141.301213 
L 353.508776 141.298805 
L 357.16114 141.301181 
L 360.813503 141.298621 
L 364.465867 141.300953 
L 368.118231 141.298444 
L 371.770594 141.300878 
L 375.422958 141.298471 
L 379.075322 141.300971 
L 382.727685 141.298579 
L 386.380049 141.30105 
L 389.870085 141.298608 
L 389.870085 141.298608 
" clip-path="url(#pb079cee3fb)" style="fill: none; stroke: #9467bd; stroke-width: 1.5; stroke-linecap: square"/>
   </g>
   <g id="patch_3">
    <path d="M 48.982813 288.430125 
L 48.982813 22.318125 
" style="fill: none; stroke: #000000; stroke-width: 0.8; stroke-linejoin: miter; stroke-linecap: square"/>
   </g>
   <g id="patch_4">
    <path d="M 406.102813 288.430125 
L 406.102813 22.318125 
" style="fill: none; stroke: #000000; stroke-width: 0.8; stroke-linejoin: miter; stroke-linecap: square"/>
   </g>
   <g id="patch_5">
    <path d="M 48.982813 288.430125 
L 406.102813 288.430125 
" style="fill: none; stroke: #000000; stroke-width: 0.8; stroke-linejoin: miter; stroke-linecap: square"/>
   </g>
   <g id="patch_6">
    <path d="M 48.982813 22.318125 
L 406.102813 22.318125 
" style="fill: none; stroke: #000000; stroke-width: 0.8; stroke-linejoin: miter; stroke-linecap: square"/>
   </g>
   <g id="text_20">
    <!-- theta vs time -->
    <g transform="translate(187.62125 16.318125) scale(0.12 -0.12)">
     <defs>
      <path id="DejaVuSans-76" d="M 191 3500 
L 800 3500 
L 1894 563 
L 2988 3500 
L 3597 3500 
L 2284 0 
L 1503 0 
L 191 3500 
z
" transform="scale(0.015625)"/>
     </defs>
     <use xlink:href="#DejaVuSans-74"/>
     <use xlink:href="#DejaVuSans-68" x="39.208984"/>
     <use xlink:href="#DejaVuSans-65" x="102.587891"/>
     <use xlink:href="#DejaVuSans-74" x="164.111328"/>
     <use xlink:href="#DejaVuSans-61" x="203.320312"/>
     <use xlink:href="#DejaVuSans-20" x="264.599609"/>
     <use xlink:href="#DejaVuSans-76" x="296.386719"/>
     <use xlink:href="#DejaVuSans-73" x="355.566406"/>
     <use xlink:href="#DejaVuSans-20" x="407.666016"/>
     <use xlink:href="#DejaVuSans-74" x="439.453125"/>
     <use xlink:href="#DejaVuSans-69" x="478.662109"/>
     <use xlink:href="#DejaVuSans-6d" x="506.445312"/>
     <use xlink:href="#DejaVuSans-65" x="603.857422"/>
    </g>
   </g>
  </g>
 </g>
 <defs>
  <clipPath id="pb079cee3fb">
   <rect x="48.982813" y="22.318125" width="357.12" height="266.112"/>
  </clipPath>
 </defs>
</svg>
