<svg xmlns="http://www.w3.org/2000/svg" xmlns:xlink="http://www.w3.org/1999/xlink" xmlns:lucid="lucid" width="540" height="280"><g transform="translate(-300 -180)" lucid:page-tab-id="0_0"><path d="M748 320c0 26.4-21.6 48-48 48s-48-21.6-48-48 21.6-48 48-48 48 21.6 48 48zm-48-48v-12m0 108v12" stroke="#000" fill="#fff"/><path d="M694 344h12m-12-48h12m-6-6v12" stroke="#000" fill="none"/><path d="M428 320c0 26.4-21.6 48-48 48s-48-21.6-48-48 21.6-48 48-48 48 21.6 48 48zm-48-48v-12m0 108v12" stroke="#000" fill="#fff"/><path d="M374 344h12m-12-48h12m-6-6v12" stroke="#000" fill="none"/><path d="M500 200v80h28v-80z" fill="none"/><path d="M500 248h14c0-15.04 6.3-24 14-24s14 8.96 14 20c0-11.04 6.3-20 14-20s14 8.96 14 20c0-11.04 6.3-20 14-20s14 8.96 14 20c0-11.04 6.3-20 14-20s14 8.96 14 20c0 1.44-.14 2.56-.28 4H640" stroke="#000" fill="#fff"/><use xlink:href="#a" transform="matrix(1,0,0,1,500,256) translate(63.07725694444444 22.69314236111111)"/><path d="M420 360h160v80H420z" fill="none"/><path d="M420 400h36l8-12 12 24 12-24 12 24 12-24 12 24 12-24 12 24 8-12h24" stroke="#000" fill="none"/><use xlink:href="#b" transform="matrix(1,0,0,1,420,356) translate(72.71375868055556 22.69314236111111)"/><path d="M440 248.5h-53.98l-.88.07-.84.2-.8.33-.73.45-.66.56-.55.67-.45.73-.33.8-.2.84-.07.88v5.48h-1v-5.52l.08-1 .24-1 .4-.93.52-.87.66-.78.78-.66.87-.53.94-.38.98-.24 1-.08H440zm59.1 0h-52.56v-1h52.55z" stroke="#000" stroke-width=".05"/><path d="M380.5 260h-1v-.5h1z"/><path d="M380.52 260.02h-1.04v-.56h1.04zm-1-.5v.46h.96v-.47zM500 248l-17.94 10.6-.5-.85 16.48-9.75-16.5-9.75.52-.86z" stroke="#000" stroke-width=".05"/><use xlink:href="#c" transform="matrix(1,0,0,1,440.0104964033554,237.65277777777777) translate(0 16.50173611111111)"/><path d="M640.5 248H694a6 6 0 0 1 6 6v5.5" stroke="#000" fill="none"/><path d="M640 247.5h.5v1h-.5zM699.5 260v-.5h1v.5zM646.44 400.5H580.9v-1h65.54zm54.06-6.48l-.08 1-.24 1-.4.93-.52.87-.66.78-.78.66-.87.53-.94.38-.98.24-1 .08h-40.46v-1h40.42l.88-.07.84-.2.8-.33.73-.45.66-.56.55-.67.45-.73.33-.8.2-.84.07-.88V380.5h1z" stroke="#000" stroke-width=".05"/><path d="M700.5 380.5h-1v-.5h1z"/><path d="M700.52 380.54h-1.04v-.56h1.04zm-1-.52v.47h.96V380zM598.45 390.25l-16.5 9.75 16.5 9.75-.5.86L580 400l17.94-10.6z" stroke="#000" stroke-width=".05"/><use xlink:href="#d" transform="matrix(1,0,0,1,646.4366319444445,389.65277777777777) translate(0 16.50173611111111)"/><path d="M419.5 400H386a6 6 0 0 1-6-6v-13.5" stroke="#000" fill="none"/><path d="M420 400.5h-.5v-1h.5zM380.5 380.5h-1v-.5h1z" stroke="#000" stroke-width=".05"/><path d="M700 366a6 6 0 0 1 6-6h108a6 6 0 0 1 6 6v28a6 6 0 0 1-6 6H706a6 6 0 0 1-6-6z" stroke="#000" stroke-opacity="0" fill="#fff" fill-opacity="0"/><use xlink:href="#e" transform="matrix(1,0,0,1,705,365) translate(2.498914930555557 22.50217013888889)"/><path d="M340 246a6 6 0 0 1 6-6h28a6 6 0 0 1 6 6v28a6 6 0 0 1-6 6h-28a6 6 0 0 1-6-6z" stroke="#000" stroke-opacity="0" fill="#fff" fill-opacity="0"/><use xlink:href="#f" transform="matrix(1,0,0,1,345,245) translate(7.035590277777778 22.50217013888889)"/><defs><path d="M674-1376c-119-7-195 23-195 139v1135h404c178-1 180-179 200-338h107L1176 0H78v-86c122 7 194-27 194-147v-996c4-120-72-154-194-147v-86h596v86" id="g"/><use transform="matrix(0.010850694444444444,0,0,0.010850694444444444,0,0)" xlink:href="#g" id="a"/><path d="M1155-1067c0 217-140 315-301 373l281 444c62 88 98 158 221 164V0c-166 1-292-2-364-90-20-24-43-55-66-94L649-645H479v422c-3 116 77 143 195 137V0H78v-86c117 6 194-21 194-137v-1014c3-115-76-146-194-139v-86h551c321 0 526 100 526 395zm-219 6c0-217-101-309-318-303H479v623h144c221 5 313-101 313-320" id="h"/><use transform="matrix(0.010850694444444444,0,0,0.010850694444444444,0,0)" xlink:href="#h" id="b"/><path d="M479-233c-3 120 73 154 195 147V0H78v-86c122 7 194-27 194-147v-996c4-120-72-154-194-147v-86h596v86c-122-7-195 27-195 147v996" id="i"/><use transform="matrix(0.008680555555555556,0,0,0.008680555555555556,0,0)" xlink:href="#i" id="c"/><path d="M573-242c-1 84 23 133 105 133h86V0H57v-109h86c83 3 106-49 105-133v-978c1-84-22-133-105-133H57v-109h707v109h-86c-82-2-106 49-105 133v978" id="j"/><use transform="matrix(0.008680555555555556,0,0,0.008680555555555556,0,0)" xlink:href="#j" id="d"/><path d="M272-1237c3-115-76-146-194-139v-86c450 26 1075-122 1075 366 0 189-111 274-254 322v8c190 36 315 149 315 371 0 294-205 395-526 395H78v-86c122 7 194-27 194-147v-1004zm723 836c0-219-94-319-313-314H479v613h199c216 6 317-83 317-299zm-61-695c0-206-113-269-318-264H479v543h142c209 5 313-71 313-279" id="k"/><path d="M467-106c176 0 267-107 272-285v-166c-189 6-378 9-423 154-10 31-15 66-15 106 0 123 47 191 166 191zm272-535c5-199 13-375-190-375-142 0-190 83-187 223-106-2-174-27-174-129 0-169 191-191 369-196 250-7 375 104 375 354v531c-3 100 32 153 133 147V0H788l-32-176h-17C664-76 596 23 420 20 213 16 102-97 102-307c0-109 41-186 116-242 100-75 325-89 521-92" id="l"/><path d="M893-256c39 28 47 103 13 150C845-22 730 20 580 20c-332 0-467-220-467-563 0-349 119-575 456-575 140 0 259 39 325 116 44 51 42 161-14 193-31 18-76 29-137 29-1-134-38-239-174-236-232 6-258 224-258 471 0 264 65 427 310 432 127 2 227-62 272-143" id="m"/><path d="M769-940c21-67-28-74-95-72v-86h452v86c-47 0-94 17-140 50-98 70-204 208-292 303l273 405c63 88 106 163 233 168V0c-163 2-281-2-352-92-100-127-191-290-283-428L414-408v185c-3 108 66 141 174 137V0H37v-86c117 6 184-31 184-147v-1098c2-112-70-144-184-139v-86h377c-3 350 7 709-8 1048 114-131 245-251 345-394 9-13 15-27 18-38" id="n"/><path d="M51-481v-154h533v154H51" id="o"/><path d="M272-1229c4-120-72-154-194-147v-86h1032l10 358h-106c-7-141-39-256-191-256H479v545h494v100H479v613h395c120 0 178-65 195-168l14-88h107L1176 0H78v-86c117 6 194-21 194-137v-1006" id="p"/><path d="M1649-233c-4 120 72 154 194 147V0h-545v-86c102 5 154-32 154-129v-1094L983 0H872L397-1305v1072c-4 108 46 153 154 147V0H78v-86c117 6 194-21 194-137v-1014c3-115-76-146-194-139v-86h467L969-291l420-1171h454v86c-122-7-194 27-194 147v996" id="q"/><path d="M272-1237c3-115-76-146-194-139v-86h1032l10 358h-106c-6-145-43-256-199-256H479v592h494v100H479v435C472-96 576-78 715-86V0H78v-86c117 6 194-21 194-137v-1014" id="r"/><g id="e"><use transform="matrix(0.010850694444444444,0,0,0.010850694444444444,0,0)" xlink:href="#k"/><use transform="matrix(0.010850694444444444,0,0,0.010850694444444444,14.52907986111111,0)" xlink:href="#l"/><use transform="matrix(0.010850694444444444,0,0,0.010850694444444444,27.03993055555556,0)" xlink:href="#m"/><use transform="matrix(0.010850694444444444,0,0,0.010850694444444444,37.97743055555556,0)" xlink:href="#n"/><use transform="matrix(0.010850694444444444,0,0,0.010850694444444444,50.314670138888886,0)" xlink:href="#o"/><use transform="matrix(0.010850694444444444,0,0,0.010850694444444444,57.20486111111111,0)" xlink:href="#p"/><use transform="matrix(0.010850694444444444,0,0,0.010850694444444444,71.05034722222221,0)" xlink:href="#q"/><use transform="matrix(0.010850694444444444,0,0,0.010850694444444444,91.89453125,0)" xlink:href="#r"/></g><path d="M1243-418c-7 302-195 436-502 438-327 2-516-134-516-462v-795c3-115-76-146-194-139v-86h596v86c-122-7-195 27-195 147v799c1 222 123 328 342 328 218 0 344-107 344-320v-815c3-115-76-146-194-139v-86h514v86c-122-7-195 27-195 147v811" id="s"/><use transform="matrix(0.010850694444444444,0,0,0.010850694444444444,0,0)" xlink:href="#s" id="f"/></defs></g></svg>