<svg xmlns="http://www.w3.org/2000/svg" xmlns:xlink="http://www.w3.org/1999/xlink" xmlns:lucid="lucid" width="466.3" height="336.15"><g transform="translate(-373.70078740157476 -80.70372784240266)" lucid:page-tab-id="0_0"><path d="M403.65 151.18h1.96m3.94 0h3.92m3.93 0h3.92m3.92 0h3.93m3.92 0H437m3.93 0h3.92m3.93 0h3.92m3.93 0h3.92m3.93 0h3.93m3.92 0h3.93m3.92 0h3.93m3.93 0h3.92m3.93 0h3.93m3.93 0h3.92m3.93 0h3.93m3.93 0h3.93m3.9 0h3.94m3.92 0h3.93m3.92 0h3.92m3.93 0h1.96M403.66 151.18h-.5" stroke="#000" fill="none"/><path d="M553.33 151.68h-.5v-1h.5z" stroke="#000" stroke-width=".05"/><path d="M707.5 151.18h87.75" stroke="#000" stroke-width="2" fill="none"/><path d="M707.54 152.18h-1.03v-2h1.04zM799.25 150.4l-1.68.23-2.34.98v-1.42h4.02z" stroke="#000" stroke-width=".05"/><path d="M629.92 88.7v2m0 4v4.02m0 4v4.02m0 4v4.02m0 4v4.02m0 4v4.02m0 4v4.02m0 4v4.02m0 4v4.02m0 4v4.02m0 4.02v4m0 4.02v4m0 4.02v4m0 4.02v4m0 4.02v4m0 4.02v4m0 4.02v4m0 4.02v4.02m0 4v4.02m0 4v4.02m0 4v4.02m0 4v4.02m0 4v4.02m0 4v4.02m0 4v4.02m0 4v4.03m0 4v4.02m0 4v4.02m0 4v4.02m0 4v4m0 4.02v4m0 4.02v4m0 4.02v4m0 4.02v4m0 4.02v4.02m0 4v4.02m0 4v2M629.92 88.7v-.5M629.92 377.44v.5" stroke="#000" fill="none"/><path d="M554.33 126.98a1 1 0 0 1 1-1H704.5a1 1 0 0 1 1 1v48.4a1 1 0 0 1-1 1H555.34a1 1 0 0 1-1-1z" stroke="#000" stroke-width="2" fill="#fff"/><path d="M584.57 175.75c0 6.6-5.36 11.97-11.97 11.97-6.6 0-11.97-5.36-11.97-11.97 0-6.6 5.36-11.97 11.97-11.97 6.6 0 11.97 5.36 11.97 11.97zM698.58 175.75c0 6.6-5.36 11.97-11.97 11.97-6.6 0-11.95-5.36-11.95-11.97 0-6.6 5.35-11.97 11.96-11.97 6.62 0 11.98 5.36 11.98 11.97z" stroke="#000" stroke-width="2" fill="#fff"/><g fill="none"><path d="M629.92 170.08c10.44 0 18.9-8.46 18.9-18.9 0-10.44-8.46-18.9-18.9-18.9-10.44 0-18.9 8.46-18.9 18.9" stroke="#000"/><path d="M609.5 147.4l1.52 3.78 1.9-3.78" stroke="#000"/><path d="M629.92 170.08c10.44 0 18.9-8.46 18.9-18.9 0-10.44-8.46-18.9-18.9-18.9-10.44 0-18.9 8.46-18.9 18.9z"/></g><path d="M642.52 151.18c0 6.96-5.64 12.6-12.6 12.6s-12.6-5.64-12.6-12.6 5.64-12.6 12.6-12.6 12.6 5.64 12.6 12.6z" stroke="#000" stroke-width="2" fill="#fff"/><use xlink:href="#a" transform="matrix(1,0,0,1,622.3228346456692,143.5826771653543) translate(0.1866666666666701 10.666666666666668)"/><path d="M617.13 153.97L552.28 339.1l-1.88-.67 64.84-185.12z" stroke="#000" stroke-width=".05"/><path d="M616.3 151.18l.36 2.65-1.43-.5 1.28-3.66z"/><path d="M616.34 151.18l.35 2.7-1.5-.53 1.37-3.9zm-1.08 2.14l1.37.48-.34-2.62.16-1.27z" stroke="#000" stroke-width=".05"/><path d="M552.3 339.06l-.37 1.02-1.85-.76.32-.92z"/><path d="M552.32 339.05l-.37 1.07-1.9-.8.34-.95zm-2.2.25l1.8.75.34-.97-1.84-.65zM424.5 103.2h-4.97v-1h4.98zm14.93 0h-9.95v-1h9.95zm14.93 0h-9.95v-1h9.96zm14.92 0h-9.95v-1h9.95zm14.92 0h-9.95v-1h9.95zm14.93 0h-9.95v-1h9.94zm44.76 0h-9.95v-1h9.94zm14.92 0h-9.95v-1h9.95zm14.92 0h-9.95v-1h9.94zm14.92 0h-9.94v-1h9.94zm14.93 0h-9.96v-1h9.95zm9.94 0h-4.98v-1h4.98z" stroke="#000" stroke-width=".05"/><path d="M419.03 107.34l-14.26-4.64 14.26-4.63z" fill="#fff"/><path d="M419.53 108.03l-16.38-5.33 16.38-5.32zm-13.14-5.33l12.13 3.95v-7.9z" stroke="#000" stroke-width=".05"/><path d="M628.3 102.7l-14.26 4.64v-9.27z" fill="#fff"/><path d="M629.92 102.7l-16.38 5.33V97.38zm-15.38 3.95l12.14-3.95-12.14-3.94z" stroke="#000" stroke-width=".05"/><use xlink:href="#b" transform="matrix(1,0,0,1,503.8585720091529,92.21056393569309) translate(0 17.872178819444446)"/><path d="M403.15 89.2v312.95" stroke="#000" stroke-width="2" stroke-linejoin="round" fill="none"/><path d="M403.15 89.22V88.2M403.15 402.12v1.03" stroke="#000" stroke-width="2" fill="none"/><path d="M552.65 343.3c0 1.75-1.4 3.16-3.15 3.16-1.74 0-3.15-1.4-3.15-3.15 0-1.73 1.4-3.14 3.15-3.14 1.74 0 3.15 1.4 3.15 3.15z" stroke="#000" stroke-width="2" fill="#fff"/><path d="M510.24 347.46a1 1 0 0 1 1-1h76.52a1 1 0 0 1 1 1v48.4a1 1 0 0 1-1 1h-76.52a1 1 0 0 1-1-1z" stroke="#000" stroke-width="2" fill="#fff"/><path d="M552.65 371.65c0 1.74-1.4 3.15-3.15 3.15-1.74 0-3.15-1.4-3.15-3.15 0-1.74 1.4-3.15 3.15-3.15 1.74 0 3.15 1.4 3.15 3.15z" stroke="#000" stroke-width="2"/><path d="M424.74 372.15h-5.2v-1h5.2zm15.62 0h-10.4v-1h10.4zm15.62 0h-10.4v-1h10.4zm46.87 0h-10.42v-1h10.42zm15.62 0h-10.42v-1h10.42zm10.4 0h-5.2v-1h5.2z" stroke="#000" stroke-width=".05"/><path d="M419.03 376.3l-14.26-4.65 14.26-4.63z" fill="#fff"/><path d="M419.53 376.98l-16.38-5.33 16.38-5.32zm-13.14-5.33l12.13 3.95v-7.9z" stroke="#000" stroke-width=".05"/><path d="M543.65 371.65l-14.27 4.64V367z" fill="#fff"/><path d="M545.27 371.65l-16.4 5.33v-10.65zm-15.4 3.95l12.16-3.95-12.15-3.94z" stroke="#000" stroke-width=".05"/><use xlink:href="#c" transform="matrix(1,0,0,1,459.1512958766034,361.16037870681936) translate(0 17.872178819444446)"/><path d="M435.3 355.27h-1v-4.8h1zm0-9.63h-1v-9.62h1zm0-14.44h-1v-9.62h1zm0-14.43h-1v-9.63h1zm0-14.44h-1v-9.63h1zm0-14.44h-1v-9.64h1zm0-14.45h-1v-1.54h1zm0-22.53h-1v-1.53l1-.02zm0-6.35h-1v-9.62h1zm0-14.44h-1v-9.62h1zm0-14.44h-1v-9.63h1zm0-14.44h-1v-9.63h1zm0-14.44h-1v-9.63h1zm0-14.44h-1v-4.8l1-.02z" stroke="#000" stroke-width=".05"/><path d="M439.44 167.06h-9.27l4.63-14.26z" fill="#fff"/><path d="M440.13 167.56h-10.65l5.32-16.38zm-9.27-1h7.9l-3.96-12.14z" stroke="#000" stroke-width=".05"/><path d="M434.8 370.04l-4.63-14.27h9.27z" fill="#fff"/><path d="M434.8 371.65l-5.32-16.38h10.65zm-3.94-15.38l3.94 12.15 3.95-12.15z" stroke="#000" stroke-width=".05"/><use xlink:href="#d" transform="matrix(1,0,0,1,419.2749894386822,250.9241584799944) translate(0 17.872178819444446)"/><path d="M613.6 327.07l-.1 1-4.32-.38.08-1zm-34.03-6.26l-.3.96-4.14-1.32.3-.96z" stroke="#000" stroke-width=".05"/><path d="M573.4 324.22l-12.18-8.77 15-.06z" fill="#fff"/><path d="M573.65 325.03l-13.97-10.08 17.23-.06zm-10.9-9.1l10.37 7.48 2.4-7.5z" stroke="#000" stroke-width=".05"/><path d="M628.3 328.1l-14.42 4.12.34-9.26z" fill="#fff"/><path d="M629.92 328.17l-16.56 4.72.38-10.65zm-15.52 3.38l12.3-3.5-12-4.4z" stroke="#000" stroke-width=".05"/><use xlink:href="#e" transform="matrix(1,0,0,1,581.169015753384,314.5924117423077) translate(0 17.87212775607638)"/><path d="M540.04 320l-1.75 4.9-.96-.33 1.76-4.9zm5.27-14.7l-3.5 9.8-.94-.33 3.5-9.8zm5.28-14.68l-3.5 9.8-.96-.34 3.52-9.8zm5.27-14.7l-3.5 9.8-.96-.34 3.5-9.8zm5.27-14.7l-3.5 9.8-.96-.33 3.52-9.8zm1.75-4.9l-.94-.32.57-1.6h1.06zm8.8-24.47l-.58 1.58h-1.07l.7-1.92zm5.25-14.7l-3.5 9.8-.95-.34 3.5-9.78zm5.28-14.7l-3.52 9.8-.94-.33 3.5-9.8zm5.26-14.68l-3.5 9.8-.95-.35 3.52-9.8zm5.27-14.7l-3.5 9.8-.95-.34 3.5-9.8zm3.52-9.8l-1.76 4.9-.95-.33 1.75-4.9z" stroke="#000" stroke-width=".05"/><path d="M542 326.77l-9.17 11.86.45-15z" fill="#fff"/><path d="M542.83 326.53l-10.55 13.63.52-17.22zm-9.45 10.58l7.8-10.1-7.42-2.66z" stroke="#000" stroke-width=".05"/><path d="M600.3 164.2l-8.72-3.13 9.18-11.86z" fill="#fff"/><path d="M600.8 164.9l-10.04-3.6 10.55-13.6zm-8.4-4.06l7.43 2.66.38-12.77z" stroke="#000" stroke-width=".05"/><use xlink:href="#f" transform="matrix(1,0,0,1,555.9596073143273,233.4288090134517) translate(0 17.872178819444446)"/><path d="M782.2 187.72H820l-18.9-23.94z" stroke="#000" stroke-width="2" fill="#fff"/><g fill="none"><path d="M801.1 144.88c10.44 0 18.9 8.46 18.9 18.9 0 10.44-8.46 18.9-18.9 18.9-10.43 0-18.9-8.46-18.9-18.9" stroke="#000"/><path d="M780.7 167.56l1.5-3.78 1.9 3.78" stroke="#000"/><path d="M801.1 144.88c10.44 0 18.9 8.46 18.9 18.9 0 10.44-8.46 18.9-18.9 18.9-10.43 0-18.9-8.46-18.9-18.9z"/></g><path d="M813.7 163.78c0 6.96-5.64 12.6-12.6 12.6s-12.6-5.64-12.6-12.6 5.64-12.6 12.6-12.6 12.6 5.64 12.6 12.6z" stroke="#000" stroke-width="2" fill="#fff"/><use xlink:href="#g" transform="matrix(1,0,0,1,793.503937007874,156.18110236220468) translate(2.1377777777777816 10.666666666666668)"/><path d="M667.72 131.98a6 6 0 0 1 6-6h25.63a6 6 0 0 1 6 6v13.2a6 6 0 0 1-6 6h-25.63a6 6 0 0 1-6-6z" stroke="#000" stroke-opacity="0" stroke-width="2" fill="#fff" fill-opacity="0"/><use xlink:href="#h" transform="matrix(1,0,0,1,672.7165354330708,130.9842519685039) translate(4.636935763888891 17.87217881944444)"/><path d="M551.13 352.46a6 6 0 0 1 6-6h25.63a6 6 0 0 1 6 6v16.34a6 6 0 0 1-6 6h-25.63a6 6 0 0 1-6-6z" stroke="#000" stroke-opacity="0" stroke-width="2" fill="#fff" fill-opacity="0"/><use xlink:href="#i" transform="matrix(1,0,0,1,556.1259842519685,351.4566929133858) translate(4.2441406250000036 17.87217881944444)"/><path d="M616.82 153.33l-21.18 60.47-.94-.33L615.87 153z" stroke="#1071e5" stroke-width=".05" fill="#1071e5"/><path d="M616.6 153.26l-.73-.25.5-1.4z" fill="#1071e5"/><path d="M616.62 153.3l-.78-.27.54-1.54zm-.72-.3l.66.23-.2-1.53z" stroke="#1071e5" stroke-width=".05" fill="#1071e5"/><path d="M599.38 215.64l-9.1 11.93.35-15z" fill="#1071e5"/><path d="M600.2 215.4l-10.45 13.7.4-17.22zm-9.38 10.64l7.74-10.16-7.45-2.6z" stroke="#1071e5" stroke-width=".05" fill="#1071e5"/><path d="M707 151.18h49.25" stroke="#1071e5" fill="none"/><path d="M707.02 151.68h-.5v-1h.5z" stroke="#1071e5" stroke-width=".05" fill="#1071e5"/><path d="M771 151.18l-14.25 4.64v-9.27z" stroke="#1071e5" fill="#1071e5"/><path d="M595.28 213.87a6 6 0 0 1 6-6h17.75a6 6 0 0 1 6 6v16.5a6 6 0 0 1-6 6h-17.75a6 6 0 0 1-6-6z" stroke="#000" stroke-opacity="0" stroke-width="2" fill="#fff" fill-opacity="0"/><use xlink:href="#j" transform="matrix(1,0,0,1,600.275590551181,212.87401574803147) translate(3.259006076388891 17.87217881944444)"/><path d="M718.1 128.68a6 6 0 0 1 6-6h17.77a6 6 0 0 1 6 6v16.5a6 6 0 0 1-6 6H724.1a6 6 0 0 1-6-6z" stroke="#000" stroke-opacity="0" stroke-width="2" fill="#fff" fill-opacity="0"/><use xlink:href="#k" transform="matrix(1,0,0,1,723.1102362204724,127.67716535433067) translate(1.4171006944444464 17.87217881944444)"/><path d="M496.75 189h247.4M496.78 189h-4.03M744.13 189h4.03" stroke="#000" stroke-width="2" fill="none"/><path d="M491.04 182.68a6 6 0 0 0-6 6v.6a6 6 0 0 0 6 6h.6a6 6 0 0 0 6-6v-.6a6 6 0 0 0-6-6z" fill="none"/><path d="M490.95 182.68l-5.9 12.62m12.55-12.62l-5.9 12.62" stroke="#000" stroke-width="2" fill-opacity="0"/><path d="M749.3 182.68a6 6 0 0 0-6 6v.6a6 6 0 0 0 6 6h.6a6 6 0 0 0 6-6v-.6a6 6 0 0 0-6-6z" fill="none"/><path d="M749.22 182.68l-5.9 12.62m12.55-12.62l-5.9 12.62" stroke="#000" stroke-width="2" fill-opacity="0"/><path d="M570.24 261.83a6 6 0 0 1 6-6h28.78a6 6 0 0 1 6 6v16.5a6 6 0 0 1-6 6h-28.78a6 6 0 0 1-6-6z" stroke="#000" stroke-opacity="0" stroke-width="2" fill="#fff" fill-opacity="0"/><use xlink:href="#l" transform="matrix(1,0,0,1,575.236220472441,260.82677165354335) translate(7.537543402777786 17.87217881944444)"/><use xlink:href="#m" transform="matrix(1,0,0,1,575.236220472441,260.82677165354335) translate(26.647786458333336 17.87217881944444)"/><path d="M592.28 246.28a6 6 0 0 1 6-6h5a6 6 0 0 1 6 6v7.44a6 6 0 0 1-6 6h-5a6 6 0 0 1-6-6z" stroke="#000" stroke-opacity="0" stroke-width="2" fill="#fff" fill-opacity="0"/><use xlink:href="#n" transform="matrix(1,0,0,1,597.2834645669292,245.27559055118107) translate(4.118706597222223 17.87217881944444)"/><path d="M508.56 166.63a6 6 0 0 1 6-6h32.1a6 6 0 0 1 6 6v18.24a6 6 0 0 1-6 6h-32.1a6 6 0 0 1-6-6z" stroke="#000" stroke-opacity="0" stroke-width="2" fill="#fff" fill-opacity="0"/><use xlink:href="#o" transform="matrix(1,0,0,1,513.5551181102364,165.62992125984252) translate(3.633897569444448 19.18467881944444)"/><use xlink:href="#p" transform="matrix(1,0,0,1,513.5551181102364,165.62992125984252) translate(23.330078125 19.18467881944444)"/><path d="M527.45 157.18a6 6 0 0 1 6-6h13.2a6 6 0 0 1 6 6v11.94a6 6 0 0 1-6 6h-13.2a6 6 0 0 1-6-6z" stroke="#000" stroke-opacity="0" stroke-width="2" fill="#fff" fill-opacity="0"/><use xlink:href="#n" transform="matrix(1,0,0,1,532.4527559055119,156.18110236220468) translate(6.059353298611112 17.87217881944444)"/><path d="M393.7 131.98a6 6 0 0 1 6-6h25.64a6 6 0 0 1 6 6v13.2a6 6 0 0 1-6 6H399.7a6 6 0 0 1-6-6z" stroke="#000" stroke-opacity="0" stroke-width="2" fill="#fff" fill-opacity="0"/><g><use xlink:href="#q" transform="matrix(1,0,0,1,398.70078740157476,130.98425196850388) translate(8.404320987654323 14.444444444444443)"/></g><defs><path d="M464-387l279-333h129V0H764v-576L464-219 164-576V0H56v-720h128" id="r"/><path d="M187-720h460c72 0 130 58 130 130v164c0 72-58 130-130 130H187c-12 0-22 10-22 22v144c0 12 10 22 22 22h590V0H57v-274c0-72 58-130 130-130h460c12 0 22-10 22-22v-164c0-12-10-22-22-22H187c-29 0-21 36-22 64H57c-12-101 43-172 130-172" id="s"/><g id="a"><use transform="matrix(0.008888888888888882,0,0,0.008888888888888882,0,0)" xlink:href="#r"/><use transform="matrix(0.008888888888888889,0,0,0.008888888888888889,8.248888888888882,0)" xlink:href="#s"/></g><path d="M397-581L104-914c-50-39-76-82-76-127 0-67 35-111 94-111 49 0 90 31 123 88l273 297 274-297c33-57 74-88 123-88 58 0 93 44 93 111 0 45-34 79-76 127L647-590l301 351c51 39 76 81 76 127 0 67-35 111-94 111-49 0-89-31-122-89L521-418 245-89C212-31 171 0 122 0 63 0 28-44 28-111c0-46 26-88 76-127" id="t"/><path d="M546-2053c55 14 86 55 92 122-12 65-49 146-110 241-128 197-205 458-205 784 0 322 61 620 196 889 57 113 104 207 130 290-1 77-27 123-80 123-60 0-107-20-138-62-42-56-79-128-112-216-129-348-194-680-194-997 0-345 91-653 215-937 66-151 123-234 206-237" id="u"/><path d="M729-1280c60 5 95 37 95 97 0 61-39 91-100 91-112 0-222 0-333-1l-4 621c1 173 62 269 182 269 70 0 106-44 123-119 14-61 56-90 111-90 57 0 85 38 85 113C888-107 753 1 569 1 314 1 184-166 183-475l-1-617c-92 6-161-5-164-91-3-96 89-102 188-98l4-228c8-59 45-89 110-89 57 0 95 39 95 105l-1 213h315" id="v"/><path d="M103-1933c0-77 33-118 98-125 61 7 109 71 168 181 152 282 241 618 241 1019 0 321-60 635-181 941-46 117-93 201-138 252-31 35-68 61-114 61-59 0-96-36-96-107 0-57 57-123 112-223 159-290 220-615 220-951 0-308-61-580-191-798-53-88-102-165-119-250" id="w"/><g id="b"><use transform="matrix(0.007595486111111112,0,0,0.007595486111111112,0,0)" xlink:href="#t"/><use transform="matrix(0.007595486111111112,0,0,0.007595486111111112,8.036024305555557,0)" xlink:href="#u"/><use transform="matrix(0.007595486111111112,0,0,0.007595486111111112,13.216145833333336,0)" xlink:href="#v"/><use transform="matrix(0.007595486111111112,0,0,0.007595486111111112,20.173611111111114,0)" xlink:href="#w"/></g><path d="M57-493c0-382 199-667 563-667 237 0 361 62 361 164 0 55-31 88-90 88-86 0-161-61-266-56-87 4-171 43-250 128S254-644 254-517c0 221 101 337 264 337 94 0 172-29 233-84s99-99 113-132 46-50 93-50c51 0 83 37 83 104 0 78-56 156-148 236S680 20 533 20C223 20 57-154 57-493" id="x"/><g id="c"><use transform="matrix(0.007595486111111112,0,0,0.007595486111111112,0,0)" xlink:href="#t"/><use transform="matrix(0.004340277777777777,0,0,0.004340277777777777,8.036024305555557,0)" xlink:href="#x"/><use transform="matrix(0.007595486111111112,0,0,0.007595486111111112,12.797309027777779,0)" xlink:href="#u"/><use transform="matrix(0.007595486111111112,0,0,0.007595486111111112,17.977430555555557,0)" xlink:href="#v"/><use transform="matrix(0.007595486111111112,0,0,0.007595486111111112,24.934895833333336,0)" xlink:href="#w"/></g><path d="M320 306c99-2 119 33 226 33 114 0 203-50 266-150s95-296 95-587C795-141 627-6 404-6 171-6 50-164 50-460c0-161 9-362 30-603 6-67 45-100 114-100 57 0 85 41 85 107 0 239-26 432-26 581 0 169 58 270 157 270 97 0 191-64 280-191s157-346 191-660c7-62 39-97 107-103 69 8 103 47 103 116 0 497 66 1086-120 1369-93 141-233 215-423 215-101 0-179-15-234-41-40-19-61-52-61-102 0-43 26-74 67-92" id="y"/><g id="d"><use transform="matrix(0.007595486111111112,0,0,0.007595486111111112,0,0)" xlink:href="#y"/><use transform="matrix(0.004340277777777777,0,0,0.004340277777777777,8.977864583333334,0)" xlink:href="#x"/><use transform="matrix(0.007595486111111112,0,0,0.007595486111111112,13.739149305555555,0)" xlink:href="#u"/><use transform="matrix(0.007595486111111112,0,0,0.007595486111111112,18.919270833333336,0)" xlink:href="#v"/><use transform="matrix(0.007595486111111112,0,0,0.007595486111111112,25.876736111111114,0)" xlink:href="#w"/></g><path d="M569-1485c393 0 466 341 466 751 0 432-108 757-472 757-370 0-455-353-455-757 0-427 97-751 461-751zM296-671c0 313 63 637 381 535 137-85 159-296 165-535H296zm546-131c0-319-57-631-381-529-137 91-159 284-165 529h546" id="z"/><g id="e"><use transform="matrix(0.007595464409722219,0,0,0.007595464409722219,0,0)" xlink:href="#z"/><use transform="matrix(0.007595464409722219,0,0,0.007595464409722219,8.651233962673608,0)" xlink:href="#u"/><use transform="matrix(0.007595464409722219,0,0,0.007595464409722219,13.831340690104161,0)" xlink:href="#v"/><use transform="matrix(0.007595464409722219,0,0,0.007595464409722219,20.788786089409715,0)" xlink:href="#w"/></g><path d="M372-198c41 0 69-18 113-18 35 0 63 26 63 79C548-42 483 7 358 7 159 7 53-153 56-426l16-1333c3-71 38-107 103-107s99 36 98 109L259-416c13 145 51 218 113 218" id="A"/><g id="f"><use transform="matrix(0.007595486111111112,0,0,0.007595486111111112,0,0)" xlink:href="#A"/><use transform="matrix(0.007595486111111112,0,0,0.007595486111111112,4.352213541666667,0)" xlink:href="#u"/><use transform="matrix(0.007595486111111112,0,0,0.007595486111111112,9.532335069444446,0)" xlink:href="#v"/><use transform="matrix(0.007595486111111112,0,0,0.007595486111111112,16.489800347222225,0)" xlink:href="#w"/></g><path d="M1-477l203-243h129V0H225v-576l-83 99H1" id="B"/><g id="g"><use transform="matrix(0.008888888888888882,0,0,0.008888888888888882,0,0)" xlink:href="#r"/><use transform="matrix(0.008888888888888889,0,0,0.008888888888888889,8.248888888888882,0)" xlink:href="#B"/></g><path d="M1157-658c-2 153-6 339-20 557-4 68-45 101-114 101-57 0-85-41-85-107 0-239 16-432 16-581 0-169-58-270-157-270-97 0-191 63-280 190S364-417 333-97C327-35 294 0 226 6c-69-8-103-47-103-116 0-307-15-531-30-670s-23-234-23-285c0-63 42-95 101-95 71 0 108 50 113 131l16 264c112-257 280-392 503-392 153 0 256 71 310 199 102-129 232-199 390-199 233 0 354 158 354 454 0 161-4 362-20 602-4 68-45 101-114 101-57 0-85-41-85-107 0-239 16-432 16-581 0-169-58-270-157-270-97 0-191 63-280 190-22 31-42 68-60 110" id="C"/><g id="h"><use transform="matrix(0.007595486111111109,0,0,0.007595486111111109,0,0)" xlink:href="#C"/><use transform="matrix(0.004340277777777775,0,0,0.004340277777777775,14.750434027777775,0)" xlink:href="#v"/></g><g id="i"><use transform="matrix(0.007595486111111109,0,0,0.007595486111111109,0,0)" xlink:href="#C"/><use transform="matrix(0.004340277777777775,0,0,0.004340277777777775,14.750434027777775,0)" xlink:href="#x"/></g><path fill="#1071e5" d="M1099-1868c62 6 93 38 93 97 0 69-37 107-106 107H302v611h672c62 9 93 46 93 109-1 65-32 104-96 104H304l1 735C301-34 264 3 194 3 128 3 94-36 94-112v-1561c-27-11-40-45-41-102 0-56 35-93 106-93h940" id="D"/><path fill="#1071e5" d="M372-198c41 0 69-18 113-18 35 0 63 26 63 79C548-42 483 7 358 7 159 7 53-153 56-426l16-1333c3-71 38-107 103-107s99 36 98 109L259-416c13 145 51 218 113 218" id="E"/><g id="j"><use transform="matrix(0.007595486111111109,0,0,0.007595486111111109,0,0)" xlink:href="#D"/><use transform="matrix(0.007595486111111109,0,0,0.007595486111111109,9.129774305555554,0)" xlink:href="#E"/></g><path fill="#1071e5" d="M397-581L104-914c-50-39-76-82-76-127 0-67 35-111 94-111 49 0 90 31 123 88l273 297 274-297c33-57 74-88 123-88 58 0 93 44 93 111 0 45-34 79-76 127L647-590l301 351c51 39 76 81 76 127 0 67-35 111-94 111-49 0-89-31-122-89L521-418 245-89C212-31 171 0 122 0 63 0 28-44 28-111c0-46 26-88 76-127" id="F"/><g id="k"><use transform="matrix(0.007595486111111109,0,0,0.007595486111111109,0,0)" xlink:href="#D"/><use transform="matrix(0.007595486111111109,0,0,0.007595486111111109,9.129774305555554,0)" xlink:href="#F"/></g><path fill="#1071e5" d="M860-926c-128 0-253 66-374 193S297-489 297-384c0 137 72 205 216 205 115 0 227-51 333-153s182-232 182-393c0-134-60-201-168-201zM75-1762c2-77 37-116 106-116 65 0 98 45 98 130v969c153-233 350-349 592-349 231 0 359 146 359 401 0 176-67 341-199 494S728 17 517 17C417 17 338 4 279-21c-20 25-59 38-116 38-58 0-88-38-88-113v-1666" id="G"/><path fill="#1071e5" d="M146-1161c66 0 103 37 110 99 43-55 114-94 213-94 183 0 296 84 296 219 0 59-25 99-73 99-55 0-94-20-116-59s-55-61-100-68c-114 15-193 76-189 183l26 661C304-40 266 0 200 0c-60 0-95-39-97-115-11-443-19-697-32-761s-20-128-20-190c0-60 41-95 95-95" id="H"/><g id="l"><use transform="matrix(0.007595486111111109,0,0,0.007595486111111109,0,0)" xlink:href="#G"/><use transform="matrix(0.005425347222222219,0,0,0.005425347222222219,9.881727430555554,0)" xlink:href="#H"/></g><use transform="matrix(0.007595486111111108,0,0,0.007595486111111108,0,0)" xlink:href="#E" id="m"/><path fill="#1071e5" d="M277-265c87 0 141 42 141 127C418-47 377 2 295 2c-85 0-137-41-137-123 0-89 40-144 119-144" id="I"/><use transform="matrix(0.007595486111111109,0,0,0.007595486111111109,0,0)" xlink:href="#I" id="n"/><path fill="#1071e5" d="M729-1280c60 5 95 37 95 97 0 61-39 91-100 91-112 0-222 0-333-1l-4 621c1 173 62 269 182 269 70 0 106-44 123-119 14-61 56-90 111-90 57 0 85 38 85 113C888-107 753 1 569 1 314 1 184-166 183-475l-1-617c-92 6-161-5-164-91-3-96 89-102 188-98l4-228c8-59 45-89 110-89 57 0 95 39 95 105l-1 213h315" id="J"/><g id="o"><use transform="matrix(0.007595486111111109,0,0,0.007595486111111109,0,0)" xlink:href="#G"/><use transform="matrix(0.005425347222222219,0,0,0.005425347222222219,9.881727430555554,0)" xlink:href="#J"/></g><use transform="matrix(0.007595486111111108,0,0,0.007595486111111108,0,0)" xlink:href="#F" id="p"/><path d="M130-224c-62 0-78 43-78 106 0 64 16 108 78 108s78-45 78-108-16-106-78-106zm0 228C53 4 15-39 15-118c-1-80 37-120 115-120s115 42 115 120C245-39 207 4 130 4" id="K"/><use transform="matrix(0.04320987654320987,0,0,0.04320987654320987,0,0)" xlink:href="#K" id="q"/></defs></g></svg>