<?xml version="1.0" encoding="utf-8" standalone="no"?>
<!DOCTYPE svg PUBLIC "-//W3C//DTD SVG 1.1//EN"
  "http://www.w3.org/Graphics/SVG/1.1/DTD/svg11.dtd">
<svg xmlns:xlink="http://www.w3.org/1999/xlink" width="460.8pt" height="345.6pt" viewBox="0 0 460.8 345.6" xmlns="http://www.w3.org/2000/svg" version="1.1">
 <metadata>
  <rdf:RDF xmlns:dc="http://purl.org/dc/elements/1.1/" xmlns:cc="http://creativecommons.org/ns#" xmlns:rdf="http://www.w3.org/1999/02/22-rdf-syntax-ns#">
   <cc:Work>
    <dc:type rdf:resource="http://purl.org/dc/dcmitype/StillImage"/>
    <dc:date>2023-08-23T18:02:10.626329</dc:date>
    <dc:format>image/svg+xml</dc:format>
    <dc:creator>
     <cc:Agent>
      <dc:title>Matplotlib v3.5.3, https://matplotlib.org/</dc:title>
     </cc:Agent>
    </dc:creator>
   </cc:Work>
  </rdf:RDF>
 </metadata>
 <defs>
  <style type="text/css">*{stroke-linejoin: round; stroke-linecap: butt}</style>
 </defs>
 <g id="figure_1">
  <g id="patch_1">
   <path d="M 0 345.6 
L 460.8 345.6 
L 460.8 0 
L 0 0 
L 0 345.6 
z
" style="fill: none"/>
  </g>
  <g id="axes_1">
   <g id="patch_2">
    <path d="M 57.6 307.584 
L 414.72 307.584 
L 414.72 41.472 
L 57.6 41.472 
L 57.6 307.584 
z
" style="fill: none"/>
   </g>
   <g id="matplotlib.axis_1">
    <g id="xtick_1">
     <g id="line2d_1">
      <path d="M 73.832727 307.584 
L 73.832727 41.472 
" clip-path="url(#pe8c842716e)" style="fill: none; stroke: #b0b0b0; stroke-width: 0.8; stroke-linecap: square"/>
     </g>
     <g id="line2d_2">
      <defs>
       <path id="mc7e405dc69" d="M 0 0 
L 0 3.5 
" style="stroke: #000000; stroke-width: 0.8"/>
      </defs>
      <g>
       <use xlink:href="#mc7e405dc69" x="73.832727" y="307.584" style="stroke: #000000; stroke-width: 0.8"/>
      </g>
     </g>
     <g id="text_1">
      <!-- 0 -->
      <g transform="translate(70.651477 322.182437)scale(0.1 -0.1)">
       <defs>
        <path id="DejaVuSans-30" d="M 2034 4250 
Q 1547 4250 1301 3770 
Q 1056 3291 1056 2328 
Q 1056 1369 1301 889 
Q 1547 409 2034 409 
Q 2525 409 2770 889 
Q 3016 1369 3016 2328 
Q 3016 3291 2770 3770 
Q 2525 4250 2034 4250 
z
M 2034 4750 
Q 2819 4750 3233 4129 
Q 3647 3509 3647 2328 
Q 3647 1150 3233 529 
Q 2819 -91 2034 -91 
Q 1250 -91 836 529 
Q 422 1150 422 2328 
Q 422 3509 836 4129 
Q 1250 4750 2034 4750 
z
" transform="scale(0.015625)"/>
       </defs>
       <use xlink:href="#DejaVuSans-30"/>
      </g>
     </g>
    </g>
    <g id="xtick_2">
     <g id="line2d_3">
      <path d="M 117.12 307.584 
L 117.12 41.472 
" clip-path="url(#pe8c842716e)" style="fill: none; stroke: #b0b0b0; stroke-width: 0.8; stroke-linecap: square"/>
     </g>
     <g id="line2d_4">
      <g>
       <use xlink:href="#mc7e405dc69" x="117.12" y="307.584" style="stroke: #000000; stroke-width: 0.8"/>
      </g>
     </g>
     <g id="text_2">
      <!-- 2 -->
      <g transform="translate(113.93875 322.182437)scale(0.1 -0.1)">
       <defs>
        <path id="DejaVuSans-32" d="M 1228 531 
L 3431 531 
L 3431 0 
L 469 0 
L 469 531 
Q 828 903 1448 1529 
Q 2069 2156 2228 2338 
Q 2531 2678 2651 2914 
Q 2772 3150 2772 3378 
Q 2772 3750 2511 3984 
Q 2250 4219 1831 4219 
Q 1534 4219 1204 4116 
Q 875 4013 500 3803 
L 500 4441 
Q 881 4594 1212 4672 
Q 1544 4750 1819 4750 
Q 2544 4750 2975 4387 
Q 3406 4025 3406 3419 
Q 3406 3131 3298 2873 
Q 3191 2616 2906 2266 
Q 2828 2175 2409 1742 
Q 1991 1309 1228 531 
z
" transform="scale(0.015625)"/>
       </defs>
       <use xlink:href="#DejaVuSans-32"/>
      </g>
     </g>
    </g>
    <g id="xtick_3">
     <g id="line2d_5">
      <path d="M 160.407273 307.584 
L 160.407273 41.472 
" clip-path="url(#pe8c842716e)" style="fill: none; stroke: #b0b0b0; stroke-width: 0.8; stroke-linecap: square"/>
     </g>
     <g id="line2d_6">
      <g>
       <use xlink:href="#mc7e405dc69" x="160.407273" y="307.584" style="stroke: #000000; stroke-width: 0.8"/>
      </g>
     </g>
     <g id="text_3">
      <!-- 4 -->
      <g transform="translate(157.226023 322.182437)scale(0.1 -0.1)">
       <defs>
        <path id="DejaVuSans-34" d="M 2419 4116 
L 825 1625 
L 2419 1625 
L 2419 4116 
z
M 2253 4666 
L 3047 4666 
L 3047 1625 
L 3713 1625 
L 3713 1100 
L 3047 1100 
L 3047 0 
L 2419 0 
L 2419 1100 
L 313 1100 
L 313 1709 
L 2253 4666 
z
" transform="scale(0.015625)"/>
       </defs>
       <use xlink:href="#DejaVuSans-34"/>
      </g>
     </g>
    </g>
    <g id="xtick_4">
     <g id="line2d_7">
      <path d="M 203.694545 307.584 
L 203.694545 41.472 
" clip-path="url(#pe8c842716e)" style="fill: none; stroke: #b0b0b0; stroke-width: 0.8; stroke-linecap: square"/>
     </g>
     <g id="line2d_8">
      <g>
       <use xlink:href="#mc7e405dc69" x="203.694545" y="307.584" style="stroke: #000000; stroke-width: 0.8"/>
      </g>
     </g>
     <g id="text_4">
      <!-- 6 -->
      <g transform="translate(200.513295 322.182437)scale(0.1 -0.1)">
       <defs>
        <path id="DejaVuSans-36" d="M 2113 2584 
Q 1688 2584 1439 2293 
Q 1191 2003 1191 1497 
Q 1191 994 1439 701 
Q 1688 409 2113 409 
Q 2538 409 2786 701 
Q 3034 994 3034 1497 
Q 3034 2003 2786 2293 
Q 2538 2584 2113 2584 
z
M 3366 4563 
L 3366 3988 
Q 3128 4100 2886 4159 
Q 2644 4219 2406 4219 
Q 1781 4219 1451 3797 
Q 1122 3375 1075 2522 
Q 1259 2794 1537 2939 
Q 1816 3084 2150 3084 
Q 2853 3084 3261 2657 
Q 3669 2231 3669 1497 
Q 3669 778 3244 343 
Q 2819 -91 2113 -91 
Q 1303 -91 875 529 
Q 447 1150 447 2328 
Q 447 3434 972 4092 
Q 1497 4750 2381 4750 
Q 2619 4750 2861 4703 
Q 3103 4656 3366 4563 
z
" transform="scale(0.015625)"/>
       </defs>
       <use xlink:href="#DejaVuSans-36"/>
      </g>
     </g>
    </g>
    <g id="xtick_5">
     <g id="line2d_9">
      <path d="M 246.981818 307.584 
L 246.981818 41.472 
" clip-path="url(#pe8c842716e)" style="fill: none; stroke: #b0b0b0; stroke-width: 0.8; stroke-linecap: square"/>
     </g>
     <g id="line2d_10">
      <g>
       <use xlink:href="#mc7e405dc69" x="246.981818" y="307.584" style="stroke: #000000; stroke-width: 0.8"/>
      </g>
     </g>
     <g id="text_5">
      <!-- 8 -->
      <g transform="translate(243.800568 322.182437)scale(0.1 -0.1)">
       <defs>
        <path id="DejaVuSans-38" d="M 2034 2216 
Q 1584 2216 1326 1975 
Q 1069 1734 1069 1313 
Q 1069 891 1326 650 
Q 1584 409 2034 409 
Q 2484 409 2743 651 
Q 3003 894 3003 1313 
Q 3003 1734 2745 1975 
Q 2488 2216 2034 2216 
z
M 1403 2484 
Q 997 2584 770 2862 
Q 544 3141 544 3541 
Q 544 4100 942 4425 
Q 1341 4750 2034 4750 
Q 2731 4750 3128 4425 
Q 3525 4100 3525 3541 
Q 3525 3141 3298 2862 
Q 3072 2584 2669 2484 
Q 3125 2378 3379 2068 
Q 3634 1759 3634 1313 
Q 3634 634 3220 271 
Q 2806 -91 2034 -91 
Q 1263 -91 848 271 
Q 434 634 434 1313 
Q 434 1759 690 2068 
Q 947 2378 1403 2484 
z
M 1172 3481 
Q 1172 3119 1398 2916 
Q 1625 2713 2034 2713 
Q 2441 2713 2670 2916 
Q 2900 3119 2900 3481 
Q 2900 3844 2670 4047 
Q 2441 4250 2034 4250 
Q 1625 4250 1398 4047 
Q 1172 3844 1172 3481 
z
" transform="scale(0.015625)"/>
       </defs>
       <use xlink:href="#DejaVuSans-38"/>
      </g>
     </g>
    </g>
    <g id="xtick_6">
     <g id="line2d_11">
      <path d="M 290.269091 307.584 
L 290.269091 41.472 
" clip-path="url(#pe8c842716e)" style="fill: none; stroke: #b0b0b0; stroke-width: 0.8; stroke-linecap: square"/>
     </g>
     <g id="line2d_12">
      <g>
       <use xlink:href="#mc7e405dc69" x="290.269091" y="307.584" style="stroke: #000000; stroke-width: 0.8"/>
      </g>
     </g>
     <g id="text_6">
      <!-- 10 -->
      <g transform="translate(283.906591 322.182437)scale(0.1 -0.1)">
       <defs>
        <path id="DejaVuSans-31" d="M 794 531 
L 1825 531 
L 1825 4091 
L 703 3866 
L 703 4441 
L 1819 4666 
L 2450 4666 
L 2450 531 
L 3481 531 
L 3481 0 
L 794 0 
L 794 531 
z
" transform="scale(0.015625)"/>
       </defs>
       <use xlink:href="#DejaVuSans-31"/>
       <use xlink:href="#DejaVuSans-30" x="63.623047"/>
      </g>
     </g>
    </g>
    <g id="xtick_7">
     <g id="line2d_13">
      <path d="M 333.556364 307.584 
L 333.556364 41.472 
" clip-path="url(#pe8c842716e)" style="fill: none; stroke: #b0b0b0; stroke-width: 0.8; stroke-linecap: square"/>
     </g>
     <g id="line2d_14">
      <g>
       <use xlink:href="#mc7e405dc69" x="333.556364" y="307.584" style="stroke: #000000; stroke-width: 0.8"/>
      </g>
     </g>
     <g id="text_7">
      <!-- 12 -->
      <g transform="translate(327.193864 322.182437)scale(0.1 -0.1)">
       <use xlink:href="#DejaVuSans-31"/>
       <use xlink:href="#DejaVuSans-32" x="63.623047"/>
      </g>
     </g>
    </g>
    <g id="xtick_8">
     <g id="line2d_15">
      <path d="M 376.843636 307.584 
L 376.843636 41.472 
" clip-path="url(#pe8c842716e)" style="fill: none; stroke: #b0b0b0; stroke-width: 0.8; stroke-linecap: square"/>
     </g>
     <g id="line2d_16">
      <g>
       <use xlink:href="#mc7e405dc69" x="376.843636" y="307.584" style="stroke: #000000; stroke-width: 0.8"/>
      </g>
     </g>
     <g id="text_8">
      <!-- 14 -->
      <g transform="translate(370.481136 322.182437)scale(0.1 -0.1)">
       <use xlink:href="#DejaVuSans-31"/>
       <use xlink:href="#DejaVuSans-34" x="63.623047"/>
      </g>
     </g>
    </g>
    <g id="text_9">
     <!-- time (s) -->
     <g transform="translate(216.768594 335.860562)scale(0.1 -0.1)">
      <defs>
       <path id="DejaVuSans-74" d="M 1172 4494 
L 1172 3500 
L 2356 3500 
L 2356 3053 
L 1172 3053 
L 1172 1153 
Q 1172 725 1289 603 
Q 1406 481 1766 481 
L 2356 481 
L 2356 0 
L 1766 0 
Q 1100 0 847 248 
Q 594 497 594 1153 
L 594 3053 
L 172 3053 
L 172 3500 
L 594 3500 
L 594 4494 
L 1172 4494 
z
" transform="scale(0.015625)"/>
       <path id="DejaVuSans-69" d="M 603 3500 
L 1178 3500 
L 1178 0 
L 603 0 
L 603 3500 
z
M 603 4863 
L 1178 4863 
L 1178 4134 
L 603 4134 
L 603 4863 
z
" transform="scale(0.015625)"/>
       <path id="DejaVuSans-6d" d="M 3328 2828 
Q 3544 3216 3844 3400 
Q 4144 3584 4550 3584 
Q 5097 3584 5394 3201 
Q 5691 2819 5691 2113 
L 5691 0 
L 5113 0 
L 5113 2094 
Q 5113 2597 4934 2840 
Q 4756 3084 4391 3084 
Q 3944 3084 3684 2787 
Q 3425 2491 3425 1978 
L 3425 0 
L 2847 0 
L 2847 2094 
Q 2847 2600 2669 2842 
Q 2491 3084 2119 3084 
Q 1678 3084 1418 2786 
Q 1159 2488 1159 1978 
L 1159 0 
L 581 0 
L 581 3500 
L 1159 3500 
L 1159 2956 
Q 1356 3278 1631 3431 
Q 1906 3584 2284 3584 
Q 2666 3584 2933 3390 
Q 3200 3197 3328 2828 
z
" transform="scale(0.015625)"/>
       <path id="DejaVuSans-65" d="M 3597 1894 
L 3597 1613 
L 953 1613 
Q 991 1019 1311 708 
Q 1631 397 2203 397 
Q 2534 397 2845 478 
Q 3156 559 3463 722 
L 3463 178 
Q 3153 47 2828 -22 
Q 2503 -91 2169 -91 
Q 1331 -91 842 396 
Q 353 884 353 1716 
Q 353 2575 817 3079 
Q 1281 3584 2069 3584 
Q 2775 3584 3186 3129 
Q 3597 2675 3597 1894 
z
M 3022 2063 
Q 3016 2534 2758 2815 
Q 2500 3097 2075 3097 
Q 1594 3097 1305 2825 
Q 1016 2553 972 2059 
L 3022 2063 
z
" transform="scale(0.015625)"/>
       <path id="DejaVuSans-20" transform="scale(0.015625)"/>
       <path id="DejaVuSans-28" d="M 1984 4856 
Q 1566 4138 1362 3434 
Q 1159 2731 1159 2009 
Q 1159 1288 1364 580 
Q 1569 -128 1984 -844 
L 1484 -844 
Q 1016 -109 783 600 
Q 550 1309 550 2009 
Q 550 2706 781 3412 
Q 1013 4119 1484 4856 
L 1984 4856 
z
" transform="scale(0.015625)"/>
       <path id="DejaVuSans-73" d="M 2834 3397 
L 2834 2853 
Q 2591 2978 2328 3040 
Q 2066 3103 1784 3103 
Q 1356 3103 1142 2972 
Q 928 2841 928 2578 
Q 928 2378 1081 2264 
Q 1234 2150 1697 2047 
L 1894 2003 
Q 2506 1872 2764 1633 
Q 3022 1394 3022 966 
Q 3022 478 2636 193 
Q 2250 -91 1575 -91 
Q 1294 -91 989 -36 
Q 684 19 347 128 
L 347 722 
Q 666 556 975 473 
Q 1284 391 1588 391 
Q 1994 391 2212 530 
Q 2431 669 2431 922 
Q 2431 1156 2273 1281 
Q 2116 1406 1581 1522 
L 1381 1569 
Q 847 1681 609 1914 
Q 372 2147 372 2553 
Q 372 3047 722 3315 
Q 1072 3584 1716 3584 
Q 2034 3584 2315 3537 
Q 2597 3491 2834 3397 
z
" transform="scale(0.015625)"/>
       <path id="DejaVuSans-29" d="M 513 4856 
L 1013 4856 
Q 1481 4119 1714 3412 
Q 1947 2706 1947 2009 
Q 1947 1309 1714 600 
Q 1481 -109 1013 -844 
L 513 -844 
Q 928 -128 1133 580 
Q 1338 1288 1338 2009 
Q 1338 2731 1133 3434 
Q 928 4138 513 4856 
z
" transform="scale(0.015625)"/>
      </defs>
      <use xlink:href="#DejaVuSans-74"/>
      <use xlink:href="#DejaVuSans-69" x="39.208984"/>
      <use xlink:href="#DejaVuSans-6d" x="66.992188"/>
      <use xlink:href="#DejaVuSans-65" x="164.404297"/>
      <use xlink:href="#DejaVuSans-20" x="225.927734"/>
      <use xlink:href="#DejaVuSans-28" x="257.714844"/>
      <use xlink:href="#DejaVuSans-73" x="296.728516"/>
      <use xlink:href="#DejaVuSans-29" x="348.828125"/>
     </g>
    </g>
   </g>
   <g id="matplotlib.axis_2">
    <g id="ytick_1">
     <g id="line2d_17">
      <path d="M 57.6 299.624632 
L 414.72 299.624632 
" clip-path="url(#pe8c842716e)" style="fill: none; stroke: #b0b0b0; stroke-width: 0.8; stroke-linecap: square"/>
     </g>
     <g id="line2d_18">
      <defs>
       <path id="mcf38cf8673" d="M 0 0 
L -3.5 0 
" style="stroke: #000000; stroke-width: 0.8"/>
      </defs>
      <g>
       <use xlink:href="#mcf38cf8673" x="57.6" y="299.624632" style="stroke: #000000; stroke-width: 0.8"/>
      </g>
     </g>
     <g id="text_10">
      <!-- −0.50 -->
      <g transform="translate(19.954687 303.423851)scale(0.1 -0.1)">
       <defs>
        <path id="DejaVuSans-2212" d="M 678 2272 
L 4684 2272 
L 4684 1741 
L 678 1741 
L 678 2272 
z
" transform="scale(0.015625)"/>
        <path id="DejaVuSans-2e" d="M 684 794 
L 1344 794 
L 1344 0 
L 684 0 
L 684 794 
z
" transform="scale(0.015625)"/>
        <path id="DejaVuSans-35" d="M 691 4666 
L 3169 4666 
L 3169 4134 
L 1269 4134 
L 1269 2991 
Q 1406 3038 1543 3061 
Q 1681 3084 1819 3084 
Q 2600 3084 3056 2656 
Q 3513 2228 3513 1497 
Q 3513 744 3044 326 
Q 2575 -91 1722 -91 
Q 1428 -91 1123 -41 
Q 819 9 494 109 
L 494 744 
Q 775 591 1075 516 
Q 1375 441 1709 441 
Q 2250 441 2565 725 
Q 2881 1009 2881 1497 
Q 2881 1984 2565 2268 
Q 2250 2553 1709 2553 
Q 1456 2553 1204 2497 
Q 953 2441 691 2322 
L 691 4666 
z
" transform="scale(0.015625)"/>
       </defs>
       <use xlink:href="#DejaVuSans-2212"/>
       <use xlink:href="#DejaVuSans-30" x="83.789062"/>
       <use xlink:href="#DejaVuSans-2e" x="147.412109"/>
       <use xlink:href="#DejaVuSans-35" x="179.199219"/>
       <use xlink:href="#DejaVuSans-30" x="242.822266"/>
      </g>
     </g>
    </g>
    <g id="ytick_2">
     <g id="line2d_19">
      <path d="M 57.6 268.867553 
L 414.72 268.867553 
" clip-path="url(#pe8c842716e)" style="fill: none; stroke: #b0b0b0; stroke-width: 0.8; stroke-linecap: square"/>
     </g>
     <g id="line2d_20">
      <g>
       <use xlink:href="#mcf38cf8673" x="57.6" y="268.867553" style="stroke: #000000; stroke-width: 0.8"/>
      </g>
     </g>
     <g id="text_11">
      <!-- −0.25 -->
      <g transform="translate(19.954687 272.666772)scale(0.1 -0.1)">
       <use xlink:href="#DejaVuSans-2212"/>
       <use xlink:href="#DejaVuSans-30" x="83.789062"/>
       <use xlink:href="#DejaVuSans-2e" x="147.412109"/>
       <use xlink:href="#DejaVuSans-32" x="179.199219"/>
       <use xlink:href="#DejaVuSans-35" x="242.822266"/>
      </g>
     </g>
    </g>
    <g id="ytick_3">
     <g id="line2d_21">
      <path d="M 57.6 238.110474 
L 414.72 238.110474 
" clip-path="url(#pe8c842716e)" style="fill: none; stroke: #b0b0b0; stroke-width: 0.8; stroke-linecap: square"/>
     </g>
     <g id="line2d_22">
      <g>
       <use xlink:href="#mcf38cf8673" x="57.6" y="238.110474" style="stroke: #000000; stroke-width: 0.8"/>
      </g>
     </g>
     <g id="text_12">
      <!-- 0.00 -->
      <g transform="translate(28.334375 241.909693)scale(0.1 -0.1)">
       <use xlink:href="#DejaVuSans-30"/>
       <use xlink:href="#DejaVuSans-2e" x="63.623047"/>
       <use xlink:href="#DejaVuSans-30" x="95.410156"/>
       <use xlink:href="#DejaVuSans-30" x="159.033203"/>
      </g>
     </g>
    </g>
    <g id="ytick_4">
     <g id="line2d_23">
      <path d="M 57.6 207.353395 
L 414.72 207.353395 
" clip-path="url(#pe8c842716e)" style="fill: none; stroke: #b0b0b0; stroke-width: 0.8; stroke-linecap: square"/>
     </g>
     <g id="line2d_24">
      <g>
       <use xlink:href="#mcf38cf8673" x="57.6" y="207.353395" style="stroke: #000000; stroke-width: 0.8"/>
      </g>
     </g>
     <g id="text_13">
      <!-- 0.25 -->
      <g transform="translate(28.334375 211.152614)scale(0.1 -0.1)">
       <use xlink:href="#DejaVuSans-30"/>
       <use xlink:href="#DejaVuSans-2e" x="63.623047"/>
       <use xlink:href="#DejaVuSans-32" x="95.410156"/>
       <use xlink:href="#DejaVuSans-35" x="159.033203"/>
      </g>
     </g>
    </g>
    <g id="ytick_5">
     <g id="line2d_25">
      <path d="M 57.6 176.596316 
L 414.72 176.596316 
" clip-path="url(#pe8c842716e)" style="fill: none; stroke: #b0b0b0; stroke-width: 0.8; stroke-linecap: square"/>
     </g>
     <g id="line2d_26">
      <g>
       <use xlink:href="#mcf38cf8673" x="57.6" y="176.596316" style="stroke: #000000; stroke-width: 0.8"/>
      </g>
     </g>
     <g id="text_14">
      <!-- 0.50 -->
      <g transform="translate(28.334375 180.395535)scale(0.1 -0.1)">
       <use xlink:href="#DejaVuSans-30"/>
       <use xlink:href="#DejaVuSans-2e" x="63.623047"/>
       <use xlink:href="#DejaVuSans-35" x="95.410156"/>
       <use xlink:href="#DejaVuSans-30" x="159.033203"/>
      </g>
     </g>
    </g>
    <g id="ytick_6">
     <g id="line2d_27">
      <path d="M 57.6 145.839237 
L 414.72 145.839237 
" clip-path="url(#pe8c842716e)" style="fill: none; stroke: #b0b0b0; stroke-width: 0.8; stroke-linecap: square"/>
     </g>
     <g id="line2d_28">
      <g>
       <use xlink:href="#mcf38cf8673" x="57.6" y="145.839237" style="stroke: #000000; stroke-width: 0.8"/>
      </g>
     </g>
     <g id="text_15">
      <!-- 0.75 -->
      <g transform="translate(28.334375 149.638456)scale(0.1 -0.1)">
       <defs>
        <path id="DejaVuSans-37" d="M 525 4666 
L 3525 4666 
L 3525 4397 
L 1831 0 
L 1172 0 
L 2766 4134 
L 525 4134 
L 525 4666 
z
" transform="scale(0.015625)"/>
       </defs>
       <use xlink:href="#DejaVuSans-30"/>
       <use xlink:href="#DejaVuSans-2e" x="63.623047"/>
       <use xlink:href="#DejaVuSans-37" x="95.410156"/>
       <use xlink:href="#DejaVuSans-35" x="159.033203"/>
      </g>
     </g>
    </g>
    <g id="ytick_7">
     <g id="line2d_29">
      <path d="M 57.6 115.082158 
L 414.72 115.082158 
" clip-path="url(#pe8c842716e)" style="fill: none; stroke: #b0b0b0; stroke-width: 0.8; stroke-linecap: square"/>
     </g>
     <g id="line2d_30">
      <g>
       <use xlink:href="#mcf38cf8673" x="57.6" y="115.082158" style="stroke: #000000; stroke-width: 0.8"/>
      </g>
     </g>
     <g id="text_16">
      <!-- 1.00 -->
      <g transform="translate(28.334375 118.881377)scale(0.1 -0.1)">
       <use xlink:href="#DejaVuSans-31"/>
       <use xlink:href="#DejaVuSans-2e" x="63.623047"/>
       <use xlink:href="#DejaVuSans-30" x="95.410156"/>
       <use xlink:href="#DejaVuSans-30" x="159.033203"/>
      </g>
     </g>
    </g>
    <g id="ytick_8">
     <g id="line2d_31">
      <path d="M 57.6 84.325079 
L 414.72 84.325079 
" clip-path="url(#pe8c842716e)" style="fill: none; stroke: #b0b0b0; stroke-width: 0.8; stroke-linecap: square"/>
     </g>
     <g id="line2d_32">
      <g>
       <use xlink:href="#mcf38cf8673" x="57.6" y="84.325079" style="stroke: #000000; stroke-width: 0.8"/>
      </g>
     </g>
     <g id="text_17">
      <!-- 1.25 -->
      <g transform="translate(28.334375 88.124298)scale(0.1 -0.1)">
       <use xlink:href="#DejaVuSans-31"/>
       <use xlink:href="#DejaVuSans-2e" x="63.623047"/>
       <use xlink:href="#DejaVuSans-32" x="95.410156"/>
       <use xlink:href="#DejaVuSans-35" x="159.033203"/>
      </g>
     </g>
    </g>
    <g id="ytick_9">
     <g id="line2d_33">
      <path d="M 57.6 53.568 
L 414.72 53.568 
" clip-path="url(#pe8c842716e)" style="fill: none; stroke: #b0b0b0; stroke-width: 0.8; stroke-linecap: square"/>
     </g>
     <g id="line2d_34">
      <g>
       <use xlink:href="#mcf38cf8673" x="57.6" y="53.568" style="stroke: #000000; stroke-width: 0.8"/>
      </g>
     </g>
     <g id="text_18">
      <!-- 1.50 -->
      <g transform="translate(28.334375 57.367219)scale(0.1 -0.1)">
       <use xlink:href="#DejaVuSans-31"/>
       <use xlink:href="#DejaVuSans-2e" x="63.623047"/>
       <use xlink:href="#DejaVuSans-35" x="95.410156"/>
       <use xlink:href="#DejaVuSans-30" x="159.033203"/>
      </g>
     </g>
    </g>
    <g id="text_19">
     <!-- l -->
     <g transform="translate(13.875 175.917062)rotate(-90)scale(0.1 -0.1)">
      <defs>
       <path id="DejaVuSans-6c" d="M 603 4863 
L 1178 4863 
L 1178 0 
L 603 0 
L 603 4863 
z
" transform="scale(0.015625)"/>
      </defs>
      <use xlink:href="#DejaVuSans-6c"/>
     </g>
    </g>
   </g>
   <g id="line2d_35">
    <path d="M 73.832727 238.110474 
L 74.849978 256.42639 
L 75.845585 270.514252 
L 76.830371 281.448001 
L 77.793513 289.792823 
L 78.637615 295.488 
L 78.648436 295.463956 
L 78.735011 294.291738 
L 79.838836 276.357948 
L 80.672116 266.694141 
L 81.516218 259.392025 
L 82.349498 254.015794 
L 83.204422 249.909713 
L 84.02688 246.965481 
L 84.849338 244.75789 
L 85.660975 243.120465 
L 86.797265 241.487352 
L 87.782051 240.512467 
L 89.632582 239.384662 
L 90.736407 238.986719 
L 94.534865 238.356128 
L 95.021847 238.319994 
L 95.984989 238.259476 
L 96.504436 238.235132 
L 97.532509 238.194248 
L 231.095389 238.117679 
L 231.203607 237.508601 
L 231.214429 237.658089 
L 231.225251 237.771212 
L 231.27936 237.328462 
L 231.290182 237.511285 
L 231.409222 236.896901 
L 231.420044 237.081042 
L 231.495796 236.61703 
L 231.506618 236.801963 
L 231.625658 236.209516 
L 231.63648 236.395622 
L 231.712233 235.945699 
L 231.723055 236.132576 
L 231.842095 235.561247 
L 231.852916 235.749266 
L 231.928669 235.31231 
L 231.939491 235.50108 
L 232.058531 234.950331 
L 232.069353 235.140211 
L 232.145105 234.717113 
L 232.155927 234.907149 
L 232.274967 234.376984 
L 232.285789 234.568671 
L 232.361542 234.157869 
L 232.372364 234.349627 
L 232.491404 233.839123 
L 232.502225 234.032565 
L 232.577978 233.633364 
L 232.5888 233.827494 
L 232.70784 233.335879 
L 232.718662 233.531024 
L 232.794415 233.144637 
L 232.805236 233.339159 
L 232.924276 232.866565 
L 232.935098 233.063361 
L 233.010851 232.688053 
L 233.021673 232.885367 
L 233.140713 232.429843 
L 233.151535 232.628188 
L 233.227287 232.26353 
L 233.238109 232.462549 
L 233.367971 231.791787 
L 233.378793 231.992336 
L 233.454545 231.643921 
L 233.465367 231.844198 
L 233.584407 231.429249 
L 233.595229 231.631264 
L 233.670982 231.293109 
L 233.681804 231.494804 
L 233.800844 231.096191 
L 233.811665 231.299448 
L 233.887418 230.970908 
L 233.89824 231.173893 
L 234.01728 230.790761 
L 234.028102 230.994828 
L 234.103855 230.67611 
L 234.114676 230.880688 
L 234.244538 230.281052 
L 234.25536 230.487746 
L 234.331113 230.1817 
L 234.341935 230.388889 
L 234.460975 230.039975 
L 234.471796 230.24789 
L 234.547549 229.950667 
L 234.558371 230.158715 
L 234.677411 229.823555 
L 234.688233 230.031643 
L 234.763985 229.743004 
L 234.774807 229.95253 
L 234.904669 229.403962 
L 234.915491 229.614745 
L 234.991244 229.336959 
L 235.002065 229.548161 
L 235.121105 229.243604 
L 235.131927 229.455413 
L 235.20768 229.185388 
L 235.218502 229.39718 
L 235.337542 229.103803 
L 235.348364 229.315858 
L 235.413295 228.841886 
L 235.424116 229.055179 
L 235.543156 228.777021 
L 235.553978 228.991198 
L 235.651375 228.72872 
L 235.662196 228.942524 
L 235.781236 228.675602 
L 235.792058 228.890183 
L 235.878633 228.423003 
L 235.889455 228.638991 
L 236.008495 228.38689 
L 236.019316 228.603011 
L 236.116713 228.360427 
L 236.127535 228.577207 
L 236.257396 228.112551 
L 236.268218 228.329583 
L 236.365615 228.097814 
L 236.376436 228.315137 
L 236.495476 228.083536 
L 236.506298 228.301155 
L 236.603695 228.073384 
L 236.722735 227.852215 
L 236.841775 228.069895 
L 236.960815 227.851235 
L 236.99328 228.070093 
L 237.014924 227.63278 
L 237.069033 227.85513 
L 237.079855 227.636497 
L 237.177251 227.860877 
L 237.188073 227.642764 
L 237.307113 227.868214 
L 237.393687 227.435376 
L 237.372044 227.871691 
L 237.436975 227.439727 
L 237.556015 227.67026 
L 237.566836 227.452035 
L 237.664233 227.679196 
L 237.675055 227.461283 
L 237.794095 227.688967 
L 237.837382 227.2544 
L 237.815738 227.690426 
L 237.923956 227.263852 
L 238.042996 227.49447 
L 238.053818 227.27627 
L 238.151215 227.503283 
L 238.162036 227.284938 
L 238.281076 227.511481 
L 238.367651 227.07839 
L 238.324364 227.513785 
L 238.410938 227.082342 
L 238.529978 227.310862 
L 238.5408 227.092507 
L 238.638196 227.31758 
L 238.649018 227.099061 
L 238.768058 227.323388 
L 238.887098 227.107526 
L 239.006138 227.327687 
L 239.136 226.890579 
L 239.25504 227.113023 
L 239.37408 226.895622 
L 239.49312 227.114697 
L 239.61216 226.894249 
L 239.7312 227.11047 
L 239.85024 226.887584 
L 239.96928 227.101623 
L 240.08832 226.87688 
L 240.099142 227.095299 
L 240.196538 226.871058 
L 240.20736 227.089434 
L 240.3264 226.863536 
L 240.337222 227.081877 
L 240.434618 226.856975 
L 240.44544 227.075301 
L 240.56448 226.848943 
L 240.575302 227.067267 
L 240.672698 226.842264 
L 240.68352 227.060599 
L 240.80256 226.83445 
L 240.813382 227.052814 
L 240.910778 226.828245 
L 240.9216 227.046646 
L 241.04064 226.821338 
L 241.062284 226.820256 
L 241.15968 227.034678 
L 241.27872 226.810794 
L 241.39776 227.025829 
L 241.5168 226.803893 
L 241.63584 227.021112 
L 241.75488 226.801583 
L 241.87392 227.021406 
L 241.99296 226.804674 
L 242.112 227.02745 
L 242.209396 226.812732 
L 242.23104 226.81383 
L 242.35008 227.039835 
L 242.360902 226.821571 
L 242.458298 227.047685 
L 242.46912 226.829568 
L 242.58816 227.059003 
L 242.598982 226.841064 
L 242.696378 227.070043 
L 242.7072 226.852257 
L 242.82624 227.08525 
L 242.837062 226.867649 
L 242.934458 227.099569 
L 242.94528 226.882122 
L 242.999389 227.108944 
L 243.021033 226.674735 
L 243.053498 226.900274 
L 243.06432 226.683541 
L 243.161716 226.923112 
L 243.172538 226.706522 
L 243.291578 226.952328 
L 243.3024 226.73591 
L 243.399796 226.978171 
L 243.410618 226.761895 
L 243.529658 227.010955 
L 243.54048 226.794846 
L 243.637876 227.039726 
L 243.648698 226.823755 
L 243.767738 227.075955 
L 243.77856 226.860146 
L 243.875956 227.107531 
L 243.886778 226.891853 
L 244.005818 227.147209 
L 244.01664 226.931489 
L 244.114036 227.181401 
L 244.124858 226.965787 
L 244.243898 227.223899 
L 244.25472 227.008405 
L 244.352116 227.260485 
L 244.362938 227.045086 
L 244.395404 227.275407 
L 244.417047 226.845493 
L 244.471156 227.086047 
L 244.481978 226.871553 
L 244.579375 227.130063 
L 244.590196 226.91566 
L 244.709236 227.184239 
L 244.720058 226.969635 
L 244.817455 227.229945 
L 244.828276 227.015401 
L 244.947316 227.285667 
L 244.958138 227.071188 
L 245.055535 227.332771 
L 245.066356 227.11834 
L 245.185396 227.390021 
L 245.293615 227.000836 
L 245.271971 227.428584 
L 245.315258 227.011632 
L 245.434298 227.290416 
L 245.44512 227.07664 
L 245.542516 227.344828 
L 245.553338 227.131063 
L 245.672378 227.410359 
L 245.6832 227.196599 
L 245.780596 227.465108 
L 245.791418 227.251348 
L 245.910458 227.530904 
L 246.018676 227.585758 
L 246.04032 227.159289 
L 246.15936 227.44477 
L 246.170182 227.231501 
L 246.245935 227.492766 
L 246.256756 227.27947 
L 246.375796 227.564457 
L 246.386618 227.351116 
L 246.484015 227.623883 
L 246.494836 227.4105 
L 246.613876 227.69476 
L 246.624698 227.481324 
L 246.722095 227.753404 
L 246.732916 227.540593 
L 246.787025 227.788385 
L 246.808669 227.362576 
L 246.841135 227.600958 
L 246.851956 227.387952 
L 246.927709 227.651492 
L 246.938531 227.438432 
L 247.057571 227.726591 
L 247.068393 227.513448 
L 247.144145 227.776175 
L 247.154967 227.562974 
L 247.274007 227.849803 
L 247.284829 227.636514 
L 247.360582 227.898368 
L 247.371404 227.685817 
L 247.490444 227.97039 
L 247.598662 228.029647 
L 247.620305 227.603979 
L 247.739345 227.893577 
L 247.750167 227.68048 
L 247.82592 227.944 
L 247.836742 227.73083 
L 247.955782 228.018657 
L 247.966604 227.805378 
L 248.042356 228.067774 
L 248.053178 227.855347 
L 248.172218 228.140435 
L 248.18304 227.92792 
L 248.258793 228.188213 
L 248.269615 227.975639 
L 248.388655 228.258896 
L 248.399476 228.046236 
L 248.496873 228.31691 
L 248.507695 228.104179 
L 248.561804 228.351336 
L 248.583447 227.925313 
L 248.615913 228.163514 
L 248.626735 227.950223 
L 248.702487 228.212989 
L 248.713309 227.999621 
L 248.832349 228.286157 
L 248.843171 228.073737 
L 248.918924 228.334232 
L 248.929745 228.12175 
L 249.048785 228.405324 
L 249.059607 228.192752 
L 249.157004 228.463661 
L 249.167825 228.251017 
L 249.286865 228.532617 
L 249.297687 228.319889 
L 249.395084 228.589238 
L 249.405905 228.376444 
L 249.524945 228.656215 
L 249.535767 228.443344 
L 249.633164 228.711257 
L 249.643985 228.498325 
L 249.763025 228.776423 
L 249.773847 228.563422 
L 249.871244 228.830028 
L 249.882065 228.616973 
L 250.001105 228.894771 
L 250.011927 228.680415 
L 250.109324 228.947066 
L 250.120145 228.732647 
L 250.239185 229.009106 
L 250.282473 228.592186 
L 250.260829 229.019374 
L 250.369047 228.637329 
L 250.488087 228.917154 
L 250.498909 228.704366 
L 250.596305 228.972483 
L 250.607127 228.759651 
L 250.726167 229.038232 
L 250.736989 228.825351 
L 250.834385 229.092526 
L 250.845207 228.879608 
L 250.964247 229.157135 
L 250.975069 228.944177 
L 251.072465 229.210564 
L 251.083287 228.997575 
L 251.202327 229.274234 
L 251.213149 229.061213 
L 251.310545 229.326961 
L 251.321367 229.113917 
L 251.440407 229.389886 
L 251.451229 229.176818 
L 251.548625 229.44207 
L 251.559447 229.228986 
L 251.678487 229.504433 
L 251.689309 229.291333 
L 251.786705 229.556223 
L 251.797527 229.343112 
L 251.916567 229.618199 
L 251.927389 229.405079 
L 252.024785 229.669734 
L 252.035607 229.456609 
L 252.154647 229.731482 
L 252.165469 229.518355 
L 252.262865 229.782891 
L 252.273687 229.569764 
L 252.392727 229.84456 
L 252.403549 229.631436 
L 252.500945 229.89596 
L 252.511767 229.68284 
L 252.630807 229.957682 
L 252.641629 229.744571 
L 252.739025 230.009176 
L 252.749847 229.796074 
L 252.868887 230.071068 
L 252.879709 229.857979 
L 252.977105 230.122748 
L 252.987927 229.909671 
L 253.106967 230.184912 
L 253.117789 229.971851 
L 253.215185 230.236855 
L 253.226007 230.023808 
L 253.345047 230.299374 
L 253.355869 230.086347 
L 253.453265 230.351643 
L 253.464087 230.138633 
L 253.583127 230.414585 
L 253.593949 230.201596 
L 253.691345 230.46723 
L 253.702167 230.254259 
L 253.821207 230.530645 
L 253.832029 230.317698 
L 253.929425 230.5837 
L 253.940247 230.370772 
L 254.059287 230.647623 
L 254.070109 230.434718 
L 254.167505 230.701109 
L 254.178327 230.48673 
L 254.297367 230.765563 
L 254.308189 230.551205 
L 254.405585 230.819466 
L 254.416407 230.605126 
L 254.535447 230.88438 
L 254.546269 230.670062 
L 254.643665 230.938663 
L 254.654487 230.724363 
L 254.773527 231.004026 
L 254.784349 230.789747 
L 254.881745 231.058674 
L 254.892567 230.844413 
L 255.011607 231.124461 
L 255.022429 230.91022 
L 255.119825 231.17945 
L 255.130647 230.965225 
L 255.249687 231.245625 
L 255.260509 231.031419 
L 255.357905 231.300917 
L 255.368727 231.086726 
L 255.487767 231.365972 
L 255.498589 231.153261 
L 255.595985 231.421508 
L 255.606807 231.208803 
L 255.725847 231.488241 
L 255.736669 231.27554 
L 255.834065 231.543915 
L 255.844887 231.331217 
L 255.963927 231.610782 
L 255.974749 231.398085 
L 256.072145 231.66654 
L 256.082967 231.453842 
L 256.202007 231.733471 
L 256.212829 231.520772 
L 256.310225 231.789252 
L 256.321047 231.576548 
L 256.440087 231.856177 
L 256.450909 231.642052 
L 256.548305 231.911898 
L 256.559127 231.697769 
L 256.678167 231.978658 
L 256.688989 231.764523 
L 256.786385 232.034188 
L 256.797207 231.820046 
L 256.916247 232.10068 
L 256.927069 231.886529 
L 257.024465 232.155954 
L 257.035287 231.941793 
L 257.154327 232.222099 
L 257.165149 232.007925 
L 257.262545 232.277049 
L 257.273367 232.062864 
L 257.392407 232.341409 
L 257.403229 232.128553 
L 257.500625 232.395928 
L 257.511447 232.183044 
L 257.522269 232.406803 
L 257.543913 231.980232 
L 257.619665 232.241645 
L 257.630487 232.027938 
L 257.727884 232.300984 
L 257.738705 232.087244 
L 257.857745 232.3717 
L 257.868567 232.15792 
L 257.965964 232.430208 
L 257.976785 232.216394 
L 258.095825 232.499898 
L 258.106647 232.286041 
L 258.204044 232.556239 
L 258.214865 232.343627 
L 258.333905 232.624796 
L 258.344727 232.412122 
L 258.442124 232.681413 
L 258.452945 232.468687 
L 258.571985 232.748725 
L 258.582807 232.535936 
L 258.680204 232.804286 
L 258.691025 232.591444 
L 258.810065 232.870311 
L 258.820887 232.657403 
L 258.918284 232.924784 
L 258.929105 232.710602 
L 259.048145 232.989455 
L 259.058967 232.775212 
L 259.156364 233.042735 
L 259.167185 232.828442 
L 259.286225 233.105931 
L 259.297047 232.891576 
L 259.394444 233.157974 
L 259.405265 232.943567 
L 259.437731 233.178632 
L 259.459375 232.75149 
L 259.513484 232.998259 
L 259.524305 232.785501 
L 259.621702 233.054472 
L 259.632524 232.841641 
L 259.751564 233.12103 
L 259.762385 232.906969 
L 259.859782 233.175717 
L 259.870604 232.961588 
L 259.989644 233.240384 
L 260.000465 233.026174 
L 260.097862 233.293479 
L 260.108684 233.079203 
L 260.227724 233.356244 
L 260.238545 233.141888 
L 260.335942 233.40776 
L 260.346764 233.193338 
L 260.465804 233.468639 
L 260.476625 233.254138 
L 260.574022 233.517525 
L 260.584844 233.30402 
L 260.703884 233.576495 
L 260.714705 233.362894 
L 260.812102 233.62482 
L 260.822924 233.41114 
L 260.941964 233.681839 
L 260.952785 233.468066 
L 261.050182 233.728555 
L 261.061004 233.514704 
L 261.180044 233.783662 
L 261.223331 233.364367 
L 261.201687 233.792747 
L 261.309905 233.40465 
L 261.428945 233.677676 
L 261.439767 233.464082 
L 261.537164 233.726362 
L 261.547985 233.51268 
L 261.667025 233.783689 
L 261.677847 233.569901 
L 261.775244 233.83056 
L 261.786065 233.616686 
L 261.905105 233.885743 
L 261.915927 233.671767 
L 262.013324 233.930856 
L 262.024145 233.716797 
L 262.143185 233.983963 
L 262.154007 233.769806 
L 262.251404 234.02737 
L 262.262225 233.812222 
L 262.381265 234.078413 
L 262.392087 233.863176 
L 262.489484 234.120091 
L 262.500305 233.904782 
L 262.619345 234.169097 
L 262.630167 233.953704 
L 262.727564 234.209113 
L 262.738385 233.993651 
L 262.857425 234.256167 
L 262.868247 234.040623 
L 262.965644 234.294589 
L 262.976465 234.078979 
L 263.095505 234.338937 
L 263.106327 234.124083 
L 263.203724 234.375818 
L 263.214545 234.160887 
L 263.290298 234.404809 
L 263.311942 233.974552 
L 263.322764 234.198076 
L 263.333585 233.982794 
L 263.430982 234.238883 
L 263.441804 234.023526 
L 263.560844 234.286816 
L 263.571665 234.071372 
L 263.669062 234.325919 
L 263.679884 234.110404 
L 263.798924 234.371858 
L 263.809745 234.15626 
L 263.907142 234.40934 
L 263.917964 234.193674 
L 264.037004 234.452624 
L 264.047825 234.237637 
L 264.145222 234.488558 
L 264.156044 234.273495 
L 264.275084 234.53074 
L 264.285905 234.315588 
L 264.383302 234.565132 
L 264.394124 234.349908 
L 264.513164 234.605516 
L 264.523985 234.390208 
L 264.621382 234.638452 
L 264.632204 234.423076 
L 264.751244 234.67714 
L 264.762065 234.461684 
L 264.859462 234.708702 
L 264.870284 234.493182 
L 264.989324 234.745789 
L 265.000145 234.530194 
L 265.097542 234.776055 
L 265.108364 234.559721 
L 265.227404 234.811615 
L 265.238225 234.595214 
L 265.335622 234.840609 
L 265.346444 234.624155 
L 265.465484 234.87466 
L 265.476305 234.658144 
L 265.573702 234.902437 
L 265.584524 234.685871 
L 265.703564 234.935076 
L 265.714385 234.718452 
L 265.811782 234.961716 
L 265.822604 234.745045 
L 265.941644 234.993034 
L 265.952465 234.77631 
L 266.049862 235.018609 
L 266.060684 234.801841 
L 266.179724 235.048691 
L 266.190545 234.831873 
L 266.287942 235.073269 
L 266.298764 234.85641 
L 266.417804 235.101587 
L 266.428625 234.885274 
L 266.526022 235.125196 
L 266.536844 234.908837 
L 266.655884 235.152959 
L 266.720815 234.72918 
L 266.699171 235.162079 
L 266.785745 234.745953 
L 266.904785 234.995508 
L 266.915607 234.778956 
L 267.013004 235.022518 
L 267.023825 234.80592 
L 267.142865 235.054305 
L 267.153687 234.837655 
L 267.251084 235.080291 
L 267.261905 234.863599 
L 267.380945 235.11089 
L 267.391767 234.89415 
L 267.489164 235.135919 
L 267.499985 234.919139 
L 267.619025 235.165408 
L 267.629847 234.948583 
L 267.727244 235.189017 
L 267.738065 234.97268 
L 267.857105 235.21745 
L 267.867927 235.001062 
L 267.965324 235.240703 
L 267.976145 235.024273 
L 268.095185 235.268097 
L 268.106007 235.051619 
L 268.203404 235.290516 
L 268.214225 235.073999 
L 268.333265 235.316947 
L 268.344087 235.100384 
L 268.441484 235.338592 
L 268.452305 235.121994 
L 268.571345 235.364128 
L 268.582167 235.147488 
L 268.679564 235.385055 
L 268.690385 235.168381 
L 268.809425 235.409761 
L 268.820247 235.193048 
L 268.917644 235.430021 
L 268.928465 235.213276 
L 269.047505 235.453954 
L 269.058327 235.237173 
L 269.155724 235.473594 
L 269.166545 235.256784 
L 269.285585 235.496809 
L 269.296407 235.279965 
L 269.393804 235.515871 
L 269.404625 235.298546 
L 269.523665 235.538406 
L 269.534487 235.321051 
L 269.631884 235.556893 
L 269.642705 235.339514 
L 269.761745 235.578743 
L 269.772567 235.361336 
L 269.869964 235.596682 
L 269.880785 235.379253 
L 269.999825 235.617899 
L 270.010647 235.400446 
L 270.108044 235.635333 
L 270.118865 235.417859 
L 270.237905 235.655967 
L 270.248727 235.43847 
L 270.346124 235.672934 
L 270.356945 235.455418 
L 270.475985 235.69303 
L 270.486807 235.475492 
L 270.584204 235.709564 
L 270.595025 235.49201 
L 270.714065 235.729162 
L 270.724887 235.511587 
L 270.822284 235.745296 
L 270.833105 235.527706 
L 270.952145 235.764431 
L 270.962967 235.546823 
L 271.060364 235.780195 
L 271.071185 235.562572 
L 271.190225 235.798901 
L 271.201047 235.581261 
L 271.298444 235.81432 
L 271.309265 235.596666 
L 271.428305 235.832626 
L 271.439127 235.614957 
L 271.536524 235.847724 
L 271.547345 235.630042 
L 271.666385 235.865268 
L 271.677207 235.647952 
L 271.774604 235.880038 
L 271.785425 235.662706 
L 271.904465 235.897565 
L 271.915287 235.680213 
L 272.012684 235.912012 
L 272.023505 235.694645 
L 272.142545 235.929167 
L 272.153367 235.711782 
L 272.250764 235.943317 
L 272.261585 235.725917 
L 272.380625 235.96013 
L 272.391447 235.742713 
L 272.488844 235.974005 
L 272.499665 235.756576 
L 272.618705 235.990501 
L 272.629527 235.773056 
L 272.726924 236.004123 
L 272.737745 235.786665 
L 272.856785 236.020325 
L 272.867607 235.802854 
L 272.965004 236.033712 
L 272.975825 235.816228 
L 273.094865 236.049642 
L 273.105687 235.832145 
L 273.203084 236.062809 
L 273.213905 235.845301 
L 273.332945 236.078485 
L 273.343767 235.860964 
L 273.441164 236.091447 
L 273.451985 235.873917 
L 273.571025 236.106886 
L 273.581847 235.889343 
L 273.679244 236.119656 
L 273.690065 235.902104 
L 273.809105 236.134871 
L 273.819927 235.917307 
L 273.917324 236.147461 
L 273.928145 235.929888 
L 274.047185 236.162465 
L 274.058007 235.944881 
L 274.155404 236.174884 
L 274.166225 235.957292 
L 274.285265 236.189689 
L 274.296087 235.971768 
L 274.393484 236.20194 
L 274.404305 235.984011 
L 274.523345 236.216521 
L 274.534167 235.998582 
L 274.631564 236.228574 
L 274.642385 236.010628 
L 274.761425 236.242927 
L 274.772247 236.024972 
L 274.869644 236.254797 
L 274.880465 236.036835 
L 274.999505 236.268937 
L 275.010327 236.050967 
L 275.107724 236.280636 
L 275.118545 236.06266 
L 275.237585 236.294578 
L 275.248407 236.076594 
L 275.345804 236.306117 
L 275.356625 236.088127 
L 275.475665 236.319872 
L 275.486487 236.101876 
L 275.583884 236.331261 
L 275.594705 236.113259 
L 275.713745 236.344841 
L 275.724567 236.126833 
L 275.821964 236.356088 
L 275.832785 236.138074 
L 275.951825 236.369501 
L 275.962647 236.151482 
L 276.060044 236.380613 
L 276.070865 236.162588 
L 276.189905 236.393868 
L 276.200727 236.175838 
L 276.298124 236.404851 
L 276.308945 236.186816 
L 276.427985 236.417955 
L 276.438807 236.199914 
L 276.536204 236.428813 
L 276.547025 236.210768 
L 276.666065 236.441771 
L 276.676887 236.223721 
L 276.774284 236.452511 
L 276.785105 236.234456 
L 276.904145 236.465327 
L 276.914967 236.247268 
L 277.012364 236.475951 
L 277.023185 236.257887 
L 277.142225 236.48863 
L 277.153047 236.270561 
L 277.250444 236.49914 
L 277.261265 236.281067 
L 277.380305 236.511685 
L 277.391127 236.293608 
L 277.488524 236.522085 
L 277.499345 236.304003 
L 277.618385 236.534498 
L 277.629207 236.316411 
L 277.726604 236.544535 
L 277.737425 236.326696 
L 277.856465 236.556799 
L 277.867287 236.338951 
L 277.964684 236.566945 
L 277.975505 236.349089 
L 278.094545 236.579033 
L 278.105367 236.361168 
L 278.202764 236.589037 
L 278.213585 236.371164 
L 278.332625 236.600958 
L 278.343447 236.383077 
L 278.440844 236.610826 
L 278.451665 236.392938 
L 278.570705 236.622588 
L 278.581527 236.404692 
L 278.678924 236.632327 
L 278.689745 236.414424 
L 278.808785 236.643937 
L 278.819607 236.426027 
L 278.917004 236.653552 
L 278.927825 236.435634 
L 279.046865 236.665016 
L 279.057687 236.447091 
L 279.155084 236.674511 
L 279.165905 236.45658 
L 279.284945 236.685835 
L 279.295767 236.467896 
L 279.393164 236.695214 
L 279.403985 236.477269 
L 279.523025 236.7064 
L 279.533847 236.488448 
L 279.631244 236.715667 
L 279.642065 236.497709 
L 279.761105 236.726721 
L 279.771927 236.508756 
L 279.869324 236.735877 
L 279.880145 236.517906 
L 279.999185 236.746801 
L 280.010007 236.528823 
L 280.107404 236.75585 
L 280.118225 236.537866 
L 280.237265 236.766645 
L 280.248087 236.548655 
L 280.345484 236.775589 
L 280.356305 236.557592 
L 280.475345 236.786258 
L 280.486167 236.568255 
L 280.583564 236.795097 
L 280.594385 236.577088 
L 280.713425 236.805642 
L 280.724247 236.587626 
L 280.821644 236.814378 
L 280.832465 236.596356 
L 280.951505 236.824799 
L 280.962327 236.606771 
L 281.059724 236.833432 
L 281.070545 236.615398 
L 281.189585 236.84373 
L 281.200407 236.62569 
L 281.297804 236.852261 
L 281.308625 236.634215 
L 281.427665 236.862437 
L 281.438487 236.644385 
L 281.535884 236.870866 
L 281.546705 236.652808 
L 281.665745 236.88092 
L 281.676567 236.662855 
L 281.773964 236.889243 
L 281.784785 236.670991 
L 281.903825 236.899147 
L 281.914647 236.680888 
L 282.012044 236.90733 
L 282.022865 236.689066 
L 282.141905 236.917068 
L 282.152727 236.698797 
L 282.250124 236.925117 
L 282.260945 236.706841 
L 282.379985 236.934697 
L 282.390807 236.716415 
L 282.488204 236.942616 
L 282.499025 236.72433 
L 282.618065 236.952045 
L 282.628887 236.733753 
L 282.726284 236.959842 
L 282.737105 236.741545 
L 282.856145 236.969126 
L 282.866967 236.750823 
L 282.964364 236.976804 
L 282.975185 236.758497 
L 283.094225 236.985949 
L 283.105047 236.767637 
L 283.202444 236.993513 
L 283.213265 236.775197 
L 283.332305 237.002524 
L 283.343127 236.784202 
L 283.440524 237.009978 
L 283.451345 236.791652 
L 283.570385 237.018859 
L 283.581207 236.800528 
L 283.678604 237.026206 
L 283.689425 236.807872 
L 283.808465 237.034961 
L 283.819287 236.816621 
L 283.916684 237.042205 
L 283.927505 236.823862 
L 284.046545 237.050837 
L 284.057367 236.832489 
L 284.154764 237.05798 
L 284.165585 236.839628 
L 284.284625 237.066492 
L 284.295447 236.848136 
L 284.392844 237.073537 
L 284.403665 236.855178 
L 284.522705 237.081933 
L 284.533527 236.863569 
L 284.630924 237.088881 
L 284.641745 236.870514 
L 284.760785 237.097163 
L 284.771607 236.878791 
L 284.869004 237.104017 
L 284.879825 236.885641 
L 284.998865 237.112186 
L 285.009687 236.893806 
L 285.107084 237.118947 
L 285.117905 236.900564 
L 285.236945 237.127006 
L 285.247767 236.908619 
L 285.345164 237.133676 
L 285.355985 236.915286 
L 285.475025 237.141626 
L 285.485847 236.923231 
L 285.583244 237.148206 
L 285.594065 236.929808 
L 285.713105 237.156049 
L 285.723927 236.937647 
L 285.821324 237.16254 
L 285.832145 236.944135 
L 285.951185 237.170277 
L 285.962007 236.951868 
L 286.059404 237.176681 
L 286.070225 236.958269 
L 286.189265 237.184313 
L 286.200087 236.965897 
L 286.297484 237.19063 
L 286.308305 236.97221 
L 286.427345 237.198158 
L 286.438167 236.979735 
L 286.535564 237.204389 
L 286.546385 236.985963 
L 286.665425 237.211815 
L 286.676247 236.993385 
L 286.773644 237.217961 
L 286.784465 236.999528 
L 286.903505 237.225286 
L 286.914327 237.006848 
L 287.011724 237.23124 
L 287.022545 237.012906 
L 287.141585 237.238448 
L 287.152407 237.020108 
L 287.249804 237.244396 
L 287.260625 237.026049 
L 287.379665 237.251463 
L 287.390487 237.033109 
L 287.487884 237.257296 
L 287.498705 237.038936 
L 287.617745 237.26423 
L 287.628567 237.045864 
L 287.725964 237.269955 
L 287.736785 237.051583 
L 287.855825 237.276763 
L 287.866647 237.058386 
L 287.964044 237.282387 
L 287.974865 237.064004 
L 288.093905 237.289076 
L 288.104727 237.070688 
L 288.202124 237.294604 
L 288.212945 237.07621 
L 288.331985 237.301181 
L 288.342807 237.082782 
L 288.440204 237.306617 
L 288.451025 237.088214 
L 288.570065 237.313088 
L 288.591709 237.314161 
L 288.689105 237.100025 
L 288.808145 237.324808 
L 288.927185 237.111653 
L 289.046225 237.33635 
L 289.165265 237.123107 
L 289.284305 237.34772 
L 289.403345 237.134395 
L 289.522385 237.358929 
L 289.641425 237.145523 
L 289.760465 237.36998 
L 289.879505 237.156498 
L 289.998545 237.380882 
L 290.117585 237.167326 
L 290.236625 237.39164 
L 290.355665 237.178012 
L 290.474705 237.402257 
L 290.593745 237.188561 
L 290.712785 237.41274 
L 290.831825 237.198976 
L 290.950865 237.423091 
L 291.069905 237.209262 
L 291.188945 237.433314 
L 291.307985 237.219422 
L 291.427025 237.443414 
L 291.546065 237.22946 
L 291.665105 237.453391 
L 291.784145 237.239377 
L 291.903185 237.46325 
L 292.022225 237.249176 
L 292.141265 237.472992 
L 292.260305 237.25886 
L 292.379345 237.48262 
L 292.498385 237.26843 
L 292.617425 237.492134 
L 292.736465 237.277888 
L 292.855505 237.501538 
L 292.974545 237.287236 
L 293.093585 237.510832 
L 293.212625 237.296475 
L 293.331665 237.520018 
L 293.450705 237.305606 
L 293.569745 237.529096 
L 293.688785 237.314631 
L 293.807825 237.538069 
L 293.926865 237.32355 
L 294.045905 237.546936 
L 294.164945 237.332364 
L 294.283985 237.555699 
L 294.403025 237.341074 
L 294.522065 237.564358 
L 294.641105 237.349682 
L 294.760145 237.572915 
L 294.879185 237.358187 
L 294.998225 237.581369 
L 295.117265 237.36659 
L 295.236305 237.589723 
L 295.355345 237.374892 
L 295.474385 237.597975 
L 295.593425 237.383094 
L 295.712465 237.606128 
L 295.831505 237.391196 
L 295.950545 237.614181 
L 296.069585 237.399199 
L 296.188625 237.622135 
L 296.307665 237.407103 
L 296.426705 237.629991 
L 296.545745 237.41491 
L 296.664785 237.637749 
L 296.783825 237.422619 
L 296.902865 237.645411 
L 297.021905 237.430232 
L 297.140945 237.652976 
L 297.259985 237.437748 
L 297.379025 237.660445 
L 297.498065 237.445169 
L 297.617105 237.667819 
L 297.736145 237.452496 
L 297.855185 237.675099 
L 297.974225 237.459729 
L 298.093265 237.682286 
L 298.212305 237.466868 
L 298.331345 237.689378 
L 298.450385 237.473868 
L 298.569425 237.696329 
L 298.688465 237.480741 
L 298.807505 237.703127 
L 298.926545 237.487468 
L 299.045585 237.709785 
L 299.164625 237.494061 
L 299.283665 237.716314 
L 299.402705 237.500529 
L 299.521745 237.722724 
L 299.640785 237.506884 
L 299.759825 237.729025 
L 299.878865 237.513134 
L 299.997905 237.735225 
L 300.116945 237.519287 
L 300.235985 237.741333 
L 300.355025 237.525351 
L 300.474065 237.747354 
L 300.593105 237.531332 
L 300.712145 237.753296 
L 300.831185 237.537237 
L 300.950225 237.759164 
L 301.069265 237.54307 
L 301.188305 237.764963 
L 301.307345 237.548836 
L 301.426385 237.770698 
L 301.545425 237.55454 
L 301.664465 237.776372 
L 301.783505 237.560186 
L 301.902545 237.78199 
L 302.021585 237.565777 
L 302.140625 237.787554 
L 302.259665 237.571315 
L 302.378705 237.793067 
L 302.497745 237.576804 
L 302.616785 237.798531 
L 302.735825 237.582245 
L 302.854865 237.803949 
L 302.973905 237.58764 
L 303.092945 237.809322 
L 303.211985 237.592991 
L 303.331025 237.814651 
L 303.450065 237.598298 
L 303.569105 237.819937 
L 303.688145 237.603564 
L 303.807185 237.825182 
L 303.926225 237.608788 
L 304.045265 237.830385 
L 304.164305 237.613971 
L 304.283345 237.835548 
L 304.402385 237.619113 
L 304.521425 237.84067 
L 304.640465 237.624215 
L 304.759505 237.845751 
L 304.878545 237.629276 
L 304.997585 237.850792 
L 305.116625 237.634296 
L 305.235665 237.855791 
L 305.354705 237.639275 
L 305.473745 237.860749 
L 305.592785 237.644213 
L 305.711825 237.865665 
L 305.830865 237.649108 
L 305.949905 237.870539 
L 306.068945 237.65396 
L 306.187985 237.87537 
L 306.307025 237.65877 
L 306.426065 237.880157 
L 306.545105 237.663535 
L 306.664145 237.8849 
L 306.783185 237.668255 
L 306.902225 237.889597 
L 307.021265 237.67293 
L 307.140305 237.894248 
L 307.259345 237.677558 
L 307.378385 237.898853 
L 307.497425 237.682139 
L 307.616465 237.90341 
L 307.735505 237.686672 
L 307.854545 237.907919 
L 307.973585 237.691156 
L 308.092625 237.912378 
L 308.211665 237.695591 
L 308.330705 237.916788 
L 308.449745 237.699976 
L 308.568785 237.921146 
L 308.687825 237.704309 
L 308.806865 237.925454 
L 308.925905 237.708591 
L 309.044945 237.929709 
L 309.163985 237.71282 
L 309.283025 237.933912 
L 309.402065 237.716997 
L 309.521105 237.938062 
L 309.640145 237.72112 
L 309.759185 237.942158 
L 309.878225 237.725189 
L 309.997265 237.9462 
L 310.116305 237.729204 
L 310.235345 237.950187 
L 310.354385 237.733164 
L 310.473425 237.95412 
L 310.592465 237.737069 
L 310.711505 237.957997 
L 310.830545 237.740919 
L 310.949585 237.961819 
L 311.068625 237.744714 
L 311.187665 237.965586 
L 311.306705 237.748453 
L 311.425745 237.969297 
L 311.544785 237.752136 
L 311.663825 237.972952 
L 311.782865 237.755764 
L 311.901905 237.976552 
L 312.020945 237.759337 
L 312.139985 237.980097 
L 312.259025 237.762854 
L 312.378065 237.983586 
L 312.497105 237.766316 
L 312.616145 237.987021 
L 312.735185 237.769723 
L 312.854225 237.9904 
L 312.973265 237.773076 
L 313.092305 237.993726 
L 313.211345 237.776375 
L 313.330385 237.996998 
L 313.449425 237.77962 
L 313.568465 238.000216 
L 313.687505 237.782812 
L 313.806545 238.003381 
L 313.925585 237.785952 
L 314.044625 238.006494 
L 314.163665 237.789039 
L 314.282705 238.009556 
L 314.401745 237.792075 
L 314.520785 238.012566 
L 314.639825 237.79506 
L 314.758865 238.015526 
L 314.877905 237.797995 
L 314.996945 238.018437 
L 315.115985 237.800881 
L 315.235025 238.021298 
L 315.354065 237.803719 
L 315.473105 238.024111 
L 315.592145 237.806509 
L 315.711185 238.026877 
L 315.830225 237.809251 
L 315.949265 238.029597 
L 316.068305 237.811948 
L 316.187345 238.032271 
L 316.306385 237.8146 
L 316.425425 238.034901 
L 316.544465 237.817208 
L 316.663505 238.037486 
L 316.782545 237.819772 
L 316.901585 238.040029 
L 317.020625 237.822293 
L 317.139665 238.042529 
L 317.258705 237.824773 
L 317.377745 238.044989 
L 317.496785 237.827213 
L 317.615825 238.047408 
L 317.734865 237.829613 
L 317.853905 238.049789 
L 317.972945 237.831974 
L 318.091985 238.05213 
L 318.211025 237.834297 
L 318.330065 238.054435 
L 318.449105 237.836583 
L 318.568145 238.056703 
L 318.687185 237.838833 
L 318.806225 238.058935 
L 318.925265 237.841048 
L 319.044305 238.061133 
L 319.163345 237.843228 
L 319.282385 238.063297 
L 319.401425 237.845376 
L 319.520465 238.065427 
L 319.639505 237.84749 
L 319.758545 238.067526 
L 319.877585 237.849574 
L 319.996625 238.069594 
L 320.115665 237.851626 
L 320.234705 238.071631 
L 320.353745 237.853648 
L 320.472785 238.073638 
L 320.591825 237.855641 
L 320.710865 238.075617 
L 320.829905 237.857605 
L 320.948945 238.077567 
L 321.067985 237.859542 
L 321.187025 238.079491 
L 321.306065 237.861452 
L 321.425105 238.081387 
L 321.544145 237.863335 
L 321.663185 238.083258 
L 321.782225 237.865193 
L 321.901265 238.085103 
L 322.020305 237.867026 
L 322.139345 238.086923 
L 322.258385 237.868835 
L 322.377425 238.08872 
L 322.496465 237.870619 
L 322.615505 238.090493 
L 322.734545 237.872381 
L 322.853585 238.092244 
L 322.972625 237.87412 
L 323.091665 238.093972 
L 323.210705 237.875838 
L 323.329745 238.095678 
L 323.448785 237.877533 
L 323.567825 238.097363 
L 323.686865 237.879208 
L 323.805905 238.099028 
L 323.924945 237.880862 
L 324.043985 238.100672 
L 324.163025 237.882496 
L 324.282065 238.102296 
L 324.401105 237.884111 
L 324.520145 238.103901 
L 324.639185 237.885706 
L 324.758225 238.105487 
L 324.877265 237.887282 
L 324.996305 238.107054 
L 325.115345 237.88884 
L 325.234385 238.108602 
L 325.353425 237.89038 
L 325.472465 238.110133 
L 325.591505 237.891901 
L 325.710545 238.111646 
L 325.829585 237.893405 
L 325.948625 238.113142 
L 326.067665 237.894892 
L 326.186705 238.11462 
L 326.305745 237.896362 
L 326.424785 238.116081 
L 326.543825 237.897815 
L 326.662865 238.117526 
L 326.781905 237.899252 
L 326.900945 238.118955 
L 327.019985 237.900672 
L 327.139025 238.120367 
L 327.258065 237.902076 
L 327.377105 238.121763 
L 327.496145 237.903464 
L 327.615185 238.123143 
L 327.734225 237.904836 
L 327.853265 238.124507 
L 327.972305 237.906193 
L 328.091345 238.125856 
L 328.210385 237.907534 
L 328.329425 238.12719 
L 328.448465 237.90886 
L 328.567505 238.128508 
L 328.686545 237.910171 
L 328.805585 238.129811 
L 328.924625 237.911466 
L 329.043665 238.131099 
L 329.162705 237.912747 
L 329.281745 238.132372 
L 329.400785 237.914012 
L 329.519825 238.133631 
L 329.638865 237.915263 
L 329.757905 238.134874 
L 329.876945 237.916499 
L 329.995985 238.136103 
L 330.115025 237.917721 
L 330.234065 238.137317 
L 330.353105 237.918928 
L 330.472145 238.138517 
L 330.591185 237.92012 
L 330.710225 238.139702 
L 330.829265 237.921298 
L 330.948305 238.140873 
L 331.067345 237.922462 
L 331.186385 238.142029 
L 331.305425 237.923611 
L 331.424465 238.143172 
L 331.543505 237.924746 
L 331.662545 238.1443 
L 331.781585 237.925867 
L 331.900625 238.145414 
L 332.019665 237.926974 
L 332.138705 238.146514 
L 332.257745 237.928067 
L 332.376785 238.147599 
L 332.495825 237.929146 
L 332.614865 238.148671 
L 332.733905 237.930211 
L 332.852945 238.149729 
L 332.971985 237.931262 
L 333.091025 238.150774 
L 333.210065 237.9323 
L 333.329105 238.151804 
L 333.448145 237.933323 
L 333.567185 238.152821 
L 333.686225 237.934333 
L 333.805265 238.153824 
L 333.924305 237.935329 
L 334.043345 238.154813 
L 334.162385 237.936312 
L 334.281425 238.155789 
L 334.400465 237.937281 
L 334.519505 238.156752 
L 334.638545 237.938237 
L 334.757585 238.157701 
L 334.876625 237.93918 
L 334.995665 238.158638 
L 335.114705 237.94011 
L 335.233745 238.15956 
L 335.352785 237.941026 
L 335.471825 238.16047 
L 335.590865 237.941929 
L 335.709905 238.161367 
L 335.828945 237.94282 
L 335.947985 238.162251 
L 336.067025 237.943697 
L 336.186065 238.163122 
L 336.305105 237.944562 
L 336.424145 238.163981 
L 336.543185 237.945414 
L 336.662225 238.164827 
L 336.781265 237.946254 
L 336.900305 238.16566 
L 337.019345 237.947081 
L 337.138385 238.166481 
L 337.257425 237.947896 
L 337.376465 238.16729 
L 337.495505 237.948699 
L 337.614545 238.168087 
L 337.733585 237.94949 
L 337.852625 238.168872 
L 337.971665 237.950269 
L 338.090705 238.169644 
L 338.209745 237.951036 
L 338.328785 238.170405 
L 338.447825 237.951791 
L 338.566865 238.171155 
L 338.685905 237.952535 
L 338.804945 238.171893 
L 338.923985 237.953267 
L 339.043025 238.17262 
L 339.162065 237.953988 
L 339.281105 238.173335 
L 339.400145 237.954698 
L 339.519185 238.174039 
L 339.638225 237.955397 
L 339.757265 238.174733 
L 339.876305 237.956085 
L 339.995345 238.175415 
L 340.114385 237.956762 
L 340.233425 238.176087 
L 340.352465 237.957429 
L 340.471505 238.176749 
L 340.590545 237.958085 
L 340.709585 238.1774 
L 340.828625 237.958731 
L 340.947665 238.178041 
L 341.066705 237.959367 
L 341.185745 238.178672 
L 341.304785 237.959993 
L 341.423825 238.179293 
L 341.542865 237.960609 
L 341.661905 238.179904 
L 341.780945 237.961215 
L 341.899985 238.180505 
L 342.019025 237.961812 
L 342.138065 238.181098 
L 342.257105 237.962399 
L 342.376145 238.18168 
L 342.495185 237.962978 
L 342.614225 238.182254 
L 342.733265 237.963547 
L 342.852305 238.182819 
L 342.971345 237.964107 
L 343.090385 238.183375 
L 343.209425 237.964659 
L 343.328465 238.183922 
L 343.447505 237.965201 
L 343.566545 238.18446 
L 343.685585 237.965736 
L 343.804625 238.184991 
L 343.923665 237.966262 
L 344.042705 238.185512 
L 344.161745 237.96678 
L 344.280785 238.186026 
L 344.399825 237.967289 
L 344.518865 238.186532 
L 344.637905 237.967791 
L 344.756945 238.18703 
L 344.875985 237.968285 
L 344.995025 238.18752 
L 345.114065 237.968772 
L 345.233105 238.188003 
L 345.352145 237.96925 
L 345.471185 238.188478 
L 345.590225 237.969722 
L 345.709265 238.188946 
L 345.828305 237.970186 
L 345.947345 238.189407 
L 346.066385 237.970644 
L 346.185425 238.18986 
L 346.304465 237.971094 
L 346.423505 238.190307 
L 346.542545 237.971537 
L 346.661585 238.190747 
L 346.780625 237.971974 
L 346.899665 238.19118 
L 347.018705 237.972404 
L 347.137745 238.191607 
L 347.256785 237.972828 
L 347.375825 238.192028 
L 347.494865 237.973245 
L 347.613905 238.192442 
L 347.732945 237.973656 
L 347.851985 238.19285 
L 347.971025 237.97406 
L 348.090065 238.193251 
L 348.209105 237.974459 
L 348.328145 238.193647 
L 348.447185 237.974852 
L 348.566225 238.194037 
L 348.685265 237.975239 
L 348.804305 238.194421 
L 348.923345 237.97562 
L 349.042385 238.1948 
L 349.161425 237.975996 
L 349.280465 238.195173 
L 349.399505 237.976366 
L 349.518545 238.19554 
L 349.637585 237.976731 
L 349.756625 238.195902 
L 349.875665 237.97709 
L 349.994705 238.196259 
L 350.113745 237.977445 
L 350.232785 238.196611 
L 350.351825 237.977794 
L 350.470865 238.196957 
L 350.589905 237.978138 
L 350.708945 238.197298 
L 350.827985 237.978477 
L 350.947025 238.197635 
L 351.066065 237.978811 
L 351.185105 238.197967 
L 351.304145 237.97914 
L 351.423185 238.198293 
L 351.542225 237.979464 
L 351.661265 238.198616 
L 351.780305 237.979784 
L 351.899345 238.198933 
L 352.018385 237.980099 
L 352.137425 238.199246 
L 352.256465 237.98041 
L 352.375505 238.199554 
L 352.494545 237.980716 
L 352.613585 238.199858 
L 352.732625 237.981018 
L 352.851665 238.200158 
L 352.970705 237.981315 
L 353.089745 238.200453 
L 353.208785 237.981609 
L 353.327825 238.200745 
L 353.446865 237.981898 
L 353.565905 238.201032 
L 353.684945 237.982183 
L 353.803985 238.201314 
L 353.923025 237.982463 
L 354.042065 238.201593 
L 354.161105 237.98274 
L 354.280145 238.201868 
L 354.399185 237.983013 
L 354.518225 238.202139 
L 354.637265 237.983282 
L 354.756305 238.202406 
L 354.875345 237.983547 
L 354.994385 238.202669 
L 355.113425 237.983808 
L 355.232465 238.202928 
L 355.351505 237.984066 
L 355.470545 238.203184 
L 355.589585 237.98432 
L 355.708625 238.203436 
L 355.827665 237.98457 
L 355.946705 238.203684 
L 356.065745 237.984816 
L 356.184785 238.203929 
L 356.303825 237.985059 
L 356.422865 238.204171 
L 356.541905 237.985299 
L 356.660945 238.204408 
L 356.779985 237.985535 
L 356.899025 238.204643 
L 357.018065 237.985768 
L 357.137105 238.204874 
L 357.256145 237.985997 
L 357.375185 238.205101 
L 357.494225 237.986223 
L 357.613265 238.205325 
L 357.732305 237.986446 
L 357.851345 238.205546 
L 357.970385 237.986665 
L 358.089425 238.205764 
L 358.208465 237.986881 
L 358.327505 238.205979 
L 358.446545 237.987094 
L 358.565585 238.20619 
L 358.684625 237.987304 
L 358.803665 238.206399 
L 358.922705 237.987511 
L 359.041745 238.206604 
L 359.160785 237.987715 
L 359.279825 238.206806 
L 359.398865 237.987915 
L 359.517905 238.207006 
L 359.636945 237.988113 
L 359.755985 238.207202 
L 359.875025 237.988308 
L 359.994065 238.207395 
L 360.113105 237.9885 
L 360.232145 238.207586 
L 360.351185 237.988689 
L 360.470225 238.207774 
L 360.589265 237.988876 
L 360.708305 238.207958 
L 360.827345 237.989059 
L 360.946385 238.208141 
L 361.065425 237.98924 
L 361.184465 238.20832 
L 361.303505 237.989418 
L 361.422545 238.208497 
L 361.541585 237.989593 
L 361.660625 238.208671 
L 361.779665 237.989766 
L 361.898705 238.208842 
L 362.017745 237.989936 
L 362.136785 238.209011 
L 362.255825 237.990104 
L 362.374865 238.209178 
L 362.493905 237.990269 
L 362.612945 238.209341 
L 362.731985 237.990432 
L 362.851025 238.209503 
L 362.970065 237.990592 
L 363.089105 238.209662 
L 363.208145 237.990749 
L 363.327185 238.209818 
L 363.446225 237.990905 
L 363.565265 238.209972 
L 363.684305 237.991058 
L 363.803345 238.210124 
L 363.922385 237.991208 
L 364.041425 238.210273 
L 364.160465 237.991356 
L 364.279505 238.210421 
L 364.398545 237.991502 
L 364.517585 238.210565 
L 364.636625 237.991646 
L 364.755665 238.210708 
L 364.874705 237.991788 
L 364.993745 238.210849 
L 365.112785 237.991927 
L 365.231825 238.210987 
L 365.350865 237.992064 
L 365.469905 238.211123 
L 365.588945 237.9922 
L 365.707985 238.211257 
L 365.827025 237.992333 
L 365.946065 238.211389 
L 366.065105 237.992464 
L 366.184145 238.211519 
L 366.303185 237.992593 
L 366.422225 238.211647 
L 366.541265 237.99272 
L 366.660305 238.211773 
L 366.779345 237.992845 
L 366.898385 238.211898 
L 367.017425 237.992968 
L 367.136465 238.21202 
L 367.255505 237.993089 
L 367.374545 238.21214 
L 367.493585 237.993209 
L 367.612625 238.212259 
L 367.731665 237.993326 
L 367.850705 238.212375 
L 367.969745 237.993442 
L 368.088785 238.21249 
L 368.207825 237.993556 
L 368.326865 238.212603 
L 368.445905 237.993668 
L 368.564945 238.212715 
L 368.683985 237.993779 
L 368.803025 238.212824 
L 368.922065 237.993887 
L 369.041105 238.212932 
L 369.160145 237.993995 
L 369.279185 238.213038 
L 369.398225 237.9941 
L 369.517265 238.213143 
L 369.636305 237.994204 
L 369.755345 238.213246 
L 369.874385 237.994306 
L 369.993425 238.213348 
L 370.112465 237.994407 
L 370.231505 238.213447 
L 370.350545 237.994506 
L 370.469585 238.213546 
L 370.588625 237.994604 
L 370.707665 238.213643 
L 370.826705 237.9947 
L 370.945745 238.213738 
L 371.064785 237.994794 
L 371.183825 238.213832 
L 371.302865 237.994888 
L 371.421905 238.213925 
L 371.540945 237.994979 
L 371.659985 238.214016 
L 371.779025 237.99507 
L 371.898065 238.214105 
L 372.017105 237.995159 
L 372.136145 238.214194 
L 372.255185 237.995246 
L 372.374225 238.214281 
L 372.493265 237.995333 
L 372.612305 238.214366 
L 372.731345 237.995418 
L 372.850385 238.214451 
L 372.969425 237.995502 
L 373.088465 238.214534 
L 373.207505 237.995584 
L 373.326545 238.214616 
L 373.445585 237.995665 
L 373.564625 238.214696 
L 373.683665 237.995745 
L 373.802705 238.214776 
L 373.921745 237.995824 
L 374.040785 238.214854 
L 374.159825 237.995902 
L 374.278865 238.214931 
L 374.397905 237.995978 
L 374.516945 238.215007 
L 374.635985 237.996053 
L 374.755025 238.215081 
L 374.874065 237.996127 
L 374.993105 238.215155 
L 375.112145 237.9962 
L 375.231185 238.215227 
L 375.350225 237.996272 
L 375.469265 238.215299 
L 375.588305 237.996343 
L 375.707345 238.215369 
L 375.826385 237.996413 
L 375.945425 238.215438 
L 376.064465 237.996481 
L 376.183505 238.215506 
L 376.302545 237.996549 
L 376.421585 238.215573 
L 376.540625 237.996616 
L 376.659665 238.21564 
L 376.778705 237.996681 
L 376.897745 238.215705 
L 377.016785 237.996746 
L 377.135825 238.215769 
L 377.254865 237.99681 
L 377.373905 238.215832 
L 377.492945 237.996873 
L 377.611985 238.215894 
L 377.731025 237.996934 
L 377.850065 238.215956 
L 377.969105 237.996995 
L 378.088145 238.216016 
L 378.207185 237.997055 
L 378.326225 238.216076 
L 378.445265 237.997114 
L 378.564305 238.216134 
L 378.683345 237.997173 
L 378.802385 238.216192 
L 378.921425 237.99723 
L 379.040465 238.216249 
L 379.159505 237.997286 
L 379.278545 238.216305 
L 379.397585 237.997342 
L 379.516625 238.21636 
L 379.635665 237.997397 
L 379.754705 238.216415 
L 379.873745 237.997451 
L 379.992785 238.216468 
L 380.111825 237.997504 
L 380.230865 238.216521 
L 380.349905 237.997556 
L 380.468945 238.216573 
L 380.587985 237.997608 
L 380.707025 238.216624 
L 380.826065 237.997659 
L 380.945105 238.216675 
L 381.064145 237.997709 
L 381.183185 238.216725 
L 381.302225 237.997758 
L 381.421265 238.216774 
L 381.540305 237.997807 
L 381.659345 238.216822 
L 381.778385 237.997855 
L 381.897425 238.216869 
L 382.016465 237.997902 
L 382.135505 238.216916 
L 382.254545 237.997948 
L 382.373585 238.216962 
L 382.492625 237.997994 
L 382.611665 238.217008 
L 382.730705 237.998039 
L 382.849745 238.217052 
L 382.968785 237.998084 
L 383.087825 238.217096 
L 383.206865 237.998127 
L 383.325905 238.21714 
L 383.444945 237.99817 
L 383.563985 238.217183 
L 383.683025 237.998213 
L 383.802065 238.217225 
L 383.921105 237.998255 
L 384.040145 238.217266 
L 384.159185 237.998296 
L 384.278225 238.217307 
L 384.397265 237.998336 
L 384.516305 238.217347 
L 384.635345 237.998376 
L 384.754385 238.217387 
L 384.873425 237.998416 
L 384.992465 238.217426 
L 385.111505 237.998454 
L 385.230545 238.217465 
L 385.349585 237.998493 
L 385.468625 238.217502 
L 385.587665 237.99853 
L 385.706705 238.21754 
L 385.825745 237.998567 
L 385.944785 238.217576 
L 386.063825 237.998604 
L 386.182865 238.217613 
L 386.301905 237.99864 
L 386.420945 238.217648 
L 386.539985 237.998675 
L 386.659025 238.217683 
L 386.778065 237.99871 
L 386.897105 238.217718 
L 387.016145 237.998744 
L 387.135185 238.217752 
L 387.254225 237.998778 
L 387.373265 238.217786 
L 387.492305 237.998811 
L 387.611345 238.217819 
L 387.730385 237.998844 
L 387.849425 238.217851 
L 387.968465 237.998877 
L 388.087505 238.217883 
L 388.206545 237.998908 
L 388.325585 238.217915 
L 388.444625 237.99894 
L 388.563665 238.217946 
L 388.682705 237.998971 
L 388.801745 238.217977 
L 388.920785 237.999001 
L 389.039825 238.218007 
L 389.158865 237.999031 
L 389.277905 238.218036 
L 389.396945 237.99906 
L 389.515985 238.218066 
L 389.635025 237.999089 
L 389.754065 238.218095 
L 389.873105 237.999118 
L 389.992145 238.218123 
L 390.111185 237.999146 
L 390.230225 238.218151 
L 390.349265 237.999174 
L 390.468305 238.218178 
L 390.587345 237.999201 
L 390.706385 238.218205 
L 390.825425 237.999228 
L 390.944465 238.218232 
L 391.063505 237.999255 
L 391.182545 238.218258 
L 391.301585 237.999281 
L 391.420625 238.218284 
L 391.539665 237.999306 
L 391.658705 238.21831 
L 391.777745 237.999332 
L 391.896785 238.218335 
L 392.015825 237.999356 
L 392.134865 238.21836 
L 392.253905 237.999381 
L 392.372945 238.218384 
L 392.491985 237.999405 
L 392.611025 238.218408 
L 392.730065 237.999429 
L 392.849105 238.218432 
L 392.968145 237.999452 
L 393.087185 238.218455 
L 393.206225 237.999475 
L 393.325265 238.218478 
L 393.444305 237.999498 
L 393.563345 238.2185 
L 393.682385 237.999521 
L 393.801425 238.218522 
L 393.920465 237.999543 
L 394.039505 238.218544 
L 394.158545 237.999564 
L 394.277585 238.218566 
L 394.396625 237.999586 
L 394.515665 238.218587 
L 394.634705 237.999607 
L 394.753745 238.218608 
L 394.872785 237.999627 
L 394.991825 238.218629 
L 395.110865 237.999648 
L 395.229905 238.218649 
L 395.348945 237.999668 
L 395.467985 238.218669 
L 395.587025 237.999688 
L 395.706065 238.218688 
L 395.825105 237.999707 
L 395.944145 238.218708 
L 396.063185 237.999726 
L 396.182225 238.218727 
L 396.301265 237.999745 
L 396.420305 238.218746 
L 396.539345 237.999764 
L 396.658385 238.218764 
L 396.777425 237.999782 
L 396.896465 238.218782 
L 397.015505 237.9998 
L 397.134545 238.2188 
L 397.253585 237.999818 
L 397.372625 238.218818 
L 397.491665 237.999836 
L 397.610705 238.218835 
L 397.729745 237.999853 
L 397.848785 238.218852 
L 397.967825 237.99987 
L 398.086865 238.218869 
L 398.205905 237.999887 
L 398.324945 238.218886 
L 398.443985 237.999903 
L 398.476451 238.218896 
L 398.487273 237.999906 
" clip-path="url(#pe8c842716e)" style="fill: none; stroke-dasharray: 9.6,2.4,1.5,2.4; stroke-dashoffset: 0; stroke: #ff0000; stroke-width: 1.5"/>
   </g>
   <g id="line2d_36">
    <path d="M 73.832727 238.110474 
L 74.330531 238.224355 
L 74.882444 238.590653 
L 75.531753 239.304079 
L 76.321745 240.523079 
L 77.295709 242.461656 
L 78.518575 245.424955 
L 79.568291 247.869887 
L 80.45568 249.349063 
L 81.386356 250.478597 
L 82.381964 251.342144 
L 83.485789 252.00639 
L 84.773585 252.51801 
L 86.364393 252.902442 
L 88.496291 253.175312 
L 91.753658 253.345841 
L 98.257571 253.421605 
L 139.348015 253.426071 
L 231.928669 253.368444 
L 233.281396 253.093866 
L 234.991244 252.508007 
L 237.339578 251.460005 
L 241.073105 249.571167 
L 248.042356 246.060378 
L 251.51616 244.536827 
L 255.033251 243.245662 
L 258.041716 242.36319 
L 261.829353 241.49206 
L 266.363695 240.714303 
L 273.213905 239.87082 
L 281.135476 239.23372 
L 291.621818 238.729433 
L 300.528175 238.479448 
L 323.903302 238.200126 
L 398.487273 238.111222 
L 398.487273 238.111222 
" clip-path="url(#pe8c842716e)" style="fill: none; stroke-dasharray: 5.55,2.4; stroke-dashoffset: 0; stroke: #008000; stroke-width: 1.5"/>
   </g>
   <g id="line2d_37">
    <path d="M 73.832727 53.568 
L 76.429964 53.678292 
L 77.966662 53.975831 
L 79.373498 54.476449 
L 81.126633 55.357339 
L 83.66976 56.905857 
L 88.085062 59.891372 
L 101.006313 68.998101 
L 236.224931 164.544406 
L 239.677091 166.624272 
L 242.94528 168.335752 
L 246.170182 169.775605 
L 249.460015 171.00093 
L 252.922996 172.051738 
L 256.721455 172.967308 
L 261.061004 173.779166 
L 266.147258 174.498292 
L 272.131724 175.114846 
L 279.339055 175.626397 
L 288.29952 176.029956 
L 300.073658 176.325707 
L 317.085556 176.512321 
L 348.609513 176.599245 
L 398.487273 176.612263 
L 398.487273 176.612263 
" clip-path="url(#pe8c842716e)" style="fill: none; stroke: #0000ff; stroke-width: 1.5; stroke-linecap: square"/>
   </g>
   <g id="patch_3">
    <path d="M 57.6 307.584 
L 57.6 41.472 
" style="fill: none; stroke: #000000; stroke-width: 0.8; stroke-linejoin: miter; stroke-linecap: square"/>
   </g>
   <g id="patch_4">
    <path d="M 414.72 307.584 
L 414.72 41.472 
" style="fill: none; stroke: #000000; stroke-width: 0.8; stroke-linejoin: miter; stroke-linecap: square"/>
   </g>
   <g id="patch_5">
    <path d="M 57.6 307.584 
L 414.72 307.584 
" style="fill: none; stroke: #000000; stroke-width: 0.8; stroke-linejoin: miter; stroke-linecap: square"/>
   </g>
   <g id="patch_6">
    <path d="M 57.6 41.472 
L 414.72 41.472 
" style="fill: none; stroke: #000000; stroke-width: 0.8; stroke-linejoin: miter; stroke-linecap: square"/>
   </g>
   <g id="text_20">
    <!-- l vs time -->
    <g transform="translate(210.447187 35.472)scale(0.12 -0.12)">
     <defs>
      <path id="DejaVuSans-76" d="M 191 3500 
L 800 3500 
L 1894 563 
L 2988 3500 
L 3597 3500 
L 2284 0 
L 1503 0 
L 191 3500 
z
" transform="scale(0.015625)"/>
     </defs>
     <use xlink:href="#DejaVuSans-6c"/>
     <use xlink:href="#DejaVuSans-20" x="27.783203"/>
     <use xlink:href="#DejaVuSans-76" x="59.570312"/>
     <use xlink:href="#DejaVuSans-73" x="118.75"/>
     <use xlink:href="#DejaVuSans-20" x="170.849609"/>
     <use xlink:href="#DejaVuSans-74" x="202.636719"/>
     <use xlink:href="#DejaVuSans-69" x="241.845703"/>
     <use xlink:href="#DejaVuSans-6d" x="269.628906"/>
     <use xlink:href="#DejaVuSans-65" x="367.041016"/>
    </g>
   </g>
   <g id="legend_1">
    <g id="patch_7">
     <path d="M 286.124687 94.062625 
L 407.72 94.062625 
Q 409.72 94.062625 409.72 92.062625 
L 409.72 48.472 
Q 409.72 46.472 407.72 46.472 
L 286.124687 46.472 
Q 284.124687 46.472 284.124687 48.472 
L 284.124687 92.062625 
Q 284.124687 94.062625 286.124687 94.062625 
z
" style="fill: #ffffff; opacity: 0.8; stroke: #cccccc; stroke-linejoin: miter"/>
    </g>
    <g id="line2d_38">
     <path d="M 288.124687 54.570437 
L 298.124687 54.570437 
L 308.124687 54.570437 
" style="fill: none; stroke-dasharray: 9.6,2.4,1.5,2.4; stroke-dashoffset: 0; stroke: #ff0000; stroke-width: 1.5"/>
    </g>
    <g id="text_21">
     <!-- l_dot_dot (m/s^2) -->
     <g transform="translate(316.124687 58.070437)scale(0.1 -0.1)">
      <defs>
       <path id="DejaVuSans-5f" d="M 3263 -1063 
L 3263 -1509 
L -63 -1509 
L -63 -1063 
L 3263 -1063 
z
" transform="scale(0.015625)"/>
       <path id="DejaVuSans-64" d="M 2906 2969 
L 2906 4863 
L 3481 4863 
L 3481 0 
L 2906 0 
L 2906 525 
Q 2725 213 2448 61 
Q 2172 -91 1784 -91 
Q 1150 -91 751 415 
Q 353 922 353 1747 
Q 353 2572 751 3078 
Q 1150 3584 1784 3584 
Q 2172 3584 2448 3432 
Q 2725 3281 2906 2969 
z
M 947 1747 
Q 947 1113 1208 752 
Q 1469 391 1925 391 
Q 2381 391 2643 752 
Q 2906 1113 2906 1747 
Q 2906 2381 2643 2742 
Q 2381 3103 1925 3103 
Q 1469 3103 1208 2742 
Q 947 2381 947 1747 
z
" transform="scale(0.015625)"/>
       <path id="DejaVuSans-6f" d="M 1959 3097 
Q 1497 3097 1228 2736 
Q 959 2375 959 1747 
Q 959 1119 1226 758 
Q 1494 397 1959 397 
Q 2419 397 2687 759 
Q 2956 1122 2956 1747 
Q 2956 2369 2687 2733 
Q 2419 3097 1959 3097 
z
M 1959 3584 
Q 2709 3584 3137 3096 
Q 3566 2609 3566 1747 
Q 3566 888 3137 398 
Q 2709 -91 1959 -91 
Q 1206 -91 779 398 
Q 353 888 353 1747 
Q 353 2609 779 3096 
Q 1206 3584 1959 3584 
z
" transform="scale(0.015625)"/>
       <path id="DejaVuSans-2f" d="M 1625 4666 
L 2156 4666 
L 531 -594 
L 0 -594 
L 1625 4666 
z
" transform="scale(0.015625)"/>
       <path id="DejaVuSans-5e" d="M 2988 4666 
L 4684 2925 
L 4056 2925 
L 2681 4159 
L 1306 2925 
L 678 2925 
L 2375 4666 
L 2988 4666 
z
" transform="scale(0.015625)"/>
      </defs>
      <use xlink:href="#DejaVuSans-6c"/>
      <use xlink:href="#DejaVuSans-5f" x="27.783203"/>
      <use xlink:href="#DejaVuSans-64" x="77.783203"/>
      <use xlink:href="#DejaVuSans-6f" x="141.259766"/>
      <use xlink:href="#DejaVuSans-74" x="202.441406"/>
      <use xlink:href="#DejaVuSans-5f" x="241.650391"/>
      <use xlink:href="#DejaVuSans-64" x="291.650391"/>
      <use xlink:href="#DejaVuSans-6f" x="355.126953"/>
      <use xlink:href="#DejaVuSans-74" x="416.308594"/>
      <use xlink:href="#DejaVuSans-20" x="455.517578"/>
      <use xlink:href="#DejaVuSans-28" x="487.304688"/>
      <use xlink:href="#DejaVuSans-6d" x="526.318359"/>
      <use xlink:href="#DejaVuSans-2f" x="623.730469"/>
      <use xlink:href="#DejaVuSans-73" x="657.421875"/>
      <use xlink:href="#DejaVuSans-5e" x="709.521484"/>
      <use xlink:href="#DejaVuSans-32" x="793.310547"/>
      <use xlink:href="#DejaVuSans-29" x="856.933594"/>
     </g>
    </g>
    <g id="line2d_39">
     <path d="M 288.124687 69.526687 
L 298.124687 69.526687 
L 308.124687 69.526687 
" style="fill: none; stroke-dasharray: 5.55,2.4; stroke-dashoffset: 0; stroke: #008000; stroke-width: 1.5"/>
    </g>
    <g id="text_22">
     <!-- l_dot (m/s) -->
     <g transform="translate(316.124687 73.026687)scale(0.1 -0.1)">
      <use xlink:href="#DejaVuSans-6c"/>
      <use xlink:href="#DejaVuSans-5f" x="27.783203"/>
      <use xlink:href="#DejaVuSans-64" x="77.783203"/>
      <use xlink:href="#DejaVuSans-6f" x="141.259766"/>
      <use xlink:href="#DejaVuSans-74" x="202.441406"/>
      <use xlink:href="#DejaVuSans-20" x="241.650391"/>
      <use xlink:href="#DejaVuSans-28" x="273.4375"/>
      <use xlink:href="#DejaVuSans-6d" x="312.451172"/>
      <use xlink:href="#DejaVuSans-2f" x="409.863281"/>
      <use xlink:href="#DejaVuSans-73" x="443.554688"/>
      <use xlink:href="#DejaVuSans-29" x="495.654297"/>
     </g>
    </g>
    <g id="line2d_40">
     <path d="M 288.124687 84.482937 
L 298.124687 84.482937 
L 308.124687 84.482937 
" style="fill: none; stroke: #0000ff; stroke-width: 1.5; stroke-linecap: square"/>
    </g>
    <g id="text_23">
     <!-- l (m) -->
     <g transform="translate(316.124687 87.982937)scale(0.1 -0.1)">
      <use xlink:href="#DejaVuSans-6c"/>
      <use xlink:href="#DejaVuSans-20" x="27.783203"/>
      <use xlink:href="#DejaVuSans-28" x="59.570312"/>
      <use xlink:href="#DejaVuSans-6d" x="98.583984"/>
      <use xlink:href="#DejaVuSans-29" x="195.996094"/>
     </g>
    </g>
   </g>
  </g>
 </g>
 <defs>
  <clipPath id="pe8c842716e">
   <rect x="57.6" y="41.472" width="357.12" height="266.112"/>
  </clipPath>
 </defs>
</svg>
