<?xml version="1.0" encoding="utf-8" standalone="no"?>
<!DOCTYPE svg PUBLIC "-//W3C//DTD SVG 1.1//EN"
  "http://www.w3.org/Graphics/SVG/1.1/DTD/svg11.dtd">
<svg xmlns:xlink="http://www.w3.org/1999/xlink" width="460.8pt" height="345.6pt" viewBox="0 0 460.8 345.6" xmlns="http://www.w3.org/2000/svg" version="1.1">
 <metadata>
  <rdf:RDF xmlns:dc="http://purl.org/dc/elements/1.1/" xmlns:cc="http://creativecommons.org/ns#" xmlns:rdf="http://www.w3.org/1999/02/22-rdf-syntax-ns#">
   <cc:Work>
    <dc:type rdf:resource="http://purl.org/dc/dcmitype/StillImage"/>
    <dc:date>2023-09-15T21:45:54.228440</dc:date>
    <dc:format>image/svg+xml</dc:format>
    <dc:creator>
     <cc:Agent>
      <dc:title>Matplotlib v3.7.1, https://matplotlib.org/</dc:title>
     </cc:Agent>
    </dc:creator>
   </cc:Work>
  </rdf:RDF>
 </metadata>
 <defs>
  <style type="text/css">*{stroke-linejoin: round; stroke-linecap: butt}</style>
 </defs>
 <g id="figure_1">
  <g id="patch_1">
   <path d="M 0 345.6 
L 460.8 345.6 
L 460.8 0 
L 0 0 
L 0 345.6 
z
" style="fill: none"/>
  </g>
  <g id="axes_1">
   <g id="patch_2">
    <path d="M 57.6 307.584 
L 414.72 307.584 
L 414.72 41.472 
L 57.6 41.472 
L 57.6 307.584 
z
" style="fill: none"/>
   </g>
   <g id="matplotlib.axis_1">
    <g id="xtick_1">
     <g id="line2d_1">
      <path d="M 57.6 307.584 
L 57.6 41.472 
" clip-path="url(#p36f95ddf32)" style="fill: none; stroke: #b0b0b0; stroke-width: 0.8; stroke-linecap: square"/>
     </g>
     <g id="line2d_2">
      <defs>
       <path id="md936c00563" d="M 0 0 
L 0 3.5 
" style="stroke: #000000; stroke-width: 0.8"/>
      </defs>
      <g>
       <use xlink:href="#md936c00563" x="57.6" y="307.584" style="stroke: #000000; stroke-width: 0.8"/>
      </g>
     </g>
     <g id="text_1">
      <!-- 0 -->
      <g transform="translate(54.41875 322.182437) scale(0.1 -0.1)">
       <defs>
        <path id="DejaVuSans-30" d="M 2034 4250 
Q 1547 4250 1301 3770 
Q 1056 3291 1056 2328 
Q 1056 1369 1301 889 
Q 1547 409 2034 409 
Q 2525 409 2770 889 
Q 3016 1369 3016 2328 
Q 3016 3291 2770 3770 
Q 2525 4250 2034 4250 
z
M 2034 4750 
Q 2819 4750 3233 4129 
Q 3647 3509 3647 2328 
Q 3647 1150 3233 529 
Q 2819 -91 2034 -91 
Q 1250 -91 836 529 
Q 422 1150 422 2328 
Q 422 3509 836 4129 
Q 1250 4750 2034 4750 
z
" transform="scale(0.015625)"/>
       </defs>
       <use xlink:href="#DejaVuSans-30"/>
      </g>
     </g>
    </g>
    <g id="xtick_2">
     <g id="line2d_3">
      <path d="M 105.216 307.584 
L 105.216 41.472 
" clip-path="url(#p36f95ddf32)" style="fill: none; stroke: #b0b0b0; stroke-width: 0.8; stroke-linecap: square"/>
     </g>
     <g id="line2d_4">
      <g>
       <use xlink:href="#md936c00563" x="105.216" y="307.584" style="stroke: #000000; stroke-width: 0.8"/>
      </g>
     </g>
     <g id="text_2">
      <!-- 2 -->
      <g transform="translate(102.03475 322.182437) scale(0.1 -0.1)">
       <defs>
        <path id="DejaVuSans-32" d="M 1228 531 
L 3431 531 
L 3431 0 
L 469 0 
L 469 531 
Q 828 903 1448 1529 
Q 2069 2156 2228 2338 
Q 2531 2678 2651 2914 
Q 2772 3150 2772 3378 
Q 2772 3750 2511 3984 
Q 2250 4219 1831 4219 
Q 1534 4219 1204 4116 
Q 875 4013 500 3803 
L 500 4441 
Q 881 4594 1212 4672 
Q 1544 4750 1819 4750 
Q 2544 4750 2975 4387 
Q 3406 4025 3406 3419 
Q 3406 3131 3298 2873 
Q 3191 2616 2906 2266 
Q 2828 2175 2409 1742 
Q 1991 1309 1228 531 
z
" transform="scale(0.015625)"/>
       </defs>
       <use xlink:href="#DejaVuSans-32"/>
      </g>
     </g>
    </g>
    <g id="xtick_3">
     <g id="line2d_5">
      <path d="M 152.832 307.584 
L 152.832 41.472 
" clip-path="url(#p36f95ddf32)" style="fill: none; stroke: #b0b0b0; stroke-width: 0.8; stroke-linecap: square"/>
     </g>
     <g id="line2d_6">
      <g>
       <use xlink:href="#md936c00563" x="152.832" y="307.584" style="stroke: #000000; stroke-width: 0.8"/>
      </g>
     </g>
     <g id="text_3">
      <!-- 4 -->
      <g transform="translate(149.65075 322.182437) scale(0.1 -0.1)">
       <defs>
        <path id="DejaVuSans-34" d="M 2419 4116 
L 825 1625 
L 2419 1625 
L 2419 4116 
z
M 2253 4666 
L 3047 4666 
L 3047 1625 
L 3713 1625 
L 3713 1100 
L 3047 1100 
L 3047 0 
L 2419 0 
L 2419 1100 
L 313 1100 
L 313 1709 
L 2253 4666 
z
" transform="scale(0.015625)"/>
       </defs>
       <use xlink:href="#DejaVuSans-34"/>
      </g>
     </g>
    </g>
    <g id="xtick_4">
     <g id="line2d_7">
      <path d="M 200.448 307.584 
L 200.448 41.472 
" clip-path="url(#p36f95ddf32)" style="fill: none; stroke: #b0b0b0; stroke-width: 0.8; stroke-linecap: square"/>
     </g>
     <g id="line2d_8">
      <g>
       <use xlink:href="#md936c00563" x="200.448" y="307.584" style="stroke: #000000; stroke-width: 0.8"/>
      </g>
     </g>
     <g id="text_4">
      <!-- 6 -->
      <g transform="translate(197.26675 322.182437) scale(0.1 -0.1)">
       <defs>
        <path id="DejaVuSans-36" d="M 2113 2584 
Q 1688 2584 1439 2293 
Q 1191 2003 1191 1497 
Q 1191 994 1439 701 
Q 1688 409 2113 409 
Q 2538 409 2786 701 
Q 3034 994 3034 1497 
Q 3034 2003 2786 2293 
Q 2538 2584 2113 2584 
z
M 3366 4563 
L 3366 3988 
Q 3128 4100 2886 4159 
Q 2644 4219 2406 4219 
Q 1781 4219 1451 3797 
Q 1122 3375 1075 2522 
Q 1259 2794 1537 2939 
Q 1816 3084 2150 3084 
Q 2853 3084 3261 2657 
Q 3669 2231 3669 1497 
Q 3669 778 3244 343 
Q 2819 -91 2113 -91 
Q 1303 -91 875 529 
Q 447 1150 447 2328 
Q 447 3434 972 4092 
Q 1497 4750 2381 4750 
Q 2619 4750 2861 4703 
Q 3103 4656 3366 4563 
z
" transform="scale(0.015625)"/>
       </defs>
       <use xlink:href="#DejaVuSans-36"/>
      </g>
     </g>
    </g>
    <g id="xtick_5">
     <g id="line2d_9">
      <path d="M 248.064 307.584 
L 248.064 41.472 
" clip-path="url(#p36f95ddf32)" style="fill: none; stroke: #b0b0b0; stroke-width: 0.8; stroke-linecap: square"/>
     </g>
     <g id="line2d_10">
      <g>
       <use xlink:href="#md936c00563" x="248.064" y="307.584" style="stroke: #000000; stroke-width: 0.8"/>
      </g>
     </g>
     <g id="text_5">
      <!-- 8 -->
      <g transform="translate(244.88275 322.182437) scale(0.1 -0.1)">
       <defs>
        <path id="DejaVuSans-38" d="M 2034 2216 
Q 1584 2216 1326 1975 
Q 1069 1734 1069 1313 
Q 1069 891 1326 650 
Q 1584 409 2034 409 
Q 2484 409 2743 651 
Q 3003 894 3003 1313 
Q 3003 1734 2745 1975 
Q 2488 2216 2034 2216 
z
M 1403 2484 
Q 997 2584 770 2862 
Q 544 3141 544 3541 
Q 544 4100 942 4425 
Q 1341 4750 2034 4750 
Q 2731 4750 3128 4425 
Q 3525 4100 3525 3541 
Q 3525 3141 3298 2862 
Q 3072 2584 2669 2484 
Q 3125 2378 3379 2068 
Q 3634 1759 3634 1313 
Q 3634 634 3220 271 
Q 2806 -91 2034 -91 
Q 1263 -91 848 271 
Q 434 634 434 1313 
Q 434 1759 690 2068 
Q 947 2378 1403 2484 
z
M 1172 3481 
Q 1172 3119 1398 2916 
Q 1625 2713 2034 2713 
Q 2441 2713 2670 2916 
Q 2900 3119 2900 3481 
Q 2900 3844 2670 4047 
Q 2441 4250 2034 4250 
Q 1625 4250 1398 4047 
Q 1172 3844 1172 3481 
z
" transform="scale(0.015625)"/>
       </defs>
       <use xlink:href="#DejaVuSans-38"/>
      </g>
     </g>
    </g>
    <g id="xtick_6">
     <g id="line2d_11">
      <path d="M 295.68 307.584 
L 295.68 41.472 
" clip-path="url(#p36f95ddf32)" style="fill: none; stroke: #b0b0b0; stroke-width: 0.8; stroke-linecap: square"/>
     </g>
     <g id="line2d_12">
      <g>
       <use xlink:href="#md936c00563" x="295.68" y="307.584" style="stroke: #000000; stroke-width: 0.8"/>
      </g>
     </g>
     <g id="text_6">
      <!-- 10 -->
      <g transform="translate(289.3175 322.182437) scale(0.1 -0.1)">
       <defs>
        <path id="DejaVuSans-31" d="M 794 531 
L 1825 531 
L 1825 4091 
L 703 3866 
L 703 4441 
L 1819 4666 
L 2450 4666 
L 2450 531 
L 3481 531 
L 3481 0 
L 794 0 
L 794 531 
z
" transform="scale(0.015625)"/>
       </defs>
       <use xlink:href="#DejaVuSans-31"/>
       <use xlink:href="#DejaVuSans-30" x="63.623047"/>
      </g>
     </g>
    </g>
    <g id="xtick_7">
     <g id="line2d_13">
      <path d="M 343.296 307.584 
L 343.296 41.472 
" clip-path="url(#p36f95ddf32)" style="fill: none; stroke: #b0b0b0; stroke-width: 0.8; stroke-linecap: square"/>
     </g>
     <g id="line2d_14">
      <g>
       <use xlink:href="#md936c00563" x="343.296" y="307.584" style="stroke: #000000; stroke-width: 0.8"/>
      </g>
     </g>
     <g id="text_7">
      <!-- 12 -->
      <g transform="translate(336.9335 322.182437) scale(0.1 -0.1)">
       <use xlink:href="#DejaVuSans-31"/>
       <use xlink:href="#DejaVuSans-32" x="63.623047"/>
      </g>
     </g>
    </g>
    <g id="xtick_8">
     <g id="line2d_15">
      <path d="M 390.912 307.584 
L 390.912 41.472 
" clip-path="url(#p36f95ddf32)" style="fill: none; stroke: #b0b0b0; stroke-width: 0.8; stroke-linecap: square"/>
     </g>
     <g id="line2d_16">
      <g>
       <use xlink:href="#md936c00563" x="390.912" y="307.584" style="stroke: #000000; stroke-width: 0.8"/>
      </g>
     </g>
     <g id="text_8">
      <!-- 14 -->
      <g transform="translate(384.5495 322.182437) scale(0.1 -0.1)">
       <use xlink:href="#DejaVuSans-31"/>
       <use xlink:href="#DejaVuSans-34" x="63.623047"/>
      </g>
     </g>
    </g>
    <g id="xtick_9">
     <g id="line2d_17">
      <path d="M 69.504 307.584 
L 69.504 41.472 
" clip-path="url(#p36f95ddf32)" style="fill: none; stroke: #b0b0b0; stroke-width: 0.2; stroke-linecap: square"/>
     </g>
     <g id="line2d_18">
      <defs>
       <path id="mca5bec46bb" d="M 0 0 
L 0 2 
" style="stroke: #000000; stroke-width: 0.6"/>
      </defs>
      <g>
       <use xlink:href="#mca5bec46bb" x="69.504" y="307.584" style="stroke: #000000; stroke-width: 0.6"/>
      </g>
     </g>
    </g>
    <g id="xtick_10">
     <g id="line2d_19">
      <path d="M 81.408 307.584 
L 81.408 41.472 
" clip-path="url(#p36f95ddf32)" style="fill: none; stroke: #b0b0b0; stroke-width: 0.2; stroke-linecap: square"/>
     </g>
     <g id="line2d_20">
      <g>
       <use xlink:href="#mca5bec46bb" x="81.408" y="307.584" style="stroke: #000000; stroke-width: 0.6"/>
      </g>
     </g>
    </g>
    <g id="xtick_11">
     <g id="line2d_21">
      <path d="M 93.312 307.584 
L 93.312 41.472 
" clip-path="url(#p36f95ddf32)" style="fill: none; stroke: #b0b0b0; stroke-width: 0.2; stroke-linecap: square"/>
     </g>
     <g id="line2d_22">
      <g>
       <use xlink:href="#mca5bec46bb" x="93.312" y="307.584" style="stroke: #000000; stroke-width: 0.6"/>
      </g>
     </g>
    </g>
    <g id="xtick_12">
     <g id="line2d_23">
      <path d="M 117.12 307.584 
L 117.12 41.472 
" clip-path="url(#p36f95ddf32)" style="fill: none; stroke: #b0b0b0; stroke-width: 0.2; stroke-linecap: square"/>
     </g>
     <g id="line2d_24">
      <g>
       <use xlink:href="#mca5bec46bb" x="117.12" y="307.584" style="stroke: #000000; stroke-width: 0.6"/>
      </g>
     </g>
    </g>
    <g id="xtick_13">
     <g id="line2d_25">
      <path d="M 129.024 307.584 
L 129.024 41.472 
" clip-path="url(#p36f95ddf32)" style="fill: none; stroke: #b0b0b0; stroke-width: 0.2; stroke-linecap: square"/>
     </g>
     <g id="line2d_26">
      <g>
       <use xlink:href="#mca5bec46bb" x="129.024" y="307.584" style="stroke: #000000; stroke-width: 0.6"/>
      </g>
     </g>
    </g>
    <g id="xtick_14">
     <g id="line2d_27">
      <path d="M 140.928 307.584 
L 140.928 41.472 
" clip-path="url(#p36f95ddf32)" style="fill: none; stroke: #b0b0b0; stroke-width: 0.2; stroke-linecap: square"/>
     </g>
     <g id="line2d_28">
      <g>
       <use xlink:href="#mca5bec46bb" x="140.928" y="307.584" style="stroke: #000000; stroke-width: 0.6"/>
      </g>
     </g>
    </g>
    <g id="xtick_15">
     <g id="line2d_29">
      <path d="M 164.736 307.584 
L 164.736 41.472 
" clip-path="url(#p36f95ddf32)" style="fill: none; stroke: #b0b0b0; stroke-width: 0.2; stroke-linecap: square"/>
     </g>
     <g id="line2d_30">
      <g>
       <use xlink:href="#mca5bec46bb" x="164.736" y="307.584" style="stroke: #000000; stroke-width: 0.6"/>
      </g>
     </g>
    </g>
    <g id="xtick_16">
     <g id="line2d_31">
      <path d="M 176.64 307.584 
L 176.64 41.472 
" clip-path="url(#p36f95ddf32)" style="fill: none; stroke: #b0b0b0; stroke-width: 0.2; stroke-linecap: square"/>
     </g>
     <g id="line2d_32">
      <g>
       <use xlink:href="#mca5bec46bb" x="176.64" y="307.584" style="stroke: #000000; stroke-width: 0.6"/>
      </g>
     </g>
    </g>
    <g id="xtick_17">
     <g id="line2d_33">
      <path d="M 188.544 307.584 
L 188.544 41.472 
" clip-path="url(#p36f95ddf32)" style="fill: none; stroke: #b0b0b0; stroke-width: 0.2; stroke-linecap: square"/>
     </g>
     <g id="line2d_34">
      <g>
       <use xlink:href="#mca5bec46bb" x="188.544" y="307.584" style="stroke: #000000; stroke-width: 0.6"/>
      </g>
     </g>
    </g>
    <g id="xtick_18">
     <g id="line2d_35">
      <path d="M 212.352 307.584 
L 212.352 41.472 
" clip-path="url(#p36f95ddf32)" style="fill: none; stroke: #b0b0b0; stroke-width: 0.2; stroke-linecap: square"/>
     </g>
     <g id="line2d_36">
      <g>
       <use xlink:href="#mca5bec46bb" x="212.352" y="307.584" style="stroke: #000000; stroke-width: 0.6"/>
      </g>
     </g>
    </g>
    <g id="xtick_19">
     <g id="line2d_37">
      <path d="M 224.256 307.584 
L 224.256 41.472 
" clip-path="url(#p36f95ddf32)" style="fill: none; stroke: #b0b0b0; stroke-width: 0.2; stroke-linecap: square"/>
     </g>
     <g id="line2d_38">
      <g>
       <use xlink:href="#mca5bec46bb" x="224.256" y="307.584" style="stroke: #000000; stroke-width: 0.6"/>
      </g>
     </g>
    </g>
    <g id="xtick_20">
     <g id="line2d_39">
      <path d="M 236.16 307.584 
L 236.16 41.472 
" clip-path="url(#p36f95ddf32)" style="fill: none; stroke: #b0b0b0; stroke-width: 0.2; stroke-linecap: square"/>
     </g>
     <g id="line2d_40">
      <g>
       <use xlink:href="#mca5bec46bb" x="236.16" y="307.584" style="stroke: #000000; stroke-width: 0.6"/>
      </g>
     </g>
    </g>
    <g id="xtick_21">
     <g id="line2d_41">
      <path d="M 259.968 307.584 
L 259.968 41.472 
" clip-path="url(#p36f95ddf32)" style="fill: none; stroke: #b0b0b0; stroke-width: 0.2; stroke-linecap: square"/>
     </g>
     <g id="line2d_42">
      <g>
       <use xlink:href="#mca5bec46bb" x="259.968" y="307.584" style="stroke: #000000; stroke-width: 0.6"/>
      </g>
     </g>
    </g>
    <g id="xtick_22">
     <g id="line2d_43">
      <path d="M 271.872 307.584 
L 271.872 41.472 
" clip-path="url(#p36f95ddf32)" style="fill: none; stroke: #b0b0b0; stroke-width: 0.2; stroke-linecap: square"/>
     </g>
     <g id="line2d_44">
      <g>
       <use xlink:href="#mca5bec46bb" x="271.872" y="307.584" style="stroke: #000000; stroke-width: 0.6"/>
      </g>
     </g>
    </g>
    <g id="xtick_23">
     <g id="line2d_45">
      <path d="M 283.776 307.584 
L 283.776 41.472 
" clip-path="url(#p36f95ddf32)" style="fill: none; stroke: #b0b0b0; stroke-width: 0.2; stroke-linecap: square"/>
     </g>
     <g id="line2d_46">
      <g>
       <use xlink:href="#mca5bec46bb" x="283.776" y="307.584" style="stroke: #000000; stroke-width: 0.6"/>
      </g>
     </g>
    </g>
    <g id="xtick_24">
     <g id="line2d_47">
      <path d="M 307.584 307.584 
L 307.584 41.472 
" clip-path="url(#p36f95ddf32)" style="fill: none; stroke: #b0b0b0; stroke-width: 0.2; stroke-linecap: square"/>
     </g>
     <g id="line2d_48">
      <g>
       <use xlink:href="#mca5bec46bb" x="307.584" y="307.584" style="stroke: #000000; stroke-width: 0.6"/>
      </g>
     </g>
    </g>
    <g id="xtick_25">
     <g id="line2d_49">
      <path d="M 319.488 307.584 
L 319.488 41.472 
" clip-path="url(#p36f95ddf32)" style="fill: none; stroke: #b0b0b0; stroke-width: 0.2; stroke-linecap: square"/>
     </g>
     <g id="line2d_50">
      <g>
       <use xlink:href="#mca5bec46bb" x="319.488" y="307.584" style="stroke: #000000; stroke-width: 0.6"/>
      </g>
     </g>
    </g>
    <g id="xtick_26">
     <g id="line2d_51">
      <path d="M 331.392 307.584 
L 331.392 41.472 
" clip-path="url(#p36f95ddf32)" style="fill: none; stroke: #b0b0b0; stroke-width: 0.2; stroke-linecap: square"/>
     </g>
     <g id="line2d_52">
      <g>
       <use xlink:href="#mca5bec46bb" x="331.392" y="307.584" style="stroke: #000000; stroke-width: 0.6"/>
      </g>
     </g>
    </g>
    <g id="xtick_27">
     <g id="line2d_53">
      <path d="M 355.2 307.584 
L 355.2 41.472 
" clip-path="url(#p36f95ddf32)" style="fill: none; stroke: #b0b0b0; stroke-width: 0.2; stroke-linecap: square"/>
     </g>
     <g id="line2d_54">
      <g>
       <use xlink:href="#mca5bec46bb" x="355.2" y="307.584" style="stroke: #000000; stroke-width: 0.6"/>
      </g>
     </g>
    </g>
    <g id="xtick_28">
     <g id="line2d_55">
      <path d="M 367.104 307.584 
L 367.104 41.472 
" clip-path="url(#p36f95ddf32)" style="fill: none; stroke: #b0b0b0; stroke-width: 0.2; stroke-linecap: square"/>
     </g>
     <g id="line2d_56">
      <g>
       <use xlink:href="#mca5bec46bb" x="367.104" y="307.584" style="stroke: #000000; stroke-width: 0.6"/>
      </g>
     </g>
    </g>
    <g id="xtick_29">
     <g id="line2d_57">
      <path d="M 379.008 307.584 
L 379.008 41.472 
" clip-path="url(#p36f95ddf32)" style="fill: none; stroke: #b0b0b0; stroke-width: 0.2; stroke-linecap: square"/>
     </g>
     <g id="line2d_58">
      <g>
       <use xlink:href="#mca5bec46bb" x="379.008" y="307.584" style="stroke: #000000; stroke-width: 0.6"/>
      </g>
     </g>
    </g>
    <g id="xtick_30">
     <g id="line2d_59">
      <path d="M 402.816 307.584 
L 402.816 41.472 
" clip-path="url(#p36f95ddf32)" style="fill: none; stroke: #b0b0b0; stroke-width: 0.2; stroke-linecap: square"/>
     </g>
     <g id="line2d_60">
      <g>
       <use xlink:href="#mca5bec46bb" x="402.816" y="307.584" style="stroke: #000000; stroke-width: 0.6"/>
      </g>
     </g>
    </g>
    <g id="xtick_31">
     <g id="line2d_61">
      <path d="M 414.72 307.584 
L 414.72 41.472 
" clip-path="url(#p36f95ddf32)" style="fill: none; stroke: #b0b0b0; stroke-width: 0.2; stroke-linecap: square"/>
     </g>
     <g id="line2d_62">
      <g>
       <use xlink:href="#mca5bec46bb" x="414.72" y="307.584" style="stroke: #000000; stroke-width: 0.6"/>
      </g>
     </g>
    </g>
    <g id="text_9">
     <!-- $time \; (sec.)$ -->
     <g transform="translate(208.61 335.860562) scale(0.1 -0.1)">
      <defs>
       <path id="DejaVuSans-Oblique-74" d="M 2706 3500 
L 2619 3053 
L 1472 3053 
L 1100 1153 
Q 1081 1047 1072 975 
Q 1063 903 1063 863 
Q 1063 663 1183 572 
Q 1303 481 1569 481 
L 2150 481 
L 2053 0 
L 1503 0 
Q 991 0 739 200 
Q 488 400 488 806 
Q 488 878 497 964 
Q 506 1050 525 1153 
L 897 3053 
L 409 3053 
L 500 3500 
L 978 3500 
L 1172 4494 
L 1747 4494 
L 1556 3500 
L 2706 3500 
z
" transform="scale(0.015625)"/>
       <path id="DejaVuSans-Oblique-69" d="M 1172 4863 
L 1747 4863 
L 1606 4134 
L 1031 4134 
L 1172 4863 
z
M 909 3500 
L 1484 3500 
L 800 0 
L 225 0 
L 909 3500 
z
" transform="scale(0.015625)"/>
       <path id="DejaVuSans-Oblique-6d" d="M 5747 2113 
L 5338 0 
L 4763 0 
L 5166 2094 
Q 5191 2228 5203 2325 
Q 5216 2422 5216 2491 
Q 5216 2772 5059 2928 
Q 4903 3084 4622 3084 
Q 4203 3084 3875 2770 
Q 3547 2456 3450 1953 
L 3066 0 
L 2491 0 
L 2900 2094 
Q 2925 2209 2937 2307 
Q 2950 2406 2950 2484 
Q 2950 2769 2794 2926 
Q 2638 3084 2363 3084 
Q 1938 3084 1609 2770 
Q 1281 2456 1184 1953 
L 800 0 
L 225 0 
L 909 3500 
L 1484 3500 
L 1375 2956 
Q 1609 3263 1923 3423 
Q 2238 3584 2597 3584 
Q 2978 3584 3223 3384 
Q 3469 3184 3519 2828 
Q 3781 3197 4126 3390 
Q 4472 3584 4856 3584 
Q 5306 3584 5551 3325 
Q 5797 3066 5797 2591 
Q 5797 2488 5784 2364 
Q 5772 2241 5747 2113 
z
" transform="scale(0.015625)"/>
       <path id="DejaVuSans-Oblique-65" d="M 3078 2063 
Q 3088 2113 3092 2166 
Q 3097 2219 3097 2272 
Q 3097 2653 2873 2875 
Q 2650 3097 2266 3097 
Q 1838 3097 1509 2826 
Q 1181 2556 1013 2059 
L 3078 2063 
z
M 3578 1613 
L 903 1613 
Q 884 1494 878 1425 
Q 872 1356 872 1306 
Q 872 872 1139 634 
Q 1406 397 1894 397 
Q 2269 397 2603 481 
Q 2938 566 3225 728 
L 3116 159 
Q 2806 34 2476 -28 
Q 2147 -91 1806 -91 
Q 1078 -91 686 257 
Q 294 606 294 1247 
Q 294 1794 489 2264 
Q 684 2734 1063 3103 
Q 1306 3334 1642 3459 
Q 1978 3584 2356 3584 
Q 2950 3584 3301 3228 
Q 3653 2872 3653 2272 
Q 3653 2128 3634 1964 
Q 3616 1800 3578 1613 
z
" transform="scale(0.015625)"/>
       <path id="DejaVuSans-28" d="M 1984 4856 
Q 1566 4138 1362 3434 
Q 1159 2731 1159 2009 
Q 1159 1288 1364 580 
Q 1569 -128 1984 -844 
L 1484 -844 
Q 1016 -109 783 600 
Q 550 1309 550 2009 
Q 550 2706 781 3412 
Q 1013 4119 1484 4856 
L 1984 4856 
z
" transform="scale(0.015625)"/>
       <path id="DejaVuSans-Oblique-73" d="M 3200 3397 
L 3091 2853 
Q 2863 2978 2609 3040 
Q 2356 3103 2088 3103 
Q 1634 3103 1373 2948 
Q 1113 2794 1113 2528 
Q 1113 2219 1719 2053 
Q 1766 2041 1788 2034 
L 1972 1978 
Q 2547 1819 2739 1644 
Q 2931 1469 2931 1166 
Q 2931 609 2489 259 
Q 2047 -91 1331 -91 
Q 1053 -91 747 -37 
Q 441 16 72 128 
L 184 722 
Q 500 559 806 475 
Q 1113 391 1394 391 
Q 1816 391 2080 572 
Q 2344 753 2344 1031 
Q 2344 1331 1650 1516 
L 1591 1531 
L 1394 1581 
Q 956 1697 753 1886 
Q 550 2075 550 2369 
Q 550 2928 970 3256 
Q 1391 3584 2113 3584 
Q 2397 3584 2667 3537 
Q 2938 3491 3200 3397 
z
" transform="scale(0.015625)"/>
       <path id="DejaVuSans-Oblique-63" d="M 3431 3366 
L 3316 2797 
Q 3109 2947 2876 3022 
Q 2644 3097 2394 3097 
Q 2119 3097 1870 3000 
Q 1622 2903 1453 2725 
Q 1184 2453 1037 2087 
Q 891 1722 891 1331 
Q 891 859 1127 628 
Q 1363 397 1844 397 
Q 2081 397 2348 469 
Q 2616 541 2906 684 
L 2797 116 
Q 2547 13 2283 -39 
Q 2019 -91 1741 -91 
Q 1044 -91 669 257 
Q 294 606 294 1253 
Q 294 1797 489 2255 
Q 684 2713 1069 3078 
Q 1331 3328 1684 3456 
Q 2038 3584 2456 3584 
Q 2700 3584 2940 3529 
Q 3181 3475 3431 3366 
z
" transform="scale(0.015625)"/>
       <path id="DejaVuSans-2e" d="M 684 794 
L 1344 794 
L 1344 0 
L 684 0 
L 684 794 
z
" transform="scale(0.015625)"/>
       <path id="DejaVuSans-29" d="M 513 4856 
L 1013 4856 
Q 1481 4119 1714 3412 
Q 1947 2706 1947 2009 
Q 1947 1309 1714 600 
Q 1481 -109 1013 -844 
L 513 -844 
Q 928 -128 1133 580 
Q 1338 1288 1338 2009 
Q 1338 2731 1133 3434 
Q 928 4138 513 4856 
z
" transform="scale(0.015625)"/>
      </defs>
      <use xlink:href="#DejaVuSans-Oblique-74" transform="translate(0 0.015625)"/>
      <use xlink:href="#DejaVuSans-Oblique-69" transform="translate(39.208984 0.015625)"/>
      <use xlink:href="#DejaVuSans-Oblique-6d" transform="translate(66.992188 0.015625)"/>
      <use xlink:href="#DejaVuSans-Oblique-65" transform="translate(164.404297 0.015625)"/>
      <use xlink:href="#DejaVuSans-28" transform="translate(252.98687 0.015625)"/>
      <use xlink:href="#DejaVuSans-Oblique-73" transform="translate(292.000542 0.015625)"/>
      <use xlink:href="#DejaVuSans-Oblique-65" transform="translate(344.100151 0.015625)"/>
      <use xlink:href="#DejaVuSans-Oblique-63" transform="translate(405.623589 0.015625)"/>
      <use xlink:href="#DejaVuSans-2e" transform="translate(460.604058 0.015625)"/>
      <use xlink:href="#DejaVuSans-29" transform="translate(511.873589 0.015625)"/>
     </g>
    </g>
   </g>
   <g id="matplotlib.axis_2">
    <g id="ytick_1">
     <g id="line2d_63">
      <path d="M 57.6 289.700296 
L 414.72 289.700296 
" clip-path="url(#p36f95ddf32)" style="fill: none; stroke: #b0b0b0; stroke-width: 0.8; stroke-linecap: square"/>
     </g>
     <g id="line2d_64">
      <defs>
       <path id="m08c82d86df" d="M 0 0 
L -3.5 0 
" style="stroke: #000000; stroke-width: 0.8"/>
      </defs>
      <g>
       <use xlink:href="#m08c82d86df" x="57.6" y="289.700296" style="stroke: #000000; stroke-width: 0.8"/>
      </g>
     </g>
     <g id="text_10">
      <!-- −3 -->
      <g transform="translate(35.857813 293.499515) scale(0.1 -0.1)">
       <defs>
        <path id="DejaVuSans-2212" d="M 678 2272 
L 4684 2272 
L 4684 1741 
L 678 1741 
L 678 2272 
z
" transform="scale(0.015625)"/>
        <path id="DejaVuSans-33" d="M 2597 2516 
Q 3050 2419 3304 2112 
Q 3559 1806 3559 1356 
Q 3559 666 3084 287 
Q 2609 -91 1734 -91 
Q 1441 -91 1130 -33 
Q 819 25 488 141 
L 488 750 
Q 750 597 1062 519 
Q 1375 441 1716 441 
Q 2309 441 2620 675 
Q 2931 909 2931 1356 
Q 2931 1769 2642 2001 
Q 2353 2234 1838 2234 
L 1294 2234 
L 1294 2753 
L 1863 2753 
Q 2328 2753 2575 2939 
Q 2822 3125 2822 3475 
Q 2822 3834 2567 4026 
Q 2313 4219 1838 4219 
Q 1578 4219 1281 4162 
Q 984 4106 628 3988 
L 628 4550 
Q 988 4650 1302 4700 
Q 1616 4750 1894 4750 
Q 2613 4750 3031 4423 
Q 3450 4097 3450 3541 
Q 3450 3153 3228 2886 
Q 3006 2619 2597 2516 
z
" transform="scale(0.015625)"/>
       </defs>
       <use xlink:href="#DejaVuSans-2212"/>
       <use xlink:href="#DejaVuSans-33" x="83.789062"/>
      </g>
     </g>
    </g>
    <g id="ytick_2">
     <g id="line2d_65">
      <path d="M 57.6 249.106618 
L 414.72 249.106618 
" clip-path="url(#p36f95ddf32)" style="fill: none; stroke: #b0b0b0; stroke-width: 0.8; stroke-linecap: square"/>
     </g>
     <g id="line2d_66">
      <g>
       <use xlink:href="#m08c82d86df" x="57.6" y="249.106618" style="stroke: #000000; stroke-width: 0.8"/>
      </g>
     </g>
     <g id="text_11">
      <!-- −2 -->
      <g transform="translate(35.857813 252.905836) scale(0.1 -0.1)">
       <use xlink:href="#DejaVuSans-2212"/>
       <use xlink:href="#DejaVuSans-32" x="83.789062"/>
      </g>
     </g>
    </g>
    <g id="ytick_3">
     <g id="line2d_67">
      <path d="M 57.6 208.512939 
L 414.72 208.512939 
" clip-path="url(#p36f95ddf32)" style="fill: none; stroke: #b0b0b0; stroke-width: 0.8; stroke-linecap: square"/>
     </g>
     <g id="line2d_68">
      <g>
       <use xlink:href="#m08c82d86df" x="57.6" y="208.512939" style="stroke: #000000; stroke-width: 0.8"/>
      </g>
     </g>
     <g id="text_12">
      <!-- −1 -->
      <g transform="translate(35.857813 212.312158) scale(0.1 -0.1)">
       <use xlink:href="#DejaVuSans-2212"/>
       <use xlink:href="#DejaVuSans-31" x="83.789062"/>
      </g>
     </g>
    </g>
    <g id="ytick_4">
     <g id="line2d_69">
      <path d="M 57.6 167.91926 
L 414.72 167.91926 
" clip-path="url(#p36f95ddf32)" style="fill: none; stroke: #b0b0b0; stroke-width: 0.8; stroke-linecap: square"/>
     </g>
     <g id="line2d_70">
      <g>
       <use xlink:href="#m08c82d86df" x="57.6" y="167.91926" style="stroke: #000000; stroke-width: 0.8"/>
      </g>
     </g>
     <g id="text_13">
      <!-- 0 -->
      <g transform="translate(44.2375 171.718479) scale(0.1 -0.1)">
       <use xlink:href="#DejaVuSans-30"/>
      </g>
     </g>
    </g>
    <g id="ytick_5">
     <g id="line2d_71">
      <path d="M 57.6 127.325581 
L 414.72 127.325581 
" clip-path="url(#p36f95ddf32)" style="fill: none; stroke: #b0b0b0; stroke-width: 0.8; stroke-linecap: square"/>
     </g>
     <g id="line2d_72">
      <g>
       <use xlink:href="#m08c82d86df" x="57.6" y="127.325581" style="stroke: #000000; stroke-width: 0.8"/>
      </g>
     </g>
     <g id="text_14">
      <!-- 1 -->
      <g transform="translate(44.2375 131.1248) scale(0.1 -0.1)">
       <use xlink:href="#DejaVuSans-31"/>
      </g>
     </g>
    </g>
    <g id="ytick_6">
     <g id="line2d_73">
      <path d="M 57.6 86.731903 
L 414.72 86.731903 
" clip-path="url(#p36f95ddf32)" style="fill: none; stroke: #b0b0b0; stroke-width: 0.8; stroke-linecap: square"/>
     </g>
     <g id="line2d_74">
      <g>
       <use xlink:href="#m08c82d86df" x="57.6" y="86.731903" style="stroke: #000000; stroke-width: 0.8"/>
      </g>
     </g>
     <g id="text_15">
      <!-- 2 -->
      <g transform="translate(44.2375 90.531121) scale(0.1 -0.1)">
       <use xlink:href="#DejaVuSans-32"/>
      </g>
     </g>
    </g>
    <g id="ytick_7">
     <g id="line2d_75">
      <path d="M 57.6 46.138224 
L 414.72 46.138224 
" clip-path="url(#p36f95ddf32)" style="fill: none; stroke: #b0b0b0; stroke-width: 0.8; stroke-linecap: square"/>
     </g>
     <g id="line2d_76">
      <g>
       <use xlink:href="#m08c82d86df" x="57.6" y="46.138224" style="stroke: #000000; stroke-width: 0.8"/>
      </g>
     </g>
     <g id="text_16">
      <!-- 3 -->
      <g transform="translate(44.2375 49.937443) scale(0.1 -0.1)">
       <use xlink:href="#DejaVuSans-33"/>
      </g>
     </g>
    </g>
    <g id="ytick_8">
     <g id="line2d_77">
      <path d="M 57.6 305.937768 
L 414.72 305.937768 
" clip-path="url(#p36f95ddf32)" style="fill: none; stroke: #b0b0b0; stroke-width: 0.2; stroke-linecap: square"/>
     </g>
     <g id="line2d_78">
      <defs>
       <path id="m61d10994f7" d="M 0 0 
L -2 0 
" style="stroke: #000000; stroke-width: 0.6"/>
      </defs>
      <g>
       <use xlink:href="#m61d10994f7" x="57.6" y="305.937768" style="stroke: #000000; stroke-width: 0.6"/>
      </g>
     </g>
    </g>
    <g id="ytick_9">
     <g id="line2d_79">
      <path d="M 57.6 297.819032 
L 414.72 297.819032 
" clip-path="url(#p36f95ddf32)" style="fill: none; stroke: #b0b0b0; stroke-width: 0.2; stroke-linecap: square"/>
     </g>
     <g id="line2d_80">
      <g>
       <use xlink:href="#m61d10994f7" x="57.6" y="297.819032" style="stroke: #000000; stroke-width: 0.6"/>
      </g>
     </g>
    </g>
    <g id="ytick_10">
     <g id="line2d_81">
      <path d="M 57.6 281.581561 
L 414.72 281.581561 
" clip-path="url(#p36f95ddf32)" style="fill: none; stroke: #b0b0b0; stroke-width: 0.2; stroke-linecap: square"/>
     </g>
     <g id="line2d_82">
      <g>
       <use xlink:href="#m61d10994f7" x="57.6" y="281.581561" style="stroke: #000000; stroke-width: 0.6"/>
      </g>
     </g>
    </g>
    <g id="ytick_11">
     <g id="line2d_83">
      <path d="M 57.6 273.462825 
L 414.72 273.462825 
" clip-path="url(#p36f95ddf32)" style="fill: none; stroke: #b0b0b0; stroke-width: 0.2; stroke-linecap: square"/>
     </g>
     <g id="line2d_84">
      <g>
       <use xlink:href="#m61d10994f7" x="57.6" y="273.462825" style="stroke: #000000; stroke-width: 0.6"/>
      </g>
     </g>
    </g>
    <g id="ytick_12">
     <g id="line2d_85">
      <path d="M 57.6 265.344089 
L 414.72 265.344089 
" clip-path="url(#p36f95ddf32)" style="fill: none; stroke: #b0b0b0; stroke-width: 0.2; stroke-linecap: square"/>
     </g>
     <g id="line2d_86">
      <g>
       <use xlink:href="#m61d10994f7" x="57.6" y="265.344089" style="stroke: #000000; stroke-width: 0.6"/>
      </g>
     </g>
    </g>
    <g id="ytick_13">
     <g id="line2d_87">
      <path d="M 57.6 257.225353 
L 414.72 257.225353 
" clip-path="url(#p36f95ddf32)" style="fill: none; stroke: #b0b0b0; stroke-width: 0.2; stroke-linecap: square"/>
     </g>
     <g id="line2d_88">
      <g>
       <use xlink:href="#m61d10994f7" x="57.6" y="257.225353" style="stroke: #000000; stroke-width: 0.6"/>
      </g>
     </g>
    </g>
    <g id="ytick_14">
     <g id="line2d_89">
      <path d="M 57.6 240.987882 
L 414.72 240.987882 
" clip-path="url(#p36f95ddf32)" style="fill: none; stroke: #b0b0b0; stroke-width: 0.2; stroke-linecap: square"/>
     </g>
     <g id="line2d_90">
      <g>
       <use xlink:href="#m61d10994f7" x="57.6" y="240.987882" style="stroke: #000000; stroke-width: 0.6"/>
      </g>
     </g>
    </g>
    <g id="ytick_15">
     <g id="line2d_91">
      <path d="M 57.6 232.869146 
L 414.72 232.869146 
" clip-path="url(#p36f95ddf32)" style="fill: none; stroke: #b0b0b0; stroke-width: 0.2; stroke-linecap: square"/>
     </g>
     <g id="line2d_92">
      <g>
       <use xlink:href="#m61d10994f7" x="57.6" y="232.869146" style="stroke: #000000; stroke-width: 0.6"/>
      </g>
     </g>
    </g>
    <g id="ytick_16">
     <g id="line2d_93">
      <path d="M 57.6 224.75041 
L 414.72 224.75041 
" clip-path="url(#p36f95ddf32)" style="fill: none; stroke: #b0b0b0; stroke-width: 0.2; stroke-linecap: square"/>
     </g>
     <g id="line2d_94">
      <g>
       <use xlink:href="#m61d10994f7" x="57.6" y="224.75041" style="stroke: #000000; stroke-width: 0.6"/>
      </g>
     </g>
    </g>
    <g id="ytick_17">
     <g id="line2d_95">
      <path d="M 57.6 216.631675 
L 414.72 216.631675 
" clip-path="url(#p36f95ddf32)" style="fill: none; stroke: #b0b0b0; stroke-width: 0.2; stroke-linecap: square"/>
     </g>
     <g id="line2d_96">
      <g>
       <use xlink:href="#m61d10994f7" x="57.6" y="216.631675" style="stroke: #000000; stroke-width: 0.6"/>
      </g>
     </g>
    </g>
    <g id="ytick_18">
     <g id="line2d_97">
      <path d="M 57.6 200.394203 
L 414.72 200.394203 
" clip-path="url(#p36f95ddf32)" style="fill: none; stroke: #b0b0b0; stroke-width: 0.2; stroke-linecap: square"/>
     </g>
     <g id="line2d_98">
      <g>
       <use xlink:href="#m61d10994f7" x="57.6" y="200.394203" style="stroke: #000000; stroke-width: 0.6"/>
      </g>
     </g>
    </g>
    <g id="ytick_19">
     <g id="line2d_99">
      <path d="M 57.6 192.275467 
L 414.72 192.275467 
" clip-path="url(#p36f95ddf32)" style="fill: none; stroke: #b0b0b0; stroke-width: 0.2; stroke-linecap: square"/>
     </g>
     <g id="line2d_100">
      <g>
       <use xlink:href="#m61d10994f7" x="57.6" y="192.275467" style="stroke: #000000; stroke-width: 0.6"/>
      </g>
     </g>
    </g>
    <g id="ytick_20">
     <g id="line2d_101">
      <path d="M 57.6 184.156732 
L 414.72 184.156732 
" clip-path="url(#p36f95ddf32)" style="fill: none; stroke: #b0b0b0; stroke-width: 0.2; stroke-linecap: square"/>
     </g>
     <g id="line2d_102">
      <g>
       <use xlink:href="#m61d10994f7" x="57.6" y="184.156732" style="stroke: #000000; stroke-width: 0.6"/>
      </g>
     </g>
    </g>
    <g id="ytick_21">
     <g id="line2d_103">
      <path d="M 57.6 176.037996 
L 414.72 176.037996 
" clip-path="url(#p36f95ddf32)" style="fill: none; stroke: #b0b0b0; stroke-width: 0.2; stroke-linecap: square"/>
     </g>
     <g id="line2d_104">
      <g>
       <use xlink:href="#m61d10994f7" x="57.6" y="176.037996" style="stroke: #000000; stroke-width: 0.6"/>
      </g>
     </g>
    </g>
    <g id="ytick_22">
     <g id="line2d_105">
      <path d="M 57.6 159.800524 
L 414.72 159.800524 
" clip-path="url(#p36f95ddf32)" style="fill: none; stroke: #b0b0b0; stroke-width: 0.2; stroke-linecap: square"/>
     </g>
     <g id="line2d_106">
      <g>
       <use xlink:href="#m61d10994f7" x="57.6" y="159.800524" style="stroke: #000000; stroke-width: 0.6"/>
      </g>
     </g>
    </g>
    <g id="ytick_23">
     <g id="line2d_107">
      <path d="M 57.6 151.681789 
L 414.72 151.681789 
" clip-path="url(#p36f95ddf32)" style="fill: none; stroke: #b0b0b0; stroke-width: 0.2; stroke-linecap: square"/>
     </g>
     <g id="line2d_108">
      <g>
       <use xlink:href="#m61d10994f7" x="57.6" y="151.681789" style="stroke: #000000; stroke-width: 0.6"/>
      </g>
     </g>
    </g>
    <g id="ytick_24">
     <g id="line2d_109">
      <path d="M 57.6 143.563053 
L 414.72 143.563053 
" clip-path="url(#p36f95ddf32)" style="fill: none; stroke: #b0b0b0; stroke-width: 0.2; stroke-linecap: square"/>
     </g>
     <g id="line2d_110">
      <g>
       <use xlink:href="#m61d10994f7" x="57.6" y="143.563053" style="stroke: #000000; stroke-width: 0.6"/>
      </g>
     </g>
    </g>
    <g id="ytick_25">
     <g id="line2d_111">
      <path d="M 57.6 135.444317 
L 414.72 135.444317 
" clip-path="url(#p36f95ddf32)" style="fill: none; stroke: #b0b0b0; stroke-width: 0.2; stroke-linecap: square"/>
     </g>
     <g id="line2d_112">
      <g>
       <use xlink:href="#m61d10994f7" x="57.6" y="135.444317" style="stroke: #000000; stroke-width: 0.6"/>
      </g>
     </g>
    </g>
    <g id="ytick_26">
     <g id="line2d_113">
      <path d="M 57.6 119.206846 
L 414.72 119.206846 
" clip-path="url(#p36f95ddf32)" style="fill: none; stroke: #b0b0b0; stroke-width: 0.2; stroke-linecap: square"/>
     </g>
     <g id="line2d_114">
      <g>
       <use xlink:href="#m61d10994f7" x="57.6" y="119.206846" style="stroke: #000000; stroke-width: 0.6"/>
      </g>
     </g>
    </g>
    <g id="ytick_27">
     <g id="line2d_115">
      <path d="M 57.6 111.08811 
L 414.72 111.08811 
" clip-path="url(#p36f95ddf32)" style="fill: none; stroke: #b0b0b0; stroke-width: 0.2; stroke-linecap: square"/>
     </g>
     <g id="line2d_116">
      <g>
       <use xlink:href="#m61d10994f7" x="57.6" y="111.08811" style="stroke: #000000; stroke-width: 0.6"/>
      </g>
     </g>
    </g>
    <g id="ytick_28">
     <g id="line2d_117">
      <path d="M 57.6 102.969374 
L 414.72 102.969374 
" clip-path="url(#p36f95ddf32)" style="fill: none; stroke: #b0b0b0; stroke-width: 0.2; stroke-linecap: square"/>
     </g>
     <g id="line2d_118">
      <g>
       <use xlink:href="#m61d10994f7" x="57.6" y="102.969374" style="stroke: #000000; stroke-width: 0.6"/>
      </g>
     </g>
    </g>
    <g id="ytick_29">
     <g id="line2d_119">
      <path d="M 57.6 94.850638 
L 414.72 94.850638 
" clip-path="url(#p36f95ddf32)" style="fill: none; stroke: #b0b0b0; stroke-width: 0.2; stroke-linecap: square"/>
     </g>
     <g id="line2d_120">
      <g>
       <use xlink:href="#m61d10994f7" x="57.6" y="94.850638" style="stroke: #000000; stroke-width: 0.6"/>
      </g>
     </g>
    </g>
    <g id="ytick_30">
     <g id="line2d_121">
      <path d="M 57.6 78.613167 
L 414.72 78.613167 
" clip-path="url(#p36f95ddf32)" style="fill: none; stroke: #b0b0b0; stroke-width: 0.2; stroke-linecap: square"/>
     </g>
     <g id="line2d_122">
      <g>
       <use xlink:href="#m61d10994f7" x="57.6" y="78.613167" style="stroke: #000000; stroke-width: 0.6"/>
      </g>
     </g>
    </g>
    <g id="ytick_31">
     <g id="line2d_123">
      <path d="M 57.6 70.494431 
L 414.72 70.494431 
" clip-path="url(#p36f95ddf32)" style="fill: none; stroke: #b0b0b0; stroke-width: 0.2; stroke-linecap: square"/>
     </g>
     <g id="line2d_124">
      <g>
       <use xlink:href="#m61d10994f7" x="57.6" y="70.494431" style="stroke: #000000; stroke-width: 0.6"/>
      </g>
     </g>
    </g>
    <g id="ytick_32">
     <g id="line2d_125">
      <path d="M 57.6 62.375695 
L 414.72 62.375695 
" clip-path="url(#p36f95ddf32)" style="fill: none; stroke: #b0b0b0; stroke-width: 0.2; stroke-linecap: square"/>
     </g>
     <g id="line2d_126">
      <g>
       <use xlink:href="#m61d10994f7" x="57.6" y="62.375695" style="stroke: #000000; stroke-width: 0.6"/>
      </g>
     </g>
    </g>
    <g id="ytick_33">
     <g id="line2d_127">
      <path d="M 57.6 54.25696 
L 414.72 54.25696 
" clip-path="url(#p36f95ddf32)" style="fill: none; stroke: #b0b0b0; stroke-width: 0.2; stroke-linecap: square"/>
     </g>
     <g id="line2d_128">
      <g>
       <use xlink:href="#m61d10994f7" x="57.6" y="54.25696" style="stroke: #000000; stroke-width: 0.6"/>
      </g>
     </g>
    </g>
    <g id="text_17">
     <!-- $\theta$ -->
     <g transform="translate(29.778125 177.628) rotate(-90) scale(0.1 -0.1)">
      <defs>
       <path id="DejaVuSans-Oblique-3b8" d="M 2913 2219 
L 925 2219 
Q 791 1284 928 888 
Q 1100 400 1566 400 
Q 2034 400 2391 891 
Q 2703 1322 2913 2219 
z
M 3009 2750 
Q 3094 3638 2984 3950 
Q 2813 4444 2353 4444 
Q 1875 4444 1525 3956 
Q 1250 3563 1034 2750 
L 3009 2750 
z
M 2444 4913 
Q 3194 4913 3494 4250 
Q 3794 3591 3566 2422 
Q 3341 1256 2781 594 
Q 2225 -72 1475 -72 
Q 722 -72 425 594 
Q 128 1256 353 2422 
Q 581 3591 1134 4250 
Q 1691 4913 2444 4913 
z
" transform="scale(0.015625)"/>
      </defs>
      <use xlink:href="#DejaVuSans-Oblique-3b8" transform="translate(0 0.234375)"/>
     </g>
    </g>
   </g>
   <g id="line2d_129">
    <path d="M 57.6 167.91926 
L 58.709453 167.808261 
L 59.359411 167.505161 
L 59.976038 166.962953 
L 60.673613 166.031946 
L 61.492608 164.54455 
L 62.463974 162.290706 
L 63.632947 158.981309 
L 65.089997 154.143546 
L 67.147008 146.461972 
L 71.489587 130.094342 
L 73.094246 125.007921 
L 74.396544 121.577053 
L 75.503616 119.251308 
L 76.458317 117.732771 
L 77.286835 116.80731 
L 78.012979 116.310016 
L 78.665318 116.120672 
L 79.281946 116.169818 
L 79.905715 116.447486 
L 80.572339 116.998673 
L 81.308006 117.911202 
L 82.131763 119.307441 
L 83.057894 121.338464 
L 84.103066 124.193382 
L 85.291085 128.11687 
L 86.660045 133.443878 
L 88.28375 140.705141 
L 90.36457 151.105341 
L 97.335552 186.812583 
L 98.93783 193.41487 
L 100.282982 198.064829 
L 101.444813 201.324771 
L 102.456653 203.540592 
L 103.34231 204.977279 
L 104.11607 205.83556 
L 104.796979 206.279165 
L 105.413606 206.427174 
L 106.006426 206.342003 
L 106.61591 206.023239 
L 107.280154 205.412033 
L 108.022963 204.409099 
L 108.863386 202.880299 
L 109.822848 200.647529 
L 110.922778 197.493447 
L 112.198886 193.122436 
L 113.724979 187.055301 
L 115.698662 178.226723 
L 122.138726 148.68964 
L 123.6672 143.090391 
L 124.94569 139.203982 
L 126.045619 136.531118 
L 127.00032 134.759961 
L 127.8336 133.653897 
L 128.562125 133.033665 
L 129.212083 132.758135 
L 129.814426 132.738352 
L 130.414387 132.943809 
L 131.052442 133.407099 
L 131.759539 134.210828 
L 132.554726 135.469955 
L 133.45943 137.341308 
L 134.495078 140.021202 
L 135.695002 143.7758 
L 137.11872 149.001683 
L 138.923366 156.532049 
L 142.332672 171.96413 
L 144.749184 182.344441 
L 146.377651 188.407004 
L 147.703757 192.535157 
L 148.832256 195.362252 
L 149.806003 197.237582 
L 150.651187 198.413213 
L 151.389235 199.082608 
L 152.043955 199.391643 
L 152.646298 199.437217 
L 153.241498 199.257314 
L 153.870029 198.826219 
L 154.565222 198.065277 
L 155.348506 196.859799 
L 156.241306 195.055078 
L 157.26743 192.451632 
L 158.462592 188.778889 
L 159.895834 183.613488 
L 161.769523 175.961923 
L 167.447731 152.205779 
L 168.890496 147.408832 
L 170.085658 144.16162 
L 171.107021 141.991798 
L 171.987917 140.609632 
L 172.752154 139.7975 
L 173.423539 139.389814 
L 174.030643 139.271159 
L 174.61632 139.382745 
L 175.223424 139.731834 
L 175.890048 140.385389 
L 176.64 141.450662 
L 177.494707 143.073747 
L 178.477978 145.445578 
L 179.625523 148.828005 
L 181.004006 153.625185 
L 182.813414 160.794607 
L 188.18688 182.613121 
L 189.574886 187.058847 
L 190.720051 190.025054 
L 191.693798 191.96807 
L 192.529459 193.172387 
L 193.253222 193.851449 
L 193.888896 194.16103 
L 194.472192 194.205825 
L 195.048346 194.024564 
L 195.65783 193.590338 
L 196.336358 192.818404 
L 197.105357 191.587034 
L 197.988634 189.728573 
L 199.014758 187.021162 
L 200.231347 183.146078 
L 201.752678 177.506327 
L 204.16919 167.556148 
L 206.878541 156.668347 
L 208.373683 151.555043 
L 209.564083 148.227269 
L 210.561638 146.056735 
L 211.411584 144.704337 
L 212.140109 143.933499 
L 212.775782 143.564763 
L 213.349555 143.479685 
L 213.906662 143.623428 
L 214.492339 144.014115 
L 215.142298 144.731038 
L 215.880346 145.896296 
L 216.730291 147.678215 
L 217.720704 150.300899 
L 218.901581 154.094824 
L 220.396723 159.701342 
L 223.003699 170.523712 
L 225.23689 179.379416 
L 226.629658 184.036553 
L 227.741491 187.026675 
L 228.670003 188.927522 
L 229.455667 190.065485 
L 230.127053 190.675083 
L 230.71273 190.924597 
L 231.25079 190.918337 
L 231.791232 190.684251 
L 232.376909 190.174647 
L 233.038771 189.284668 
L 233.800627 187.863169 
L 234.686285 185.711243 
L 235.736218 182.540321 
L 237.524198 176.242831 
L 238.762214 172.370093 
L 239.645491 170.285435 
L 240.366874 169.107444 
L 240.973978 168.508007 
L 241.497754 168.282219 
L 241.983437 168.309654 
L 242.485786 168.568775 
L 243.054797 169.129051 
L 243.730944 170.130235 
L 244.559462 171.78476 
L 245.626061 174.451897 
L 247.273574 179.255505 
L 249.885312 186.806757 
L 251.170944 189.83405 
L 252.232781 191.798091 
L 253.156531 193.065272 
L 253.980288 193.83814 
L 254.732621 194.253298 
L 255.449242 194.401148 
L 256.168243 194.321853 
L 256.934861 194.007587 
L 257.799091 193.402074 
L 258.820454 192.399285 
L 260.103706 190.805668 
L 261.99168 188.064466 
L 265.960474 182.25122 
L 267.784166 180.019976 
L 269.455488 178.318479 
L 271.105382 176.951892 
L 272.831462 175.811058 
L 274.755149 174.810865 
L 277.102618 173.851551 
L 280.478592 172.734066 
L 285.952051 171.173914 
L 290.437478 170.1074 
L 294.356275 169.405633 
L 298.470298 168.900688 
L 303.408077 168.523913 
L 310.726656 168.212666 
L 321.583104 168.000128 
L 347.540966 167.914445 
L 414.72 167.919208 
L 414.72 167.919208 
" clip-path="url(#p36f95ddf32)" style="fill: none; stroke: #008000; stroke-width: 1.5; stroke-linecap: square"/>
   </g>
   <g id="line2d_130">
    <path d="M 57.6 167.91926 
L 57.730944 167.811532 
L 57.921408 167.280331 
L 58.209485 165.704325 
L 58.618982 162.061054 
L 59.183232 154.826296 
L 60.161741 138.744829 
L 61.490227 118.964212 
L 62.694912 104.179286 
L 63.782938 93.41536 
L 64.751923 85.904447 
L 65.601869 80.933443 
L 66.335155 77.857787 
L 66.954163 76.130916 
L 67.461274 75.304024 
L 67.86601 75.019992 
L 68.206464 75.036743 
L 68.554061 75.29222 
L 68.963558 75.898285 
L 69.458765 77.064811 
L 70.053965 79.080759 
L 70.761062 82.319128 
L 71.589581 87.227379 
L 72.553805 94.359227 
L 73.675162 104.406258 
L 74.996506 118.358977 
L 76.608307 137.880173 
L 78.803405 167.421156 
L 83.964979 237.785217 
L 85.655347 257.299378 
L 87.036211 270.807019 
L 88.209946 280.226784 
L 89.217024 286.62399 
L 90.081254 290.783654 
L 90.81216 293.299479 
L 91.421645 294.675789 
L 91.916851 295.303085 
L 92.314445 295.485394 
L 92.664422 295.408039 
L 93.035827 295.082052 
L 93.473894 294.375029 
L 94.000051 293.066188 
L 94.623821 290.8703 
L 95.352346 287.43495 
L 96.195149 282.321649 
L 97.164134 274.996742 
L 98.278349 264.78646 
L 99.571123 250.781113 
L 101.10912 231.565273 
L 103.075661 204.0047 
L 110.089498 103.035916 
L 111.591782 85.966706 
L 112.848845 74.073335 
L 113.924966 65.874571 
L 114.851098 60.41229 
L 115.641523 56.98026 
L 116.305766 55.001014 
L 116.848589 54.00886 
L 117.284275 53.6234 
L 117.639014 53.58095 
L 117.98185 53.77163 
L 118.374682 54.269732 
L 118.84608 55.26 
L 119.41271 57.012245 
L 120.081715 59.858764 
L 120.862618 64.219488 
L 121.767322 70.613412 
L 122.812493 79.682096 
L 124.026701 92.267204 
L 125.471846 109.693772 
L 127.305062 134.683721 
L 130.835789 186.694853 
L 133.228493 220.090182 
L 134.859341 239.893988 
L 136.183066 253.412514 
L 137.302042 262.694557 
L 138.256742 268.88054 
L 139.070976 272.806704 
L 139.754266 275.101685 
L 140.316134 276.288155 
L 140.763725 276.774633 
L 141.120845 276.869138 
L 141.451776 276.723493 
L 141.823181 276.292925 
L 142.270771 275.399788 
L 142.811213 273.780125 
L 143.451648 271.104789 
L 144.203981 266.939654 
L 145.077734 260.77006 
L 146.089574 251.94597 
L 147.270451 239.584995 
L 148.682266 222.328603 
L 150.491674 197.276315 
L 156.996019 104.547894 
L 158.36736 89.48684 
L 159.510144 79.241516 
L 160.47913 72.428963 
L 161.300506 68.114769 
L 161.988557 65.584737 
L 162.552806 64.269384 
L 163.000397 63.720743 
L 163.352755 63.599277 
L 163.669402 63.72422 
L 164.024141 64.127505 
L 164.452685 64.984937 
L 164.97408 66.570883 
L 165.595469 69.228761 
L 166.328755 73.413652 
L 167.183462 79.667009 
L 168.176256 88.67144 
L 169.340467 101.375294 
L 170.745139 119.287723 
L 172.595021 145.962863 
L 177.942298 224.823381 
L 179.34935 241.425668 
L 180.501658 252.549683 
L 181.470643 259.889621 
L 182.287258 264.507007 
L 182.968166 267.19651 
L 183.525274 268.585237 
L 183.963341 269.154416 
L 184.303795 269.27587 
L 184.606157 269.147434 
L 184.946611 268.73647 
L 185.365632 267.844083 
L 185.875123 266.187925 
L 186.486989 263.38184 
L 187.208371 258.956487 
L 188.053555 252.298825 
L 189.041587 242.639313 
L 190.208179 228.917065 
L 191.63904 209.286198 
L 193.63415 178.531152 
L 197.543424 117.851175 
L 199.007616 98.867743 
L 200.176589 86.418503 
L 201.150336 78.265492 
L 201.96695 73.161398 
L 202.645478 70.204842 
L 203.195443 68.697793 
L 203.623987 68.087586 
L 203.950157 67.958044 
L 204.235853 68.083631 
L 204.559642 68.49632 
L 204.961997 69.408953 
L 205.457203 71.137027 
L 206.054784 74.099269 
L 206.761882 78.811857 
L 207.592781 85.948345 
L 208.568909 96.377435 
L 209.730739 111.324783 
L 211.180646 133.049677 
L 213.390029 169.967701 
L 216.246989 216.978961 
L 217.687373 237.065641 
L 218.823014 249.994822 
L 219.758669 258.289654 
L 220.53719 263.371196 
L 221.177626 266.224931 
L 221.689498 267.610029 
L 222.08233 268.121288 
L 222.375168 268.187173 
L 222.644198 268.00912 
L 222.965606 267.496275 
L 223.370342 266.386179 
L 223.87031 264.304728 
L 224.475034 260.754092 
L 225.191654 255.12512 
L 226.036838 246.607719 
L 227.036774 234.134847 
L 228.248602 216.052587 
L 229.838976 188.713508 
L 234.61248 104.405437 
L 235.795738 88.488435 
L 236.33856 83.339751 
L 236.638541 82.283193 
L 236.798054 82.217329 
L 236.809958 82.226039 
L 236.957568 82.475853 
L 237.190886 83.400652 
L 237.52896 85.802757 
L 237.981312 90.748854 
L 238.593178 100.036386 
L 239.443123 116.549236 
L 240.983501 151.729236 
L 242.866714 193.302832 
L 243.969024 212.885801 
L 244.84992 224.943822 
L 245.614157 232.570441 
L 246.261734 236.927365 
L 246.787891 239.071046 
L 247.187866 239.889441 
L 247.4688 240.061611 
L 247.697357 239.966143 
L 247.97353 239.573557 
L 248.340173 238.609957 
L 248.804429 236.709561 
L 249.399629 233.260027 
L 250.17577 227.294315 
L 251.199514 217.445902 
L 252.761318 199.816224 
L 255.820646 165.160081 
L 257.089613 153.444326 
L 258.172877 145.364609 
L 259.120435 139.867623 
L 259.920384 136.369763 
L 260.706048 133.919996 
L 261.375053 132.555242 
L 261.913114 131.904511 
L 262.43927 131.622649 
L 262.941619 131.651519 
L 263.503488 131.996991 
L 264.051072 132.612285 
L 264.870067 133.965948 
L 265.908096 136.25355 
L 267.093734 139.366191 
L 271.438694 151.047726 
L 272.836224 153.951587 
L 274.238515 156.251958 
L 275.578906 157.895918 
L 276.747878 158.942483 
L 277.609728 159.525385 
L 279.126298 160.230895 
L 280.316698 160.58434 
L 281.419008 160.825179 
L 283.326029 161.14575 
L 284.618803 161.373307 
L 290.461286 162.973735 
L 292.270694 163.604326 
L 296.508518 165.043149 
L 300.534451 166.055368 
L 309.024384 167.102242 
L 317.585741 167.510792 
L 319.197542 167.644809 
L 344.638771 167.932852 
L 347.107661 167.93529 
L 349.45751 167.932969 
L 351.864499 167.928241 
L 354.261965 167.923753 
L 356.635622 167.920319 
L 359.042611 167.918707 
L 361.42103 167.918314 
L 363.818496 167.919054 
L 366.206438 167.919919 
L 368.594381 167.920915 
L 370.987085 167.921351 
L 373.375027 167.921605 
L 375.767731 167.921304 
L 378.155674 167.921025 
L 380.543616 167.920465 
L 382.93632 167.920171 
L 385.324262 167.91976 
L 387.716966 167.919688 
L 390.104909 167.919493 
L 392.497613 167.919584 
L 394.885555 167.919483 
L 397.273498 167.919605 
L 399.66144 167.919492 
L 402.049382 167.919583 
L 404.437325 167.919439 
L 406.825267 167.919509 
L 409.21321 167.919357 
L 411.601152 167.919432 
L 413.989094 167.919294 
L 414.72 167.919398 
L 414.72 167.919398 
" clip-path="url(#p36f95ddf32)" style="fill: none; stroke-dasharray: 5.55,2.4; stroke-dashoffset: 0; stroke: #ff0000; stroke-width: 1.5"/>
   </g>
   <g id="patch_3">
    <path d="M 57.6 307.584 
L 57.6 41.472 
" style="fill: none; stroke: #000000; stroke-width: 0.8; stroke-linejoin: miter; stroke-linecap: square"/>
   </g>
   <g id="patch_4">
    <path d="M 414.72 307.584 
L 414.72 41.472 
" style="fill: none; stroke: #000000; stroke-width: 0.8; stroke-linejoin: miter; stroke-linecap: square"/>
   </g>
   <g id="patch_5">
    <path d="M 57.6 307.584 
L 414.72 307.584 
" style="fill: none; stroke: #000000; stroke-width: 0.8; stroke-linejoin: miter; stroke-linecap: square"/>
   </g>
   <g id="patch_6">
    <path d="M 57.6 41.472 
L 414.72 41.472 
" style="fill: none; stroke: #000000; stroke-width: 0.8; stroke-linejoin: miter; stroke-linecap: square"/>
   </g>
   <g id="text_18">
    <!-- constrained $\theta \; vs \; time$ -->
    <g transform="translate(171.72 35.472) scale(0.12 -0.12)">
     <defs>
      <path id="DejaVuSans-63" d="M 3122 3366 
L 3122 2828 
Q 2878 2963 2633 3030 
Q 2388 3097 2138 3097 
Q 1578 3097 1268 2742 
Q 959 2388 959 1747 
Q 959 1106 1268 751 
Q 1578 397 2138 397 
Q 2388 397 2633 464 
Q 2878 531 3122 666 
L 3122 134 
Q 2881 22 2623 -34 
Q 2366 -91 2075 -91 
Q 1284 -91 818 406 
Q 353 903 353 1747 
Q 353 2603 823 3093 
Q 1294 3584 2113 3584 
Q 2378 3584 2631 3529 
Q 2884 3475 3122 3366 
z
" transform="scale(0.015625)"/>
      <path id="DejaVuSans-6f" d="M 1959 3097 
Q 1497 3097 1228 2736 
Q 959 2375 959 1747 
Q 959 1119 1226 758 
Q 1494 397 1959 397 
Q 2419 397 2687 759 
Q 2956 1122 2956 1747 
Q 2956 2369 2687 2733 
Q 2419 3097 1959 3097 
z
M 1959 3584 
Q 2709 3584 3137 3096 
Q 3566 2609 3566 1747 
Q 3566 888 3137 398 
Q 2709 -91 1959 -91 
Q 1206 -91 779 398 
Q 353 888 353 1747 
Q 353 2609 779 3096 
Q 1206 3584 1959 3584 
z
" transform="scale(0.015625)"/>
      <path id="DejaVuSans-6e" d="M 3513 2113 
L 3513 0 
L 2938 0 
L 2938 2094 
Q 2938 2591 2744 2837 
Q 2550 3084 2163 3084 
Q 1697 3084 1428 2787 
Q 1159 2491 1159 1978 
L 1159 0 
L 581 0 
L 581 3500 
L 1159 3500 
L 1159 2956 
Q 1366 3272 1645 3428 
Q 1925 3584 2291 3584 
Q 2894 3584 3203 3211 
Q 3513 2838 3513 2113 
z
" transform="scale(0.015625)"/>
      <path id="DejaVuSans-73" d="M 2834 3397 
L 2834 2853 
Q 2591 2978 2328 3040 
Q 2066 3103 1784 3103 
Q 1356 3103 1142 2972 
Q 928 2841 928 2578 
Q 928 2378 1081 2264 
Q 1234 2150 1697 2047 
L 1894 2003 
Q 2506 1872 2764 1633 
Q 3022 1394 3022 966 
Q 3022 478 2636 193 
Q 2250 -91 1575 -91 
Q 1294 -91 989 -36 
Q 684 19 347 128 
L 347 722 
Q 666 556 975 473 
Q 1284 391 1588 391 
Q 1994 391 2212 530 
Q 2431 669 2431 922 
Q 2431 1156 2273 1281 
Q 2116 1406 1581 1522 
L 1381 1569 
Q 847 1681 609 1914 
Q 372 2147 372 2553 
Q 372 3047 722 3315 
Q 1072 3584 1716 3584 
Q 2034 3584 2315 3537 
Q 2597 3491 2834 3397 
z
" transform="scale(0.015625)"/>
      <path id="DejaVuSans-74" d="M 1172 4494 
L 1172 3500 
L 2356 3500 
L 2356 3053 
L 1172 3053 
L 1172 1153 
Q 1172 725 1289 603 
Q 1406 481 1766 481 
L 2356 481 
L 2356 0 
L 1766 0 
Q 1100 0 847 248 
Q 594 497 594 1153 
L 594 3053 
L 172 3053 
L 172 3500 
L 594 3500 
L 594 4494 
L 1172 4494 
z
" transform="scale(0.015625)"/>
      <path id="DejaVuSans-72" d="M 2631 2963 
Q 2534 3019 2420 3045 
Q 2306 3072 2169 3072 
Q 1681 3072 1420 2755 
Q 1159 2438 1159 1844 
L 1159 0 
L 581 0 
L 581 3500 
L 1159 3500 
L 1159 2956 
Q 1341 3275 1631 3429 
Q 1922 3584 2338 3584 
Q 2397 3584 2469 3576 
Q 2541 3569 2628 3553 
L 2631 2963 
z
" transform="scale(0.015625)"/>
      <path id="DejaVuSans-61" d="M 2194 1759 
Q 1497 1759 1228 1600 
Q 959 1441 959 1056 
Q 959 750 1161 570 
Q 1363 391 1709 391 
Q 2188 391 2477 730 
Q 2766 1069 2766 1631 
L 2766 1759 
L 2194 1759 
z
M 3341 1997 
L 3341 0 
L 2766 0 
L 2766 531 
Q 2569 213 2275 61 
Q 1981 -91 1556 -91 
Q 1019 -91 701 211 
Q 384 513 384 1019 
Q 384 1609 779 1909 
Q 1175 2209 1959 2209 
L 2766 2209 
L 2766 2266 
Q 2766 2663 2505 2880 
Q 2244 3097 1772 3097 
Q 1472 3097 1187 3025 
Q 903 2953 641 2809 
L 641 3341 
Q 956 3463 1253 3523 
Q 1550 3584 1831 3584 
Q 2591 3584 2966 3190 
Q 3341 2797 3341 1997 
z
" transform="scale(0.015625)"/>
      <path id="DejaVuSans-69" d="M 603 3500 
L 1178 3500 
L 1178 0 
L 603 0 
L 603 3500 
z
M 603 4863 
L 1178 4863 
L 1178 4134 
L 603 4134 
L 603 4863 
z
" transform="scale(0.015625)"/>
      <path id="DejaVuSans-65" d="M 3597 1894 
L 3597 1613 
L 953 1613 
Q 991 1019 1311 708 
Q 1631 397 2203 397 
Q 2534 397 2845 478 
Q 3156 559 3463 722 
L 3463 178 
Q 3153 47 2828 -22 
Q 2503 -91 2169 -91 
Q 1331 -91 842 396 
Q 353 884 353 1716 
Q 353 2575 817 3079 
Q 1281 3584 2069 3584 
Q 2775 3584 3186 3129 
Q 3597 2675 3597 1894 
z
M 3022 2063 
Q 3016 2534 2758 2815 
Q 2500 3097 2075 3097 
Q 1594 3097 1305 2825 
Q 1016 2553 972 2059 
L 3022 2063 
z
" transform="scale(0.015625)"/>
      <path id="DejaVuSans-64" d="M 2906 2969 
L 2906 4863 
L 3481 4863 
L 3481 0 
L 2906 0 
L 2906 525 
Q 2725 213 2448 61 
Q 2172 -91 1784 -91 
Q 1150 -91 751 415 
Q 353 922 353 1747 
Q 353 2572 751 3078 
Q 1150 3584 1784 3584 
Q 2172 3584 2448 3432 
Q 2725 3281 2906 2969 
z
M 947 1747 
Q 947 1113 1208 752 
Q 1469 391 1925 391 
Q 2381 391 2643 752 
Q 2906 1113 2906 1747 
Q 2906 2381 2643 2742 
Q 2381 3103 1925 3103 
Q 1469 3103 1208 2742 
Q 947 2381 947 1747 
z
" transform="scale(0.015625)"/>
      <path id="DejaVuSans-20" transform="scale(0.015625)"/>
      <path id="DejaVuSans-Oblique-76" d="M 459 3500 
L 1069 3500 
L 1581 525 
L 3256 3500 
L 3866 3500 
L 1875 0 
L 1100 0 
L 459 3500 
z
" transform="scale(0.015625)"/>
     </defs>
     <use xlink:href="#DejaVuSans-63" transform="translate(0 0.234375)"/>
     <use xlink:href="#DejaVuSans-6f" transform="translate(54.980469 0.234375)"/>
     <use xlink:href="#DejaVuSans-6e" transform="translate(116.162109 0.234375)"/>
     <use xlink:href="#DejaVuSans-73" transform="translate(179.541016 0.234375)"/>
     <use xlink:href="#DejaVuSans-74" transform="translate(231.640625 0.234375)"/>
     <use xlink:href="#DejaVuSans-72" transform="translate(270.849609 0.234375)"/>
     <use xlink:href="#DejaVuSans-61" transform="translate(311.962891 0.234375)"/>
     <use xlink:href="#DejaVuSans-69" transform="translate(373.242188 0.234375)"/>
     <use xlink:href="#DejaVuSans-6e" transform="translate(401.025391 0.234375)"/>
     <use xlink:href="#DejaVuSans-65" transform="translate(464.404297 0.234375)"/>
     <use xlink:href="#DejaVuSans-64" transform="translate(525.927734 0.234375)"/>
     <use xlink:href="#DejaVuSans-20" transform="translate(589.404297 0.234375)"/>
     <use xlink:href="#DejaVuSans-Oblique-3b8" transform="translate(621.191406 0.234375)"/>
     <use xlink:href="#DejaVuSans-Oblique-76" transform="translate(709.432183 0.234375)"/>
     <use xlink:href="#DejaVuSans-Oblique-73" transform="translate(768.61187 0.234375)"/>
     <use xlink:href="#DejaVuSans-Oblique-74" transform="translate(847.770615 0.234375)"/>
     <use xlink:href="#DejaVuSans-Oblique-69" transform="translate(886.9796 0.234375)"/>
     <use xlink:href="#DejaVuSans-Oblique-6d" transform="translate(914.762803 0.234375)"/>
     <use xlink:href="#DejaVuSans-Oblique-65" transform="translate(1012.174912 0.234375)"/>
    </g>
   </g>
   <g id="legend_1">
    <g id="patch_7">
     <path d="M 284.02 82.372 
L 407.72 82.372 
Q 409.72 82.372 409.72 80.372 
L 409.72 48.472 
Q 409.72 46.472 407.72 46.472 
L 284.02 46.472 
Q 282.02 46.472 282.02 48.472 
L 282.02 80.372 
Q 282.02 82.372 284.02 82.372 
z
" style="fill: #ffffff; opacity: 0.8; stroke: #cccccc; stroke-linejoin: miter"/>
    </g>
    <g id="line2d_131">
     <path d="M 286.02 54.672 
L 296.02 54.672 
L 306.02 54.672 
" style="fill: none; stroke: #008000; stroke-width: 1.5; stroke-linecap: square"/>
    </g>
    <g id="text_19">
     <!-- $\theta \; (degree)$ -->
     <g transform="translate(314.02 58.172) scale(0.1 -0.1)">
      <defs>
       <path id="DejaVuSans-Oblique-64" d="M 2675 525 
Q 2444 222 2128 65 
Q 1813 -91 1428 -91 
Q 903 -91 598 267 
Q 294 625 294 1247 
Q 294 1766 478 2236 
Q 663 2706 1013 3078 
Q 1244 3325 1534 3454 
Q 1825 3584 2144 3584 
Q 2481 3584 2739 3421 
Q 2997 3259 3138 2956 
L 3513 4863 
L 4091 4863 
L 3144 0 
L 2566 0 
L 2675 525 
z
M 891 1350 
Q 891 897 1095 644 
Q 1300 391 1663 391 
Q 1931 391 2161 520 
Q 2391 650 2566 903 
Q 2750 1166 2856 1509 
Q 2963 1853 2963 2188 
Q 2963 2622 2758 2865 
Q 2553 3109 2194 3109 
Q 1922 3109 1687 2981 
Q 1453 2853 1288 2613 
Q 1106 2353 998 2009 
Q 891 1666 891 1350 
z
" transform="scale(0.015625)"/>
       <path id="DejaVuSans-Oblique-67" d="M 3816 3500 
L 3219 434 
Q 3047 -456 2561 -893 
Q 2075 -1331 1253 -1331 
Q 950 -1331 690 -1286 
Q 431 -1241 206 -1147 
L 313 -588 
Q 525 -725 762 -790 
Q 1000 -856 1269 -856 
Q 1816 -856 2167 -557 
Q 2519 -259 2631 300 
L 2681 563 
Q 2441 288 2122 144 
Q 1803 0 1434 0 
Q 903 0 598 351 
Q 294 703 294 1319 
Q 294 1803 478 2267 
Q 663 2731 997 3091 
Q 1219 3328 1514 3456 
Q 1809 3584 2131 3584 
Q 2484 3584 2746 3420 
Q 3009 3256 3138 2956 
L 3238 3500 
L 3816 3500 
z
M 2950 2216 
Q 2950 2641 2750 2872 
Q 2550 3103 2181 3103 
Q 1953 3103 1747 3012 
Q 1541 2922 1394 2759 
Q 1156 2491 1023 2127 
Q 891 1763 891 1375 
Q 891 944 1092 712 
Q 1294 481 1672 481 
Q 2219 481 2584 976 
Q 2950 1472 2950 2216 
z
" transform="scale(0.015625)"/>
       <path id="DejaVuSans-Oblique-72" d="M 2853 2969 
Q 2766 3016 2653 3041 
Q 2541 3066 2413 3066 
Q 1953 3066 1609 2717 
Q 1266 2369 1153 1784 
L 800 0 
L 225 0 
L 909 3500 
L 1484 3500 
L 1375 2956 
Q 1603 3259 1920 3421 
Q 2238 3584 2597 3584 
Q 2691 3584 2781 3573 
Q 2872 3563 2963 3538 
L 2853 2969 
z
" transform="scale(0.015625)"/>
      </defs>
      <use xlink:href="#DejaVuSans-Oblique-3b8" transform="translate(0 0.234375)"/>
      <use xlink:href="#DejaVuSans-28" transform="translate(88.240776 0.234375)"/>
      <use xlink:href="#DejaVuSans-Oblique-64" transform="translate(127.254448 0.234375)"/>
      <use xlink:href="#DejaVuSans-Oblique-65" transform="translate(190.731011 0.234375)"/>
      <use xlink:href="#DejaVuSans-Oblique-67" transform="translate(252.254448 0.234375)"/>
      <use xlink:href="#DejaVuSans-Oblique-72" transform="translate(315.731011 0.234375)"/>
      <use xlink:href="#DejaVuSans-Oblique-65" transform="translate(356.844292 0.234375)"/>
      <use xlink:href="#DejaVuSans-Oblique-65" transform="translate(418.367729 0.234375)"/>
      <use xlink:href="#DejaVuSans-29" transform="translate(479.891167 0.234375)"/>
     </g>
    </g>
    <g id="line2d_132">
     <path d="M 286.02 72.772 
L 296.02 72.772 
L 306.02 72.772 
" style="fill: none; stroke-dasharray: 5.55,2.4; stroke-dashoffset: 0; stroke: #ff0000; stroke-width: 1.5"/>
    </g>
    <g id="text_20">
     <!-- $\dot{\theta} \; (degree \cdot {sec.}^{-1})$ -->
     <g transform="translate(314.02 76.272) scale(0.1 -0.1)">
      <defs>
       <path id="DejaVuSans-307" d="M -1894 4863 
L -1319 4863 
L -1319 4134 
L -1894 4134 
L -1894 4863 
z
M -1600 3584 
L -1600 3584 
z
" transform="scale(0.015625)"/>
       <path id="DejaVuSans-22c5" d="M 684 2619 
L 1344 2619 
L 1344 1825 
L 684 1825 
L 684 2619 
z
" transform="scale(0.015625)"/>
      </defs>
      <use xlink:href="#DejaVuSans-307" transform="translate(62.88916 34.015625)"/>
      <use xlink:href="#DejaVuSans-Oblique-3b8" transform="translate(0 0.75)"/>
      <use xlink:href="#DejaVuSans-28" transform="translate(88.240776 0.75)"/>
      <use xlink:href="#DejaVuSans-Oblique-64" transform="translate(127.254448 0.75)"/>
      <use xlink:href="#DejaVuSans-Oblique-65" transform="translate(190.731011 0.75)"/>
      <use xlink:href="#DejaVuSans-Oblique-67" transform="translate(252.254448 0.75)"/>
      <use xlink:href="#DejaVuSans-Oblique-72" transform="translate(315.731011 0.75)"/>
      <use xlink:href="#DejaVuSans-Oblique-65" transform="translate(356.844292 0.75)"/>
      <use xlink:href="#DejaVuSans-Oblique-65" transform="translate(418.367729 0.75)"/>
      <use xlink:href="#DejaVuSans-22c5" transform="translate(499.373589 0.75)"/>
      <use xlink:href="#DejaVuSans-Oblique-73" transform="translate(550.64312 0.75)"/>
      <use xlink:href="#DejaVuSans-Oblique-65" transform="translate(602.742729 0.75)"/>
      <use xlink:href="#DejaVuSans-Oblique-63" transform="translate(664.266167 0.75)"/>
      <use xlink:href="#DejaVuSans-2e" transform="translate(719.246636 0.75)"/>
      <use xlink:href="#DejaVuSans-2212" transform="translate(771.473198 39.03125) scale(0.7)"/>
      <use xlink:href="#DejaVuSans-31" transform="translate(830.125542 39.03125) scale(0.7)"/>
      <use xlink:href="#DejaVuSans-29" transform="translate(877.39605 0.75)"/>
     </g>
    </g>
   </g>
  </g>
 </g>
 <defs>
  <clipPath id="p36f95ddf32">
   <rect x="57.6" y="41.472" width="357.12" height="266.112"/>
  </clipPath>
 </defs>
</svg>
