<?xml version="1.0" encoding="utf-8" standalone="no"?>
<!DOCTYPE svg PUBLIC "-//W3C//DTD SVG 1.1//EN"
  "http://www.w3.org/Graphics/SVG/1.1/DTD/svg11.dtd">
<svg xmlns:xlink="http://www.w3.org/1999/xlink" width="460.8pt" height="345.6pt" viewBox="0 0 460.8 345.6" xmlns="http://www.w3.org/2000/svg" version="1.1">
 <metadata>
  <rdf:RDF xmlns:dc="http://purl.org/dc/elements/1.1/" xmlns:cc="http://creativecommons.org/ns#" xmlns:rdf="http://www.w3.org/1999/02/22-rdf-syntax-ns#">
   <cc:Work>
    <dc:type rdf:resource="http://purl.org/dc/dcmitype/StillImage"/>
    <dc:date>2023-08-16T15:06:43.244321</dc:date>
    <dc:format>image/svg+xml</dc:format>
    <dc:creator>
     <cc:Agent>
      <dc:title>Matplotlib v3.5.1, https://matplotlib.org/</dc:title>
     </cc:Agent>
    </dc:creator>
   </cc:Work>
  </rdf:RDF>
 </metadata>
 <defs>
  <style type="text/css">*{stroke-linejoin: round; stroke-linecap: butt}</style>
 </defs>
 <g id="figure_1">
  <g id="patch_1">
   <path d="M 0 345.6 
L 460.8 345.6 
L 460.8 0 
L 0 0 
L 0 345.6 
z
" style="fill: none"/>
  </g>
  <g id="axes_1">
   <g id="patch_2">
    <path d="M 57.6 307.584 
L 414.72 307.584 
L 414.72 41.472 
L 57.6 41.472 
L 57.6 307.584 
z
" style="fill: none"/>
   </g>
   <g id="matplotlib.axis_1">
    <g id="xtick_1">
     <g id="line2d_1">
      <path d="M 73.832727 307.584 
L 73.832727 41.472 
" clip-path="url(#pf8e5576366)" style="fill: none; stroke: #b0b0b0; stroke-width: 0.8; stroke-linecap: square"/>
     </g>
     <g id="line2d_2">
      <defs>
       <path id="mada08ec581" d="M 0 0 
L 0 3.5 
" style="stroke: #000000; stroke-width: 0.8"/>
      </defs>
      <g>
       <use xlink:href="#mada08ec581" x="73.832727" y="307.584" style="stroke: #000000; stroke-width: 0.8"/>
      </g>
     </g>
     <g id="text_1">
      <!-- 0 -->
      <g transform="translate(70.651477 322.182437)scale(0.1 -0.1)">
       <defs>
        <path id="DejaVuSans-30" d="M 2034 4250 
Q 1547 4250 1301 3770 
Q 1056 3291 1056 2328 
Q 1056 1369 1301 889 
Q 1547 409 2034 409 
Q 2525 409 2770 889 
Q 3016 1369 3016 2328 
Q 3016 3291 2770 3770 
Q 2525 4250 2034 4250 
z
M 2034 4750 
Q 2819 4750 3233 4129 
Q 3647 3509 3647 2328 
Q 3647 1150 3233 529 
Q 2819 -91 2034 -91 
Q 1250 -91 836 529 
Q 422 1150 422 2328 
Q 422 3509 836 4129 
Q 1250 4750 2034 4750 
z
" transform="scale(0.015625)"/>
       </defs>
       <use xlink:href="#DejaVuSans-30"/>
      </g>
     </g>
    </g>
    <g id="xtick_2">
     <g id="line2d_3">
      <path d="M 127.941818 307.584 
L 127.941818 41.472 
" clip-path="url(#pf8e5576366)" style="fill: none; stroke: #b0b0b0; stroke-width: 0.8; stroke-linecap: square"/>
     </g>
     <g id="line2d_4">
      <g>
       <use xlink:href="#mada08ec581" x="127.941818" y="307.584" style="stroke: #000000; stroke-width: 0.8"/>
      </g>
     </g>
     <g id="text_2">
      <!-- 5 -->
      <g transform="translate(124.760568 322.182437)scale(0.1 -0.1)">
       <defs>
        <path id="DejaVuSans-35" d="M 691 4666 
L 3169 4666 
L 3169 4134 
L 1269 4134 
L 1269 2991 
Q 1406 3038 1543 3061 
Q 1681 3084 1819 3084 
Q 2600 3084 3056 2656 
Q 3513 2228 3513 1497 
Q 3513 744 3044 326 
Q 2575 -91 1722 -91 
Q 1428 -91 1123 -41 
Q 819 9 494 109 
L 494 744 
Q 775 591 1075 516 
Q 1375 441 1709 441 
Q 2250 441 2565 725 
Q 2881 1009 2881 1497 
Q 2881 1984 2565 2268 
Q 2250 2553 1709 2553 
Q 1456 2553 1204 2497 
Q 953 2441 691 2322 
L 691 4666 
z
" transform="scale(0.015625)"/>
       </defs>
       <use xlink:href="#DejaVuSans-35"/>
      </g>
     </g>
    </g>
    <g id="xtick_3">
     <g id="line2d_5">
      <path d="M 182.050909 307.584 
L 182.050909 41.472 
" clip-path="url(#pf8e5576366)" style="fill: none; stroke: #b0b0b0; stroke-width: 0.8; stroke-linecap: square"/>
     </g>
     <g id="line2d_6">
      <g>
       <use xlink:href="#mada08ec581" x="182.050909" y="307.584" style="stroke: #000000; stroke-width: 0.8"/>
      </g>
     </g>
     <g id="text_3">
      <!-- 10 -->
      <g transform="translate(175.688409 322.182437)scale(0.1 -0.1)">
       <defs>
        <path id="DejaVuSans-31" d="M 794 531 
L 1825 531 
L 1825 4091 
L 703 3866 
L 703 4441 
L 1819 4666 
L 2450 4666 
L 2450 531 
L 3481 531 
L 3481 0 
L 794 0 
L 794 531 
z
" transform="scale(0.015625)"/>
       </defs>
       <use xlink:href="#DejaVuSans-31"/>
       <use xlink:href="#DejaVuSans-30" x="63.623047"/>
      </g>
     </g>
    </g>
    <g id="xtick_4">
     <g id="line2d_7">
      <path d="M 236.16 307.584 
L 236.16 41.472 
" clip-path="url(#pf8e5576366)" style="fill: none; stroke: #b0b0b0; stroke-width: 0.8; stroke-linecap: square"/>
     </g>
     <g id="line2d_8">
      <g>
       <use xlink:href="#mada08ec581" x="236.16" y="307.584" style="stroke: #000000; stroke-width: 0.8"/>
      </g>
     </g>
     <g id="text_4">
      <!-- 15 -->
      <g transform="translate(229.7975 322.182437)scale(0.1 -0.1)">
       <use xlink:href="#DejaVuSans-31"/>
       <use xlink:href="#DejaVuSans-35" x="63.623047"/>
      </g>
     </g>
    </g>
    <g id="xtick_5">
     <g id="line2d_9">
      <path d="M 290.269091 307.584 
L 290.269091 41.472 
" clip-path="url(#pf8e5576366)" style="fill: none; stroke: #b0b0b0; stroke-width: 0.8; stroke-linecap: square"/>
     </g>
     <g id="line2d_10">
      <g>
       <use xlink:href="#mada08ec581" x="290.269091" y="307.584" style="stroke: #000000; stroke-width: 0.8"/>
      </g>
     </g>
     <g id="text_5">
      <!-- 20 -->
      <g transform="translate(283.906591 322.182437)scale(0.1 -0.1)">
       <defs>
        <path id="DejaVuSans-32" d="M 1228 531 
L 3431 531 
L 3431 0 
L 469 0 
L 469 531 
Q 828 903 1448 1529 
Q 2069 2156 2228 2338 
Q 2531 2678 2651 2914 
Q 2772 3150 2772 3378 
Q 2772 3750 2511 3984 
Q 2250 4219 1831 4219 
Q 1534 4219 1204 4116 
Q 875 4013 500 3803 
L 500 4441 
Q 881 4594 1212 4672 
Q 1544 4750 1819 4750 
Q 2544 4750 2975 4387 
Q 3406 4025 3406 3419 
Q 3406 3131 3298 2873 
Q 3191 2616 2906 2266 
Q 2828 2175 2409 1742 
Q 1991 1309 1228 531 
z
" transform="scale(0.015625)"/>
       </defs>
       <use xlink:href="#DejaVuSans-32"/>
       <use xlink:href="#DejaVuSans-30" x="63.623047"/>
      </g>
     </g>
    </g>
    <g id="xtick_6">
     <g id="line2d_11">
      <path d="M 344.378182 307.584 
L 344.378182 41.472 
" clip-path="url(#pf8e5576366)" style="fill: none; stroke: #b0b0b0; stroke-width: 0.8; stroke-linecap: square"/>
     </g>
     <g id="line2d_12">
      <g>
       <use xlink:href="#mada08ec581" x="344.378182" y="307.584" style="stroke: #000000; stroke-width: 0.8"/>
      </g>
     </g>
     <g id="text_6">
      <!-- 25 -->
      <g transform="translate(338.015682 322.182437)scale(0.1 -0.1)">
       <use xlink:href="#DejaVuSans-32"/>
       <use xlink:href="#DejaVuSans-35" x="63.623047"/>
      </g>
     </g>
    </g>
    <g id="xtick_7">
     <g id="line2d_13">
      <path d="M 398.487273 307.584 
L 398.487273 41.472 
" clip-path="url(#pf8e5576366)" style="fill: none; stroke: #b0b0b0; stroke-width: 0.8; stroke-linecap: square"/>
     </g>
     <g id="line2d_14">
      <g>
       <use xlink:href="#mada08ec581" x="398.487273" y="307.584" style="stroke: #000000; stroke-width: 0.8"/>
      </g>
     </g>
     <g id="text_7">
      <!-- 30 -->
      <g transform="translate(392.124773 322.182437)scale(0.1 -0.1)">
       <defs>
        <path id="DejaVuSans-33" d="M 2597 2516 
Q 3050 2419 3304 2112 
Q 3559 1806 3559 1356 
Q 3559 666 3084 287 
Q 2609 -91 1734 -91 
Q 1441 -91 1130 -33 
Q 819 25 488 141 
L 488 750 
Q 750 597 1062 519 
Q 1375 441 1716 441 
Q 2309 441 2620 675 
Q 2931 909 2931 1356 
Q 2931 1769 2642 2001 
Q 2353 2234 1838 2234 
L 1294 2234 
L 1294 2753 
L 1863 2753 
Q 2328 2753 2575 2939 
Q 2822 3125 2822 3475 
Q 2822 3834 2567 4026 
Q 2313 4219 1838 4219 
Q 1578 4219 1281 4162 
Q 984 4106 628 3988 
L 628 4550 
Q 988 4650 1302 4700 
Q 1616 4750 1894 4750 
Q 2613 4750 3031 4423 
Q 3450 4097 3450 3541 
Q 3450 3153 3228 2886 
Q 3006 2619 2597 2516 
z
" transform="scale(0.015625)"/>
       </defs>
       <use xlink:href="#DejaVuSans-33"/>
       <use xlink:href="#DejaVuSans-30" x="63.623047"/>
      </g>
     </g>
    </g>
    <g id="text_8">
     <!-- time (s) -->
     <g transform="translate(216.768594 335.860562)scale(0.1 -0.1)">
      <defs>
       <path id="DejaVuSans-74" d="M 1172 4494 
L 1172 3500 
L 2356 3500 
L 2356 3053 
L 1172 3053 
L 1172 1153 
Q 1172 725 1289 603 
Q 1406 481 1766 481 
L 2356 481 
L 2356 0 
L 1766 0 
Q 1100 0 847 248 
Q 594 497 594 1153 
L 594 3053 
L 172 3053 
L 172 3500 
L 594 3500 
L 594 4494 
L 1172 4494 
z
" transform="scale(0.015625)"/>
       <path id="DejaVuSans-69" d="M 603 3500 
L 1178 3500 
L 1178 0 
L 603 0 
L 603 3500 
z
M 603 4863 
L 1178 4863 
L 1178 4134 
L 603 4134 
L 603 4863 
z
" transform="scale(0.015625)"/>
       <path id="DejaVuSans-6d" d="M 3328 2828 
Q 3544 3216 3844 3400 
Q 4144 3584 4550 3584 
Q 5097 3584 5394 3201 
Q 5691 2819 5691 2113 
L 5691 0 
L 5113 0 
L 5113 2094 
Q 5113 2597 4934 2840 
Q 4756 3084 4391 3084 
Q 3944 3084 3684 2787 
Q 3425 2491 3425 1978 
L 3425 0 
L 2847 0 
L 2847 2094 
Q 2847 2600 2669 2842 
Q 2491 3084 2119 3084 
Q 1678 3084 1418 2786 
Q 1159 2488 1159 1978 
L 1159 0 
L 581 0 
L 581 3500 
L 1159 3500 
L 1159 2956 
Q 1356 3278 1631 3431 
Q 1906 3584 2284 3584 
Q 2666 3584 2933 3390 
Q 3200 3197 3328 2828 
z
" transform="scale(0.015625)"/>
       <path id="DejaVuSans-65" d="M 3597 1894 
L 3597 1613 
L 953 1613 
Q 991 1019 1311 708 
Q 1631 397 2203 397 
Q 2534 397 2845 478 
Q 3156 559 3463 722 
L 3463 178 
Q 3153 47 2828 -22 
Q 2503 -91 2169 -91 
Q 1331 -91 842 396 
Q 353 884 353 1716 
Q 353 2575 817 3079 
Q 1281 3584 2069 3584 
Q 2775 3584 3186 3129 
Q 3597 2675 3597 1894 
z
M 3022 2063 
Q 3016 2534 2758 2815 
Q 2500 3097 2075 3097 
Q 1594 3097 1305 2825 
Q 1016 2553 972 2059 
L 3022 2063 
z
" transform="scale(0.015625)"/>
       <path id="DejaVuSans-20" transform="scale(0.015625)"/>
       <path id="DejaVuSans-28" d="M 1984 4856 
Q 1566 4138 1362 3434 
Q 1159 2731 1159 2009 
Q 1159 1288 1364 580 
Q 1569 -128 1984 -844 
L 1484 -844 
Q 1016 -109 783 600 
Q 550 1309 550 2009 
Q 550 2706 781 3412 
Q 1013 4119 1484 4856 
L 1984 4856 
z
" transform="scale(0.015625)"/>
       <path id="DejaVuSans-73" d="M 2834 3397 
L 2834 2853 
Q 2591 2978 2328 3040 
Q 2066 3103 1784 3103 
Q 1356 3103 1142 2972 
Q 928 2841 928 2578 
Q 928 2378 1081 2264 
Q 1234 2150 1697 2047 
L 1894 2003 
Q 2506 1872 2764 1633 
Q 3022 1394 3022 966 
Q 3022 478 2636 193 
Q 2250 -91 1575 -91 
Q 1294 -91 989 -36 
Q 684 19 347 128 
L 347 722 
Q 666 556 975 473 
Q 1284 391 1588 391 
Q 1994 391 2212 530 
Q 2431 669 2431 922 
Q 2431 1156 2273 1281 
Q 2116 1406 1581 1522 
L 1381 1569 
Q 847 1681 609 1914 
Q 372 2147 372 2553 
Q 372 3047 722 3315 
Q 1072 3584 1716 3584 
Q 2034 3584 2315 3537 
Q 2597 3491 2834 3397 
z
" transform="scale(0.015625)"/>
       <path id="DejaVuSans-29" d="M 513 4856 
L 1013 4856 
Q 1481 4119 1714 3412 
Q 1947 2706 1947 2009 
Q 1947 1309 1714 600 
Q 1481 -109 1013 -844 
L 513 -844 
Q 928 -128 1133 580 
Q 1338 1288 1338 2009 
Q 1338 2731 1133 3434 
Q 928 4138 513 4856 
z
" transform="scale(0.015625)"/>
      </defs>
      <use xlink:href="#DejaVuSans-74"/>
      <use xlink:href="#DejaVuSans-69" x="39.208984"/>
      <use xlink:href="#DejaVuSans-6d" x="66.992188"/>
      <use xlink:href="#DejaVuSans-65" x="164.404297"/>
      <use xlink:href="#DejaVuSans-20" x="225.927734"/>
      <use xlink:href="#DejaVuSans-28" x="257.714844"/>
      <use xlink:href="#DejaVuSans-73" x="296.728516"/>
      <use xlink:href="#DejaVuSans-29" x="348.828125"/>
     </g>
    </g>
   </g>
   <g id="matplotlib.axis_2">
    <g id="ytick_1">
     <g id="line2d_15">
      <path d="M 57.6 306.736297 
L 414.72 306.736297 
" clip-path="url(#pf8e5576366)" style="fill: none; stroke: #b0b0b0; stroke-width: 0.8; stroke-linecap: square"/>
     </g>
     <g id="line2d_16">
      <defs>
       <path id="me2e8e9e8fc" d="M 0 0 
L -3.5 0 
" style="stroke: #000000; stroke-width: 0.8"/>
      </defs>
      <g>
       <use xlink:href="#me2e8e9e8fc" x="57.6" y="306.736297" style="stroke: #000000; stroke-width: 0.8"/>
      </g>
     </g>
     <g id="text_9">
      <!-- −0.2 -->
      <g transform="translate(26.317187 310.535516)scale(0.1 -0.1)">
       <defs>
        <path id="DejaVuSans-2212" d="M 678 2272 
L 4684 2272 
L 4684 1741 
L 678 1741 
L 678 2272 
z
" transform="scale(0.015625)"/>
        <path id="DejaVuSans-2e" d="M 684 794 
L 1344 794 
L 1344 0 
L 684 0 
L 684 794 
z
" transform="scale(0.015625)"/>
       </defs>
       <use xlink:href="#DejaVuSans-2212"/>
       <use xlink:href="#DejaVuSans-30" x="83.789062"/>
       <use xlink:href="#DejaVuSans-2e" x="147.412109"/>
       <use xlink:href="#DejaVuSans-32" x="179.199219"/>
      </g>
     </g>
    </g>
    <g id="ytick_2">
     <g id="line2d_17">
      <path d="M 57.6 276.951791 
L 414.72 276.951791 
" clip-path="url(#pf8e5576366)" style="fill: none; stroke: #b0b0b0; stroke-width: 0.8; stroke-linecap: square"/>
     </g>
     <g id="line2d_18">
      <g>
       <use xlink:href="#me2e8e9e8fc" x="57.6" y="276.951791" style="stroke: #000000; stroke-width: 0.8"/>
      </g>
     </g>
     <g id="text_10">
      <!-- 0.0 -->
      <g transform="translate(34.696875 280.75101)scale(0.1 -0.1)">
       <use xlink:href="#DejaVuSans-30"/>
       <use xlink:href="#DejaVuSans-2e" x="63.623047"/>
       <use xlink:href="#DejaVuSans-30" x="95.410156"/>
      </g>
     </g>
    </g>
    <g id="ytick_3">
     <g id="line2d_19">
      <path d="M 57.6 247.167286 
L 414.72 247.167286 
" clip-path="url(#pf8e5576366)" style="fill: none; stroke: #b0b0b0; stroke-width: 0.8; stroke-linecap: square"/>
     </g>
     <g id="line2d_20">
      <g>
       <use xlink:href="#me2e8e9e8fc" x="57.6" y="247.167286" style="stroke: #000000; stroke-width: 0.8"/>
      </g>
     </g>
     <g id="text_11">
      <!-- 0.2 -->
      <g transform="translate(34.696875 250.966505)scale(0.1 -0.1)">
       <use xlink:href="#DejaVuSans-30"/>
       <use xlink:href="#DejaVuSans-2e" x="63.623047"/>
       <use xlink:href="#DejaVuSans-32" x="95.410156"/>
      </g>
     </g>
    </g>
    <g id="ytick_4">
     <g id="line2d_21">
      <path d="M 57.6 217.38278 
L 414.72 217.38278 
" clip-path="url(#pf8e5576366)" style="fill: none; stroke: #b0b0b0; stroke-width: 0.8; stroke-linecap: square"/>
     </g>
     <g id="line2d_22">
      <g>
       <use xlink:href="#me2e8e9e8fc" x="57.6" y="217.38278" style="stroke: #000000; stroke-width: 0.8"/>
      </g>
     </g>
     <g id="text_12">
      <!-- 0.4 -->
      <g transform="translate(34.696875 221.181999)scale(0.1 -0.1)">
       <defs>
        <path id="DejaVuSans-34" d="M 2419 4116 
L 825 1625 
L 2419 1625 
L 2419 4116 
z
M 2253 4666 
L 3047 4666 
L 3047 1625 
L 3713 1625 
L 3713 1100 
L 3047 1100 
L 3047 0 
L 2419 0 
L 2419 1100 
L 313 1100 
L 313 1709 
L 2253 4666 
z
" transform="scale(0.015625)"/>
       </defs>
       <use xlink:href="#DejaVuSans-30"/>
       <use xlink:href="#DejaVuSans-2e" x="63.623047"/>
       <use xlink:href="#DejaVuSans-34" x="95.410156"/>
      </g>
     </g>
    </g>
    <g id="ytick_5">
     <g id="line2d_23">
      <path d="M 57.6 187.598275 
L 414.72 187.598275 
" clip-path="url(#pf8e5576366)" style="fill: none; stroke: #b0b0b0; stroke-width: 0.8; stroke-linecap: square"/>
     </g>
     <g id="line2d_24">
      <g>
       <use xlink:href="#me2e8e9e8fc" x="57.6" y="187.598275" style="stroke: #000000; stroke-width: 0.8"/>
      </g>
     </g>
     <g id="text_13">
      <!-- 0.6 -->
      <g transform="translate(34.696875 191.397494)scale(0.1 -0.1)">
       <defs>
        <path id="DejaVuSans-36" d="M 2113 2584 
Q 1688 2584 1439 2293 
Q 1191 2003 1191 1497 
Q 1191 994 1439 701 
Q 1688 409 2113 409 
Q 2538 409 2786 701 
Q 3034 994 3034 1497 
Q 3034 2003 2786 2293 
Q 2538 2584 2113 2584 
z
M 3366 4563 
L 3366 3988 
Q 3128 4100 2886 4159 
Q 2644 4219 2406 4219 
Q 1781 4219 1451 3797 
Q 1122 3375 1075 2522 
Q 1259 2794 1537 2939 
Q 1816 3084 2150 3084 
Q 2853 3084 3261 2657 
Q 3669 2231 3669 1497 
Q 3669 778 3244 343 
Q 2819 -91 2113 -91 
Q 1303 -91 875 529 
Q 447 1150 447 2328 
Q 447 3434 972 4092 
Q 1497 4750 2381 4750 
Q 2619 4750 2861 4703 
Q 3103 4656 3366 4563 
z
" transform="scale(0.015625)"/>
       </defs>
       <use xlink:href="#DejaVuSans-30"/>
       <use xlink:href="#DejaVuSans-2e" x="63.623047"/>
       <use xlink:href="#DejaVuSans-36" x="95.410156"/>
      </g>
     </g>
    </g>
    <g id="ytick_6">
     <g id="line2d_25">
      <path d="M 57.6 157.813769 
L 414.72 157.813769 
" clip-path="url(#pf8e5576366)" style="fill: none; stroke: #b0b0b0; stroke-width: 0.8; stroke-linecap: square"/>
     </g>
     <g id="line2d_26">
      <g>
       <use xlink:href="#me2e8e9e8fc" x="57.6" y="157.813769" style="stroke: #000000; stroke-width: 0.8"/>
      </g>
     </g>
     <g id="text_14">
      <!-- 0.8 -->
      <g transform="translate(34.696875 161.612988)scale(0.1 -0.1)">
       <defs>
        <path id="DejaVuSans-38" d="M 2034 2216 
Q 1584 2216 1326 1975 
Q 1069 1734 1069 1313 
Q 1069 891 1326 650 
Q 1584 409 2034 409 
Q 2484 409 2743 651 
Q 3003 894 3003 1313 
Q 3003 1734 2745 1975 
Q 2488 2216 2034 2216 
z
M 1403 2484 
Q 997 2584 770 2862 
Q 544 3141 544 3541 
Q 544 4100 942 4425 
Q 1341 4750 2034 4750 
Q 2731 4750 3128 4425 
Q 3525 4100 3525 3541 
Q 3525 3141 3298 2862 
Q 3072 2584 2669 2484 
Q 3125 2378 3379 2068 
Q 3634 1759 3634 1313 
Q 3634 634 3220 271 
Q 2806 -91 2034 -91 
Q 1263 -91 848 271 
Q 434 634 434 1313 
Q 434 1759 690 2068 
Q 947 2378 1403 2484 
z
M 1172 3481 
Q 1172 3119 1398 2916 
Q 1625 2713 2034 2713 
Q 2441 2713 2670 2916 
Q 2900 3119 2900 3481 
Q 2900 3844 2670 4047 
Q 2441 4250 2034 4250 
Q 1625 4250 1398 4047 
Q 1172 3844 1172 3481 
z
" transform="scale(0.015625)"/>
       </defs>
       <use xlink:href="#DejaVuSans-30"/>
       <use xlink:href="#DejaVuSans-2e" x="63.623047"/>
       <use xlink:href="#DejaVuSans-38" x="95.410156"/>
      </g>
     </g>
    </g>
    <g id="ytick_7">
     <g id="line2d_27">
      <path d="M 57.6 128.029264 
L 414.72 128.029264 
" clip-path="url(#pf8e5576366)" style="fill: none; stroke: #b0b0b0; stroke-width: 0.8; stroke-linecap: square"/>
     </g>
     <g id="line2d_28">
      <g>
       <use xlink:href="#me2e8e9e8fc" x="57.6" y="128.029264" style="stroke: #000000; stroke-width: 0.8"/>
      </g>
     </g>
     <g id="text_15">
      <!-- 1.0 -->
      <g transform="translate(34.696875 131.828483)scale(0.1 -0.1)">
       <use xlink:href="#DejaVuSans-31"/>
       <use xlink:href="#DejaVuSans-2e" x="63.623047"/>
       <use xlink:href="#DejaVuSans-30" x="95.410156"/>
      </g>
     </g>
    </g>
    <g id="ytick_8">
     <g id="line2d_29">
      <path d="M 57.6 98.244758 
L 414.72 98.244758 
" clip-path="url(#pf8e5576366)" style="fill: none; stroke: #b0b0b0; stroke-width: 0.8; stroke-linecap: square"/>
     </g>
     <g id="line2d_30">
      <g>
       <use xlink:href="#me2e8e9e8fc" x="57.6" y="98.244758" style="stroke: #000000; stroke-width: 0.8"/>
      </g>
     </g>
     <g id="text_16">
      <!-- 1.2 -->
      <g transform="translate(34.696875 102.043977)scale(0.1 -0.1)">
       <use xlink:href="#DejaVuSans-31"/>
       <use xlink:href="#DejaVuSans-2e" x="63.623047"/>
       <use xlink:href="#DejaVuSans-32" x="95.410156"/>
      </g>
     </g>
    </g>
    <g id="ytick_9">
     <g id="line2d_31">
      <path d="M 57.6 68.460253 
L 414.72 68.460253 
" clip-path="url(#pf8e5576366)" style="fill: none; stroke: #b0b0b0; stroke-width: 0.8; stroke-linecap: square"/>
     </g>
     <g id="line2d_32">
      <g>
       <use xlink:href="#me2e8e9e8fc" x="57.6" y="68.460253" style="stroke: #000000; stroke-width: 0.8"/>
      </g>
     </g>
     <g id="text_17">
      <!-- 1.4 -->
      <g transform="translate(34.696875 72.259472)scale(0.1 -0.1)">
       <use xlink:href="#DejaVuSans-31"/>
       <use xlink:href="#DejaVuSans-2e" x="63.623047"/>
       <use xlink:href="#DejaVuSans-34" x="95.410156"/>
      </g>
     </g>
    </g>
    <g id="text_18">
     <!-- l -->
     <g transform="translate(20.2375 175.917062)rotate(-90)scale(0.1 -0.1)">
      <defs>
       <path id="DejaVuSans-6c" d="M 603 4863 
L 1178 4863 
L 1178 0 
L 603 0 
L 603 4863 
z
" transform="scale(0.015625)"/>
      </defs>
      <use xlink:href="#DejaVuSans-6c"/>
     </g>
    </g>
   </g>
   <g id="line2d_33">
    <path d="M 73.832727 276.951791 
L 73.90848 277.098578 
L 74.049164 278.029239 
L 75.055593 286.793969 
L 75.661615 289.789876 
L 76.278458 291.781082 
L 76.906124 293.094066 
L 77.566255 293.976098 
L 78.291316 294.574885 
L 79.135418 294.979881 
L 80.228422 295.249943 
L 81.851695 295.410827 
L 85.130705 295.480166 
L 141.025396 295.433956 
L 141.5232 295.290117 
L 142.107578 295.052428 
L 142.746065 294.688535 
L 143.18976 294.420687 
L 143.849891 293.992087 
L 144.326051 293.67031 
L 144.813033 293.334257 
L 145.45152 292.878888 
L 145.960145 292.518656 
L 146.576989 292.077891 
L 147.085615 291.723686 
L 147.680815 291.310518 
L 148.18944 290.968928 
L 148.78464 290.570245 
L 149.271622 290.253565 
L 149.866822 289.86568 
L 150.375447 289.543456 
L 150.970647 289.166597 
L 151.457629 288.8687 
L 152.031185 288.519498 
L 152.539811 288.222342 
L 153.091724 287.903636 
L 153.578705 287.636917 
L 154.130618 287.34182 
L 154.6176 287.097496 
L 155.169513 286.826053 
L 155.656495 286.60081 
L 156.186764 286.359275 
L 156.673745 286.151147 
L 157.204015 285.926232 
L 157.669353 285.738558 
L 158.199622 285.523576 
L 158.66496 285.342545 
L 159.195229 285.132705 
L 159.660567 284.955211 
L 160.190836 284.748883 
L 160.656175 284.574217 
L 161.186444 284.371836 
L 161.651782 284.201678 
L 162.182051 284.005221 
L 162.647389 283.840802 
L 163.177658 283.651429 
L 163.642996 283.493389 
L 164.151622 283.318362 
L 164.61696 283.166312 
L 165.125585 282.997864 
L 165.590924 282.851882 
L 166.099549 282.690255 
L 166.564887 282.551262 
L 167.073513 282.398902 
L 167.538851 282.270612 
L 168.025833 282.13907 
L 168.491171 282.027767 
L 168.978153 281.915582 
L 169.443491 281.820974 
L 169.930473 281.723112 
L 170.395811 281.6405 
L 170.882793 281.553152 
L 171.348131 281.477481 
L 171.835113 281.39369 
L 172.278807 281.320615 
L 172.765789 281.232331 
L 173.209484 281.154926 
L 173.696465 281.062391 
L 174.14016 280.982159 
L 174.627142 280.888092 
L 175.070836 280.807916 
L 175.557818 280.715065 
L 176.023156 280.632534 
L 176.510138 280.541888 
L 176.975476 280.461399 
L 177.462458 280.37204 
L 177.906153 280.296291 
L 178.393135 280.208208 
L 178.858473 280.130545 
L 179.345455 280.045802 
L 179.810793 279.973138 
L 180.297775 279.896671 
L 180.763113 279.834869 
L 181.228451 279.773571 
L 181.693789 279.723654 
L 182.159127 279.674565 
L 182.624465 279.635981 
L 183.089804 279.596433 
L 183.555142 279.565693 
L 184.02048 279.530909 
L 184.485818 279.500001 
L 184.9728 279.458683 
L 185.416495 279.422828 
L 185.903476 279.374906 
L 186.347171 279.33386 
L 186.834153 279.281331 
L 187.299491 279.234997 
L 187.786473 279.180038 
L 188.251811 279.132236 
L 188.738793 279.076507 
L 189.204131 279.028503 
L 189.691113 278.972955 
L 189.907549 278.898054 
L 190.372887 278.659262 
L 190.946444 278.411317 
L 191.411782 278.241188 
L 191.920407 278.090927 
L 192.385745 277.971204 
L 192.872727 277.870953 
L 193.338065 277.786407 
L 193.825047 277.719084 
L 194.290385 277.663181 
L 194.777367 277.622238 
L 195.242705 277.587702 
L 195.708044 277.566247 
L 196.173382 277.544675 
L 196.63872 277.53169 
L 197.104058 277.516914 
L 197.569396 277.510638 
L 198.034735 277.500084 
L 198.500073 277.495036 
L 198.965411 277.485091 
L 199.430749 277.480337 
L 199.896087 277.470327 
L 200.361425 277.465179 
L 200.826764 277.453775 
L 201.292102 277.4472 
L 201.75744 277.434196 
L 202.222778 277.425642 
L 202.688116 277.411009 
L 203.153455 277.401268 
L 203.618793 277.385876 
L 204.084131 277.375666 
L 204.549469 277.359834 
L 205.014807 277.348879 
L 205.480145 277.332357 
L 205.945484 277.320872 
L 206.410822 277.304044 
L 206.87616 277.292834 
L 207.341498 277.277016 
L 207.806836 277.267823 
L 208.272175 277.255028 
L 208.737513 277.249633 
L 209.202851 277.241147 
L 209.668189 277.239658 
L 210.133527 277.234106 
L 210.598865 277.235805 
L 211.04256 277.237076 
L 211.529542 277.2532 
L 211.973236 277.272275 
L 212.460218 277.307518 
L 212.903913 277.339232 
L 213.369251 277.378473 
L 213.834589 277.409129 
L 214.299927 277.439102 
L 214.786909 277.457564 
L 215.252247 277.473741 
L 215.717585 277.479698 
L 216.182924 277.487868 
L 216.648262 277.489246 
L 217.1136 277.495322 
L 217.578938 277.495608 
L 218.044276 277.500191 
L 218.509615 277.49762 
L 218.974953 277.497774 
L 219.440291 277.489754 
L 219.905629 277.484407 
L 220.370967 277.472589 
L 220.836305 277.466816 
L 221.301644 277.458292 
L 221.766982 277.458787 
L 222.23232 277.45805 
L 222.697658 277.466189 
L 223.162996 277.471472 
L 223.628335 277.483043 
L 224.093673 277.488805 
L 224.559011 277.498127 
L 225.024349 277.49954 
L 225.489687 277.503251 
L 225.955025 277.498608 
L 226.420364 277.496469 
L 226.885702 277.486591 
L 227.35104 277.479997 
L 227.816378 277.466444 
L 228.281716 277.456852 
L 228.747055 277.440891 
L 229.212393 277.429435 
L 229.677731 277.412201 
L 230.143069 277.400153 
L 230.608407 277.383123 
L 231.073745 277.372145 
L 231.539084 277.35704 
L 232.004422 277.348729 
L 232.46976 277.336819 
L 232.935098 277.331944 
L 233.400436 277.323395 
L 233.865775 277.321515 
L 234.331113 277.315356 
L 234.796451 277.31512 
L 235.261789 277.309807 
L 235.727127 277.309666 
L 236.192465 277.303804 
L 236.657804 277.302626 
L 237.123142 277.295407 
L 237.58848 277.292715 
L 238.053818 277.283964 
L 238.519156 277.279833 
L 238.984495 277.269819 
L 239.449833 277.264658 
L 239.915171 277.253891 
L 240.380509 277.248274 
L 240.845847 277.237363 
L 241.311185 277.231911 
L 241.776524 277.22146 
L 242.241862 277.216731 
L 242.7072 277.207218 
L 243.172538 277.20358 
L 243.637876 277.195239 
L 244.103215 277.192781 
L 244.568553 277.185553 
L 245.033891 277.184081 
L 245.499229 277.177662 
L 245.964567 277.176796 
L 246.429905 277.170769 
L 246.895244 277.170092 
L 247.360582 277.164072 
L 247.82592 277.163254 
L 248.291258 277.156986 
L 248.756596 277.155854 
L 249.221935 277.149246 
L 249.687273 277.147784 
L 250.152611 277.140889 
L 250.617949 277.139206 
L 251.083287 277.132173 
L 251.548625 277.130447 
L 252.013964 277.123469 
L 252.479302 277.121894 
L 252.94464 277.115155 
L 253.409978 277.113892 
L 253.875316 277.107523 
L 254.340655 277.106666 
L 254.805993 277.100717 
L 255.271331 277.100275 
L 255.736669 277.094716 
L 256.202007 277.094624 
L 256.667345 277.089362 
L 257.132684 277.089508 
L 257.598022 277.084423 
L 258.06336 277.084687 
L 258.528698 277.079666 
L 258.994036 277.079951 
L 259.459375 277.074918 
L 259.924713 277.075169 
L 260.390051 277.070093 
L 260.855389 277.070302 
L 261.320727 277.065195 
L 261.786065 277.065391 
L 262.251404 277.060295 
L 262.716742 277.060531 
L 263.18208 277.055502 
L 263.647418 277.055833 
L 264.112756 277.050924 
L 264.578095 277.051394 
L 265.043433 277.046641 
L 265.508771 277.047275 
L 265.974109 277.042687 
L 266.439447 277.043483 
L 266.904785 277.039049 
L 267.370124 277.039986 
L 267.835462 277.035675 
L 268.3008 277.036718 
L 268.766138 277.032495 
L 269.231476 277.033607 
L 269.696815 277.029437 
L 270.162153 277.030589 
L 270.627491 277.026448 
L 271.092829 277.027623 
L 271.558167 277.023502 
L 272.023505 277.024696 
L 272.488844 277.020596 
L 272.954182 277.021818 
L 273.41952 277.017752 
L 273.884858 277.019014 
L 274.350196 277.014997 
L 274.815535 277.016316 
L 275.280873 277.012362 
L 275.746211 277.01375 
L 276.211549 277.009868 
L 276.676887 277.011329 
L 277.142225 277.007521 
L 277.607564 277.009054 
L 278.072902 277.005315 
L 278.53824 277.006912 
L 279.003578 277.003231 
L 279.468916 277.004881 
L 279.934255 277.001247 
L 280.399593 277.002938 
L 280.864931 276.99934 
L 281.330269 277.001063 
L 281.795607 276.997493 
L 282.260945 276.999242 
L 282.726284 276.995697 
L 283.191622 276.99747 
L 283.65696 276.99395 
L 284.122298 276.99575 
L 284.587636 276.992257 
L 285.052975 276.994086 
L 285.518313 276.990625 
L 285.983651 276.992487 
L 286.448989 276.989061 
L 286.914327 276.99096 
L 287.379665 276.98757 
L 287.845004 276.989506 
L 288.310342 276.986153 
L 288.77568 276.988124 
L 289.241018 276.984805 
L 289.706356 276.986809 
L 290.171695 276.983521 
L 290.637033 276.985554 
L 291.102371 276.982293 
L 291.567709 276.98435 
L 292.033047 276.981111 
L 292.498385 276.98319 
L 292.963724 276.979972 
L 293.429062 276.98207 
L 293.8944 276.97887 
L 294.359738 276.980987 
L 294.825076 276.977805 
L 295.290415 276.97994 
L 295.755753 276.976778 
L 296.221091 276.978932 
L 296.686429 276.975789 
L 297.151767 276.977963 
L 297.617105 276.97484 
L 298.082444 276.977034 
L 298.547782 276.973931 
L 299.01312 276.976145 
L 299.478458 276.973062 
L 299.943796 276.975296 
L 300.409135 276.972231 
L 300.874473 276.974483 
L 301.339811 276.971436 
L 301.805149 276.973703 
L 302.270487 276.970672 
L 302.735825 276.972955 
L 303.201164 276.969937 
L 303.666502 276.972234 
L 304.13184 276.96923 
L 304.597178 276.971539 
L 305.062516 276.968547 
L 305.527855 276.970869 
L 305.993193 276.967889 
L 306.458531 276.970223 
L 306.923869 276.967255 
L 307.389207 276.969601 
L 307.854545 276.966645 
L 308.319884 276.969002 
L 308.785222 276.966058 
L 309.25056 276.968428 
L 309.715898 276.965495 
L 310.181236 276.967876 
L 310.646575 276.964955 
L 311.111913 276.967347 
L 311.577251 276.964437 
L 312.042589 276.966839 
L 312.507927 276.963939 
L 312.973265 276.966351 
L 313.438604 276.96346 
L 313.903942 276.965881 
L 314.36928 276.962999 
L 314.834618 276.965429 
L 315.299956 276.962555 
L 315.765295 276.964993 
L 316.230633 276.962127 
L 316.695971 276.964573 
L 317.161309 276.961715 
L 317.626647 276.964168 
L 318.091985 276.961318 
L 318.557324 276.963778 
L 319.022662 276.960935 
L 319.488 276.963403 
L 319.953338 276.960567 
L 320.418676 276.963042 
L 320.884015 276.960213 
L 321.349353 276.962695 
L 321.814691 276.959872 
L 322.280029 276.962361 
L 322.745367 276.959544 
L 323.210705 276.962039 
L 323.676044 276.959229 
L 324.141382 276.96173 
L 324.60672 276.958926 
L 325.072058 276.961432 
L 325.537396 276.958633 
L 326.002735 276.961145 
L 326.468073 276.958351 
L 326.933411 276.960868 
L 327.398749 276.958079 
L 327.864087 276.960601 
L 328.329425 276.957817 
L 328.794764 276.960344 
L 329.260102 276.957565 
L 329.72544 276.960096 
L 330.190778 276.957321 
L 330.656116 276.959857 
L 331.121455 276.957087 
L 331.586793 276.959626 
L 332.052131 276.956861 
L 332.517469 276.959405 
L 332.982807 276.956643 
L 333.448145 276.959191 
L 333.913484 276.956433 
L 334.378822 276.958985 
L 334.84416 276.956231 
L 335.309498 276.958786 
L 335.774836 276.956036 
L 336.240175 276.958595 
L 336.705513 276.955848 
L 337.170851 276.95841 
L 337.636189 276.955667 
L 338.101527 276.958232 
L 338.566865 276.955492 
L 339.032204 276.95806 
L 339.497542 276.955323 
L 339.96288 276.957895 
L 340.428218 276.95516 
L 340.893556 276.957735 
L 341.358895 276.955003 
L 341.824233 276.95758 
L 342.289571 276.954851 
L 342.754909 276.957431 
L 343.220247 276.954705 
L 343.685585 276.957288 
L 344.150924 276.954564 
L 344.616262 276.957149 
L 345.0816 276.954428 
L 345.546938 276.957015 
L 346.012276 276.954296 
L 346.477615 276.956886 
L 346.942953 276.95417 
L 347.408291 276.956762 
L 347.873629 276.954047 
L 348.338967 276.956642 
L 348.804305 276.953929 
L 349.269644 276.956526 
L 349.734982 276.953815 
L 350.20032 276.956413 
L 350.665658 276.953705 
L 351.130996 276.956305 
L 351.596335 276.953598 
L 352.061673 276.956201 
L 352.527011 276.953496 
L 352.992349 276.9561 
L 353.457687 276.953396 
L 353.923025 276.956002 
L 354.388364 276.9533 
L 354.853702 276.955908 
L 355.31904 276.953208 
L 355.784378 276.955817 
L 356.249716 276.953118 
L 356.715055 276.955729 
L 357.180393 276.953032 
L 357.645731 276.955644 
L 358.111069 276.952949 
L 358.576407 276.955562 
L 359.041745 276.952868 
L 359.507084 276.955483 
L 359.972422 276.95279 
L 360.43776 276.955406 
L 360.903098 276.952715 
L 361.368436 276.955332 
L 361.833775 276.952642 
L 362.299113 276.95526 
L 362.764451 276.952571 
L 363.229789 276.955191 
L 363.695127 276.952503 
L 364.160465 276.955124 
L 364.625804 276.952438 
L 365.091142 276.95506 
L 365.55648 276.952374 
L 366.021818 276.954997 
L 366.487156 276.952312 
L 366.952495 276.954937 
L 367.417833 276.952253 
L 367.883171 276.954878 
L 368.348509 276.952195 
L 368.813847 276.954821 
L 369.279185 276.95214 
L 369.744524 276.954767 
L 370.209862 276.952086 
L 370.6752 276.954714 
L 371.140538 276.952034 
L 371.605876 276.954663 
L 372.071215 276.951984 
L 372.536553 276.954613 
L 373.001891 276.951935 
L 373.467229 276.954565 
L 373.932567 276.951888 
L 374.397905 276.954519 
L 374.863244 276.951842 
L 375.328582 276.954474 
L 375.79392 276.951798 
L 376.259258 276.954431 
L 376.724596 276.951756 
L 377.189935 276.954389 
L 377.655273 276.951714 
L 378.120611 276.954348 
L 378.585949 276.951674 
L 379.051287 276.954309 
L 379.516625 276.951636 
L 379.981964 276.954271 
L 380.447302 276.951598 
L 380.91264 276.954234 
L 381.377978 276.951562 
L 381.843316 276.954198 
L 382.308655 276.951527 
L 382.773993 276.954164 
L 383.239331 276.951493 
L 383.704669 276.95413 
L 384.170007 276.95146 
L 384.635345 276.954098 
L 385.100684 276.951428 
L 385.566022 276.954067 
L 386.03136 276.951397 
L 386.496698 276.954036 
L 386.962036 276.951368 
L 387.427375 276.954007 
L 387.892713 276.951339 
L 388.358051 276.953979 
L 388.823389 276.951311 
L 389.288727 276.953951 
L 389.754065 276.951284 
L 390.219404 276.953924 
L 390.684742 276.951257 
L 391.15008 276.953899 
L 391.615418 276.951232 
L 392.080756 276.953874 
L 392.546095 276.951207 
L 393.011433 276.953849 
L 393.476771 276.951183 
L 393.942109 276.953826 
L 394.407447 276.95116 
L 394.872785 276.953803 
L 395.338124 276.951138 
L 395.803462 276.953781 
L 396.2688 276.951116 
L 396.734138 276.95376 
L 397.199476 276.951095 
L 397.664815 276.953739 
L 398.130153 276.951075 
L 398.487273 276.953721 
L 398.487273 276.953721 
" clip-path="url(#pf8e5576366)" style="fill: none; stroke-dasharray: 5.55,2.4; stroke-dashoffset: 0; stroke: #008000; stroke-width: 1.5"/>
   </g>
   <g id="line2d_34">
    <path d="M 73.832727 53.568 
L 74.406284 53.677386 
L 74.969018 54.055424 
L 75.737367 54.865772 
L 76.873658 56.421523 
L 78.832407 59.535547 
L 83.972771 68.259376 
L 144.639884 171.858839 
L 147.128902 175.450632 
L 149.585455 178.607043 
L 152.020364 181.37962 
L 154.509382 183.878255 
L 157.171549 186.232819 
L 159.9744 188.415278 
L 162.788073 190.326374 
L 165.677498 192.020096 
L 168.729251 193.548861 
L 172.451956 195.152267 
L 176.217949 196.541162 
L 180.016407 197.702288 
L 184.723898 198.887038 
L 189.766865 199.950418 
L 192.136844 200.276151 
L 196.054342 200.554348 
L 206.573149 201.023425 
L 221.420684 201.610673 
L 239.590516 202.348182 
L 253.485731 202.635404 
L 274.631564 202.839736 
L 311.523142 202.950271 
L 398.487273 202.983496 
L 398.487273 202.983496 
" clip-path="url(#pf8e5576366)" style="fill: none; stroke: #0000ff; stroke-width: 1.5; stroke-linecap: square"/>
   </g>
   <g id="patch_3">
    <path d="M 57.6 307.584 
L 57.6 41.472 
" style="fill: none; stroke: #000000; stroke-width: 0.8; stroke-linejoin: miter; stroke-linecap: square"/>
   </g>
   <g id="patch_4">
    <path d="M 414.72 307.584 
L 414.72 41.472 
" style="fill: none; stroke: #000000; stroke-width: 0.8; stroke-linejoin: miter; stroke-linecap: square"/>
   </g>
   <g id="patch_5">
    <path d="M 57.6 307.584 
L 414.72 307.584 
" style="fill: none; stroke: #000000; stroke-width: 0.8; stroke-linejoin: miter; stroke-linecap: square"/>
   </g>
   <g id="patch_6">
    <path d="M 57.6 41.472 
L 414.72 41.472 
" style="fill: none; stroke: #000000; stroke-width: 0.8; stroke-linejoin: miter; stroke-linecap: square"/>
   </g>
   <g id="text_19">
    <!-- l vs time -->
    <g transform="translate(210.447187 35.472)scale(0.12 -0.12)">
     <defs>
      <path id="DejaVuSans-76" d="M 191 3500 
L 800 3500 
L 1894 563 
L 2988 3500 
L 3597 3500 
L 2284 0 
L 1503 0 
L 191 3500 
z
" transform="scale(0.015625)"/>
     </defs>
     <use xlink:href="#DejaVuSans-6c"/>
     <use xlink:href="#DejaVuSans-20" x="27.783203"/>
     <use xlink:href="#DejaVuSans-76" x="59.570312"/>
     <use xlink:href="#DejaVuSans-73" x="118.75"/>
     <use xlink:href="#DejaVuSans-20" x="170.849609"/>
     <use xlink:href="#DejaVuSans-74" x="202.636719"/>
     <use xlink:href="#DejaVuSans-69" x="241.845703"/>
     <use xlink:href="#DejaVuSans-6d" x="269.628906"/>
     <use xlink:href="#DejaVuSans-65" x="367.041016"/>
    </g>
   </g>
   <g id="legend_1">
    <g id="patch_7">
     <path d="M 322.254375 79.106375 
L 407.72 79.106375 
Q 409.72 79.106375 409.72 77.106375 
L 409.72 48.472 
Q 409.72 46.472 407.72 46.472 
L 322.254375 46.472 
Q 320.254375 46.472 320.254375 48.472 
L 320.254375 77.106375 
Q 320.254375 79.106375 322.254375 79.106375 
z
" style="fill: #ffffff; opacity: 0.8; stroke: #cccccc; stroke-linejoin: miter"/>
    </g>
    <g id="line2d_35">
     <path d="M 324.254375 54.570438 
L 334.254375 54.570438 
L 344.254375 54.570438 
" style="fill: none; stroke-dasharray: 5.55,2.4; stroke-dashoffset: 0; stroke: #008000; stroke-width: 1.5"/>
    </g>
    <g id="text_20">
     <!-- l_dot (m/s) -->
     <g transform="translate(352.254375 58.070438)scale(0.1 -0.1)">
      <defs>
       <path id="DejaVuSans-5f" d="M 3263 -1063 
L 3263 -1509 
L -63 -1509 
L -63 -1063 
L 3263 -1063 
z
" transform="scale(0.015625)"/>
       <path id="DejaVuSans-64" d="M 2906 2969 
L 2906 4863 
L 3481 4863 
L 3481 0 
L 2906 0 
L 2906 525 
Q 2725 213 2448 61 
Q 2172 -91 1784 -91 
Q 1150 -91 751 415 
Q 353 922 353 1747 
Q 353 2572 751 3078 
Q 1150 3584 1784 3584 
Q 2172 3584 2448 3432 
Q 2725 3281 2906 2969 
z
M 947 1747 
Q 947 1113 1208 752 
Q 1469 391 1925 391 
Q 2381 391 2643 752 
Q 2906 1113 2906 1747 
Q 2906 2381 2643 2742 
Q 2381 3103 1925 3103 
Q 1469 3103 1208 2742 
Q 947 2381 947 1747 
z
" transform="scale(0.015625)"/>
       <path id="DejaVuSans-6f" d="M 1959 3097 
Q 1497 3097 1228 2736 
Q 959 2375 959 1747 
Q 959 1119 1226 758 
Q 1494 397 1959 397 
Q 2419 397 2687 759 
Q 2956 1122 2956 1747 
Q 2956 2369 2687 2733 
Q 2419 3097 1959 3097 
z
M 1959 3584 
Q 2709 3584 3137 3096 
Q 3566 2609 3566 1747 
Q 3566 888 3137 398 
Q 2709 -91 1959 -91 
Q 1206 -91 779 398 
Q 353 888 353 1747 
Q 353 2609 779 3096 
Q 1206 3584 1959 3584 
z
" transform="scale(0.015625)"/>
       <path id="DejaVuSans-2f" d="M 1625 4666 
L 2156 4666 
L 531 -594 
L 0 -594 
L 1625 4666 
z
" transform="scale(0.015625)"/>
      </defs>
      <use xlink:href="#DejaVuSans-6c"/>
      <use xlink:href="#DejaVuSans-5f" x="27.783203"/>
      <use xlink:href="#DejaVuSans-64" x="77.783203"/>
      <use xlink:href="#DejaVuSans-6f" x="141.259766"/>
      <use xlink:href="#DejaVuSans-74" x="202.441406"/>
      <use xlink:href="#DejaVuSans-20" x="241.650391"/>
      <use xlink:href="#DejaVuSans-28" x="273.4375"/>
      <use xlink:href="#DejaVuSans-6d" x="312.451172"/>
      <use xlink:href="#DejaVuSans-2f" x="409.863281"/>
      <use xlink:href="#DejaVuSans-73" x="443.554688"/>
      <use xlink:href="#DejaVuSans-29" x="495.654297"/>
     </g>
    </g>
    <g id="line2d_36">
     <path d="M 324.254375 69.526688 
L 334.254375 69.526688 
L 344.254375 69.526688 
" style="fill: none; stroke: #0000ff; stroke-width: 1.5; stroke-linecap: square"/>
    </g>
    <g id="text_21">
     <!-- l (m) -->
     <g transform="translate(352.254375 73.026688)scale(0.1 -0.1)">
      <use xlink:href="#DejaVuSans-6c"/>
      <use xlink:href="#DejaVuSans-20" x="27.783203"/>
      <use xlink:href="#DejaVuSans-28" x="59.570312"/>
      <use xlink:href="#DejaVuSans-6d" x="98.583984"/>
      <use xlink:href="#DejaVuSans-29" x="195.996094"/>
     </g>
    </g>
   </g>
  </g>
 </g>
 <defs>
  <clipPath id="pf8e5576366">
   <rect x="57.6" y="41.472" width="357.12" height="266.112"/>
  </clipPath>
 </defs>
</svg>
