<?xml version="1.0" encoding="utf-8" standalone="no"?>
<!DOCTYPE svg PUBLIC "-//W3C//DTD SVG 1.1//EN"
  "http://www.w3.org/Graphics/SVG/1.1/DTD/svg11.dtd">
<svg xmlns:xlink="http://www.w3.org/1999/xlink" width="460.8pt" height="345.6pt" viewBox="0 0 460.8 345.6" xmlns="http://www.w3.org/2000/svg" version="1.1">
 <metadata>
  <rdf:RDF xmlns:dc="http://purl.org/dc/elements/1.1/" xmlns:cc="http://creativecommons.org/ns#" xmlns:rdf="http://www.w3.org/1999/02/22-rdf-syntax-ns#">
   <cc:Work>
    <dc:type rdf:resource="http://purl.org/dc/dcmitype/StillImage"/>
    <dc:date>2023-07-21T15:02:02.550416</dc:date>
    <dc:format>image/svg+xml</dc:format>
    <dc:creator>
     <cc:Agent>
      <dc:title>Matplotlib v3.5.1, https://matplotlib.org/</dc:title>
     </cc:Agent>
    </dc:creator>
   </cc:Work>
  </rdf:RDF>
 </metadata>
 <defs>
  <style type="text/css">*{stroke-linejoin: round; stroke-linecap: butt}</style>
 </defs>
 <g id="figure_1">
  <g id="patch_1">
   <path d="M 0 345.6 
L 460.8 345.6 
L 460.8 0 
L 0 0 
L 0 345.6 
z
" style="fill: none"/>
  </g>
  <g id="axes_1">
   <g id="patch_2">
    <path d="M 57.6 307.584 
L 414.72 307.584 
L 414.72 41.472 
L 57.6 41.472 
L 57.6 307.584 
z
" style="fill: none"/>
   </g>
   <g id="matplotlib.axis_1">
    <g id="xtick_1">
     <g id="line2d_1">
      <path d="M 73.832727 307.584 
L 73.832727 41.472 
" clip-path="url(#p7c6d559e1e)" style="fill: none; stroke: #b0b0b0; stroke-width: 0.8; stroke-linecap: square"/>
     </g>
     <g id="line2d_2">
      <defs>
       <path id="m62d0c1e8fc" d="M 0 0 
L 0 3.5 
" style="stroke: #000000; stroke-width: 0.8"/>
      </defs>
      <g>
       <use xlink:href="#m62d0c1e8fc" x="73.832727" y="307.584" style="stroke: #000000; stroke-width: 0.8"/>
      </g>
     </g>
     <g id="text_1">
      <!-- 0.0 -->
      <g transform="translate(65.881165 322.182437)scale(0.1 -0.1)">
       <defs>
        <path id="DejaVuSans-30" d="M 2034 4250 
Q 1547 4250 1301 3770 
Q 1056 3291 1056 2328 
Q 1056 1369 1301 889 
Q 1547 409 2034 409 
Q 2525 409 2770 889 
Q 3016 1369 3016 2328 
Q 3016 3291 2770 3770 
Q 2525 4250 2034 4250 
z
M 2034 4750 
Q 2819 4750 3233 4129 
Q 3647 3509 3647 2328 
Q 3647 1150 3233 529 
Q 2819 -91 2034 -91 
Q 1250 -91 836 529 
Q 422 1150 422 2328 
Q 422 3509 836 4129 
Q 1250 4750 2034 4750 
z
" transform="scale(0.015625)"/>
        <path id="DejaVuSans-2e" d="M 684 794 
L 1344 794 
L 1344 0 
L 684 0 
L 684 794 
z
" transform="scale(0.015625)"/>
       </defs>
       <use xlink:href="#DejaVuSans-30"/>
       <use xlink:href="#DejaVuSans-2e" x="63.623047"/>
       <use xlink:href="#DejaVuSans-30" x="95.410156"/>
      </g>
     </g>
    </g>
    <g id="xtick_2">
     <g id="line2d_3">
      <path d="M 114.414545 307.584 
L 114.414545 41.472 
" clip-path="url(#p7c6d559e1e)" style="fill: none; stroke: #b0b0b0; stroke-width: 0.8; stroke-linecap: square"/>
     </g>
     <g id="line2d_4">
      <g>
       <use xlink:href="#m62d0c1e8fc" x="114.414545" y="307.584" style="stroke: #000000; stroke-width: 0.8"/>
      </g>
     </g>
     <g id="text_2">
      <!-- 2.5 -->
      <g transform="translate(106.462983 322.182437)scale(0.1 -0.1)">
       <defs>
        <path id="DejaVuSans-32" d="M 1228 531 
L 3431 531 
L 3431 0 
L 469 0 
L 469 531 
Q 828 903 1448 1529 
Q 2069 2156 2228 2338 
Q 2531 2678 2651 2914 
Q 2772 3150 2772 3378 
Q 2772 3750 2511 3984 
Q 2250 4219 1831 4219 
Q 1534 4219 1204 4116 
Q 875 4013 500 3803 
L 500 4441 
Q 881 4594 1212 4672 
Q 1544 4750 1819 4750 
Q 2544 4750 2975 4387 
Q 3406 4025 3406 3419 
Q 3406 3131 3298 2873 
Q 3191 2616 2906 2266 
Q 2828 2175 2409 1742 
Q 1991 1309 1228 531 
z
" transform="scale(0.015625)"/>
        <path id="DejaVuSans-35" d="M 691 4666 
L 3169 4666 
L 3169 4134 
L 1269 4134 
L 1269 2991 
Q 1406 3038 1543 3061 
Q 1681 3084 1819 3084 
Q 2600 3084 3056 2656 
Q 3513 2228 3513 1497 
Q 3513 744 3044 326 
Q 2575 -91 1722 -91 
Q 1428 -91 1123 -41 
Q 819 9 494 109 
L 494 744 
Q 775 591 1075 516 
Q 1375 441 1709 441 
Q 2250 441 2565 725 
Q 2881 1009 2881 1497 
Q 2881 1984 2565 2268 
Q 2250 2553 1709 2553 
Q 1456 2553 1204 2497 
Q 953 2441 691 2322 
L 691 4666 
z
" transform="scale(0.015625)"/>
       </defs>
       <use xlink:href="#DejaVuSans-32"/>
       <use xlink:href="#DejaVuSans-2e" x="63.623047"/>
       <use xlink:href="#DejaVuSans-35" x="95.410156"/>
      </g>
     </g>
    </g>
    <g id="xtick_3">
     <g id="line2d_5">
      <path d="M 154.996364 307.584 
L 154.996364 41.472 
" clip-path="url(#p7c6d559e1e)" style="fill: none; stroke: #b0b0b0; stroke-width: 0.8; stroke-linecap: square"/>
     </g>
     <g id="line2d_6">
      <g>
       <use xlink:href="#m62d0c1e8fc" x="154.996364" y="307.584" style="stroke: #000000; stroke-width: 0.8"/>
      </g>
     </g>
     <g id="text_3">
      <!-- 5.0 -->
      <g transform="translate(147.044801 322.182437)scale(0.1 -0.1)">
       <use xlink:href="#DejaVuSans-35"/>
       <use xlink:href="#DejaVuSans-2e" x="63.623047"/>
       <use xlink:href="#DejaVuSans-30" x="95.410156"/>
      </g>
     </g>
    </g>
    <g id="xtick_4">
     <g id="line2d_7">
      <path d="M 195.578182 307.584 
L 195.578182 41.472 
" clip-path="url(#p7c6d559e1e)" style="fill: none; stroke: #b0b0b0; stroke-width: 0.8; stroke-linecap: square"/>
     </g>
     <g id="line2d_8">
      <g>
       <use xlink:href="#m62d0c1e8fc" x="195.578182" y="307.584" style="stroke: #000000; stroke-width: 0.8"/>
      </g>
     </g>
     <g id="text_4">
      <!-- 7.5 -->
      <g transform="translate(187.626619 322.182437)scale(0.1 -0.1)">
       <defs>
        <path id="DejaVuSans-37" d="M 525 4666 
L 3525 4666 
L 3525 4397 
L 1831 0 
L 1172 0 
L 2766 4134 
L 525 4134 
L 525 4666 
z
" transform="scale(0.015625)"/>
       </defs>
       <use xlink:href="#DejaVuSans-37"/>
       <use xlink:href="#DejaVuSans-2e" x="63.623047"/>
       <use xlink:href="#DejaVuSans-35" x="95.410156"/>
      </g>
     </g>
    </g>
    <g id="xtick_5">
     <g id="line2d_9">
      <path d="M 236.16 307.584 
L 236.16 41.472 
" clip-path="url(#p7c6d559e1e)" style="fill: none; stroke: #b0b0b0; stroke-width: 0.8; stroke-linecap: square"/>
     </g>
     <g id="line2d_10">
      <g>
       <use xlink:href="#m62d0c1e8fc" x="236.16" y="307.584" style="stroke: #000000; stroke-width: 0.8"/>
      </g>
     </g>
     <g id="text_5">
      <!-- 10.0 -->
      <g transform="translate(225.027188 322.182437)scale(0.1 -0.1)">
       <defs>
        <path id="DejaVuSans-31" d="M 794 531 
L 1825 531 
L 1825 4091 
L 703 3866 
L 703 4441 
L 1819 4666 
L 2450 4666 
L 2450 531 
L 3481 531 
L 3481 0 
L 794 0 
L 794 531 
z
" transform="scale(0.015625)"/>
       </defs>
       <use xlink:href="#DejaVuSans-31"/>
       <use xlink:href="#DejaVuSans-30" x="63.623047"/>
       <use xlink:href="#DejaVuSans-2e" x="127.246094"/>
       <use xlink:href="#DejaVuSans-30" x="159.033203"/>
      </g>
     </g>
    </g>
    <g id="xtick_6">
     <g id="line2d_11">
      <path d="M 276.741818 307.584 
L 276.741818 41.472 
" clip-path="url(#p7c6d559e1e)" style="fill: none; stroke: #b0b0b0; stroke-width: 0.8; stroke-linecap: square"/>
     </g>
     <g id="line2d_12">
      <g>
       <use xlink:href="#m62d0c1e8fc" x="276.741818" y="307.584" style="stroke: #000000; stroke-width: 0.8"/>
      </g>
     </g>
     <g id="text_6">
      <!-- 12.5 -->
      <g transform="translate(265.609006 322.182437)scale(0.1 -0.1)">
       <use xlink:href="#DejaVuSans-31"/>
       <use xlink:href="#DejaVuSans-32" x="63.623047"/>
       <use xlink:href="#DejaVuSans-2e" x="127.246094"/>
       <use xlink:href="#DejaVuSans-35" x="159.033203"/>
      </g>
     </g>
    </g>
    <g id="xtick_7">
     <g id="line2d_13">
      <path d="M 317.323636 307.584 
L 317.323636 41.472 
" clip-path="url(#p7c6d559e1e)" style="fill: none; stroke: #b0b0b0; stroke-width: 0.8; stroke-linecap: square"/>
     </g>
     <g id="line2d_14">
      <g>
       <use xlink:href="#m62d0c1e8fc" x="317.323636" y="307.584" style="stroke: #000000; stroke-width: 0.8"/>
      </g>
     </g>
     <g id="text_7">
      <!-- 15.0 -->
      <g transform="translate(306.190824 322.182437)scale(0.1 -0.1)">
       <use xlink:href="#DejaVuSans-31"/>
       <use xlink:href="#DejaVuSans-35" x="63.623047"/>
       <use xlink:href="#DejaVuSans-2e" x="127.246094"/>
       <use xlink:href="#DejaVuSans-30" x="159.033203"/>
      </g>
     </g>
    </g>
    <g id="xtick_8">
     <g id="line2d_15">
      <path d="M 357.905455 307.584 
L 357.905455 41.472 
" clip-path="url(#p7c6d559e1e)" style="fill: none; stroke: #b0b0b0; stroke-width: 0.8; stroke-linecap: square"/>
     </g>
     <g id="line2d_16">
      <g>
       <use xlink:href="#m62d0c1e8fc" x="357.905455" y="307.584" style="stroke: #000000; stroke-width: 0.8"/>
      </g>
     </g>
     <g id="text_8">
      <!-- 17.5 -->
      <g transform="translate(346.772642 322.182437)scale(0.1 -0.1)">
       <use xlink:href="#DejaVuSans-31"/>
       <use xlink:href="#DejaVuSans-37" x="63.623047"/>
       <use xlink:href="#DejaVuSans-2e" x="127.246094"/>
       <use xlink:href="#DejaVuSans-35" x="159.033203"/>
      </g>
     </g>
    </g>
    <g id="xtick_9">
     <g id="line2d_17">
      <path d="M 398.487273 307.584 
L 398.487273 41.472 
" clip-path="url(#p7c6d559e1e)" style="fill: none; stroke: #b0b0b0; stroke-width: 0.8; stroke-linecap: square"/>
     </g>
     <g id="line2d_18">
      <g>
       <use xlink:href="#m62d0c1e8fc" x="398.487273" y="307.584" style="stroke: #000000; stroke-width: 0.8"/>
      </g>
     </g>
     <g id="text_9">
      <!-- 20.0 -->
      <g transform="translate(387.35446 322.182437)scale(0.1 -0.1)">
       <use xlink:href="#DejaVuSans-32"/>
       <use xlink:href="#DejaVuSans-30" x="63.623047"/>
       <use xlink:href="#DejaVuSans-2e" x="127.246094"/>
       <use xlink:href="#DejaVuSans-30" x="159.033203"/>
      </g>
     </g>
    </g>
    <g id="text_10">
     <!-- time (s) -->
     <g transform="translate(216.768594 335.860562)scale(0.1 -0.1)">
      <defs>
       <path id="DejaVuSans-74" d="M 1172 4494 
L 1172 3500 
L 2356 3500 
L 2356 3053 
L 1172 3053 
L 1172 1153 
Q 1172 725 1289 603 
Q 1406 481 1766 481 
L 2356 481 
L 2356 0 
L 1766 0 
Q 1100 0 847 248 
Q 594 497 594 1153 
L 594 3053 
L 172 3053 
L 172 3500 
L 594 3500 
L 594 4494 
L 1172 4494 
z
" transform="scale(0.015625)"/>
       <path id="DejaVuSans-69" d="M 603 3500 
L 1178 3500 
L 1178 0 
L 603 0 
L 603 3500 
z
M 603 4863 
L 1178 4863 
L 1178 4134 
L 603 4134 
L 603 4863 
z
" transform="scale(0.015625)"/>
       <path id="DejaVuSans-6d" d="M 3328 2828 
Q 3544 3216 3844 3400 
Q 4144 3584 4550 3584 
Q 5097 3584 5394 3201 
Q 5691 2819 5691 2113 
L 5691 0 
L 5113 0 
L 5113 2094 
Q 5113 2597 4934 2840 
Q 4756 3084 4391 3084 
Q 3944 3084 3684 2787 
Q 3425 2491 3425 1978 
L 3425 0 
L 2847 0 
L 2847 2094 
Q 2847 2600 2669 2842 
Q 2491 3084 2119 3084 
Q 1678 3084 1418 2786 
Q 1159 2488 1159 1978 
L 1159 0 
L 581 0 
L 581 3500 
L 1159 3500 
L 1159 2956 
Q 1356 3278 1631 3431 
Q 1906 3584 2284 3584 
Q 2666 3584 2933 3390 
Q 3200 3197 3328 2828 
z
" transform="scale(0.015625)"/>
       <path id="DejaVuSans-65" d="M 3597 1894 
L 3597 1613 
L 953 1613 
Q 991 1019 1311 708 
Q 1631 397 2203 397 
Q 2534 397 2845 478 
Q 3156 559 3463 722 
L 3463 178 
Q 3153 47 2828 -22 
Q 2503 -91 2169 -91 
Q 1331 -91 842 396 
Q 353 884 353 1716 
Q 353 2575 817 3079 
Q 1281 3584 2069 3584 
Q 2775 3584 3186 3129 
Q 3597 2675 3597 1894 
z
M 3022 2063 
Q 3016 2534 2758 2815 
Q 2500 3097 2075 3097 
Q 1594 3097 1305 2825 
Q 1016 2553 972 2059 
L 3022 2063 
z
" transform="scale(0.015625)"/>
       <path id="DejaVuSans-20" transform="scale(0.015625)"/>
       <path id="DejaVuSans-28" d="M 1984 4856 
Q 1566 4138 1362 3434 
Q 1159 2731 1159 2009 
Q 1159 1288 1364 580 
Q 1569 -128 1984 -844 
L 1484 -844 
Q 1016 -109 783 600 
Q 550 1309 550 2009 
Q 550 2706 781 3412 
Q 1013 4119 1484 4856 
L 1984 4856 
z
" transform="scale(0.015625)"/>
       <path id="DejaVuSans-73" d="M 2834 3397 
L 2834 2853 
Q 2591 2978 2328 3040 
Q 2066 3103 1784 3103 
Q 1356 3103 1142 2972 
Q 928 2841 928 2578 
Q 928 2378 1081 2264 
Q 1234 2150 1697 2047 
L 1894 2003 
Q 2506 1872 2764 1633 
Q 3022 1394 3022 966 
Q 3022 478 2636 193 
Q 2250 -91 1575 -91 
Q 1294 -91 989 -36 
Q 684 19 347 128 
L 347 722 
Q 666 556 975 473 
Q 1284 391 1588 391 
Q 1994 391 2212 530 
Q 2431 669 2431 922 
Q 2431 1156 2273 1281 
Q 2116 1406 1581 1522 
L 1381 1569 
Q 847 1681 609 1914 
Q 372 2147 372 2553 
Q 372 3047 722 3315 
Q 1072 3584 1716 3584 
Q 2034 3584 2315 3537 
Q 2597 3491 2834 3397 
z
" transform="scale(0.015625)"/>
       <path id="DejaVuSans-29" d="M 513 4856 
L 1013 4856 
Q 1481 4119 1714 3412 
Q 1947 2706 1947 2009 
Q 1947 1309 1714 600 
Q 1481 -109 1013 -844 
L 513 -844 
Q 928 -128 1133 580 
Q 1338 1288 1338 2009 
Q 1338 2731 1133 3434 
Q 928 4138 513 4856 
z
" transform="scale(0.015625)"/>
      </defs>
      <use xlink:href="#DejaVuSans-74"/>
      <use xlink:href="#DejaVuSans-69" x="39.208984"/>
      <use xlink:href="#DejaVuSans-6d" x="66.992188"/>
      <use xlink:href="#DejaVuSans-65" x="164.404297"/>
      <use xlink:href="#DejaVuSans-20" x="225.927734"/>
      <use xlink:href="#DejaVuSans-28" x="257.714844"/>
      <use xlink:href="#DejaVuSans-73" x="296.728516"/>
      <use xlink:href="#DejaVuSans-29" x="348.828125"/>
     </g>
    </g>
   </g>
   <g id="matplotlib.axis_2">
    <g id="ytick_1">
     <g id="line2d_19">
      <path d="M 57.6 302.399997 
L 414.72 302.399997 
" clip-path="url(#p7c6d559e1e)" style="fill: none; stroke: #b0b0b0; stroke-width: 0.8; stroke-linecap: square"/>
     </g>
     <g id="line2d_20">
      <defs>
       <path id="me9bff81b9c" d="M 0 0 
L -3.5 0 
" style="stroke: #000000; stroke-width: 0.8"/>
      </defs>
      <g>
       <use xlink:href="#me9bff81b9c" x="57.6" y="302.399997" style="stroke: #000000; stroke-width: 0.8"/>
      </g>
     </g>
     <g id="text_11">
      <!-- −3 -->
      <g transform="translate(35.857813 306.199216)scale(0.1 -0.1)">
       <defs>
        <path id="DejaVuSans-2212" d="M 678 2272 
L 4684 2272 
L 4684 1741 
L 678 1741 
L 678 2272 
z
" transform="scale(0.015625)"/>
        <path id="DejaVuSans-33" d="M 2597 2516 
Q 3050 2419 3304 2112 
Q 3559 1806 3559 1356 
Q 3559 666 3084 287 
Q 2609 -91 1734 -91 
Q 1441 -91 1130 -33 
Q 819 25 488 141 
L 488 750 
Q 750 597 1062 519 
Q 1375 441 1716 441 
Q 2309 441 2620 675 
Q 2931 909 2931 1356 
Q 2931 1769 2642 2001 
Q 2353 2234 1838 2234 
L 1294 2234 
L 1294 2753 
L 1863 2753 
Q 2328 2753 2575 2939 
Q 2822 3125 2822 3475 
Q 2822 3834 2567 4026 
Q 2313 4219 1838 4219 
Q 1578 4219 1281 4162 
Q 984 4106 628 3988 
L 628 4550 
Q 988 4650 1302 4700 
Q 1616 4750 1894 4750 
Q 2613 4750 3031 4423 
Q 3450 4097 3450 3541 
Q 3450 3153 3228 2886 
Q 3006 2619 2597 2516 
z
" transform="scale(0.015625)"/>
       </defs>
       <use xlink:href="#DejaVuSans-2212"/>
       <use xlink:href="#DejaVuSans-33" x="83.789062"/>
      </g>
     </g>
    </g>
    <g id="ytick_2">
     <g id="line2d_21">
      <path d="M 57.6 256.593313 
L 414.72 256.593313 
" clip-path="url(#p7c6d559e1e)" style="fill: none; stroke: #b0b0b0; stroke-width: 0.8; stroke-linecap: square"/>
     </g>
     <g id="line2d_22">
      <g>
       <use xlink:href="#me9bff81b9c" x="57.6" y="256.593313" style="stroke: #000000; stroke-width: 0.8"/>
      </g>
     </g>
     <g id="text_12">
      <!-- −2 -->
      <g transform="translate(35.857813 260.392532)scale(0.1 -0.1)">
       <use xlink:href="#DejaVuSans-2212"/>
       <use xlink:href="#DejaVuSans-32" x="83.789062"/>
      </g>
     </g>
    </g>
    <g id="ytick_3">
     <g id="line2d_23">
      <path d="M 57.6 210.786629 
L 414.72 210.786629 
" clip-path="url(#p7c6d559e1e)" style="fill: none; stroke: #b0b0b0; stroke-width: 0.8; stroke-linecap: square"/>
     </g>
     <g id="line2d_24">
      <g>
       <use xlink:href="#me9bff81b9c" x="57.6" y="210.786629" style="stroke: #000000; stroke-width: 0.8"/>
      </g>
     </g>
     <g id="text_13">
      <!-- −1 -->
      <g transform="translate(35.857813 214.585848)scale(0.1 -0.1)">
       <use xlink:href="#DejaVuSans-2212"/>
       <use xlink:href="#DejaVuSans-31" x="83.789062"/>
      </g>
     </g>
    </g>
    <g id="ytick_4">
     <g id="line2d_25">
      <path d="M 57.6 164.979945 
L 414.72 164.979945 
" clip-path="url(#p7c6d559e1e)" style="fill: none; stroke: #b0b0b0; stroke-width: 0.8; stroke-linecap: square"/>
     </g>
     <g id="line2d_26">
      <g>
       <use xlink:href="#me9bff81b9c" x="57.6" y="164.979945" style="stroke: #000000; stroke-width: 0.8"/>
      </g>
     </g>
     <g id="text_14">
      <!-- 0 -->
      <g transform="translate(44.2375 168.779164)scale(0.1 -0.1)">
       <use xlink:href="#DejaVuSans-30"/>
      </g>
     </g>
    </g>
    <g id="ytick_5">
     <g id="line2d_27">
      <path d="M 57.6 119.173261 
L 414.72 119.173261 
" clip-path="url(#p7c6d559e1e)" style="fill: none; stroke: #b0b0b0; stroke-width: 0.8; stroke-linecap: square"/>
     </g>
     <g id="line2d_28">
      <g>
       <use xlink:href="#me9bff81b9c" x="57.6" y="119.173261" style="stroke: #000000; stroke-width: 0.8"/>
      </g>
     </g>
     <g id="text_15">
      <!-- 1 -->
      <g transform="translate(44.2375 122.97248)scale(0.1 -0.1)">
       <use xlink:href="#DejaVuSans-31"/>
      </g>
     </g>
    </g>
    <g id="ytick_6">
     <g id="line2d_29">
      <path d="M 57.6 73.366578 
L 414.72 73.366578 
" clip-path="url(#p7c6d559e1e)" style="fill: none; stroke: #b0b0b0; stroke-width: 0.8; stroke-linecap: square"/>
     </g>
     <g id="line2d_30">
      <g>
       <use xlink:href="#me9bff81b9c" x="57.6" y="73.366578" style="stroke: #000000; stroke-width: 0.8"/>
      </g>
     </g>
     <g id="text_16">
      <!-- 2 -->
      <g transform="translate(44.2375 77.165796)scale(0.1 -0.1)">
       <use xlink:href="#DejaVuSans-32"/>
      </g>
     </g>
    </g>
    <g id="text_17">
     <!-- theta -->
     <g transform="translate(29.778125 187.757688)rotate(-90)scale(0.1 -0.1)">
      <defs>
       <path id="DejaVuSans-68" d="M 3513 2113 
L 3513 0 
L 2938 0 
L 2938 2094 
Q 2938 2591 2744 2837 
Q 2550 3084 2163 3084 
Q 1697 3084 1428 2787 
Q 1159 2491 1159 1978 
L 1159 0 
L 581 0 
L 581 4863 
L 1159 4863 
L 1159 2956 
Q 1366 3272 1645 3428 
Q 1925 3584 2291 3584 
Q 2894 3584 3203 3211 
Q 3513 2838 3513 2113 
z
" transform="scale(0.015625)"/>
       <path id="DejaVuSans-61" d="M 2194 1759 
Q 1497 1759 1228 1600 
Q 959 1441 959 1056 
Q 959 750 1161 570 
Q 1363 391 1709 391 
Q 2188 391 2477 730 
Q 2766 1069 2766 1631 
L 2766 1759 
L 2194 1759 
z
M 3341 1997 
L 3341 0 
L 2766 0 
L 2766 531 
Q 2569 213 2275 61 
Q 1981 -91 1556 -91 
Q 1019 -91 701 211 
Q 384 513 384 1019 
Q 384 1609 779 1909 
Q 1175 2209 1959 2209 
L 2766 2209 
L 2766 2266 
Q 2766 2663 2505 2880 
Q 2244 3097 1772 3097 
Q 1472 3097 1187 3025 
Q 903 2953 641 2809 
L 641 3341 
Q 956 3463 1253 3523 
Q 1550 3584 1831 3584 
Q 2591 3584 2966 3190 
Q 3341 2797 3341 1997 
z
" transform="scale(0.015625)"/>
      </defs>
      <use xlink:href="#DejaVuSans-74"/>
      <use xlink:href="#DejaVuSans-68" x="39.208984"/>
      <use xlink:href="#DejaVuSans-65" x="102.587891"/>
      <use xlink:href="#DejaVuSans-74" x="164.111328"/>
      <use xlink:href="#DejaVuSans-61" x="203.320312"/>
     </g>
    </g>
   </g>
   <g id="line2d_31">
    <path d="M 73.832727 164.979945 
L 73.978822 164.890386 
L 74.173615 164.461874 
L 74.465804 163.175801 
L 74.855389 160.312801 
L 75.358604 154.80184 
L 76.007913 144.972756 
L 76.819549 129.029513 
L 78.816175 87.837948 
L 79.660276 75.972324 
L 80.358284 68.897501 
L 80.975127 64.689241 
L 81.510807 62.570462 
L 81.88416 61.953614 
L 82.095185 61.914855 
L 82.289978 62.059076 
L 82.663331 62.869875 
L 83.036684 64.30768 
L 83.556131 67.3803 
L 84.108044 71.948957 
L 84.789818 79.339473 
L 85.585222 90.450123 
L 86.380625 105.073069 
L 87.403287 128.084797 
L 89.172655 174.078438 
L 91.266676 227.167255 
L 92.4192 250.805158 
L 93.312 264.825677 
L 94.367127 277.746561 
L 95.373556 287.098024 
L 96.136495 291.996225 
L 96.70464 294.27411 
L 97.142924 295.216824 
L 97.500044 295.485527 
L 97.857164 295.300177 
L 98.198051 294.623454 
L 98.506473 293.635995 
L 99.009687 291.281047 
L 99.594065 287.350493 
L 100.438167 279.607085 
L 101.201105 270.45875 
L 102.256233 254.857278 
L 103.522385 232.324969 
L 104.853469 205.406769 
L 109.983011 98.858432 
L 111.151767 80.508327 
L 112.0608 69.170876 
L 112.856204 61.613353 
L 113.554211 57.002815 
L 114.057425 54.852707 
L 114.495709 53.831759 
L 114.804131 53.571377 
L 115.128785 53.727692 
L 115.339811 54.059531 
L 115.713164 55.096301 
L 116.118982 56.835979 
L 116.687127 60.425561 
L 117.303971 65.710986 
L 118.164305 75.386589 
L 119.170735 89.87498 
L 119.966138 104.80423 
L 120.9888 128.397905 
L 122.823098 176.656719 
L 124.446371 216.951331 
L 125.4528 237.066679 
L 126.264436 249.329793 
L 126.946211 256.478701 
L 127.498124 260.138995 
L 128.163665 263.045888 
L 128.683113 264.213378 
L 128.942836 264.468555 
L 129.186327 264.465031 
L 129.624611 263.901661 
L 129.949265 263.012736 
L 130.387549 261.238019 
L 130.955695 257.911116 
L 131.799796 250.865 
L 132.449105 243.912066 
L 133.406836 231.3816 
L 134.624291 212.235475 
L 136.020305 187.160806 
L 140.321978 109.990308 
L 141.360873 96.117627 
L 142.383535 85.728291 
L 143.032844 81.066258 
L 143.584756 78.347351 
L 144.006807 77.086454 
L 144.347695 76.592201 
L 144.639884 76.543388 
L 145.029469 77.015766 
L 145.354124 77.870117 
L 145.662545 79.375971 
L 146.068364 82.583608 
L 146.571578 88.391979 
L 147.253353 99.188046 
L 148.146153 117.527182 
L 149.412305 148.808054 
L 151.944611 211.582957 
L 152.902342 229.235074 
L 153.649047 239.038104 
L 154.217193 243.869847 
L 154.623011 245.846383 
L 154.963898 246.556501 
L 155.158691 246.562195 
L 155.337251 246.329099 
L 155.596975 245.56675 
L 156.002793 243.387852 
L 156.506007 239.109775 
L 157.106618 231.904213 
L 158.389004 212.381648 
L 160.499258 175.409568 
L 162.820538 135.355392 
L 164.070458 117.632237 
L 164.752233 110.676955 
L 165.287913 107.398154 
L 165.661265 106.284008 
L 165.904756 106.091015 
L 166.099549 106.225841 
L 166.326807 106.716466 
L 166.602764 107.778673 
L 166.992349 110.116997 
L 167.544262 115.019111 
L 168.161105 122.467758 
L 169.02144 135.680681 
L 170.384989 160.428317 
L 172.332916 194.714327 
L 173.160785 205.711184 
L 173.891258 212.617287 
L 174.426938 215.757733 
L 174.816524 216.969268 
L 175.124945 217.263062 
L 175.287273 217.194333 
L 175.579462 216.664601 
L 175.920349 215.411194 
L 176.391098 212.604628 
L 176.991709 207.34321 
L 177.77088 198.114541 
L 178.744844 183.859113 
L 181.423244 142.898493 
L 182.283578 133.555783 
L 182.916655 128.842743 
L 183.403636 126.610134 
L 183.809455 125.709211 
L 184.101644 125.612045 
L 184.312669 125.836179 
L 184.669789 126.721222 
L 185.059375 128.460956 
L 185.513891 131.372864 
L 186.211898 137.537803 
L 187.169629 148.536206 
L 190.27008 186.75546 
L 191.016785 192.756492 
L 191.52 195.461643 
L 191.958284 196.932254 
L 192.282938 197.421901 
L 192.510196 197.501804 
L 192.672524 197.40338 
L 193.029644 196.72972 
L 193.48416 195.116902 
L 193.971142 192.390206 
L 194.587985 187.827899 
L 195.62688 177.652071 
L 198.353978 149.134861 
L 199.116916 143.688518 
L 199.717527 140.793822 
L 200.172044 139.541684 
L 200.496698 139.092114 
L 200.821353 139.107264 
L 201.16224 139.500994 
L 201.649222 140.882673 
L 202.201135 143.394569 
L 202.834211 147.327839 
L 203.727011 154.419258 
L 206.405411 176.739309 
L 207.265745 181.466963 
L 207.785193 183.339278 
L 208.30464 184.267858 
L 208.694225 184.443934 
L 209.051345 184.215545 
L 209.392233 183.565866 
L 209.976611 181.666927 
L 210.739549 178.001213 
L 211.502487 173.318336 
L 214.538007 153.277277 
L 215.187316 150.54668 
L 215.869091 148.825319 
L 216.291142 148.363496 
L 216.550865 148.324051 
L 216.794356 148.417676 
L 217.216407 148.939034 
L 217.605993 149.848355 
L 218.076742 151.311086 
L 218.790982 154.390503 
L 219.716247 159.231944 
L 221.972596 171.466114 
L 222.865396 174.485869 
L 223.368611 175.581458 
L 223.936756 176.230374 
L 224.228945 176.320786 
L 224.472436 176.273024 
L 224.975651 175.808507 
L 225.316538 175.239811 
L 225.787287 173.955997 
L 226.793716 170.212336 
L 229.358487 159.315427 
L 230.364916 156.264647 
L 230.900596 155.284943 
L 231.598604 154.584908 
L 231.793396 154.56345 
L 232.41024 154.912092 
L 233.156945 155.956623 
L 233.757556 157.42893 
L 235.591855 163.28226 
L 237.426153 168.611617 
L 238.010531 169.766933 
L 238.497513 170.45373 
L 238.903331 170.82345 
L 239.585105 171.004082 
L 240.26688 170.650253 
L 241.110982 169.542683 
L 242.312204 166.995222 
L 244.292596 162.005769 
L 245.818473 159.532398 
L 246.727505 158.826372 
L 247.068393 158.852899 
L 248.074822 159.414516 
L 249.340975 160.982513 
L 250.071447 162.444462 
L 251.142807 164.607559 
L 251.889513 165.950373 
L 252.506356 166.868003 
L 253.042036 167.488089 
L 254.080931 168.128659 
L 255.038662 168.034111 
L 255.379549 167.854616 
L 256.613236 166.638328 
L 259.989644 161.759443 
L 261.531753 161.122184 
L 261.905105 161.115099 
L 263.398516 161.671246 
L 264.096524 162.42149 
L 265.151651 163.784109 
L 266.206778 165.061911 
L 266.807389 165.679117 
L 268.381964 166.643276 
L 268.771549 166.715746 
L 269.144902 166.724451 
L 270.638313 166.163617 
L 274.875055 162.592721 
L 275.313338 162.539015 
L 277.780713 163.060925 
L 278.511185 163.421266 
L 278.981935 163.672459 
L 279.615011 164.031731 
L 280.150691 164.325609 
L 280.718836 164.626634 
L 281.319447 164.901862 
L 281.822662 165.101411 
L 282.455738 165.28479 
L 282.910255 165.373957 
L 284.793251 165.97034 
L 286.806109 165.574573 
L 287.666444 165.124846 
L 288.137193 164.844858 
L 288.802735 164.419072 
L 289.338415 164.084786 
L 289.90656 163.743678 
L 290.539636 163.417936 
L 291.042851 163.200459 
L 291.805789 162.980153 
L 292.244073 162.908263 
L 294.646516 163.319713 
L 295.279593 163.853208 
L 295.9776 164.48663 
L 296.675607 165.071369 
L 297.243753 165.494069 
L 299.305309 166.292681 
L 299.711127 166.299273 
L 301.805149 165.579015 
L 302.243433 165.318274 
L 302.973905 164.832694 
L 303.509585 164.472603 
L 304.110196 164.074576 
L 304.743273 163.702689 
L 305.246487 163.445075 
L 306.009425 163.162014 
L 306.447709 163.054861 
L 308.720291 163.279055 
L 309.515695 163.619634 
L 309.953978 163.839007 
L 310.61952 164.212504 
L 311.122735 164.498701 
L 311.723345 164.842228 
L 312.291491 165.137521 
L 312.827171 165.390086 
L 313.460247 165.624964 
L 313.930996 165.760069 
L 314.596538 165.867832 
L 315.034822 165.89576 
L 315.732829 165.851027 
L 316.138647 165.788642 
L 316.804189 165.617255 
L 317.242473 165.476788 
L 317.875549 165.229616 
L 318.346298 165.03476 
L 318.946909 164.769264 
L 319.450124 164.557181 
L 319.872175 164.415391 
L 320.375389 164.453653 
L 320.846138 164.484992 
L 321.349353 164.528052 
L 321.852567 164.564254 
L 322.355782 164.607295 
L 322.858996 164.640984 
L 323.362211 164.679177 
L 323.865425 164.705929 
L 324.36864 164.735427 
L 324.871855 164.752114 
L 325.358836 164.766481 
L 325.829585 164.778952 
L 326.3328 164.779019 
L 326.803549 164.78144 
L 327.306764 164.77154 
L 327.777513 164.765686 
L 328.280727 164.748359 
L 328.751476 164.737102 
L 329.254691 164.715813 
L 329.757905 164.701468 
L 330.26112 164.680101 
L 330.764335 164.66766 
L 331.267549 164.65003 
L 331.770764 164.642945 
L 332.273978 164.632013 
L 332.777193 164.632646 
L 333.247942 164.629886 
L 333.751156 164.638913 
L 334.221905 164.643952 
L 334.72512 164.660931 
L 335.195869 164.672766 
L 335.699084 164.696054 
L 336.169833 164.71269 
L 336.673047 164.739759 
L 337.176262 164.760126 
L 337.679476 164.787964 
L 338.182691 164.807482 
L 338.685905 164.832928 
L 339.18912 164.848644 
L 339.692335 164.869067 
L 340.195549 164.878769 
L 340.698764 164.892456 
L 341.201978 164.894987 
L 341.705193 164.901367 
L 342.208407 164.896751 
L 342.695389 164.892853 
L 343.182371 164.886315 
L 343.685585 164.881021 
L 344.1888 164.866474 
L 344.692015 164.858305 
L 345.195229 164.842167 
L 345.698444 164.833715 
L 346.201658 164.81857 
L 346.704873 164.812303 
L 347.208087 164.800405 
L 347.711302 164.79828 
L 348.214516 164.791217 
L 348.717731 164.794398 
L 349.220945 164.792875 
L 349.72416 164.801593 
L 350.211142 164.808844 
L 350.714356 164.814844 
L 351.217571 164.830284 
L 351.720785 164.839726 
L 352.224 164.857694 
L 352.727215 164.868665 
L 353.230429 164.887126 
L 353.733644 164.89756 
L 354.236858 164.914501 
L 354.740073 164.922519 
L 355.243287 164.936269 
L 355.746502 164.940468 
L 356.249716 164.949943 
L 356.752931 164.949594 
L 357.256145 164.95444 
L 357.75936 164.949568 
L 358.262575 164.950175 
L 358.765789 164.94151 
L 359.269004 164.93891 
L 359.772218 164.927734 
L 360.275433 164.923398 
L 360.778647 164.911307 
L 361.281862 164.906888 
L 361.785076 164.895523 
L 362.288291 164.892582 
L 362.791505 164.883362 
L 363.29472 164.883124 
L 363.797935 164.877034 
L 364.301149 164.880212 
L 364.804364 164.877673 
L 365.307578 164.884384 
L 365.810793 164.885215 
L 366.314007 164.894997 
L 366.817222 164.898479 
L 367.320436 164.910396 
L 367.823651 164.915421 
L 368.326865 164.928241 
L 368.83008 164.933507 
L 369.333295 164.945914 
L 369.836509 164.950148 
L 370.339724 164.960961 
L 370.842938 164.963117 
L 371.346153 164.971467 
L 371.849367 164.970885 
L 372.352582 164.976339 
L 372.855796 164.972824 
L 373.359011 164.975428 
L 373.862225 164.969259 
L 374.36544 164.969506 
L 374.868655 164.961361 
L 375.371869 164.960084 
L 375.875084 164.950914 
L 376.378298 164.949137 
L 376.881513 164.939995 
L 377.384727 164.938755 
L 377.887942 164.930624 
L 378.391156 164.930811 
L 378.894371 164.924451 
L 379.397585 164.926669 
L 379.9008 164.922509 
L 380.404015 164.926999 
L 380.907229 164.925086 
L 381.410444 164.931708 
L 381.913658 164.931725 
L 382.416873 164.940001 
L 382.920087 164.941334 
L 383.423302 164.950545 
L 383.926516 164.952402 
L 384.429731 164.961716 
L 384.932945 164.963262 
L 385.43616 164.971873 
L 385.939375 164.972366 
L 386.442589 164.979625 
L 386.945804 164.978528 
L 387.449018 164.984032 
L 387.952233 164.981091 
L 388.455447 164.984738 
L 388.958662 164.980003 
L 389.461876 164.98199 
L 389.965091 164.97579 
L 390.468305 164.976564 
L 390.97152 164.969443 
L 391.474735 164.969615 
L 391.977949 164.962227 
L 392.481164 164.962469 
L 392.984378 164.955472 
L 393.487593 164.956401 
L 393.990807 164.95035 
L 394.494022 164.952436 
L 394.997236 164.947701 
L 395.500451 164.951202 
L 396.003665 164.947918 
L 396.50688 164.952845 
L 397.010095 164.950906 
L 397.513309 164.957043 
L 398.016524 164.956132 
L 398.487273 164.962865 
L 398.487273 164.962865 
" clip-path="url(#p7c6d559e1e)" style="fill: none; stroke-dasharray: 5.55,2.4; stroke-dashoffset: 0; stroke: #ff0000; stroke-width: 1.5"/>
   </g>
   <g id="line2d_32">
    <path d="M 73.832727 164.979945 
L 74.887855 164.869413 
L 75.472233 164.574164 
L 76.024145 164.032055 
L 76.576058 163.163442 
L 77.176669 161.777897 
L 77.858444 159.591427 
L 78.702545 156.066687 
L 79.773905 150.562271 
L 81.316015 141.335834 
L 84.724887 120.651359 
L 85.909876 114.942233 
L 86.802676 111.637578 
L 87.516916 109.769075 
L 88.085062 108.831598 
L 88.555811 108.443892 
L 88.945396 108.396544 
L 89.318749 108.585753 
L 89.7408 109.075572 
L 90.244015 110.037024 
L 90.844625 111.704735 
L 91.575098 114.449658 
L 92.451665 118.670597 
L 93.555491 125.153611 
L 94.967738 134.851342 
L 96.948131 150.163773 
L 100.470633 177.476521 
L 101.899113 186.745506 
L 103.051636 192.849527 
L 104.009367 196.800944 
L 104.821004 199.268999 
L 105.502778 200.682306 
L 106.054691 201.371802 
L 106.52544 201.634532 
L 106.931258 201.620696 
L 107.353309 201.37158 
L 107.824058 200.814751 
L 108.375971 199.794558 
L 109.041513 198.055092 
L 109.820684 195.351871 
L 110.745949 191.29102 
L 111.88224 185.226674 
L 113.359418 176.026685 
L 118.48896 142.953918 
L 119.609018 137.663995 
L 120.469353 134.572766 
L 121.151127 132.862491 
L 121.70304 132.005843 
L 122.157556 131.67136 
L 122.530909 131.650844 
L 122.904262 131.859873 
L 123.326313 132.368974 
L 123.84576 133.381675 
L 124.478836 135.160579 
L 125.241775 138.022163 
L 126.215738 142.617687 
L 127.59552 150.329074 
L 132.627665 179.362665 
L 133.763956 184.201639 
L 134.705455 187.306273 
L 135.484625 189.174338 
L 136.133935 190.212671 
L 136.685847 190.711961 
L 137.156596 190.855196 
L 137.59488 190.755182 
L 138.049396 190.415308 
L 138.585076 189.710562 
L 139.20192 188.504611 
L 139.932393 186.559042 
L 140.80896 183.549464 
L 141.88032 179.021014 
L 143.292567 172.006492 
L 147.318284 151.408923 
L 148.178618 148.451352 
L 148.860393 146.837467 
L 149.412305 146.053091 
L 149.850589 145.776832 
L 150.223942 145.786599 
L 150.613527 146.035947 
L 151.051811 146.601097 
L 151.587491 147.682644 
L 152.253033 149.575807 
L 153.080902 152.654656 
L 154.233425 157.896927 
L 157.447505 173.017299 
L 158.405236 176.239107 
L 159.216873 178.247646 
L 159.898647 179.389155 
L 160.466793 179.948603 
L 160.953775 180.14298 
L 161.408291 180.088266 
L 161.87904 179.794408 
L 162.41472 179.17475 
L 163.047796 178.070582 
L 163.794502 176.290829 
L 164.736 173.419567 
L 166.570298 166.897526 
L 167.901382 162.599308 
L 168.777949 160.452721 
L 169.475956 159.278305 
L 170.044102 158.716892 
L 170.531084 158.53005 
L 170.969367 158.596205 
L 171.423884 158.895757 
L 171.959564 159.538392 
L 172.608873 160.700419 
L 173.420509 162.649775 
L 174.573033 166.066186 
L 177.154036 173.870059 
L 178.046836 175.80279 
L 178.761076 176.857916 
L 179.345455 177.35509 
L 179.848669 177.509327 
L 180.319418 177.426887 
L 180.822633 177.106423 
L 181.407011 176.454241 
L 182.137484 175.273297 
L 183.111447 173.228832 
L 186.325527 166.119172 
L 187.104698 165.072088 
L 187.737775 164.560852 
L 188.289687 164.379508 
L 188.809135 164.435382 
L 189.361047 164.728095 
L 189.994124 165.338625 
L 190.773295 166.433034 
L 191.844655 168.367859 
L 194.441891 173.199648 
L 195.285993 174.250837 
L 195.984 174.787122 
L 196.584611 174.984626 
L 197.152756 174.94244 
L 197.753367 174.667465 
L 198.435142 174.0955 
L 199.279244 173.076461 
L 200.577862 171.107193 
L 202.41216 168.383289 
L 203.337425 167.40282 
L 204.084131 166.914866 
L 204.749673 166.731058 
L 205.382749 166.783382 
L 206.064524 167.072803 
L 206.859927 167.666602 
L 207.898822 168.7463 
L 210.739549 171.848921 
L 211.616116 172.407094 
L 212.379055 172.635994 
L 213.093295 172.618687 
L 213.823767 172.374238 
L 214.667869 171.843726 
L 215.771695 170.862361 
L 218.693585 168.134465 
L 219.618851 167.639568 
L 220.44672 167.438271 
L 221.242124 167.471507 
L 222.102458 167.74072 
L 223.190051 168.332172 
L 226.809949 170.499301 
L 227.735215 170.674831 
L 228.644247 170.617898 
L 229.618211 170.328773 
L 230.786967 169.733986 
L 234.520495 167.667123 
L 235.591855 167.438978 
L 236.646982 167.440437 
L 237.831971 167.671441 
L 239.601338 168.276742 
L 241.662895 168.923459 
L 242.912815 169.079553 
L 244.081571 169.002659 
L 245.477585 168.669835 
L 247.7664 167.843926 
L 249.649396 167.287877 
L 250.996713 167.121688 
L 252.40896 167.177001 
L 254.37312 167.50378 
L 256.986589 167.903688 
L 258.528698 167.901909 
L 260.119505 167.669909 
L 265.654865 166.650954 
L 267.489164 166.700046 
L 273.138153 167.024632 
L 275.248407 166.777568 
L 279.355287 166.273653 
L 281.984989 166.208341 
L 285.572422 166.358582 
L 288.65664 166.430149 
L 291.140247 166.245969 
L 296.789236 165.724894 
L 299.321542 165.865975 
L 302.957673 166.049705 
L 305.327651 165.917631 
L 312.307724 165.349717 
L 315.700364 165.496882 
L 319.222865 165.575996 
L 343.344698 165.18614 
L 396.993862 164.99033 
L 398.487273 164.988182 
L 398.487273 164.988182 
" clip-path="url(#p7c6d559e1e)" style="fill: none; stroke: #008000; stroke-width: 1.5; stroke-linecap: square"/>
   </g>
   <g id="patch_3">
    <path d="M 57.6 307.584 
L 57.6 41.472 
" style="fill: none; stroke: #000000; stroke-width: 0.8; stroke-linejoin: miter; stroke-linecap: square"/>
   </g>
   <g id="patch_4">
    <path d="M 414.72 307.584 
L 414.72 41.472 
" style="fill: none; stroke: #000000; stroke-width: 0.8; stroke-linejoin: miter; stroke-linecap: square"/>
   </g>
   <g id="patch_5">
    <path d="M 57.6 307.584 
L 414.72 307.584 
" style="fill: none; stroke: #000000; stroke-width: 0.8; stroke-linejoin: miter; stroke-linecap: square"/>
   </g>
   <g id="patch_6">
    <path d="M 57.6 41.472 
L 414.72 41.472 
" style="fill: none; stroke: #000000; stroke-width: 0.8; stroke-linejoin: miter; stroke-linecap: square"/>
   </g>
   <g id="text_18">
    <!-- theta vs time -->
    <g transform="translate(196.238438 35.472)scale(0.12 -0.12)">
     <defs>
      <path id="DejaVuSans-76" d="M 191 3500 
L 800 3500 
L 1894 563 
L 2988 3500 
L 3597 3500 
L 2284 0 
L 1503 0 
L 191 3500 
z
" transform="scale(0.015625)"/>
     </defs>
     <use xlink:href="#DejaVuSans-74"/>
     <use xlink:href="#DejaVuSans-68" x="39.208984"/>
     <use xlink:href="#DejaVuSans-65" x="102.587891"/>
     <use xlink:href="#DejaVuSans-74" x="164.111328"/>
     <use xlink:href="#DejaVuSans-61" x="203.320312"/>
     <use xlink:href="#DejaVuSans-20" x="264.599609"/>
     <use xlink:href="#DejaVuSans-76" x="296.386719"/>
     <use xlink:href="#DejaVuSans-73" x="355.566406"/>
     <use xlink:href="#DejaVuSans-20" x="407.666016"/>
     <use xlink:href="#DejaVuSans-74" x="439.453125"/>
     <use xlink:href="#DejaVuSans-69" x="478.662109"/>
     <use xlink:href="#DejaVuSans-6d" x="506.445312"/>
     <use xlink:href="#DejaVuSans-65" x="603.857422"/>
    </g>
   </g>
   <g id="legend_1">
    <g id="patch_7">
     <path d="M 273.271563 79.106375 
L 407.72 79.106375 
Q 409.72 79.106375 409.72 77.106375 
L 409.72 48.472 
Q 409.72 46.472 407.72 46.472 
L 273.271563 46.472 
Q 271.271563 46.472 271.271563 48.472 
L 271.271563 77.106375 
Q 271.271563 79.106375 273.271563 79.106375 
z
" style="fill: #ffffff; opacity: 0.8; stroke: #cccccc; stroke-linejoin: miter"/>
    </g>
    <g id="line2d_33">
     <path d="M 275.271563 54.570438 
L 285.271563 54.570438 
L 295.271563 54.570438 
" style="fill: none; stroke-dasharray: 5.55,2.4; stroke-dashoffset: 0; stroke: #ff0000; stroke-width: 1.5"/>
    </g>
    <g id="text_19">
     <!-- theta_dot (degree/s) -->
     <g transform="translate(303.271563 58.070438)scale(0.1 -0.1)">
      <defs>
       <path id="DejaVuSans-5f" d="M 3263 -1063 
L 3263 -1509 
L -63 -1509 
L -63 -1063 
L 3263 -1063 
z
" transform="scale(0.015625)"/>
       <path id="DejaVuSans-64" d="M 2906 2969 
L 2906 4863 
L 3481 4863 
L 3481 0 
L 2906 0 
L 2906 525 
Q 2725 213 2448 61 
Q 2172 -91 1784 -91 
Q 1150 -91 751 415 
Q 353 922 353 1747 
Q 353 2572 751 3078 
Q 1150 3584 1784 3584 
Q 2172 3584 2448 3432 
Q 2725 3281 2906 2969 
z
M 947 1747 
Q 947 1113 1208 752 
Q 1469 391 1925 391 
Q 2381 391 2643 752 
Q 2906 1113 2906 1747 
Q 2906 2381 2643 2742 
Q 2381 3103 1925 3103 
Q 1469 3103 1208 2742 
Q 947 2381 947 1747 
z
" transform="scale(0.015625)"/>
       <path id="DejaVuSans-6f" d="M 1959 3097 
Q 1497 3097 1228 2736 
Q 959 2375 959 1747 
Q 959 1119 1226 758 
Q 1494 397 1959 397 
Q 2419 397 2687 759 
Q 2956 1122 2956 1747 
Q 2956 2369 2687 2733 
Q 2419 3097 1959 3097 
z
M 1959 3584 
Q 2709 3584 3137 3096 
Q 3566 2609 3566 1747 
Q 3566 888 3137 398 
Q 2709 -91 1959 -91 
Q 1206 -91 779 398 
Q 353 888 353 1747 
Q 353 2609 779 3096 
Q 1206 3584 1959 3584 
z
" transform="scale(0.015625)"/>
       <path id="DejaVuSans-67" d="M 2906 1791 
Q 2906 2416 2648 2759 
Q 2391 3103 1925 3103 
Q 1463 3103 1205 2759 
Q 947 2416 947 1791 
Q 947 1169 1205 825 
Q 1463 481 1925 481 
Q 2391 481 2648 825 
Q 2906 1169 2906 1791 
z
M 3481 434 
Q 3481 -459 3084 -895 
Q 2688 -1331 1869 -1331 
Q 1566 -1331 1297 -1286 
Q 1028 -1241 775 -1147 
L 775 -588 
Q 1028 -725 1275 -790 
Q 1522 -856 1778 -856 
Q 2344 -856 2625 -561 
Q 2906 -266 2906 331 
L 2906 616 
Q 2728 306 2450 153 
Q 2172 0 1784 0 
Q 1141 0 747 490 
Q 353 981 353 1791 
Q 353 2603 747 3093 
Q 1141 3584 1784 3584 
Q 2172 3584 2450 3431 
Q 2728 3278 2906 2969 
L 2906 3500 
L 3481 3500 
L 3481 434 
z
" transform="scale(0.015625)"/>
       <path id="DejaVuSans-72" d="M 2631 2963 
Q 2534 3019 2420 3045 
Q 2306 3072 2169 3072 
Q 1681 3072 1420 2755 
Q 1159 2438 1159 1844 
L 1159 0 
L 581 0 
L 581 3500 
L 1159 3500 
L 1159 2956 
Q 1341 3275 1631 3429 
Q 1922 3584 2338 3584 
Q 2397 3584 2469 3576 
Q 2541 3569 2628 3553 
L 2631 2963 
z
" transform="scale(0.015625)"/>
       <path id="DejaVuSans-2f" d="M 1625 4666 
L 2156 4666 
L 531 -594 
L 0 -594 
L 1625 4666 
z
" transform="scale(0.015625)"/>
      </defs>
      <use xlink:href="#DejaVuSans-74"/>
      <use xlink:href="#DejaVuSans-68" x="39.208984"/>
      <use xlink:href="#DejaVuSans-65" x="102.587891"/>
      <use xlink:href="#DejaVuSans-74" x="164.111328"/>
      <use xlink:href="#DejaVuSans-61" x="203.320312"/>
      <use xlink:href="#DejaVuSans-5f" x="264.599609"/>
      <use xlink:href="#DejaVuSans-64" x="314.599609"/>
      <use xlink:href="#DejaVuSans-6f" x="378.076172"/>
      <use xlink:href="#DejaVuSans-74" x="439.257812"/>
      <use xlink:href="#DejaVuSans-20" x="478.466797"/>
      <use xlink:href="#DejaVuSans-28" x="510.253906"/>
      <use xlink:href="#DejaVuSans-64" x="549.267578"/>
      <use xlink:href="#DejaVuSans-65" x="612.744141"/>
      <use xlink:href="#DejaVuSans-67" x="674.267578"/>
      <use xlink:href="#DejaVuSans-72" x="737.744141"/>
      <use xlink:href="#DejaVuSans-65" x="776.607422"/>
      <use xlink:href="#DejaVuSans-65" x="838.130859"/>
      <use xlink:href="#DejaVuSans-2f" x="899.654297"/>
      <use xlink:href="#DejaVuSans-73" x="933.345703"/>
      <use xlink:href="#DejaVuSans-29" x="985.445312"/>
     </g>
    </g>
    <g id="line2d_34">
     <path d="M 275.271563 69.526688 
L 285.271563 69.526688 
L 295.271563 69.526688 
" style="fill: none; stroke: #008000; stroke-width: 1.5; stroke-linecap: square"/>
    </g>
    <g id="text_20">
     <!-- theta (degree) -->
     <g transform="translate(303.271563 73.026688)scale(0.1 -0.1)">
      <use xlink:href="#DejaVuSans-74"/>
      <use xlink:href="#DejaVuSans-68" x="39.208984"/>
      <use xlink:href="#DejaVuSans-65" x="102.587891"/>
      <use xlink:href="#DejaVuSans-74" x="164.111328"/>
      <use xlink:href="#DejaVuSans-61" x="203.320312"/>
      <use xlink:href="#DejaVuSans-20" x="264.599609"/>
      <use xlink:href="#DejaVuSans-28" x="296.386719"/>
      <use xlink:href="#DejaVuSans-64" x="335.400391"/>
      <use xlink:href="#DejaVuSans-65" x="398.876953"/>
      <use xlink:href="#DejaVuSans-67" x="460.400391"/>
      <use xlink:href="#DejaVuSans-72" x="523.876953"/>
      <use xlink:href="#DejaVuSans-65" x="562.740234"/>
      <use xlink:href="#DejaVuSans-65" x="624.263672"/>
      <use xlink:href="#DejaVuSans-29" x="685.787109"/>
     </g>
    </g>
   </g>
  </g>
 </g>
 <defs>
  <clipPath id="p7c6d559e1e">
   <rect x="57.6" y="41.472" width="357.12" height="266.112"/>
  </clipPath>
 </defs>
</svg>
