<?xml version="1.0" encoding="utf-8" standalone="no"?>
<!DOCTYPE svg PUBLIC "-//W3C//DTD SVG 1.1//EN"
  "http://www.w3.org/Graphics/SVG/1.1/DTD/svg11.dtd">
<svg xmlns:xlink="http://www.w3.org/1999/xlink" width="460.8pt" height="345.6pt" viewBox="0 0 460.8 345.6" xmlns="http://www.w3.org/2000/svg" version="1.1">
 <metadata>
  <rdf:RDF xmlns:dc="http://purl.org/dc/elements/1.1/" xmlns:cc="http://creativecommons.org/ns#" xmlns:rdf="http://www.w3.org/1999/02/22-rdf-syntax-ns#">
   <cc:Work>
    <dc:type rdf:resource="http://purl.org/dc/dcmitype/StillImage"/>
    <dc:date>2023-08-26T11:31:57.551071</dc:date>
    <dc:format>image/svg+xml</dc:format>
    <dc:creator>
     <cc:Agent>
      <dc:title>Matplotlib v3.7.1, https://matplotlib.org/</dc:title>
     </cc:Agent>
    </dc:creator>
   </cc:Work>
  </rdf:RDF>
 </metadata>
 <defs>
  <style type="text/css">*{stroke-linejoin: round; stroke-linecap: butt}</style>
 </defs>
 <g id="figure_1">
  <g id="patch_1">
   <path d="M 0 345.6 
L 460.8 345.6 
L 460.8 0 
L 0 0 
L 0 345.6 
z
" style="fill: none"/>
  </g>
  <g id="axes_1">
   <g id="patch_2">
    <path d="M 57.6 307.584 
L 414.72 307.584 
L 414.72 41.472 
L 57.6 41.472 
L 57.6 307.584 
z
" style="fill: none"/>
   </g>
   <g id="matplotlib.axis_1">
    <g id="xtick_1">
     <g id="line2d_1">
      <path d="M 73.832727 307.584 
L 73.832727 41.472 
" clip-path="url(#p9e59365c0c)" style="fill: none; stroke: #b0b0b0; stroke-width: 0.8; stroke-linecap: square"/>
     </g>
     <g id="line2d_2">
      <defs>
       <path id="mf03ae9f481" d="M 0 0 
L 0 3.5 
" style="stroke: #000000; stroke-width: 0.8"/>
      </defs>
      <g>
       <use xlink:href="#mf03ae9f481" x="73.832727" y="307.584" style="stroke: #000000; stroke-width: 0.8"/>
      </g>
     </g>
     <g id="text_1">
      <!-- 0 -->
      <g transform="translate(70.651477 322.182437) scale(0.1 -0.1)">
       <defs>
        <path id="DejaVuSans-30" d="M 2034 4250 
Q 1547 4250 1301 3770 
Q 1056 3291 1056 2328 
Q 1056 1369 1301 889 
Q 1547 409 2034 409 
Q 2525 409 2770 889 
Q 3016 1369 3016 2328 
Q 3016 3291 2770 3770 
Q 2525 4250 2034 4250 
z
M 2034 4750 
Q 2819 4750 3233 4129 
Q 3647 3509 3647 2328 
Q 3647 1150 3233 529 
Q 2819 -91 2034 -91 
Q 1250 -91 836 529 
Q 422 1150 422 2328 
Q 422 3509 836 4129 
Q 1250 4750 2034 4750 
z
" transform="scale(0.015625)"/>
       </defs>
       <use xlink:href="#DejaVuSans-30"/>
      </g>
     </g>
    </g>
    <g id="xtick_2">
     <g id="line2d_3">
      <path d="M 117.12 307.584 
L 117.12 41.472 
" clip-path="url(#p9e59365c0c)" style="fill: none; stroke: #b0b0b0; stroke-width: 0.8; stroke-linecap: square"/>
     </g>
     <g id="line2d_4">
      <g>
       <use xlink:href="#mf03ae9f481" x="117.12" y="307.584" style="stroke: #000000; stroke-width: 0.8"/>
      </g>
     </g>
     <g id="text_2">
      <!-- 2 -->
      <g transform="translate(113.93875 322.182437) scale(0.1 -0.1)">
       <defs>
        <path id="DejaVuSans-32" d="M 1228 531 
L 3431 531 
L 3431 0 
L 469 0 
L 469 531 
Q 828 903 1448 1529 
Q 2069 2156 2228 2338 
Q 2531 2678 2651 2914 
Q 2772 3150 2772 3378 
Q 2772 3750 2511 3984 
Q 2250 4219 1831 4219 
Q 1534 4219 1204 4116 
Q 875 4013 500 3803 
L 500 4441 
Q 881 4594 1212 4672 
Q 1544 4750 1819 4750 
Q 2544 4750 2975 4387 
Q 3406 4025 3406 3419 
Q 3406 3131 3298 2873 
Q 3191 2616 2906 2266 
Q 2828 2175 2409 1742 
Q 1991 1309 1228 531 
z
" transform="scale(0.015625)"/>
       </defs>
       <use xlink:href="#DejaVuSans-32"/>
      </g>
     </g>
    </g>
    <g id="xtick_3">
     <g id="line2d_5">
      <path d="M 160.407273 307.584 
L 160.407273 41.472 
" clip-path="url(#p9e59365c0c)" style="fill: none; stroke: #b0b0b0; stroke-width: 0.8; stroke-linecap: square"/>
     </g>
     <g id="line2d_6">
      <g>
       <use xlink:href="#mf03ae9f481" x="160.407273" y="307.584" style="stroke: #000000; stroke-width: 0.8"/>
      </g>
     </g>
     <g id="text_3">
      <!-- 4 -->
      <g transform="translate(157.226023 322.182437) scale(0.1 -0.1)">
       <defs>
        <path id="DejaVuSans-34" d="M 2419 4116 
L 825 1625 
L 2419 1625 
L 2419 4116 
z
M 2253 4666 
L 3047 4666 
L 3047 1625 
L 3713 1625 
L 3713 1100 
L 3047 1100 
L 3047 0 
L 2419 0 
L 2419 1100 
L 313 1100 
L 313 1709 
L 2253 4666 
z
" transform="scale(0.015625)"/>
       </defs>
       <use xlink:href="#DejaVuSans-34"/>
      </g>
     </g>
    </g>
    <g id="xtick_4">
     <g id="line2d_7">
      <path d="M 203.694545 307.584 
L 203.694545 41.472 
" clip-path="url(#p9e59365c0c)" style="fill: none; stroke: #b0b0b0; stroke-width: 0.8; stroke-linecap: square"/>
     </g>
     <g id="line2d_8">
      <g>
       <use xlink:href="#mf03ae9f481" x="203.694545" y="307.584" style="stroke: #000000; stroke-width: 0.8"/>
      </g>
     </g>
     <g id="text_4">
      <!-- 6 -->
      <g transform="translate(200.513295 322.182437) scale(0.1 -0.1)">
       <defs>
        <path id="DejaVuSans-36" d="M 2113 2584 
Q 1688 2584 1439 2293 
Q 1191 2003 1191 1497 
Q 1191 994 1439 701 
Q 1688 409 2113 409 
Q 2538 409 2786 701 
Q 3034 994 3034 1497 
Q 3034 2003 2786 2293 
Q 2538 2584 2113 2584 
z
M 3366 4563 
L 3366 3988 
Q 3128 4100 2886 4159 
Q 2644 4219 2406 4219 
Q 1781 4219 1451 3797 
Q 1122 3375 1075 2522 
Q 1259 2794 1537 2939 
Q 1816 3084 2150 3084 
Q 2853 3084 3261 2657 
Q 3669 2231 3669 1497 
Q 3669 778 3244 343 
Q 2819 -91 2113 -91 
Q 1303 -91 875 529 
Q 447 1150 447 2328 
Q 447 3434 972 4092 
Q 1497 4750 2381 4750 
Q 2619 4750 2861 4703 
Q 3103 4656 3366 4563 
z
" transform="scale(0.015625)"/>
       </defs>
       <use xlink:href="#DejaVuSans-36"/>
      </g>
     </g>
    </g>
    <g id="xtick_5">
     <g id="line2d_9">
      <path d="M 246.981818 307.584 
L 246.981818 41.472 
" clip-path="url(#p9e59365c0c)" style="fill: none; stroke: #b0b0b0; stroke-width: 0.8; stroke-linecap: square"/>
     </g>
     <g id="line2d_10">
      <g>
       <use xlink:href="#mf03ae9f481" x="246.981818" y="307.584" style="stroke: #000000; stroke-width: 0.8"/>
      </g>
     </g>
     <g id="text_5">
      <!-- 8 -->
      <g transform="translate(243.800568 322.182437) scale(0.1 -0.1)">
       <defs>
        <path id="DejaVuSans-38" d="M 2034 2216 
Q 1584 2216 1326 1975 
Q 1069 1734 1069 1313 
Q 1069 891 1326 650 
Q 1584 409 2034 409 
Q 2484 409 2743 651 
Q 3003 894 3003 1313 
Q 3003 1734 2745 1975 
Q 2488 2216 2034 2216 
z
M 1403 2484 
Q 997 2584 770 2862 
Q 544 3141 544 3541 
Q 544 4100 942 4425 
Q 1341 4750 2034 4750 
Q 2731 4750 3128 4425 
Q 3525 4100 3525 3541 
Q 3525 3141 3298 2862 
Q 3072 2584 2669 2484 
Q 3125 2378 3379 2068 
Q 3634 1759 3634 1313 
Q 3634 634 3220 271 
Q 2806 -91 2034 -91 
Q 1263 -91 848 271 
Q 434 634 434 1313 
Q 434 1759 690 2068 
Q 947 2378 1403 2484 
z
M 1172 3481 
Q 1172 3119 1398 2916 
Q 1625 2713 2034 2713 
Q 2441 2713 2670 2916 
Q 2900 3119 2900 3481 
Q 2900 3844 2670 4047 
Q 2441 4250 2034 4250 
Q 1625 4250 1398 4047 
Q 1172 3844 1172 3481 
z
" transform="scale(0.015625)"/>
       </defs>
       <use xlink:href="#DejaVuSans-38"/>
      </g>
     </g>
    </g>
    <g id="xtick_6">
     <g id="line2d_11">
      <path d="M 290.269091 307.584 
L 290.269091 41.472 
" clip-path="url(#p9e59365c0c)" style="fill: none; stroke: #b0b0b0; stroke-width: 0.8; stroke-linecap: square"/>
     </g>
     <g id="line2d_12">
      <g>
       <use xlink:href="#mf03ae9f481" x="290.269091" y="307.584" style="stroke: #000000; stroke-width: 0.8"/>
      </g>
     </g>
     <g id="text_6">
      <!-- 10 -->
      <g transform="translate(283.906591 322.182437) scale(0.1 -0.1)">
       <defs>
        <path id="DejaVuSans-31" d="M 794 531 
L 1825 531 
L 1825 4091 
L 703 3866 
L 703 4441 
L 1819 4666 
L 2450 4666 
L 2450 531 
L 3481 531 
L 3481 0 
L 794 0 
L 794 531 
z
" transform="scale(0.015625)"/>
       </defs>
       <use xlink:href="#DejaVuSans-31"/>
       <use xlink:href="#DejaVuSans-30" x="63.623047"/>
      </g>
     </g>
    </g>
    <g id="xtick_7">
     <g id="line2d_13">
      <path d="M 333.556364 307.584 
L 333.556364 41.472 
" clip-path="url(#p9e59365c0c)" style="fill: none; stroke: #b0b0b0; stroke-width: 0.8; stroke-linecap: square"/>
     </g>
     <g id="line2d_14">
      <g>
       <use xlink:href="#mf03ae9f481" x="333.556364" y="307.584" style="stroke: #000000; stroke-width: 0.8"/>
      </g>
     </g>
     <g id="text_7">
      <!-- 12 -->
      <g transform="translate(327.193864 322.182437) scale(0.1 -0.1)">
       <use xlink:href="#DejaVuSans-31"/>
       <use xlink:href="#DejaVuSans-32" x="63.623047"/>
      </g>
     </g>
    </g>
    <g id="xtick_8">
     <g id="line2d_15">
      <path d="M 376.843636 307.584 
L 376.843636 41.472 
" clip-path="url(#p9e59365c0c)" style="fill: none; stroke: #b0b0b0; stroke-width: 0.8; stroke-linecap: square"/>
     </g>
     <g id="line2d_16">
      <g>
       <use xlink:href="#mf03ae9f481" x="376.843636" y="307.584" style="stroke: #000000; stroke-width: 0.8"/>
      </g>
     </g>
     <g id="text_8">
      <!-- 14 -->
      <g transform="translate(370.481136 322.182437) scale(0.1 -0.1)">
       <use xlink:href="#DejaVuSans-31"/>
       <use xlink:href="#DejaVuSans-34" x="63.623047"/>
      </g>
     </g>
    </g>
    <g id="xtick_9">
     <g id="line2d_17">
      <path d="M 63.010909 307.584 
L 63.010909 41.472 
" clip-path="url(#p9e59365c0c)" style="fill: none; stroke: #b0b0b0; stroke-width: 0.2; stroke-linecap: square"/>
     </g>
     <g id="line2d_18">
      <defs>
       <path id="m89b667cd41" d="M 0 0 
L 0 2 
" style="stroke: #000000; stroke-width: 0.6"/>
      </defs>
      <g>
       <use xlink:href="#m89b667cd41" x="63.010909" y="307.584" style="stroke: #000000; stroke-width: 0.6"/>
      </g>
     </g>
    </g>
    <g id="xtick_10">
     <g id="line2d_19">
      <path d="M 84.654545 307.584 
L 84.654545 41.472 
" clip-path="url(#p9e59365c0c)" style="fill: none; stroke: #b0b0b0; stroke-width: 0.2; stroke-linecap: square"/>
     </g>
     <g id="line2d_20">
      <g>
       <use xlink:href="#m89b667cd41" x="84.654545" y="307.584" style="stroke: #000000; stroke-width: 0.6"/>
      </g>
     </g>
    </g>
    <g id="xtick_11">
     <g id="line2d_21">
      <path d="M 95.476364 307.584 
L 95.476364 41.472 
" clip-path="url(#p9e59365c0c)" style="fill: none; stroke: #b0b0b0; stroke-width: 0.2; stroke-linecap: square"/>
     </g>
     <g id="line2d_22">
      <g>
       <use xlink:href="#m89b667cd41" x="95.476364" y="307.584" style="stroke: #000000; stroke-width: 0.6"/>
      </g>
     </g>
    </g>
    <g id="xtick_12">
     <g id="line2d_23">
      <path d="M 106.298182 307.584 
L 106.298182 41.472 
" clip-path="url(#p9e59365c0c)" style="fill: none; stroke: #b0b0b0; stroke-width: 0.2; stroke-linecap: square"/>
     </g>
     <g id="line2d_24">
      <g>
       <use xlink:href="#m89b667cd41" x="106.298182" y="307.584" style="stroke: #000000; stroke-width: 0.6"/>
      </g>
     </g>
    </g>
    <g id="xtick_13">
     <g id="line2d_25">
      <path d="M 127.941818 307.584 
L 127.941818 41.472 
" clip-path="url(#p9e59365c0c)" style="fill: none; stroke: #b0b0b0; stroke-width: 0.2; stroke-linecap: square"/>
     </g>
     <g id="line2d_26">
      <g>
       <use xlink:href="#m89b667cd41" x="127.941818" y="307.584" style="stroke: #000000; stroke-width: 0.6"/>
      </g>
     </g>
    </g>
    <g id="xtick_14">
     <g id="line2d_27">
      <path d="M 138.763636 307.584 
L 138.763636 41.472 
" clip-path="url(#p9e59365c0c)" style="fill: none; stroke: #b0b0b0; stroke-width: 0.2; stroke-linecap: square"/>
     </g>
     <g id="line2d_28">
      <g>
       <use xlink:href="#m89b667cd41" x="138.763636" y="307.584" style="stroke: #000000; stroke-width: 0.6"/>
      </g>
     </g>
    </g>
    <g id="xtick_15">
     <g id="line2d_29">
      <path d="M 149.585455 307.584 
L 149.585455 41.472 
" clip-path="url(#p9e59365c0c)" style="fill: none; stroke: #b0b0b0; stroke-width: 0.2; stroke-linecap: square"/>
     </g>
     <g id="line2d_30">
      <g>
       <use xlink:href="#m89b667cd41" x="149.585455" y="307.584" style="stroke: #000000; stroke-width: 0.6"/>
      </g>
     </g>
    </g>
    <g id="xtick_16">
     <g id="line2d_31">
      <path d="M 171.229091 307.584 
L 171.229091 41.472 
" clip-path="url(#p9e59365c0c)" style="fill: none; stroke: #b0b0b0; stroke-width: 0.2; stroke-linecap: square"/>
     </g>
     <g id="line2d_32">
      <g>
       <use xlink:href="#m89b667cd41" x="171.229091" y="307.584" style="stroke: #000000; stroke-width: 0.6"/>
      </g>
     </g>
    </g>
    <g id="xtick_17">
     <g id="line2d_33">
      <path d="M 182.050909 307.584 
L 182.050909 41.472 
" clip-path="url(#p9e59365c0c)" style="fill: none; stroke: #b0b0b0; stroke-width: 0.2; stroke-linecap: square"/>
     </g>
     <g id="line2d_34">
      <g>
       <use xlink:href="#m89b667cd41" x="182.050909" y="307.584" style="stroke: #000000; stroke-width: 0.6"/>
      </g>
     </g>
    </g>
    <g id="xtick_18">
     <g id="line2d_35">
      <path d="M 192.872727 307.584 
L 192.872727 41.472 
" clip-path="url(#p9e59365c0c)" style="fill: none; stroke: #b0b0b0; stroke-width: 0.2; stroke-linecap: square"/>
     </g>
     <g id="line2d_36">
      <g>
       <use xlink:href="#m89b667cd41" x="192.872727" y="307.584" style="stroke: #000000; stroke-width: 0.6"/>
      </g>
     </g>
    </g>
    <g id="xtick_19">
     <g id="line2d_37">
      <path d="M 214.516364 307.584 
L 214.516364 41.472 
" clip-path="url(#p9e59365c0c)" style="fill: none; stroke: #b0b0b0; stroke-width: 0.2; stroke-linecap: square"/>
     </g>
     <g id="line2d_38">
      <g>
       <use xlink:href="#m89b667cd41" x="214.516364" y="307.584" style="stroke: #000000; stroke-width: 0.6"/>
      </g>
     </g>
    </g>
    <g id="xtick_20">
     <g id="line2d_39">
      <path d="M 225.338182 307.584 
L 225.338182 41.472 
" clip-path="url(#p9e59365c0c)" style="fill: none; stroke: #b0b0b0; stroke-width: 0.2; stroke-linecap: square"/>
     </g>
     <g id="line2d_40">
      <g>
       <use xlink:href="#m89b667cd41" x="225.338182" y="307.584" style="stroke: #000000; stroke-width: 0.6"/>
      </g>
     </g>
    </g>
    <g id="xtick_21">
     <g id="line2d_41">
      <path d="M 236.16 307.584 
L 236.16 41.472 
" clip-path="url(#p9e59365c0c)" style="fill: none; stroke: #b0b0b0; stroke-width: 0.2; stroke-linecap: square"/>
     </g>
     <g id="line2d_42">
      <g>
       <use xlink:href="#m89b667cd41" x="236.16" y="307.584" style="stroke: #000000; stroke-width: 0.6"/>
      </g>
     </g>
    </g>
    <g id="xtick_22">
     <g id="line2d_43">
      <path d="M 257.803636 307.584 
L 257.803636 41.472 
" clip-path="url(#p9e59365c0c)" style="fill: none; stroke: #b0b0b0; stroke-width: 0.2; stroke-linecap: square"/>
     </g>
     <g id="line2d_44">
      <g>
       <use xlink:href="#m89b667cd41" x="257.803636" y="307.584" style="stroke: #000000; stroke-width: 0.6"/>
      </g>
     </g>
    </g>
    <g id="xtick_23">
     <g id="line2d_45">
      <path d="M 268.625455 307.584 
L 268.625455 41.472 
" clip-path="url(#p9e59365c0c)" style="fill: none; stroke: #b0b0b0; stroke-width: 0.2; stroke-linecap: square"/>
     </g>
     <g id="line2d_46">
      <g>
       <use xlink:href="#m89b667cd41" x="268.625455" y="307.584" style="stroke: #000000; stroke-width: 0.6"/>
      </g>
     </g>
    </g>
    <g id="xtick_24">
     <g id="line2d_47">
      <path d="M 279.447273 307.584 
L 279.447273 41.472 
" clip-path="url(#p9e59365c0c)" style="fill: none; stroke: #b0b0b0; stroke-width: 0.2; stroke-linecap: square"/>
     </g>
     <g id="line2d_48">
      <g>
       <use xlink:href="#m89b667cd41" x="279.447273" y="307.584" style="stroke: #000000; stroke-width: 0.6"/>
      </g>
     </g>
    </g>
    <g id="xtick_25">
     <g id="line2d_49">
      <path d="M 301.090909 307.584 
L 301.090909 41.472 
" clip-path="url(#p9e59365c0c)" style="fill: none; stroke: #b0b0b0; stroke-width: 0.2; stroke-linecap: square"/>
     </g>
     <g id="line2d_50">
      <g>
       <use xlink:href="#m89b667cd41" x="301.090909" y="307.584" style="stroke: #000000; stroke-width: 0.6"/>
      </g>
     </g>
    </g>
    <g id="xtick_26">
     <g id="line2d_51">
      <path d="M 311.912727 307.584 
L 311.912727 41.472 
" clip-path="url(#p9e59365c0c)" style="fill: none; stroke: #b0b0b0; stroke-width: 0.2; stroke-linecap: square"/>
     </g>
     <g id="line2d_52">
      <g>
       <use xlink:href="#m89b667cd41" x="311.912727" y="307.584" style="stroke: #000000; stroke-width: 0.6"/>
      </g>
     </g>
    </g>
    <g id="xtick_27">
     <g id="line2d_53">
      <path d="M 322.734545 307.584 
L 322.734545 41.472 
" clip-path="url(#p9e59365c0c)" style="fill: none; stroke: #b0b0b0; stroke-width: 0.2; stroke-linecap: square"/>
     </g>
     <g id="line2d_54">
      <g>
       <use xlink:href="#m89b667cd41" x="322.734545" y="307.584" style="stroke: #000000; stroke-width: 0.6"/>
      </g>
     </g>
    </g>
    <g id="xtick_28">
     <g id="line2d_55">
      <path d="M 344.378182 307.584 
L 344.378182 41.472 
" clip-path="url(#p9e59365c0c)" style="fill: none; stroke: #b0b0b0; stroke-width: 0.2; stroke-linecap: square"/>
     </g>
     <g id="line2d_56">
      <g>
       <use xlink:href="#m89b667cd41" x="344.378182" y="307.584" style="stroke: #000000; stroke-width: 0.6"/>
      </g>
     </g>
    </g>
    <g id="xtick_29">
     <g id="line2d_57">
      <path d="M 355.2 307.584 
L 355.2 41.472 
" clip-path="url(#p9e59365c0c)" style="fill: none; stroke: #b0b0b0; stroke-width: 0.2; stroke-linecap: square"/>
     </g>
     <g id="line2d_58">
      <g>
       <use xlink:href="#m89b667cd41" x="355.2" y="307.584" style="stroke: #000000; stroke-width: 0.6"/>
      </g>
     </g>
    </g>
    <g id="xtick_30">
     <g id="line2d_59">
      <path d="M 366.021818 307.584 
L 366.021818 41.472 
" clip-path="url(#p9e59365c0c)" style="fill: none; stroke: #b0b0b0; stroke-width: 0.2; stroke-linecap: square"/>
     </g>
     <g id="line2d_60">
      <g>
       <use xlink:href="#m89b667cd41" x="366.021818" y="307.584" style="stroke: #000000; stroke-width: 0.6"/>
      </g>
     </g>
    </g>
    <g id="xtick_31">
     <g id="line2d_61">
      <path d="M 387.665455 307.584 
L 387.665455 41.472 
" clip-path="url(#p9e59365c0c)" style="fill: none; stroke: #b0b0b0; stroke-width: 0.2; stroke-linecap: square"/>
     </g>
     <g id="line2d_62">
      <g>
       <use xlink:href="#m89b667cd41" x="387.665455" y="307.584" style="stroke: #000000; stroke-width: 0.6"/>
      </g>
     </g>
    </g>
    <g id="xtick_32">
     <g id="line2d_63">
      <path d="M 398.487273 307.584 
L 398.487273 41.472 
" clip-path="url(#p9e59365c0c)" style="fill: none; stroke: #b0b0b0; stroke-width: 0.2; stroke-linecap: square"/>
     </g>
     <g id="line2d_64">
      <g>
       <use xlink:href="#m89b667cd41" x="398.487273" y="307.584" style="stroke: #000000; stroke-width: 0.6"/>
      </g>
     </g>
    </g>
    <g id="xtick_33">
     <g id="line2d_65">
      <path d="M 409.309091 307.584 
L 409.309091 41.472 
" clip-path="url(#p9e59365c0c)" style="fill: none; stroke: #b0b0b0; stroke-width: 0.2; stroke-linecap: square"/>
     </g>
     <g id="line2d_66">
      <g>
       <use xlink:href="#m89b667cd41" x="409.309091" y="307.584" style="stroke: #000000; stroke-width: 0.6"/>
      </g>
     </g>
    </g>
    <g id="text_9">
     <!-- $time \; (s)$ -->
     <g transform="translate(216.96 335.860562) scale(0.1 -0.1)">
      <defs>
       <path id="DejaVuSans-Oblique-74" d="M 2706 3500 
L 2619 3053 
L 1472 3053 
L 1100 1153 
Q 1081 1047 1072 975 
Q 1063 903 1063 863 
Q 1063 663 1183 572 
Q 1303 481 1569 481 
L 2150 481 
L 2053 0 
L 1503 0 
Q 991 0 739 200 
Q 488 400 488 806 
Q 488 878 497 964 
Q 506 1050 525 1153 
L 897 3053 
L 409 3053 
L 500 3500 
L 978 3500 
L 1172 4494 
L 1747 4494 
L 1556 3500 
L 2706 3500 
z
" transform="scale(0.015625)"/>
       <path id="DejaVuSans-Oblique-69" d="M 1172 4863 
L 1747 4863 
L 1606 4134 
L 1031 4134 
L 1172 4863 
z
M 909 3500 
L 1484 3500 
L 800 0 
L 225 0 
L 909 3500 
z
" transform="scale(0.015625)"/>
       <path id="DejaVuSans-Oblique-6d" d="M 5747 2113 
L 5338 0 
L 4763 0 
L 5166 2094 
Q 5191 2228 5203 2325 
Q 5216 2422 5216 2491 
Q 5216 2772 5059 2928 
Q 4903 3084 4622 3084 
Q 4203 3084 3875 2770 
Q 3547 2456 3450 1953 
L 3066 0 
L 2491 0 
L 2900 2094 
Q 2925 2209 2937 2307 
Q 2950 2406 2950 2484 
Q 2950 2769 2794 2926 
Q 2638 3084 2363 3084 
Q 1938 3084 1609 2770 
Q 1281 2456 1184 1953 
L 800 0 
L 225 0 
L 909 3500 
L 1484 3500 
L 1375 2956 
Q 1609 3263 1923 3423 
Q 2238 3584 2597 3584 
Q 2978 3584 3223 3384 
Q 3469 3184 3519 2828 
Q 3781 3197 4126 3390 
Q 4472 3584 4856 3584 
Q 5306 3584 5551 3325 
Q 5797 3066 5797 2591 
Q 5797 2488 5784 2364 
Q 5772 2241 5747 2113 
z
" transform="scale(0.015625)"/>
       <path id="DejaVuSans-Oblique-65" d="M 3078 2063 
Q 3088 2113 3092 2166 
Q 3097 2219 3097 2272 
Q 3097 2653 2873 2875 
Q 2650 3097 2266 3097 
Q 1838 3097 1509 2826 
Q 1181 2556 1013 2059 
L 3078 2063 
z
M 3578 1613 
L 903 1613 
Q 884 1494 878 1425 
Q 872 1356 872 1306 
Q 872 872 1139 634 
Q 1406 397 1894 397 
Q 2269 397 2603 481 
Q 2938 566 3225 728 
L 3116 159 
Q 2806 34 2476 -28 
Q 2147 -91 1806 -91 
Q 1078 -91 686 257 
Q 294 606 294 1247 
Q 294 1794 489 2264 
Q 684 2734 1063 3103 
Q 1306 3334 1642 3459 
Q 1978 3584 2356 3584 
Q 2950 3584 3301 3228 
Q 3653 2872 3653 2272 
Q 3653 2128 3634 1964 
Q 3616 1800 3578 1613 
z
" transform="scale(0.015625)"/>
       <path id="DejaVuSans-28" d="M 1984 4856 
Q 1566 4138 1362 3434 
Q 1159 2731 1159 2009 
Q 1159 1288 1364 580 
Q 1569 -128 1984 -844 
L 1484 -844 
Q 1016 -109 783 600 
Q 550 1309 550 2009 
Q 550 2706 781 3412 
Q 1013 4119 1484 4856 
L 1984 4856 
z
" transform="scale(0.015625)"/>
       <path id="DejaVuSans-Oblique-73" d="M 3200 3397 
L 3091 2853 
Q 2863 2978 2609 3040 
Q 2356 3103 2088 3103 
Q 1634 3103 1373 2948 
Q 1113 2794 1113 2528 
Q 1113 2219 1719 2053 
Q 1766 2041 1788 2034 
L 1972 1978 
Q 2547 1819 2739 1644 
Q 2931 1469 2931 1166 
Q 2931 609 2489 259 
Q 2047 -91 1331 -91 
Q 1053 -91 747 -37 
Q 441 16 72 128 
L 184 722 
Q 500 559 806 475 
Q 1113 391 1394 391 
Q 1816 391 2080 572 
Q 2344 753 2344 1031 
Q 2344 1331 1650 1516 
L 1591 1531 
L 1394 1581 
Q 956 1697 753 1886 
Q 550 2075 550 2369 
Q 550 2928 970 3256 
Q 1391 3584 2113 3584 
Q 2397 3584 2667 3537 
Q 2938 3491 3200 3397 
z
" transform="scale(0.015625)"/>
       <path id="DejaVuSans-29" d="M 513 4856 
L 1013 4856 
Q 1481 4119 1714 3412 
Q 1947 2706 1947 2009 
Q 1947 1309 1714 600 
Q 1481 -109 1013 -844 
L 513 -844 
Q 928 -128 1133 580 
Q 1338 1288 1338 2009 
Q 1338 2731 1133 3434 
Q 928 4138 513 4856 
z
" transform="scale(0.015625)"/>
      </defs>
      <use xlink:href="#DejaVuSans-Oblique-74" transform="translate(0 0.015625)"/>
      <use xlink:href="#DejaVuSans-Oblique-69" transform="translate(39.208984 0.015625)"/>
      <use xlink:href="#DejaVuSans-Oblique-6d" transform="translate(66.992188 0.015625)"/>
      <use xlink:href="#DejaVuSans-Oblique-65" transform="translate(164.404297 0.015625)"/>
      <use xlink:href="#DejaVuSans-28" transform="translate(252.98687 0.015625)"/>
      <use xlink:href="#DejaVuSans-Oblique-73" transform="translate(292.000542 0.015625)"/>
      <use xlink:href="#DejaVuSans-29" transform="translate(344.100151 0.015625)"/>
     </g>
    </g>
   </g>
   <g id="matplotlib.axis_2">
    <g id="ytick_1">
     <g id="line2d_67">
      <path d="M 57.6 289.700294 
L 414.72 289.700294 
" clip-path="url(#p9e59365c0c)" style="fill: none; stroke: #b0b0b0; stroke-width: 0.8; stroke-linecap: square"/>
     </g>
     <g id="line2d_68">
      <defs>
       <path id="m75472fd5dc" d="M 0 0 
L -3.5 0 
" style="stroke: #000000; stroke-width: 0.8"/>
      </defs>
      <g>
       <use xlink:href="#m75472fd5dc" x="57.6" y="289.700294" style="stroke: #000000; stroke-width: 0.8"/>
      </g>
     </g>
     <g id="text_10">
      <!-- −3 -->
      <g transform="translate(35.857813 293.499513) scale(0.1 -0.1)">
       <defs>
        <path id="DejaVuSans-2212" d="M 678 2272 
L 4684 2272 
L 4684 1741 
L 678 1741 
L 678 2272 
z
" transform="scale(0.015625)"/>
        <path id="DejaVuSans-33" d="M 2597 2516 
Q 3050 2419 3304 2112 
Q 3559 1806 3559 1356 
Q 3559 666 3084 287 
Q 2609 -91 1734 -91 
Q 1441 -91 1130 -33 
Q 819 25 488 141 
L 488 750 
Q 750 597 1062 519 
Q 1375 441 1716 441 
Q 2309 441 2620 675 
Q 2931 909 2931 1356 
Q 2931 1769 2642 2001 
Q 2353 2234 1838 2234 
L 1294 2234 
L 1294 2753 
L 1863 2753 
Q 2328 2753 2575 2939 
Q 2822 3125 2822 3475 
Q 2822 3834 2567 4026 
Q 2313 4219 1838 4219 
Q 1578 4219 1281 4162 
Q 984 4106 628 3988 
L 628 4550 
Q 988 4650 1302 4700 
Q 1616 4750 1894 4750 
Q 2613 4750 3031 4423 
Q 3450 4097 3450 3541 
Q 3450 3153 3228 2886 
Q 3006 2619 2597 2516 
z
" transform="scale(0.015625)"/>
       </defs>
       <use xlink:href="#DejaVuSans-2212"/>
       <use xlink:href="#DejaVuSans-33" x="83.789062"/>
      </g>
     </g>
    </g>
    <g id="ytick_2">
     <g id="line2d_69">
      <path d="M 57.6 249.106616 
L 414.72 249.106616 
" clip-path="url(#p9e59365c0c)" style="fill: none; stroke: #b0b0b0; stroke-width: 0.8; stroke-linecap: square"/>
     </g>
     <g id="line2d_70">
      <g>
       <use xlink:href="#m75472fd5dc" x="57.6" y="249.106616" style="stroke: #000000; stroke-width: 0.8"/>
      </g>
     </g>
     <g id="text_11">
      <!-- −2 -->
      <g transform="translate(35.857813 252.905835) scale(0.1 -0.1)">
       <use xlink:href="#DejaVuSans-2212"/>
       <use xlink:href="#DejaVuSans-32" x="83.789062"/>
      </g>
     </g>
    </g>
    <g id="ytick_3">
     <g id="line2d_71">
      <path d="M 57.6 208.512939 
L 414.72 208.512939 
" clip-path="url(#p9e59365c0c)" style="fill: none; stroke: #b0b0b0; stroke-width: 0.8; stroke-linecap: square"/>
     </g>
     <g id="line2d_72">
      <g>
       <use xlink:href="#m75472fd5dc" x="57.6" y="208.512939" style="stroke: #000000; stroke-width: 0.8"/>
      </g>
     </g>
     <g id="text_12">
      <!-- −1 -->
      <g transform="translate(35.857813 212.312158) scale(0.1 -0.1)">
       <use xlink:href="#DejaVuSans-2212"/>
       <use xlink:href="#DejaVuSans-31" x="83.789062"/>
      </g>
     </g>
    </g>
    <g id="ytick_4">
     <g id="line2d_73">
      <path d="M 57.6 167.919261 
L 414.72 167.919261 
" clip-path="url(#p9e59365c0c)" style="fill: none; stroke: #b0b0b0; stroke-width: 0.8; stroke-linecap: square"/>
     </g>
     <g id="line2d_74">
      <g>
       <use xlink:href="#m75472fd5dc" x="57.6" y="167.919261" style="stroke: #000000; stroke-width: 0.8"/>
      </g>
     </g>
     <g id="text_13">
      <!-- 0 -->
      <g transform="translate(44.2375 171.71848) scale(0.1 -0.1)">
       <use xlink:href="#DejaVuSans-30"/>
      </g>
     </g>
    </g>
    <g id="ytick_5">
     <g id="line2d_75">
      <path d="M 57.6 127.325584 
L 414.72 127.325584 
" clip-path="url(#p9e59365c0c)" style="fill: none; stroke: #b0b0b0; stroke-width: 0.8; stroke-linecap: square"/>
     </g>
     <g id="line2d_76">
      <g>
       <use xlink:href="#m75472fd5dc" x="57.6" y="127.325584" style="stroke: #000000; stroke-width: 0.8"/>
      </g>
     </g>
     <g id="text_14">
      <!-- 1 -->
      <g transform="translate(44.2375 131.124802) scale(0.1 -0.1)">
       <use xlink:href="#DejaVuSans-31"/>
      </g>
     </g>
    </g>
    <g id="ytick_6">
     <g id="line2d_77">
      <path d="M 57.6 86.731906 
L 414.72 86.731906 
" clip-path="url(#p9e59365c0c)" style="fill: none; stroke: #b0b0b0; stroke-width: 0.8; stroke-linecap: square"/>
     </g>
     <g id="line2d_78">
      <g>
       <use xlink:href="#m75472fd5dc" x="57.6" y="86.731906" style="stroke: #000000; stroke-width: 0.8"/>
      </g>
     </g>
     <g id="text_15">
      <!-- 2 -->
      <g transform="translate(44.2375 90.531125) scale(0.1 -0.1)">
       <use xlink:href="#DejaVuSans-32"/>
      </g>
     </g>
    </g>
    <g id="ytick_7">
     <g id="line2d_79">
      <path d="M 57.6 46.138229 
L 414.72 46.138229 
" clip-path="url(#p9e59365c0c)" style="fill: none; stroke: #b0b0b0; stroke-width: 0.8; stroke-linecap: square"/>
     </g>
     <g id="line2d_80">
      <g>
       <use xlink:href="#m75472fd5dc" x="57.6" y="46.138229" style="stroke: #000000; stroke-width: 0.8"/>
      </g>
     </g>
     <g id="text_16">
      <!-- 3 -->
      <g transform="translate(44.2375 49.937447) scale(0.1 -0.1)">
       <use xlink:href="#DejaVuSans-33"/>
      </g>
     </g>
    </g>
    <g id="ytick_8">
     <g id="line2d_81">
      <path d="M 57.6 305.937765 
L 414.72 305.937765 
" clip-path="url(#p9e59365c0c)" style="fill: none; stroke: #b0b0b0; stroke-width: 0.2; stroke-linecap: square"/>
     </g>
     <g id="line2d_82">
      <defs>
       <path id="m23ced0de04" d="M 0 0 
L -2 0 
" style="stroke: #000000; stroke-width: 0.6"/>
      </defs>
      <g>
       <use xlink:href="#m23ced0de04" x="57.6" y="305.937765" style="stroke: #000000; stroke-width: 0.6"/>
      </g>
     </g>
    </g>
    <g id="ytick_9">
     <g id="line2d_83">
      <path d="M 57.6 297.819029 
L 414.72 297.819029 
" clip-path="url(#p9e59365c0c)" style="fill: none; stroke: #b0b0b0; stroke-width: 0.2; stroke-linecap: square"/>
     </g>
     <g id="line2d_84">
      <g>
       <use xlink:href="#m23ced0de04" x="57.6" y="297.819029" style="stroke: #000000; stroke-width: 0.6"/>
      </g>
     </g>
    </g>
    <g id="ytick_10">
     <g id="line2d_85">
      <path d="M 57.6 281.581558 
L 414.72 281.581558 
" clip-path="url(#p9e59365c0c)" style="fill: none; stroke: #b0b0b0; stroke-width: 0.2; stroke-linecap: square"/>
     </g>
     <g id="line2d_86">
      <g>
       <use xlink:href="#m23ced0de04" x="57.6" y="281.581558" style="stroke: #000000; stroke-width: 0.6"/>
      </g>
     </g>
    </g>
    <g id="ytick_11">
     <g id="line2d_87">
      <path d="M 57.6 273.462823 
L 414.72 273.462823 
" clip-path="url(#p9e59365c0c)" style="fill: none; stroke: #b0b0b0; stroke-width: 0.2; stroke-linecap: square"/>
     </g>
     <g id="line2d_88">
      <g>
       <use xlink:href="#m23ced0de04" x="57.6" y="273.462823" style="stroke: #000000; stroke-width: 0.6"/>
      </g>
     </g>
    </g>
    <g id="ytick_12">
     <g id="line2d_89">
      <path d="M 57.6 265.344087 
L 414.72 265.344087 
" clip-path="url(#p9e59365c0c)" style="fill: none; stroke: #b0b0b0; stroke-width: 0.2; stroke-linecap: square"/>
     </g>
     <g id="line2d_90">
      <g>
       <use xlink:href="#m23ced0de04" x="57.6" y="265.344087" style="stroke: #000000; stroke-width: 0.6"/>
      </g>
     </g>
    </g>
    <g id="ytick_13">
     <g id="line2d_91">
      <path d="M 57.6 257.225352 
L 414.72 257.225352 
" clip-path="url(#p9e59365c0c)" style="fill: none; stroke: #b0b0b0; stroke-width: 0.2; stroke-linecap: square"/>
     </g>
     <g id="line2d_92">
      <g>
       <use xlink:href="#m23ced0de04" x="57.6" y="257.225352" style="stroke: #000000; stroke-width: 0.6"/>
      </g>
     </g>
    </g>
    <g id="ytick_14">
     <g id="line2d_93">
      <path d="M 57.6 240.987881 
L 414.72 240.987881 
" clip-path="url(#p9e59365c0c)" style="fill: none; stroke: #b0b0b0; stroke-width: 0.2; stroke-linecap: square"/>
     </g>
     <g id="line2d_94">
      <g>
       <use xlink:href="#m23ced0de04" x="57.6" y="240.987881" style="stroke: #000000; stroke-width: 0.6"/>
      </g>
     </g>
    </g>
    <g id="ytick_15">
     <g id="line2d_95">
      <path d="M 57.6 232.869145 
L 414.72 232.869145 
" clip-path="url(#p9e59365c0c)" style="fill: none; stroke: #b0b0b0; stroke-width: 0.2; stroke-linecap: square"/>
     </g>
     <g id="line2d_96">
      <g>
       <use xlink:href="#m23ced0de04" x="57.6" y="232.869145" style="stroke: #000000; stroke-width: 0.6"/>
      </g>
     </g>
    </g>
    <g id="ytick_16">
     <g id="line2d_97">
      <path d="M 57.6 224.75041 
L 414.72 224.75041 
" clip-path="url(#p9e59365c0c)" style="fill: none; stroke: #b0b0b0; stroke-width: 0.2; stroke-linecap: square"/>
     </g>
     <g id="line2d_98">
      <g>
       <use xlink:href="#m23ced0de04" x="57.6" y="224.75041" style="stroke: #000000; stroke-width: 0.6"/>
      </g>
     </g>
    </g>
    <g id="ytick_17">
     <g id="line2d_99">
      <path d="M 57.6 216.631674 
L 414.72 216.631674 
" clip-path="url(#p9e59365c0c)" style="fill: none; stroke: #b0b0b0; stroke-width: 0.2; stroke-linecap: square"/>
     </g>
     <g id="line2d_100">
      <g>
       <use xlink:href="#m23ced0de04" x="57.6" y="216.631674" style="stroke: #000000; stroke-width: 0.6"/>
      </g>
     </g>
    </g>
    <g id="ytick_18">
     <g id="line2d_101">
      <path d="M 57.6 200.394203 
L 414.72 200.394203 
" clip-path="url(#p9e59365c0c)" style="fill: none; stroke: #b0b0b0; stroke-width: 0.2; stroke-linecap: square"/>
     </g>
     <g id="line2d_102">
      <g>
       <use xlink:href="#m23ced0de04" x="57.6" y="200.394203" style="stroke: #000000; stroke-width: 0.6"/>
      </g>
     </g>
    </g>
    <g id="ytick_19">
     <g id="line2d_103">
      <path d="M 57.6 192.275468 
L 414.72 192.275468 
" clip-path="url(#p9e59365c0c)" style="fill: none; stroke: #b0b0b0; stroke-width: 0.2; stroke-linecap: square"/>
     </g>
     <g id="line2d_104">
      <g>
       <use xlink:href="#m23ced0de04" x="57.6" y="192.275468" style="stroke: #000000; stroke-width: 0.6"/>
      </g>
     </g>
    </g>
    <g id="ytick_20">
     <g id="line2d_105">
      <path d="M 57.6 184.156732 
L 414.72 184.156732 
" clip-path="url(#p9e59365c0c)" style="fill: none; stroke: #b0b0b0; stroke-width: 0.2; stroke-linecap: square"/>
     </g>
     <g id="line2d_106">
      <g>
       <use xlink:href="#m23ced0de04" x="57.6" y="184.156732" style="stroke: #000000; stroke-width: 0.6"/>
      </g>
     </g>
    </g>
    <g id="ytick_21">
     <g id="line2d_107">
      <path d="M 57.6 176.037997 
L 414.72 176.037997 
" clip-path="url(#p9e59365c0c)" style="fill: none; stroke: #b0b0b0; stroke-width: 0.2; stroke-linecap: square"/>
     </g>
     <g id="line2d_108">
      <g>
       <use xlink:href="#m23ced0de04" x="57.6" y="176.037997" style="stroke: #000000; stroke-width: 0.6"/>
      </g>
     </g>
    </g>
    <g id="ytick_22">
     <g id="line2d_109">
      <path d="M 57.6 159.800526 
L 414.72 159.800526 
" clip-path="url(#p9e59365c0c)" style="fill: none; stroke: #b0b0b0; stroke-width: 0.2; stroke-linecap: square"/>
     </g>
     <g id="line2d_110">
      <g>
       <use xlink:href="#m23ced0de04" x="57.6" y="159.800526" style="stroke: #000000; stroke-width: 0.6"/>
      </g>
     </g>
    </g>
    <g id="ytick_23">
     <g id="line2d_111">
      <path d="M 57.6 151.68179 
L 414.72 151.68179 
" clip-path="url(#p9e59365c0c)" style="fill: none; stroke: #b0b0b0; stroke-width: 0.2; stroke-linecap: square"/>
     </g>
     <g id="line2d_112">
      <g>
       <use xlink:href="#m23ced0de04" x="57.6" y="151.68179" style="stroke: #000000; stroke-width: 0.6"/>
      </g>
     </g>
    </g>
    <g id="ytick_24">
     <g id="line2d_113">
      <path d="M 57.6 143.563055 
L 414.72 143.563055 
" clip-path="url(#p9e59365c0c)" style="fill: none; stroke: #b0b0b0; stroke-width: 0.2; stroke-linecap: square"/>
     </g>
     <g id="line2d_114">
      <g>
       <use xlink:href="#m23ced0de04" x="57.6" y="143.563055" style="stroke: #000000; stroke-width: 0.6"/>
      </g>
     </g>
    </g>
    <g id="ytick_25">
     <g id="line2d_115">
      <path d="M 57.6 135.444319 
L 414.72 135.444319 
" clip-path="url(#p9e59365c0c)" style="fill: none; stroke: #b0b0b0; stroke-width: 0.2; stroke-linecap: square"/>
     </g>
     <g id="line2d_116">
      <g>
       <use xlink:href="#m23ced0de04" x="57.6" y="135.444319" style="stroke: #000000; stroke-width: 0.6"/>
      </g>
     </g>
    </g>
    <g id="ytick_26">
     <g id="line2d_117">
      <path d="M 57.6 119.206848 
L 414.72 119.206848 
" clip-path="url(#p9e59365c0c)" style="fill: none; stroke: #b0b0b0; stroke-width: 0.2; stroke-linecap: square"/>
     </g>
     <g id="line2d_118">
      <g>
       <use xlink:href="#m23ced0de04" x="57.6" y="119.206848" style="stroke: #000000; stroke-width: 0.6"/>
      </g>
     </g>
    </g>
    <g id="ytick_27">
     <g id="line2d_119">
      <path d="M 57.6 111.088113 
L 414.72 111.088113 
" clip-path="url(#p9e59365c0c)" style="fill: none; stroke: #b0b0b0; stroke-width: 0.2; stroke-linecap: square"/>
     </g>
     <g id="line2d_120">
      <g>
       <use xlink:href="#m23ced0de04" x="57.6" y="111.088113" style="stroke: #000000; stroke-width: 0.6"/>
      </g>
     </g>
    </g>
    <g id="ytick_28">
     <g id="line2d_121">
      <path d="M 57.6 102.969377 
L 414.72 102.969377 
" clip-path="url(#p9e59365c0c)" style="fill: none; stroke: #b0b0b0; stroke-width: 0.2; stroke-linecap: square"/>
     </g>
     <g id="line2d_122">
      <g>
       <use xlink:href="#m23ced0de04" x="57.6" y="102.969377" style="stroke: #000000; stroke-width: 0.6"/>
      </g>
     </g>
    </g>
    <g id="ytick_29">
     <g id="line2d_123">
      <path d="M 57.6 94.850642 
L 414.72 94.850642 
" clip-path="url(#p9e59365c0c)" style="fill: none; stroke: #b0b0b0; stroke-width: 0.2; stroke-linecap: square"/>
     </g>
     <g id="line2d_124">
      <g>
       <use xlink:href="#m23ced0de04" x="57.6" y="94.850642" style="stroke: #000000; stroke-width: 0.6"/>
      </g>
     </g>
    </g>
    <g id="ytick_30">
     <g id="line2d_125">
      <path d="M 57.6 78.613171 
L 414.72 78.613171 
" clip-path="url(#p9e59365c0c)" style="fill: none; stroke: #b0b0b0; stroke-width: 0.2; stroke-linecap: square"/>
     </g>
     <g id="line2d_126">
      <g>
       <use xlink:href="#m23ced0de04" x="57.6" y="78.613171" style="stroke: #000000; stroke-width: 0.6"/>
      </g>
     </g>
    </g>
    <g id="ytick_31">
     <g id="line2d_127">
      <path d="M 57.6 70.494435 
L 414.72 70.494435 
" clip-path="url(#p9e59365c0c)" style="fill: none; stroke: #b0b0b0; stroke-width: 0.2; stroke-linecap: square"/>
     </g>
     <g id="line2d_128">
      <g>
       <use xlink:href="#m23ced0de04" x="57.6" y="70.494435" style="stroke: #000000; stroke-width: 0.6"/>
      </g>
     </g>
    </g>
    <g id="ytick_32">
     <g id="line2d_129">
      <path d="M 57.6 62.3757 
L 414.72 62.3757 
" clip-path="url(#p9e59365c0c)" style="fill: none; stroke: #b0b0b0; stroke-width: 0.2; stroke-linecap: square"/>
     </g>
     <g id="line2d_130">
      <g>
       <use xlink:href="#m23ced0de04" x="57.6" y="62.3757" style="stroke: #000000; stroke-width: 0.6"/>
      </g>
     </g>
    </g>
    <g id="ytick_33">
     <g id="line2d_131">
      <path d="M 57.6 54.256964 
L 414.72 54.256964 
" clip-path="url(#p9e59365c0c)" style="fill: none; stroke: #b0b0b0; stroke-width: 0.2; stroke-linecap: square"/>
     </g>
     <g id="line2d_132">
      <g>
       <use xlink:href="#m23ced0de04" x="57.6" y="54.256964" style="stroke: #000000; stroke-width: 0.6"/>
      </g>
     </g>
    </g>
    <g id="text_17">
     <!-- $\theta$ -->
     <g transform="translate(29.778125 177.628) rotate(-90) scale(0.1 -0.1)">
      <defs>
       <path id="DejaVuSans-Oblique-3b8" d="M 2913 2219 
L 925 2219 
Q 791 1284 928 888 
Q 1100 400 1566 400 
Q 2034 400 2391 891 
Q 2703 1322 2913 2219 
z
M 3009 2750 
Q 3094 3638 2984 3950 
Q 2813 4444 2353 4444 
Q 1875 4444 1525 3956 
Q 1250 3563 1034 2750 
L 3009 2750 
z
M 2444 4913 
Q 3194 4913 3494 4250 
Q 3794 3591 3566 2422 
Q 3341 1256 2781 594 
Q 2225 -72 1475 -72 
Q 722 -72 425 594 
Q 128 1256 353 2422 
Q 581 3591 1134 4250 
Q 1691 4913 2444 4913 
z
" transform="scale(0.015625)"/>
      </defs>
      <use xlink:href="#DejaVuSans-Oblique-3b8" transform="translate(0 0.234375)"/>
     </g>
    </g>
   </g>
   <g id="line2d_133">
    <path d="M 73.832727 167.919261 
L 74.841321 167.808262 
L 75.434356 167.50358 
L 76.005748 166.947197 
L 76.659386 165.975677 
L 77.436393 164.396098 
L 78.369233 161.962781 
L 79.505524 158.336626 
L 80.953484 152.917061 
L 83.184943 143.581211 
L 86.301626 130.692149 
L 87.859968 125.194808 
L 89.104477 121.571443 
L 90.152029 119.164541 
L 91.045911 117.632127 
L 91.81426 116.727148 
L 92.47872 116.266047 
L 93.069591 116.113711 
L 93.630161 116.197344 
L 94.203718 116.515044 
L 94.829219 117.129958 
L 95.528308 118.147207 
L 96.320465 119.714944 
L 97.220841 122.017498 
L 98.246749 125.284384 
L 99.424163 129.814131 
L 100.800698 136.040239 
L 102.484573 144.750683 
L 104.887017 158.482096 
L 108.936541 181.626501 
L 110.668032 190.171616 
L 112.064047 196.002864 
L 113.245789 200.038968 
L 114.265204 202.776937 
L 115.1461 204.548039 
L 115.907956 205.616227 
L 116.568087 206.185976 
L 117.150301 206.411342 
L 117.691392 206.387351 
L 118.238976 206.135011 
L 118.834176 205.603123 
L 119.505129 204.68749 
L 120.273478 203.239283 
L 121.156538 201.071274 
L 122.175953 197.944205 
L 123.366353 193.533539 
L 124.794833 187.336536 
L 126.658351 178.18226 
L 132.558406 148.454592 
L 133.999872 142.703536 
L 135.196765 138.788805 
L 136.220509 136.155191 
L 137.101405 134.463424 
L 137.861097 133.453373 
L 138.516899 132.925658 
L 139.096948 132.728615 
L 139.640204 132.774792 
L 140.194281 133.051208 
L 140.798138 133.613694 
L 141.482077 134.573836 
L 142.263412 136.077749 
L 143.161623 138.316737 
L 144.202682 141.542498 
L 145.429876 146.111232 
L 146.934109 152.623941 
L 149.05735 162.911757 
L 152.979177 181.990561 
L 154.544012 188.423238 
L 155.801507 192.707403 
L 156.862045 195.579663 
L 157.768913 197.436567 
L 158.548084 198.561572 
L 159.221201 199.170198 
L 159.812073 199.421483 
L 160.357492 199.416799 
L 160.902912 199.185114 
L 161.493783 198.68012 
L 162.158243 197.802248 
L 162.920099 196.404243 
L 163.798831 194.298293 
L 164.82041 191.237799 
L 166.030289 186.868062 
L 167.530193 180.561162 
L 169.768145 170.063801 
L 172.954089 155.261016 
L 174.486458 149.203795 
L 175.707159 145.229936 
L 176.730903 142.606015 
L 177.603142 140.940304 
L 178.349847 139.958821 
L 178.992663 139.454639 
L 179.559727 139.276581 
L 180.094324 139.33925 
L 180.641908 139.634924 
L 181.243601 140.227049 
L 181.92754 141.232526 
L 182.713204 142.807625 
L 183.624401 145.162352 
L 184.695761 148.584758 
L 185.992215 153.518888 
L 187.708556 161.002195 
L 192.55673 182.646375 
L 193.870499 187.250175 
L 194.946188 190.260737 
L 195.853056 192.181929 
L 196.623569 193.331013 
L 197.2837 193.944578 
L 197.857257 194.192388 
L 198.383197 194.183797 
L 198.911302 193.947933 
L 199.487023 193.433522 
L 200.138496 192.534035 
L 200.88953 191.093696 
L 201.761769 188.910851 
L 202.789841 185.702512 
L 204.038679 181.029185 
L 205.705239 173.854309 
L 210.185472 154.129299 
L 211.455953 149.751323 
L 212.488355 146.940519 
L 213.351936 145.188791 
L 214.083491 144.170642 
L 214.704663 143.658202 
L 215.247919 143.481909 
L 215.75438 143.548439 
L 216.275991 143.84977 
L 216.853876 144.456543 
L 217.516172 145.496413 
L 218.284521 147.143953 
L 219.184896 149.633538 
L 220.262749 153.310298 
L 221.619805 158.789799 
L 223.786333 168.61582 
L 226.19527 179.240278 
L 227.524189 184.129341 
L 228.571741 187.19315 
L 229.439651 189.09308 
L 230.166877 190.190716 
L 230.779392 190.744614 
L 231.307497 190.941665 
L 231.794479 190.890061 
L 232.292282 190.605616 
L 232.846359 190.016185 
L 233.484847 188.988872 
L 234.229388 187.341071 
L 235.108119 184.821351 
L 236.170822 181.053838 
L 238.577594 172.215685 
L 239.404381 170.124227 
L 240.073169 168.986618 
L 240.627247 168.444135 
L 241.099078 168.26988 
L 241.540608 168.341105 
L 242.008111 168.653248 
L 242.55353 169.305231 
L 243.215825 170.471912 
L 244.044777 172.419224 
L 245.15726 175.653214 
L 249.771683 189.754014 
L 250.780276 191.813289 
L 251.648186 193.111127 
L 252.414371 193.881002 
L 253.106967 194.277865 
L 253.760605 194.403202 
L 254.416407 194.301539 
L 255.124154 193.958832 
L 255.931462 193.308336 
L 256.903261 192.221694 
L 258.154263 190.463081 
L 260.1563 187.205764 
L 263.149615 182.400096 
L 264.874612 180.062686 
L 266.439447 178.307557 
L 267.976145 176.913201 
L 269.577775 175.759628 
L 271.36121 174.75313 
L 273.549382 173.784074 
L 276.735325 172.638374 
L 281.782621 171.071106 
L 285.76505 170.048025 
L 289.314607 169.365112 
L 293.113065 168.867919 
L 297.744803 168.495995 
L 304.646959 168.190278 
L 314.501306 167.994268 
L 339.469405 167.915664 
L 398.487273 167.919208 
L 398.487273 167.919208 
" clip-path="url(#p9e59365c0c)" style="fill: none; stroke: #008000; stroke-width: 1.5; stroke-linecap: square"/>
   </g>
   <g id="line2d_134">
    <path d="M 73.832727 167.919261 
L 73.951767 167.811534 
L 74.131409 167.252177 
L 74.408448 165.53546 
L 74.806691 161.489396 
L 75.365097 153.284659 
L 78.139811 108.247935 
L 79.211171 95.825993 
L 80.163491 87.208815 
L 80.996771 81.551038 
L 81.713175 78.091115 
L 82.312704 76.187948 
L 82.797521 75.304028 
L 83.176285 75.016655 
L 83.485789 75.041528 
L 83.803951 75.307835 
L 84.189207 75.952766 
L 84.663203 77.222543 
L 85.238924 79.454461 
L 85.927191 83.081323 
L 86.738828 88.634374 
L 87.688983 96.768272 
L 88.805795 108.356165 
L 90.143372 124.690036 
L 91.83374 148.251869 
L 94.58681 190.270477 
L 97.504372 233.709801 
L 99.17959 255.432383 
L 100.521495 270.105705 
L 101.649129 280.141576 
L 102.610106 286.83374 
L 103.426071 291.070522 
L 104.112175 293.558142 
L 104.672745 294.841737 
L 105.118604 295.374417 
L 105.469231 295.48706 
L 105.787392 295.355104 
L 106.144512 294.941358 
L 106.577385 294.063766 
L 107.101161 292.453688 
L 107.726662 289.753169 
L 108.460381 285.528309 
L 109.31314 279.232424 
L 110.297926 270.208043 
L 111.442874 257.55021 
L 112.795601 239.986771 
L 114.477312 215.060856 
L 117.042083 173.273963 
L 120.325423 120.506536 
L 122.011462 96.959733 
L 123.357696 81.092565 
L 124.487494 70.245365 
L 125.450636 63.002335 
L 126.268765 58.408058 
L 126.957033 55.701815 
L 127.519767 54.296477 
L 127.965626 53.705833 
L 128.314089 53.568035 
L 128.621428 53.682772 
L 128.965562 54.073896 
L 129.383284 54.920289 
L 129.894074 56.505078 
L 130.506589 59.192114 
L 131.227322 63.426258 
L 132.06926 69.783549 
L 133.049716 78.985661 
L 134.196829 91.974473 
L 135.5712 110.214692 
L 137.341649 136.900098 
L 143.58151 233.734037 
L 144.927744 249.811593 
L 146.04672 260.674991 
L 146.992547 267.836717 
L 147.793361 272.332932 
L 148.46215 274.93207 
L 149.005405 276.247057 
L 149.431785 276.771612 
L 149.762932 276.868895 
L 150.063779 276.721636 
L 150.407913 276.278179 
L 150.829964 275.334914 
L 151.347247 273.583247 
L 151.966255 270.637956 
L 152.697809 265.996041 
L 153.552733 259.047315 
L 154.550505 249.005902 
L 155.730083 234.749066 
L 157.171549 214.454946 
L 159.162764 182.967616 
L 163.322671 116.551344 
L 164.807424 96.776207 
L 165.999988 83.675896 
L 166.99776 75.005176 
L 167.837533 69.505985 
L 168.538787 66.256436 
L 169.112343 64.541755 
L 169.564695 63.800588 
L 169.910993 63.601223 
L 170.201018 63.680914 
L 170.517015 64.023949 
L 170.904436 64.808468 
L 171.382761 66.326863 
L 171.96281 68.972896 
L 172.651078 73.229813 
L 173.46055 79.725272 
L 174.408541 89.243221 
L 175.529681 102.877585 
L 176.901888 122.456491 
L 178.784884 152.820565 
L 182.916655 220.260591 
L 184.323491 239.148942 
L 185.453289 251.516213 
L 186.392623 259.527432 
L 187.178287 264.473118 
L 187.827596 267.278312 
L 188.351372 268.665435 
L 188.753943 269.189881 
L 189.059119 269.270813 
L 189.336157 269.106929 
L 189.662976 268.623002 
L 190.072041 267.575156 
L 190.576337 265.612032 
L 191.184524 262.274489 
L 191.905257 256.987707 
L 192.753687 249.008955 
L 193.755788 237.348385 
L 194.963503 220.52926 
L 196.51968 195.503784 
L 202.121053 102.361328 
L 203.283316 88.165005 
L 204.237801 79.037753 
L 205.029958 73.426151 
L 205.683596 70.238024 
L 206.207372 68.664773 
L 206.607779 68.064637 
L 206.904297 67.960543 
L 207.16402 68.108485 
L 207.47136 68.572458 
L 207.860945 69.609965 
L 208.345763 71.598021 
L 208.932305 75.020226 
L 209.633559 80.529368 
L 210.462511 88.927783 
L 211.445132 101.294263 
L 212.63986 119.324098 
L 214.217681 146.79079 
L 218.847255 229.531961 
L 220.031162 245.723806 
L 220.987811 255.981003 
L 221.775639 262.231283 
L 222.42062 265.741669 
L 222.933574 267.450002 
L 223.323159 268.089009 
L 223.602362 268.192654 
L 223.844771 268.04126 
L 224.13696 267.559885 
L 224.513559 266.457898 
L 224.985391 264.316493 
L 225.558947 260.591543 
L 226.247215 254.547136 
L 227.06318 245.280908 
L 228.039308 231.491936 
L 229.242694 211.119753 
L 230.911418 178.705671 
L 234.354921 111.109034 
L 235.571293 91.978055 
L 236.281204 83.610798 
L 236.579887 82.309277 
L 236.731392 82.211672 
L 236.750871 82.226056 
L 236.889391 82.488325 
L 237.11232 83.49018 
L 237.430481 86.059344 
L 237.891491 91.85265 
L 238.508335 102.688104 
L 239.389231 122.380022 
L 243.137908 210.767642 
L 244.007983 224.267112 
L 244.748195 232.511239 
L 245.352052 236.976898 
L 245.849856 239.159961 
L 246.232948 239.947286 
L 246.477521 240.0601 
L 246.698287 239.910631 
L 246.988311 239.365086 
L 247.375732 238.049222 
L 247.888687 235.350963 
L 248.535831 230.576121 
L 249.343139 222.859924 
L 250.511895 209.26657 
L 254.725911 157.852452 
L 255.875188 147.600854 
L 256.840495 140.968475 
L 257.630487 136.919624 
L 258.338234 134.314346 
L 258.983215 132.73449 
L 259.537292 131.937071 
L 260.041588 131.624356 
L 260.502598 131.649914 
L 261.019881 131.999538 
L 261.643217 132.809285 
L 262.491648 134.4761 
L 263.506735 137.088395 
L 265.000145 141.591914 
L 267.272727 148.486172 
L 268.748823 152.302966 
L 270.125359 155.150667 
L 271.274636 156.986978 
L 272.255092 158.18682 
L 273.532067 159.311136 
L 275.179148 160.215329 
L 277.19417 160.801757 
L 281.27616 161.61278 
L 285.5616 162.987435 
L 289.888163 164.654442 
L 291.883706 165.322241 
L 297.651735 166.598197 
L 299.086708 166.762629 
L 301.138525 166.957067 
L 302.538868 167.113848 
L 310.122799 167.493454 
L 311.575087 167.636098 
L 323.496401 167.800092 
L 325.597999 167.830585 
L 327.777513 167.865206 
L 330.0133 167.896393 
L 332.10624 167.917943 
L 334.380986 167.931183 
L 336.486912 167.935547 
L 338.709713 167.934084 
L 340.863255 167.929975 
L 343.034112 167.925073 
L 345.222284 167.921334 
L 347.380154 167.919013 
L 349.568326 167.918435 
L 351.734854 167.918728 
L 353.910039 167.919759 
L 356.085225 167.920593 
L 358.256081 167.921362 
L 360.431267 167.92151 
L 362.602124 167.921516 
L 364.777309 167.921057 
L 366.948166 167.920721 
L 369.119023 167.920182 
L 371.294208 167.919956 
L 373.465065 167.919627 
L 375.64025 167.919626 
L 377.811107 167.91948 
L 379.986292 167.919594 
L 382.161478 167.919495 
L 384.332335 167.919609 
L 386.50752 167.919483 
L 388.678377 167.919564 
L 390.853562 167.919413 
L 393.028748 167.919482 
L 395.203933 167.919333 
L 397.379119 167.919413 
L 398.487273 167.919401 
L 398.487273 167.919401 
" clip-path="url(#p9e59365c0c)" style="fill: none; stroke-dasharray: 5.55,2.4; stroke-dashoffset: 0; stroke: #ff0000; stroke-width: 1.5"/>
   </g>
   <g id="patch_3">
    <path d="M 57.6 307.584 
L 57.6 41.472 
" style="fill: none; stroke: #000000; stroke-width: 0.8; stroke-linejoin: miter; stroke-linecap: square"/>
   </g>
   <g id="patch_4">
    <path d="M 414.72 307.584 
L 414.72 41.472 
" style="fill: none; stroke: #000000; stroke-width: 0.8; stroke-linejoin: miter; stroke-linecap: square"/>
   </g>
   <g id="patch_5">
    <path d="M 57.6 307.584 
L 414.72 307.584 
" style="fill: none; stroke: #000000; stroke-width: 0.8; stroke-linejoin: miter; stroke-linecap: square"/>
   </g>
   <g id="patch_6">
    <path d="M 57.6 41.472 
L 414.72 41.472 
" style="fill: none; stroke: #000000; stroke-width: 0.8; stroke-linejoin: miter; stroke-linecap: square"/>
   </g>
   <g id="text_18">
    <!-- $\theta \; vs \; time$ -->
    <g transform="translate(208.98 35.472) scale(0.12 -0.12)">
     <defs>
      <path id="DejaVuSans-Oblique-76" d="M 459 3500 
L 1069 3500 
L 1581 525 
L 3256 3500 
L 3866 3500 
L 1875 0 
L 1100 0 
L 459 3500 
z
" transform="scale(0.015625)"/>
     </defs>
     <use xlink:href="#DejaVuSans-Oblique-3b8" transform="translate(0 0.234375)"/>
     <use xlink:href="#DejaVuSans-Oblique-76" transform="translate(88.240776 0.234375)"/>
     <use xlink:href="#DejaVuSans-Oblique-73" transform="translate(147.420464 0.234375)"/>
     <use xlink:href="#DejaVuSans-Oblique-74" transform="translate(226.579209 0.234375)"/>
     <use xlink:href="#DejaVuSans-Oblique-69" transform="translate(265.788193 0.234375)"/>
     <use xlink:href="#DejaVuSans-Oblique-6d" transform="translate(293.571396 0.234375)"/>
     <use xlink:href="#DejaVuSans-Oblique-65" transform="translate(390.983506 0.234375)"/>
    </g>
   </g>
   <g id="legend_1">
    <g id="patch_7">
     <path d="M 305.32 82.372 
L 407.72 82.372 
Q 409.72 82.372 409.72 80.372 
L 409.72 48.472 
Q 409.72 46.472 407.72 46.472 
L 305.32 46.472 
Q 303.32 46.472 303.32 48.472 
L 303.32 80.372 
Q 303.32 82.372 305.32 82.372 
z
" style="fill: #ffffff; opacity: 0.8; stroke: #cccccc; stroke-linejoin: miter"/>
    </g>
    <g id="line2d_135">
     <path d="M 307.32 54.672 
L 317.32 54.672 
L 327.32 54.672 
" style="fill: none; stroke: #008000; stroke-width: 1.5; stroke-linecap: square"/>
    </g>
    <g id="text_19">
     <!-- $\theta \; (degree)$ -->
     <g transform="translate(335.32 58.172) scale(0.1 -0.1)">
      <defs>
       <path id="DejaVuSans-Oblique-64" d="M 2675 525 
Q 2444 222 2128 65 
Q 1813 -91 1428 -91 
Q 903 -91 598 267 
Q 294 625 294 1247 
Q 294 1766 478 2236 
Q 663 2706 1013 3078 
Q 1244 3325 1534 3454 
Q 1825 3584 2144 3584 
Q 2481 3584 2739 3421 
Q 2997 3259 3138 2956 
L 3513 4863 
L 4091 4863 
L 3144 0 
L 2566 0 
L 2675 525 
z
M 891 1350 
Q 891 897 1095 644 
Q 1300 391 1663 391 
Q 1931 391 2161 520 
Q 2391 650 2566 903 
Q 2750 1166 2856 1509 
Q 2963 1853 2963 2188 
Q 2963 2622 2758 2865 
Q 2553 3109 2194 3109 
Q 1922 3109 1687 2981 
Q 1453 2853 1288 2613 
Q 1106 2353 998 2009 
Q 891 1666 891 1350 
z
" transform="scale(0.015625)"/>
       <path id="DejaVuSans-Oblique-67" d="M 3816 3500 
L 3219 434 
Q 3047 -456 2561 -893 
Q 2075 -1331 1253 -1331 
Q 950 -1331 690 -1286 
Q 431 -1241 206 -1147 
L 313 -588 
Q 525 -725 762 -790 
Q 1000 -856 1269 -856 
Q 1816 -856 2167 -557 
Q 2519 -259 2631 300 
L 2681 563 
Q 2441 288 2122 144 
Q 1803 0 1434 0 
Q 903 0 598 351 
Q 294 703 294 1319 
Q 294 1803 478 2267 
Q 663 2731 997 3091 
Q 1219 3328 1514 3456 
Q 1809 3584 2131 3584 
Q 2484 3584 2746 3420 
Q 3009 3256 3138 2956 
L 3238 3500 
L 3816 3500 
z
M 2950 2216 
Q 2950 2641 2750 2872 
Q 2550 3103 2181 3103 
Q 1953 3103 1747 3012 
Q 1541 2922 1394 2759 
Q 1156 2491 1023 2127 
Q 891 1763 891 1375 
Q 891 944 1092 712 
Q 1294 481 1672 481 
Q 2219 481 2584 976 
Q 2950 1472 2950 2216 
z
" transform="scale(0.015625)"/>
       <path id="DejaVuSans-Oblique-72" d="M 2853 2969 
Q 2766 3016 2653 3041 
Q 2541 3066 2413 3066 
Q 1953 3066 1609 2717 
Q 1266 2369 1153 1784 
L 800 0 
L 225 0 
L 909 3500 
L 1484 3500 
L 1375 2956 
Q 1603 3259 1920 3421 
Q 2238 3584 2597 3584 
Q 2691 3584 2781 3573 
Q 2872 3563 2963 3538 
L 2853 2969 
z
" transform="scale(0.015625)"/>
      </defs>
      <use xlink:href="#DejaVuSans-Oblique-3b8" transform="translate(0 0.234375)"/>
      <use xlink:href="#DejaVuSans-28" transform="translate(88.240776 0.234375)"/>
      <use xlink:href="#DejaVuSans-Oblique-64" transform="translate(127.254448 0.234375)"/>
      <use xlink:href="#DejaVuSans-Oblique-65" transform="translate(190.731011 0.234375)"/>
      <use xlink:href="#DejaVuSans-Oblique-67" transform="translate(252.254448 0.234375)"/>
      <use xlink:href="#DejaVuSans-Oblique-72" transform="translate(315.731011 0.234375)"/>
      <use xlink:href="#DejaVuSans-Oblique-65" transform="translate(356.844292 0.234375)"/>
      <use xlink:href="#DejaVuSans-Oblique-65" transform="translate(418.367729 0.234375)"/>
      <use xlink:href="#DejaVuSans-29" transform="translate(479.891167 0.234375)"/>
     </g>
    </g>
    <g id="line2d_136">
     <path d="M 307.32 72.772 
L 317.32 72.772 
L 327.32 72.772 
" style="fill: none; stroke-dasharray: 5.55,2.4; stroke-dashoffset: 0; stroke: #ff0000; stroke-width: 1.5"/>
    </g>
    <g id="text_20">
     <!-- $\dot{\theta} \; (degree \: s^{-1})$ -->
     <g transform="translate(335.32 76.272) scale(0.1 -0.1)">
      <defs>
       <path id="DejaVuSans-307" d="M -1894 4863 
L -1319 4863 
L -1319 4134 
L -1894 4134 
L -1894 4863 
z
M -1600 3584 
L -1600 3584 
z
" transform="scale(0.015625)"/>
      </defs>
      <use xlink:href="#DejaVuSans-307" transform="translate(62.88916 34.015625)"/>
      <use xlink:href="#DejaVuSans-Oblique-3b8" transform="translate(0 0.75)"/>
      <use xlink:href="#DejaVuSans-28" transform="translate(88.240776 0.75)"/>
      <use xlink:href="#DejaVuSans-Oblique-64" transform="translate(127.254448 0.75)"/>
      <use xlink:href="#DejaVuSans-Oblique-65" transform="translate(190.731011 0.75)"/>
      <use xlink:href="#DejaVuSans-Oblique-67" transform="translate(252.254448 0.75)"/>
      <use xlink:href="#DejaVuSans-Oblique-72" transform="translate(315.731011 0.75)"/>
      <use xlink:href="#DejaVuSans-Oblique-65" transform="translate(356.844292 0.75)"/>
      <use xlink:href="#DejaVuSans-Oblique-65" transform="translate(418.367729 0.75)"/>
      <use xlink:href="#DejaVuSans-Oblique-73" transform="translate(501.538086 0.75)"/>
      <use xlink:href="#DejaVuSans-2212" transform="translate(558.287591 39.03125) scale(0.7)"/>
      <use xlink:href="#DejaVuSans-31" transform="translate(616.939935 39.03125) scale(0.7)"/>
      <use xlink:href="#DejaVuSans-29" transform="translate(664.210443 0.75)"/>
     </g>
    </g>
   </g>
  </g>
 </g>
 <defs>
  <clipPath id="p9e59365c0c">
   <rect x="57.6" y="41.472" width="357.12" height="266.112"/>
  </clipPath>
 </defs>
</svg>
