<?xml version="1.0" encoding="utf-8" standalone="no"?>
<!DOCTYPE svg PUBLIC "-//W3C//DTD SVG 1.1//EN"
  "http://www.w3.org/Graphics/SVG/1.1/DTD/svg11.dtd">
<svg xmlns:xlink="http://www.w3.org/1999/xlink" width="460.8pt" height="345.6pt" viewBox="0 0 460.8 345.6" xmlns="http://www.w3.org/2000/svg" version="1.1">
 <metadata>
  <rdf:RDF xmlns:dc="http://purl.org/dc/elements/1.1/" xmlns:cc="http://creativecommons.org/ns#" xmlns:rdf="http://www.w3.org/1999/02/22-rdf-syntax-ns#">
   <cc:Work>
    <dc:type rdf:resource="http://purl.org/dc/dcmitype/StillImage"/>
    <dc:date>2023-08-23T18:10:42.559402</dc:date>
    <dc:format>image/svg+xml</dc:format>
    <dc:creator>
     <cc:Agent>
      <dc:title>Matplotlib v3.5.3, https://matplotlib.org/</dc:title>
     </cc:Agent>
    </dc:creator>
   </cc:Work>
  </rdf:RDF>
 </metadata>
 <defs>
  <style type="text/css">*{stroke-linejoin: round; stroke-linecap: butt}</style>
 </defs>
 <g id="figure_1">
  <g id="patch_1">
   <path d="M 0 345.6 
L 460.8 345.6 
L 460.8 0 
L 0 0 
L 0 345.6 
z
" style="fill: none"/>
  </g>
  <g id="axes_1">
   <g id="patch_2">
    <path d="M 57.6 307.584 
L 414.72 307.584 
L 414.72 41.472 
L 57.6 41.472 
L 57.6 307.584 
z
" style="fill: none"/>
   </g>
   <g id="matplotlib.axis_1">
    <g id="xtick_1">
     <g id="line2d_1">
      <path d="M 73.832727 307.584 
L 73.832727 41.472 
" clip-path="url(#pa26fe00353)" style="fill: none; stroke: #b0b0b0; stroke-width: 0.8; stroke-linecap: square"/>
     </g>
     <g id="line2d_2">
      <defs>
       <path id="m4b6575e19f" d="M 0 0 
L 0 3.5 
" style="stroke: #000000; stroke-width: 0.8"/>
      </defs>
      <g>
       <use xlink:href="#m4b6575e19f" x="73.832727" y="307.584" style="stroke: #000000; stroke-width: 0.8"/>
      </g>
     </g>
     <g id="text_1">
      <!-- 0 -->
      <g transform="translate(70.651477 322.182437)scale(0.1 -0.1)">
       <defs>
        <path id="DejaVuSans-30" d="M 2034 4250 
Q 1547 4250 1301 3770 
Q 1056 3291 1056 2328 
Q 1056 1369 1301 889 
Q 1547 409 2034 409 
Q 2525 409 2770 889 
Q 3016 1369 3016 2328 
Q 3016 3291 2770 3770 
Q 2525 4250 2034 4250 
z
M 2034 4750 
Q 2819 4750 3233 4129 
Q 3647 3509 3647 2328 
Q 3647 1150 3233 529 
Q 2819 -91 2034 -91 
Q 1250 -91 836 529 
Q 422 1150 422 2328 
Q 422 3509 836 4129 
Q 1250 4750 2034 4750 
z
" transform="scale(0.015625)"/>
       </defs>
       <use xlink:href="#DejaVuSans-30"/>
      </g>
     </g>
    </g>
    <g id="xtick_2">
     <g id="line2d_3">
      <path d="M 117.12 307.584 
L 117.12 41.472 
" clip-path="url(#pa26fe00353)" style="fill: none; stroke: #b0b0b0; stroke-width: 0.8; stroke-linecap: square"/>
     </g>
     <g id="line2d_4">
      <g>
       <use xlink:href="#m4b6575e19f" x="117.12" y="307.584" style="stroke: #000000; stroke-width: 0.8"/>
      </g>
     </g>
     <g id="text_2">
      <!-- 2 -->
      <g transform="translate(113.93875 322.182437)scale(0.1 -0.1)">
       <defs>
        <path id="DejaVuSans-32" d="M 1228 531 
L 3431 531 
L 3431 0 
L 469 0 
L 469 531 
Q 828 903 1448 1529 
Q 2069 2156 2228 2338 
Q 2531 2678 2651 2914 
Q 2772 3150 2772 3378 
Q 2772 3750 2511 3984 
Q 2250 4219 1831 4219 
Q 1534 4219 1204 4116 
Q 875 4013 500 3803 
L 500 4441 
Q 881 4594 1212 4672 
Q 1544 4750 1819 4750 
Q 2544 4750 2975 4387 
Q 3406 4025 3406 3419 
Q 3406 3131 3298 2873 
Q 3191 2616 2906 2266 
Q 2828 2175 2409 1742 
Q 1991 1309 1228 531 
z
" transform="scale(0.015625)"/>
       </defs>
       <use xlink:href="#DejaVuSans-32"/>
      </g>
     </g>
    </g>
    <g id="xtick_3">
     <g id="line2d_5">
      <path d="M 160.407273 307.584 
L 160.407273 41.472 
" clip-path="url(#pa26fe00353)" style="fill: none; stroke: #b0b0b0; stroke-width: 0.8; stroke-linecap: square"/>
     </g>
     <g id="line2d_6">
      <g>
       <use xlink:href="#m4b6575e19f" x="160.407273" y="307.584" style="stroke: #000000; stroke-width: 0.8"/>
      </g>
     </g>
     <g id="text_3">
      <!-- 4 -->
      <g transform="translate(157.226023 322.182437)scale(0.1 -0.1)">
       <defs>
        <path id="DejaVuSans-34" d="M 2419 4116 
L 825 1625 
L 2419 1625 
L 2419 4116 
z
M 2253 4666 
L 3047 4666 
L 3047 1625 
L 3713 1625 
L 3713 1100 
L 3047 1100 
L 3047 0 
L 2419 0 
L 2419 1100 
L 313 1100 
L 313 1709 
L 2253 4666 
z
" transform="scale(0.015625)"/>
       </defs>
       <use xlink:href="#DejaVuSans-34"/>
      </g>
     </g>
    </g>
    <g id="xtick_4">
     <g id="line2d_7">
      <path d="M 203.694545 307.584 
L 203.694545 41.472 
" clip-path="url(#pa26fe00353)" style="fill: none; stroke: #b0b0b0; stroke-width: 0.8; stroke-linecap: square"/>
     </g>
     <g id="line2d_8">
      <g>
       <use xlink:href="#m4b6575e19f" x="203.694545" y="307.584" style="stroke: #000000; stroke-width: 0.8"/>
      </g>
     </g>
     <g id="text_4">
      <!-- 6 -->
      <g transform="translate(200.513295 322.182437)scale(0.1 -0.1)">
       <defs>
        <path id="DejaVuSans-36" d="M 2113 2584 
Q 1688 2584 1439 2293 
Q 1191 2003 1191 1497 
Q 1191 994 1439 701 
Q 1688 409 2113 409 
Q 2538 409 2786 701 
Q 3034 994 3034 1497 
Q 3034 2003 2786 2293 
Q 2538 2584 2113 2584 
z
M 3366 4563 
L 3366 3988 
Q 3128 4100 2886 4159 
Q 2644 4219 2406 4219 
Q 1781 4219 1451 3797 
Q 1122 3375 1075 2522 
Q 1259 2794 1537 2939 
Q 1816 3084 2150 3084 
Q 2853 3084 3261 2657 
Q 3669 2231 3669 1497 
Q 3669 778 3244 343 
Q 2819 -91 2113 -91 
Q 1303 -91 875 529 
Q 447 1150 447 2328 
Q 447 3434 972 4092 
Q 1497 4750 2381 4750 
Q 2619 4750 2861 4703 
Q 3103 4656 3366 4563 
z
" transform="scale(0.015625)"/>
       </defs>
       <use xlink:href="#DejaVuSans-36"/>
      </g>
     </g>
    </g>
    <g id="xtick_5">
     <g id="line2d_9">
      <path d="M 246.981818 307.584 
L 246.981818 41.472 
" clip-path="url(#pa26fe00353)" style="fill: none; stroke: #b0b0b0; stroke-width: 0.8; stroke-linecap: square"/>
     </g>
     <g id="line2d_10">
      <g>
       <use xlink:href="#m4b6575e19f" x="246.981818" y="307.584" style="stroke: #000000; stroke-width: 0.8"/>
      </g>
     </g>
     <g id="text_5">
      <!-- 8 -->
      <g transform="translate(243.800568 322.182437)scale(0.1 -0.1)">
       <defs>
        <path id="DejaVuSans-38" d="M 2034 2216 
Q 1584 2216 1326 1975 
Q 1069 1734 1069 1313 
Q 1069 891 1326 650 
Q 1584 409 2034 409 
Q 2484 409 2743 651 
Q 3003 894 3003 1313 
Q 3003 1734 2745 1975 
Q 2488 2216 2034 2216 
z
M 1403 2484 
Q 997 2584 770 2862 
Q 544 3141 544 3541 
Q 544 4100 942 4425 
Q 1341 4750 2034 4750 
Q 2731 4750 3128 4425 
Q 3525 4100 3525 3541 
Q 3525 3141 3298 2862 
Q 3072 2584 2669 2484 
Q 3125 2378 3379 2068 
Q 3634 1759 3634 1313 
Q 3634 634 3220 271 
Q 2806 -91 2034 -91 
Q 1263 -91 848 271 
Q 434 634 434 1313 
Q 434 1759 690 2068 
Q 947 2378 1403 2484 
z
M 1172 3481 
Q 1172 3119 1398 2916 
Q 1625 2713 2034 2713 
Q 2441 2713 2670 2916 
Q 2900 3119 2900 3481 
Q 2900 3844 2670 4047 
Q 2441 4250 2034 4250 
Q 1625 4250 1398 4047 
Q 1172 3844 1172 3481 
z
" transform="scale(0.015625)"/>
       </defs>
       <use xlink:href="#DejaVuSans-38"/>
      </g>
     </g>
    </g>
    <g id="xtick_6">
     <g id="line2d_11">
      <path d="M 290.269091 307.584 
L 290.269091 41.472 
" clip-path="url(#pa26fe00353)" style="fill: none; stroke: #b0b0b0; stroke-width: 0.8; stroke-linecap: square"/>
     </g>
     <g id="line2d_12">
      <g>
       <use xlink:href="#m4b6575e19f" x="290.269091" y="307.584" style="stroke: #000000; stroke-width: 0.8"/>
      </g>
     </g>
     <g id="text_6">
      <!-- 10 -->
      <g transform="translate(283.906591 322.182437)scale(0.1 -0.1)">
       <defs>
        <path id="DejaVuSans-31" d="M 794 531 
L 1825 531 
L 1825 4091 
L 703 3866 
L 703 4441 
L 1819 4666 
L 2450 4666 
L 2450 531 
L 3481 531 
L 3481 0 
L 794 0 
L 794 531 
z
" transform="scale(0.015625)"/>
       </defs>
       <use xlink:href="#DejaVuSans-31"/>
       <use xlink:href="#DejaVuSans-30" x="63.623047"/>
      </g>
     </g>
    </g>
    <g id="xtick_7">
     <g id="line2d_13">
      <path d="M 333.556364 307.584 
L 333.556364 41.472 
" clip-path="url(#pa26fe00353)" style="fill: none; stroke: #b0b0b0; stroke-width: 0.8; stroke-linecap: square"/>
     </g>
     <g id="line2d_14">
      <g>
       <use xlink:href="#m4b6575e19f" x="333.556364" y="307.584" style="stroke: #000000; stroke-width: 0.8"/>
      </g>
     </g>
     <g id="text_7">
      <!-- 12 -->
      <g transform="translate(327.193864 322.182437)scale(0.1 -0.1)">
       <use xlink:href="#DejaVuSans-31"/>
       <use xlink:href="#DejaVuSans-32" x="63.623047"/>
      </g>
     </g>
    </g>
    <g id="xtick_8">
     <g id="line2d_15">
      <path d="M 376.843636 307.584 
L 376.843636 41.472 
" clip-path="url(#pa26fe00353)" style="fill: none; stroke: #b0b0b0; stroke-width: 0.8; stroke-linecap: square"/>
     </g>
     <g id="line2d_16">
      <g>
       <use xlink:href="#m4b6575e19f" x="376.843636" y="307.584" style="stroke: #000000; stroke-width: 0.8"/>
      </g>
     </g>
     <g id="text_8">
      <!-- 14 -->
      <g transform="translate(370.481136 322.182437)scale(0.1 -0.1)">
       <use xlink:href="#DejaVuSans-31"/>
       <use xlink:href="#DejaVuSans-34" x="63.623047"/>
      </g>
     </g>
    </g>
    <g id="text_9">
     <!-- time (s) -->
     <g transform="translate(216.768594 335.860562)scale(0.1 -0.1)">
      <defs>
       <path id="DejaVuSans-74" d="M 1172 4494 
L 1172 3500 
L 2356 3500 
L 2356 3053 
L 1172 3053 
L 1172 1153 
Q 1172 725 1289 603 
Q 1406 481 1766 481 
L 2356 481 
L 2356 0 
L 1766 0 
Q 1100 0 847 248 
Q 594 497 594 1153 
L 594 3053 
L 172 3053 
L 172 3500 
L 594 3500 
L 594 4494 
L 1172 4494 
z
" transform="scale(0.015625)"/>
       <path id="DejaVuSans-69" d="M 603 3500 
L 1178 3500 
L 1178 0 
L 603 0 
L 603 3500 
z
M 603 4863 
L 1178 4863 
L 1178 4134 
L 603 4134 
L 603 4863 
z
" transform="scale(0.015625)"/>
       <path id="DejaVuSans-6d" d="M 3328 2828 
Q 3544 3216 3844 3400 
Q 4144 3584 4550 3584 
Q 5097 3584 5394 3201 
Q 5691 2819 5691 2113 
L 5691 0 
L 5113 0 
L 5113 2094 
Q 5113 2597 4934 2840 
Q 4756 3084 4391 3084 
Q 3944 3084 3684 2787 
Q 3425 2491 3425 1978 
L 3425 0 
L 2847 0 
L 2847 2094 
Q 2847 2600 2669 2842 
Q 2491 3084 2119 3084 
Q 1678 3084 1418 2786 
Q 1159 2488 1159 1978 
L 1159 0 
L 581 0 
L 581 3500 
L 1159 3500 
L 1159 2956 
Q 1356 3278 1631 3431 
Q 1906 3584 2284 3584 
Q 2666 3584 2933 3390 
Q 3200 3197 3328 2828 
z
" transform="scale(0.015625)"/>
       <path id="DejaVuSans-65" d="M 3597 1894 
L 3597 1613 
L 953 1613 
Q 991 1019 1311 708 
Q 1631 397 2203 397 
Q 2534 397 2845 478 
Q 3156 559 3463 722 
L 3463 178 
Q 3153 47 2828 -22 
Q 2503 -91 2169 -91 
Q 1331 -91 842 396 
Q 353 884 353 1716 
Q 353 2575 817 3079 
Q 1281 3584 2069 3584 
Q 2775 3584 3186 3129 
Q 3597 2675 3597 1894 
z
M 3022 2063 
Q 3016 2534 2758 2815 
Q 2500 3097 2075 3097 
Q 1594 3097 1305 2825 
Q 1016 2553 972 2059 
L 3022 2063 
z
" transform="scale(0.015625)"/>
       <path id="DejaVuSans-20" transform="scale(0.015625)"/>
       <path id="DejaVuSans-28" d="M 1984 4856 
Q 1566 4138 1362 3434 
Q 1159 2731 1159 2009 
Q 1159 1288 1364 580 
Q 1569 -128 1984 -844 
L 1484 -844 
Q 1016 -109 783 600 
Q 550 1309 550 2009 
Q 550 2706 781 3412 
Q 1013 4119 1484 4856 
L 1984 4856 
z
" transform="scale(0.015625)"/>
       <path id="DejaVuSans-73" d="M 2834 3397 
L 2834 2853 
Q 2591 2978 2328 3040 
Q 2066 3103 1784 3103 
Q 1356 3103 1142 2972 
Q 928 2841 928 2578 
Q 928 2378 1081 2264 
Q 1234 2150 1697 2047 
L 1894 2003 
Q 2506 1872 2764 1633 
Q 3022 1394 3022 966 
Q 3022 478 2636 193 
Q 2250 -91 1575 -91 
Q 1294 -91 989 -36 
Q 684 19 347 128 
L 347 722 
Q 666 556 975 473 
Q 1284 391 1588 391 
Q 1994 391 2212 530 
Q 2431 669 2431 922 
Q 2431 1156 2273 1281 
Q 2116 1406 1581 1522 
L 1381 1569 
Q 847 1681 609 1914 
Q 372 2147 372 2553 
Q 372 3047 722 3315 
Q 1072 3584 1716 3584 
Q 2034 3584 2315 3537 
Q 2597 3491 2834 3397 
z
" transform="scale(0.015625)"/>
       <path id="DejaVuSans-29" d="M 513 4856 
L 1013 4856 
Q 1481 4119 1714 3412 
Q 1947 2706 1947 2009 
Q 1947 1309 1714 600 
Q 1481 -109 1013 -844 
L 513 -844 
Q 928 -128 1133 580 
Q 1338 1288 1338 2009 
Q 1338 2731 1133 3434 
Q 928 4138 513 4856 
z
" transform="scale(0.015625)"/>
      </defs>
      <use xlink:href="#DejaVuSans-74"/>
      <use xlink:href="#DejaVuSans-69" x="39.208984"/>
      <use xlink:href="#DejaVuSans-6d" x="66.992188"/>
      <use xlink:href="#DejaVuSans-65" x="164.404297"/>
      <use xlink:href="#DejaVuSans-20" x="225.927734"/>
      <use xlink:href="#DejaVuSans-28" x="257.714844"/>
      <use xlink:href="#DejaVuSans-73" x="296.728516"/>
      <use xlink:href="#DejaVuSans-29" x="348.828125"/>
     </g>
    </g>
   </g>
   <g id="matplotlib.axis_2">
    <g id="ytick_1">
     <g id="line2d_17">
      <path d="M 57.6 289.700294 
L 414.72 289.700294 
" clip-path="url(#pa26fe00353)" style="fill: none; stroke: #b0b0b0; stroke-width: 0.8; stroke-linecap: square"/>
     </g>
     <g id="line2d_18">
      <defs>
       <path id="m3fb87ae369" d="M 0 0 
L -3.5 0 
" style="stroke: #000000; stroke-width: 0.8"/>
      </defs>
      <g>
       <use xlink:href="#m3fb87ae369" x="57.6" y="289.700294" style="stroke: #000000; stroke-width: 0.8"/>
      </g>
     </g>
     <g id="text_10">
      <!-- −3 -->
      <g transform="translate(35.857813 293.499513)scale(0.1 -0.1)">
       <defs>
        <path id="DejaVuSans-2212" d="M 678 2272 
L 4684 2272 
L 4684 1741 
L 678 1741 
L 678 2272 
z
" transform="scale(0.015625)"/>
        <path id="DejaVuSans-33" d="M 2597 2516 
Q 3050 2419 3304 2112 
Q 3559 1806 3559 1356 
Q 3559 666 3084 287 
Q 2609 -91 1734 -91 
Q 1441 -91 1130 -33 
Q 819 25 488 141 
L 488 750 
Q 750 597 1062 519 
Q 1375 441 1716 441 
Q 2309 441 2620 675 
Q 2931 909 2931 1356 
Q 2931 1769 2642 2001 
Q 2353 2234 1838 2234 
L 1294 2234 
L 1294 2753 
L 1863 2753 
Q 2328 2753 2575 2939 
Q 2822 3125 2822 3475 
Q 2822 3834 2567 4026 
Q 2313 4219 1838 4219 
Q 1578 4219 1281 4162 
Q 984 4106 628 3988 
L 628 4550 
Q 988 4650 1302 4700 
Q 1616 4750 1894 4750 
Q 2613 4750 3031 4423 
Q 3450 4097 3450 3541 
Q 3450 3153 3228 2886 
Q 3006 2619 2597 2516 
z
" transform="scale(0.015625)"/>
       </defs>
       <use xlink:href="#DejaVuSans-2212"/>
       <use xlink:href="#DejaVuSans-33" x="83.789062"/>
      </g>
     </g>
    </g>
    <g id="ytick_2">
     <g id="line2d_19">
      <path d="M 57.6 249.106616 
L 414.72 249.106616 
" clip-path="url(#pa26fe00353)" style="fill: none; stroke: #b0b0b0; stroke-width: 0.8; stroke-linecap: square"/>
     </g>
     <g id="line2d_20">
      <g>
       <use xlink:href="#m3fb87ae369" x="57.6" y="249.106616" style="stroke: #000000; stroke-width: 0.8"/>
      </g>
     </g>
     <g id="text_11">
      <!-- −2 -->
      <g transform="translate(35.857813 252.905835)scale(0.1 -0.1)">
       <use xlink:href="#DejaVuSans-2212"/>
       <use xlink:href="#DejaVuSans-32" x="83.789062"/>
      </g>
     </g>
    </g>
    <g id="ytick_3">
     <g id="line2d_21">
      <path d="M 57.6 208.512939 
L 414.72 208.512939 
" clip-path="url(#pa26fe00353)" style="fill: none; stroke: #b0b0b0; stroke-width: 0.8; stroke-linecap: square"/>
     </g>
     <g id="line2d_22">
      <g>
       <use xlink:href="#m3fb87ae369" x="57.6" y="208.512939" style="stroke: #000000; stroke-width: 0.8"/>
      </g>
     </g>
     <g id="text_12">
      <!-- −1 -->
      <g transform="translate(35.857813 212.312158)scale(0.1 -0.1)">
       <use xlink:href="#DejaVuSans-2212"/>
       <use xlink:href="#DejaVuSans-31" x="83.789062"/>
      </g>
     </g>
    </g>
    <g id="ytick_4">
     <g id="line2d_23">
      <path d="M 57.6 167.919261 
L 414.72 167.919261 
" clip-path="url(#pa26fe00353)" style="fill: none; stroke: #b0b0b0; stroke-width: 0.8; stroke-linecap: square"/>
     </g>
     <g id="line2d_24">
      <g>
       <use xlink:href="#m3fb87ae369" x="57.6" y="167.919261" style="stroke: #000000; stroke-width: 0.8"/>
      </g>
     </g>
     <g id="text_13">
      <!-- 0 -->
      <g transform="translate(44.2375 171.71848)scale(0.1 -0.1)">
       <use xlink:href="#DejaVuSans-30"/>
      </g>
     </g>
    </g>
    <g id="ytick_5">
     <g id="line2d_25">
      <path d="M 57.6 127.325584 
L 414.72 127.325584 
" clip-path="url(#pa26fe00353)" style="fill: none; stroke: #b0b0b0; stroke-width: 0.8; stroke-linecap: square"/>
     </g>
     <g id="line2d_26">
      <g>
       <use xlink:href="#m3fb87ae369" x="57.6" y="127.325584" style="stroke: #000000; stroke-width: 0.8"/>
      </g>
     </g>
     <g id="text_14">
      <!-- 1 -->
      <g transform="translate(44.2375 131.124802)scale(0.1 -0.1)">
       <use xlink:href="#DejaVuSans-31"/>
      </g>
     </g>
    </g>
    <g id="ytick_6">
     <g id="line2d_27">
      <path d="M 57.6 86.731906 
L 414.72 86.731906 
" clip-path="url(#pa26fe00353)" style="fill: none; stroke: #b0b0b0; stroke-width: 0.8; stroke-linecap: square"/>
     </g>
     <g id="line2d_28">
      <g>
       <use xlink:href="#m3fb87ae369" x="57.6" y="86.731906" style="stroke: #000000; stroke-width: 0.8"/>
      </g>
     </g>
     <g id="text_15">
      <!-- 2 -->
      <g transform="translate(44.2375 90.531125)scale(0.1 -0.1)">
       <use xlink:href="#DejaVuSans-32"/>
      </g>
     </g>
    </g>
    <g id="ytick_7">
     <g id="line2d_29">
      <path d="M 57.6 46.138229 
L 414.72 46.138229 
" clip-path="url(#pa26fe00353)" style="fill: none; stroke: #b0b0b0; stroke-width: 0.8; stroke-linecap: square"/>
     </g>
     <g id="line2d_30">
      <g>
       <use xlink:href="#m3fb87ae369" x="57.6" y="46.138229" style="stroke: #000000; stroke-width: 0.8"/>
      </g>
     </g>
     <g id="text_16">
      <!-- 3 -->
      <g transform="translate(44.2375 49.937447)scale(0.1 -0.1)">
       <use xlink:href="#DejaVuSans-33"/>
      </g>
     </g>
    </g>
    <g id="text_17">
     <!-- theta -->
     <g transform="translate(29.778125 187.757688)rotate(-90)scale(0.1 -0.1)">
      <defs>
       <path id="DejaVuSans-68" d="M 3513 2113 
L 3513 0 
L 2938 0 
L 2938 2094 
Q 2938 2591 2744 2837 
Q 2550 3084 2163 3084 
Q 1697 3084 1428 2787 
Q 1159 2491 1159 1978 
L 1159 0 
L 581 0 
L 581 4863 
L 1159 4863 
L 1159 2956 
Q 1366 3272 1645 3428 
Q 1925 3584 2291 3584 
Q 2894 3584 3203 3211 
Q 3513 2838 3513 2113 
z
" transform="scale(0.015625)"/>
       <path id="DejaVuSans-61" d="M 2194 1759 
Q 1497 1759 1228 1600 
Q 959 1441 959 1056 
Q 959 750 1161 570 
Q 1363 391 1709 391 
Q 2188 391 2477 730 
Q 2766 1069 2766 1631 
L 2766 1759 
L 2194 1759 
z
M 3341 1997 
L 3341 0 
L 2766 0 
L 2766 531 
Q 2569 213 2275 61 
Q 1981 -91 1556 -91 
Q 1019 -91 701 211 
Q 384 513 384 1019 
Q 384 1609 779 1909 
Q 1175 2209 1959 2209 
L 2766 2209 
L 2766 2266 
Q 2766 2663 2505 2880 
Q 2244 3097 1772 3097 
Q 1472 3097 1187 3025 
Q 903 2953 641 2809 
L 641 3341 
Q 956 3463 1253 3523 
Q 1550 3584 1831 3584 
Q 2591 3584 2966 3190 
Q 3341 2797 3341 1997 
z
" transform="scale(0.015625)"/>
      </defs>
      <use xlink:href="#DejaVuSans-74"/>
      <use xlink:href="#DejaVuSans-68" x="39.208984"/>
      <use xlink:href="#DejaVuSans-65" x="102.587891"/>
      <use xlink:href="#DejaVuSans-74" x="164.111328"/>
      <use xlink:href="#DejaVuSans-61" x="203.320312"/>
     </g>
    </g>
   </g>
   <g id="line2d_31">
    <path d="M 73.832727 167.919261 
L 73.951767 167.811534 
L 74.131409 167.252177 
L 74.408448 165.53546 
L 74.806691 161.489396 
L 75.365097 153.284659 
L 78.139811 108.247935 
L 79.211171 95.825993 
L 80.163491 87.208815 
L 80.996771 81.551038 
L 81.713175 78.091115 
L 82.312704 76.187948 
L 82.797521 75.304028 
L 83.176285 75.016655 
L 83.485789 75.041528 
L 83.803951 75.307835 
L 84.189207 75.952766 
L 84.663203 77.222543 
L 85.238924 79.454461 
L 85.927191 83.081323 
L 86.738828 88.634374 
L 87.688983 96.768272 
L 88.805795 108.356165 
L 90.143372 124.690036 
L 91.83374 148.251869 
L 94.58681 190.270477 
L 97.504372 233.709801 
L 99.17959 255.432383 
L 100.521495 270.105705 
L 101.649129 280.141576 
L 102.610106 286.83374 
L 103.426071 291.070522 
L 104.112175 293.558142 
L 104.672745 294.841737 
L 105.118604 295.374417 
L 105.469231 295.48706 
L 105.787392 295.355104 
L 106.144512 294.941358 
L 106.577385 294.063766 
L 107.101161 292.453688 
L 107.726662 289.753169 
L 108.460381 285.528309 
L 109.31314 279.232424 
L 110.297926 270.208043 
L 111.442874 257.55021 
L 112.795601 239.986771 
L 114.477312 215.060856 
L 117.042083 173.273963 
L 120.325423 120.506536 
L 122.011462 96.959733 
L 123.357696 81.092565 
L 124.487494 70.245365 
L 125.450636 63.002335 
L 126.268765 58.408058 
L 126.957033 55.701815 
L 127.519767 54.296477 
L 127.965626 53.705833 
L 128.314089 53.568035 
L 128.621428 53.682772 
L 128.965562 54.073896 
L 129.383284 54.920289 
L 129.894074 56.505078 
L 130.506589 59.192114 
L 131.227322 63.426258 
L 132.06926 69.783549 
L 133.049716 78.985661 
L 134.196829 91.974473 
L 135.5712 110.214692 
L 137.341649 136.900098 
L 143.58151 233.734037 
L 144.927744 249.811593 
L 146.04672 260.674991 
L 146.992547 267.836717 
L 147.793361 272.332932 
L 148.46215 274.93207 
L 149.005405 276.247057 
L 149.431785 276.771612 
L 149.762932 276.868895 
L 150.063779 276.721636 
L 150.407913 276.278179 
L 150.829964 275.334914 
L 151.347247 273.583247 
L 151.966255 270.637956 
L 152.697809 265.996041 
L 153.552733 259.047315 
L 154.550505 249.005902 
L 155.730083 234.749066 
L 157.171549 214.454946 
L 159.162764 182.967616 
L 163.322671 116.551344 
L 164.807424 96.776207 
L 165.999988 83.675896 
L 166.99776 75.005176 
L 167.837533 69.505985 
L 168.538787 66.256436 
L 169.112343 64.541755 
L 169.564695 63.800588 
L 169.910993 63.601223 
L 170.201018 63.680914 
L 170.517015 64.023949 
L 170.904436 64.808468 
L 171.382761 66.326863 
L 171.96281 68.972896 
L 172.651078 73.229813 
L 173.46055 79.725272 
L 174.408541 89.243221 
L 175.529681 102.877585 
L 176.901888 122.456491 
L 178.784884 152.820565 
L 182.916655 220.260591 
L 184.323491 239.148942 
L 185.453289 251.516213 
L 186.392623 259.527432 
L 187.178287 264.473118 
L 187.827596 267.278312 
L 188.351372 268.665435 
L 188.753943 269.189881 
L 189.059119 269.270813 
L 189.336157 269.106929 
L 189.662976 268.623002 
L 190.072041 267.575156 
L 190.576337 265.612032 
L 191.184524 262.274489 
L 191.905257 256.987707 
L 192.753687 249.008955 
L 193.755788 237.348385 
L 194.963503 220.52926 
L 196.51968 195.503784 
L 202.121053 102.361328 
L 203.283316 88.165005 
L 204.237801 79.037753 
L 205.029958 73.426151 
L 205.683596 70.238024 
L 206.207372 68.664773 
L 206.607779 68.064637 
L 206.904297 67.960543 
L 207.16402 68.108485 
L 207.47136 68.572458 
L 207.860945 69.609965 
L 208.345763 71.598021 
L 208.932305 75.020226 
L 209.633559 80.529368 
L 210.462511 88.927783 
L 211.445132 101.294263 
L 212.63986 119.324098 
L 214.217681 146.79079 
L 218.847255 229.531961 
L 220.031162 245.723806 
L 220.987811 255.981003 
L 221.775639 262.231283 
L 222.42062 265.741669 
L 222.933574 267.450002 
L 223.323159 268.089009 
L 223.602362 268.192654 
L 223.844771 268.04126 
L 224.13696 267.559885 
L 224.513559 266.457898 
L 224.985391 264.316493 
L 225.558947 260.591543 
L 226.247215 254.547136 
L 227.06318 245.280908 
L 228.039308 231.491936 
L 229.242694 211.119753 
L 230.911418 178.705671 
L 234.354921 111.109034 
L 235.571293 91.978055 
L 236.281204 83.610798 
L 236.579887 82.309277 
L 236.731392 82.211672 
L 236.750871 82.226056 
L 236.889391 82.488325 
L 237.11232 83.49018 
L 237.430481 86.059344 
L 237.891491 91.85265 
L 238.508335 102.688104 
L 239.389231 122.380022 
L 243.137908 210.767642 
L 244.007983 224.267112 
L 244.748195 232.511239 
L 245.352052 236.976898 
L 245.849856 239.159961 
L 246.232948 239.947286 
L 246.477521 240.0601 
L 246.698287 239.910631 
L 246.988311 239.365086 
L 247.375732 238.049222 
L 247.888687 235.350963 
L 248.535831 230.576121 
L 249.343139 222.859924 
L 250.511895 209.26657 
L 254.725911 157.852452 
L 255.875188 147.600854 
L 256.840495 140.968475 
L 257.630487 136.919624 
L 258.338234 134.314346 
L 258.983215 132.73449 
L 259.537292 131.937071 
L 260.041588 131.624356 
L 260.502598 131.649914 
L 261.019881 131.999538 
L 261.643217 132.809285 
L 262.491648 134.4761 
L 263.506735 137.088395 
L 265.000145 141.591914 
L 267.272727 148.486172 
L 268.748823 152.302966 
L 270.125359 155.150667 
L 271.274636 156.986978 
L 272.255092 158.18682 
L 273.532067 159.311136 
L 275.179148 160.215329 
L 277.19417 160.801757 
L 281.27616 161.61278 
L 285.5616 162.987435 
L 289.888163 164.654442 
L 291.883706 165.322241 
L 297.651735 166.598197 
L 299.086708 166.762629 
L 301.138525 166.957067 
L 302.538868 167.113848 
L 310.122799 167.493454 
L 311.575087 167.636098 
L 323.496401 167.800092 
L 325.597999 167.830585 
L 327.777513 167.865206 
L 330.0133 167.896393 
L 332.10624 167.917943 
L 334.380986 167.931183 
L 336.486912 167.935547 
L 338.709713 167.934084 
L 340.863255 167.929975 
L 343.034112 167.925073 
L 345.222284 167.921334 
L 347.380154 167.919013 
L 349.568326 167.918435 
L 351.734854 167.918728 
L 353.910039 167.919759 
L 356.085225 167.920593 
L 358.256081 167.921362 
L 360.431267 167.92151 
L 362.602124 167.921516 
L 364.777309 167.921057 
L 366.948166 167.920721 
L 369.119023 167.920182 
L 371.294208 167.919956 
L 373.465065 167.919627 
L 375.64025 167.919626 
L 377.811107 167.91948 
L 379.986292 167.919594 
L 382.161478 167.919495 
L 384.332335 167.919609 
L 386.50752 167.919483 
L 388.678377 167.919564 
L 390.853562 167.919413 
L 393.028748 167.919482 
L 395.203933 167.919333 
L 397.379119 167.919413 
L 398.487273 167.919401 
L 398.487273 167.919401 
" clip-path="url(#pa26fe00353)" style="fill: none; stroke-dasharray: 5.55,2.4; stroke-dashoffset: 0; stroke: #ff0000; stroke-width: 1.5"/>
   </g>
   <g id="line2d_32">
    <path d="M 73.832727 167.919261 
L 74.841321 167.808262 
L 75.434356 167.50358 
L 76.005748 166.947197 
L 76.659386 165.975677 
L 77.436393 164.396098 
L 78.369233 161.962781 
L 79.505524 158.336626 
L 80.953484 152.917061 
L 83.184943 143.581211 
L 86.301626 130.692149 
L 87.859968 125.194808 
L 89.104477 121.571443 
L 90.152029 119.164541 
L 91.045911 117.632127 
L 91.81426 116.727148 
L 92.47872 116.266047 
L 93.069591 116.113711 
L 93.630161 116.197344 
L 94.203718 116.515044 
L 94.829219 117.129958 
L 95.528308 118.147207 
L 96.320465 119.714944 
L 97.220841 122.017498 
L 98.246749 125.284384 
L 99.424163 129.814131 
L 100.800698 136.040239 
L 102.484573 144.750683 
L 104.887017 158.482096 
L 108.936541 181.626501 
L 110.668032 190.171616 
L 112.064047 196.002864 
L 113.245789 200.038968 
L 114.265204 202.776937 
L 115.1461 204.548039 
L 115.907956 205.616227 
L 116.568087 206.185976 
L 117.150301 206.411342 
L 117.691392 206.387351 
L 118.238976 206.135011 
L 118.834176 205.603123 
L 119.505129 204.68749 
L 120.273478 203.239283 
L 121.156538 201.071274 
L 122.175953 197.944205 
L 123.366353 193.533539 
L 124.794833 187.336536 
L 126.658351 178.18226 
L 132.558406 148.454592 
L 133.999872 142.703536 
L 135.196765 138.788805 
L 136.220509 136.155191 
L 137.101405 134.463424 
L 137.861097 133.453373 
L 138.516899 132.925658 
L 139.096948 132.728615 
L 139.640204 132.774792 
L 140.194281 133.051208 
L 140.798138 133.613694 
L 141.482077 134.573836 
L 142.263412 136.077749 
L 143.161623 138.316737 
L 144.202682 141.542498 
L 145.429876 146.111232 
L 146.934109 152.623941 
L 149.05735 162.911757 
L 152.979177 181.990561 
L 154.544012 188.423238 
L 155.801507 192.707403 
L 156.862045 195.579663 
L 157.768913 197.436567 
L 158.548084 198.561572 
L 159.221201 199.170198 
L 159.812073 199.421483 
L 160.357492 199.416799 
L 160.902912 199.185114 
L 161.493783 198.68012 
L 162.158243 197.802248 
L 162.920099 196.404243 
L 163.798831 194.298293 
L 164.82041 191.237799 
L 166.030289 186.868062 
L 167.530193 180.561162 
L 169.768145 170.063801 
L 172.954089 155.261016 
L 174.486458 149.203795 
L 175.707159 145.229936 
L 176.730903 142.606015 
L 177.603142 140.940304 
L 178.349847 139.958821 
L 178.992663 139.454639 
L 179.559727 139.276581 
L 180.094324 139.33925 
L 180.641908 139.634924 
L 181.243601 140.227049 
L 181.92754 141.232526 
L 182.713204 142.807625 
L 183.624401 145.162352 
L 184.695761 148.584758 
L 185.992215 153.518888 
L 187.708556 161.002195 
L 192.55673 182.646375 
L 193.870499 187.250175 
L 194.946188 190.260737 
L 195.853056 192.181929 
L 196.623569 193.331013 
L 197.2837 193.944578 
L 197.857257 194.192388 
L 198.383197 194.183797 
L 198.911302 193.947933 
L 199.487023 193.433522 
L 200.138496 192.534035 
L 200.88953 191.093696 
L 201.761769 188.910851 
L 202.789841 185.702512 
L 204.038679 181.029185 
L 205.705239 173.854309 
L 210.185472 154.129299 
L 211.455953 149.751323 
L 212.488355 146.940519 
L 213.351936 145.188791 
L 214.083491 144.170642 
L 214.704663 143.658202 
L 215.247919 143.481909 
L 215.75438 143.548439 
L 216.275991 143.84977 
L 216.853876 144.456543 
L 217.516172 145.496413 
L 218.284521 147.143953 
L 219.184896 149.633538 
L 220.262749 153.310298 
L 221.619805 158.789799 
L 223.786333 168.61582 
L 226.19527 179.240278 
L 227.524189 184.129341 
L 228.571741 187.19315 
L 229.439651 189.09308 
L 230.166877 190.190716 
L 230.779392 190.744614 
L 231.307497 190.941665 
L 231.794479 190.890061 
L 232.292282 190.605616 
L 232.846359 190.016185 
L 233.484847 188.988872 
L 234.229388 187.341071 
L 235.108119 184.821351 
L 236.170822 181.053838 
L 238.577594 172.215685 
L 239.404381 170.124227 
L 240.073169 168.986618 
L 240.627247 168.444135 
L 241.099078 168.26988 
L 241.540608 168.341105 
L 242.008111 168.653248 
L 242.55353 169.305231 
L 243.215825 170.471912 
L 244.044777 172.419224 
L 245.15726 175.653214 
L 249.771683 189.754014 
L 250.780276 191.813289 
L 251.648186 193.111127 
L 252.414371 193.881002 
L 253.106967 194.277865 
L 253.760605 194.403202 
L 254.416407 194.301539 
L 255.124154 193.958832 
L 255.931462 193.308336 
L 256.903261 192.221694 
L 258.154263 190.463081 
L 260.1563 187.205764 
L 263.149615 182.400096 
L 264.874612 180.062686 
L 266.439447 178.307557 
L 267.976145 176.913201 
L 269.577775 175.759628 
L 271.36121 174.75313 
L 273.549382 173.784074 
L 276.735325 172.638374 
L 281.782621 171.071106 
L 285.76505 170.048025 
L 289.314607 169.365112 
L 293.113065 168.867919 
L 297.744803 168.495995 
L 304.646959 168.190278 
L 314.501306 167.994268 
L 339.469405 167.915664 
L 398.487273 167.919208 
L 398.487273 167.919208 
" clip-path="url(#pa26fe00353)" style="fill: none; stroke: #008000; stroke-width: 1.5; stroke-linecap: square"/>
   </g>
   <g id="patch_3">
    <path d="M 57.6 307.584 
L 57.6 41.472 
" style="fill: none; stroke: #000000; stroke-width: 0.8; stroke-linejoin: miter; stroke-linecap: square"/>
   </g>
   <g id="patch_4">
    <path d="M 414.72 307.584 
L 414.72 41.472 
" style="fill: none; stroke: #000000; stroke-width: 0.8; stroke-linejoin: miter; stroke-linecap: square"/>
   </g>
   <g id="patch_5">
    <path d="M 57.6 307.584 
L 414.72 307.584 
" style="fill: none; stroke: #000000; stroke-width: 0.8; stroke-linejoin: miter; stroke-linecap: square"/>
   </g>
   <g id="patch_6">
    <path d="M 57.6 41.472 
L 414.72 41.472 
" style="fill: none; stroke: #000000; stroke-width: 0.8; stroke-linejoin: miter; stroke-linecap: square"/>
   </g>
   <g id="text_18">
    <!-- theta vs time -->
    <g transform="translate(196.238438 35.472)scale(0.12 -0.12)">
     <defs>
      <path id="DejaVuSans-76" d="M 191 3500 
L 800 3500 
L 1894 563 
L 2988 3500 
L 3597 3500 
L 2284 0 
L 1503 0 
L 191 3500 
z
" transform="scale(0.015625)"/>
     </defs>
     <use xlink:href="#DejaVuSans-74"/>
     <use xlink:href="#DejaVuSans-68" x="39.208984"/>
     <use xlink:href="#DejaVuSans-65" x="102.587891"/>
     <use xlink:href="#DejaVuSans-74" x="164.111328"/>
     <use xlink:href="#DejaVuSans-61" x="203.320312"/>
     <use xlink:href="#DejaVuSans-20" x="264.599609"/>
     <use xlink:href="#DejaVuSans-76" x="296.386719"/>
     <use xlink:href="#DejaVuSans-73" x="355.566406"/>
     <use xlink:href="#DejaVuSans-20" x="407.666016"/>
     <use xlink:href="#DejaVuSans-74" x="439.453125"/>
     <use xlink:href="#DejaVuSans-69" x="478.662109"/>
     <use xlink:href="#DejaVuSans-6d" x="506.445312"/>
     <use xlink:href="#DejaVuSans-65" x="603.857422"/>
    </g>
   </g>
   <g id="legend_1">
    <g id="patch_7">
     <path d="M 273.271563 79.106375 
L 407.72 79.106375 
Q 409.72 79.106375 409.72 77.106375 
L 409.72 48.472 
Q 409.72 46.472 407.72 46.472 
L 273.271563 46.472 
Q 271.271563 46.472 271.271563 48.472 
L 271.271563 77.106375 
Q 271.271563 79.106375 273.271563 79.106375 
z
" style="fill: #ffffff; opacity: 0.8; stroke: #cccccc; stroke-linejoin: miter"/>
    </g>
    <g id="line2d_33">
     <path d="M 275.271563 54.570438 
L 285.271563 54.570438 
L 295.271563 54.570438 
" style="fill: none; stroke-dasharray: 5.55,2.4; stroke-dashoffset: 0; stroke: #ff0000; stroke-width: 1.5"/>
    </g>
    <g id="text_19">
     <!-- theta_dot (degree/s) -->
     <g transform="translate(303.271563 58.070438)scale(0.1 -0.1)">
      <defs>
       <path id="DejaVuSans-5f" d="M 3263 -1063 
L 3263 -1509 
L -63 -1509 
L -63 -1063 
L 3263 -1063 
z
" transform="scale(0.015625)"/>
       <path id="DejaVuSans-64" d="M 2906 2969 
L 2906 4863 
L 3481 4863 
L 3481 0 
L 2906 0 
L 2906 525 
Q 2725 213 2448 61 
Q 2172 -91 1784 -91 
Q 1150 -91 751 415 
Q 353 922 353 1747 
Q 353 2572 751 3078 
Q 1150 3584 1784 3584 
Q 2172 3584 2448 3432 
Q 2725 3281 2906 2969 
z
M 947 1747 
Q 947 1113 1208 752 
Q 1469 391 1925 391 
Q 2381 391 2643 752 
Q 2906 1113 2906 1747 
Q 2906 2381 2643 2742 
Q 2381 3103 1925 3103 
Q 1469 3103 1208 2742 
Q 947 2381 947 1747 
z
" transform="scale(0.015625)"/>
       <path id="DejaVuSans-6f" d="M 1959 3097 
Q 1497 3097 1228 2736 
Q 959 2375 959 1747 
Q 959 1119 1226 758 
Q 1494 397 1959 397 
Q 2419 397 2687 759 
Q 2956 1122 2956 1747 
Q 2956 2369 2687 2733 
Q 2419 3097 1959 3097 
z
M 1959 3584 
Q 2709 3584 3137 3096 
Q 3566 2609 3566 1747 
Q 3566 888 3137 398 
Q 2709 -91 1959 -91 
Q 1206 -91 779 398 
Q 353 888 353 1747 
Q 353 2609 779 3096 
Q 1206 3584 1959 3584 
z
" transform="scale(0.015625)"/>
       <path id="DejaVuSans-67" d="M 2906 1791 
Q 2906 2416 2648 2759 
Q 2391 3103 1925 3103 
Q 1463 3103 1205 2759 
Q 947 2416 947 1791 
Q 947 1169 1205 825 
Q 1463 481 1925 481 
Q 2391 481 2648 825 
Q 2906 1169 2906 1791 
z
M 3481 434 
Q 3481 -459 3084 -895 
Q 2688 -1331 1869 -1331 
Q 1566 -1331 1297 -1286 
Q 1028 -1241 775 -1147 
L 775 -588 
Q 1028 -725 1275 -790 
Q 1522 -856 1778 -856 
Q 2344 -856 2625 -561 
Q 2906 -266 2906 331 
L 2906 616 
Q 2728 306 2450 153 
Q 2172 0 1784 0 
Q 1141 0 747 490 
Q 353 981 353 1791 
Q 353 2603 747 3093 
Q 1141 3584 1784 3584 
Q 2172 3584 2450 3431 
Q 2728 3278 2906 2969 
L 2906 3500 
L 3481 3500 
L 3481 434 
z
" transform="scale(0.015625)"/>
       <path id="DejaVuSans-72" d="M 2631 2963 
Q 2534 3019 2420 3045 
Q 2306 3072 2169 3072 
Q 1681 3072 1420 2755 
Q 1159 2438 1159 1844 
L 1159 0 
L 581 0 
L 581 3500 
L 1159 3500 
L 1159 2956 
Q 1341 3275 1631 3429 
Q 1922 3584 2338 3584 
Q 2397 3584 2469 3576 
Q 2541 3569 2628 3553 
L 2631 2963 
z
" transform="scale(0.015625)"/>
       <path id="DejaVuSans-2f" d="M 1625 4666 
L 2156 4666 
L 531 -594 
L 0 -594 
L 1625 4666 
z
" transform="scale(0.015625)"/>
      </defs>
      <use xlink:href="#DejaVuSans-74"/>
      <use xlink:href="#DejaVuSans-68" x="39.208984"/>
      <use xlink:href="#DejaVuSans-65" x="102.587891"/>
      <use xlink:href="#DejaVuSans-74" x="164.111328"/>
      <use xlink:href="#DejaVuSans-61" x="203.320312"/>
      <use xlink:href="#DejaVuSans-5f" x="264.599609"/>
      <use xlink:href="#DejaVuSans-64" x="314.599609"/>
      <use xlink:href="#DejaVuSans-6f" x="378.076172"/>
      <use xlink:href="#DejaVuSans-74" x="439.257812"/>
      <use xlink:href="#DejaVuSans-20" x="478.466797"/>
      <use xlink:href="#DejaVuSans-28" x="510.253906"/>
      <use xlink:href="#DejaVuSans-64" x="549.267578"/>
      <use xlink:href="#DejaVuSans-65" x="612.744141"/>
      <use xlink:href="#DejaVuSans-67" x="674.267578"/>
      <use xlink:href="#DejaVuSans-72" x="737.744141"/>
      <use xlink:href="#DejaVuSans-65" x="776.607422"/>
      <use xlink:href="#DejaVuSans-65" x="838.130859"/>
      <use xlink:href="#DejaVuSans-2f" x="899.654297"/>
      <use xlink:href="#DejaVuSans-73" x="933.345703"/>
      <use xlink:href="#DejaVuSans-29" x="985.445312"/>
     </g>
    </g>
    <g id="line2d_34">
     <path d="M 275.271563 69.526688 
L 285.271563 69.526688 
L 295.271563 69.526688 
" style="fill: none; stroke: #008000; stroke-width: 1.5; stroke-linecap: square"/>
    </g>
    <g id="text_20">
     <!-- theta (degree) -->
     <g transform="translate(303.271563 73.026688)scale(0.1 -0.1)">
      <use xlink:href="#DejaVuSans-74"/>
      <use xlink:href="#DejaVuSans-68" x="39.208984"/>
      <use xlink:href="#DejaVuSans-65" x="102.587891"/>
      <use xlink:href="#DejaVuSans-74" x="164.111328"/>
      <use xlink:href="#DejaVuSans-61" x="203.320312"/>
      <use xlink:href="#DejaVuSans-20" x="264.599609"/>
      <use xlink:href="#DejaVuSans-28" x="296.386719"/>
      <use xlink:href="#DejaVuSans-64" x="335.400391"/>
      <use xlink:href="#DejaVuSans-65" x="398.876953"/>
      <use xlink:href="#DejaVuSans-67" x="460.400391"/>
      <use xlink:href="#DejaVuSans-72" x="523.876953"/>
      <use xlink:href="#DejaVuSans-65" x="562.740234"/>
      <use xlink:href="#DejaVuSans-65" x="624.263672"/>
      <use xlink:href="#DejaVuSans-29" x="685.787109"/>
     </g>
    </g>
   </g>
  </g>
 </g>
 <defs>
  <clipPath id="pa26fe00353">
   <rect x="57.6" y="41.472" width="357.12" height="266.112"/>
  </clipPath>
 </defs>
</svg>
