<?xml version="1.0" encoding="utf-8" standalone="no"?>
<!DOCTYPE svg PUBLIC "-//W3C//DTD SVG 1.1//EN"
  "http://www.w3.org/Graphics/SVG/1.1/DTD/svg11.dtd">
<svg xmlns:xlink="http://www.w3.org/1999/xlink" width="460.8pt" height="345.6pt" viewBox="0 0 460.8 345.6" xmlns="http://www.w3.org/2000/svg" version="1.1">
 <metadata>
  <rdf:RDF xmlns:dc="http://purl.org/dc/elements/1.1/" xmlns:cc="http://creativecommons.org/ns#" xmlns:rdf="http://www.w3.org/1999/02/22-rdf-syntax-ns#">
   <cc:Work>
    <dc:type rdf:resource="http://purl.org/dc/dcmitype/StillImage"/>
    <dc:date>2023-08-23T17:48:37.918128</dc:date>
    <dc:format>image/svg+xml</dc:format>
    <dc:creator>
     <cc:Agent>
      <dc:title>Matplotlib v3.5.3, https://matplotlib.org/</dc:title>
     </cc:Agent>
    </dc:creator>
   </cc:Work>
  </rdf:RDF>
 </metadata>
 <defs>
  <style type="text/css">*{stroke-linejoin: round; stroke-linecap: butt}</style>
 </defs>
 <g id="figure_1">
  <g id="patch_1">
   <path d="M 0 345.6 
L 460.8 345.6 
L 460.8 0 
L 0 0 
L 0 345.6 
z
" style="fill: none"/>
  </g>
  <g id="axes_1">
   <g id="patch_2">
    <path d="M 57.6 307.584 
L 414.72 307.584 
L 414.72 41.472 
L 57.6 41.472 
L 57.6 307.584 
z
" style="fill: none"/>
   </g>
   <g id="matplotlib.axis_1">
    <g id="xtick_1">
     <g id="line2d_1">
      <path d="M 73.832727 307.584 
L 73.832727 41.472 
" clip-path="url(#pd8bd92f3ef)" style="fill: none; stroke: #b0b0b0; stroke-width: 0.8; stroke-linecap: square"/>
     </g>
     <g id="line2d_2">
      <defs>
       <path id="mf016796218" d="M 0 0 
L 0 3.5 
" style="stroke: #000000; stroke-width: 0.8"/>
      </defs>
      <g>
       <use xlink:href="#mf016796218" x="73.832727" y="307.584" style="stroke: #000000; stroke-width: 0.8"/>
      </g>
     </g>
     <g id="text_1">
      <!-- 0 -->
      <g transform="translate(70.651477 322.182437)scale(0.1 -0.1)">
       <defs>
        <path id="DejaVuSans-30" d="M 2034 4250 
Q 1547 4250 1301 3770 
Q 1056 3291 1056 2328 
Q 1056 1369 1301 889 
Q 1547 409 2034 409 
Q 2525 409 2770 889 
Q 3016 1369 3016 2328 
Q 3016 3291 2770 3770 
Q 2525 4250 2034 4250 
z
M 2034 4750 
Q 2819 4750 3233 4129 
Q 3647 3509 3647 2328 
Q 3647 1150 3233 529 
Q 2819 -91 2034 -91 
Q 1250 -91 836 529 
Q 422 1150 422 2328 
Q 422 3509 836 4129 
Q 1250 4750 2034 4750 
z
" transform="scale(0.015625)"/>
       </defs>
       <use xlink:href="#DejaVuSans-30"/>
      </g>
     </g>
    </g>
    <g id="xtick_2">
     <g id="line2d_3">
      <path d="M 117.12 307.584 
L 117.12 41.472 
" clip-path="url(#pd8bd92f3ef)" style="fill: none; stroke: #b0b0b0; stroke-width: 0.8; stroke-linecap: square"/>
     </g>
     <g id="line2d_4">
      <g>
       <use xlink:href="#mf016796218" x="117.12" y="307.584" style="stroke: #000000; stroke-width: 0.8"/>
      </g>
     </g>
     <g id="text_2">
      <!-- 2 -->
      <g transform="translate(113.93875 322.182437)scale(0.1 -0.1)">
       <defs>
        <path id="DejaVuSans-32" d="M 1228 531 
L 3431 531 
L 3431 0 
L 469 0 
L 469 531 
Q 828 903 1448 1529 
Q 2069 2156 2228 2338 
Q 2531 2678 2651 2914 
Q 2772 3150 2772 3378 
Q 2772 3750 2511 3984 
Q 2250 4219 1831 4219 
Q 1534 4219 1204 4116 
Q 875 4013 500 3803 
L 500 4441 
Q 881 4594 1212 4672 
Q 1544 4750 1819 4750 
Q 2544 4750 2975 4387 
Q 3406 4025 3406 3419 
Q 3406 3131 3298 2873 
Q 3191 2616 2906 2266 
Q 2828 2175 2409 1742 
Q 1991 1309 1228 531 
z
" transform="scale(0.015625)"/>
       </defs>
       <use xlink:href="#DejaVuSans-32"/>
      </g>
     </g>
    </g>
    <g id="xtick_3">
     <g id="line2d_5">
      <path d="M 160.407273 307.584 
L 160.407273 41.472 
" clip-path="url(#pd8bd92f3ef)" style="fill: none; stroke: #b0b0b0; stroke-width: 0.8; stroke-linecap: square"/>
     </g>
     <g id="line2d_6">
      <g>
       <use xlink:href="#mf016796218" x="160.407273" y="307.584" style="stroke: #000000; stroke-width: 0.8"/>
      </g>
     </g>
     <g id="text_3">
      <!-- 4 -->
      <g transform="translate(157.226023 322.182437)scale(0.1 -0.1)">
       <defs>
        <path id="DejaVuSans-34" d="M 2419 4116 
L 825 1625 
L 2419 1625 
L 2419 4116 
z
M 2253 4666 
L 3047 4666 
L 3047 1625 
L 3713 1625 
L 3713 1100 
L 3047 1100 
L 3047 0 
L 2419 0 
L 2419 1100 
L 313 1100 
L 313 1709 
L 2253 4666 
z
" transform="scale(0.015625)"/>
       </defs>
       <use xlink:href="#DejaVuSans-34"/>
      </g>
     </g>
    </g>
    <g id="xtick_4">
     <g id="line2d_7">
      <path d="M 203.694545 307.584 
L 203.694545 41.472 
" clip-path="url(#pd8bd92f3ef)" style="fill: none; stroke: #b0b0b0; stroke-width: 0.8; stroke-linecap: square"/>
     </g>
     <g id="line2d_8">
      <g>
       <use xlink:href="#mf016796218" x="203.694545" y="307.584" style="stroke: #000000; stroke-width: 0.8"/>
      </g>
     </g>
     <g id="text_4">
      <!-- 6 -->
      <g transform="translate(200.513295 322.182437)scale(0.1 -0.1)">
       <defs>
        <path id="DejaVuSans-36" d="M 2113 2584 
Q 1688 2584 1439 2293 
Q 1191 2003 1191 1497 
Q 1191 994 1439 701 
Q 1688 409 2113 409 
Q 2538 409 2786 701 
Q 3034 994 3034 1497 
Q 3034 2003 2786 2293 
Q 2538 2584 2113 2584 
z
M 3366 4563 
L 3366 3988 
Q 3128 4100 2886 4159 
Q 2644 4219 2406 4219 
Q 1781 4219 1451 3797 
Q 1122 3375 1075 2522 
Q 1259 2794 1537 2939 
Q 1816 3084 2150 3084 
Q 2853 3084 3261 2657 
Q 3669 2231 3669 1497 
Q 3669 778 3244 343 
Q 2819 -91 2113 -91 
Q 1303 -91 875 529 
Q 447 1150 447 2328 
Q 447 3434 972 4092 
Q 1497 4750 2381 4750 
Q 2619 4750 2861 4703 
Q 3103 4656 3366 4563 
z
" transform="scale(0.015625)"/>
       </defs>
       <use xlink:href="#DejaVuSans-36"/>
      </g>
     </g>
    </g>
    <g id="xtick_5">
     <g id="line2d_9">
      <path d="M 246.981818 307.584 
L 246.981818 41.472 
" clip-path="url(#pd8bd92f3ef)" style="fill: none; stroke: #b0b0b0; stroke-width: 0.8; stroke-linecap: square"/>
     </g>
     <g id="line2d_10">
      <g>
       <use xlink:href="#mf016796218" x="246.981818" y="307.584" style="stroke: #000000; stroke-width: 0.8"/>
      </g>
     </g>
     <g id="text_5">
      <!-- 8 -->
      <g transform="translate(243.800568 322.182437)scale(0.1 -0.1)">
       <defs>
        <path id="DejaVuSans-38" d="M 2034 2216 
Q 1584 2216 1326 1975 
Q 1069 1734 1069 1313 
Q 1069 891 1326 650 
Q 1584 409 2034 409 
Q 2484 409 2743 651 
Q 3003 894 3003 1313 
Q 3003 1734 2745 1975 
Q 2488 2216 2034 2216 
z
M 1403 2484 
Q 997 2584 770 2862 
Q 544 3141 544 3541 
Q 544 4100 942 4425 
Q 1341 4750 2034 4750 
Q 2731 4750 3128 4425 
Q 3525 4100 3525 3541 
Q 3525 3141 3298 2862 
Q 3072 2584 2669 2484 
Q 3125 2378 3379 2068 
Q 3634 1759 3634 1313 
Q 3634 634 3220 271 
Q 2806 -91 2034 -91 
Q 1263 -91 848 271 
Q 434 634 434 1313 
Q 434 1759 690 2068 
Q 947 2378 1403 2484 
z
M 1172 3481 
Q 1172 3119 1398 2916 
Q 1625 2713 2034 2713 
Q 2441 2713 2670 2916 
Q 2900 3119 2900 3481 
Q 2900 3844 2670 4047 
Q 2441 4250 2034 4250 
Q 1625 4250 1398 4047 
Q 1172 3844 1172 3481 
z
" transform="scale(0.015625)"/>
       </defs>
       <use xlink:href="#DejaVuSans-38"/>
      </g>
     </g>
    </g>
    <g id="xtick_6">
     <g id="line2d_11">
      <path d="M 290.269091 307.584 
L 290.269091 41.472 
" clip-path="url(#pd8bd92f3ef)" style="fill: none; stroke: #b0b0b0; stroke-width: 0.8; stroke-linecap: square"/>
     </g>
     <g id="line2d_12">
      <g>
       <use xlink:href="#mf016796218" x="290.269091" y="307.584" style="stroke: #000000; stroke-width: 0.8"/>
      </g>
     </g>
     <g id="text_6">
      <!-- 10 -->
      <g transform="translate(283.906591 322.182437)scale(0.1 -0.1)">
       <defs>
        <path id="DejaVuSans-31" d="M 794 531 
L 1825 531 
L 1825 4091 
L 703 3866 
L 703 4441 
L 1819 4666 
L 2450 4666 
L 2450 531 
L 3481 531 
L 3481 0 
L 794 0 
L 794 531 
z
" transform="scale(0.015625)"/>
       </defs>
       <use xlink:href="#DejaVuSans-31"/>
       <use xlink:href="#DejaVuSans-30" x="63.623047"/>
      </g>
     </g>
    </g>
    <g id="xtick_7">
     <g id="line2d_13">
      <path d="M 333.556364 307.584 
L 333.556364 41.472 
" clip-path="url(#pd8bd92f3ef)" style="fill: none; stroke: #b0b0b0; stroke-width: 0.8; stroke-linecap: square"/>
     </g>
     <g id="line2d_14">
      <g>
       <use xlink:href="#mf016796218" x="333.556364" y="307.584" style="stroke: #000000; stroke-width: 0.8"/>
      </g>
     </g>
     <g id="text_7">
      <!-- 12 -->
      <g transform="translate(327.193864 322.182437)scale(0.1 -0.1)">
       <use xlink:href="#DejaVuSans-31"/>
       <use xlink:href="#DejaVuSans-32" x="63.623047"/>
      </g>
     </g>
    </g>
    <g id="xtick_8">
     <g id="line2d_15">
      <path d="M 376.843636 307.584 
L 376.843636 41.472 
" clip-path="url(#pd8bd92f3ef)" style="fill: none; stroke: #b0b0b0; stroke-width: 0.8; stroke-linecap: square"/>
     </g>
     <g id="line2d_16">
      <g>
       <use xlink:href="#mf016796218" x="376.843636" y="307.584" style="stroke: #000000; stroke-width: 0.8"/>
      </g>
     </g>
     <g id="text_8">
      <!-- 14 -->
      <g transform="translate(370.481136 322.182437)scale(0.1 -0.1)">
       <use xlink:href="#DejaVuSans-31"/>
       <use xlink:href="#DejaVuSans-34" x="63.623047"/>
      </g>
     </g>
    </g>
    <g id="text_9">
     <!-- time (s) -->
     <g transform="translate(216.768594 335.860562)scale(0.1 -0.1)">
      <defs>
       <path id="DejaVuSans-74" d="M 1172 4494 
L 1172 3500 
L 2356 3500 
L 2356 3053 
L 1172 3053 
L 1172 1153 
Q 1172 725 1289 603 
Q 1406 481 1766 481 
L 2356 481 
L 2356 0 
L 1766 0 
Q 1100 0 847 248 
Q 594 497 594 1153 
L 594 3053 
L 172 3053 
L 172 3500 
L 594 3500 
L 594 4494 
L 1172 4494 
z
" transform="scale(0.015625)"/>
       <path id="DejaVuSans-69" d="M 603 3500 
L 1178 3500 
L 1178 0 
L 603 0 
L 603 3500 
z
M 603 4863 
L 1178 4863 
L 1178 4134 
L 603 4134 
L 603 4863 
z
" transform="scale(0.015625)"/>
       <path id="DejaVuSans-6d" d="M 3328 2828 
Q 3544 3216 3844 3400 
Q 4144 3584 4550 3584 
Q 5097 3584 5394 3201 
Q 5691 2819 5691 2113 
L 5691 0 
L 5113 0 
L 5113 2094 
Q 5113 2597 4934 2840 
Q 4756 3084 4391 3084 
Q 3944 3084 3684 2787 
Q 3425 2491 3425 1978 
L 3425 0 
L 2847 0 
L 2847 2094 
Q 2847 2600 2669 2842 
Q 2491 3084 2119 3084 
Q 1678 3084 1418 2786 
Q 1159 2488 1159 1978 
L 1159 0 
L 581 0 
L 581 3500 
L 1159 3500 
L 1159 2956 
Q 1356 3278 1631 3431 
Q 1906 3584 2284 3584 
Q 2666 3584 2933 3390 
Q 3200 3197 3328 2828 
z
" transform="scale(0.015625)"/>
       <path id="DejaVuSans-65" d="M 3597 1894 
L 3597 1613 
L 953 1613 
Q 991 1019 1311 708 
Q 1631 397 2203 397 
Q 2534 397 2845 478 
Q 3156 559 3463 722 
L 3463 178 
Q 3153 47 2828 -22 
Q 2503 -91 2169 -91 
Q 1331 -91 842 396 
Q 353 884 353 1716 
Q 353 2575 817 3079 
Q 1281 3584 2069 3584 
Q 2775 3584 3186 3129 
Q 3597 2675 3597 1894 
z
M 3022 2063 
Q 3016 2534 2758 2815 
Q 2500 3097 2075 3097 
Q 1594 3097 1305 2825 
Q 1016 2553 972 2059 
L 3022 2063 
z
" transform="scale(0.015625)"/>
       <path id="DejaVuSans-20" transform="scale(0.015625)"/>
       <path id="DejaVuSans-28" d="M 1984 4856 
Q 1566 4138 1362 3434 
Q 1159 2731 1159 2009 
Q 1159 1288 1364 580 
Q 1569 -128 1984 -844 
L 1484 -844 
Q 1016 -109 783 600 
Q 550 1309 550 2009 
Q 550 2706 781 3412 
Q 1013 4119 1484 4856 
L 1984 4856 
z
" transform="scale(0.015625)"/>
       <path id="DejaVuSans-73" d="M 2834 3397 
L 2834 2853 
Q 2591 2978 2328 3040 
Q 2066 3103 1784 3103 
Q 1356 3103 1142 2972 
Q 928 2841 928 2578 
Q 928 2378 1081 2264 
Q 1234 2150 1697 2047 
L 1894 2003 
Q 2506 1872 2764 1633 
Q 3022 1394 3022 966 
Q 3022 478 2636 193 
Q 2250 -91 1575 -91 
Q 1294 -91 989 -36 
Q 684 19 347 128 
L 347 722 
Q 666 556 975 473 
Q 1284 391 1588 391 
Q 1994 391 2212 530 
Q 2431 669 2431 922 
Q 2431 1156 2273 1281 
Q 2116 1406 1581 1522 
L 1381 1569 
Q 847 1681 609 1914 
Q 372 2147 372 2553 
Q 372 3047 722 3315 
Q 1072 3584 1716 3584 
Q 2034 3584 2315 3537 
Q 2597 3491 2834 3397 
z
" transform="scale(0.015625)"/>
       <path id="DejaVuSans-29" d="M 513 4856 
L 1013 4856 
Q 1481 4119 1714 3412 
Q 1947 2706 1947 2009 
Q 1947 1309 1714 600 
Q 1481 -109 1013 -844 
L 513 -844 
Q 928 -128 1133 580 
Q 1338 1288 1338 2009 
Q 1338 2731 1133 3434 
Q 928 4138 513 4856 
z
" transform="scale(0.015625)"/>
      </defs>
      <use xlink:href="#DejaVuSans-74"/>
      <use xlink:href="#DejaVuSans-69" x="39.208984"/>
      <use xlink:href="#DejaVuSans-6d" x="66.992188"/>
      <use xlink:href="#DejaVuSans-65" x="164.404297"/>
      <use xlink:href="#DejaVuSans-20" x="225.927734"/>
      <use xlink:href="#DejaVuSans-28" x="257.714844"/>
      <use xlink:href="#DejaVuSans-73" x="296.728516"/>
      <use xlink:href="#DejaVuSans-29" x="348.828125"/>
     </g>
    </g>
   </g>
   <g id="matplotlib.axis_2">
    <g id="ytick_1">
     <g id="line2d_17">
      <path d="M 57.6 306.80419 
L 414.72 306.80419 
" clip-path="url(#pd8bd92f3ef)" style="fill: none; stroke: #b0b0b0; stroke-width: 0.8; stroke-linecap: square"/>
     </g>
     <g id="line2d_18">
      <defs>
       <path id="mafd90d31c0" d="M 0 0 
L -3.5 0 
" style="stroke: #000000; stroke-width: 0.8"/>
      </defs>
      <g>
       <use xlink:href="#mafd90d31c0" x="57.6" y="306.80419" style="stroke: #000000; stroke-width: 0.8"/>
      </g>
     </g>
     <g id="text_10">
      <!-- −0.2 -->
      <g transform="translate(26.317187 310.603409)scale(0.1 -0.1)">
       <defs>
        <path id="DejaVuSans-2212" d="M 678 2272 
L 4684 2272 
L 4684 1741 
L 678 1741 
L 678 2272 
z
" transform="scale(0.015625)"/>
        <path id="DejaVuSans-2e" d="M 684 794 
L 1344 794 
L 1344 0 
L 684 0 
L 684 794 
z
" transform="scale(0.015625)"/>
       </defs>
       <use xlink:href="#DejaVuSans-2212"/>
       <use xlink:href="#DejaVuSans-30" x="83.789062"/>
       <use xlink:href="#DejaVuSans-2e" x="147.412109"/>
       <use xlink:href="#DejaVuSans-32" x="179.199219"/>
      </g>
     </g>
    </g>
    <g id="ytick_2">
     <g id="line2d_19">
      <path d="M 57.6 264.598673 
L 414.72 264.598673 
" clip-path="url(#pd8bd92f3ef)" style="fill: none; stroke: #b0b0b0; stroke-width: 0.8; stroke-linecap: square"/>
     </g>
     <g id="line2d_20">
      <g>
       <use xlink:href="#mafd90d31c0" x="57.6" y="264.598673" style="stroke: #000000; stroke-width: 0.8"/>
      </g>
     </g>
     <g id="text_11">
      <!-- 0.0 -->
      <g transform="translate(34.696875 268.397892)scale(0.1 -0.1)">
       <use xlink:href="#DejaVuSans-30"/>
       <use xlink:href="#DejaVuSans-2e" x="63.623047"/>
       <use xlink:href="#DejaVuSans-30" x="95.410156"/>
      </g>
     </g>
    </g>
    <g id="ytick_3">
     <g id="line2d_21">
      <path d="M 57.6 222.393157 
L 414.72 222.393157 
" clip-path="url(#pd8bd92f3ef)" style="fill: none; stroke: #b0b0b0; stroke-width: 0.8; stroke-linecap: square"/>
     </g>
     <g id="line2d_22">
      <g>
       <use xlink:href="#mafd90d31c0" x="57.6" y="222.393157" style="stroke: #000000; stroke-width: 0.8"/>
      </g>
     </g>
     <g id="text_12">
      <!-- 0.2 -->
      <g transform="translate(34.696875 226.192376)scale(0.1 -0.1)">
       <use xlink:href="#DejaVuSans-30"/>
       <use xlink:href="#DejaVuSans-2e" x="63.623047"/>
       <use xlink:href="#DejaVuSans-32" x="95.410156"/>
      </g>
     </g>
    </g>
    <g id="ytick_4">
     <g id="line2d_23">
      <path d="M 57.6 180.18764 
L 414.72 180.18764 
" clip-path="url(#pd8bd92f3ef)" style="fill: none; stroke: #b0b0b0; stroke-width: 0.8; stroke-linecap: square"/>
     </g>
     <g id="line2d_24">
      <g>
       <use xlink:href="#mafd90d31c0" x="57.6" y="180.18764" style="stroke: #000000; stroke-width: 0.8"/>
      </g>
     </g>
     <g id="text_13">
      <!-- 0.4 -->
      <g transform="translate(34.696875 183.986859)scale(0.1 -0.1)">
       <use xlink:href="#DejaVuSans-30"/>
       <use xlink:href="#DejaVuSans-2e" x="63.623047"/>
       <use xlink:href="#DejaVuSans-34" x="95.410156"/>
      </g>
     </g>
    </g>
    <g id="ytick_5">
     <g id="line2d_25">
      <path d="M 57.6 137.982124 
L 414.72 137.982124 
" clip-path="url(#pd8bd92f3ef)" style="fill: none; stroke: #b0b0b0; stroke-width: 0.8; stroke-linecap: square"/>
     </g>
     <g id="line2d_26">
      <g>
       <use xlink:href="#mafd90d31c0" x="57.6" y="137.982124" style="stroke: #000000; stroke-width: 0.8"/>
      </g>
     </g>
     <g id="text_14">
      <!-- 0.6 -->
      <g transform="translate(34.696875 141.781343)scale(0.1 -0.1)">
       <use xlink:href="#DejaVuSans-30"/>
       <use xlink:href="#DejaVuSans-2e" x="63.623047"/>
       <use xlink:href="#DejaVuSans-36" x="95.410156"/>
      </g>
     </g>
    </g>
    <g id="ytick_6">
     <g id="line2d_27">
      <path d="M 57.6 95.776607 
L 414.72 95.776607 
" clip-path="url(#pd8bd92f3ef)" style="fill: none; stroke: #b0b0b0; stroke-width: 0.8; stroke-linecap: square"/>
     </g>
     <g id="line2d_28">
      <g>
       <use xlink:href="#mafd90d31c0" x="57.6" y="95.776607" style="stroke: #000000; stroke-width: 0.8"/>
      </g>
     </g>
     <g id="text_15">
      <!-- 0.8 -->
      <g transform="translate(34.696875 99.575826)scale(0.1 -0.1)">
       <use xlink:href="#DejaVuSans-30"/>
       <use xlink:href="#DejaVuSans-2e" x="63.623047"/>
       <use xlink:href="#DejaVuSans-38" x="95.410156"/>
      </g>
     </g>
    </g>
    <g id="ytick_7">
     <g id="line2d_29">
      <path d="M 57.6 53.571091 
L 414.72 53.571091 
" clip-path="url(#pd8bd92f3ef)" style="fill: none; stroke: #b0b0b0; stroke-width: 0.8; stroke-linecap: square"/>
     </g>
     <g id="line2d_30">
      <g>
       <use xlink:href="#mafd90d31c0" x="57.6" y="53.571091" style="stroke: #000000; stroke-width: 0.8"/>
      </g>
     </g>
     <g id="text_16">
      <!-- 1.0 -->
      <g transform="translate(34.696875 57.37031)scale(0.1 -0.1)">
       <use xlink:href="#DejaVuSans-31"/>
       <use xlink:href="#DejaVuSans-2e" x="63.623047"/>
       <use xlink:href="#DejaVuSans-30" x="95.410156"/>
      </g>
     </g>
    </g>
    <g id="text_17">
     <!-- x -->
     <g transform="translate(20.2375 177.487375)rotate(-90)scale(0.1 -0.1)">
      <defs>
       <path id="DejaVuSans-78" d="M 3513 3500 
L 2247 1797 
L 3578 0 
L 2900 0 
L 1881 1375 
L 863 0 
L 184 0 
L 1544 1831 
L 300 3500 
L 978 3500 
L 1906 2253 
L 2834 3500 
L 3513 3500 
z
" transform="scale(0.015625)"/>
      </defs>
      <use xlink:href="#DejaVuSans-78"/>
     </g>
    </g>
   </g>
   <g id="line2d_31">
    <path d="M 73.832727 264.598673 
L 74.555625 236.166296 
L 75.250385 217.023136 
L 75.696244 208.110163 
L 75.739532 208.375862 
L 77.52946 219.081204 
L 79.237143 227.996678 
L 80.88206 235.407734 
L 82.466374 241.551049 
L 83.979264 246.556489 
L 85.416401 250.569388 
L 86.775622 253.729372 
L 88.061254 256.176004 
L 89.275462 258.026744 
L 90.429068 259.39408 
L 91.530729 260.366234 
L 92.59776 261.018861 
L 93.649641 261.406089 
L 94.716672 261.563115 
L 95.835648 261.50093 
L 97.054185 261.205593 
L 98.445871 260.631395 
L 100.164375 259.667959 
L 103.014842 257.768646 
L 105.854487 255.97258 
L 107.620608 255.115185 
L 109.120512 254.627584 
L 110.484061 254.413769 
L 111.780515 254.433567 
L 113.059654 254.676263 
L 114.362601 255.153046 
L 115.730479 255.895481 
L 117.217396 256.963228 
L 118.901271 258.456953 
L 120.968239 260.605669 
L 124.970147 265.179806 
L 127.517603 267.889526 
L 129.324847 269.499374 
L 130.852887 270.573461 
L 132.218601 271.26966 
L 133.484753 271.670701 
L 134.694633 271.823345 
L 135.887197 271.750133 
L 137.103569 271.450337 
L 138.382708 270.901389 
L 139.776559 270.053953 
L 141.363037 268.818478 
L 143.321786 266.993713 
L 150.643828 259.877129 
L 152.184855 258.855041 
L 153.54624 258.210913 
L 154.803735 257.856935 
L 156.004957 257.747492 
L 157.193193 257.862983 
L 158.407401 258.207083 
L 159.695197 258.808685 
L 161.110691 259.723423 
L 162.753443 261.061689 
L 164.906985 263.126306 
L 170.014883 268.126971 
L 171.679279 269.382544 
L 173.094772 270.181246 
L 174.369583 270.651947 
L 175.566476 270.860492 
L 176.730903 270.838411 
L 177.903988 270.592196 
L 179.133347 270.10231 
L 180.468759 269.323591 
L 181.9968 268.164019 
L 183.923084 266.403333 
L 189.85344 260.781569 
L 191.359837 259.77236 
L 192.669277 259.15416 
L 193.868335 258.828536 
L 195.011119 258.746276 
L 196.143081 258.888394 
L 197.307508 259.261939 
L 198.556346 259.902491 
L 199.956689 260.880256 
L 201.653551 262.351943 
L 204.443415 265.120668 
L 207.034159 267.57075 
L 208.635788 268.787109 
L 209.9712 269.532122 
L 211.163764 269.949747 
L 212.280576 270.108714 
L 213.369251 270.039449 
L 214.475241 269.743834 
L 215.648326 269.194484 
L 216.951273 268.329485 
L 218.498793 267.020815 
L 220.751895 264.787634 
L 223.853428 261.757238 
L 225.394455 260.568218 
L 226.669265 259.855042 
L 227.803392 259.468119 
L 228.86393 259.337493 
L 229.90066 259.43363 
L 230.961199 259.75881 
L 232.026065 260.317038 
L 234.188265 262.004625 
L 235.274775 263.054203 
L 235.982522 263.919689 
L 235.984687 263.860299 
L 236.140521 266.933739 
L 236.142685 266.871863 
L 236.203287 268.135295 
L 236.205452 268.072299 
L 236.359121 270.93729 
L 236.361286 270.871629 
L 236.428381 272.033257 
L 236.430545 271.966533 
L 236.579887 274.506967 
L 236.582051 274.437783 
L 236.651311 275.621352 
L 236.653475 275.551033 
L 236.800652 277.725276 
L 236.802816 277.652562 
L 236.876404 278.78335 
L 236.878569 278.709508 
L 237.023581 280.736451 
L 237.025745 280.660475 
L 237.105827 281.653833 
L 237.107991 281.576987 
L 237.248675 283.347829 
L 237.250839 283.269013 
L 237.333085 284.272562 
L 237.335249 284.192636 
L 237.46944 285.615164 
L 237.471604 285.533558 
L 237.55385 286.431579 
L 237.556015 286.348927 
L 237.685876 287.573093 
L 237.688041 287.488776 
L 237.774615 288.320498 
L 237.77678 288.235286 
L 237.906641 289.308531 
L 237.908806 289.221764 
L 237.999709 289.982093 
L 238.001873 289.894324 
L 238.127407 290.801015 
L 238.129571 290.711953 
L 238.220474 291.377034 
L 238.222639 291.287134 
L 238.348172 292.066807 
L 238.350336 291.975691 
L 238.445568 292.569441 
L 238.447732 292.477407 
L 238.568937 293.122441 
L 238.571101 293.02931 
L 238.666333 293.537619 
L 238.668497 293.44363 
L 238.787537 293.877438 
L 238.789702 293.782545 
L 238.889263 294.220675 
L 238.891427 294.124954 
L 239.008303 294.55898 
L 239.010467 294.46234 
L 239.110028 294.825087 
L 239.112192 294.727623 
L 239.226903 294.972969 
L 239.229068 294.874772 
L 239.332957 295.170359 
L 239.335121 295.071426 
L 239.447668 295.339167 
L 239.449833 295.239514 
L 239.555887 295.367902 
L 239.558051 295.267618 
L 239.631639 295.471023 
L 239.670598 295.465198 
L 239.78098 295.328899 
L 239.858897 295.488 
L 239.854569 295.2897 
L 239.893527 295.463506 
L 240.008239 295.26371 
L 240.010403 295.362126 
L 240.116457 295.145528 
L 240.118621 295.243459 
L 240.133772 295.325458 
L 240.231168 295.091426 
L 240.233332 295.188807 
L 240.335057 294.929951 
L 240.337222 295.026931 
L 240.451933 294.725885 
L 240.454097 294.822435 
L 240.512535 294.611148 
L 240.560151 294.715859 
L 240.674863 294.368708 
L 240.677027 294.464402 
L 240.778752 294.128806 
L 240.780916 294.224182 
L 240.899956 293.830218 
L 240.902121 293.925247 
L 241.003846 293.559213 
L 241.00601 293.653962 
L 241.12505 293.226602 
L 241.127215 293.321045 
L 241.22894 292.928328 
L 241.231104 293.022527 
L 241.350144 292.566058 
L 241.352308 292.659992 
L 241.449705 292.257776 
L 241.451869 292.351508 
L 241.570909 291.870452 
L 241.573073 291.963957 
L 241.67047 291.543171 
L 241.672634 291.636505 
L 241.791674 291.134592 
L 241.793839 291.227736 
L 241.889071 290.698841 
L 241.891235 290.791957 
L 242.010275 290.278293 
L 242.012439 290.37125 
L 242.109836 289.926496 
L 242.112 290.019337 
L 242.23104 289.491359 
L 242.233204 289.584074 
L 242.328436 289.038227 
L 242.330601 289.130933 
L 242.449641 288.597327 
L 242.451805 288.689955 
L 242.549201 288.231299 
L 242.551366 288.32386 
L 242.67257 287.676871 
L 242.674735 287.769432 
L 242.772131 287.309396 
L 242.774295 287.401907 
L 242.8955 286.752878 
L 242.897664 286.845476 
L 242.99506 286.386088 
L 242.997225 286.478659 
L 243.118429 285.831686 
L 243.120593 285.924337 
L 243.21799 285.467537 
L 243.220154 285.560179 
L 243.341359 284.918157 
L 243.343523 285.010849 
L 243.440919 284.558455 
L 243.443084 284.651207 
L 243.564288 284.017034 
L 243.566452 284.109845 
L 243.661684 283.570834 
L 243.663849 283.663831 
L 243.782889 283.147586 
L 243.785053 283.24055 
L 243.880285 282.710736 
L 243.882449 282.803908 
L 244.003654 282.190015 
L 244.005818 282.283341 
L 244.103215 281.857389 
L 244.105379 281.950765 
L 244.226583 281.351272 
L 244.228748 281.444818 
L 244.32398 280.935941 
L 244.326144 281.029551 
L 244.445184 280.552646 
L 244.447348 280.646432 
L 244.54258 280.15132 
L 244.544745 280.245167 
L 244.665949 279.677697 
L 244.668113 279.771732 
L 244.767674 279.276567 
L 244.769839 279.370898 
L 244.888879 278.928321 
L 244.891043 279.022626 
L 244.990604 278.544312 
L 244.992768 278.6388 
L 245.113972 278.109319 
L 245.116137 278.204152 
L 245.215697 277.741603 
L 245.217862 277.836632 
L 245.339066 277.327402 
L 245.341231 277.42265 
L 245.442956 277.072075 
L 245.557667 276.700625 
L 245.559831 276.796192 
L 245.659392 276.368601 
L 245.661556 276.464372 
L 245.778432 276.007556 
L 245.780596 276.103372 
L 245.880157 275.693281 
L 245.882321 275.7893 
L 245.999197 275.35356 
L 246.001361 275.449799 
L 246.103087 275.154356 
L 246.105251 275.250701 
L 246.222127 274.837249 
L 246.224291 274.933817 
L 246.323852 274.561029 
L 246.326016 274.657803 
L 246.442892 274.265468 
L 246.445056 274.362685 
L 246.544617 274.007558 
L 246.546781 274.104988 
L 246.663657 273.734046 
L 246.665821 273.831708 
L 246.767546 273.592915 
L 246.769711 273.690691 
L 246.886586 273.342053 
L 246.888751 273.440059 
L 246.99264 273.11731 
L 246.994804 273.215533 
L 247.11168 272.888243 
L 247.113844 272.986434 
L 247.217734 272.682582 
L 247.219898 272.780982 
L 247.334609 272.577521 
L 247.336774 272.676313 
L 247.440663 272.391763 
L 247.442828 272.490487 
L 247.559703 272.205695 
L 247.561868 272.304637 
L 247.665757 272.037525 
L 247.667921 272.136966 
L 247.778304 271.975936 
L 247.780468 272.075191 
L 247.884358 271.826348 
L 247.886522 271.926112 
L 247.999069 271.681946 
L 248.001233 271.781924 
L 248.107287 271.648601 
L 248.109452 271.748685 
L 248.221999 271.523566 
L 248.224163 271.62386 
L 248.328052 271.407913 
L 248.330217 271.508076 
L 248.440599 271.39962 
L 248.442764 271.50022 
L 248.451421 271.298833 
L 248.548817 271.401193 
L 248.631063 271.205229 
L 248.626735 271.405891 
L 248.661364 271.209036 
L 248.771747 271.326293 
L 248.823692 271.134908 
L 248.819363 271.335045 
L 248.884294 271.150572 
L 248.994676 271.282323 
L 249.020649 271.089394 
L 249.01632 271.289011 
L 249.107223 271.121996 
L 249.217606 271.268163 
L 249.239249 271.076602 
L 249.234921 271.275681 
L 249.330153 271.122113 
L 249.440535 271.281855 
L 249.470836 271.097793 
L 249.466508 271.296333 
L 249.553082 271.149012 
L 249.667793 271.324752 
L 249.732724 271.168056 
L 249.728396 271.366038 
L 249.78034 271.203554 
L 249.895052 271.39214 
L 249.897216 271.293508 
L 250.00327 271.47889 
L 250.005434 271.380327 
L 250.024913 271.496641 
L 250.029242 271.299233 
L 250.117981 271.478321 
L 250.120145 271.379512 
L 250.226199 271.576685 
L 250.228364 271.478356 
L 250.343075 271.686333 
L 250.386362 271.526854 
L 250.382033 271.723657 
L 250.455622 271.597408 
L 250.570333 271.817485 
L 250.572497 271.719011 
L 250.678551 271.932804 
L 250.680716 271.834381 
L 250.795427 272.060254 
L 250.88633 271.960429 
L 250.882001 272.156547 
L 250.907974 271.985769 
L 251.022685 272.221879 
L 251.024849 272.124152 
L 251.130903 272.35223 
L 251.133068 272.254547 
L 251.247779 272.49535 
L 251.249943 272.397713 
L 251.351668 272.624521 
L 251.353833 272.526922 
L 251.468544 272.771927 
L 251.470708 272.67437 
L 251.572433 272.90472 
L 251.574598 272.807198 
L 251.689309 273.055987 
L 251.691473 272.958502 
L 251.793199 273.192016 
L 251.795363 273.094562 
L 251.910074 273.3467 
L 251.912239 273.249278 
L 252.013964 273.485565 
L 252.016128 273.38817 
L 252.130839 273.643208 
L 252.133004 273.545841 
L 252.234729 273.784495 
L 252.236893 273.687151 
L 252.351604 273.944627 
L 252.353769 273.847305 
L 252.455494 274.087914 
L 252.457658 273.99061 
L 252.572369 274.250053 
L 252.574534 274.152768 
L 252.674095 274.491759 
L 252.676259 274.393906 
L 252.79097 274.650089 
L 252.793135 274.55225 
L 252.89486 274.79148 
L 252.897024 274.693653 
L 253.011735 274.951153 
L 253.0139 274.853335 
L 253.115625 275.093512 
L 253.117789 274.995702 
L 253.234665 275.35499 
L 253.236829 275.257573 
L 253.338554 275.493172 
L 253.340719 275.39576 
L 253.45543 275.648879 
L 253.457594 275.551471 
L 253.559319 275.787397 
L 253.561484 275.68999 
L 253.678359 276.042228 
L 253.680524 275.944234 
L 253.782249 276.17599 
L 253.784413 276.077995 
L 253.899124 276.326363 
L 253.901289 276.228365 
L 254.000849 276.553062 
L 254.003014 276.455449 
L 254.117725 276.697627 
L 254.119889 276.600009 
L 254.21945 276.923043 
L 254.221615 276.82483 
L 254.336326 277.0615 
L 254.33849 276.96328 
L 254.444544 277.189291 
L 254.446708 277.091062 
L 254.563584 277.425095 
L 254.565748 277.327241 
L 254.671802 277.546856 
L 254.673967 277.448991 
L 254.790842 277.777383 
L 254.793007 277.678921 
L 254.89906 277.892876 
L 254.901225 277.794884 
L 255.0181 278.116794 
L 255.020265 278.018204 
L 255.126319 278.225823 
L 255.128483 278.127219 
L 255.245359 278.441852 
L 255.247523 278.34361 
L 255.353577 278.544241 
L 255.355741 278.445982 
L 255.472617 278.752754 
L 255.474781 278.653899 
L 255.580835 278.848341 
L 255.582999 278.74947 
L 255.699875 279.047825 
L 255.702039 278.949307 
L 255.805929 279.234781 
L 255.808093 279.135672 
L 255.922804 279.324055 
L 255.924969 279.225395 
L 256.028858 279.502729 
L 256.031023 279.403481 
L 256.145734 279.584393 
L 256.147898 279.485125 
L 256.251788 279.754252 
L 256.253952 279.655327 
L 256.370828 279.929842 
L 256.372992 279.830332 
L 256.479046 279.992206 
L 256.48121 279.892677 
L 256.593757 280.155403 
L 256.595921 280.055752 
L 256.701975 280.210566 
L 256.70414 280.110895 
L 256.816687 280.363663 
L 256.818851 280.26432 
L 256.92274 280.509911 
L 256.924905 280.409998 
L 257.035287 280.553451 
L 257.037452 280.453517 
L 257.141341 280.690652 
L 257.143505 280.590598 
L 257.256052 280.82682 
L 257.258217 280.727084 
L 257.364271 280.855397 
L 257.366435 280.755639 
L 257.478982 280.981785 
L 257.481146 280.881469 
L 257.585036 281.102829 
L 257.5872 281.002394 
L 257.697583 281.118823 
L 257.699747 281.018369 
L 257.803636 281.230111 
L 257.805801 281.129964 
L 257.918348 281.338806 
L 257.974621 281.340138 
L 258.02873 281.240852 
L 258.067689 281.442427 
L 258.141277 281.439821 
L 258.225687 281.335573 
L 258.230016 281.536352 
L 258.249495 281.434223 
L 258.25166 281.534352 
L 258.357713 281.423725 
L 258.359878 281.524249 
L 258.383686 281.421074 
L 258.388015 281.621602 
L 258.468096 281.509051 
L 258.550342 281.697012 
L 258.546013 281.496734 
L 258.580643 281.690691 
L 258.691025 281.566423 
L 258.712669 281.763087 
L 258.70834 281.563057 
L 258.803572 281.738763 
L 258.866339 281.620935 
L 258.870668 281.820722 
L 258.911791 281.707134 
L 258.913955 281.806775 
L 259.020009 281.67182 
L 259.022173 281.771449 
L 259.024337 281.670393 
L 259.028666 281.86994 
L 259.130391 281.731041 
L 259.190993 281.90879 
L 259.186665 281.70948 
L 259.242938 281.886324 
L 259.344663 281.741242 
L 259.348992 281.940318 
L 259.351156 281.838921 
L 259.353321 281.938218 
L 259.459375 281.78618 
L 259.461539 281.885847 
L 259.506991 281.762819 
L 259.511319 281.961666 
L 259.569757 281.829803 
L 259.669318 281.976815 
L 259.664989 281.778194 
L 259.682304 281.969147 
L 259.792687 281.803426 
L 259.794851 281.902495 
L 259.827316 281.782841 
L 259.831645 281.98124 
L 259.907398 281.831861 
L 259.989644 281.979857 
L 259.985315 281.781674 
L 260.019945 281.958894 
L 260.134656 281.779043 
L 260.151971 281.967998 
L 260.147642 281.770028 
L 260.247203 281.89741 
L 260.309969 281.750473 
L 260.314298 281.948235 
L 260.35975 281.811664 
L 260.361914 281.910669 
L 260.467968 281.726265 
L 260.470132 281.825268 
L 260.472297 281.722848 
L 260.476625 281.920406 
L 260.582679 281.731417 
L 260.638953 281.885382 
L 260.634624 281.688022 
L 260.695226 281.83578 
L 260.796951 281.645835 
L 260.80128 281.843001 
L 260.807773 281.73628 
L 260.809937 281.834981 
L 260.915991 281.636474 
L 260.918156 281.734845 
L 260.963607 281.592475 
L 260.967936 281.789453 
L 261.030703 281.627919 
L 261.134592 281.72843 
L 261.130263 281.531635 
L 261.143249 281.719668 
L 261.257961 281.503433 
L 261.301248 281.660796 
L 261.296919 281.464179 
L 261.370508 281.587946 
L 261.467904 281.385448 
L 261.483055 281.469374 
L 261.485219 281.567706 
L 261.591273 281.351453 
L 261.593437 281.449794 
L 261.638889 281.299743 
L 261.643217 281.496024 
L 261.705984 281.324753 
L 261.708148 281.423005 
L 261.809873 281.207904 
L 261.818531 281.398969 
L 261.933242 281.165041 
L 261.989516 281.300809 
L 261.985187 281.104841 
L 262.045789 281.2332 
L 262.1605 280.995686 
L 262.164829 281.191506 
L 262.266554 280.96535 
L 262.268719 281.063374 
L 262.340143 280.875093 
L 262.344471 281.070773 
L 262.381265 280.923719 
L 262.38343 281.021373 
L 262.485155 280.792611 
L 262.487319 280.890286 
L 262.524113 280.94466 
L 262.599866 280.746009 
L 262.602031 280.843607 
L 262.703756 280.612144 
L 262.708084 280.807564 
L 262.822796 280.555036 
L 262.892055 280.664982 
L 262.887727 280.469681 
L 262.931014 280.612189 
L 263.045725 280.357314 
L 263.080355 280.511941 
L 263.151779 280.313061 
L 263.153943 280.410491 
L 263.264326 280.159112 
L 263.26649 280.256573 
L 263.268655 280.354198 
L 263.37038 280.111038 
L 263.372544 280.20869 
L 263.461283 279.98481 
L 263.485091 280.051584 
L 263.487255 280.149165 
L 263.58898 279.904136 
L 263.591145 280.001746 
L 263.65824 279.806636 
L 263.703692 279.84166 
L 263.705856 279.93895 
L 263.807581 279.692494 
L 263.809745 279.789816 
L 263.859526 279.618479 
L 263.863855 279.813305 
L 263.922292 279.627166 
L 263.924457 279.724672 
L 264.026182 279.47671 
L 264.028346 279.574004 
L 264.069469 279.615363 
L 264.140893 279.409181 
L 264.143057 279.506655 
L 264.244783 279.257118 
L 264.246947 279.354626 
L 264.279412 279.407779 
L 264.359494 279.188024 
L 264.361658 279.285235 
L 264.463383 279.034774 
L 264.465548 279.132022 
L 264.489356 279.197711 
L 264.578095 278.963829 
L 264.580259 279.061251 
L 264.681984 278.80979 
L 264.684148 278.90702 
L 264.707956 278.972483 
L 264.796695 278.737805 
L 264.79886 278.835205 
L 264.900585 278.582671 
L 264.902749 278.680109 
L 264.935215 278.732358 
L 265.015296 278.510438 
L 265.01746 278.607599 
L 265.119185 278.354585 
L 265.12135 278.451789 
L 265.162473 278.491204 
L 265.233897 278.281818 
L 265.236061 278.379185 
L 265.337786 278.12539 
L 265.339951 278.222798 
L 265.39406 278.04172 
L 265.398388 278.236269 
L 265.452497 278.053073 
L 265.454662 278.150427 
L 265.556387 277.896191 
L 265.558551 277.993588 
L 265.634304 277.77991 
L 265.671098 277.824448 
L 265.673263 277.921587 
L 265.774988 277.667237 
L 265.777152 277.764422 
L 265.883206 277.505783 
L 265.889699 277.596407 
L 265.891863 277.693745 
L 265.993588 277.438975 
L 265.995753 277.536358 
L 266.110464 277.264539 
L 266.140765 277.420749 
L 266.216518 277.205724 
L 266.218682 277.302909 
L 266.333393 277.031332 
L 266.335558 277.128766 
L 266.402653 276.929346 
L 266.441612 277.071795 
L 266.556323 276.800352 
L 266.558487 276.897597 
L 266.660212 276.647939 
L 266.662377 276.745233 
L 266.677527 276.823739 
L 266.774924 276.578201 
L 266.777088 276.675637 
L 266.878813 276.425955 
L 266.880977 276.523439 
L 266.95673 276.313322 
L 266.993524 276.359621 
L 266.995689 276.456877 
L 267.097414 276.207589 
L 267.099578 276.304896 
L 267.214289 276.039447 
L 267.253248 276.18505 
L 267.320343 275.986749 
L 267.322508 276.084243 
L 267.437219 275.819075 
L 267.439383 275.916626 
L 267.541108 275.672797 
L 267.543273 275.770225 
L 267.554095 275.855639 
L 267.65582 275.609577 
L 267.657984 275.707134 
L 267.759709 275.46352 
L 267.761873 275.561127 
L 267.863599 275.319927 
L 267.87442 275.40533 
L 267.876585 275.502725 
L 267.97831 275.259665 
L 267.980474 275.357114 
L 268.095185 275.098801 
L 268.09735 275.196309 
L 268.194746 274.964244 
L 268.203404 275.153427 
L 268.318115 274.895537 
L 268.320279 274.993219 
L 268.422004 274.755767 
L 268.424169 274.853501 
L 268.534551 274.60716 
L 268.536716 274.704949 
L 268.53888 274.802481 
L 268.640605 274.565618 
L 268.642769 274.663204 
L 268.757481 274.411909 
L 268.759645 274.509554 
L 268.86137 274.277937 
L 268.863535 274.375635 
L 268.896 274.434807 
L 268.976081 274.229553 
L 268.978246 274.327361 
L 269.079971 274.09606 
L 269.082135 274.193921 
L 269.196847 273.948881 
L 269.270435 274.058943 
L 269.266106 273.863288 
L 269.305065 274.014912 
L 269.419776 273.770468 
L 269.42194 273.868397 
L 269.523665 273.642851 
L 269.52583 273.740831 
L 269.640541 273.502236 
L 269.662185 273.677514 
L 269.750924 273.468693 
L 269.753088 273.566542 
L 269.867799 273.328781 
L 269.869964 273.426688 
L 269.976017 273.20202 
L 269.978182 273.299981 
L 270.066921 273.097578 
L 270.090729 273.169995 
L 270.092893 273.268051 
L 270.198947 273.043681 
L 270.201111 273.14179 
L 270.315823 272.91027 
L 270.317987 273.008436 
L 270.424041 272.789477 
L 270.426205 272.887694 
L 270.501958 272.704107 
L 270.506287 272.900381 
L 270.538752 272.763259 
L 270.540916 272.861296 
L 270.64697 272.642821 
L 270.649135 272.740912 
L 270.763846 272.515697 
L 270.76601 272.613845 
L 270.872064 272.400669 
L 270.874228 272.498869 
L 270.95431 272.314941 
L 270.958639 272.511447 
L 270.986775 272.380571 
L 270.98894 272.478853 
L 271.094993 272.265781 
L 271.097158 272.364115 
L 271.211869 272.144694 
L 271.214033 272.243083 
L 271.320087 272.035198 
L 271.322252 272.133636 
L 271.432634 271.923942 
L 271.434799 272.02243 
L 271.436963 272.120694 
L 271.543017 271.913015 
L 271.545181 272.011329 
L 271.659892 271.797667 
L 271.662057 271.896036 
L 271.768111 271.693425 
L 271.770275 271.791843 
L 271.884986 271.583551 
L 271.94126 271.732613 
L 271.936931 271.535606 
L 271.997533 271.678735 
L 272.112244 271.470353 
L 272.114409 271.568944 
L 272.220463 271.371145 
L 272.222627 271.469783 
L 272.337338 271.26664 
L 272.339503 271.365328 
L 272.445556 271.172269 
L 272.447721 271.271002 
L 272.462871 271.15738 
L 272.4672 271.354645 
L 272.560268 271.170921 
L 272.562432 271.269603 
L 272.668486 271.0763 
L 272.67065 271.175028 
L 272.785361 270.976684 
L 272.787526 271.075461 
L 272.89358 270.886779 
L 272.895744 270.985599 
L 273.010455 270.792142 
L 273.023441 270.982761 
L 273.019113 270.785232 
L 273.123002 270.899787 
L 273.237713 270.706043 
L 273.239878 270.804792 
L 273.345932 270.62031 
L 273.348096 270.719101 
L 273.462807 270.530111 
L 273.464972 270.628949 
L 273.571025 270.448761 
L 273.57319 270.54764 
L 273.601327 270.426349 
L 273.605655 270.624139 
L 273.685737 270.461455 
L 273.687901 270.560386 
L 273.793955 270.379393 
L 273.796119 270.478366 
L 273.910831 270.293099 
L 273.912995 270.392116 
L 274.019049 270.215305 
L 274.021213 270.314362 
L 274.135924 270.13351 
L 274.213841 270.281211 
L 274.209513 270.083167 
L 274.248471 270.256248 
L 274.363183 270.07454 
L 274.365347 270.173517 
L 274.471401 269.999949 
L 274.473565 270.098966 
L 274.588276 269.921552 
L 274.590441 270.02061 
L 274.696495 269.850913 
L 274.698659 269.950008 
L 274.81337 269.776676 
L 274.848 269.95606 
L 274.843671 269.757771 
L 274.925917 269.90455 
L 275.040628 269.72989 
L 275.042793 269.8291 
L 275.148847 269.661893 
L 275.151011 269.761139 
L 275.265722 269.590454 
L 275.267887 269.689738 
L 275.37394 269.526109 
L 275.376105 269.625427 
L 275.486487 269.460981 
L 275.508131 269.64964 
L 275.503802 269.45112 
L 275.599034 269.594435 
L 275.713745 269.426026 
L 275.71591 269.525256 
L 275.821964 269.363696 
L 275.824128 269.462959 
L 275.934511 269.300618 
L 275.936675 269.399916 
L 276.042729 269.241601 
L 276.044893 269.34093 
L 276.155276 269.181875 
L 276.194234 269.362564 
L 276.189905 269.16383 
L 276.267823 269.321383 
L 276.378205 269.160421 
L 276.380369 269.259837 
L 276.486423 269.102812 
L 276.488588 269.202259 
L 276.59897 269.044517 
L 276.601135 269.143995 
L 276.707188 268.989977 
L 276.709353 269.089484 
L 276.819735 268.934786 
L 276.90631 269.094343 
L 276.901981 268.895414 
L 276.932282 269.080886 
L 277.042665 268.924155 
L 277.044829 269.023564 
L 277.150883 268.870496 
L 277.153047 268.969934 
L 277.26343 268.816194 
L 277.265594 268.915662 
L 277.371648 268.765385 
L 277.373812 268.864881 
L 277.484195 268.713963 
L 277.486359 268.813486 
L 277.592413 268.665842 
L 277.594577 268.765391 
L 277.6357 268.646948 
L 277.640029 268.846048 
L 277.702796 268.715563 
L 277.70496 268.81512 
L 277.811014 268.665074 
L 277.813178 268.764658 
L 277.923561 268.613969 
L 277.925725 268.71358 
L 278.031779 268.566139 
L 278.033943 268.665775 
L 278.144326 268.517718 
L 278.14649 268.617379 
L 278.252544 268.472392 
L 278.254708 268.572076 
L 278.365091 268.426496 
L 278.399721 268.613602 
L 278.395392 268.414351 
L 278.477638 268.579225 
L 278.58802 268.431119 
L 278.590185 268.5307 
L 278.696239 268.385662 
L 278.698403 268.485267 
L 278.808785 268.339624 
L 278.81095 268.439253 
L 278.917004 268.296511 
L 278.919168 268.396162 
L 279.029551 268.252835 
L 279.031715 268.352509 
L 279.137769 268.211922 
L 279.139933 268.311617 
L 279.185385 268.194248 
L 279.189713 268.39363 
L 279.248151 268.26896 
L 279.250316 268.368649 
L 279.356369 268.225212 
L 279.358534 268.324923 
L 279.468916 268.180882 
L 279.471081 268.280616 
L 279.577135 268.139346 
L 279.579299 268.239101 
L 279.689681 268.097246 
L 279.691846 268.197022 
L 279.7979 268.057788 
L 279.800064 268.157583 
L 279.910447 268.017781 
L 280.005679 268.185702 
L 280.00135 267.98621 
L 280.022993 268.178966 
L 280.133376 268.036141 
L 280.13554 268.135828 
L 280.241594 267.99568 
L 280.243759 268.095387 
L 280.354141 267.954644 
L 280.356305 268.054372 
L 280.462359 267.916162 
L 280.464524 268.015908 
L 280.574906 267.877119 
L 280.577071 267.97695 
L 280.683124 267.840491 
L 280.685289 267.940339 
L 280.795671 267.803317 
L 280.856273 267.984655 
L 280.851945 267.785071 
L 280.908218 267.965631 
L 281.018601 267.825417 
L 281.020765 267.925157 
L 281.126819 267.78742 
L 281.128983 267.887178 
L 281.239366 267.748849 
L 281.24153 267.848625 
L 281.347584 267.712643 
L 281.349748 267.812437 
L 281.460131 267.675876 
L 281.462295 267.775688 
L 281.568349 267.64135 
L 281.570513 267.741178 
L 281.680896 267.606275 
L 281.750156 267.786077 
L 281.745827 267.586413 
L 281.793443 267.770998 
L 281.903825 267.632606 
L 281.90599 267.732442 
L 282.012044 267.596379 
L 282.014208 267.696231 
L 282.124591 267.559573 
L 282.126755 267.659441 
L 282.232809 267.524993 
L 282.234973 267.624877 
L 282.345356 267.489847 
L 282.34752 267.589747 
L 282.453574 267.456814 
L 282.455738 267.556728 
L 282.566121 267.423225 
L 282.568285 267.523153 
L 282.674339 267.391641 
L 282.676503 267.491582 
L 282.687325 267.387896 
L 282.691654 267.587629 
L 282.784721 267.456317 
L 282.786886 267.556121 
L 282.89294 267.42124 
L 282.895104 267.52106 
L 283.005487 267.385576 
L 283.007651 267.485412 
L 283.113705 267.352046 
L 283.115869 267.451897 
L 283.226252 267.317942 
L 283.228416 267.417808 
L 283.33447 267.285866 
L 283.336634 267.385746 
L 283.447017 267.253229 
L 283.449181 267.353123 
L 283.555235 267.222518 
L 283.557399 267.322425 
L 283.667782 267.191256 
L 283.693754 267.385116 
L 283.689425 267.185321 
L 283.780329 267.357665 
L 283.890711 267.222785 
L 283.892876 267.322683 
L 283.998929 267.189863 
L 284.001094 267.289775 
L 284.111476 267.156362 
L 284.113641 267.256288 
L 284.219695 267.124838 
L 284.221859 267.224777 
L 284.332241 267.092747 
L 284.334406 267.192699 
L 284.44046 267.062539 
L 284.442624 267.162503 
L 284.553007 267.031775 
L 284.555171 267.131752 
L 284.661225 267.002805 
L 284.663389 267.102793 
L 284.769443 266.974415 
L 284.771607 267.074414 
L 284.773772 267.174269 
L 284.879825 267.041638 
L 284.88199 267.141508 
L 284.992372 267.008277 
L 284.994537 267.108161 
L 285.100591 266.976877 
L 285.102755 267.076774 
L 285.213137 266.944906 
L 285.215302 267.044817 
L 285.321356 266.914806 
L 285.32352 267.014729 
L 285.433903 266.88415 
L 285.436067 266.984086 
L 285.542121 266.855279 
L 285.544285 266.955227 
L 285.654668 266.825864 
L 285.656832 266.925824 
L 285.762886 266.798152 
L 285.76505 266.898123 
L 285.875433 266.769908 
L 285.957679 266.950609 
L 285.95335 266.75069 
L 285.98798 266.941812 
L 286.098362 266.809638 
L 286.100527 266.909583 
L 286.20658 266.779284 
L 286.208745 266.879242 
L 286.319127 266.748373 
L 286.321292 266.848343 
L 286.427345 266.719266 
L 286.42951 266.819248 
L 286.539892 266.689617 
L 286.542057 266.789611 
L 286.648111 266.661691 
L 286.650275 266.761696 
L 286.760657 266.633239 
L 286.762822 266.733255 
L 286.868876 266.606433 
L 286.87104 266.706459 
L 286.981423 266.579113 
L 286.983587 266.67915 
L 287.089641 266.553366 
L 287.091805 266.653413 
L 287.202188 266.527119 
L 287.280105 266.710234 
L 287.275776 266.510241 
L 287.314735 266.700773 
L 287.425117 266.570508 
L 287.427281 266.670454 
L 287.533335 266.541951 
L 287.5355 266.641909 
L 287.645882 266.512869 
L 287.648047 266.612839 
L 287.7541 266.485484 
L 287.756265 266.585466 
L 287.866647 266.457591 
L 287.868812 266.557584 
L 287.974865 266.431321 
L 287.97703 266.531325 
L 288.087412 266.404558 
L 288.089577 266.504573 
L 288.195631 266.379348 
L 288.197795 266.479373 
L 288.308177 266.353659 
L 288.310342 266.453695 
L 288.416396 266.329456 
L 288.41856 266.429501 
L 288.528943 266.304787 
L 288.531107 266.404843 
L 288.637161 266.281539 
L 288.639325 266.381604 
L 288.749708 266.257839 
L 288.797324 266.448934 
L 288.792995 266.248851 
L 288.862255 266.432602 
L 288.972637 266.304751 
L 288.974801 266.404775 
L 289.080855 266.278547 
L 289.08302 266.378582 
L 289.193402 266.251869 
L 289.195567 266.351914 
L 289.30162 266.226755 
L 289.303785 266.326811 
L 289.414167 266.201185 
L 289.416332 266.301251 
L 289.522385 266.177112 
L 289.52455 266.277188 
L 289.634932 266.152598 
L 289.637097 266.252685 
L 289.743151 266.129518 
L 289.745315 266.229613 
L 289.855697 266.106011 
L 289.857862 266.206116 
L 289.963916 266.083875 
L 289.96608 266.183989 
L 290.076463 266.061328 
L 290.078627 266.161451 
L 290.184681 266.040092 
L 290.186845 266.140224 
L 290.297228 266.018458 
L 290.299392 266.118598 
L 290.405446 265.998079 
L 290.40761 266.098227 
L 290.517993 265.977313 
L 290.604567 266.162609 
L 290.600239 265.962409 
L 290.63054 266.156751 
L 290.740922 266.031659 
L 290.743087 266.131711 
L 290.84914 266.008096 
L 290.851305 266.108158 
L 290.961687 265.984122 
L 290.963852 266.084194 
L 291.069905 265.96157 
L 291.07207 266.061653 
L 291.182452 265.938626 
L 291.184617 266.038719 
L 291.290671 265.917043 
L 291.292835 266.017145 
L 291.403217 265.895083 
L 291.405382 265.995194 
L 291.511436 265.874425 
L 291.5136 265.974545 
L 291.623983 265.853405 
L 291.626147 265.953535 
L 291.732201 265.833631 
L 291.734365 265.933769 
L 291.844748 265.813509 
L 291.846912 265.913656 
L 291.952966 265.794578 
L 291.95513 265.894733 
L 292.065513 265.775312 
L 292.067677 265.875476 
L 292.173731 265.757185 
L 292.175895 265.857357 
L 292.286278 265.738737 
L 292.288442 265.838916 
L 292.394496 265.721376 
L 292.39666 265.821563 
L 292.507043 265.703705 
L 292.509207 265.803899 
L 292.615261 265.687074 
L 292.617425 265.787275 
L 292.727808 265.670144 
L 292.729972 265.770352 
L 292.836026 265.654208 
L 292.838191 265.754423 
L 292.870656 265.649178 
L 292.874985 265.84953 
L 292.946409 265.735434 
L 292.948573 265.835576 
L 293.054627 265.715289 
L 293.056791 265.815439 
L 293.167174 265.694815 
L 293.169338 265.794974 
L 293.275392 265.675577 
L 293.277556 265.775745 
L 293.387939 265.656026 
L 293.390103 265.756203 
L 293.496157 265.637657 
L 293.498321 265.737842 
L 293.608704 265.61899 
L 293.610868 265.719184 
L 293.716922 265.601453 
L 293.719087 265.701654 
L 293.829469 265.583631 
L 293.831633 265.683841 
L 293.937687 265.566889 
L 293.939852 265.667105 
L 294.050234 265.549875 
L 294.052399 265.6501 
L 294.158452 265.533892 
L 294.160617 265.634123 
L 294.270999 265.51765 
L 294.273164 265.617889 
L 294.379217 265.502392 
L 294.381382 265.602637 
L 294.491764 265.486887 
L 294.493929 265.587139 
L 294.599983 265.472319 
L 294.602147 265.572578 
L 294.712529 265.457516 
L 294.714694 265.557782 
L 294.820748 265.443607 
L 294.822912 265.543879 
L 294.933295 265.429473 
L 294.935459 265.529751 
L 295.041513 265.416191 
L 295.043677 265.516475 
L 295.15406 265.402693 
L 295.156224 265.502983 
L 295.262278 265.390008 
L 295.264442 265.490304 
L 295.374825 265.377115 
L 295.376989 265.477416 
L 295.483043 265.364998 
L 295.485207 265.465304 
L 295.59559 265.352679 
L 295.597754 265.452991 
L 295.703808 265.3411 
L 295.705972 265.441417 
L 295.816355 265.329327 
L 295.818519 265.42965 
L 295.924573 265.318259 
L 295.926737 265.418587 
L 295.954874 265.315204 
L 295.959203 265.515747 
L 296.034956 265.40418 
L 296.03712 265.504401 
L 296.143174 265.388734 
L 296.145338 265.488962 
L 296.255721 265.373058 
L 296.257885 265.473294 
L 296.363939 265.35835 
L 296.366103 265.458593 
L 296.476486 265.343425 
L 296.47865 265.443675 
L 296.584704 265.329424 
L 296.586868 265.429681 
L 296.697251 265.315217 
L 296.699415 265.415481 
L 296.805469 265.301892 
L 296.807633 265.402162 
L 296.918016 265.288372 
L 296.92018 265.388649 
L 297.026234 265.275692 
L 297.028399 265.375976 
L 297.138781 265.262829 
L 297.140945 265.363119 
L 297.246999 265.250766 
L 297.249164 265.351061 
L 297.359546 265.238529 
L 297.361711 265.33883 
L 297.467764 265.227053 
L 297.469929 265.32736 
L 297.580311 265.215413 
L 297.582476 265.315726 
L 297.688529 265.204497 
L 297.690694 265.304816 
L 297.801076 265.193426 
L 297.803241 265.29375 
L 297.909295 265.183044 
L 297.911459 265.283373 
L 298.021841 265.172513 
L 298.024006 265.272848 
L 298.13006 265.162638 
L 298.132224 265.262977 
L 298.242607 265.152621 
L 298.244771 265.252965 
L 298.350825 265.143227 
L 298.352989 265.243576 
L 298.463372 265.133698 
L 298.465536 265.234052 
L 298.57159 265.124762 
L 298.573754 265.22512 
L 298.684137 265.115696 
L 298.686301 265.216058 
L 298.792355 265.107192 
L 298.794519 265.207559 
L 298.904902 265.098564 
L 298.907066 265.198935 
L 299.01312 265.09047 
L 299.015284 265.190845 
L 299.125667 265.082257 
L 299.127831 265.182636 
L 299.233885 265.074551 
L 299.236049 265.174934 
L 299.346432 265.06673 
L 299.348596 265.167117 
L 299.45465 265.059391 
L 299.456815 265.159781 
L 299.567197 265.05194 
L 299.569361 265.152333 
L 299.675415 265.044946 
L 299.67758 265.145343 
L 299.787962 265.037844 
L 299.790127 265.138244 
L 299.89618 265.031175 
L 299.898345 265.131579 
L 300.008727 265.024402 
L 300.010892 265.124809 
L 300.116945 265.01804 
L 300.11911 265.11845 
L 300.229492 265.011576 
L 300.231657 265.111989 
L 300.337711 265.005502 
L 300.339875 265.105918 
L 300.450257 264.999329 
L 300.452422 265.099747 
L 300.558476 264.993525 
L 300.56064 265.093946 
L 300.649379 264.988749 
L 300.653708 265.189502 
L 300.668858 265.087469 
L 300.671023 265.187801 
L 300.777076 265.076982 
L 300.779241 265.177318 
L 300.889623 265.066348 
L 300.891788 265.166689 
L 300.997841 265.056379 
L 301.000006 265.156725 
L 301.110388 265.046272 
L 301.112553 265.146623 
L 301.218607 265.036799 
L 301.220771 265.137155 
L 301.331153 265.027197 
L 301.333318 265.127558 
L 301.439372 265.0182 
L 301.441536 265.118565 
L 301.551919 265.00908 
L 301.554083 265.10945 
L 301.660137 265.000536 
L 301.662301 265.100911 
L 301.772684 264.991878 
L 301.774848 265.092257 
L 301.880902 264.983767 
L 301.883066 265.08415 
L 301.993449 264.975549 
L 301.995613 265.075936 
L 302.101667 264.967852 
L 302.103831 265.068243 
L 302.214214 264.960053 
L 302.216378 265.060448 
L 302.322432 264.952749 
L 302.324596 265.053148 
L 302.434979 264.94535 
L 302.437143 265.045752 
L 302.543197 264.93842 
L 302.545361 265.038826 
L 302.655744 264.931401 
L 302.657908 265.03181 
L 302.763962 264.924827 
L 302.766127 265.02524 
L 302.876509 264.918169 
L 302.878673 265.018585 
L 302.984727 264.911934 
L 302.986892 265.012353 
L 303.097274 264.905618 
L 303.099439 265.006041 
L 303.205492 264.899703 
L 303.207657 265.000129 
L 303.318039 264.893712 
L 303.320204 264.994141 
L 303.426257 264.888102 
L 303.428422 264.988534 
L 303.538804 264.882418 
L 303.540969 264.982853 
L 303.647023 264.877095 
L 303.649187 264.977533 
L 303.759569 264.871703 
L 303.761734 264.972143 
L 303.867788 264.866652 
L 303.869952 264.967094 
L 303.980335 264.861534 
L 303.982499 264.961979 
L 304.088553 264.856739 
L 304.090717 264.957187 
L 304.2011 264.85188 
L 304.203264 264.95233 
L 304.309318 264.847328 
L 304.311482 264.94778 
L 304.421865 264.842713 
L 304.424029 264.943168 
L 304.530083 264.838388 
L 304.532247 264.938845 
L 304.64263 264.834003 
L 304.644794 264.934462 
L 304.750848 264.829893 
L 304.753012 264.930354 
L 304.863395 264.825724 
L 304.865559 264.926187 
L 304.971613 264.821814 
L 304.973777 264.922279 
L 305.08416 264.817848 
L 305.086324 264.918315 
L 305.192378 264.814127 
L 305.194543 264.914595 
L 305.304925 264.810351 
L 305.307089 264.910821 
L 305.413143 264.806806 
L 305.415308 264.907278 
L 305.52569 264.803208 
L 305.527855 264.903681 
L 305.633908 264.799829 
L 305.636073 264.900304 
L 305.746455 264.796396 
L 305.74862 264.896872 
L 305.854673 264.793171 
L 305.856838 264.893649 
L 305.96722 264.789893 
L 305.969385 264.890373 
L 306.075439 264.786812 
L 306.077603 264.887293 
L 306.187985 264.783679 
L 306.19015 264.884161 
L 306.296204 264.780732 
L 306.298368 264.881215 
L 306.408751 264.777732 
L 306.410915 264.878217 
L 306.516969 264.77491 
L 306.519133 264.875395 
L 306.629516 264.772035 
L 306.63168 264.872522 
L 306.737734 264.769328 
L 306.739898 264.869816 
L 306.850281 264.766569 
L 306.852445 264.867058 
L 306.958499 264.763969 
L 306.960663 264.864459 
L 307.071046 264.761317 
L 307.07321 264.861808 
L 307.179264 264.758816 
L 307.181428 264.859308 
L 307.291811 264.756263 
L 307.293975 264.856756 
L 307.400029 264.753853 
L 307.402193 264.854347 
L 307.512576 264.751392 
L 307.551535 264.75055 
L 307.622959 264.849562 
L 307.733341 264.74669 
L 307.843724 264.844939 
L 307.954106 264.742143 
L 308.064489 264.840464 
L 308.174871 264.737738 
L 308.285254 264.836127 
L 308.395636 264.733465 
L 308.506019 264.831915 
L 308.616401 264.729311 
L 308.726784 264.827818 
L 308.837167 264.725268 
L 308.947549 264.823826 
L 309.057932 264.721326 
L 309.168314 264.819931 
L 309.278697 264.717476 
L 309.389079 264.816123 
L 309.499462 264.713709 
L 309.609844 264.812397 
L 309.663953 264.710954 
L 309.668282 264.91186 
L 309.718063 264.8082 
L 309.720227 264.908603 
L 309.826281 264.801526 
L 309.828445 264.901932 
L 309.938828 264.794748 
L 309.940992 264.895157 
L 310.047046 264.788385 
L 310.04921 264.888798 
L 310.159593 264.781927 
L 310.161757 264.882342 
L 310.267811 264.775866 
L 310.269975 264.876285 
L 310.380358 264.769717 
L 310.382522 264.870139 
L 310.488576 264.76395 
L 310.49074 264.864374 
L 310.601123 264.7581 
L 310.603287 264.858528 
L 310.709341 264.752616 
L 310.711505 264.853046 
L 310.821888 264.747057 
L 310.824052 264.84749 
L 310.930106 264.741847 
L 310.932271 264.842283 
L 311.042653 264.736568 
L 311.044817 264.837006 
L 311.150871 264.731623 
L 311.153036 264.832064 
L 311.263418 264.726615 
L 311.265583 264.827058 
L 311.371636 264.721926 
L 311.373801 264.822372 
L 311.484183 264.717179 
L 311.486348 264.817628 
L 311.592401 264.712737 
L 311.594566 264.813188 
L 311.704948 264.708242 
L 311.707113 264.808696 
L 311.813167 264.704038 
L 311.815331 264.804494 
L 311.925713 264.699786 
L 311.927878 264.800244 
L 312.033932 264.69581 
L 312.036096 264.796271 
L 312.146479 264.691791 
L 312.148643 264.792254 
L 312.254697 264.688036 
L 312.256861 264.788501 
L 312.367244 264.684242 
L 312.369408 264.784708 
L 312.475462 264.680698 
L 312.477626 264.781167 
L 312.588009 264.677119 
L 312.590173 264.777589 
L 312.696227 264.673777 
L 312.698391 264.77425 
L 312.808774 264.670405 
L 312.810938 264.77088 
L 312.916992 264.667258 
L 312.919156 264.767734 
L 313.029539 264.664083 
L 313.031703 264.764561 
L 313.137757 264.661122 
L 313.139921 264.761602 
L 313.250304 264.658136 
L 313.252468 264.758618 
L 313.358522 264.655353 
L 313.360687 264.755837 
L 313.471069 264.652548 
L 313.473233 264.753033 
L 313.579287 264.649934 
L 313.581452 264.750421 
L 313.691834 264.647301 
L 313.693999 264.74779 
L 313.800052 264.64485 
L 313.802217 264.74534 
L 313.912599 264.642381 
L 313.916928 264.642288 
L 314.022982 264.740577 
L 314.133364 264.637771 
L 314.243747 264.736117 
L 314.354129 264.633456 
L 314.464512 264.731944 
L 314.574895 264.629421 
L 314.685277 264.728043 
L 314.79566 264.625652 
L 314.906042 264.724401 
L 315.016425 264.622133 
L 315.126807 264.721003 
L 315.23719 264.618852 
L 315.347572 264.717835 
L 315.457955 264.615794 
L 315.568337 264.714884 
L 315.67872 264.612947 
L 315.789103 264.712138 
L 315.899485 264.610298 
L 316.009868 264.709583 
L 316.12025 264.607834 
L 316.230633 264.707207 
L 316.341015 264.605544 
L 316.451398 264.705 
L 316.56178 264.603417 
L 316.672163 264.702949 
L 316.782545 264.60144 
L 316.892928 264.701044 
L 317.003311 264.599604 
L 317.113693 264.699275 
L 317.224076 264.597899 
L 317.334458 264.697631 
L 317.444841 264.596314 
L 317.555223 264.696103 
L 317.665606 264.594841 
L 317.775988 264.694682 
L 317.886371 264.593469 
L 317.996753 264.693359 
L 318.107136 264.592192 
L 318.217519 264.692125 
L 318.327901 264.591 
L 318.438284 264.690973 
L 318.548666 264.589887 
L 318.659049 264.689896 
L 318.769431 264.588844 
L 318.879814 264.688886 
L 318.990196 264.587864 
L 319.100579 264.687936 
L 319.210961 264.586943 
L 319.321344 264.68704 
L 319.431727 264.586072 
L 319.542109 264.686193 
L 319.652492 264.585246 
L 319.762874 264.685388 
L 319.873257 264.584461 
L 319.983639 264.684621 
L 320.094022 264.583711 
L 320.204404 264.683886 
L 320.314787 264.582991 
L 320.425169 264.68318 
L 320.535552 264.582297 
L 320.645935 264.682497 
L 320.756317 264.581624 
L 320.8667 264.681835 
L 320.977082 264.58097 
L 321.087465 264.681189 
L 321.197847 264.580331 
L 321.30823 264.680556 
L 321.418612 264.579704 
L 321.528995 264.679934 
L 321.639377 264.579086 
L 321.74976 264.679319 
L 321.860143 264.578474 
L 321.970525 264.67871 
L 322.080908 264.577867 
L 322.19129 264.678103 
L 322.301673 264.577262 
L 322.412055 264.677499 
L 322.522438 264.576657 
L 322.63282 264.676894 
L 322.743203 264.576051 
L 322.853585 264.676287 
L 322.963968 264.575443 
L 323.074351 264.675677 
L 323.184733 264.574832 
L 323.295116 264.675064 
L 323.405498 264.574216 
L 323.515881 264.674446 
L 323.626263 264.573595 
L 323.736646 264.673822 
L 323.847028 264.572969 
L 323.957411 264.673193 
L 324.067793 264.572337 
L 324.178176 264.672558 
L 324.288559 264.571699 
L 324.398941 264.671917 
L 324.509324 264.571054 
L 324.619706 264.671269 
L 324.730089 264.570403 
L 324.840471 264.670615 
L 324.950854 264.569747 
L 325.061236 264.669956 
L 325.171619 264.569084 
L 325.282001 264.669291 
L 325.392384 264.568416 
L 325.502767 264.66862 
L 325.613149 264.567744 
L 325.723532 264.667945 
L 325.833914 264.567067 
L 325.944297 264.667267 
L 326.054679 264.566386 
L 326.165062 264.666585 
L 326.275444 264.565703 
L 326.385827 264.6659 
L 326.496209 264.565017 
L 326.606592 264.665213 
L 326.716975 264.56433 
L 326.827357 264.664525 
L 326.93774 264.563642 
L 327.048122 264.663837 
L 327.158505 264.562954 
L 327.268887 264.66315 
L 327.37927 264.562268 
L 327.489652 264.662465 
L 327.600035 264.561583 
L 327.710417 264.661781 
L 327.8208 264.560901 
L 327.931183 264.661101 
L 328.041565 264.560224 
L 328.151948 264.660426 
L 328.26233 264.55955 
L 328.372713 264.659756 
L 328.483095 264.558883 
L 328.593478 264.659091 
L 328.70386 264.558222 
L 328.814243 264.658434 
L 328.924625 264.557569 
L 329.035008 264.657785 
L 329.145391 264.556924 
L 329.255773 264.657144 
L 329.366156 264.556288 
L 329.476538 264.656514 
L 329.586921 264.555662 
L 329.697303 264.655893 
L 329.807686 264.555047 
L 329.918068 264.655284 
L 330.028451 264.554444 
L 330.138833 264.654686 
L 330.249216 264.553852 
L 330.359599 264.654101 
L 330.469981 264.553274 
L 330.580364 264.65353 
L 330.690746 264.552709 
L 330.801129 264.652972 
L 330.911511 264.552159 
L 331.021894 264.652429 
L 331.132276 264.551623 
L 331.242659 264.6519 
L 331.353041 264.551102 
L 331.463424 264.651388 
L 331.573807 264.550598 
L 331.684189 264.650891 
L 331.794572 264.550109 
L 331.904954 264.65041 
L 332.015337 264.549637 
L 332.125719 264.649946 
L 332.236102 264.549181 
L 332.346484 264.6495 
L 332.456867 264.548743 
L 332.567249 264.64907 
L 332.677632 264.548322 
L 332.788015 264.648658 
L 332.898397 264.547919 
L 333.00878 264.648263 
L 333.119162 264.547533 
L 333.229545 264.647887 
L 333.339927 264.547165 
L 333.45031 264.647528 
L 333.560692 264.546815 
L 333.671075 264.647187 
L 333.781457 264.546483 
L 333.89184 264.646863 
L 334.002223 264.546169 
L 334.112605 264.646558 
L 334.222988 264.545872 
L 334.33337 264.64627 
L 334.443753 264.545593 
L 334.554135 264.646 
L 334.664518 264.545332 
L 334.7749 264.645747 
L 334.885283 264.545088 
L 334.995665 264.645512 
L 335.106048 264.544861 
L 335.216431 264.645293 
L 335.326813 264.544651 
L 335.437196 264.645092 
L 335.547578 264.544457 
L 335.657961 264.644906 
L 335.768343 264.54428 
L 335.878726 264.644737 
L 335.989108 264.544119 
L 336.099491 264.644584 
L 336.209873 264.543973 
L 336.320256 264.644446 
L 336.430639 264.543843 
L 336.541021 264.644323 
L 336.651404 264.543727 
L 336.761786 264.644214 
L 336.872169 264.543626 
L 336.982551 264.64412 
L 337.092934 264.543538 
L 337.203316 264.644039 
L 337.313699 264.543464 
L 337.424081 264.643972 
L 337.534464 264.543403 
L 337.644847 264.643917 
L 337.755229 264.543355 
L 337.865612 264.643874 
L 337.975994 264.543318 
L 338.086377 264.643844 
L 338.196759 264.543293 
L 338.307142 264.643824 
L 338.417524 264.543279 
L 338.527907 264.643816 
L 338.638289 264.543275 
L 338.748672 264.643817 
L 338.859055 264.543282 
L 338.969437 264.643828 
L 339.07982 264.543297 
L 339.190202 264.643848 
L 339.300585 264.543322 
L 339.410967 264.643877 
L 339.52135 264.543355 
L 339.631732 264.643914 
L 339.742115 264.543396 
L 339.852497 264.643959 
L 339.96288 264.543444 
L 340.073263 264.64401 
L 340.183645 264.543499 
L 340.294028 264.644068 
L 340.40441 264.54356 
L 340.514793 264.644132 
L 340.625175 264.543627 
L 340.735558 264.644202 
L 340.84594 264.543699 
L 340.956323 264.644277 
L 341.066705 264.543776 
L 341.177088 264.644356 
L 341.287471 264.543858 
L 341.397853 264.64444 
L 341.508236 264.543943 
L 341.618618 264.644527 
L 341.729001 264.544032 
L 341.839383 264.644617 
L 341.949766 264.544124 
L 342.060148 264.644711 
L 342.170531 264.544218 
L 342.280913 264.644806 
L 342.391296 264.544315 
L 342.501679 264.644904 
L 342.612061 264.544413 
L 342.722444 264.645003 
L 342.832826 264.544513 
L 342.943209 264.645103 
L 343.053591 264.544614 
L 343.163974 264.645204 
L 343.274356 264.544716 
L 343.384739 264.645306 
L 343.495121 264.544818 
L 343.605504 264.645408 
L 343.715887 264.54492 
L 343.826269 264.64551 
L 343.936652 264.545021 
L 344.047034 264.645612 
L 344.157417 264.545123 
L 344.267799 264.645712 
L 344.378182 264.545223 
L 344.488564 264.645812 
L 344.598947 264.545322 
L 344.709329 264.645911 
L 344.819712 264.545421 
L 344.930095 264.646009 
L 345.040477 264.545517 
L 345.15086 264.646105 
L 345.261242 264.545612 
L 345.371625 264.646199 
L 345.482007 264.545705 
L 345.59239 264.646291 
L 345.702772 264.545797 
L 345.813155 264.646381 
L 345.923537 264.545886 
L 346.03392 264.646469 
L 346.144303 264.545972 
L 346.254685 264.646554 
L 346.365068 264.546057 
L 346.47545 264.646637 
L 346.585833 264.546138 
L 346.696215 264.646718 
L 346.806598 264.546217 
L 346.91698 264.646796 
L 347.027363 264.546294 
L 347.137745 264.646871 
L 347.248128 264.546367 
L 347.358511 264.646943 
L 347.468893 264.546438 
L 347.579276 264.647012 
L 347.689658 264.546506 
L 347.800041 264.647079 
L 347.910423 264.546571 
L 348.020806 264.647142 
L 348.131188 264.546634 
L 348.241571 264.647203 
L 348.351953 264.546693 
L 348.462336 264.647261 
L 348.572719 264.546749 
L 348.683101 264.647316 
L 348.793484 264.546803 
L 348.903866 264.647368 
L 349.014249 264.546853 
L 349.124631 264.647417 
L 349.235014 264.546901 
L 349.345396 264.647464 
L 349.455779 264.546946 
L 349.566161 264.647507 
L 349.676544 264.546988 
L 349.786927 264.647548 
L 349.897309 264.547028 
L 350.007692 264.647586 
L 350.118074 264.547065 
L 350.228457 264.647622 
L 350.338839 264.547099 
L 350.449222 264.647655 
L 350.559604 264.547131 
L 350.669987 264.647686 
L 350.780369 264.547161 
L 350.890752 264.647714 
L 351.001135 264.547188 
L 351.111517 264.64774 
L 351.2219 264.547212 
L 351.332282 264.647764 
L 351.442665 264.547235 
L 351.553047 264.647785 
L 351.66343 264.547256 
L 351.773812 264.647805 
L 351.884195 264.547274 
L 351.994577 264.647823 
L 352.10496 264.547291 
L 352.215343 264.647838 
L 352.325725 264.547306 
L 352.436108 264.647852 
L 352.54649 264.547319 
L 352.656873 264.647865 
L 352.767255 264.547331 
L 352.877638 264.647876 
L 352.98802 264.547341 
L 353.098403 264.647885 
L 353.208785 264.54735 
L 353.319168 264.647893 
L 353.429551 264.547357 
L 353.539933 264.6479 
L 353.650316 264.547363 
L 353.760698 264.647906 
L 353.871081 264.547369 
L 353.981463 264.64791 
L 354.091846 264.547373 
L 354.202228 264.647914 
L 354.312611 264.547376 
L 354.422993 264.647917 
L 354.533376 264.547378 
L 354.643759 264.647919 
L 354.754141 264.54738 
L 354.864524 264.64792 
L 354.974906 264.547381 
L 355.085289 264.64792 
L 355.195671 264.547381 
L 355.306054 264.647921 
L 355.416436 264.547381 
L 355.526819 264.64792 
L 355.637201 264.54738 
L 355.747584 264.647919 
L 355.857967 264.547379 
L 355.968349 264.647918 
L 356.078732 264.547378 
L 356.189114 264.647917 
L 356.299497 264.547377 
L 356.409879 264.647916 
L 356.520262 264.547375 
L 356.630644 264.647914 
L 356.741027 264.547374 
L 356.851409 264.647913 
L 356.961792 264.547372 
L 357.072175 264.647911 
L 357.182557 264.547371 
L 357.29294 264.64791 
L 357.403322 264.547369 
L 357.513705 264.647908 
L 357.624087 264.547368 
L 357.73447 264.647907 
L 357.844852 264.547367 
L 357.955235 264.647906 
L 358.065617 264.547366 
L 358.176 264.647906 
L 358.286383 264.547366 
L 358.396765 264.647905 
L 358.507148 264.547366 
L 358.61753 264.647905 
L 358.727913 264.547366 
L 358.838295 264.647906 
L 358.948678 264.547366 
L 359.05906 264.647906 
L 359.169443 264.547367 
L 359.279825 264.647908 
L 359.390208 264.547369 
L 359.500591 264.647909 
L 359.610973 264.547371 
L 359.721356 264.647911 
L 359.831738 264.547373 
L 359.942121 264.647914 
L 360.052503 264.547376 
L 360.162886 264.647917 
L 360.273268 264.547379 
L 360.383651 264.64792 
L 360.494033 264.547383 
L 360.604416 264.647924 
L 360.714799 264.547387 
L 360.825181 264.647929 
L 360.935564 264.547392 
L 361.045946 264.647934 
L 361.156329 264.547397 
L 361.266711 264.64794 
L 361.377094 264.547403 
L 361.487476 264.647946 
L 361.597859 264.547409 
L 361.708241 264.647952 
L 361.818624 264.547416 
L 361.929007 264.647959 
L 362.039389 264.547423 
L 362.149772 264.647967 
L 362.260154 264.547431 
L 362.370537 264.647975 
L 362.480919 264.54744 
L 362.591302 264.647983 
L 362.701684 264.547448 
L 362.812067 264.647992 
L 362.922449 264.547457 
L 363.032832 264.648002 
L 363.143215 264.547467 
L 363.253597 264.648012 
L 363.36398 264.547477 
L 363.474362 264.648022 
L 363.584745 264.547488 
L 363.695127 264.648032 
L 363.80551 264.547498 
L 363.915892 264.648043 
L 364.026275 264.547509 
L 364.136657 264.648055 
L 364.24704 264.547521 
L 364.357423 264.648066 
L 364.467805 264.547533 
L 364.578188 264.648078 
L 364.68857 264.547545 
L 364.798953 264.648091 
L 364.909335 264.547557 
L 365.019718 264.648103 
L 365.1301 264.54757 
L 365.240483 264.648116 
L 365.350865 264.547583 
L 365.461248 264.648129 
L 365.571631 264.547596 
L 365.682013 264.648142 
L 365.792396 264.547609 
L 365.902778 264.648155 
L 366.013161 264.547622 
L 366.123543 264.648169 
L 366.233926 264.547636 
L 366.344308 264.648182 
L 366.454691 264.547649 
L 366.565073 264.648196 
L 366.675456 264.547663 
L 366.785839 264.64821 
L 366.896221 264.547677 
L 367.006604 264.648223 
L 367.116986 264.547691 
L 367.227369 264.648237 
L 367.337751 264.547705 
L 367.448134 264.648251 
L 367.558516 264.547718 
L 367.668899 264.648265 
L 367.779281 264.547732 
L 367.889664 264.648279 
L 368.000047 264.547746 
L 368.110429 264.648293 
L 368.220812 264.54776 
L 368.331194 264.648306 
L 368.441577 264.547773 
L 368.551959 264.64832 
L 368.662342 264.547787 
L 368.772724 264.648333 
L 368.883107 264.547801 
L 368.993489 264.648347 
L 369.103872 264.547814 
L 369.214255 264.64836 
L 369.324637 264.547827 
L 369.43502 264.648373 
L 369.545402 264.54784 
L 369.655785 264.648386 
L 369.766167 264.547853 
L 369.87655 264.648399 
L 369.986932 264.547866 
L 370.097315 264.648412 
L 370.207697 264.547878 
L 370.31808 264.648424 
L 370.428463 264.547891 
L 370.538845 264.648436 
L 370.649228 264.547903 
L 370.75961 264.648448 
L 370.869993 264.547915 
L 370.980375 264.64846 
L 371.090758 264.547926 
L 371.20114 264.648472 
L 371.311523 264.547938 
L 371.421905 264.648483 
L 371.532288 264.547949 
L 371.642671 264.648494 
L 371.753053 264.54796 
L 371.863436 264.648505 
L 371.973818 264.547971 
L 372.084201 264.648516 
L 372.194583 264.547981 
L 372.304966 264.648526 
L 372.415348 264.547992 
L 372.525731 264.648536 
L 372.636113 264.548001 
L 372.746496 264.648546 
L 372.856879 264.548011 
L 372.967261 264.648555 
L 373.077644 264.548021 
L 373.188026 264.648565 
L 373.298409 264.54803 
L 373.408791 264.648574 
L 373.519174 264.548039 
L 373.629556 264.648582 
L 373.739939 264.548047 
L 373.850321 264.648591 
L 373.960704 264.548055 
L 374.071087 264.648599 
L 374.181469 264.548064 
L 374.291852 264.648607 
L 374.402234 264.548071 
L 374.512617 264.648615 
L 374.622999 264.548079 
L 374.733382 264.648622 
L 374.843764 264.548086 
L 374.954147 264.648629 
L 375.064529 264.548093 
L 375.174912 264.648636 
L 375.285295 264.5481 
L 375.395677 264.648643 
L 375.50606 264.548107 
L 375.616442 264.648649 
L 375.726825 264.548113 
L 375.837207 264.648656 
L 375.94759 264.548119 
L 376.057972 264.648662 
L 376.168355 264.548125 
L 376.278737 264.648667 
L 376.38912 264.548131 
L 376.499503 264.648673 
L 376.609885 264.548136 
L 376.720268 264.648678 
L 376.83065 264.548141 
L 376.941033 264.648683 
L 377.051415 264.548146 
L 377.161798 264.648688 
L 377.27218 264.548151 
L 377.382563 264.648693 
L 377.492945 264.548156 
L 377.603328 264.648697 
L 377.713711 264.54816 
L 377.824093 264.648702 
L 377.934476 264.548164 
L 378.044858 264.648706 
L 378.155241 264.548168 
L 378.265623 264.64871 
L 378.376006 264.548172 
L 378.486388 264.648714 
L 378.596771 264.548176 
L 378.707153 264.648717 
L 378.817536 264.54818 
L 378.927919 264.648721 
L 379.038301 264.548183 
L 379.148684 264.648724 
L 379.259066 264.548186 
L 379.369449 264.648728 
L 379.479831 264.54819 
L 379.590214 264.648731 
L 379.700596 264.548193 
L 379.810979 264.648734 
L 379.921361 264.548196 
L 380.031744 264.648737 
L 380.142127 264.548199 
L 380.252509 264.64874 
L 380.362892 264.548201 
L 380.473274 264.648742 
L 380.583657 264.548204 
L 380.694039 264.648745 
L 380.804422 264.548207 
L 380.914804 264.648747 
L 381.025187 264.548209 
L 381.135569 264.64875 
L 381.245952 264.548212 
L 381.356335 264.648752 
L 381.466717 264.548214 
L 381.5771 264.648755 
L 381.687482 264.548216 
L 381.797865 264.648757 
L 381.908247 264.548218 
L 382.01863 264.648759 
L 382.129012 264.548221 
L 382.239395 264.648761 
L 382.349777 264.548223 
L 382.46016 264.648763 
L 382.570543 264.548225 
L 382.680925 264.648765 
L 382.791308 264.548227 
L 382.90169 264.648767 
L 383.012073 264.548229 
L 383.122455 264.648769 
L 383.232838 264.548231 
L 383.34322 264.648771 
L 383.453603 264.548233 
L 383.563985 264.648773 
L 383.674368 264.548235 
L 383.784751 264.648775 
L 383.895133 264.548236 
L 384.005516 264.648777 
L 384.115898 264.548238 
L 384.226281 264.648779 
L 384.336663 264.54824 
L 384.447046 264.648781 
L 384.557428 264.548242 
L 384.667811 264.648782 
L 384.778193 264.548244 
L 384.888576 264.648784 
L 384.998959 264.548246 
L 385.109341 264.648786 
L 385.219724 264.548247 
L 385.330106 264.648788 
L 385.440489 264.548249 
L 385.550871 264.64879 
L 385.661254 264.548251 
L 385.771636 264.648791 
L 385.882019 264.548253 
L 385.992401 264.648793 
L 386.102784 264.548254 
L 386.213167 264.648795 
L 386.323549 264.548256 
L 386.433932 264.648797 
L 386.544314 264.548258 
L 386.654697 264.648798 
L 386.765079 264.54826 
L 386.875462 264.6488 
L 386.985844 264.548262 
L 387.096227 264.648802 
L 387.206609 264.548263 
L 387.316992 264.648804 
L 387.427375 264.548265 
L 387.537757 264.648806 
L 387.64814 264.548267 
L 387.758522 264.648807 
L 387.868905 264.548269 
L 387.979287 264.648809 
L 388.08967 264.54827 
L 388.200052 264.648811 
L 388.310435 264.548272 
L 388.420817 264.648813 
L 388.5312 264.548274 
L 388.641583 264.648815 
L 388.751965 264.548276 
L 388.862348 264.648816 
L 388.97273 264.548278 
L 389.083113 264.648818 
L 389.193495 264.548279 
L 389.303878 264.64882 
L 389.41426 264.548281 
L 389.524643 264.648822 
L 389.635025 264.548283 
L 389.745408 264.648824 
L 389.855791 264.548285 
L 389.966173 264.648825 
L 390.076556 264.548287 
L 390.186938 264.648827 
L 390.297321 264.548288 
L 390.407703 264.648829 
L 390.518086 264.54829 
L 390.628468 264.648831 
L 390.738851 264.548292 
L 390.849233 264.648833 
L 390.959616 264.548294 
L 391.069999 264.648834 
L 391.180381 264.548296 
L 391.290764 264.648836 
L 391.401146 264.548297 
L 391.511529 264.648838 
L 391.621911 264.548299 
L 391.732294 264.64884 
L 391.842676 264.548301 
L 391.953059 264.648841 
L 392.063441 264.548303 
L 392.173824 264.648843 
L 392.284207 264.548304 
L 392.394589 264.648845 
L 392.504972 264.548306 
L 392.615354 264.648847 
L 392.725737 264.548308 
L 392.836119 264.648848 
L 392.946502 264.54831 
L 393.056884 264.64885 
L 393.167267 264.548311 
L 393.277649 264.648852 
L 393.388032 264.548313 
L 393.498415 264.648853 
L 393.608797 264.548315 
L 393.71918 264.648855 
L 393.829562 264.548316 
L 393.939945 264.648857 
L 394.050327 264.548318 
L 394.16071 264.648858 
L 394.271092 264.54832 
L 394.381475 264.64886 
L 394.491857 264.548321 
L 394.60224 264.648862 
L 394.712623 264.548323 
L 394.823005 264.648863 
L 394.933388 264.548324 
L 395.04377 264.648865 
L 395.154153 264.548326 
L 395.264535 264.648866 
L 395.374918 264.548327 
L 395.4853 264.648868 
L 395.595683 264.548329 
L 395.706065 264.648869 
L 395.816448 264.54833 
L 395.926831 264.648871 
L 396.037213 264.548332 
L 396.147596 264.648872 
L 396.257978 264.548333 
L 396.368361 264.648873 
L 396.478743 264.548335 
L 396.589126 264.648875 
L 396.699508 264.548336 
L 396.809891 264.648876 
L 396.920273 264.548337 
L 397.030656 264.648877 
L 397.141039 264.548339 
L 397.251421 264.648879 
L 397.361804 264.54834 
L 397.472186 264.64888 
L 397.582569 264.548341 
L 397.692951 264.648881 
L 397.803334 264.548342 
L 397.913716 264.648883 
L 398.024099 264.548344 
L 398.134481 264.648884 
L 398.244864 264.548345 
L 398.355247 264.648885 
L 398.465629 264.548346 
L 398.485108 264.648886 
L 398.487273 264.548346 
" clip-path="url(#pd8bd92f3ef)" style="fill: none; stroke-dasharray: 9.6,2.4,1.5,2.4; stroke-dashoffset: 0; stroke: #008000; stroke-opacity: 0.5; stroke-width: 1.5"/>
   </g>
   <g id="line2d_32">
    <path d="M 73.832727 264.598673 
L 74.163875 264.486112 
L 74.557789 264.092165 
L 75.072908 263.228653 
L 75.776326 261.570752 
L 77.250257 258.066688 
L 78.696052 255.186993 
L 80.126697 252.820934 
L 81.548684 250.889027 
L 82.972835 249.321731 
L 84.41863 248.056173 
L 85.914205 247.040031 
L 87.502848 246.229509 
L 89.260311 245.585697 
L 91.344593 245.067163 
L 94.33358 244.576548 
L 99.623284 243.715154 
L 102.406656 243.009424 
L 105.142412 242.082575 
L 108.263424 240.779399 
L 117.710871 236.656808 
L 120.050548 235.992931 
L 122.180282 235.616967 
L 124.229935 235.480086 
L 126.294737 235.566291 
L 128.47858 235.883825 
L 130.961105 236.477508 
L 134.385129 237.548507 
L 139.599081 239.167783 
L 142.146537 239.709379 
L 144.390982 239.961994 
L 146.540195 239.980646 
L 148.726202 239.775098 
L 151.100509 239.322968 
L 154.024564 238.525871 
L 161.638796 236.337151 
L 164.028253 235.956723 
L 166.225082 235.830485 
L 168.400268 235.929204 
L 170.705315 236.260665 
L 173.421591 236.886611 
L 182.488111 239.171095 
L 184.76935 239.389976 
L 186.955357 239.376173 
L 189.212788 239.13636 
L 191.788381 238.630369 
L 195.972096 237.538557 
L 199.547625 236.704314 
L 201.984698 236.363649 
L 204.194513 236.277948 
L 206.4 236.416786 
L 208.817594 236.7984 
L 212.090112 237.562839 
L 216.856041 238.659301 
L 219.271471 238.970737 
L 221.457478 239.029472 
L 223.658636 238.863786 
L 226.138996 238.445743 
L 230.357341 237.458832 
L 233.504326 236.838296 
L 235.80288 236.611366 
L 236.471668 236.691244 
L 237.064704 237.035349 
L 237.82656 237.760604 
L 238.908742 239.125998 
L 242.627119 244.03474 
L 243.958202 245.301004 
L 245.215697 246.199393 
L 246.581411 246.90477 
L 248.373504 247.558187 
L 252.455494 248.958083 
L 254.243258 249.854687 
L 256.238801 251.121548 
L 258.699683 252.967685 
L 264.335686 257.270383 
L 266.699171 258.733193 
L 268.954438 259.865621 
L 271.224855 260.767245 
L 273.809105 261.560622 
L 277.077295 262.316629 
L 280.888739 262.979494 
L 285.25426 263.547432 
L 290.693306 264.022293 
L 296.021969 264.290938 
L 302.917632 264.468898 
L 318.801897 264.590421 
L 398.487273 264.598705 
L 398.487273 264.598705 
" clip-path="url(#pd8bd92f3ef)" style="fill: none; stroke-dasharray: 5.55,2.4; stroke-dashoffset: 0; stroke: #0000ff; stroke-width: 1.5"/>
   </g>
   <g id="line2d_33">
    <path d="M 73.832727 264.598673 
L 75.867229 264.487602 
L 77.282723 264.161842 
L 78.856215 263.5654 
L 80.646144 262.641387 
L 82.743412 261.298834 
L 85.308183 259.380215 
L 88.678097 256.563331 
L 93.701585 252.046763 
L 100.261772 245.854541 
L 105.151069 240.950036 
L 109.250374 236.524432 
L 113.178694 231.952527 
L 117.371066 226.721704 
L 122.771153 219.597971 
L 132.90254 206.188212 
L 137.768029 200.177988 
L 143.207075 193.830584 
L 154.53319 180.714892 
L 159.459281 174.570593 
L 165.612567 166.505259 
L 174.646621 154.687282 
L 179.873559 148.255356 
L 186.938042 139.964363 
L 193.978717 131.589274 
L 199.380969 124.79314 
L 216.072541 103.486017 
L 233.751063 82.004584 
L 239.631639 74.633159 
L 241.919372 72.215663 
L 244.456006 69.867056 
L 247.808605 67.085772 
L 252.187113 63.743227 
L 255.634944 61.370964 
L 258.468096 59.685173 
L 261.095633 58.377757 
L 263.721007 57.319966 
L 266.500049 56.442588 
L 269.608076 55.699581 
L 273.263686 55.061411 
L 277.700631 54.520176 
L 283.066089 54.096299 
L 289.684713 53.806081 
L 299.110516 53.635794 
L 317.289007 53.569687 
L 398.487273 53.571707 
L 398.487273 53.571707 
" clip-path="url(#pd8bd92f3ef)" style="fill: none; stroke: #ff0000; stroke-width: 1.5; stroke-linecap: square"/>
   </g>
   <g id="patch_3">
    <path d="M 57.6 307.584 
L 57.6 41.472 
" style="fill: none; stroke: #000000; stroke-width: 0.8; stroke-linejoin: miter; stroke-linecap: square"/>
   </g>
   <g id="patch_4">
    <path d="M 414.72 307.584 
L 414.72 41.472 
" style="fill: none; stroke: #000000; stroke-width: 0.8; stroke-linejoin: miter; stroke-linecap: square"/>
   </g>
   <g id="patch_5">
    <path d="M 57.6 307.584 
L 414.72 307.584 
" style="fill: none; stroke: #000000; stroke-width: 0.8; stroke-linejoin: miter; stroke-linecap: square"/>
   </g>
   <g id="patch_6">
    <path d="M 57.6 41.472 
L 414.72 41.472 
" style="fill: none; stroke: #000000; stroke-width: 0.8; stroke-linejoin: miter; stroke-linecap: square"/>
   </g>
   <g id="text_18">
    <!-- x vs time -->
    <g transform="translate(208.562813 35.472)scale(0.12 -0.12)">
     <defs>
      <path id="DejaVuSans-76" d="M 191 3500 
L 800 3500 
L 1894 563 
L 2988 3500 
L 3597 3500 
L 2284 0 
L 1503 0 
L 191 3500 
z
" transform="scale(0.015625)"/>
     </defs>
     <use xlink:href="#DejaVuSans-78"/>
     <use xlink:href="#DejaVuSans-20" x="59.179688"/>
     <use xlink:href="#DejaVuSans-76" x="90.966797"/>
     <use xlink:href="#DejaVuSans-73" x="150.146484"/>
     <use xlink:href="#DejaVuSans-20" x="202.246094"/>
     <use xlink:href="#DejaVuSans-74" x="234.033203"/>
     <use xlink:href="#DejaVuSans-69" x="273.242188"/>
     <use xlink:href="#DejaVuSans-6d" x="301.025391"/>
     <use xlink:href="#DejaVuSans-65" x="398.4375"/>
    </g>
   </g>
   <g id="legend_1">
    <g id="patch_7">
     <path d="M 282.984062 94.062625 
L 407.72 94.062625 
Q 409.72 94.062625 409.72 92.062625 
L 409.72 48.472 
Q 409.72 46.472 407.72 46.472 
L 282.984062 46.472 
Q 280.984062 46.472 280.984062 48.472 
L 280.984062 92.062625 
Q 280.984062 94.062625 282.984062 94.062625 
z
" style="fill: #ffffff; opacity: 0.8; stroke: #cccccc; stroke-linejoin: miter"/>
    </g>
    <g id="line2d_34">
     <path d="M 284.984062 54.570437 
L 294.984062 54.570437 
L 304.984062 54.570437 
" style="fill: none; stroke-dasharray: 9.6,2.4,1.5,2.4; stroke-dashoffset: 0; stroke: #008000; stroke-opacity: 0.5; stroke-width: 1.5"/>
    </g>
    <g id="text_19">
     <!-- x_dot_dot (m/s^2) -->
     <g transform="translate(312.984062 58.070437)scale(0.1 -0.1)">
      <defs>
       <path id="DejaVuSans-5f" d="M 3263 -1063 
L 3263 -1509 
L -63 -1509 
L -63 -1063 
L 3263 -1063 
z
" transform="scale(0.015625)"/>
       <path id="DejaVuSans-64" d="M 2906 2969 
L 2906 4863 
L 3481 4863 
L 3481 0 
L 2906 0 
L 2906 525 
Q 2725 213 2448 61 
Q 2172 -91 1784 -91 
Q 1150 -91 751 415 
Q 353 922 353 1747 
Q 353 2572 751 3078 
Q 1150 3584 1784 3584 
Q 2172 3584 2448 3432 
Q 2725 3281 2906 2969 
z
M 947 1747 
Q 947 1113 1208 752 
Q 1469 391 1925 391 
Q 2381 391 2643 752 
Q 2906 1113 2906 1747 
Q 2906 2381 2643 2742 
Q 2381 3103 1925 3103 
Q 1469 3103 1208 2742 
Q 947 2381 947 1747 
z
" transform="scale(0.015625)"/>
       <path id="DejaVuSans-6f" d="M 1959 3097 
Q 1497 3097 1228 2736 
Q 959 2375 959 1747 
Q 959 1119 1226 758 
Q 1494 397 1959 397 
Q 2419 397 2687 759 
Q 2956 1122 2956 1747 
Q 2956 2369 2687 2733 
Q 2419 3097 1959 3097 
z
M 1959 3584 
Q 2709 3584 3137 3096 
Q 3566 2609 3566 1747 
Q 3566 888 3137 398 
Q 2709 -91 1959 -91 
Q 1206 -91 779 398 
Q 353 888 353 1747 
Q 353 2609 779 3096 
Q 1206 3584 1959 3584 
z
" transform="scale(0.015625)"/>
       <path id="DejaVuSans-2f" d="M 1625 4666 
L 2156 4666 
L 531 -594 
L 0 -594 
L 1625 4666 
z
" transform="scale(0.015625)"/>
       <path id="DejaVuSans-5e" d="M 2988 4666 
L 4684 2925 
L 4056 2925 
L 2681 4159 
L 1306 2925 
L 678 2925 
L 2375 4666 
L 2988 4666 
z
" transform="scale(0.015625)"/>
      </defs>
      <use xlink:href="#DejaVuSans-78"/>
      <use xlink:href="#DejaVuSans-5f" x="59.179688"/>
      <use xlink:href="#DejaVuSans-64" x="109.179688"/>
      <use xlink:href="#DejaVuSans-6f" x="172.65625"/>
      <use xlink:href="#DejaVuSans-74" x="233.837891"/>
      <use xlink:href="#DejaVuSans-5f" x="273.046875"/>
      <use xlink:href="#DejaVuSans-64" x="323.046875"/>
      <use xlink:href="#DejaVuSans-6f" x="386.523438"/>
      <use xlink:href="#DejaVuSans-74" x="447.705078"/>
      <use xlink:href="#DejaVuSans-20" x="486.914062"/>
      <use xlink:href="#DejaVuSans-28" x="518.701172"/>
      <use xlink:href="#DejaVuSans-6d" x="557.714844"/>
      <use xlink:href="#DejaVuSans-2f" x="655.126953"/>
      <use xlink:href="#DejaVuSans-73" x="688.818359"/>
      <use xlink:href="#DejaVuSans-5e" x="740.917969"/>
      <use xlink:href="#DejaVuSans-32" x="824.707031"/>
      <use xlink:href="#DejaVuSans-29" x="888.330078"/>
     </g>
    </g>
    <g id="line2d_35">
     <path d="M 284.984062 69.526687 
L 294.984062 69.526687 
L 304.984062 69.526687 
" style="fill: none; stroke-dasharray: 5.55,2.4; stroke-dashoffset: 0; stroke: #0000ff; stroke-width: 1.5"/>
    </g>
    <g id="text_20">
     <!-- x_dot (m/s) -->
     <g transform="translate(312.984062 73.026687)scale(0.1 -0.1)">
      <use xlink:href="#DejaVuSans-78"/>
      <use xlink:href="#DejaVuSans-5f" x="59.179688"/>
      <use xlink:href="#DejaVuSans-64" x="109.179688"/>
      <use xlink:href="#DejaVuSans-6f" x="172.65625"/>
      <use xlink:href="#DejaVuSans-74" x="233.837891"/>
      <use xlink:href="#DejaVuSans-20" x="273.046875"/>
      <use xlink:href="#DejaVuSans-28" x="304.833984"/>
      <use xlink:href="#DejaVuSans-6d" x="343.847656"/>
      <use xlink:href="#DejaVuSans-2f" x="441.259766"/>
      <use xlink:href="#DejaVuSans-73" x="474.951172"/>
      <use xlink:href="#DejaVuSans-29" x="527.050781"/>
     </g>
    </g>
    <g id="line2d_36">
     <path d="M 284.984062 84.482937 
L 294.984062 84.482937 
L 304.984062 84.482937 
" style="fill: none; stroke: #ff0000; stroke-width: 1.5; stroke-linecap: square"/>
    </g>
    <g id="text_21">
     <!-- x (m) -->
     <g transform="translate(312.984062 87.982937)scale(0.1 -0.1)">
      <use xlink:href="#DejaVuSans-78"/>
      <use xlink:href="#DejaVuSans-20" x="59.179688"/>
      <use xlink:href="#DejaVuSans-28" x="90.966797"/>
      <use xlink:href="#DejaVuSans-6d" x="129.980469"/>
      <use xlink:href="#DejaVuSans-29" x="227.392578"/>
     </g>
    </g>
   </g>
  </g>
 </g>
 <defs>
  <clipPath id="pd8bd92f3ef">
   <rect x="57.6" y="41.472" width="357.12" height="266.112"/>
  </clipPath>
 </defs>
</svg>
