<?xml version="1.0" encoding="utf-8" standalone="no"?>
<!DOCTYPE svg PUBLIC "-//W3C//DTD SVG 1.1//EN"
  "http://www.w3.org/Graphics/SVG/1.1/DTD/svg11.dtd">
<svg xmlns:xlink="http://www.w3.org/1999/xlink" width="460.8pt" height="345.6pt" viewBox="0 0 460.8 345.6" xmlns="http://www.w3.org/2000/svg" version="1.1">
 <metadata>
  <rdf:RDF xmlns:dc="http://purl.org/dc/elements/1.1/" xmlns:cc="http://creativecommons.org/ns#" xmlns:rdf="http://www.w3.org/1999/02/22-rdf-syntax-ns#">
   <cc:Work>
    <dc:type rdf:resource="http://purl.org/dc/dcmitype/StillImage"/>
    <dc:date>2023-08-16T15:06:44.372921</dc:date>
    <dc:format>image/svg+xml</dc:format>
    <dc:creator>
     <cc:Agent>
      <dc:title>Matplotlib v3.5.1, https://matplotlib.org/</dc:title>
     </cc:Agent>
    </dc:creator>
   </cc:Work>
  </rdf:RDF>
 </metadata>
 <defs>
  <style type="text/css">*{stroke-linejoin: round; stroke-linecap: butt}</style>
 </defs>
 <g id="figure_1">
  <g id="patch_1">
   <path d="M 0 345.6 
L 460.8 345.6 
L 460.8 0 
L 0 0 
L 0 345.6 
z
" style="fill: none"/>
  </g>
  <g id="axes_1">
   <g id="patch_2">
    <path d="M 57.6 307.584 
L 414.72 307.584 
L 414.72 41.472 
L 57.6 41.472 
L 57.6 307.584 
z
" style="fill: none"/>
   </g>
   <g id="matplotlib.axis_1">
    <g id="xtick_1">
     <g id="line2d_1">
      <path d="M 73.832727 307.584 
L 73.832727 41.472 
" clip-path="url(#pab7eea1879)" style="fill: none; stroke: #b0b0b0; stroke-width: 0.8; stroke-linecap: square"/>
     </g>
     <g id="line2d_2">
      <defs>
       <path id="mfad4ad03f3" d="M 0 0 
L 0 3.5 
" style="stroke: #000000; stroke-width: 0.8"/>
      </defs>
      <g>
       <use xlink:href="#mfad4ad03f3" x="73.832727" y="307.584" style="stroke: #000000; stroke-width: 0.8"/>
      </g>
     </g>
     <g id="text_1">
      <!-- 0 -->
      <g transform="translate(70.651477 322.182437)scale(0.1 -0.1)">
       <defs>
        <path id="DejaVuSans-30" d="M 2034 4250 
Q 1547 4250 1301 3770 
Q 1056 3291 1056 2328 
Q 1056 1369 1301 889 
Q 1547 409 2034 409 
Q 2525 409 2770 889 
Q 3016 1369 3016 2328 
Q 3016 3291 2770 3770 
Q 2525 4250 2034 4250 
z
M 2034 4750 
Q 2819 4750 3233 4129 
Q 3647 3509 3647 2328 
Q 3647 1150 3233 529 
Q 2819 -91 2034 -91 
Q 1250 -91 836 529 
Q 422 1150 422 2328 
Q 422 3509 836 4129 
Q 1250 4750 2034 4750 
z
" transform="scale(0.015625)"/>
       </defs>
       <use xlink:href="#DejaVuSans-30"/>
      </g>
     </g>
    </g>
    <g id="xtick_2">
     <g id="line2d_3">
      <path d="M 127.941818 307.584 
L 127.941818 41.472 
" clip-path="url(#pab7eea1879)" style="fill: none; stroke: #b0b0b0; stroke-width: 0.8; stroke-linecap: square"/>
     </g>
     <g id="line2d_4">
      <g>
       <use xlink:href="#mfad4ad03f3" x="127.941818" y="307.584" style="stroke: #000000; stroke-width: 0.8"/>
      </g>
     </g>
     <g id="text_2">
      <!-- 5 -->
      <g transform="translate(124.760568 322.182437)scale(0.1 -0.1)">
       <defs>
        <path id="DejaVuSans-35" d="M 691 4666 
L 3169 4666 
L 3169 4134 
L 1269 4134 
L 1269 2991 
Q 1406 3038 1543 3061 
Q 1681 3084 1819 3084 
Q 2600 3084 3056 2656 
Q 3513 2228 3513 1497 
Q 3513 744 3044 326 
Q 2575 -91 1722 -91 
Q 1428 -91 1123 -41 
Q 819 9 494 109 
L 494 744 
Q 775 591 1075 516 
Q 1375 441 1709 441 
Q 2250 441 2565 725 
Q 2881 1009 2881 1497 
Q 2881 1984 2565 2268 
Q 2250 2553 1709 2553 
Q 1456 2553 1204 2497 
Q 953 2441 691 2322 
L 691 4666 
z
" transform="scale(0.015625)"/>
       </defs>
       <use xlink:href="#DejaVuSans-35"/>
      </g>
     </g>
    </g>
    <g id="xtick_3">
     <g id="line2d_5">
      <path d="M 182.050909 307.584 
L 182.050909 41.472 
" clip-path="url(#pab7eea1879)" style="fill: none; stroke: #b0b0b0; stroke-width: 0.8; stroke-linecap: square"/>
     </g>
     <g id="line2d_6">
      <g>
       <use xlink:href="#mfad4ad03f3" x="182.050909" y="307.584" style="stroke: #000000; stroke-width: 0.8"/>
      </g>
     </g>
     <g id="text_3">
      <!-- 10 -->
      <g transform="translate(175.688409 322.182437)scale(0.1 -0.1)">
       <defs>
        <path id="DejaVuSans-31" d="M 794 531 
L 1825 531 
L 1825 4091 
L 703 3866 
L 703 4441 
L 1819 4666 
L 2450 4666 
L 2450 531 
L 3481 531 
L 3481 0 
L 794 0 
L 794 531 
z
" transform="scale(0.015625)"/>
       </defs>
       <use xlink:href="#DejaVuSans-31"/>
       <use xlink:href="#DejaVuSans-30" x="63.623047"/>
      </g>
     </g>
    </g>
    <g id="xtick_4">
     <g id="line2d_7">
      <path d="M 236.16 307.584 
L 236.16 41.472 
" clip-path="url(#pab7eea1879)" style="fill: none; stroke: #b0b0b0; stroke-width: 0.8; stroke-linecap: square"/>
     </g>
     <g id="line2d_8">
      <g>
       <use xlink:href="#mfad4ad03f3" x="236.16" y="307.584" style="stroke: #000000; stroke-width: 0.8"/>
      </g>
     </g>
     <g id="text_4">
      <!-- 15 -->
      <g transform="translate(229.7975 322.182437)scale(0.1 -0.1)">
       <use xlink:href="#DejaVuSans-31"/>
       <use xlink:href="#DejaVuSans-35" x="63.623047"/>
      </g>
     </g>
    </g>
    <g id="xtick_5">
     <g id="line2d_9">
      <path d="M 290.269091 307.584 
L 290.269091 41.472 
" clip-path="url(#pab7eea1879)" style="fill: none; stroke: #b0b0b0; stroke-width: 0.8; stroke-linecap: square"/>
     </g>
     <g id="line2d_10">
      <g>
       <use xlink:href="#mfad4ad03f3" x="290.269091" y="307.584" style="stroke: #000000; stroke-width: 0.8"/>
      </g>
     </g>
     <g id="text_5">
      <!-- 20 -->
      <g transform="translate(283.906591 322.182437)scale(0.1 -0.1)">
       <defs>
        <path id="DejaVuSans-32" d="M 1228 531 
L 3431 531 
L 3431 0 
L 469 0 
L 469 531 
Q 828 903 1448 1529 
Q 2069 2156 2228 2338 
Q 2531 2678 2651 2914 
Q 2772 3150 2772 3378 
Q 2772 3750 2511 3984 
Q 2250 4219 1831 4219 
Q 1534 4219 1204 4116 
Q 875 4013 500 3803 
L 500 4441 
Q 881 4594 1212 4672 
Q 1544 4750 1819 4750 
Q 2544 4750 2975 4387 
Q 3406 4025 3406 3419 
Q 3406 3131 3298 2873 
Q 3191 2616 2906 2266 
Q 2828 2175 2409 1742 
Q 1991 1309 1228 531 
z
" transform="scale(0.015625)"/>
       </defs>
       <use xlink:href="#DejaVuSans-32"/>
       <use xlink:href="#DejaVuSans-30" x="63.623047"/>
      </g>
     </g>
    </g>
    <g id="xtick_6">
     <g id="line2d_11">
      <path d="M 344.378182 307.584 
L 344.378182 41.472 
" clip-path="url(#pab7eea1879)" style="fill: none; stroke: #b0b0b0; stroke-width: 0.8; stroke-linecap: square"/>
     </g>
     <g id="line2d_12">
      <g>
       <use xlink:href="#mfad4ad03f3" x="344.378182" y="307.584" style="stroke: #000000; stroke-width: 0.8"/>
      </g>
     </g>
     <g id="text_6">
      <!-- 25 -->
      <g transform="translate(338.015682 322.182437)scale(0.1 -0.1)">
       <use xlink:href="#DejaVuSans-32"/>
       <use xlink:href="#DejaVuSans-35" x="63.623047"/>
      </g>
     </g>
    </g>
    <g id="xtick_7">
     <g id="line2d_13">
      <path d="M 398.487273 307.584 
L 398.487273 41.472 
" clip-path="url(#pab7eea1879)" style="fill: none; stroke: #b0b0b0; stroke-width: 0.8; stroke-linecap: square"/>
     </g>
     <g id="line2d_14">
      <g>
       <use xlink:href="#mfad4ad03f3" x="398.487273" y="307.584" style="stroke: #000000; stroke-width: 0.8"/>
      </g>
     </g>
     <g id="text_7">
      <!-- 30 -->
      <g transform="translate(392.124773 322.182437)scale(0.1 -0.1)">
       <defs>
        <path id="DejaVuSans-33" d="M 2597 2516 
Q 3050 2419 3304 2112 
Q 3559 1806 3559 1356 
Q 3559 666 3084 287 
Q 2609 -91 1734 -91 
Q 1441 -91 1130 -33 
Q 819 25 488 141 
L 488 750 
Q 750 597 1062 519 
Q 1375 441 1716 441 
Q 2309 441 2620 675 
Q 2931 909 2931 1356 
Q 2931 1769 2642 2001 
Q 2353 2234 1838 2234 
L 1294 2234 
L 1294 2753 
L 1863 2753 
Q 2328 2753 2575 2939 
Q 2822 3125 2822 3475 
Q 2822 3834 2567 4026 
Q 2313 4219 1838 4219 
Q 1578 4219 1281 4162 
Q 984 4106 628 3988 
L 628 4550 
Q 988 4650 1302 4700 
Q 1616 4750 1894 4750 
Q 2613 4750 3031 4423 
Q 3450 4097 3450 3541 
Q 3450 3153 3228 2886 
Q 3006 2619 2597 2516 
z
" transform="scale(0.015625)"/>
       </defs>
       <use xlink:href="#DejaVuSans-33"/>
       <use xlink:href="#DejaVuSans-30" x="63.623047"/>
      </g>
     </g>
    </g>
    <g id="text_8">
     <!-- time (s) -->
     <g transform="translate(216.768594 335.860562)scale(0.1 -0.1)">
      <defs>
       <path id="DejaVuSans-74" d="M 1172 4494 
L 1172 3500 
L 2356 3500 
L 2356 3053 
L 1172 3053 
L 1172 1153 
Q 1172 725 1289 603 
Q 1406 481 1766 481 
L 2356 481 
L 2356 0 
L 1766 0 
Q 1100 0 847 248 
Q 594 497 594 1153 
L 594 3053 
L 172 3053 
L 172 3500 
L 594 3500 
L 594 4494 
L 1172 4494 
z
" transform="scale(0.015625)"/>
       <path id="DejaVuSans-69" d="M 603 3500 
L 1178 3500 
L 1178 0 
L 603 0 
L 603 3500 
z
M 603 4863 
L 1178 4863 
L 1178 4134 
L 603 4134 
L 603 4863 
z
" transform="scale(0.015625)"/>
       <path id="DejaVuSans-6d" d="M 3328 2828 
Q 3544 3216 3844 3400 
Q 4144 3584 4550 3584 
Q 5097 3584 5394 3201 
Q 5691 2819 5691 2113 
L 5691 0 
L 5113 0 
L 5113 2094 
Q 5113 2597 4934 2840 
Q 4756 3084 4391 3084 
Q 3944 3084 3684 2787 
Q 3425 2491 3425 1978 
L 3425 0 
L 2847 0 
L 2847 2094 
Q 2847 2600 2669 2842 
Q 2491 3084 2119 3084 
Q 1678 3084 1418 2786 
Q 1159 2488 1159 1978 
L 1159 0 
L 581 0 
L 581 3500 
L 1159 3500 
L 1159 2956 
Q 1356 3278 1631 3431 
Q 1906 3584 2284 3584 
Q 2666 3584 2933 3390 
Q 3200 3197 3328 2828 
z
" transform="scale(0.015625)"/>
       <path id="DejaVuSans-65" d="M 3597 1894 
L 3597 1613 
L 953 1613 
Q 991 1019 1311 708 
Q 1631 397 2203 397 
Q 2534 397 2845 478 
Q 3156 559 3463 722 
L 3463 178 
Q 3153 47 2828 -22 
Q 2503 -91 2169 -91 
Q 1331 -91 842 396 
Q 353 884 353 1716 
Q 353 2575 817 3079 
Q 1281 3584 2069 3584 
Q 2775 3584 3186 3129 
Q 3597 2675 3597 1894 
z
M 3022 2063 
Q 3016 2534 2758 2815 
Q 2500 3097 2075 3097 
Q 1594 3097 1305 2825 
Q 1016 2553 972 2059 
L 3022 2063 
z
" transform="scale(0.015625)"/>
       <path id="DejaVuSans-20" transform="scale(0.015625)"/>
       <path id="DejaVuSans-28" d="M 1984 4856 
Q 1566 4138 1362 3434 
Q 1159 2731 1159 2009 
Q 1159 1288 1364 580 
Q 1569 -128 1984 -844 
L 1484 -844 
Q 1016 -109 783 600 
Q 550 1309 550 2009 
Q 550 2706 781 3412 
Q 1013 4119 1484 4856 
L 1984 4856 
z
" transform="scale(0.015625)"/>
       <path id="DejaVuSans-73" d="M 2834 3397 
L 2834 2853 
Q 2591 2978 2328 3040 
Q 2066 3103 1784 3103 
Q 1356 3103 1142 2972 
Q 928 2841 928 2578 
Q 928 2378 1081 2264 
Q 1234 2150 1697 2047 
L 1894 2003 
Q 2506 1872 2764 1633 
Q 3022 1394 3022 966 
Q 3022 478 2636 193 
Q 2250 -91 1575 -91 
Q 1294 -91 989 -36 
Q 684 19 347 128 
L 347 722 
Q 666 556 975 473 
Q 1284 391 1588 391 
Q 1994 391 2212 530 
Q 2431 669 2431 922 
Q 2431 1156 2273 1281 
Q 2116 1406 1581 1522 
L 1381 1569 
Q 847 1681 609 1914 
Q 372 2147 372 2553 
Q 372 3047 722 3315 
Q 1072 3584 1716 3584 
Q 2034 3584 2315 3537 
Q 2597 3491 2834 3397 
z
" transform="scale(0.015625)"/>
       <path id="DejaVuSans-29" d="M 513 4856 
L 1013 4856 
Q 1481 4119 1714 3412 
Q 1947 2706 1947 2009 
Q 1947 1309 1714 600 
Q 1481 -109 1013 -844 
L 513 -844 
Q 928 -128 1133 580 
Q 1338 1288 1338 2009 
Q 1338 2731 1133 3434 
Q 928 4138 513 4856 
z
" transform="scale(0.015625)"/>
      </defs>
      <use xlink:href="#DejaVuSans-74"/>
      <use xlink:href="#DejaVuSans-69" x="39.208984"/>
      <use xlink:href="#DejaVuSans-6d" x="66.992188"/>
      <use xlink:href="#DejaVuSans-65" x="164.404297"/>
      <use xlink:href="#DejaVuSans-20" x="225.927734"/>
      <use xlink:href="#DejaVuSans-28" x="257.714844"/>
      <use xlink:href="#DejaVuSans-73" x="296.728516"/>
      <use xlink:href="#DejaVuSans-29" x="348.828125"/>
     </g>
    </g>
   </g>
   <g id="matplotlib.axis_2">
    <g id="ytick_1">
     <g id="line2d_15">
      <path d="M 57.6 304.72088 
L 414.72 304.72088 
" clip-path="url(#pab7eea1879)" style="fill: none; stroke: #b0b0b0; stroke-width: 0.8; stroke-linecap: square"/>
     </g>
     <g id="line2d_16">
      <defs>
       <path id="m9ec5f739af" d="M 0 0 
L -3.5 0 
" style="stroke: #000000; stroke-width: 0.8"/>
      </defs>
      <g>
       <use xlink:href="#m9ec5f739af" x="57.6" y="304.72088" style="stroke: #000000; stroke-width: 0.8"/>
      </g>
     </g>
     <g id="text_9">
      <!-- −0.50 -->
      <g transform="translate(19.954687 308.520099)scale(0.1 -0.1)">
       <defs>
        <path id="DejaVuSans-2212" d="M 678 2272 
L 4684 2272 
L 4684 1741 
L 678 1741 
L 678 2272 
z
" transform="scale(0.015625)"/>
        <path id="DejaVuSans-2e" d="M 684 794 
L 1344 794 
L 1344 0 
L 684 0 
L 684 794 
z
" transform="scale(0.015625)"/>
       </defs>
       <use xlink:href="#DejaVuSans-2212"/>
       <use xlink:href="#DejaVuSans-30" x="83.789062"/>
       <use xlink:href="#DejaVuSans-2e" x="147.412109"/>
       <use xlink:href="#DejaVuSans-35" x="179.199219"/>
       <use xlink:href="#DejaVuSans-30" x="242.822266"/>
      </g>
     </g>
    </g>
    <g id="ytick_2">
     <g id="line2d_17">
      <path d="M 57.6 273.32677 
L 414.72 273.32677 
" clip-path="url(#pab7eea1879)" style="fill: none; stroke: #b0b0b0; stroke-width: 0.8; stroke-linecap: square"/>
     </g>
     <g id="line2d_18">
      <g>
       <use xlink:href="#m9ec5f739af" x="57.6" y="273.32677" style="stroke: #000000; stroke-width: 0.8"/>
      </g>
     </g>
     <g id="text_10">
      <!-- −0.25 -->
      <g transform="translate(19.954687 277.125989)scale(0.1 -0.1)">
       <use xlink:href="#DejaVuSans-2212"/>
       <use xlink:href="#DejaVuSans-30" x="83.789062"/>
       <use xlink:href="#DejaVuSans-2e" x="147.412109"/>
       <use xlink:href="#DejaVuSans-32" x="179.199219"/>
       <use xlink:href="#DejaVuSans-35" x="242.822266"/>
      </g>
     </g>
    </g>
    <g id="ytick_3">
     <g id="line2d_19">
      <path d="M 57.6 241.93266 
L 414.72 241.93266 
" clip-path="url(#pab7eea1879)" style="fill: none; stroke: #b0b0b0; stroke-width: 0.8; stroke-linecap: square"/>
     </g>
     <g id="line2d_20">
      <g>
       <use xlink:href="#m9ec5f739af" x="57.6" y="241.93266" style="stroke: #000000; stroke-width: 0.8"/>
      </g>
     </g>
     <g id="text_11">
      <!-- 0.00 -->
      <g transform="translate(28.334375 245.731879)scale(0.1 -0.1)">
       <use xlink:href="#DejaVuSans-30"/>
       <use xlink:href="#DejaVuSans-2e" x="63.623047"/>
       <use xlink:href="#DejaVuSans-30" x="95.410156"/>
       <use xlink:href="#DejaVuSans-30" x="159.033203"/>
      </g>
     </g>
    </g>
    <g id="ytick_4">
     <g id="line2d_21">
      <path d="M 57.6 210.53855 
L 414.72 210.53855 
" clip-path="url(#pab7eea1879)" style="fill: none; stroke: #b0b0b0; stroke-width: 0.8; stroke-linecap: square"/>
     </g>
     <g id="line2d_22">
      <g>
       <use xlink:href="#m9ec5f739af" x="57.6" y="210.53855" style="stroke: #000000; stroke-width: 0.8"/>
      </g>
     </g>
     <g id="text_12">
      <!-- 0.25 -->
      <g transform="translate(28.334375 214.337769)scale(0.1 -0.1)">
       <use xlink:href="#DejaVuSans-30"/>
       <use xlink:href="#DejaVuSans-2e" x="63.623047"/>
       <use xlink:href="#DejaVuSans-32" x="95.410156"/>
       <use xlink:href="#DejaVuSans-35" x="159.033203"/>
      </g>
     </g>
    </g>
    <g id="ytick_5">
     <g id="line2d_23">
      <path d="M 57.6 179.14444 
L 414.72 179.14444 
" clip-path="url(#pab7eea1879)" style="fill: none; stroke: #b0b0b0; stroke-width: 0.8; stroke-linecap: square"/>
     </g>
     <g id="line2d_24">
      <g>
       <use xlink:href="#m9ec5f739af" x="57.6" y="179.14444" style="stroke: #000000; stroke-width: 0.8"/>
      </g>
     </g>
     <g id="text_13">
      <!-- 0.50 -->
      <g transform="translate(28.334375 182.943659)scale(0.1 -0.1)">
       <use xlink:href="#DejaVuSans-30"/>
       <use xlink:href="#DejaVuSans-2e" x="63.623047"/>
       <use xlink:href="#DejaVuSans-35" x="95.410156"/>
       <use xlink:href="#DejaVuSans-30" x="159.033203"/>
      </g>
     </g>
    </g>
    <g id="ytick_6">
     <g id="line2d_25">
      <path d="M 57.6 147.75033 
L 414.72 147.75033 
" clip-path="url(#pab7eea1879)" style="fill: none; stroke: #b0b0b0; stroke-width: 0.8; stroke-linecap: square"/>
     </g>
     <g id="line2d_26">
      <g>
       <use xlink:href="#m9ec5f739af" x="57.6" y="147.75033" style="stroke: #000000; stroke-width: 0.8"/>
      </g>
     </g>
     <g id="text_14">
      <!-- 0.75 -->
      <g transform="translate(28.334375 151.549549)scale(0.1 -0.1)">
       <defs>
        <path id="DejaVuSans-37" d="M 525 4666 
L 3525 4666 
L 3525 4397 
L 1831 0 
L 1172 0 
L 2766 4134 
L 525 4134 
L 525 4666 
z
" transform="scale(0.015625)"/>
       </defs>
       <use xlink:href="#DejaVuSans-30"/>
       <use xlink:href="#DejaVuSans-2e" x="63.623047"/>
       <use xlink:href="#DejaVuSans-37" x="95.410156"/>
       <use xlink:href="#DejaVuSans-35" x="159.033203"/>
      </g>
     </g>
    </g>
    <g id="ytick_7">
     <g id="line2d_27">
      <path d="M 57.6 116.35622 
L 414.72 116.35622 
" clip-path="url(#pab7eea1879)" style="fill: none; stroke: #b0b0b0; stroke-width: 0.8; stroke-linecap: square"/>
     </g>
     <g id="line2d_28">
      <g>
       <use xlink:href="#m9ec5f739af" x="57.6" y="116.35622" style="stroke: #000000; stroke-width: 0.8"/>
      </g>
     </g>
     <g id="text_15">
      <!-- 1.00 -->
      <g transform="translate(28.334375 120.155439)scale(0.1 -0.1)">
       <use xlink:href="#DejaVuSans-31"/>
       <use xlink:href="#DejaVuSans-2e" x="63.623047"/>
       <use xlink:href="#DejaVuSans-30" x="95.410156"/>
       <use xlink:href="#DejaVuSans-30" x="159.033203"/>
      </g>
     </g>
    </g>
    <g id="ytick_8">
     <g id="line2d_29">
      <path d="M 57.6 84.96211 
L 414.72 84.96211 
" clip-path="url(#pab7eea1879)" style="fill: none; stroke: #b0b0b0; stroke-width: 0.8; stroke-linecap: square"/>
     </g>
     <g id="line2d_30">
      <g>
       <use xlink:href="#m9ec5f739af" x="57.6" y="84.96211" style="stroke: #000000; stroke-width: 0.8"/>
      </g>
     </g>
     <g id="text_16">
      <!-- 1.25 -->
      <g transform="translate(28.334375 88.761329)scale(0.1 -0.1)">
       <use xlink:href="#DejaVuSans-31"/>
       <use xlink:href="#DejaVuSans-2e" x="63.623047"/>
       <use xlink:href="#DejaVuSans-32" x="95.410156"/>
       <use xlink:href="#DejaVuSans-35" x="159.033203"/>
      </g>
     </g>
    </g>
    <g id="ytick_9">
     <g id="line2d_31">
      <path d="M 57.6 53.568 
L 414.72 53.568 
" clip-path="url(#pab7eea1879)" style="fill: none; stroke: #b0b0b0; stroke-width: 0.8; stroke-linecap: square"/>
     </g>
     <g id="line2d_32">
      <g>
       <use xlink:href="#m9ec5f739af" x="57.6" y="53.568" style="stroke: #000000; stroke-width: 0.8"/>
      </g>
     </g>
     <g id="text_17">
      <!-- 1.50 -->
      <g transform="translate(28.334375 57.367219)scale(0.1 -0.1)">
       <use xlink:href="#DejaVuSans-31"/>
       <use xlink:href="#DejaVuSans-2e" x="63.623047"/>
       <use xlink:href="#DejaVuSans-35" x="95.410156"/>
       <use xlink:href="#DejaVuSans-30" x="159.033203"/>
      </g>
     </g>
    </g>
    <g id="text_18">
     <!-- State -->
     <g transform="translate(13.875 187.763156)rotate(-90)scale(0.1 -0.1)">
      <defs>
       <path id="DejaVuSans-53" d="M 3425 4513 
L 3425 3897 
Q 3066 4069 2747 4153 
Q 2428 4238 2131 4238 
Q 1616 4238 1336 4038 
Q 1056 3838 1056 3469 
Q 1056 3159 1242 3001 
Q 1428 2844 1947 2747 
L 2328 2669 
Q 3034 2534 3370 2195 
Q 3706 1856 3706 1288 
Q 3706 609 3251 259 
Q 2797 -91 1919 -91 
Q 1588 -91 1214 -16 
Q 841 59 441 206 
L 441 856 
Q 825 641 1194 531 
Q 1563 422 1919 422 
Q 2459 422 2753 634 
Q 3047 847 3047 1241 
Q 3047 1584 2836 1778 
Q 2625 1972 2144 2069 
L 1759 2144 
Q 1053 2284 737 2584 
Q 422 2884 422 3419 
Q 422 4038 858 4394 
Q 1294 4750 2059 4750 
Q 2388 4750 2728 4690 
Q 3069 4631 3425 4513 
z
" transform="scale(0.015625)"/>
       <path id="DejaVuSans-61" d="M 2194 1759 
Q 1497 1759 1228 1600 
Q 959 1441 959 1056 
Q 959 750 1161 570 
Q 1363 391 1709 391 
Q 2188 391 2477 730 
Q 2766 1069 2766 1631 
L 2766 1759 
L 2194 1759 
z
M 3341 1997 
L 3341 0 
L 2766 0 
L 2766 531 
Q 2569 213 2275 61 
Q 1981 -91 1556 -91 
Q 1019 -91 701 211 
Q 384 513 384 1019 
Q 384 1609 779 1909 
Q 1175 2209 1959 2209 
L 2766 2209 
L 2766 2266 
Q 2766 2663 2505 2880 
Q 2244 3097 1772 3097 
Q 1472 3097 1187 3025 
Q 903 2953 641 2809 
L 641 3341 
Q 956 3463 1253 3523 
Q 1550 3584 1831 3584 
Q 2591 3584 2966 3190 
Q 3341 2797 3341 1997 
z
" transform="scale(0.015625)"/>
      </defs>
      <use xlink:href="#DejaVuSans-53"/>
      <use xlink:href="#DejaVuSans-74" x="63.476562"/>
      <use xlink:href="#DejaVuSans-61" x="102.685547"/>
      <use xlink:href="#DejaVuSans-74" x="163.964844"/>
      <use xlink:href="#DejaVuSans-65" x="203.173828"/>
     </g>
    </g>
   </g>
   <g id="line2d_33">
    <path d="M 73.832727 241.93266 
L 75.174633 241.820487 
L 76.927767 241.392826 
L 78.810764 240.648564 
L 82.468538 238.936477 
L 87.533149 236.369404 
L 90.887913 234.432755 
L 94.02624 232.401122 
L 97.489222 229.874556 
L 102.110138 226.471417 
L 105.583942 224.26903 
L 115.031389 218.359971 
L 132.389585 206.869992 
L 138.612131 202.767295 
L 147.421091 197.059549 
L 150.061615 195.313996 
L 157.842502 189.742075 
L 161.705891 187.131914 
L 189.333993 168.784589 
L 194.712436 165.195825 
L 207.871767 155.938676 
L 212.752407 152.327427 
L 215.825804 150.017933 
L 220.576582 146.512913 
L 225.532975 142.634459 
L 229.418007 140.008709 
L 234.872204 136.543654 
L 238.281076 134.672614 
L 242.793775 132.46694 
L 247.068393 130.608305 
L 251.39712 128.978226 
L 256.364335 127.340776 
L 261.39648 125.920374 
L 266.969716 124.580348 
L 272.965004 123.37203 
L 279.663709 122.258527 
L 286.816931 121.296032 
L 295.073978 120.416712 
L 304.175127 119.672406 
L 315.105164 119.012798 
L 328.188742 118.464126 
L 343.490793 118.046756 
L 363.024175 117.731642 
L 393.260335 117.498444 
L 398.487273 117.475749 
L 398.487273 117.475749 
" clip-path="url(#pab7eea1879)" style="fill: none; stroke: #ff0000; stroke-width: 1.5; stroke-linecap: square"/>
   </g>
   <g id="line2d_34">
    <path d="M 73.832727 53.568 
L 74.449571 53.677504 
L 75.077236 54.060591 
L 75.93216 54.867247 
L 77.2416 56.443918 
L 79.654865 59.757433 
L 88.117527 71.940782 
L 144.228655 152.781544 
L 146.815069 155.980453 
L 149.347375 158.760765 
L 151.87968 161.215701 
L 154.466095 163.415525 
L 157.258124 165.495902 
L 160.21248 167.421043 
L 163.199302 169.103942 
L 166.294342 170.592923 
L 169.670749 171.965312 
L 173.815505 173.404293 
L 177.852044 174.572989 
L 182.126662 175.574919 
L 188.089484 176.727434 
L 191.768902 177.244862 
L 195.729687 177.496483 
L 206.87616 177.915453 
L 221.972596 178.424275 
L 240.499549 179.04573 
L 256.526662 179.301959 
L 282.682996 179.472687 
L 334.162385 179.548599 
L 398.487273 179.560127 
L 398.487273 179.560127 
" clip-path="url(#pab7eea1879)" style="fill: none; stroke: #0000ff; stroke-width: 1.5; stroke-linecap: square"/>
   </g>
   <g id="line2d_35">
    <path d="M 73.832727 241.93266 
L 74.02752 241.828824 
L 74.373818 241.280693 
L 74.698473 240.294458 
L 75.120524 238.099682 
L 75.910516 232.288246 
L 76.700509 224.747072 
L 77.566255 214.163888 
L 80.2176 181.165472 
L 80.975127 174.589887 
L 81.656902 170.547604 
L 82.133062 168.76944 
L 82.576756 167.89392 
L 82.933876 167.548334 
L 83.1936 167.626643 
L 83.43168 168.025395 
L 83.7888 169.164009 
L 84.26496 171.564747 
L 84.925091 176.149475 
L 85.780015 183.966444 
L 86.461789 192.116328 
L 87.619724 209.330083 
L 92.175709 278.952658 
L 92.998167 286.919979 
L 93.679942 291.801713 
L 94.210211 294.053898 
L 94.62144 295.081354 
L 94.924451 295.45827 
L 95.140887 295.454276 
L 95.324858 295.201715 
L 95.617047 294.423638 
L 96.060742 292.468803 
L 96.64512 288.712988 
L 97.370182 282.009273 
L 98.149353 272.618451 
L 99.577833 252.443041 
L 100.952204 233.64296 
L 102.034385 221.258418 
L 102.846022 213.912241 
L 103.646836 208.148418 
L 104.166284 205.598744 
L 104.642444 204.292918 
L 104.967098 203.926436 
L 105.280931 203.825883 
L 105.638051 203.959708 
L 105.962705 204.488278 
L 106.4064 205.839684 
L 107.012422 208.607583 
L 107.71584 212.936763 
L 108.927884 222.41075 
L 110.064175 233.270193 
L 112.47744 256.409119 
L 113.754415 265.251935 
L 114.50112 268.821465 
L 115.21536 270.832115 
L 116.059462 272.30136 
L 116.384116 272.35822 
L 116.892742 272.028575 
L 117.314793 271.190744 
L 117.83424 269.592978 
L 118.407796 267.10062 
L 119.035462 263.181427 
L 120.096 254.35993 
L 121.751738 237.840244 
L 123.721309 217.345426 
L 124.576233 210.757547 
L 125.290473 206.935992 
L 125.701702 205.68276 
L 125.972247 205.506383 
L 126.307724 205.62416 
L 126.534982 205.936576 
L 127.108538 207.21505 
L 127.606342 209.1004 
L 128.039215 211.863532 
L 128.591127 216.997051 
L 129.846458 231.947173 
L 131.577949 253.502892 
L 133.179578 269.962755 
L 133.947927 275.30309 
L 134.510662 277.989703 
L 134.965178 279.304615 
L 135.279011 279.562443 
L 135.711884 279.50689 
L 135.982429 279.107085 
L 136.577629 277.363882 
L 136.891462 275.615466 
L 137.659811 269.281349 
L 138.514735 260.51918 
L 139.283084 250.929298 
L 141.5232 221.262985 
L 142.464698 211.038359 
L 143.200582 205.064522 
L 143.709207 202.396342 
L 144.012218 201.661634 
L 144.196189 201.630939 
L 144.38016 201.854311 
L 144.758924 202.984717 
L 145.21344 205.499357 
L 145.895215 211.295667 
L 146.793425 221.43196 
L 149.509702 254.270638 
L 150.21312 259.022385 
L 150.765033 261.595399 
L 151.327767 263.395432 
L 151.793105 264.226185 
L 152.171869 264.552146 
L 152.409949 264.436418 
L 152.886109 263.8662 
L 153.18912 262.833516 
L 153.632815 260.328364 
L 155.916218 243.225458 
L 158.058938 227.370467 
L 158.470167 225.759961 
L 159.184407 224.112909 
L 159.346735 224.05564 
L 159.693033 224.215385 
L 159.963578 224.822475 
L 160.309876 226.300565 
L 161.208087 231.161525 
L 162.160407 237.481845 
L 163.210124 246.004377 
L 164.346415 254.724251 
L 165.515171 261.987007 
L 166.132015 263.780148 
L 166.380916 263.982952 
L 166.727215 263.947714 
L 167.030225 263.346036 
L 167.289949 262.325718 
L 167.679535 259.91483 
L 168.220625 255.136407 
L 170.309236 232.866197 
L 171.153338 224.635938 
L 171.748538 220.482883 
L 172.084015 219.400946 
L 172.408669 218.994062 
L 172.603462 219.004353 
L 173.003869 219.467365 
L 173.609891 221.75191 
L 174.010298 224.236504 
L 174.486458 228.433823 
L 175.384669 237.704899 
L 176.239593 247.463821 
L 176.99712 255.421644 
L 177.884509 262.075527 
L 178.479709 264.118737 
L 178.912582 265.080866 
L 179.204771 265.320597 
L 179.421207 265.064526 
L 179.616 264.554706 
L 179.983942 262.987561 
L 180.308596 260.837891 
L 181.293382 252.882145 
L 182.169949 243.814842 
L 183.695825 228.010185 
L 184.25856 224.497424 
L 184.561571 223.726146 
L 184.778007 223.54005 
L 185.081018 223.609901 
L 185.470604 224.127415 
L 185.676218 224.658426 
L 186.098269 226.215832 
L 187.223738 230.956285 
L 187.732364 233.294955 
L 188.273455 236.026442 
L 188.78208 239.947034 
L 189.712756 246.956585 
L 190.589324 251.821087 
L 191.108771 253.510442 
L 191.530822 254.168678 
L 191.703971 254.342124 
L 192.59136 255.40597 
L 192.721222 255.268086 
L 192.991767 254.806848 
L 193.262313 253.993201 
L 193.597789 252.407661 
L 195.221062 241.520885 
L 195.956945 236.92913 
L 197.049949 231.261255 
L 197.547753 228.675271 
L 198.121309 227.084489 
L 198.748975 225.334444 
L 199.517324 223.77217 
L 200.069236 223.106148 
L 200.307316 223.244665 
L 200.718545 223.592645 
L 201.108131 224.160623 
L 201.573469 225.980525 
L 202.698938 233.231001 
L 203.434822 238.941411 
L 204.657687 249.290149 
L 205.761513 256.368312 
L 206.951913 260.272671 
L 207.23328 260.415681 
L 207.384785 260.350804 
L 207.763549 259.941379 
L 208.196422 259.285183 
L 208.878196 256.963212 
L 209.538327 254.747382 
L 209.938735 253.457462 
L 210.371607 251.633265 
L 210.696262 248.940218 
L 211.183244 242.805881 
L 212.168029 226.766954 
L 213.109527 212.981352 
L 213.66144 207.750765 
L 214.061847 205.724142 
L 214.321571 205.26015 
L 214.473076 205.301453 
L 214.646225 205.627056 
L 214.905949 206.658324 
L 215.263069 209.081473 
L 215.760873 214.176173 
L 216.475113 224.114532 
L 218.974953 261.183388 
L 219.451113 264.935519 
L 219.819055 266.366142 
L 220.067956 266.658734 
L 220.241105 266.56419 
L 220.468364 266.097848 
L 220.782196 264.884064 
L 221.258356 262.008572 
L 222.037527 255.614363 
L 223.498473 243.51323 
L 224.126138 240.116872 
L 224.591476 238.675066 
L 224.916131 238.244354 
L 225.154211 238.226425 
L 225.381469 238.435854 
L 225.706124 239.098044 
L 226.149818 240.619228 
L 226.734196 243.483244 
L 227.740625 249.64803 
L 228.941847 256.619363 
L 229.656087 259.514089 
L 230.197178 260.83296 
L 230.608407 261.30227 
L 230.933062 261.356038 
L 231.268538 261.136419 
L 231.625658 260.626896 
L 232.177571 259.37228 
L 232.913455 257.102204 
L 234.937135 250.758342 
L 235.553978 249.588816 
L 236.105891 248.998119 
L 236.51712 248.836746 
L 236.906705 248.888267 
L 237.328756 249.141142 
L 237.988887 249.859949 
L 238.854633 251.138213 
L 240.315578 253.147277 
L 240.932422 253.64765 
L 241.560087 253.855647 
L 242.166109 253.762954 
L 242.847884 253.349693 
L 243.529658 252.687297 
L 246.505658 249.411548 
L 247.393047 248.956514 
L 248.280436 248.831966 
L 249.405905 249.023488 
L 251.559447 249.612481 
L 252.803956 249.625974 
L 253.615593 249.446216 
L 255.314618 248.726851 
L 258.279796 247.529245 
L 260.108684 247.30052 
L 261.612916 247.283595 
L 263.073862 247.236116 
L 265.909178 246.785393 
L 268.192582 246.279153 
L 272.185833 245.798729 
L 275.529775 245.517462 
L 277.423593 245.287761 
L 279.533847 245.029564 
L 286.27584 244.490996 
L 288.77568 244.29246 
L 291.340451 244.100198 
L 293.429062 243.96735 
L 295.885615 243.830569 
L 298.233949 243.70159 
L 300.603927 243.574224 
L 302.8224 243.463194 
L 305.278953 243.354748 
L 307.540713 243.26198 
L 309.889047 243.170777 
L 312.172451 243.085564 
L 314.564073 243.004331 
L 316.825833 242.933063 
L 319.195811 242.864501 
L 321.479215 242.801215 
L 323.849193 242.74073 
L 326.132596 242.685804 
L 328.502575 242.634049 
L 330.785978 242.586534 
L 333.134313 242.541781 
L 335.417716 242.500204 
L 337.766051 242.461499 
L 340.071098 242.425188 
L 342.419433 242.391693 
L 344.72448 242.360012 
L 347.072815 242.33096 
L 349.377862 242.303442 
L 351.726196 242.27835 
L 354.031244 242.254396 
L 356.357935 242.232857 
L 358.662982 242.21198 
L 360.989673 242.193361 
L 363.29472 242.175176 
L 365.621411 242.159072 
L 367.926458 242.143205 
L 370.253149 242.129289 
L 372.558196 242.115448 
L 374.884887 242.103435 
L 377.189935 242.091346 
L 379.516625 242.080981 
L 381.821673 242.070416 
L 384.148364 242.061485 
L 386.453411 242.052243 
L 388.780102 242.044556 
L 391.085149 242.036463 
L 393.41184 242.029856 
L 395.738531 242.022701 
L 398.065222 242.017037 
L 398.487273 242.015443 
L 398.487273 242.015443 
" clip-path="url(#pab7eea1879)" style="fill: none; stroke: #008000; stroke-width: 1.5; stroke-linecap: square"/>
   </g>
   <g id="patch_3">
    <path d="M 57.6 307.584 
L 57.6 41.472 
" style="fill: none; stroke: #000000; stroke-width: 0.8; stroke-linejoin: miter; stroke-linecap: square"/>
   </g>
   <g id="patch_4">
    <path d="M 414.72 307.584 
L 414.72 41.472 
" style="fill: none; stroke: #000000; stroke-width: 0.8; stroke-linejoin: miter; stroke-linecap: square"/>
   </g>
   <g id="patch_5">
    <path d="M 57.6 307.584 
L 414.72 307.584 
" style="fill: none; stroke: #000000; stroke-width: 0.8; stroke-linejoin: miter; stroke-linecap: square"/>
   </g>
   <g id="patch_6">
    <path d="M 57.6 41.472 
L 414.72 41.472 
" style="fill: none; stroke: #000000; stroke-width: 0.8; stroke-linejoin: miter; stroke-linecap: square"/>
   </g>
   <g id="text_19">
    <!-- State vs time -->
    <g transform="translate(196.231875 35.472)scale(0.12 -0.12)">
     <defs>
      <path id="DejaVuSans-76" d="M 191 3500 
L 800 3500 
L 1894 563 
L 2988 3500 
L 3597 3500 
L 2284 0 
L 1503 0 
L 191 3500 
z
" transform="scale(0.015625)"/>
     </defs>
     <use xlink:href="#DejaVuSans-53"/>
     <use xlink:href="#DejaVuSans-74" x="63.476562"/>
     <use xlink:href="#DejaVuSans-61" x="102.685547"/>
     <use xlink:href="#DejaVuSans-74" x="163.964844"/>
     <use xlink:href="#DejaVuSans-65" x="203.173828"/>
     <use xlink:href="#DejaVuSans-20" x="264.697266"/>
     <use xlink:href="#DejaVuSans-76" x="296.484375"/>
     <use xlink:href="#DejaVuSans-73" x="355.664062"/>
     <use xlink:href="#DejaVuSans-20" x="407.763672"/>
     <use xlink:href="#DejaVuSans-74" x="439.550781"/>
     <use xlink:href="#DejaVuSans-69" x="478.759766"/>
     <use xlink:href="#DejaVuSans-6d" x="506.542969"/>
     <use xlink:href="#DejaVuSans-65" x="603.955078"/>
    </g>
   </g>
   <g id="legend_1">
    <g id="patch_7">
     <path d="M 303.237188 93.506375 
L 407.72 93.506375 
Q 409.72 93.506375 409.72 91.506375 
L 409.72 48.472 
Q 409.72 46.472 407.72 46.472 
L 303.237188 46.472 
Q 301.237188 46.472 301.237188 48.472 
L 301.237188 91.506375 
Q 301.237188 93.506375 303.237188 93.506375 
z
" style="fill: #ffffff; opacity: 0.8; stroke: #cccccc; stroke-linejoin: miter"/>
    </g>
    <g id="line2d_36">
     <path d="M 305.237188 54.570438 
L 315.237188 54.570438 
L 325.237188 54.570438 
" style="fill: none; stroke: #ff0000; stroke-width: 1.5; stroke-linecap: square"/>
    </g>
    <g id="text_20">
     <!-- x (m) -->
     <g transform="translate(333.237188 58.070438)scale(0.1 -0.1)">
      <defs>
       <path id="DejaVuSans-78" d="M 3513 3500 
L 2247 1797 
L 3578 0 
L 2900 0 
L 1881 1375 
L 863 0 
L 184 0 
L 1544 1831 
L 300 3500 
L 978 3500 
L 1906 2253 
L 2834 3500 
L 3513 3500 
z
" transform="scale(0.015625)"/>
      </defs>
      <use xlink:href="#DejaVuSans-78"/>
      <use xlink:href="#DejaVuSans-20" x="59.179688"/>
      <use xlink:href="#DejaVuSans-28" x="90.966797"/>
      <use xlink:href="#DejaVuSans-6d" x="129.980469"/>
      <use xlink:href="#DejaVuSans-29" x="227.392578"/>
     </g>
    </g>
    <g id="line2d_37">
     <path d="M 305.237188 69.248563 
L 315.237188 69.248563 
L 325.237188 69.248563 
" style="fill: none; stroke: #0000ff; stroke-width: 1.5; stroke-linecap: square"/>
    </g>
    <g id="text_21">
     <!-- l (m) -->
     <g transform="translate(333.237188 72.748563)scale(0.1 -0.1)">
      <defs>
       <path id="DejaVuSans-6c" d="M 603 4863 
L 1178 4863 
L 1178 0 
L 603 0 
L 603 4863 
z
" transform="scale(0.015625)"/>
      </defs>
      <use xlink:href="#DejaVuSans-6c"/>
      <use xlink:href="#DejaVuSans-20" x="27.783203"/>
      <use xlink:href="#DejaVuSans-28" x="59.570312"/>
      <use xlink:href="#DejaVuSans-6d" x="98.583984"/>
      <use xlink:href="#DejaVuSans-29" x="195.996094"/>
     </g>
    </g>
    <g id="line2d_38">
     <path d="M 305.237188 83.926688 
L 315.237188 83.926688 
L 325.237188 83.926688 
" style="fill: none; stroke: #008000; stroke-width: 1.5; stroke-linecap: square"/>
    </g>
    <g id="text_22">
     <!-- theta (degree) -->
     <g transform="translate(333.237188 87.426688)scale(0.1 -0.1)">
      <defs>
       <path id="DejaVuSans-68" d="M 3513 2113 
L 3513 0 
L 2938 0 
L 2938 2094 
Q 2938 2591 2744 2837 
Q 2550 3084 2163 3084 
Q 1697 3084 1428 2787 
Q 1159 2491 1159 1978 
L 1159 0 
L 581 0 
L 581 4863 
L 1159 4863 
L 1159 2956 
Q 1366 3272 1645 3428 
Q 1925 3584 2291 3584 
Q 2894 3584 3203 3211 
Q 3513 2838 3513 2113 
z
" transform="scale(0.015625)"/>
       <path id="DejaVuSans-64" d="M 2906 2969 
L 2906 4863 
L 3481 4863 
L 3481 0 
L 2906 0 
L 2906 525 
Q 2725 213 2448 61 
Q 2172 -91 1784 -91 
Q 1150 -91 751 415 
Q 353 922 353 1747 
Q 353 2572 751 3078 
Q 1150 3584 1784 3584 
Q 2172 3584 2448 3432 
Q 2725 3281 2906 2969 
z
M 947 1747 
Q 947 1113 1208 752 
Q 1469 391 1925 391 
Q 2381 391 2643 752 
Q 2906 1113 2906 1747 
Q 2906 2381 2643 2742 
Q 2381 3103 1925 3103 
Q 1469 3103 1208 2742 
Q 947 2381 947 1747 
z
" transform="scale(0.015625)"/>
       <path id="DejaVuSans-67" d="M 2906 1791 
Q 2906 2416 2648 2759 
Q 2391 3103 1925 3103 
Q 1463 3103 1205 2759 
Q 947 2416 947 1791 
Q 947 1169 1205 825 
Q 1463 481 1925 481 
Q 2391 481 2648 825 
Q 2906 1169 2906 1791 
z
M 3481 434 
Q 3481 -459 3084 -895 
Q 2688 -1331 1869 -1331 
Q 1566 -1331 1297 -1286 
Q 1028 -1241 775 -1147 
L 775 -588 
Q 1028 -725 1275 -790 
Q 1522 -856 1778 -856 
Q 2344 -856 2625 -561 
Q 2906 -266 2906 331 
L 2906 616 
Q 2728 306 2450 153 
Q 2172 0 1784 0 
Q 1141 0 747 490 
Q 353 981 353 1791 
Q 353 2603 747 3093 
Q 1141 3584 1784 3584 
Q 2172 3584 2450 3431 
Q 2728 3278 2906 2969 
L 2906 3500 
L 3481 3500 
L 3481 434 
z
" transform="scale(0.015625)"/>
       <path id="DejaVuSans-72" d="M 2631 2963 
Q 2534 3019 2420 3045 
Q 2306 3072 2169 3072 
Q 1681 3072 1420 2755 
Q 1159 2438 1159 1844 
L 1159 0 
L 581 0 
L 581 3500 
L 1159 3500 
L 1159 2956 
Q 1341 3275 1631 3429 
Q 1922 3584 2338 3584 
Q 2397 3584 2469 3576 
Q 2541 3569 2628 3553 
L 2631 2963 
z
" transform="scale(0.015625)"/>
      </defs>
      <use xlink:href="#DejaVuSans-74"/>
      <use xlink:href="#DejaVuSans-68" x="39.208984"/>
      <use xlink:href="#DejaVuSans-65" x="102.587891"/>
      <use xlink:href="#DejaVuSans-74" x="164.111328"/>
      <use xlink:href="#DejaVuSans-61" x="203.320312"/>
      <use xlink:href="#DejaVuSans-20" x="264.599609"/>
      <use xlink:href="#DejaVuSans-28" x="296.386719"/>
      <use xlink:href="#DejaVuSans-64" x="335.400391"/>
      <use xlink:href="#DejaVuSans-65" x="398.876953"/>
      <use xlink:href="#DejaVuSans-67" x="460.400391"/>
      <use xlink:href="#DejaVuSans-72" x="523.876953"/>
      <use xlink:href="#DejaVuSans-65" x="562.740234"/>
      <use xlink:href="#DejaVuSans-65" x="624.263672"/>
      <use xlink:href="#DejaVuSans-29" x="685.787109"/>
     </g>
    </g>
   </g>
  </g>
 </g>
 <defs>
  <clipPath id="pab7eea1879">
   <rect x="57.6" y="41.472" width="357.12" height="266.112"/>
  </clipPath>
 </defs>
</svg>
