<?xml version="1.0" encoding="utf-8" standalone="no"?>
<!DOCTYPE svg PUBLIC "-//W3C//DTD SVG 1.1//EN"
  "http://www.w3.org/Graphics/SVG/1.1/DTD/svg11.dtd">
<svg xmlns:xlink="http://www.w3.org/1999/xlink" width="460.8pt" height="345.6pt" viewBox="0 0 460.8 345.6" xmlns="http://www.w3.org/2000/svg" version="1.1">
 <metadata>
  <rdf:RDF xmlns:dc="http://purl.org/dc/elements/1.1/" xmlns:cc="http://creativecommons.org/ns#" xmlns:rdf="http://www.w3.org/1999/02/22-rdf-syntax-ns#">
   <cc:Work>
    <dc:type rdf:resource="http://purl.org/dc/dcmitype/StillImage"/>
    <dc:date>2023-08-23T17:39:30.575251</dc:date>
    <dc:format>image/svg+xml</dc:format>
    <dc:creator>
     <cc:Agent>
      <dc:title>Matplotlib v3.5.3, https://matplotlib.org/</dc:title>
     </cc:Agent>
    </dc:creator>
   </cc:Work>
  </rdf:RDF>
 </metadata>
 <defs>
  <style type="text/css">*{stroke-linejoin: round; stroke-linecap: butt}</style>
 </defs>
 <g id="figure_1">
  <g id="patch_1">
   <path d="M 0 345.6 
L 460.8 345.6 
L 460.8 0 
L 0 0 
L 0 345.6 
z
" style="fill: none"/>
  </g>
  <g id="axes_1">
   <g id="patch_2">
    <path d="M 57.6 307.584 
L 414.72 307.584 
L 414.72 41.472 
L 57.6 41.472 
L 57.6 307.584 
z
" style="fill: none"/>
   </g>
   <g id="matplotlib.axis_1">
    <g id="xtick_1">
     <g id="line2d_1">
      <path d="M 73.832727 307.584 
L 73.832727 41.472 
" clip-path="url(#p1f0d510967)" style="fill: none; stroke: #b0b0b0; stroke-width: 0.8; stroke-linecap: square"/>
     </g>
     <g id="line2d_2">
      <defs>
       <path id="m4707f516b9" d="M 0 0 
L 0 3.5 
" style="stroke: #000000; stroke-width: 0.8"/>
      </defs>
      <g>
       <use xlink:href="#m4707f516b9" x="73.832727" y="307.584" style="stroke: #000000; stroke-width: 0.8"/>
      </g>
     </g>
     <g id="text_1">
      <!-- 0 -->
      <g transform="translate(70.651477 322.182437)scale(0.1 -0.1)">
       <defs>
        <path id="DejaVuSans-30" d="M 2034 4250 
Q 1547 4250 1301 3770 
Q 1056 3291 1056 2328 
Q 1056 1369 1301 889 
Q 1547 409 2034 409 
Q 2525 409 2770 889 
Q 3016 1369 3016 2328 
Q 3016 3291 2770 3770 
Q 2525 4250 2034 4250 
z
M 2034 4750 
Q 2819 4750 3233 4129 
Q 3647 3509 3647 2328 
Q 3647 1150 3233 529 
Q 2819 -91 2034 -91 
Q 1250 -91 836 529 
Q 422 1150 422 2328 
Q 422 3509 836 4129 
Q 1250 4750 2034 4750 
z
" transform="scale(0.015625)"/>
       </defs>
       <use xlink:href="#DejaVuSans-30"/>
      </g>
     </g>
    </g>
    <g id="xtick_2">
     <g id="line2d_3">
      <path d="M 117.12 307.584 
L 117.12 41.472 
" clip-path="url(#p1f0d510967)" style="fill: none; stroke: #b0b0b0; stroke-width: 0.8; stroke-linecap: square"/>
     </g>
     <g id="line2d_4">
      <g>
       <use xlink:href="#m4707f516b9" x="117.12" y="307.584" style="stroke: #000000; stroke-width: 0.8"/>
      </g>
     </g>
     <g id="text_2">
      <!-- 2 -->
      <g transform="translate(113.93875 322.182437)scale(0.1 -0.1)">
       <defs>
        <path id="DejaVuSans-32" d="M 1228 531 
L 3431 531 
L 3431 0 
L 469 0 
L 469 531 
Q 828 903 1448 1529 
Q 2069 2156 2228 2338 
Q 2531 2678 2651 2914 
Q 2772 3150 2772 3378 
Q 2772 3750 2511 3984 
Q 2250 4219 1831 4219 
Q 1534 4219 1204 4116 
Q 875 4013 500 3803 
L 500 4441 
Q 881 4594 1212 4672 
Q 1544 4750 1819 4750 
Q 2544 4750 2975 4387 
Q 3406 4025 3406 3419 
Q 3406 3131 3298 2873 
Q 3191 2616 2906 2266 
Q 2828 2175 2409 1742 
Q 1991 1309 1228 531 
z
" transform="scale(0.015625)"/>
       </defs>
       <use xlink:href="#DejaVuSans-32"/>
      </g>
     </g>
    </g>
    <g id="xtick_3">
     <g id="line2d_5">
      <path d="M 160.407273 307.584 
L 160.407273 41.472 
" clip-path="url(#p1f0d510967)" style="fill: none; stroke: #b0b0b0; stroke-width: 0.8; stroke-linecap: square"/>
     </g>
     <g id="line2d_6">
      <g>
       <use xlink:href="#m4707f516b9" x="160.407273" y="307.584" style="stroke: #000000; stroke-width: 0.8"/>
      </g>
     </g>
     <g id="text_3">
      <!-- 4 -->
      <g transform="translate(157.226023 322.182437)scale(0.1 -0.1)">
       <defs>
        <path id="DejaVuSans-34" d="M 2419 4116 
L 825 1625 
L 2419 1625 
L 2419 4116 
z
M 2253 4666 
L 3047 4666 
L 3047 1625 
L 3713 1625 
L 3713 1100 
L 3047 1100 
L 3047 0 
L 2419 0 
L 2419 1100 
L 313 1100 
L 313 1709 
L 2253 4666 
z
" transform="scale(0.015625)"/>
       </defs>
       <use xlink:href="#DejaVuSans-34"/>
      </g>
     </g>
    </g>
    <g id="xtick_4">
     <g id="line2d_7">
      <path d="M 203.694545 307.584 
L 203.694545 41.472 
" clip-path="url(#p1f0d510967)" style="fill: none; stroke: #b0b0b0; stroke-width: 0.8; stroke-linecap: square"/>
     </g>
     <g id="line2d_8">
      <g>
       <use xlink:href="#m4707f516b9" x="203.694545" y="307.584" style="stroke: #000000; stroke-width: 0.8"/>
      </g>
     </g>
     <g id="text_4">
      <!-- 6 -->
      <g transform="translate(200.513295 322.182437)scale(0.1 -0.1)">
       <defs>
        <path id="DejaVuSans-36" d="M 2113 2584 
Q 1688 2584 1439 2293 
Q 1191 2003 1191 1497 
Q 1191 994 1439 701 
Q 1688 409 2113 409 
Q 2538 409 2786 701 
Q 3034 994 3034 1497 
Q 3034 2003 2786 2293 
Q 2538 2584 2113 2584 
z
M 3366 4563 
L 3366 3988 
Q 3128 4100 2886 4159 
Q 2644 4219 2406 4219 
Q 1781 4219 1451 3797 
Q 1122 3375 1075 2522 
Q 1259 2794 1537 2939 
Q 1816 3084 2150 3084 
Q 2853 3084 3261 2657 
Q 3669 2231 3669 1497 
Q 3669 778 3244 343 
Q 2819 -91 2113 -91 
Q 1303 -91 875 529 
Q 447 1150 447 2328 
Q 447 3434 972 4092 
Q 1497 4750 2381 4750 
Q 2619 4750 2861 4703 
Q 3103 4656 3366 4563 
z
" transform="scale(0.015625)"/>
       </defs>
       <use xlink:href="#DejaVuSans-36"/>
      </g>
     </g>
    </g>
    <g id="xtick_5">
     <g id="line2d_9">
      <path d="M 246.981818 307.584 
L 246.981818 41.472 
" clip-path="url(#p1f0d510967)" style="fill: none; stroke: #b0b0b0; stroke-width: 0.8; stroke-linecap: square"/>
     </g>
     <g id="line2d_10">
      <g>
       <use xlink:href="#m4707f516b9" x="246.981818" y="307.584" style="stroke: #000000; stroke-width: 0.8"/>
      </g>
     </g>
     <g id="text_5">
      <!-- 8 -->
      <g transform="translate(243.800568 322.182437)scale(0.1 -0.1)">
       <defs>
        <path id="DejaVuSans-38" d="M 2034 2216 
Q 1584 2216 1326 1975 
Q 1069 1734 1069 1313 
Q 1069 891 1326 650 
Q 1584 409 2034 409 
Q 2484 409 2743 651 
Q 3003 894 3003 1313 
Q 3003 1734 2745 1975 
Q 2488 2216 2034 2216 
z
M 1403 2484 
Q 997 2584 770 2862 
Q 544 3141 544 3541 
Q 544 4100 942 4425 
Q 1341 4750 2034 4750 
Q 2731 4750 3128 4425 
Q 3525 4100 3525 3541 
Q 3525 3141 3298 2862 
Q 3072 2584 2669 2484 
Q 3125 2378 3379 2068 
Q 3634 1759 3634 1313 
Q 3634 634 3220 271 
Q 2806 -91 2034 -91 
Q 1263 -91 848 271 
Q 434 634 434 1313 
Q 434 1759 690 2068 
Q 947 2378 1403 2484 
z
M 1172 3481 
Q 1172 3119 1398 2916 
Q 1625 2713 2034 2713 
Q 2441 2713 2670 2916 
Q 2900 3119 2900 3481 
Q 2900 3844 2670 4047 
Q 2441 4250 2034 4250 
Q 1625 4250 1398 4047 
Q 1172 3844 1172 3481 
z
" transform="scale(0.015625)"/>
       </defs>
       <use xlink:href="#DejaVuSans-38"/>
      </g>
     </g>
    </g>
    <g id="xtick_6">
     <g id="line2d_11">
      <path d="M 290.269091 307.584 
L 290.269091 41.472 
" clip-path="url(#p1f0d510967)" style="fill: none; stroke: #b0b0b0; stroke-width: 0.8; stroke-linecap: square"/>
     </g>
     <g id="line2d_12">
      <g>
       <use xlink:href="#m4707f516b9" x="290.269091" y="307.584" style="stroke: #000000; stroke-width: 0.8"/>
      </g>
     </g>
     <g id="text_6">
      <!-- 10 -->
      <g transform="translate(283.906591 322.182437)scale(0.1 -0.1)">
       <defs>
        <path id="DejaVuSans-31" d="M 794 531 
L 1825 531 
L 1825 4091 
L 703 3866 
L 703 4441 
L 1819 4666 
L 2450 4666 
L 2450 531 
L 3481 531 
L 3481 0 
L 794 0 
L 794 531 
z
" transform="scale(0.015625)"/>
       </defs>
       <use xlink:href="#DejaVuSans-31"/>
       <use xlink:href="#DejaVuSans-30" x="63.623047"/>
      </g>
     </g>
    </g>
    <g id="xtick_7">
     <g id="line2d_13">
      <path d="M 333.556364 307.584 
L 333.556364 41.472 
" clip-path="url(#p1f0d510967)" style="fill: none; stroke: #b0b0b0; stroke-width: 0.8; stroke-linecap: square"/>
     </g>
     <g id="line2d_14">
      <g>
       <use xlink:href="#m4707f516b9" x="333.556364" y="307.584" style="stroke: #000000; stroke-width: 0.8"/>
      </g>
     </g>
     <g id="text_7">
      <!-- 12 -->
      <g transform="translate(327.193864 322.182437)scale(0.1 -0.1)">
       <use xlink:href="#DejaVuSans-31"/>
       <use xlink:href="#DejaVuSans-32" x="63.623047"/>
      </g>
     </g>
    </g>
    <g id="xtick_8">
     <g id="line2d_15">
      <path d="M 376.843636 307.584 
L 376.843636 41.472 
" clip-path="url(#p1f0d510967)" style="fill: none; stroke: #b0b0b0; stroke-width: 0.8; stroke-linecap: square"/>
     </g>
     <g id="line2d_16">
      <g>
       <use xlink:href="#m4707f516b9" x="376.843636" y="307.584" style="stroke: #000000; stroke-width: 0.8"/>
      </g>
     </g>
     <g id="text_8">
      <!-- 14 -->
      <g transform="translate(370.481136 322.182437)scale(0.1 -0.1)">
       <use xlink:href="#DejaVuSans-31"/>
       <use xlink:href="#DejaVuSans-34" x="63.623047"/>
      </g>
     </g>
    </g>
    <g id="text_9">
     <!-- time (s) -->
     <g transform="translate(216.768594 335.860562)scale(0.1 -0.1)">
      <defs>
       <path id="DejaVuSans-74" d="M 1172 4494 
L 1172 3500 
L 2356 3500 
L 2356 3053 
L 1172 3053 
L 1172 1153 
Q 1172 725 1289 603 
Q 1406 481 1766 481 
L 2356 481 
L 2356 0 
L 1766 0 
Q 1100 0 847 248 
Q 594 497 594 1153 
L 594 3053 
L 172 3053 
L 172 3500 
L 594 3500 
L 594 4494 
L 1172 4494 
z
" transform="scale(0.015625)"/>
       <path id="DejaVuSans-69" d="M 603 3500 
L 1178 3500 
L 1178 0 
L 603 0 
L 603 3500 
z
M 603 4863 
L 1178 4863 
L 1178 4134 
L 603 4134 
L 603 4863 
z
" transform="scale(0.015625)"/>
       <path id="DejaVuSans-6d" d="M 3328 2828 
Q 3544 3216 3844 3400 
Q 4144 3584 4550 3584 
Q 5097 3584 5394 3201 
Q 5691 2819 5691 2113 
L 5691 0 
L 5113 0 
L 5113 2094 
Q 5113 2597 4934 2840 
Q 4756 3084 4391 3084 
Q 3944 3084 3684 2787 
Q 3425 2491 3425 1978 
L 3425 0 
L 2847 0 
L 2847 2094 
Q 2847 2600 2669 2842 
Q 2491 3084 2119 3084 
Q 1678 3084 1418 2786 
Q 1159 2488 1159 1978 
L 1159 0 
L 581 0 
L 581 3500 
L 1159 3500 
L 1159 2956 
Q 1356 3278 1631 3431 
Q 1906 3584 2284 3584 
Q 2666 3584 2933 3390 
Q 3200 3197 3328 2828 
z
" transform="scale(0.015625)"/>
       <path id="DejaVuSans-65" d="M 3597 1894 
L 3597 1613 
L 953 1613 
Q 991 1019 1311 708 
Q 1631 397 2203 397 
Q 2534 397 2845 478 
Q 3156 559 3463 722 
L 3463 178 
Q 3153 47 2828 -22 
Q 2503 -91 2169 -91 
Q 1331 -91 842 396 
Q 353 884 353 1716 
Q 353 2575 817 3079 
Q 1281 3584 2069 3584 
Q 2775 3584 3186 3129 
Q 3597 2675 3597 1894 
z
M 3022 2063 
Q 3016 2534 2758 2815 
Q 2500 3097 2075 3097 
Q 1594 3097 1305 2825 
Q 1016 2553 972 2059 
L 3022 2063 
z
" transform="scale(0.015625)"/>
       <path id="DejaVuSans-20" transform="scale(0.015625)"/>
       <path id="DejaVuSans-28" d="M 1984 4856 
Q 1566 4138 1362 3434 
Q 1159 2731 1159 2009 
Q 1159 1288 1364 580 
Q 1569 -128 1984 -844 
L 1484 -844 
Q 1016 -109 783 600 
Q 550 1309 550 2009 
Q 550 2706 781 3412 
Q 1013 4119 1484 4856 
L 1984 4856 
z
" transform="scale(0.015625)"/>
       <path id="DejaVuSans-73" d="M 2834 3397 
L 2834 2853 
Q 2591 2978 2328 3040 
Q 2066 3103 1784 3103 
Q 1356 3103 1142 2972 
Q 928 2841 928 2578 
Q 928 2378 1081 2264 
Q 1234 2150 1697 2047 
L 1894 2003 
Q 2506 1872 2764 1633 
Q 3022 1394 3022 966 
Q 3022 478 2636 193 
Q 2250 -91 1575 -91 
Q 1294 -91 989 -36 
Q 684 19 347 128 
L 347 722 
Q 666 556 975 473 
Q 1284 391 1588 391 
Q 1994 391 2212 530 
Q 2431 669 2431 922 
Q 2431 1156 2273 1281 
Q 2116 1406 1581 1522 
L 1381 1569 
Q 847 1681 609 1914 
Q 372 2147 372 2553 
Q 372 3047 722 3315 
Q 1072 3584 1716 3584 
Q 2034 3584 2315 3537 
Q 2597 3491 2834 3397 
z
" transform="scale(0.015625)"/>
       <path id="DejaVuSans-29" d="M 513 4856 
L 1013 4856 
Q 1481 4119 1714 3412 
Q 1947 2706 1947 2009 
Q 1947 1309 1714 600 
Q 1481 -109 1013 -844 
L 513 -844 
Q 928 -128 1133 580 
Q 1338 1288 1338 2009 
Q 1338 2731 1133 3434 
Q 928 4138 513 4856 
z
" transform="scale(0.015625)"/>
      </defs>
      <use xlink:href="#DejaVuSans-74"/>
      <use xlink:href="#DejaVuSans-69" x="39.208984"/>
      <use xlink:href="#DejaVuSans-6d" x="66.992188"/>
      <use xlink:href="#DejaVuSans-65" x="164.404297"/>
      <use xlink:href="#DejaVuSans-20" x="225.927734"/>
      <use xlink:href="#DejaVuSans-28" x="257.714844"/>
      <use xlink:href="#DejaVuSans-73" x="296.728516"/>
      <use xlink:href="#DejaVuSans-29" x="348.828125"/>
     </g>
    </g>
   </g>
   <g id="matplotlib.axis_2">
    <g id="ytick_1">
     <g id="line2d_17">
      <path d="M 57.6 299.578494 
L 414.72 299.578494 
" clip-path="url(#p1f0d510967)" style="fill: none; stroke: #b0b0b0; stroke-width: 0.8; stroke-linecap: square"/>
     </g>
     <g id="line2d_18">
      <defs>
       <path id="m13f08a8ec1" d="M 0 0 
L -3.5 0 
" style="stroke: #000000; stroke-width: 0.8"/>
      </defs>
      <g>
       <use xlink:href="#m13f08a8ec1" x="57.6" y="299.578494" style="stroke: #000000; stroke-width: 0.8"/>
      </g>
     </g>
     <g id="text_10">
      <!-- −0.50 -->
      <g transform="translate(19.954687 303.377713)scale(0.1 -0.1)">
       <defs>
        <path id="DejaVuSans-2212" d="M 678 2272 
L 4684 2272 
L 4684 1741 
L 678 1741 
L 678 2272 
z
" transform="scale(0.015625)"/>
        <path id="DejaVuSans-2e" d="M 684 794 
L 1344 794 
L 1344 0 
L 684 0 
L 684 794 
z
" transform="scale(0.015625)"/>
        <path id="DejaVuSans-35" d="M 691 4666 
L 3169 4666 
L 3169 4134 
L 1269 4134 
L 1269 2991 
Q 1406 3038 1543 3061 
Q 1681 3084 1819 3084 
Q 2600 3084 3056 2656 
Q 3513 2228 3513 1497 
Q 3513 744 3044 326 
Q 2575 -91 1722 -91 
Q 1428 -91 1123 -41 
Q 819 9 494 109 
L 494 744 
Q 775 591 1075 516 
Q 1375 441 1709 441 
Q 2250 441 2565 725 
Q 2881 1009 2881 1497 
Q 2881 1984 2565 2268 
Q 2250 2553 1709 2553 
Q 1456 2553 1204 2497 
Q 953 2441 691 2322 
L 691 4666 
z
" transform="scale(0.015625)"/>
       </defs>
       <use xlink:href="#DejaVuSans-2212"/>
       <use xlink:href="#DejaVuSans-30" x="83.789062"/>
       <use xlink:href="#DejaVuSans-2e" x="147.412109"/>
       <use xlink:href="#DejaVuSans-35" x="179.199219"/>
       <use xlink:href="#DejaVuSans-30" x="242.822266"/>
      </g>
     </g>
    </g>
    <g id="ytick_2">
     <g id="line2d_19">
      <path d="M 57.6 268.827182 
L 414.72 268.827182 
" clip-path="url(#p1f0d510967)" style="fill: none; stroke: #b0b0b0; stroke-width: 0.8; stroke-linecap: square"/>
     </g>
     <g id="line2d_20">
      <g>
       <use xlink:href="#m13f08a8ec1" x="57.6" y="268.827182" style="stroke: #000000; stroke-width: 0.8"/>
      </g>
     </g>
     <g id="text_11">
      <!-- −0.25 -->
      <g transform="translate(19.954687 272.626401)scale(0.1 -0.1)">
       <use xlink:href="#DejaVuSans-2212"/>
       <use xlink:href="#DejaVuSans-30" x="83.789062"/>
       <use xlink:href="#DejaVuSans-2e" x="147.412109"/>
       <use xlink:href="#DejaVuSans-32" x="179.199219"/>
       <use xlink:href="#DejaVuSans-35" x="242.822266"/>
      </g>
     </g>
    </g>
    <g id="ytick_3">
     <g id="line2d_21">
      <path d="M 57.6 238.07587 
L 414.72 238.07587 
" clip-path="url(#p1f0d510967)" style="fill: none; stroke: #b0b0b0; stroke-width: 0.8; stroke-linecap: square"/>
     </g>
     <g id="line2d_22">
      <g>
       <use xlink:href="#m13f08a8ec1" x="57.6" y="238.07587" style="stroke: #000000; stroke-width: 0.8"/>
      </g>
     </g>
     <g id="text_12">
      <!-- 0.00 -->
      <g transform="translate(28.334375 241.875089)scale(0.1 -0.1)">
       <use xlink:href="#DejaVuSans-30"/>
       <use xlink:href="#DejaVuSans-2e" x="63.623047"/>
       <use xlink:href="#DejaVuSans-30" x="95.410156"/>
       <use xlink:href="#DejaVuSans-30" x="159.033203"/>
      </g>
     </g>
    </g>
    <g id="ytick_4">
     <g id="line2d_23">
      <path d="M 57.6 207.324559 
L 414.72 207.324559 
" clip-path="url(#p1f0d510967)" style="fill: none; stroke: #b0b0b0; stroke-width: 0.8; stroke-linecap: square"/>
     </g>
     <g id="line2d_24">
      <g>
       <use xlink:href="#m13f08a8ec1" x="57.6" y="207.324559" style="stroke: #000000; stroke-width: 0.8"/>
      </g>
     </g>
     <g id="text_13">
      <!-- 0.25 -->
      <g transform="translate(28.334375 211.123777)scale(0.1 -0.1)">
       <use xlink:href="#DejaVuSans-30"/>
       <use xlink:href="#DejaVuSans-2e" x="63.623047"/>
       <use xlink:href="#DejaVuSans-32" x="95.410156"/>
       <use xlink:href="#DejaVuSans-35" x="159.033203"/>
      </g>
     </g>
    </g>
    <g id="ytick_5">
     <g id="line2d_25">
      <path d="M 57.6 176.573247 
L 414.72 176.573247 
" clip-path="url(#p1f0d510967)" style="fill: none; stroke: #b0b0b0; stroke-width: 0.8; stroke-linecap: square"/>
     </g>
     <g id="line2d_26">
      <g>
       <use xlink:href="#m13f08a8ec1" x="57.6" y="176.573247" style="stroke: #000000; stroke-width: 0.8"/>
      </g>
     </g>
     <g id="text_14">
      <!-- 0.50 -->
      <g transform="translate(28.334375 180.372466)scale(0.1 -0.1)">
       <use xlink:href="#DejaVuSans-30"/>
       <use xlink:href="#DejaVuSans-2e" x="63.623047"/>
       <use xlink:href="#DejaVuSans-35" x="95.410156"/>
       <use xlink:href="#DejaVuSans-30" x="159.033203"/>
      </g>
     </g>
    </g>
    <g id="ytick_6">
     <g id="line2d_27">
      <path d="M 57.6 145.821935 
L 414.72 145.821935 
" clip-path="url(#p1f0d510967)" style="fill: none; stroke: #b0b0b0; stroke-width: 0.8; stroke-linecap: square"/>
     </g>
     <g id="line2d_28">
      <g>
       <use xlink:href="#m13f08a8ec1" x="57.6" y="145.821935" style="stroke: #000000; stroke-width: 0.8"/>
      </g>
     </g>
     <g id="text_15">
      <!-- 0.75 -->
      <g transform="translate(28.334375 149.621154)scale(0.1 -0.1)">
       <defs>
        <path id="DejaVuSans-37" d="M 525 4666 
L 3525 4666 
L 3525 4397 
L 1831 0 
L 1172 0 
L 2766 4134 
L 525 4134 
L 525 4666 
z
" transform="scale(0.015625)"/>
       </defs>
       <use xlink:href="#DejaVuSans-30"/>
       <use xlink:href="#DejaVuSans-2e" x="63.623047"/>
       <use xlink:href="#DejaVuSans-37" x="95.410156"/>
       <use xlink:href="#DejaVuSans-35" x="159.033203"/>
      </g>
     </g>
    </g>
    <g id="ytick_7">
     <g id="line2d_29">
      <path d="M 57.6 115.070623 
L 414.72 115.070623 
" clip-path="url(#p1f0d510967)" style="fill: none; stroke: #b0b0b0; stroke-width: 0.8; stroke-linecap: square"/>
     </g>
     <g id="line2d_30">
      <g>
       <use xlink:href="#m13f08a8ec1" x="57.6" y="115.070623" style="stroke: #000000; stroke-width: 0.8"/>
      </g>
     </g>
     <g id="text_16">
      <!-- 1.00 -->
      <g transform="translate(28.334375 118.869842)scale(0.1 -0.1)">
       <use xlink:href="#DejaVuSans-31"/>
       <use xlink:href="#DejaVuSans-2e" x="63.623047"/>
       <use xlink:href="#DejaVuSans-30" x="95.410156"/>
       <use xlink:href="#DejaVuSans-30" x="159.033203"/>
      </g>
     </g>
    </g>
    <g id="ytick_8">
     <g id="line2d_31">
      <path d="M 57.6 84.319312 
L 414.72 84.319312 
" clip-path="url(#p1f0d510967)" style="fill: none; stroke: #b0b0b0; stroke-width: 0.8; stroke-linecap: square"/>
     </g>
     <g id="line2d_32">
      <g>
       <use xlink:href="#m13f08a8ec1" x="57.6" y="84.319312" style="stroke: #000000; stroke-width: 0.8"/>
      </g>
     </g>
     <g id="text_17">
      <!-- 1.25 -->
      <g transform="translate(28.334375 88.11853)scale(0.1 -0.1)">
       <use xlink:href="#DejaVuSans-31"/>
       <use xlink:href="#DejaVuSans-2e" x="63.623047"/>
       <use xlink:href="#DejaVuSans-32" x="95.410156"/>
       <use xlink:href="#DejaVuSans-35" x="159.033203"/>
      </g>
     </g>
    </g>
    <g id="ytick_9">
     <g id="line2d_33">
      <path d="M 57.6 53.568 
L 414.72 53.568 
" clip-path="url(#p1f0d510967)" style="fill: none; stroke: #b0b0b0; stroke-width: 0.8; stroke-linecap: square"/>
     </g>
     <g id="line2d_34">
      <g>
       <use xlink:href="#m13f08a8ec1" x="57.6" y="53.568" style="stroke: #000000; stroke-width: 0.8"/>
      </g>
     </g>
     <g id="text_18">
      <!-- 1.50 -->
      <g transform="translate(28.334375 57.367219)scale(0.1 -0.1)">
       <use xlink:href="#DejaVuSans-31"/>
       <use xlink:href="#DejaVuSans-2e" x="63.623047"/>
       <use xlink:href="#DejaVuSans-35" x="95.410156"/>
       <use xlink:href="#DejaVuSans-30" x="159.033203"/>
      </g>
     </g>
    </g>
    <g id="text_19">
     <!-- l -->
     <g transform="translate(13.875 175.917062)rotate(-90)scale(0.1 -0.1)">
      <defs>
       <path id="DejaVuSans-6c" d="M 603 4863 
L 1178 4863 
L 1178 0 
L 603 0 
L 603 4863 
z
" transform="scale(0.015625)"/>
      </defs>
      <use xlink:href="#DejaVuSans-6c"/>
     </g>
    </g>
   </g>
   <g id="line2d_35">
    <path d="M 73.832727 238.07587 
L 74.849978 256.408471 
L 75.845585 270.504066 
L 76.841193 281.543812 
L 77.793513 289.777405 
L 78.637615 295.488 
L 78.724189 294.334769 
L 79.719796 277.860493 
L 80.563898 267.713408 
L 81.386356 260.3211 
L 82.273745 254.400412 
L 83.096204 250.331929 
L 83.918662 247.27623 
L 84.827695 244.782038 
L 85.650153 243.112216 
L 87.230138 240.991362 
L 88.052596 240.272737 
L 88.875055 239.734434 
L 89.719156 239.31524 
L 90.152029 239.149957 
L 90.996131 238.879246 
L 91.234211 238.817362 
L 91.515578 238.754128 
L 92.424611 238.57401 
L 99.783447 238.100739 
L 100.173033 238.098324 
L 101.558225 238.077815 
L 116.297542 238.095141 
L 116.665484 238.091405 
L 118.245469 238.089731 
L 118.635055 238.087934 
L 119.219433 238.081707 
L 121.037498 238.076544 
L 121.730095 238.071111 
L 124.002676 238.063666 
L 124.998284 238.060034 
L 129.586735 238.064788 
L 150.256407 238.064946 
L 165.709964 238.068561 
L 166.467491 238.064402 
L 170.839505 238.068045 
L 197.894051 238.084697 
L 200.188276 238.079251 
L 201.87648 238.073443 
L 207.395607 238.069102 
L 224.623942 238.071766 
L 226.983098 238.077267 
L 230.251287 238.085126 
L 231.073745 238.080412 
L 231.203607 237.241866 
L 231.225251 237.60732 
L 231.290182 236.949462 
L 231.311825 237.317379 
L 231.420044 236.52953 
L 231.441687 236.897049 
L 231.506618 236.254226 
L 231.528262 236.62614 
L 231.63648 235.856183 
L 231.658124 236.230439 
L 231.723055 235.598094 
L 231.744698 235.973895 
L 231.852916 235.219991 
L 231.87456 235.598093 
L 231.939491 234.980807 
L 231.961135 235.356122 
L 232.069353 234.623513 
L 232.090996 235.005338 
L 232.155927 234.399147 
L 232.177571 234.782402 
L 232.285789 234.068677 
L 232.307433 234.451679 
L 232.372364 233.852625 
L 232.394007 234.239465 
L 232.502225 233.545676 
L 232.523869 233.93163 
L 232.5888 233.346508 
L 232.610444 233.732139 
L 232.718662 233.056266 
L 232.740305 233.448592 
L 232.805236 232.867731 
L 232.82688 233.261411 
L 232.935098 232.598903 
L 232.956742 232.994539 
L 233.021673 232.429515 
L 233.043316 232.826405 
L 233.151535 232.180555 
L 233.173178 232.577286 
L 233.238109 232.017541 
L 233.259753 232.417589 
L 233.367971 231.788952 
L 233.389615 232.190813 
L 233.454545 231.64084 
L 233.476189 232.043905 
L 233.584407 231.42796 
L 233.606051 231.832799 
L 233.670982 231.291063 
L 233.692625 231.697064 
L 233.800844 231.099145 
L 233.822487 231.504895 
L 233.887418 230.972213 
L 233.909062 231.381016 
L 234.01728 230.794625 
L 234.038924 231.205041 
L 234.103855 230.681445 
L 234.125498 231.092923 
L 234.25536 230.06243 
L 234.277004 230.47787 
L 234.341935 229.970089 
L 234.363578 230.383167 
L 234.471796 229.834871 
L 234.49344 230.25273 
L 234.558371 229.753854 
L 234.580015 230.169471 
L 234.688233 229.632549 
L 234.709876 230.052688 
L 234.774807 229.560573 
L 234.796451 229.980297 
L 234.904669 229.454223 
L 234.926313 229.876519 
L 234.991244 229.38999 
L 235.012887 229.810156 
L 235.121105 229.295419 
L 235.142749 229.719773 
L 235.20768 229.240171 
L 235.229324 229.661828 
L 235.359185 228.712781 
L 235.380829 229.1414 
L 235.44576 228.67446 
L 235.467404 229.101214 
L 235.575622 228.616489 
L 235.597265 229.046813 
L 235.662196 228.584903 
L 235.68384 229.015846 
L 235.792058 228.539208 
L 235.813702 228.971078 
L 235.878633 228.511305 
L 235.900276 228.943778 
L 236.008495 228.475765 
L 236.030138 228.907865 
L 236.095069 228.453134 
L 236.203287 228.002936 
L 236.224931 228.439668 
L 236.289862 227.99567 
L 236.311505 228.43104 
L 236.419724 227.987481 
L 236.484655 228.423666 
L 236.506298 227.982877 
L 236.527942 228.421239 
L 236.63616 227.983205 
L 236.744378 228.422145 
L 236.787665 227.549535 
L 236.87424 227.561577 
L 236.982458 228.018215 
L 237.004102 227.583822 
L 237.069033 228.033454 
L 237.090676 227.599348 
L 237.198895 228.059208 
L 237.220538 227.6255 
L 237.285469 228.077465 
L 237.307113 227.643998 
L 237.415331 228.105889 
L 237.458618 227.241879 
L 237.545193 227.27093 
L 237.653411 227.745993 
L 237.675055 227.315327 
L 237.739985 227.775832 
L 237.761629 227.345165 
L 237.869847 227.820548 
L 237.891491 227.389787 
L 237.956422 227.850058 
L 237.978065 227.41918 
L 238.042996 227.879126 
L 238.06464 227.44809 
L 238.086284 227.018739 
L 238.151215 227.48508 
L 238.172858 227.055533 
L 238.281076 227.538363 
L 238.30272 227.108784 
L 238.367651 227.572679 
L 238.389295 227.142758 
L 238.497513 227.62165 
L 238.519156 227.19117 
L 238.584087 227.652494 
L 238.605731 227.221617 
L 238.713949 227.695864 
L 238.757236 226.834812 
L 238.843811 226.869552 
L 238.952029 227.348851 
L 238.973673 226.918204 
L 239.038604 227.379388 
L 239.060247 226.948288 
L 239.168465 227.421631 
L 239.190109 226.989844 
L 239.25504 227.447507 
L 239.276684 227.015148 
L 239.384902 227.482522 
L 239.406545 227.049393 
L 239.471476 227.503405 
L 239.49312 227.069771 
L 239.601338 227.531114 
L 239.687913 227.547236 
L 239.7312 226.679904 
L 239.839418 227.145499 
L 239.861062 226.712327 
L 239.925993 227.16523 
L 239.947636 226.731616 
L 240.055855 227.191472 
L 240.077498 226.757228 
L 240.142429 227.206836 
L 240.164073 226.772193 
L 240.272291 227.226874 
L 240.293935 226.791672 
L 240.358865 227.238348 
L 240.380509 226.802796 
L 240.488727 227.25294 
L 240.510371 226.816906 
L 240.575302 227.261053 
L 240.596945 226.824724 
L 240.705164 227.271024 
L 240.726807 226.834295 
L 240.791738 227.276342 
L 240.813382 226.839375 
L 240.9216 227.283176 
L 241.029818 226.848117 
L 241.138036 227.289471 
L 241.246255 226.85232 
L 241.354473 227.292012 
L 241.462691 226.853559 
L 241.570909 227.292357 
L 241.679127 226.853361 
L 241.787345 227.291996 
L 241.895564 226.853175 
L 242.003782 227.292333 
L 242.112 226.854353 
L 242.220218 227.294665 
L 242.328436 226.858132 
L 242.436655 227.300164 
L 242.544873 226.86562 
L 242.653091 227.30987 
L 242.674735 226.872301 
L 242.696378 227.312397 
L 242.761309 226.877785 
L 242.869527 227.323982 
L 242.891171 226.887671 
L 242.956102 227.331504 
L 242.977745 226.895425 
L 243.085964 227.34461 
L 243.107607 226.908896 
L 243.172538 227.354612 
L 243.194182 226.919149 
L 243.3024 227.371584 
L 243.324044 226.93651 
L 243.388975 227.384246 
L 243.410618 226.949438 
L 243.518836 227.405313 
L 243.54048 226.97091 
L 243.605411 227.420762 
L 243.627055 226.986633 
L 243.735273 227.446072 
L 243.756916 227.012357 
L 243.821847 227.464381 
L 243.843491 227.030943 
L 243.951709 227.494004 
L 243.973353 227.060981 
L 244.038284 227.515193 
L 244.059927 227.082445 
L 244.168145 227.549123 
L 244.25472 226.698459 
L 244.211433 227.561002 
L 244.298007 226.715262 
L 244.406225 227.196953 
L 244.427869 226.767126 
L 244.4928 227.232474 
L 244.514444 226.802898 
L 244.622662 227.287207 
L 244.644305 226.858259 
L 244.709236 227.325 
L 244.73088 226.896251 
L 244.839098 227.383272 
L 244.860742 226.954809 
L 244.925673 227.423137 
L 244.947316 226.994856 
L 245.055535 227.484392 
L 245.077178 227.05637 
L 245.142109 227.526157 
L 245.163753 227.098298 
L 245.271971 227.590118 
L 245.293615 227.162487 
L 245.358545 227.633586 
L 245.380189 227.206096 
L 245.488407 227.699941 
L 245.574982 227.744894 
L 245.618269 226.892867 
L 245.726487 227.399452 
L 245.748131 226.974589 
L 245.813062 227.454228 
L 245.834705 227.029408 
L 245.942924 227.536821 
L 245.964567 227.11205 
L 246.029498 227.592119 
L 246.051142 227.167368 
L 246.15936 227.675327 
L 246.181004 227.250589 
L 246.245935 227.730921 
L 246.267578 227.30618 
L 246.375796 227.814403 
L 246.39744 227.389641 
L 246.462371 227.870065 
L 246.484015 227.445278 
L 246.548945 227.925692 
L 246.570589 227.50087 
L 246.592233 227.078777 
L 246.657164 227.565102 
L 246.678807 227.142969 
L 246.787025 227.661546 
L 246.808669 227.238671 
L 246.8736 227.72501 
L 246.895244 227.302019 
L 247.003462 227.819467 
L 247.025105 227.39629 
L 247.090036 227.881906 
L 247.11168 227.458596 
L 247.219898 227.974699 
L 247.241542 227.551177 
L 247.306473 228.035945 
L 247.328116 227.612275 
L 247.436335 228.126831 
L 247.479622 227.282147 
L 247.566196 227.350446 
L 247.674415 227.873772 
L 247.696058 227.451506 
L 247.760989 227.940366 
L 247.782633 227.517874 
L 247.890851 228.038707 
L 247.912495 227.615871 
L 247.977425 228.103218 
L 247.999069 227.680148 
L 248.107287 228.19838 
L 248.128931 227.774956 
L 248.193862 228.26074 
L 248.215505 227.837077 
L 248.323724 228.352636 
L 248.410298 227.53809 
L 248.367011 228.382827 
L 248.453585 227.572197 
L 248.561804 228.094036 
L 248.583447 227.672969 
L 248.648378 228.160164 
L 248.670022 227.73886 
L 248.77824 228.258951 
L 248.799884 227.835667 
L 248.864815 228.322429 
L 248.886458 227.898856 
L 248.994676 228.415638 
L 249.01632 227.991636 
L 249.081251 228.476451 
L 249.102895 228.052166 
L 249.211113 228.565705 
L 249.232756 228.141001 
L 249.297687 228.623913 
L 249.319331 228.198934 
L 249.427549 228.709315 
L 249.514124 227.890288 
L 249.470836 228.73728 
L 249.557411 227.922117 
L 249.665629 228.437925 
L 249.687273 228.015935 
L 249.752204 228.499354 
L 249.773847 228.07711 
L 249.882065 228.591531 
L 249.903709 228.166817 
L 249.96864 228.650257 
L 249.990284 228.225257 
L 250.098502 228.736357 
L 250.120145 228.31094 
L 250.185076 228.792467 
L 250.20672 228.366781 
L 250.314938 228.874765 
L 250.336582 228.448686 
L 250.401513 228.928422 
L 250.423156 228.502091 
L 250.531375 229.007165 
L 250.553018 228.580468 
L 250.617949 229.058537 
L 250.639593 228.631605 
L 250.747811 229.13398 
L 250.769455 228.706709 
L 250.834385 229.183239 
L 250.856029 228.755752 
L 250.964247 229.255644 
L 250.985891 228.827845 
L 251.050822 229.302966 
L 251.072465 228.874969 
L 251.180684 229.372598 
L 251.202327 228.944317 
L 251.267258 229.41816 
L 251.288902 228.989699 
L 251.39712 229.485285 
L 251.483695 228.654555 
L 251.440407 229.50735 
L 251.526982 228.680665 
L 251.6352 229.184954 
L 251.656844 228.757921 
L 251.721775 229.235783 
L 251.743418 228.808571 
L 251.851636 229.310812 
L 251.87328 228.883348 
L 251.938211 229.36007 
L 251.959855 228.932449 
L 252.068073 229.432897 
L 252.089716 229.005056 
L 252.154647 229.480787 
L 252.176291 229.052809 
L 252.284509 229.551708 
L 252.306153 229.12354 
L 252.371084 229.598423 
L 252.392727 229.170138 
L 252.500945 229.667721 
L 252.522589 229.239274 
L 252.58752 229.713445 
L 252.609164 229.2849 
L 252.717382 229.781389 
L 252.739025 229.352709 
L 252.803956 229.826296 
L 252.8256 229.397535 
L 252.933818 229.893138 
L 252.955462 229.464269 
L 253.020393 229.937392 
L 253.042036 229.508458 
L 253.150255 230.003369 
L 253.171898 229.574351 
L 253.236829 230.047121 
L 253.258473 229.618053 
L 253.366691 230.112453 
L 253.388335 229.683323 
L 253.453265 230.155843 
L 253.474909 229.726678 
L 253.583127 230.22073 
L 253.604771 229.791522 
L 253.669702 230.263885 
L 253.691345 229.834656 
L 253.799564 230.32851 
L 253.821207 229.899256 
L 253.886138 230.371546 
L 253.907782 229.942281 
L 254.016 230.43607 
L 254.037644 230.006797 
L 254.102575 230.479088 
L 254.124218 230.049816 
L 254.232436 230.543656 
L 254.25408 230.114389 
L 254.319011 230.586746 
L 254.340655 230.157488 
L 254.448873 230.65148 
L 254.470516 230.222242 
L 254.535447 230.694719 
L 254.557091 230.265496 
L 254.665309 230.759724 
L 254.686953 230.330531 
L 254.751884 230.803173 
L 254.773527 230.374002 
L 254.881745 230.868534 
L 254.903389 230.439401 
L 254.96832 230.912245 
L 254.989964 230.483139 
L 255.098182 230.978028 
L 255.119825 230.548967 
L 255.184756 231.022037 
L 255.2064 230.593008 
L 255.314618 231.088291 
L 255.336262 230.659311 
L 255.401193 231.132625 
L 255.422836 230.703678 
L 255.531055 231.196204 
L 255.552698 230.770507 
L 255.617629 231.240876 
L 255.639273 230.815203 
L 255.747491 231.308077 
L 255.769135 230.882441 
L 255.834065 231.353008 
L 255.855709 230.927396 
L 255.963927 231.420596 
L 255.985571 230.995019 
L 256.050502 231.465781 
L 256.072145 231.040227 
L 256.180364 231.533744 
L 256.202007 231.108223 
L 256.266938 231.579172 
L 256.288582 231.153671 
L 256.3968 231.647486 
L 256.418444 231.222014 
L 256.483375 231.693137 
L 256.505018 231.267682 
L 256.613236 231.761765 
L 256.63488 231.336335 
L 256.699811 231.807612 
L 256.721455 231.382195 
L 256.829673 231.87651 
L 256.851316 231.451112 
L 256.916247 231.922519 
L 256.937891 231.49713 
L 257.046109 231.991631 
L 257.067753 231.566253 
L 257.132684 232.037761 
L 257.154327 231.612389 
L 257.262545 232.107023 
L 257.284189 231.681654 
L 257.34912 232.15323 
L 257.370764 231.727861 
L 257.478982 232.22257 
L 257.500625 231.797196 
L 257.565556 232.268803 
L 257.5872 231.840402 
L 257.695418 232.33814 
L 257.717062 231.909723 
L 257.781993 232.38428 
L 257.803636 231.955851 
L 257.911855 232.453347 
L 257.933498 232.024897 
L 257.998429 232.499286 
L 258.020073 232.070819 
L 258.128291 232.568014 
L 258.149935 232.13952 
L 258.214865 232.613703 
L 258.236509 232.185188 
L 258.344727 232.682022 
L 258.366371 232.253472 
L 258.431302 232.727413 
L 258.452945 232.298838 
L 258.561164 232.795247 
L 258.582807 232.36663 
L 258.647738 232.84029 
L 258.669382 232.411642 
L 258.7776 232.907563 
L 258.799244 232.478866 
L 258.864175 232.952206 
L 258.885818 232.523474 
L 258.994036 233.018842 
L 259.01568 232.590053 
L 259.080611 233.063034 
L 259.102255 232.634205 
L 259.210473 233.126191 
L 259.232116 232.700072 
L 259.297047 233.169887 
L 259.318691 232.743691 
L 259.426909 233.234918 
L 259.448553 232.808606 
L 259.513484 233.277922 
L 259.535127 232.851532 
L 259.643345 233.341894 
L 259.664989 232.915383 
L 259.72992 233.384177 
L 259.751564 232.957584 
L 259.859782 233.447043 
L 259.903069 232.593137 
L 259.989644 232.6432 
L 260.097862 233.144896 
L 260.119505 232.717449 
L 260.184436 233.193934 
L 260.20608 232.766382 
L 260.314298 233.266636 
L 260.335942 232.838925 
L 260.400873 233.314529 
L 260.422516 232.886712 
L 260.530735 233.385504 
L 260.552378 232.957526 
L 260.617309 233.43224 
L 260.638953 233.004154 
L 260.747171 233.499005 
L 260.768815 233.07322 
L 260.833745 233.544542 
L 260.855389 233.118616 
L 260.963607 233.611857 
L 260.985251 233.18572 
L 261.050182 233.656076 
L 261.071825 233.229798 
L 261.180044 233.721421 
L 261.201687 233.294935 
L 261.266618 233.764333 
L 261.288262 233.337708 
L 261.39648 233.827728 
L 261.418124 233.400895 
L 261.483055 233.869345 
L 261.504698 233.442374 
L 261.612916 233.930807 
L 261.63456 233.503631 
L 261.699491 233.971142 
L 261.721135 233.54383 
L 261.829353 234.030692 
L 261.850996 233.603176 
L 261.915927 234.06976 
L 261.937571 233.642109 
L 262.045789 234.127419 
L 262.067433 233.699567 
L 262.132364 234.165233 
L 262.154007 233.737248 
L 262.262225 234.221021 
L 262.283869 233.790674 
L 262.3488 234.257537 
L 262.370444 233.827062 
L 262.478662 234.31129 
L 262.500305 233.880627 
L 262.565236 234.346455 
L 262.58688 233.915668 
L 262.695098 234.398213 
L 262.716742 233.967242 
L 262.781673 234.432067 
L 262.803316 234.000976 
L 262.911535 234.481889 
L 262.998109 233.639764 
L 262.954822 234.498243 
L 263.041396 233.660229 
L 263.149615 234.14816 
L 263.171258 233.720676 
L 263.236189 234.187842 
L 263.257833 233.760195 
L 263.366051 234.246213 
L 263.387695 233.818325 
L 263.452625 234.28437 
L 263.474269 233.856324 
L 263.582487 234.340491 
L 263.604131 233.912211 
L 263.669062 234.377172 
L 263.690705 233.94874 
L 263.798924 234.431117 
L 263.820567 234.000612 
L 263.885498 234.466368 
L 263.907142 234.035718 
L 264.01536 234.518102 
L 264.037004 234.087238 
L 264.101935 234.551846 
L 264.123578 234.120843 
L 264.231796 234.601372 
L 264.25344 234.170166 
L 264.318371 234.633678 
L 264.340015 234.20234 
L 264.448233 234.681097 
L 264.469876 234.249565 
L 264.534807 234.712032 
L 264.556451 234.280374 
L 264.664669 234.757443 
L 264.686313 234.325601 
L 264.751244 234.78707 
L 264.772887 234.355109 
L 264.881105 234.830567 
L 264.902749 234.39843 
L 264.96768 234.858948 
L 264.989324 234.426697 
L 265.097542 234.90062 
L 265.119185 234.468202 
L 265.184116 234.927814 
L 265.20576 234.495288 
L 265.313978 234.967748 
L 265.335622 234.535063 
L 265.400553 234.993811 
L 265.422196 234.561023 
L 265.530415 235.032088 
L 265.552058 234.599149 
L 265.616989 235.057074 
L 265.638633 234.624037 
L 265.746851 235.092243 
L 265.768495 234.66057 
L 265.833425 235.116152 
L 265.855069 234.684362 
L 265.963287 235.151195 
L 265.984931 234.719234 
L 266.049862 235.174025 
L 266.071505 234.741953 
L 266.179724 235.207499 
L 266.201367 234.775266 
L 266.266298 235.229317 
L 266.287942 234.79698 
L 266.39616 235.261321 
L 266.417804 234.828832 
L 266.482735 235.282189 
L 266.504378 234.849603 
L 266.612596 235.312814 
L 266.63424 234.880086 
L 266.699171 235.332792 
L 266.720815 234.899972 
L 266.829033 235.362125 
L 266.850676 234.929171 
L 266.915607 235.381269 
L 266.937251 234.948229 
L 267.045469 235.409391 
L 267.067113 234.976225 
L 267.132044 235.427753 
L 267.153687 234.994507 
L 267.261905 235.45474 
L 267.283549 235.021376 
L 267.34848 235.47237 
L 267.370124 235.03893 
L 267.478342 235.498293 
L 267.499985 235.064742 
L 267.564916 235.515237 
L 267.58656 235.081615 
L 267.694778 235.540163 
L 267.716422 235.106437 
L 267.781353 235.556465 
L 267.802996 235.122671 
L 267.911215 235.580458 
L 267.932858 235.145347 
L 267.997789 235.596153 
L 268.019433 235.160979 
L 268.127651 235.619192 
L 268.149295 235.183926 
L 268.214225 235.634227 
L 268.235869 235.198903 
L 268.344087 235.656316 
L 268.430662 234.79604 
L 268.387375 235.66356 
L 268.473949 234.807528 
L 268.582167 235.273728 
L 268.603811 234.841452 
L 268.668742 235.295995 
L 268.690385 234.863629 
L 268.798604 235.328756 
L 268.820247 234.896257 
L 268.885178 235.350182 
L 268.906822 234.917598 
L 269.01504 235.381721 
L 269.036684 234.949013 
L 269.101615 235.40236 
L 269.123258 234.969572 
L 269.231476 235.432757 
L 269.25312 234.999852 
L 269.318051 235.452658 
L 269.339695 235.019678 
L 269.447913 235.481984 
L 269.469556 235.048895 
L 269.534487 235.501194 
L 269.556131 235.068034 
L 269.664349 235.529517 
L 269.685993 235.096254 
L 269.750924 235.54808 
L 269.772567 235.114751 
L 269.880785 235.575461 
L 269.902429 235.142036 
L 269.96736 235.593417 
L 269.989004 235.159929 
L 270.097222 235.619916 
L 270.118865 235.186337 
L 270.183796 235.637301 
L 270.20544 235.203664 
L 270.313658 235.662971 
L 270.335302 235.229249 
L 270.400233 235.679821 
L 270.421876 235.246043 
L 270.530095 235.704712 
L 270.551738 235.270854 
L 270.616669 235.721058 
L 270.638313 235.287149 
L 270.746531 235.745218 
L 270.768175 235.311232 
L 270.833105 235.761091 
L 270.854749 235.327056 
L 270.962967 235.784561 
L 270.984611 235.350455 
L 271.049542 235.799989 
L 271.071185 235.364906 
L 271.179404 235.822794 
L 271.201047 235.387641 
L 271.265978 235.837751 
L 271.287622 235.402552 
L 271.39584 235.859831 
L 271.417484 235.424567 
L 271.482415 235.874322 
L 271.504058 235.439017 
L 271.612276 235.895731 
L 271.63392 235.460366 
L 271.698851 235.909793 
L 271.720495 235.474389 
L 271.828713 235.93058 
L 271.850356 235.495122 
L 271.915287 235.944244 
L 271.936931 235.508749 
L 272.045149 235.964457 
L 272.066793 235.528911 
L 272.131724 235.977751 
L 272.153367 235.542173 
L 272.261585 235.997431 
L 272.283229 235.561806 
L 272.34816 236.010382 
L 272.369804 235.574727 
L 272.478022 236.029568 
L 272.499665 235.593869 
L 272.564596 236.042202 
L 272.58624 235.606475 
L 272.694458 236.060927 
L 272.716102 235.62516 
L 272.781033 236.073266 
L 272.802676 235.637472 
L 272.910895 236.091563 
L 272.932538 235.655732 
L 272.997469 236.103626 
L 273.019113 235.667771 
L 273.127331 236.121525 
L 273.148975 235.685635 
L 273.213905 236.133331 
L 273.235549 235.697419 
L 273.343767 236.150858 
L 273.365411 235.714913 
L 273.430342 236.162424 
L 273.451985 235.726458 
L 273.560204 236.179602 
L 273.581847 235.743606 
L 273.646778 236.190943 
L 273.668422 235.754928 
L 273.77664 236.207795 
L 273.798284 235.771751 
L 273.863215 236.218925 
L 273.884858 235.782863 
L 273.993076 236.23547 
L 274.01472 235.799382 
L 274.079651 236.246402 
L 274.101295 235.810297 
L 274.209513 236.262658 
L 274.231156 235.826528 
L 274.296087 236.273403 
L 274.317731 235.837257 
L 274.425949 236.289386 
L 274.447593 235.853217 
L 274.512524 236.299954 
L 274.534167 235.86377 
L 274.642385 236.315679 
L 274.664029 235.879473 
L 274.72896 236.32608 
L 274.750604 235.889859 
L 274.858822 236.34156 
L 274.880465 235.905319 
L 274.945396 236.351802 
L 274.96704 235.915547 
L 275.075258 236.367048 
L 275.096902 235.930774 
L 275.161833 236.377138 
L 275.183476 235.94085 
L 275.291695 236.392162 
L 275.313338 235.955856 
L 275.378269 236.402106 
L 275.399913 235.965788 
L 275.508131 236.416917 
L 275.529775 235.980581 
L 275.594705 236.426722 
L 275.616349 235.990374 
L 275.724567 236.441328 
L 275.746211 236.004963 
L 275.811142 236.450999 
L 275.832785 236.014623 
L 275.941004 236.464739 
L 275.962647 236.029012 
L 276.027578 236.474261 
L 276.049222 236.038513 
L 276.15744 236.488401 
L 276.179084 236.052621 
L 276.244015 236.497735 
L 276.265658 236.061936 
L 276.373876 236.511604 
L 276.39552 236.075775 
L 276.460451 236.520764 
L 276.482095 236.084917 
L 276.590313 236.534381 
L 276.611956 236.098507 
L 276.676887 236.54338 
L 276.698531 236.107489 
L 276.806749 236.556763 
L 276.828393 236.120847 
L 276.893324 236.565612 
L 276.914967 236.12968 
L 277.023185 236.578778 
L 277.044829 236.142822 
L 277.10976 236.587487 
L 277.131404 236.151516 
L 277.239622 236.60045 
L 277.261265 236.164456 
L 277.326196 236.609027 
L 277.34784 236.173019 
L 277.456058 236.6218 
L 277.477702 236.185771 
L 277.542633 236.630254 
L 277.564276 236.194212 
L 277.672495 236.642847 
L 277.694138 236.206785 
L 277.759069 236.651186 
L 277.780713 236.21511 
L 277.888931 236.66361 
L 277.910575 236.227516 
L 277.975505 236.671839 
L 277.997149 236.235732 
L 278.105367 236.684102 
L 278.127011 236.247978 
L 278.191942 236.692227 
L 278.213585 236.256091 
L 278.321804 236.704338 
L 278.343447 236.268185 
L 278.408378 236.712363 
L 278.430022 236.276198 
L 278.53824 236.724329 
L 278.559884 236.288147 
L 278.624815 236.732259 
L 278.646458 236.296066 
L 278.754676 236.744085 
L 278.77632 236.307876 
L 278.841251 236.751923 
L 278.862895 236.315704 
L 278.971113 236.763614 
L 278.992756 236.327379 
L 279.057687 236.771364 
L 279.079331 236.335118 
L 279.187549 236.782924 
L 279.209193 236.346663 
L 279.274124 236.790588 
L 279.295767 236.354317 
L 279.403985 236.802021 
L 279.425629 236.365735 
L 279.49056 236.809602 
L 279.512204 236.373306 
L 279.620422 236.820911 
L 279.642065 236.3846 
L 279.706996 236.828409 
L 279.72864 236.392089 
L 279.836858 236.839596 
L 279.858502 236.403261 
L 279.923433 236.847014 
L 279.945076 236.41067 
L 280.053295 236.858082 
L 280.074938 236.421723 
L 280.139869 236.86542 
L 280.161513 236.429052 
L 280.269731 236.876369 
L 280.291375 236.439986 
L 280.356305 236.883629 
L 280.377949 236.447236 
L 280.486167 236.89446 
L 280.507811 236.458053 
L 280.572742 236.901642 
L 280.594385 236.465226 
L 280.702604 236.912356 
L 280.724247 236.475926 
L 280.789178 236.91946 
L 280.810822 236.483021 
L 280.91904 236.930058 
L 280.940684 236.493604 
L 281.005615 236.937085 
L 281.027258 236.500621 
L 281.135476 236.947566 
L 281.15712 236.511089 
L 281.222051 236.954515 
L 281.243695 236.518028 
L 281.351913 236.96488 
L 281.373556 236.528379 
L 281.438487 236.971751 
L 281.460131 236.53524 
L 281.568349 236.981998 
L 281.589993 236.545473 
L 281.654924 236.988791 
L 281.676567 236.552257 
L 281.784785 236.998921 
L 281.806429 236.562372 
L 281.87136 237.005635 
L 281.893004 236.569077 
L 282.001222 237.015647 
L 282.022865 236.579075 
L 282.087796 237.022282 
L 282.10944 236.5857 
L 282.217658 237.032175 
L 282.239302 236.595579 
L 282.304233 237.038731 
L 282.325876 236.602124 
L 282.434095 237.048504 
L 282.455738 236.611883 
L 282.520669 237.054979 
L 282.542313 236.618349 
L 282.650531 237.064632 
L 282.672175 236.627987 
L 282.737105 237.071027 
L 282.758749 236.634372 
L 282.866967 237.080553 
L 282.888611 236.643483 
L 282.953542 237.086837 
L 282.975185 236.649754 
L 283.083404 237.096157 
L 283.105047 236.659056 
L 283.169978 237.102302 
L 283.191622 236.665189 
L 283.29984 237.11142 
L 283.321484 236.674291 
L 283.386415 237.117436 
L 283.408058 236.680295 
L 283.516276 237.126366 
L 283.53792 236.68921 
L 283.602851 237.13226 
L 283.624495 236.695094 
L 283.732713 237.141015 
L 283.754356 236.703833 
L 283.819287 237.146795 
L 283.840931 236.709604 
L 283.949149 237.155384 
L 283.970793 236.718179 
L 284.035724 237.161056 
L 284.057367 236.723843 
L 284.165585 237.169489 
L 284.187229 236.732263 
L 284.25216 237.175061 
L 284.273804 236.737826 
L 284.382022 237.183347 
L 284.403665 236.7461 
L 284.468596 237.188824 
L 284.49024 236.751569 
L 284.598458 237.196971 
L 284.620102 236.759704 
L 284.685033 237.202357 
L 284.706676 236.765083 
L 284.814895 237.210372 
L 284.836538 236.773088 
L 284.901469 237.215673 
L 284.923113 236.778382 
L 285.031331 237.223564 
L 285.052975 236.786262 
L 285.117905 237.228783 
L 285.139549 236.791475 
L 285.247767 237.236555 
L 285.269411 236.799236 
L 285.334342 237.241697 
L 285.355985 236.804372 
L 285.464204 237.249354 
L 285.485847 236.812021 
L 285.550778 237.254423 
L 285.572422 236.817083 
L 285.68064 237.261971 
L 285.702284 236.824623 
L 285.767215 237.266969 
L 285.788858 236.829615 
L 285.897076 237.274413 
L 285.91872 236.837051 
L 285.983651 237.279342 
L 286.005295 236.841974 
L 286.113513 237.286686 
L 286.135156 236.84931 
L 286.200087 237.29155 
L 286.221731 236.854168 
L 286.329949 237.298797 
L 286.351593 236.861408 
L 286.416524 237.303597 
L 286.438167 236.866203 
L 286.546385 237.31075 
L 286.568029 236.873349 
L 286.63296 237.315488 
L 286.654604 236.878082 
L 286.762822 237.322551 
L 286.784465 236.885137 
L 286.849396 237.327229 
L 286.87104 236.889811 
L 286.979258 237.334203 
L 287.000902 236.896778 
L 287.065833 237.338824 
L 287.087476 236.901394 
L 287.195695 237.345712 
L 287.217338 236.908275 
L 287.282269 237.350275 
L 287.303913 236.912834 
L 287.412131 237.357079 
L 287.433775 236.919631 
L 287.498705 237.361587 
L 287.520349 236.924135 
L 287.628567 237.368308 
L 287.650211 236.930849 
L 287.715142 237.372762 
L 287.736785 236.935299 
L 287.845004 237.379402 
L 287.866647 236.941932 
L 287.931578 237.383802 
L 287.953222 236.946328 
L 288.06144 237.390362 
L 288.083084 236.952883 
L 288.148015 237.39471 
L 288.169658 236.957226 
L 288.277876 237.401192 
L 288.29952 236.963702 
L 288.364451 237.405487 
L 288.386095 236.967993 
L 288.494313 237.411892 
L 288.602531 236.978632 
L 288.710749 237.422465 
L 288.818967 236.989144 
L 288.927185 237.432911 
L 289.035404 236.999529 
L 289.143622 237.443232 
L 289.25184 237.009791 
L 289.360058 237.453428 
L 289.468276 237.019929 
L 289.576495 237.463502 
L 289.684713 237.029944 
L 289.792931 237.473454 
L 289.901149 237.039837 
L 290.009367 237.483284 
L 290.117585 237.049609 
L 290.225804 237.492994 
L 290.334022 237.059261 
L 290.44224 237.502584 
L 290.550458 237.068794 
L 290.658676 237.512054 
L 290.766895 237.078207 
L 290.875113 237.521406 
L 290.983331 237.087503 
L 291.091549 237.530641 
L 291.199767 237.096681 
L 291.307985 237.539758 
L 291.416204 237.105742 
L 291.524422 237.548758 
L 291.63264 237.114686 
L 291.740858 237.557643 
L 291.849076 237.123516 
L 291.957295 237.566412 
L 292.065513 237.13223 
L 292.173731 237.575068 
L 292.281949 237.140831 
L 292.390167 237.58361 
L 292.498385 237.149318 
L 292.606604 237.592039 
L 292.714822 237.157694 
L 292.82304 237.600357 
L 292.931258 237.165958 
L 293.039476 237.608563 
L 293.147695 237.174112 
L 293.255913 237.616661 
L 293.364131 237.182156 
L 293.472349 237.624649 
L 293.580567 237.190092 
L 293.688785 237.63253 
L 293.797004 237.197922 
L 293.905222 237.640304 
L 294.01344 237.205645 
L 294.121658 237.647973 
L 294.229876 237.213264 
L 294.338095 237.655538 
L 294.446313 237.220779 
L 294.554531 237.663001 
L 294.662749 237.228192 
L 294.770967 237.670362 
L 294.879185 237.235504 
L 294.987404 237.677623 
L 295.095622 237.242718 
L 295.20384 237.684785 
L 295.312058 237.249833 
L 295.420276 237.69185 
L 295.528495 237.256852 
L 295.636713 237.69882 
L 295.744931 237.263776 
L 295.853149 237.705605 
L 295.961367 237.270576 
L 296.069585 237.712304 
L 296.177804 237.277172 
L 296.286022 237.718804 
L 296.39424 237.283579 
L 296.502458 237.725125 
L 296.610676 237.289817 
L 296.718895 237.731286 
L 296.827113 237.295903 
L 296.935331 237.737305 
L 297.043549 237.301855 
L 297.151767 237.743195 
L 297.259985 237.307687 
L 297.368204 237.748973 
L 297.476422 237.313413 
L 297.58464 237.754651 
L 297.692858 237.319044 
L 297.801076 237.76024 
L 297.909295 237.324593 
L 298.017513 237.765751 
L 298.125731 237.330069 
L 298.233949 237.771195 
L 298.342167 237.335481 
L 298.450385 237.776578 
L 298.558604 237.340838 
L 298.666822 237.78191 
L 298.77504 237.346146 
L 298.883258 237.787197 
L 298.991476 237.351412 
L 299.099695 237.792444 
L 299.207913 237.356642 
L 299.316131 237.797658 
L 299.424349 237.361841 
L 299.532567 237.802844 
L 299.640785 237.367014 
L 299.749004 237.808004 
L 299.857222 237.372163 
L 299.96544 237.813143 
L 300.073658 237.377293 
L 300.181876 237.818264 
L 300.290095 237.382405 
L 300.398313 237.823369 
L 300.506531 237.387503 
L 300.614749 237.82846 
L 300.722967 237.392588 
L 300.831185 237.833539 
L 300.939404 237.397661 
L 301.047622 237.838607 
L 301.15584 237.402724 
L 301.264058 237.843665 
L 301.372276 237.407776 
L 301.480495 237.848713 
L 301.588713 237.41282 
L 301.696931 237.853752 
L 301.805149 237.417854 
L 301.913367 237.858781 
L 302.021585 237.422878 
L 302.129804 237.8638 
L 302.238022 237.427892 
L 302.34624 237.868809 
L 302.454458 237.432895 
L 302.562676 237.873807 
L 302.670895 237.437887 
L 302.779113 237.878792 
L 302.887331 237.442865 
L 302.995549 237.883765 
L 303.103767 237.44783 
L 303.211985 237.888722 
L 303.320204 237.45278 
L 303.428422 237.893664 
L 303.53664 237.457713 
L 303.644858 237.898588 
L 303.753076 237.462627 
L 303.861295 237.903493 
L 303.969513 237.467521 
L 304.077731 237.908377 
L 304.185949 237.472394 
L 304.294167 237.913238 
L 304.402385 237.477242 
L 304.510604 237.918075 
L 304.618822 237.482065 
L 304.72704 237.922885 
L 304.835258 237.486861 
L 304.943476 237.927667 
L 305.051695 237.491628 
L 305.159913 237.932419 
L 305.268131 237.496363 
L 305.376349 237.937138 
L 305.484567 237.501065 
L 305.592785 237.941824 
L 305.701004 237.505732 
L 305.809222 237.946473 
L 305.91744 237.510362 
L 306.025658 237.951085 
L 306.133876 237.514954 
L 306.242095 237.955657 
L 306.350313 237.519505 
L 306.458531 237.960188 
L 306.566749 237.524014 
L 306.674967 237.964676 
L 306.783185 237.528479 
L 306.891404 237.969119 
L 306.999622 237.532898 
L 307.10784 237.973516 
L 307.216058 237.537271 
L 307.324276 237.977865 
L 307.432495 237.541595 
L 307.540713 237.982165 
L 307.648931 237.545869 
L 307.757149 237.986415 
L 307.865367 237.550093 
L 307.973585 237.990614 
L 308.081804 237.554264 
L 308.190022 237.994759 
L 308.29824 237.558382 
L 308.406458 237.998851 
L 308.514676 237.562446 
L 308.622895 238.002888 
L 308.731113 237.566455 
L 308.839331 238.00687 
L 308.947549 237.570408 
L 309.055767 238.010796 
L 309.163985 237.574305 
L 309.272204 238.014665 
L 309.380422 237.578145 
L 309.48864 238.018477 
L 309.596858 237.581927 
L 309.705076 238.022231 
L 309.813295 237.585652 
L 309.921513 238.025928 
L 310.029731 237.589318 
L 310.137949 238.029566 
L 310.246167 237.592927 
L 310.354385 238.033146 
L 310.462604 237.596477 
L 310.570822 238.036668 
L 310.67904 237.599969 
L 310.787258 238.040131 
L 310.895476 237.603403 
L 311.003695 238.043537 
L 311.111913 237.606779 
L 311.220131 238.046885 
L 311.328349 237.610098 
L 311.436567 238.050176 
L 311.544785 237.613359 
L 311.653004 238.05341 
L 311.761222 237.616564 
L 311.86944 238.056587 
L 311.977658 237.619713 
L 312.085876 238.059708 
L 312.194095 237.622806 
L 312.302313 238.062775 
L 312.410531 237.625845 
L 312.518749 238.065787 
L 312.626967 237.628829 
L 312.735185 238.068745 
L 312.843404 237.63176 
L 312.951622 238.07165 
L 313.05984 237.634638 
L 313.168058 238.074503 
L 313.276276 237.637465 
L 313.384495 238.077305 
L 313.492713 237.640241 
L 313.600931 238.080056 
L 313.709149 237.642968 
L 313.817367 238.082759 
L 313.925585 237.645645 
L 314.033804 238.085413 
L 314.142022 237.648276 
L 314.25024 238.08802 
L 314.358458 237.650859 
L 314.466676 238.090581 
L 314.574895 237.653397 
L 314.683113 238.093097 
L 314.791331 237.65589 
L 314.899549 238.095569 
L 315.007767 237.658341 
L 315.115985 238.097998 
L 315.224204 237.660749 
L 315.332422 238.100386 
L 315.44064 237.663116 
L 315.548858 238.102733 
L 315.657076 237.665443 
L 315.765295 238.105041 
L 315.873513 237.667731 
L 315.981731 238.10731 
L 316.089949 237.669981 
L 316.198167 238.109543 
L 316.306385 237.672195 
L 316.414604 238.111739 
L 316.522822 237.674374 
L 316.63104 238.1139 
L 316.739258 237.676518 
L 316.847476 238.116028 
L 316.955695 237.678629 
L 317.063913 238.118123 
L 317.172131 237.680708 
L 317.280349 238.120187 
L 317.388567 237.682756 
L 317.496785 238.12222 
L 317.605004 237.684774 
L 317.713222 238.124223 
L 317.82144 237.686763 
L 317.929658 238.126198 
L 318.037876 237.688724 
L 318.146095 238.128145 
L 318.254313 237.690658 
L 318.362531 238.130066 
L 318.470749 237.692566 
L 318.578967 238.131961 
L 318.687185 237.694448 
L 318.795404 238.133832 
L 318.903622 237.696307 
L 319.01184 238.135678 
L 319.120058 237.698142 
L 319.228276 238.137502 
L 319.336495 237.699954 
L 319.444713 238.139303 
L 319.552931 237.701745 
L 319.661149 238.141083 
L 319.769367 237.703514 
L 319.877585 238.142843 
L 319.985804 237.705264 
L 320.094022 238.144582 
L 320.20224 237.706994 
L 320.310458 238.146302 
L 320.418676 237.708705 
L 320.526895 238.148004 
L 320.635113 237.710397 
L 320.743331 238.149688 
L 320.851549 237.712073 
L 320.959767 238.151355 
L 321.067985 237.713731 
L 321.176204 238.153005 
L 321.284422 237.715373 
L 321.39264 238.154638 
L 321.500858 237.716998 
L 321.609076 238.156256 
L 321.717295 237.718609 
L 321.825513 238.157859 
L 321.933731 237.720204 
L 322.041949 238.159447 
L 322.150167 237.721785 
L 322.258385 238.161021 
L 322.366604 237.723352 
L 322.474822 238.16258 
L 322.58304 237.724905 
L 322.691258 238.164126 
L 322.799476 237.726444 
L 322.907695 238.165659 
L 323.015913 237.727971 
L 323.124131 238.167179 
L 323.232349 237.729484 
L 323.340567 238.168686 
L 323.448785 237.730985 
L 323.557004 238.170181 
L 323.665222 237.732474 
L 323.77344 238.171664 
L 323.881658 237.733951 
L 323.989876 238.173134 
L 324.098095 237.735415 
L 324.206313 238.174593 
L 324.314531 237.736868 
L 324.422749 238.17604 
L 324.530967 237.73831 
L 324.639185 238.177476 
L 324.747404 237.73974 
L 324.855622 238.1789 
L 324.96384 237.741158 
L 325.072058 238.180313 
L 325.180276 237.742566 
L 325.288495 238.181714 
L 325.396713 237.743962 
L 325.504931 238.183105 
L 325.613149 237.745347 
L 325.721367 238.184484 
L 325.829585 237.746721 
L 325.937804 238.185853 
L 326.046022 237.748084 
L 326.15424 238.18721 
L 326.262458 237.749436 
L 326.370676 238.188557 
L 326.478895 237.750777 
L 326.587113 238.189893 
L 326.695331 237.752107 
L 326.803549 238.191217 
L 326.911767 237.753427 
L 327.019985 238.192531 
L 327.128204 237.754735 
L 327.236422 238.193833 
L 327.34464 237.756032 
L 327.452858 238.195124 
L 327.561076 237.757318 
L 327.669295 238.196405 
L 327.777513 237.758592 
L 327.885731 238.197674 
L 327.993949 237.759856 
L 328.102167 238.198932 
L 328.210385 237.761108 
L 328.318604 238.200178 
L 328.426822 237.762349 
L 328.53504 238.201414 
L 328.643258 237.763579 
L 328.751476 238.202637 
L 328.859695 237.764797 
L 328.967913 238.20385 
L 329.076131 237.766004 
L 329.184349 238.205051 
L 329.292567 237.767199 
L 329.400785 238.20624 
L 329.509004 237.768382 
L 329.617222 238.207418 
L 329.72544 237.769554 
L 329.833658 238.208584 
L 329.941876 237.770714 
L 330.050095 238.209738 
L 330.158313 237.771862 
L 330.266531 238.21088 
L 330.374749 237.772999 
L 330.482967 238.21201 
L 330.591185 237.774123 
L 330.699404 238.213129 
L 330.807622 237.775235 
L 330.91584 238.214235 
L 331.024058 237.776336 
L 331.132276 238.215329 
L 331.240495 237.777424 
L 331.348713 238.216411 
L 331.456931 237.7785 
L 331.565149 238.217481 
L 331.673367 237.779564 
L 331.781585 238.218539 
L 331.889804 237.780615 
L 331.998022 238.219585 
L 332.10624 237.781655 
L 332.214458 238.220618 
L 332.322676 237.782682 
L 332.430895 238.221639 
L 332.539113 237.783697 
L 332.647331 238.222648 
L 332.755549 237.784699 
L 332.863767 238.223644 
L 332.971985 237.78569 
L 333.080204 238.224628 
L 333.188422 237.786668 
L 333.29664 238.2256 
L 333.404858 237.787633 
L 333.513076 238.22656 
L 333.621295 237.788587 
L 333.729513 238.227507 
L 333.837731 237.789528 
L 333.945949 238.228442 
L 334.054167 237.790457 
L 334.162385 238.229365 
L 334.270604 237.791374 
L 334.378822 238.230276 
L 334.48704 237.792278 
L 334.595258 238.231174 
L 334.703476 237.793171 
L 334.811695 238.232061 
L 334.919913 237.794051 
L 335.028131 238.232935 
L 335.136349 237.79492 
L 335.244567 238.233798 
L 335.352785 237.795776 
L 335.461004 238.234648 
L 335.569222 237.796621 
L 335.67744 238.235487 
L 335.785658 237.797454 
L 335.893876 238.236314 
L 336.002095 237.798275 
L 336.110313 238.23713 
L 336.218531 237.799085 
L 336.326749 238.237933 
L 336.434967 237.799883 
L 336.543185 238.238726 
L 336.651404 237.800669 
L 336.759622 238.239507 
L 336.86784 237.801445 
L 336.976058 238.240276 
L 337.084276 237.802209 
L 337.192495 238.241035 
L 337.300713 237.802962 
L 337.408931 238.241783 
L 337.517149 237.803704 
L 337.625367 238.242519 
L 337.733585 237.804435 
L 337.841804 238.243245 
L 337.950022 237.805155 
L 338.05824 238.24396 
L 338.166458 237.805865 
L 338.274676 238.244665 
L 338.382895 237.806565 
L 338.491113 238.245359 
L 338.599331 237.807253 
L 338.707549 238.246043 
L 338.815767 237.807932 
L 338.923985 238.246716 
L 339.032204 237.808601 
L 339.140422 238.24738 
L 339.24864 237.80926 
L 339.356858 238.248034 
L 339.465076 237.809908 
L 339.573295 238.248678 
L 339.681513 237.810548 
L 339.789731 238.249312 
L 339.897949 237.811177 
L 340.006167 238.249937 
L 340.114385 237.811798 
L 340.222604 238.250553 
L 340.330822 237.812409 
L 340.43904 238.25116 
L 340.547258 237.813011 
L 340.655476 238.251757 
L 340.763695 237.813604 
L 340.871913 238.252346 
L 340.980131 237.814188 
L 341.088349 238.252926 
L 341.196567 237.814764 
L 341.304785 238.253497 
L 341.413004 237.815331 
L 341.521222 238.25406 
L 341.62944 237.815889 
L 341.737658 238.254615 
L 341.845876 237.81644 
L 341.954095 238.255161 
L 342.062313 237.816983 
L 342.170531 238.2557 
L 342.278749 237.817517 
L 342.386967 238.25623 
L 342.495185 237.818044 
L 342.603404 238.256753 
L 342.711622 237.818563 
L 342.81984 238.257268 
L 342.928058 237.819075 
L 343.036276 238.257776 
L 343.144495 237.819579 
L 343.252713 238.258277 
L 343.360931 237.820076 
L 343.469149 238.25877 
L 343.577367 237.820566 
L 343.685585 238.259257 
L 343.793804 237.821049 
L 343.902022 238.259736 
L 344.01024 237.821525 
L 344.118458 238.260209 
L 344.226676 237.821994 
L 344.334895 238.260675 
L 344.443113 237.822457 
L 344.551331 238.261135 
L 344.659549 237.822914 
L 344.767767 238.261588 
L 344.875985 237.823364 
L 344.984204 238.262035 
L 345.092422 237.823807 
L 345.20064 238.262476 
L 345.308858 237.824245 
L 345.417076 238.262911 
L 345.525295 237.824677 
L 345.633513 238.263339 
L 345.741731 237.825103 
L 345.849949 238.263762 
L 345.958167 237.825523 
L 346.066385 238.26418 
L 346.174604 237.825937 
L 346.282822 238.264591 
L 346.39104 237.826346 
L 346.499258 238.264997 
L 346.607476 237.82675 
L 346.715695 238.265398 
L 346.823913 237.827148 
L 346.932131 238.265793 
L 347.040349 237.827541 
L 347.148567 238.266184 
L 347.256785 237.827928 
L 347.365004 238.266569 
L 347.473222 237.828311 
L 347.58144 238.266949 
L 347.689658 237.828688 
L 347.797876 238.267324 
L 347.906095 237.829061 
L 348.014313 238.267694 
L 348.122531 237.829429 
L 348.230749 238.26806 
L 348.338967 237.829792 
L 348.447185 238.26842 
L 348.555404 237.83015 
L 348.663622 238.268776 
L 348.77184 237.830504 
L 348.880058 238.269128 
L 348.988276 237.830853 
L 349.096495 238.269475 
L 349.204713 237.831198 
L 349.312931 238.269818 
L 349.421149 237.831539 
L 349.529367 238.270156 
L 349.637585 237.831875 
L 349.745804 238.27049 
L 349.854022 237.832207 
L 349.96224 238.27082 
L 350.070458 237.832535 
L 350.178676 238.271145 
L 350.286895 237.832858 
L 350.395113 238.271467 
L 350.503331 237.833178 
L 350.611549 238.271784 
L 350.719767 237.833493 
L 350.827985 238.272098 
L 350.936204 237.833805 
L 351.044422 238.272408 
L 351.15264 237.834112 
L 351.260858 238.272713 
L 351.369076 237.834416 
L 351.477295 238.273015 
L 351.585513 237.834716 
L 351.693731 238.273313 
L 351.801949 237.835012 
L 351.910167 238.273608 
L 352.018385 237.835305 
L 352.126604 238.273898 
L 352.234822 237.835594 
L 352.34304 238.274185 
L 352.451258 237.835879 
L 352.559476 238.274469 
L 352.667695 237.836161 
L 352.775913 238.274749 
L 352.884131 237.836439 
L 352.992349 238.275025 
L 353.100567 237.836713 
L 353.208785 238.275298 
L 353.317004 237.836985 
L 353.425222 238.275567 
L 353.53344 237.837252 
L 353.641658 238.275833 
L 353.749876 237.837517 
L 353.858095 238.276096 
L 353.966313 237.837778 
L 354.074531 238.276355 
L 354.182749 237.838035 
L 354.290967 238.276611 
L 354.399185 237.83829 
L 354.507404 238.276864 
L 354.615622 237.838541 
L 354.72384 238.277114 
L 354.832058 237.838789 
L 354.940276 238.27736 
L 355.048495 237.839034 
L 355.156713 238.277603 
L 355.264931 237.839275 
L 355.373149 238.277843 
L 355.481367 237.839514 
L 355.589585 238.27808 
L 355.697804 237.839749 
L 355.806022 238.278314 
L 355.91424 237.839982 
L 356.022458 238.278545 
L 356.130676 237.840211 
L 356.238895 238.278773 
L 356.347113 237.840437 
L 356.455331 238.278998 
L 356.563549 237.840661 
L 356.671767 238.27922 
L 356.779985 237.840881 
L 356.888204 238.279439 
L 356.996422 237.841099 
L 357.10464 238.279655 
L 357.212858 237.841314 
L 357.321076 238.279868 
L 357.429295 237.841526 
L 357.537513 238.280079 
L 357.645731 237.841735 
L 357.753949 238.280287 
L 357.862167 237.841941 
L 357.970385 238.280491 
L 358.078604 237.842144 
L 358.186822 238.280694 
L 358.29504 237.842345 
L 358.403258 238.280893 
L 358.511476 237.842543 
L 358.619695 238.28109 
L 358.727913 237.842739 
L 358.836131 238.281284 
L 358.944349 237.842932 
L 359.052567 238.281475 
L 359.160785 237.843122 
L 359.269004 238.281664 
L 359.377222 237.843309 
L 359.48544 238.28185 
L 359.593658 237.843494 
L 359.701876 238.282034 
L 359.810095 237.843677 
L 359.918313 238.282215 
L 360.026531 237.843857 
L 360.134749 238.282394 
L 360.242967 237.844034 
L 360.351185 238.28257 
L 360.459404 237.844209 
L 360.567622 238.282744 
L 360.67584 237.844382 
L 360.784058 238.282915 
L 360.892276 237.844552 
L 361.000495 238.283085 
L 361.108713 237.84472 
L 361.216931 238.283251 
L 361.325149 237.844885 
L 361.433367 238.283416 
L 361.541585 237.845048 
L 361.649804 238.283578 
L 361.758022 237.845209 
L 361.86624 238.283737 
L 361.974458 237.845368 
L 362.082676 238.283895 
L 362.190895 237.845524 
L 362.299113 238.28405 
L 362.407331 237.845679 
L 362.515549 238.284203 
L 362.623767 237.845831 
L 362.731985 238.284354 
L 362.840204 237.84598 
L 362.948422 238.284503 
L 363.05664 237.846128 
L 363.164858 238.28465 
L 363.273076 237.846274 
L 363.381295 238.284794 
L 363.489513 237.846418 
L 363.597731 238.284937 
L 363.705949 237.846559 
L 363.814167 238.285078 
L 363.922385 237.846699 
L 364.030604 238.285216 
L 364.138822 237.846836 
L 364.24704 238.285353 
L 364.355258 237.846972 
L 364.463476 238.285487 
L 364.571695 237.847106 
L 364.679913 238.28562 
L 364.788131 237.847237 
L 364.896349 238.285751 
L 365.004567 237.847367 
L 365.112785 238.28588 
L 365.221004 237.847495 
L 365.329222 238.286007 
L 365.43744 237.847622 
L 365.545658 238.286133 
L 365.653876 237.847746 
L 365.762095 238.286256 
L 365.870313 237.847869 
L 365.978531 238.286378 
L 366.086749 237.84799 
L 366.194967 238.286498 
L 366.303185 237.848109 
L 366.411404 238.286616 
L 366.519622 237.848227 
L 366.62784 238.286733 
L 366.736058 237.848342 
L 366.844276 238.286848 
L 366.952495 237.848457 
L 367.060713 238.286962 
L 367.168931 237.848569 
L 367.277149 238.287073 
L 367.385367 237.84868 
L 367.493585 238.287184 
L 367.601804 237.84879 
L 367.710022 238.287292 
L 367.81824 237.848898 
L 367.926458 238.287399 
L 368.034676 237.849004 
L 368.142895 238.287505 
L 368.251113 237.849109 
L 368.359331 238.287609 
L 368.467549 237.849212 
L 368.575767 238.287712 
L 368.683985 237.849314 
L 368.792204 238.287813 
L 368.900422 237.849415 
L 369.00864 238.287913 
L 369.116858 237.849514 
L 369.225076 238.288011 
L 369.333295 237.849611 
L 369.441513 238.288108 
L 369.549731 237.849708 
L 369.657949 238.288204 
L 369.766167 237.849803 
L 369.874385 238.288298 
L 369.982604 237.849896 
L 370.090822 238.288391 
L 370.19904 237.849989 
L 370.307258 238.288483 
L 370.415476 237.85008 
L 370.523695 238.288573 
L 370.631913 237.850169 
L 370.740131 238.288662 
L 370.848349 237.850258 
L 370.956567 238.28875 
L 371.064785 237.850345 
L 371.173004 238.288837 
L 371.281222 237.850431 
L 371.38944 238.288922 
L 371.497658 237.850516 
L 371.605876 238.289007 
L 371.714095 237.8506 
L 371.822313 238.28909 
L 371.930531 237.850683 
L 372.038749 238.289172 
L 372.146967 237.850764 
L 372.255185 238.289253 
L 372.363404 237.850844 
L 372.471622 238.289333 
L 372.57984 237.850924 
L 372.688058 238.289411 
L 372.796276 237.851002 
L 372.904495 238.289489 
L 373.012713 237.851079 
L 373.120931 238.289565 
L 373.229149 237.851155 
L 373.337367 238.289641 
L 373.445585 237.85123 
L 373.553804 238.289715 
L 373.662022 237.851304 
L 373.77024 238.289789 
L 373.878458 237.851377 
L 373.986676 238.289861 
L 374.094895 237.851449 
L 374.203113 238.289933 
L 374.311331 237.85152 
L 374.419549 238.290003 
L 374.527767 237.85159 
L 374.635985 238.290073 
L 374.744204 237.851659 
L 374.852422 238.290141 
L 374.96064 237.851727 
L 375.068858 238.290209 
L 375.177076 237.851794 
L 375.285295 238.290276 
L 375.393513 237.851861 
L 375.501731 238.290342 
L 375.609949 237.851926 
L 375.718167 238.290407 
L 375.826385 237.851991 
L 375.934604 238.290471 
L 376.042822 237.852054 
L 376.15104 238.290534 
L 376.259258 237.852117 
L 376.367476 238.290596 
L 376.475695 237.852179 
L 376.583913 238.290658 
L 376.692131 237.85224 
L 376.800349 238.290719 
L 376.908567 237.8523 
L 377.016785 238.290779 
L 377.125004 237.85236 
L 377.233222 238.290838 
L 377.34144 237.852419 
L 377.449658 238.290896 
L 377.557876 237.852477 
L 377.666095 238.290954 
L 377.774313 237.852534 
L 377.882531 238.29101 
L 377.990749 237.85259 
L 378.098967 238.291066 
L 378.207185 237.852646 
L 378.315404 238.291122 
L 378.423622 237.8527 
L 378.53184 238.291176 
L 378.640058 237.852755 
L 378.748276 238.29123 
L 378.856495 237.852808 
L 378.964713 238.291283 
L 379.072931 237.852861 
L 379.181149 238.291335 
L 379.289367 237.852913 
L 379.397585 238.291387 
L 379.505804 237.852964 
L 379.614022 238.291438 
L 379.72224 237.853014 
L 379.830458 238.291488 
L 379.938676 237.853064 
L 380.046895 238.291537 
L 380.155113 237.853114 
L 380.263331 238.291586 
L 380.371549 237.853162 
L 380.479767 238.291635 
L 380.587985 237.85321 
L 380.696204 238.291682 
L 380.804422 237.853257 
L 380.91264 238.291729 
L 381.020858 237.853304 
L 381.129076 238.291775 
L 381.237295 237.85335 
L 381.345513 238.291821 
L 381.453731 237.853395 
L 381.561949 238.291866 
L 381.670167 237.85344 
L 381.778385 238.29191 
L 381.886604 237.853484 
L 381.994822 238.291954 
L 382.10304 237.853528 
L 382.211258 238.291998 
L 382.319476 237.853571 
L 382.427695 238.29204 
L 382.535913 237.853613 
L 382.644131 238.292082 
L 382.752349 237.853655 
L 382.860567 238.292124 
L 382.968785 237.853696 
L 383.077004 238.292165 
L 383.185222 237.853737 
L 383.29344 238.292205 
L 383.401658 237.853777 
L 383.509876 238.292245 
L 383.618095 237.853816 
L 383.726313 238.292284 
L 383.834531 237.853855 
L 383.942749 238.292323 
L 384.050967 237.853894 
L 384.159185 238.292361 
L 384.267404 237.853932 
L 384.375622 238.292399 
L 384.48384 237.853969 
L 384.592058 238.292436 
L 384.700276 237.854006 
L 384.808495 238.292473 
L 384.916713 237.854043 
L 385.024931 238.292509 
L 385.133149 237.854078 
L 385.241367 238.292545 
L 385.349585 237.854114 
L 385.457804 238.29258 
L 385.566022 237.854149 
L 385.67424 238.292614 
L 385.782458 237.854183 
L 385.890676 238.292649 
L 385.998895 237.854217 
L 386.107113 238.292682 
L 386.215331 237.854251 
L 386.323549 238.292716 
L 386.431767 237.854284 
L 386.539985 238.292749 
L 386.648204 237.854316 
L 386.756422 238.292781 
L 386.86464 237.854349 
L 386.972858 238.292813 
L 387.081076 237.85438 
L 387.189295 238.292844 
L 387.297513 237.854412 
L 387.405731 238.292875 
L 387.513949 237.854442 
L 387.622167 238.292906 
L 387.730385 237.854473 
L 387.838604 238.292936 
L 387.946822 237.854503 
L 388.05504 238.292966 
L 388.163258 237.854532 
L 388.271476 238.292995 
L 388.379695 237.854561 
L 388.487913 238.293024 
L 388.596131 237.85459 
L 388.704349 238.293053 
L 388.812567 237.854619 
L 388.920785 238.293081 
L 389.029004 237.854646 
L 389.137222 238.293109 
L 389.24544 237.854674 
L 389.353658 238.293136 
L 389.461876 237.854701 
L 389.570095 238.293163 
L 389.678313 237.854728 
L 389.786531 238.29319 
L 389.894749 237.854754 
L 390.002967 238.293216 
L 390.111185 237.854781 
L 390.219404 238.293242 
L 390.327622 237.854806 
L 390.43584 238.293267 
L 390.544058 237.854832 
L 390.652276 238.293292 
L 390.760495 237.854857 
L 390.868713 238.293317 
L 390.976931 237.854881 
L 391.085149 238.293342 
L 391.193367 237.854905 
L 391.301585 238.293366 
L 391.409804 237.854929 
L 391.518022 238.29339 
L 391.62624 237.854953 
L 391.734458 238.293413 
L 391.842676 237.854976 
L 391.950895 238.293436 
L 392.059113 237.854999 
L 392.167331 238.293459 
L 392.275549 237.855022 
L 392.383767 238.293482 
L 392.491985 237.855044 
L 392.600204 238.293504 
L 392.708422 237.855066 
L 392.81664 238.293526 
L 392.924858 237.855088 
L 393.033076 238.293547 
L 393.141295 237.85511 
L 393.249513 238.293569 
L 393.357731 237.855131 
L 393.465949 238.293589 
L 393.574167 237.855151 
L 393.682385 238.29361 
L 393.790604 237.855172 
L 393.898822 238.293631 
L 394.00704 237.855192 
L 394.115258 238.293651 
L 394.223476 237.855212 
L 394.331695 238.293671 
L 394.439913 237.855232 
L 394.548131 238.29369 
L 394.656349 237.855251 
L 394.764567 238.293709 
L 394.872785 237.855271 
L 394.981004 238.293728 
L 395.089222 237.855289 
L 395.19744 238.293747 
L 395.305658 237.855308 
L 395.413876 238.293766 
L 395.522095 237.855326 
L 395.630313 238.293784 
L 395.738531 237.855345 
L 395.846749 238.293802 
L 395.954967 237.855362 
L 396.063185 238.29382 
L 396.171404 237.85538 
L 396.279622 238.293837 
L 396.38784 237.855397 
L 396.496058 238.293854 
L 396.604276 237.855415 
L 396.712495 238.293871 
L 396.820713 237.855431 
L 396.928931 238.293888 
L 397.037149 237.855448 
L 397.145367 238.293905 
L 397.253585 237.855465 
L 397.361804 238.293921 
L 397.470022 237.855481 
L 397.57824 238.293937 
L 397.686458 237.855497 
L 397.794676 238.293953 
L 397.902895 237.855513 
L 398.011113 238.293969 
L 398.119331 237.855528 
L 398.227549 238.293984 
L 398.335767 237.855543 
L 398.443985 238.293999 
L 398.465629 237.855553 
L 398.487273 238.294002 
" clip-path="url(#p1f0d510967)" style="fill: none; stroke-dasharray: 9.6,2.4,1.5,2.4; stroke-dashoffset: 0; stroke: #ff0000; stroke-opacity: 0.5; stroke-width: 1.5"/>
   </g>
   <g id="line2d_36">
    <path d="M 73.832727 238.07587 
L 74.330531 238.192245 
L 74.893265 238.570769 
L 75.542575 239.291904 
L 76.343389 240.53823 
L 77.317353 242.489863 
L 78.55104 245.493856 
L 79.525004 247.760598 
L 80.412393 249.25645 
L 81.343069 250.399431 
L 82.338676 251.273821 
L 83.442502 251.946891 
L 84.719476 252.462247 
L 86.299462 252.851924 
L 88.420538 253.130296 
L 91.64544 253.304726 
L 98.008669 253.383214 
L 132.465338 253.38518 
L 232.242502 253.275383 
L 233.649338 252.934896 
L 235.618909 252.201976 
L 238.151215 251.024122 
L 248.843171 245.703885 
L 253.215185 243.855378 
L 256.87296 242.616299 
L 259.578415 241.906693 
L 264.751244 240.882987 
L 268.257513 240.392243 
L 274.361018 239.694282 
L 283.840931 239.020673 
L 299.2512 238.472344 
L 335.093062 238.120816 
L 347.061993 238.09711 
L 357.645731 238.086503 
L 368.835491 238.081234 
L 379.72224 238.078381 
L 390.738851 238.077275 
L 398.487273 238.076769 
L 398.487273 238.076769 
" clip-path="url(#p1f0d510967)" style="fill: none; stroke-dasharray: 5.55,2.4; stroke-dashoffset: 0; stroke: #008000; stroke-width: 1.5"/>
   </g>
   <g id="line2d_37">
    <path d="M 73.832727 53.568 
L 76.40832 53.677078 
L 77.945018 53.973169 
L 79.351855 54.472253 
L 81.104989 55.351534 
L 83.658938 56.905398 
L 88.07424 59.889851 
L 100.973847 68.979258 
L 236.203287 164.514036 
L 239.666269 166.600616 
L 242.956102 168.32536 
L 246.224291 169.788357 
L 249.514124 171.017238 
L 252.955462 172.063491 
L 256.678167 172.95929 
L 260.985251 173.75966 
L 266.071505 174.471294 
L 272.153367 175.091148 
L 279.382342 175.593291 
L 288.494313 175.993161 
L 300.571462 176.287876 
L 317.972945 176.471665 
L 350.351825 176.556056 
L 398.487273 176.567856 
L 398.487273 176.567856 
" clip-path="url(#p1f0d510967)" style="fill: none; stroke: #0000ff; stroke-width: 1.5; stroke-linecap: square"/>
   </g>
   <g id="patch_3">
    <path d="M 57.6 307.584 
L 57.6 41.472 
" style="fill: none; stroke: #000000; stroke-width: 0.8; stroke-linejoin: miter; stroke-linecap: square"/>
   </g>
   <g id="patch_4">
    <path d="M 414.72 307.584 
L 414.72 41.472 
" style="fill: none; stroke: #000000; stroke-width: 0.8; stroke-linejoin: miter; stroke-linecap: square"/>
   </g>
   <g id="patch_5">
    <path d="M 57.6 307.584 
L 414.72 307.584 
" style="fill: none; stroke: #000000; stroke-width: 0.8; stroke-linejoin: miter; stroke-linecap: square"/>
   </g>
   <g id="patch_6">
    <path d="M 57.6 41.472 
L 414.72 41.472 
" style="fill: none; stroke: #000000; stroke-width: 0.8; stroke-linejoin: miter; stroke-linecap: square"/>
   </g>
   <g id="text_20">
    <!-- l vs time -->
    <g transform="translate(210.447187 35.472)scale(0.12 -0.12)">
     <defs>
      <path id="DejaVuSans-76" d="M 191 3500 
L 800 3500 
L 1894 563 
L 2988 3500 
L 3597 3500 
L 2284 0 
L 1503 0 
L 191 3500 
z
" transform="scale(0.015625)"/>
     </defs>
     <use xlink:href="#DejaVuSans-6c"/>
     <use xlink:href="#DejaVuSans-20" x="27.783203"/>
     <use xlink:href="#DejaVuSans-76" x="59.570312"/>
     <use xlink:href="#DejaVuSans-73" x="118.75"/>
     <use xlink:href="#DejaVuSans-20" x="170.849609"/>
     <use xlink:href="#DejaVuSans-74" x="202.636719"/>
     <use xlink:href="#DejaVuSans-69" x="241.845703"/>
     <use xlink:href="#DejaVuSans-6d" x="269.628906"/>
     <use xlink:href="#DejaVuSans-65" x="367.041016"/>
    </g>
   </g>
   <g id="legend_1">
    <g id="patch_7">
     <path d="M 286.124687 94.062625 
L 407.72 94.062625 
Q 409.72 94.062625 409.72 92.062625 
L 409.72 48.472 
Q 409.72 46.472 407.72 46.472 
L 286.124687 46.472 
Q 284.124687 46.472 284.124687 48.472 
L 284.124687 92.062625 
Q 284.124687 94.062625 286.124687 94.062625 
z
" style="fill: #ffffff; opacity: 0.8; stroke: #cccccc; stroke-linejoin: miter"/>
    </g>
    <g id="line2d_38">
     <path d="M 288.124687 54.570437 
L 298.124687 54.570437 
L 308.124687 54.570437 
" style="fill: none; stroke-dasharray: 9.6,2.4,1.5,2.4; stroke-dashoffset: 0; stroke: #ff0000; stroke-opacity: 0.5; stroke-width: 1.5"/>
    </g>
    <g id="text_21">
     <!-- l_dot_dot (m/s^2) -->
     <g transform="translate(316.124687 58.070437)scale(0.1 -0.1)">
      <defs>
       <path id="DejaVuSans-5f" d="M 3263 -1063 
L 3263 -1509 
L -63 -1509 
L -63 -1063 
L 3263 -1063 
z
" transform="scale(0.015625)"/>
       <path id="DejaVuSans-64" d="M 2906 2969 
L 2906 4863 
L 3481 4863 
L 3481 0 
L 2906 0 
L 2906 525 
Q 2725 213 2448 61 
Q 2172 -91 1784 -91 
Q 1150 -91 751 415 
Q 353 922 353 1747 
Q 353 2572 751 3078 
Q 1150 3584 1784 3584 
Q 2172 3584 2448 3432 
Q 2725 3281 2906 2969 
z
M 947 1747 
Q 947 1113 1208 752 
Q 1469 391 1925 391 
Q 2381 391 2643 752 
Q 2906 1113 2906 1747 
Q 2906 2381 2643 2742 
Q 2381 3103 1925 3103 
Q 1469 3103 1208 2742 
Q 947 2381 947 1747 
z
" transform="scale(0.015625)"/>
       <path id="DejaVuSans-6f" d="M 1959 3097 
Q 1497 3097 1228 2736 
Q 959 2375 959 1747 
Q 959 1119 1226 758 
Q 1494 397 1959 397 
Q 2419 397 2687 759 
Q 2956 1122 2956 1747 
Q 2956 2369 2687 2733 
Q 2419 3097 1959 3097 
z
M 1959 3584 
Q 2709 3584 3137 3096 
Q 3566 2609 3566 1747 
Q 3566 888 3137 398 
Q 2709 -91 1959 -91 
Q 1206 -91 779 398 
Q 353 888 353 1747 
Q 353 2609 779 3096 
Q 1206 3584 1959 3584 
z
" transform="scale(0.015625)"/>
       <path id="DejaVuSans-2f" d="M 1625 4666 
L 2156 4666 
L 531 -594 
L 0 -594 
L 1625 4666 
z
" transform="scale(0.015625)"/>
       <path id="DejaVuSans-5e" d="M 2988 4666 
L 4684 2925 
L 4056 2925 
L 2681 4159 
L 1306 2925 
L 678 2925 
L 2375 4666 
L 2988 4666 
z
" transform="scale(0.015625)"/>
      </defs>
      <use xlink:href="#DejaVuSans-6c"/>
      <use xlink:href="#DejaVuSans-5f" x="27.783203"/>
      <use xlink:href="#DejaVuSans-64" x="77.783203"/>
      <use xlink:href="#DejaVuSans-6f" x="141.259766"/>
      <use xlink:href="#DejaVuSans-74" x="202.441406"/>
      <use xlink:href="#DejaVuSans-5f" x="241.650391"/>
      <use xlink:href="#DejaVuSans-64" x="291.650391"/>
      <use xlink:href="#DejaVuSans-6f" x="355.126953"/>
      <use xlink:href="#DejaVuSans-74" x="416.308594"/>
      <use xlink:href="#DejaVuSans-20" x="455.517578"/>
      <use xlink:href="#DejaVuSans-28" x="487.304688"/>
      <use xlink:href="#DejaVuSans-6d" x="526.318359"/>
      <use xlink:href="#DejaVuSans-2f" x="623.730469"/>
      <use xlink:href="#DejaVuSans-73" x="657.421875"/>
      <use xlink:href="#DejaVuSans-5e" x="709.521484"/>
      <use xlink:href="#DejaVuSans-32" x="793.310547"/>
      <use xlink:href="#DejaVuSans-29" x="856.933594"/>
     </g>
    </g>
    <g id="line2d_39">
     <path d="M 288.124687 69.526687 
L 298.124687 69.526687 
L 308.124687 69.526687 
" style="fill: none; stroke-dasharray: 5.55,2.4; stroke-dashoffset: 0; stroke: #008000; stroke-width: 1.5"/>
    </g>
    <g id="text_22">
     <!-- l_dot (m/s) -->
     <g transform="translate(316.124687 73.026687)scale(0.1 -0.1)">
      <use xlink:href="#DejaVuSans-6c"/>
      <use xlink:href="#DejaVuSans-5f" x="27.783203"/>
      <use xlink:href="#DejaVuSans-64" x="77.783203"/>
      <use xlink:href="#DejaVuSans-6f" x="141.259766"/>
      <use xlink:href="#DejaVuSans-74" x="202.441406"/>
      <use xlink:href="#DejaVuSans-20" x="241.650391"/>
      <use xlink:href="#DejaVuSans-28" x="273.4375"/>
      <use xlink:href="#DejaVuSans-6d" x="312.451172"/>
      <use xlink:href="#DejaVuSans-2f" x="409.863281"/>
      <use xlink:href="#DejaVuSans-73" x="443.554688"/>
      <use xlink:href="#DejaVuSans-29" x="495.654297"/>
     </g>
    </g>
    <g id="line2d_40">
     <path d="M 288.124687 84.482937 
L 298.124687 84.482937 
L 308.124687 84.482937 
" style="fill: none; stroke: #0000ff; stroke-width: 1.5; stroke-linecap: square"/>
    </g>
    <g id="text_23">
     <!-- l (m) -->
     <g transform="translate(316.124687 87.982937)scale(0.1 -0.1)">
      <use xlink:href="#DejaVuSans-6c"/>
      <use xlink:href="#DejaVuSans-20" x="27.783203"/>
      <use xlink:href="#DejaVuSans-28" x="59.570312"/>
      <use xlink:href="#DejaVuSans-6d" x="98.583984"/>
      <use xlink:href="#DejaVuSans-29" x="195.996094"/>
     </g>
    </g>
   </g>
  </g>
 </g>
 <defs>
  <clipPath id="p1f0d510967">
   <rect x="57.6" y="41.472" width="357.12" height="266.112"/>
  </clipPath>
 </defs>
</svg>
