<?xml version="1.0" encoding="utf-8" standalone="no"?>
<!DOCTYPE svg PUBLIC "-//W3C//DTD SVG 1.1//EN"
  "http://www.w3.org/Graphics/SVG/1.1/DTD/svg11.dtd">
<svg xmlns:xlink="http://www.w3.org/1999/xlink" width="460.8pt" height="345.6pt" viewBox="0 0 460.8 345.6" xmlns="http://www.w3.org/2000/svg" version="1.1">
 <metadata>
  <rdf:RDF xmlns:dc="http://purl.org/dc/elements/1.1/" xmlns:cc="http://creativecommons.org/ns#" xmlns:rdf="http://www.w3.org/1999/02/22-rdf-syntax-ns#">
   <cc:Work>
    <dc:type rdf:resource="http://purl.org/dc/dcmitype/StillImage"/>
    <dc:date>2023-08-23T18:02:10.764340</dc:date>
    <dc:format>image/svg+xml</dc:format>
    <dc:creator>
     <cc:Agent>
      <dc:title>Matplotlib v3.5.3, https://matplotlib.org/</dc:title>
     </cc:Agent>
    </dc:creator>
   </cc:Work>
  </rdf:RDF>
 </metadata>
 <defs>
  <style type="text/css">*{stroke-linejoin: round; stroke-linecap: butt}</style>
 </defs>
 <g id="figure_1">
  <g id="patch_1">
   <path d="M 0 345.6 
L 460.8 345.6 
L 460.8 0 
L 0 0 
L 0 345.6 
z
" style="fill: none"/>
  </g>
  <g id="axes_1">
   <g id="patch_2">
    <path d="M 57.6 307.584 
L 414.72 307.584 
L 414.72 41.472 
L 57.6 41.472 
L 57.6 307.584 
z
" style="fill: none"/>
   </g>
   <g id="matplotlib.axis_1">
    <g id="xtick_1">
     <g id="line2d_1">
      <path d="M 73.832727 307.584 
L 73.832727 41.472 
" clip-path="url(#p92c14d843b)" style="fill: none; stroke: #b0b0b0; stroke-width: 0.8; stroke-linecap: square"/>
     </g>
     <g id="line2d_2">
      <defs>
       <path id="m21fd1657c4" d="M 0 0 
L 0 3.5 
" style="stroke: #000000; stroke-width: 0.8"/>
      </defs>
      <g>
       <use xlink:href="#m21fd1657c4" x="73.832727" y="307.584" style="stroke: #000000; stroke-width: 0.8"/>
      </g>
     </g>
     <g id="text_1">
      <!-- 0 -->
      <g transform="translate(70.651477 322.182437)scale(0.1 -0.1)">
       <defs>
        <path id="DejaVuSans-30" d="M 2034 4250 
Q 1547 4250 1301 3770 
Q 1056 3291 1056 2328 
Q 1056 1369 1301 889 
Q 1547 409 2034 409 
Q 2525 409 2770 889 
Q 3016 1369 3016 2328 
Q 3016 3291 2770 3770 
Q 2525 4250 2034 4250 
z
M 2034 4750 
Q 2819 4750 3233 4129 
Q 3647 3509 3647 2328 
Q 3647 1150 3233 529 
Q 2819 -91 2034 -91 
Q 1250 -91 836 529 
Q 422 1150 422 2328 
Q 422 3509 836 4129 
Q 1250 4750 2034 4750 
z
" transform="scale(0.015625)"/>
       </defs>
       <use xlink:href="#DejaVuSans-30"/>
      </g>
     </g>
    </g>
    <g id="xtick_2">
     <g id="line2d_3">
      <path d="M 117.12 307.584 
L 117.12 41.472 
" clip-path="url(#p92c14d843b)" style="fill: none; stroke: #b0b0b0; stroke-width: 0.8; stroke-linecap: square"/>
     </g>
     <g id="line2d_4">
      <g>
       <use xlink:href="#m21fd1657c4" x="117.12" y="307.584" style="stroke: #000000; stroke-width: 0.8"/>
      </g>
     </g>
     <g id="text_2">
      <!-- 2 -->
      <g transform="translate(113.93875 322.182437)scale(0.1 -0.1)">
       <defs>
        <path id="DejaVuSans-32" d="M 1228 531 
L 3431 531 
L 3431 0 
L 469 0 
L 469 531 
Q 828 903 1448 1529 
Q 2069 2156 2228 2338 
Q 2531 2678 2651 2914 
Q 2772 3150 2772 3378 
Q 2772 3750 2511 3984 
Q 2250 4219 1831 4219 
Q 1534 4219 1204 4116 
Q 875 4013 500 3803 
L 500 4441 
Q 881 4594 1212 4672 
Q 1544 4750 1819 4750 
Q 2544 4750 2975 4387 
Q 3406 4025 3406 3419 
Q 3406 3131 3298 2873 
Q 3191 2616 2906 2266 
Q 2828 2175 2409 1742 
Q 1991 1309 1228 531 
z
" transform="scale(0.015625)"/>
       </defs>
       <use xlink:href="#DejaVuSans-32"/>
      </g>
     </g>
    </g>
    <g id="xtick_3">
     <g id="line2d_5">
      <path d="M 160.407273 307.584 
L 160.407273 41.472 
" clip-path="url(#p92c14d843b)" style="fill: none; stroke: #b0b0b0; stroke-width: 0.8; stroke-linecap: square"/>
     </g>
     <g id="line2d_6">
      <g>
       <use xlink:href="#m21fd1657c4" x="160.407273" y="307.584" style="stroke: #000000; stroke-width: 0.8"/>
      </g>
     </g>
     <g id="text_3">
      <!-- 4 -->
      <g transform="translate(157.226023 322.182437)scale(0.1 -0.1)">
       <defs>
        <path id="DejaVuSans-34" d="M 2419 4116 
L 825 1625 
L 2419 1625 
L 2419 4116 
z
M 2253 4666 
L 3047 4666 
L 3047 1625 
L 3713 1625 
L 3713 1100 
L 3047 1100 
L 3047 0 
L 2419 0 
L 2419 1100 
L 313 1100 
L 313 1709 
L 2253 4666 
z
" transform="scale(0.015625)"/>
       </defs>
       <use xlink:href="#DejaVuSans-34"/>
      </g>
     </g>
    </g>
    <g id="xtick_4">
     <g id="line2d_7">
      <path d="M 203.694545 307.584 
L 203.694545 41.472 
" clip-path="url(#p92c14d843b)" style="fill: none; stroke: #b0b0b0; stroke-width: 0.8; stroke-linecap: square"/>
     </g>
     <g id="line2d_8">
      <g>
       <use xlink:href="#m21fd1657c4" x="203.694545" y="307.584" style="stroke: #000000; stroke-width: 0.8"/>
      </g>
     </g>
     <g id="text_4">
      <!-- 6 -->
      <g transform="translate(200.513295 322.182437)scale(0.1 -0.1)">
       <defs>
        <path id="DejaVuSans-36" d="M 2113 2584 
Q 1688 2584 1439 2293 
Q 1191 2003 1191 1497 
Q 1191 994 1439 701 
Q 1688 409 2113 409 
Q 2538 409 2786 701 
Q 3034 994 3034 1497 
Q 3034 2003 2786 2293 
Q 2538 2584 2113 2584 
z
M 3366 4563 
L 3366 3988 
Q 3128 4100 2886 4159 
Q 2644 4219 2406 4219 
Q 1781 4219 1451 3797 
Q 1122 3375 1075 2522 
Q 1259 2794 1537 2939 
Q 1816 3084 2150 3084 
Q 2853 3084 3261 2657 
Q 3669 2231 3669 1497 
Q 3669 778 3244 343 
Q 2819 -91 2113 -91 
Q 1303 -91 875 529 
Q 447 1150 447 2328 
Q 447 3434 972 4092 
Q 1497 4750 2381 4750 
Q 2619 4750 2861 4703 
Q 3103 4656 3366 4563 
z
" transform="scale(0.015625)"/>
       </defs>
       <use xlink:href="#DejaVuSans-36"/>
      </g>
     </g>
    </g>
    <g id="xtick_5">
     <g id="line2d_9">
      <path d="M 246.981818 307.584 
L 246.981818 41.472 
" clip-path="url(#p92c14d843b)" style="fill: none; stroke: #b0b0b0; stroke-width: 0.8; stroke-linecap: square"/>
     </g>
     <g id="line2d_10">
      <g>
       <use xlink:href="#m21fd1657c4" x="246.981818" y="307.584" style="stroke: #000000; stroke-width: 0.8"/>
      </g>
     </g>
     <g id="text_5">
      <!-- 8 -->
      <g transform="translate(243.800568 322.182437)scale(0.1 -0.1)">
       <defs>
        <path id="DejaVuSans-38" d="M 2034 2216 
Q 1584 2216 1326 1975 
Q 1069 1734 1069 1313 
Q 1069 891 1326 650 
Q 1584 409 2034 409 
Q 2484 409 2743 651 
Q 3003 894 3003 1313 
Q 3003 1734 2745 1975 
Q 2488 2216 2034 2216 
z
M 1403 2484 
Q 997 2584 770 2862 
Q 544 3141 544 3541 
Q 544 4100 942 4425 
Q 1341 4750 2034 4750 
Q 2731 4750 3128 4425 
Q 3525 4100 3525 3541 
Q 3525 3141 3298 2862 
Q 3072 2584 2669 2484 
Q 3125 2378 3379 2068 
Q 3634 1759 3634 1313 
Q 3634 634 3220 271 
Q 2806 -91 2034 -91 
Q 1263 -91 848 271 
Q 434 634 434 1313 
Q 434 1759 690 2068 
Q 947 2378 1403 2484 
z
M 1172 3481 
Q 1172 3119 1398 2916 
Q 1625 2713 2034 2713 
Q 2441 2713 2670 2916 
Q 2900 3119 2900 3481 
Q 2900 3844 2670 4047 
Q 2441 4250 2034 4250 
Q 1625 4250 1398 4047 
Q 1172 3844 1172 3481 
z
" transform="scale(0.015625)"/>
       </defs>
       <use xlink:href="#DejaVuSans-38"/>
      </g>
     </g>
    </g>
    <g id="xtick_6">
     <g id="line2d_11">
      <path d="M 290.269091 307.584 
L 290.269091 41.472 
" clip-path="url(#p92c14d843b)" style="fill: none; stroke: #b0b0b0; stroke-width: 0.8; stroke-linecap: square"/>
     </g>
     <g id="line2d_12">
      <g>
       <use xlink:href="#m21fd1657c4" x="290.269091" y="307.584" style="stroke: #000000; stroke-width: 0.8"/>
      </g>
     </g>
     <g id="text_6">
      <!-- 10 -->
      <g transform="translate(283.906591 322.182437)scale(0.1 -0.1)">
       <defs>
        <path id="DejaVuSans-31" d="M 794 531 
L 1825 531 
L 1825 4091 
L 703 3866 
L 703 4441 
L 1819 4666 
L 2450 4666 
L 2450 531 
L 3481 531 
L 3481 0 
L 794 0 
L 794 531 
z
" transform="scale(0.015625)"/>
       </defs>
       <use xlink:href="#DejaVuSans-31"/>
       <use xlink:href="#DejaVuSans-30" x="63.623047"/>
      </g>
     </g>
    </g>
    <g id="xtick_7">
     <g id="line2d_13">
      <path d="M 333.556364 307.584 
L 333.556364 41.472 
" clip-path="url(#p92c14d843b)" style="fill: none; stroke: #b0b0b0; stroke-width: 0.8; stroke-linecap: square"/>
     </g>
     <g id="line2d_14">
      <g>
       <use xlink:href="#m21fd1657c4" x="333.556364" y="307.584" style="stroke: #000000; stroke-width: 0.8"/>
      </g>
     </g>
     <g id="text_7">
      <!-- 12 -->
      <g transform="translate(327.193864 322.182437)scale(0.1 -0.1)">
       <use xlink:href="#DejaVuSans-31"/>
       <use xlink:href="#DejaVuSans-32" x="63.623047"/>
      </g>
     </g>
    </g>
    <g id="xtick_8">
     <g id="line2d_15">
      <path d="M 376.843636 307.584 
L 376.843636 41.472 
" clip-path="url(#p92c14d843b)" style="fill: none; stroke: #b0b0b0; stroke-width: 0.8; stroke-linecap: square"/>
     </g>
     <g id="line2d_16">
      <g>
       <use xlink:href="#m21fd1657c4" x="376.843636" y="307.584" style="stroke: #000000; stroke-width: 0.8"/>
      </g>
     </g>
     <g id="text_8">
      <!-- 14 -->
      <g transform="translate(370.481136 322.182437)scale(0.1 -0.1)">
       <use xlink:href="#DejaVuSans-31"/>
       <use xlink:href="#DejaVuSans-34" x="63.623047"/>
      </g>
     </g>
    </g>
    <g id="text_9">
     <!-- time (s) -->
     <g transform="translate(216.768594 335.860562)scale(0.1 -0.1)">
      <defs>
       <path id="DejaVuSans-74" d="M 1172 4494 
L 1172 3500 
L 2356 3500 
L 2356 3053 
L 1172 3053 
L 1172 1153 
Q 1172 725 1289 603 
Q 1406 481 1766 481 
L 2356 481 
L 2356 0 
L 1766 0 
Q 1100 0 847 248 
Q 594 497 594 1153 
L 594 3053 
L 172 3053 
L 172 3500 
L 594 3500 
L 594 4494 
L 1172 4494 
z
" transform="scale(0.015625)"/>
       <path id="DejaVuSans-69" d="M 603 3500 
L 1178 3500 
L 1178 0 
L 603 0 
L 603 3500 
z
M 603 4863 
L 1178 4863 
L 1178 4134 
L 603 4134 
L 603 4863 
z
" transform="scale(0.015625)"/>
       <path id="DejaVuSans-6d" d="M 3328 2828 
Q 3544 3216 3844 3400 
Q 4144 3584 4550 3584 
Q 5097 3584 5394 3201 
Q 5691 2819 5691 2113 
L 5691 0 
L 5113 0 
L 5113 2094 
Q 5113 2597 4934 2840 
Q 4756 3084 4391 3084 
Q 3944 3084 3684 2787 
Q 3425 2491 3425 1978 
L 3425 0 
L 2847 0 
L 2847 2094 
Q 2847 2600 2669 2842 
Q 2491 3084 2119 3084 
Q 1678 3084 1418 2786 
Q 1159 2488 1159 1978 
L 1159 0 
L 581 0 
L 581 3500 
L 1159 3500 
L 1159 2956 
Q 1356 3278 1631 3431 
Q 1906 3584 2284 3584 
Q 2666 3584 2933 3390 
Q 3200 3197 3328 2828 
z
" transform="scale(0.015625)"/>
       <path id="DejaVuSans-65" d="M 3597 1894 
L 3597 1613 
L 953 1613 
Q 991 1019 1311 708 
Q 1631 397 2203 397 
Q 2534 397 2845 478 
Q 3156 559 3463 722 
L 3463 178 
Q 3153 47 2828 -22 
Q 2503 -91 2169 -91 
Q 1331 -91 842 396 
Q 353 884 353 1716 
Q 353 2575 817 3079 
Q 1281 3584 2069 3584 
Q 2775 3584 3186 3129 
Q 3597 2675 3597 1894 
z
M 3022 2063 
Q 3016 2534 2758 2815 
Q 2500 3097 2075 3097 
Q 1594 3097 1305 2825 
Q 1016 2553 972 2059 
L 3022 2063 
z
" transform="scale(0.015625)"/>
       <path id="DejaVuSans-20" transform="scale(0.015625)"/>
       <path id="DejaVuSans-28" d="M 1984 4856 
Q 1566 4138 1362 3434 
Q 1159 2731 1159 2009 
Q 1159 1288 1364 580 
Q 1569 -128 1984 -844 
L 1484 -844 
Q 1016 -109 783 600 
Q 550 1309 550 2009 
Q 550 2706 781 3412 
Q 1013 4119 1484 4856 
L 1984 4856 
z
" transform="scale(0.015625)"/>
       <path id="DejaVuSans-73" d="M 2834 3397 
L 2834 2853 
Q 2591 2978 2328 3040 
Q 2066 3103 1784 3103 
Q 1356 3103 1142 2972 
Q 928 2841 928 2578 
Q 928 2378 1081 2264 
Q 1234 2150 1697 2047 
L 1894 2003 
Q 2506 1872 2764 1633 
Q 3022 1394 3022 966 
Q 3022 478 2636 193 
Q 2250 -91 1575 -91 
Q 1294 -91 989 -36 
Q 684 19 347 128 
L 347 722 
Q 666 556 975 473 
Q 1284 391 1588 391 
Q 1994 391 2212 530 
Q 2431 669 2431 922 
Q 2431 1156 2273 1281 
Q 2116 1406 1581 1522 
L 1381 1569 
Q 847 1681 609 1914 
Q 372 2147 372 2553 
Q 372 3047 722 3315 
Q 1072 3584 1716 3584 
Q 2034 3584 2315 3537 
Q 2597 3491 2834 3397 
z
" transform="scale(0.015625)"/>
       <path id="DejaVuSans-29" d="M 513 4856 
L 1013 4856 
Q 1481 4119 1714 3412 
Q 1947 2706 1947 2009 
Q 1947 1309 1714 600 
Q 1481 -109 1013 -844 
L 513 -844 
Q 928 -128 1133 580 
Q 1338 1288 1338 2009 
Q 1338 2731 1133 3434 
Q 928 4138 513 4856 
z
" transform="scale(0.015625)"/>
      </defs>
      <use xlink:href="#DejaVuSans-74"/>
      <use xlink:href="#DejaVuSans-69" x="39.208984"/>
      <use xlink:href="#DejaVuSans-6d" x="66.992188"/>
      <use xlink:href="#DejaVuSans-65" x="164.404297"/>
      <use xlink:href="#DejaVuSans-20" x="225.927734"/>
      <use xlink:href="#DejaVuSans-28" x="257.714844"/>
      <use xlink:href="#DejaVuSans-73" x="296.728516"/>
      <use xlink:href="#DejaVuSans-29" x="348.828125"/>
     </g>
    </g>
   </g>
   <g id="matplotlib.axis_2">
    <g id="ytick_1">
     <g id="line2d_17">
      <path d="M 57.6 289.82023 
L 414.72 289.82023 
" clip-path="url(#p92c14d843b)" style="fill: none; stroke: #b0b0b0; stroke-width: 0.8; stroke-linecap: square"/>
     </g>
     <g id="line2d_18">
      <defs>
       <path id="m5e9bbea456" d="M 0 0 
L -3.5 0 
" style="stroke: #000000; stroke-width: 0.8"/>
      </defs>
      <g>
       <use xlink:href="#m5e9bbea456" x="57.6" y="289.82023" style="stroke: #000000; stroke-width: 0.8"/>
      </g>
     </g>
     <g id="text_10">
      <!-- −3 -->
      <g transform="translate(35.857813 293.619449)scale(0.1 -0.1)">
       <defs>
        <path id="DejaVuSans-2212" d="M 678 2272 
L 4684 2272 
L 4684 1741 
L 678 1741 
L 678 2272 
z
" transform="scale(0.015625)"/>
        <path id="DejaVuSans-33" d="M 2597 2516 
Q 3050 2419 3304 2112 
Q 3559 1806 3559 1356 
Q 3559 666 3084 287 
Q 2609 -91 1734 -91 
Q 1441 -91 1130 -33 
Q 819 25 488 141 
L 488 750 
Q 750 597 1062 519 
Q 1375 441 1716 441 
Q 2309 441 2620 675 
Q 2931 909 2931 1356 
Q 2931 1769 2642 2001 
Q 2353 2234 1838 2234 
L 1294 2234 
L 1294 2753 
L 1863 2753 
Q 2328 2753 2575 2939 
Q 2822 3125 2822 3475 
Q 2822 3834 2567 4026 
Q 2313 4219 1838 4219 
Q 1578 4219 1281 4162 
Q 984 4106 628 3988 
L 628 4550 
Q 988 4650 1302 4700 
Q 1616 4750 1894 4750 
Q 2613 4750 3031 4423 
Q 3450 4097 3450 3541 
Q 3450 3153 3228 2886 
Q 3006 2619 2597 2516 
z
" transform="scale(0.015625)"/>
       </defs>
       <use xlink:href="#DejaVuSans-2212"/>
       <use xlink:href="#DejaVuSans-33" x="83.789062"/>
      </g>
     </g>
    </g>
    <g id="ytick_2">
     <g id="line2d_19">
      <path d="M 57.6 249.196048 
L 414.72 249.196048 
" clip-path="url(#p92c14d843b)" style="fill: none; stroke: #b0b0b0; stroke-width: 0.8; stroke-linecap: square"/>
     </g>
     <g id="line2d_20">
      <g>
       <use xlink:href="#m5e9bbea456" x="57.6" y="249.196048" style="stroke: #000000; stroke-width: 0.8"/>
      </g>
     </g>
     <g id="text_11">
      <!-- −2 -->
      <g transform="translate(35.857813 252.995267)scale(0.1 -0.1)">
       <use xlink:href="#DejaVuSans-2212"/>
       <use xlink:href="#DejaVuSans-32" x="83.789062"/>
      </g>
     </g>
    </g>
    <g id="ytick_3">
     <g id="line2d_21">
      <path d="M 57.6 208.571866 
L 414.72 208.571866 
" clip-path="url(#p92c14d843b)" style="fill: none; stroke: #b0b0b0; stroke-width: 0.8; stroke-linecap: square"/>
     </g>
     <g id="line2d_22">
      <g>
       <use xlink:href="#m5e9bbea456" x="57.6" y="208.571866" style="stroke: #000000; stroke-width: 0.8"/>
      </g>
     </g>
     <g id="text_12">
      <!-- −1 -->
      <g transform="translate(35.857813 212.371085)scale(0.1 -0.1)">
       <use xlink:href="#DejaVuSans-2212"/>
       <use xlink:href="#DejaVuSans-31" x="83.789062"/>
      </g>
     </g>
    </g>
    <g id="ytick_4">
     <g id="line2d_23">
      <path d="M 57.6 167.947685 
L 414.72 167.947685 
" clip-path="url(#p92c14d843b)" style="fill: none; stroke: #b0b0b0; stroke-width: 0.8; stroke-linecap: square"/>
     </g>
     <g id="line2d_24">
      <g>
       <use xlink:href="#m5e9bbea456" x="57.6" y="167.947685" style="stroke: #000000; stroke-width: 0.8"/>
      </g>
     </g>
     <g id="text_13">
      <!-- 0 -->
      <g transform="translate(44.2375 171.746903)scale(0.1 -0.1)">
       <use xlink:href="#DejaVuSans-30"/>
      </g>
     </g>
    </g>
    <g id="ytick_5">
     <g id="line2d_25">
      <path d="M 57.6 127.323503 
L 414.72 127.323503 
" clip-path="url(#p92c14d843b)" style="fill: none; stroke: #b0b0b0; stroke-width: 0.8; stroke-linecap: square"/>
     </g>
     <g id="line2d_26">
      <g>
       <use xlink:href="#m5e9bbea456" x="57.6" y="127.323503" style="stroke: #000000; stroke-width: 0.8"/>
      </g>
     </g>
     <g id="text_14">
      <!-- 1 -->
      <g transform="translate(44.2375 131.122721)scale(0.1 -0.1)">
       <use xlink:href="#DejaVuSans-31"/>
      </g>
     </g>
    </g>
    <g id="ytick_6">
     <g id="line2d_27">
      <path d="M 57.6 86.699321 
L 414.72 86.699321 
" clip-path="url(#p92c14d843b)" style="fill: none; stroke: #b0b0b0; stroke-width: 0.8; stroke-linecap: square"/>
     </g>
     <g id="line2d_28">
      <g>
       <use xlink:href="#m5e9bbea456" x="57.6" y="86.699321" style="stroke: #000000; stroke-width: 0.8"/>
      </g>
     </g>
     <g id="text_15">
      <!-- 2 -->
      <g transform="translate(44.2375 90.498539)scale(0.1 -0.1)">
       <use xlink:href="#DejaVuSans-32"/>
      </g>
     </g>
    </g>
    <g id="ytick_7">
     <g id="line2d_29">
      <path d="M 57.6 46.075139 
L 414.72 46.075139 
" clip-path="url(#p92c14d843b)" style="fill: none; stroke: #b0b0b0; stroke-width: 0.8; stroke-linecap: square"/>
     </g>
     <g id="line2d_30">
      <g>
       <use xlink:href="#m5e9bbea456" x="57.6" y="46.075139" style="stroke: #000000; stroke-width: 0.8"/>
      </g>
     </g>
     <g id="text_16">
      <!-- 3 -->
      <g transform="translate(44.2375 49.874358)scale(0.1 -0.1)">
       <use xlink:href="#DejaVuSans-33"/>
      </g>
     </g>
    </g>
    <g id="text_17">
     <!-- theta -->
     <g transform="translate(29.778125 187.757688)rotate(-90)scale(0.1 -0.1)">
      <defs>
       <path id="DejaVuSans-68" d="M 3513 2113 
L 3513 0 
L 2938 0 
L 2938 2094 
Q 2938 2591 2744 2837 
Q 2550 3084 2163 3084 
Q 1697 3084 1428 2787 
Q 1159 2491 1159 1978 
L 1159 0 
L 581 0 
L 581 4863 
L 1159 4863 
L 1159 2956 
Q 1366 3272 1645 3428 
Q 1925 3584 2291 3584 
Q 2894 3584 3203 3211 
Q 3513 2838 3513 2113 
z
" transform="scale(0.015625)"/>
       <path id="DejaVuSans-61" d="M 2194 1759 
Q 1497 1759 1228 1600 
Q 959 1441 959 1056 
Q 959 750 1161 570 
Q 1363 391 1709 391 
Q 2188 391 2477 730 
Q 2766 1069 2766 1631 
L 2766 1759 
L 2194 1759 
z
M 3341 1997 
L 3341 0 
L 2766 0 
L 2766 531 
Q 2569 213 2275 61 
Q 1981 -91 1556 -91 
Q 1019 -91 701 211 
Q 384 513 384 1019 
Q 384 1609 779 1909 
Q 1175 2209 1959 2209 
L 2766 2209 
L 2766 2266 
Q 2766 2663 2505 2880 
Q 2244 3097 1772 3097 
Q 1472 3097 1187 3025 
Q 903 2953 641 2809 
L 641 3341 
Q 956 3463 1253 3523 
Q 1550 3584 1831 3584 
Q 2591 3584 2966 3190 
Q 3341 2797 3341 1997 
z
" transform="scale(0.015625)"/>
      </defs>
      <use xlink:href="#DejaVuSans-74"/>
      <use xlink:href="#DejaVuSans-68" x="39.208984"/>
      <use xlink:href="#DejaVuSans-65" x="102.587891"/>
      <use xlink:href="#DejaVuSans-74" x="164.111328"/>
      <use xlink:href="#DejaVuSans-61" x="203.320312"/>
     </g>
    </g>
   </g>
   <g id="line2d_31">
    <path d="M 73.832727 167.947685 
L 73.951767 167.847598 
L 74.135738 167.279018 
L 74.417105 165.523292 
L 74.817513 161.421828 
L 75.380247 153.09415 
L 78.031593 109.74504 
L 79.102953 97.034733 
L 80.087738 87.895258 
L 80.93184 82.011213 
L 81.64608 78.439567 
L 82.295389 76.311161 
L 82.771549 75.418421 
L 83.128669 75.115635 
L 83.453324 75.108467 
L 83.821265 75.407283 
L 84.178385 76.006005 
L 84.654545 77.268672 
L 85.173993 79.237741 
L 85.834124 82.599116 
L 86.699869 88.402495 
L 87.684655 96.788579 
L 88.78848 108.212285 
L 90.043811 123.439148 
L 91.732015 146.794136 
L 94.405004 187.474859 
L 97.402647 232.298294 
L 99.231535 256.059929 
L 100.497687 269.876424 
L 101.590691 279.681419 
L 102.488902 286.09759 
L 103.343825 290.709256 
L 104.058065 293.396044 
L 104.577513 294.673451 
L 105.086138 295.347665 
L 105.389149 295.48596 
L 105.757091 295.379009 
L 106.103389 295.003563 
L 106.482153 294.289693 
L 106.947491 292.987891 
L 107.585978 290.432605 
L 108.354327 286.202931 
L 109.209251 280.064786 
L 110.21568 271.014079 
L 111.449367 257.452544 
L 112.921135 238.199059 
L 114.457833 215.321798 
L 116.838633 176.605914 
L 120.128465 123.418741 
L 121.924887 98.025368 
L 123.255971 82.137912 
L 124.38144 71.121025 
L 125.322938 63.820693 
L 126.112931 59.146602 
L 126.827171 56.113796 
L 127.379084 54.566668 
L 127.876887 53.782084 
L 128.234007 53.573788 
L 128.54784 53.639634 
L 128.850851 53.921709 
L 129.229615 54.574206 
L 129.705775 55.867024 
L 130.344262 58.423698 
L 130.993571 61.963739 
L 131.826851 67.852218 
L 132.71424 75.699445 
L 133.753135 86.763674 
L 135.170793 104.751607 
L 136.696669 126.991603 
L 139.412945 170.629208 
L 142.572916 220.092419 
L 144.033862 239.657175 
L 145.289193 253.7648 
L 146.382196 263.603955 
L 147.280407 269.776315 
L 148.037935 273.547174 
L 148.589847 275.434668 
L 149.098473 276.514575 
L 149.488058 276.916822 
L 149.791069 276.966521 
L 150.018327 276.861676 
L 150.353804 276.464301 
L 150.851607 275.3595 
L 151.381876 273.517239 
L 152.063651 270.140095 
L 152.810356 265.196842 
L 153.795142 256.798246 
L 154.877324 245.275915 
L 156.143476 229.156048 
L 157.582778 208.122663 
L 159.703855 173.911637 
L 163.264233 117.201684 
L 164.833396 96.268705 
L 166.110371 82.424677 
L 167.084335 74.187612 
L 167.874327 69.144483 
L 168.556102 66.050888 
L 169.129658 64.373711 
L 169.61664 63.63789 
L 169.930473 63.495951 
L 170.276771 63.650253 
L 170.590604 64.062519 
L 170.969367 64.908759 
L 171.477993 66.648052 
L 172.094836 69.66597 
L 172.906473 75.108939 
L 173.772218 82.667067 
L 174.713716 92.778549 
L 176.033978 109.864168 
L 177.451636 131.172742 
L 179.616 167.120313 
L 182.494604 214.286353 
L 183.90144 234.166549 
L 185.102662 248.297174 
L 186.152378 257.986868 
L 186.964015 263.559549 
L 187.570036 266.572695 
L 188.176058 268.538464 
L 188.652218 269.330693 
L 188.987695 269.488994 
L 189.214953 269.410871 
L 189.582895 268.960276 
L 189.885905 268.285294 
L 190.275491 267.035216 
L 190.892335 264.132939 
L 191.52 260.085611 
L 192.418211 252.440413 
L 193.359709 242.23154 
L 194.496 227.31343 
L 195.967767 204.590339 
L 197.915695 170.989283 
L 200.783476 121.772504 
L 202.309353 99.524891 
L 203.369891 86.909955 
L 204.278924 78.384333 
L 205.014807 73.211634 
L 205.631651 70.158714 
L 206.194385 68.430894 
L 206.605615 67.822476 
L 206.87616 67.722767 
L 207.125062 67.845086 
L 207.406429 68.233251 
L 207.763549 69.10191 
L 208.218065 70.82174 
L 208.705047 73.421359 
L 209.386822 78.323962 
L 210.263389 86.706214 
L 211.129135 97.090151 
L 212.254604 113.319085 
L 213.769658 138.914909 
L 216.074705 181.886303 
L 218.109207 218.28583 
L 219.386182 237.790753 
L 220.435898 250.852276 
L 221.312465 259.236471 
L 221.972596 263.875425 
L 222.513687 266.513461 
L 223.054778 268.076945 
L 223.476829 268.534638 
L 223.736553 268.464309 
L 223.952989 268.211296 
L 224.212713 267.674466 
L 224.688873 266.021269 
L 225.305716 262.595698 
L 226.052422 256.578246 
L 226.950633 246.768449 
L 227.902953 233.574088 
L 229.114996 213.315107 
L 230.694982 182.838753 
L 234.168785 113.934102 
L 235.402473 93.914207 
L 236.333149 82.139886 
L 236.668625 80.330449 
L 236.841775 80.172284 
L 236.863418 80.184684 
L 237.025745 80.49866 
L 237.220538 81.405177 
L 237.577658 84.383831 
L 237.988887 89.70362 
L 238.627375 101.135716 
L 239.558051 122.566604 
L 243.399796 214.778239 
L 244.222255 227.442013 
L 244.979782 235.733797 
L 245.542516 239.778875 
L 246.072785 241.969838 
L 246.473193 242.592662 
L 246.667985 242.627374 
L 247.003462 242.17157 
L 247.295651 241.408358 
L 247.70688 239.604009 
L 248.18304 236.704842 
L 249.005498 229.79075 
L 249.925353 219.902183 
L 251.321367 202.121566 
L 254.005178 167.501693 
L 255.044073 156.272534 
L 256.202007 146.035833 
L 257.165149 139.592164 
L 257.987607 135.605349 
L 258.507055 133.791514 
L 259.25376 132.030454 
L 259.946356 131.231963 
L 260.303476 131.103287 
L 260.790458 131.236613 
L 261.623738 132.119699 
L 262.792495 134.469333 
L 263.311942 135.818576 
L 268.106007 150.34133 
L 269.783389 154.255553 
L 271.114473 156.564359 
L 272.023505 157.811181 
L 273.430342 159.17385 
L 274.350196 159.659454 
L 275.995113 160.513404 
L 276.590313 160.623667 
L 277.012364 160.667619 
L 277.520989 160.684692 
L 280.399593 161.338115 
L 280.864931 161.372852 
L 281.330269 161.410874 
L 281.719855 161.45343 
L 282.206836 161.719472 
L 282.737105 161.959374 
L 283.213265 162.146173 
L 283.678604 162.309527 
L 284.143942 162.451098 
L 284.630924 162.592522 
L 285.074618 162.70898 
L 285.5616 162.838364 
L 286.005295 162.949839 
L 286.492276 163.079142 
L 286.914327 163.188628 
L 287.790895 163.770766 
L 288.288698 164.059927 
L 288.77568 164.308664 
L 289.284305 164.529035 
L 289.760465 164.710986 
L 290.225804 164.870086 
L 290.691142 165.005689 
L 291.15648 165.131731 
L 291.621818 165.239816 
L 292.087156 165.343312 
L 292.530851 165.429102 
L 292.996189 165.518597 
L 293.439884 165.59411 
L 293.905222 165.675598 
L 294.348916 165.745706 
L 294.814255 165.823464 
L 295.257949 165.891508 
L 295.723287 165.968326 
L 296.166982 166.036344 
L 296.63232 166.11377 
L 297.076015 166.182734 
L 297.541353 166.261321 
L 297.985047 166.331374 
L 301.015156 167.486021 
L 301.502138 167.555117 
L 301.924189 167.598587 
L 302.411171 167.621468 
L 302.833222 167.630806 
L 303.29856 167.621383 
L 303.720611 167.607899 
L 304.185949 167.578471 
L 304.608 167.55117 
L 305.073338 167.510864 
L 305.517033 167.47538 
L 305.982371 167.431659 
L 306.426065 167.396019 
L 306.86976 167.356659 
L 307.313455 167.325651 
L 307.757149 167.292726 
L 308.200844 167.269613 
L 308.644538 167.245713 
L 309.088233 167.232449 
L 309.531927 167.218941 
L 309.997265 167.21623 
L 310.44096 167.213707 
L 310.906298 167.222339 
L 311.349993 167.230267 
L 311.815331 167.249303 
L 312.259025 167.266481 
L 312.724364 167.294398 
L 313.168058 167.319174 
L 313.633396 167.35408 
L 314.077091 167.384544 
L 314.542429 167.424369 
L 314.986124 167.458523 
L 315.451462 167.501183 
L 315.895156 167.53708 
L 316.360495 167.580607 
L 316.804189 167.616463 
L 317.269527 167.659103 
L 317.713222 167.693374 
L 318.17856 167.733655 
L 318.622255 167.765088 
L 319.065949 167.800324 
L 319.509644 167.828079 
L 319.953338 167.859301 
L 320.397033 167.882777 
L 320.840727 167.909527 
L 321.284422 167.928404 
L 321.728116 167.950492 
L 322.171811 167.964701 
L 322.615505 167.982171 
L 323.0592 167.99186 
L 323.502895 168.004952 
L 323.946589 168.010444 
L 324.390284 168.019553 
L 324.833978 168.021301 
L 325.277673 168.02693 
L 325.721367 168.025479 
L 326.165062 168.0282 
L 326.608756 168.02414 
L 327.052451 168.024554 
L 327.496145 168.018489 
L 327.93984 168.017196 
L 328.383535 168.009712 
L 328.827229 168.007278 
L 329.270924 167.998918 
L 329.714618 167.995857 
L 330.158313 167.987103 
L 330.602007 167.983863 
L 331.045702 167.975123 
L 331.489396 167.972073 
L 331.933091 167.963678 
L 332.376785 167.961106 
L 332.82048 167.953303 
L 333.264175 167.951419 
L 333.707869 167.944377 
L 334.151564 167.943312 
L 334.595258 167.937129 
L 335.038953 167.936947 
L 335.482647 167.931656 
L 335.926342 167.932362 
L 336.370036 167.927943 
L 336.813731 167.929493 
L 337.257425 167.925883 
L 337.70112 167.928198 
L 338.144815 167.925301 
L 338.588509 167.928274 
L 339.032204 167.925975 
L 339.475898 167.929483 
L 339.919593 167.927656 
L 340.363287 167.931571 
L 340.806982 167.930086 
L 341.250676 167.934279 
L 341.694371 167.933012 
L 342.138065 167.937365 
L 342.58176 167.936201 
L 343.025455 167.940605 
L 343.469149 167.939445 
L 343.912844 167.94381 
L 344.356538 167.94257 
L 344.800233 167.946821 
L 345.243927 167.945438 
L 345.687622 167.949521 
L 346.131316 167.947948 
L 346.575011 167.951825 
L 347.018705 167.950034 
L 347.4624 167.953684 
L 347.906095 167.951662 
L 348.349789 167.95508 
L 348.793484 167.952828 
L 349.237178 167.956021 
L 349.680873 167.953552 
L 350.124567 167.956537 
L 350.568262 167.953872 
L 351.011956 167.956674 
L 351.455651 167.953839 
L 351.899345 167.956487 
L 352.34304 167.953513 
L 352.786735 167.956039 
L 353.230429 167.95296 
L 353.674124 167.955397 
L 354.117818 167.952244 
L 354.561513 167.954622 
L 355.005207 167.951426 
L 355.448902 167.953775 
L 355.892596 167.950562 
L 356.336291 167.952906 
L 356.779985 167.949699 
L 357.22368 167.95206 
L 357.667375 167.948879 
L 358.111069 167.951273 
L 358.554764 167.948131 
L 358.998458 167.95057 
L 359.442153 167.947477 
L 359.885847 167.949968 
L 360.329542 167.946931 
L 360.773236 167.949478 
L 361.216931 167.946497 
L 361.660625 167.949101 
L 362.10432 167.946176 
L 362.548015 167.948834 
L 362.991709 167.94596 
L 363.435404 167.948668 
L 363.879098 167.94584 
L 364.322793 167.94859 
L 364.766487 167.945802 
L 365.210182 167.948587 
L 365.653876 167.945831 
L 366.097571 167.948644 
L 366.541265 167.945911 
L 366.98496 167.948745 
L 367.428655 167.946028 
L 367.872349 167.948874 
L 368.316044 167.946167 
L 368.759738 167.949019 
L 369.203433 167.946316 
L 369.647127 167.949168 
L 370.090822 167.946462 
L 370.534516 167.949311 
L 370.978211 167.946599 
L 371.421905 167.94944 
L 371.8656 167.946718 
L 372.309295 167.949549 
L 372.752989 167.946817 
L 373.196684 167.949636 
L 373.640378 167.946891 
L 374.084073 167.949698 
L 374.527767 167.946941 
L 374.971462 167.949735 
L 375.415156 167.946967 
L 375.858851 167.94975 
L 376.302545 167.946971 
L 376.74624 167.949744 
L 377.189935 167.946955 
L 377.633629 167.949719 
L 378.077324 167.946923 
L 378.521018 167.949681 
L 378.964713 167.946879 
L 379.408407 167.949631 
L 379.852102 167.946825 
L 380.295796 167.949575 
L 380.739491 167.946766 
L 381.183185 167.949514 
L 381.62688 167.946705 
L 382.070575 167.949453 
L 382.514269 167.946644 
L 382.957964 167.949394 
L 383.401658 167.946586 
L 383.845353 167.949338 
L 384.289047 167.946533 
L 384.732742 167.949287 
L 385.176436 167.946486 
L 385.620131 167.949243 
L 386.063825 167.946445 
L 386.50752 167.949206 
L 386.951215 167.946411 
L 387.394909 167.949176 
L 387.838604 167.946385 
L 388.282298 167.949153 
L 388.725993 167.946365 
L 389.169687 167.949136 
L 389.613382 167.946351 
L 390.057076 167.949125 
L 390.500771 167.946342 
L 390.944465 167.949118 
L 391.38816 167.946338 
L 391.831855 167.949116 
L 392.275549 167.946338 
L 392.719244 167.949117 
L 393.162938 167.94634 
L 393.606633 167.94912 
L 394.050327 167.946343 
L 394.494022 167.949124 
L 394.937716 167.946348 
L 395.381411 167.949129 
L 395.825105 167.946353 
L 396.2688 167.949134 
L 396.712495 167.946358 
L 397.156189 167.949138 
L 397.599884 167.946362 
L 398.043578 167.949142 
L 398.487273 167.946365 
L 398.487273 167.946365 
" clip-path="url(#p92c14d843b)" style="fill: none; stroke-dasharray: 5.55,2.4; stroke-dashoffset: 0; stroke: #ff0000; stroke-width: 1.5"/>
   </g>
   <g id="line2d_32">
    <path d="M 73.832727 167.947685 
L 74.839156 167.837098 
L 75.434356 167.530986 
L 76.007913 166.970778 
L 76.668044 165.985628 
L 77.447215 164.39537 
L 78.388713 161.93034 
L 79.535825 158.255829 
L 80.996771 152.770466 
L 83.280175 143.202555 
L 86.28864 130.780232 
L 87.846982 125.280209 
L 89.091491 121.653041 
L 90.141207 119.237557 
L 91.039418 117.695785 
L 91.807767 116.789848 
L 92.467898 116.329834 
L 93.063098 116.174513 
L 93.625833 116.257916 
L 94.199389 116.575458 
L 94.827055 117.192744 
L 95.530473 118.218085 
L 96.320465 119.78406 
L 97.218676 122.082416 
L 98.246749 125.357177 
L 99.426327 129.897728 
L 100.800698 136.116412 
L 102.488902 144.851389 
L 104.902167 158.64729 
L 108.917062 181.591553 
L 110.648553 190.14427 
L 112.044567 195.983985 
L 113.224145 200.021681 
L 114.241396 202.763539 
L 115.128785 204.555198 
L 115.897135 205.635409 
L 116.557265 206.205964 
L 117.141644 206.432421 
L 117.682735 206.408158 
L 118.234647 206.152577 
L 118.829847 205.618314 
L 119.5008 204.70009 
L 120.269149 203.249001 
L 121.156538 201.065879 
L 122.173789 197.939615 
L 123.364189 193.523292 
L 124.792669 187.320481 
L 126.664844 178.115881 
L 132.519447 148.591312 
L 133.969571 142.787241 
L 135.170793 138.845402 
L 136.198865 136.191925 
L 137.075433 134.500867 
L 137.83296 133.485274 
L 138.493091 132.947269 
L 139.077469 132.744624 
L 139.61856 132.787281 
L 140.170473 133.058499 
L 140.776495 133.618706 
L 141.458269 134.571332 
L 142.23744 136.0655 
L 143.135651 138.298487 
L 144.174545 141.511309 
L 145.397411 146.056507 
L 146.901644 152.56275 
L 149.011898 162.784868 
L 152.972684 182.06874 
L 154.531025 188.476781 
L 155.786356 192.756909 
L 156.846895 195.632014 
L 157.755927 197.495023 
L 158.535098 198.620246 
L 159.206051 199.22725 
L 159.790429 199.477587 
L 160.33152 199.476501 
L 160.872611 199.251676 
L 161.456989 198.759753 
L 162.11712 197.89806 
L 162.874647 196.521305 
L 163.751215 194.436192 
L 164.768465 191.40603 
L 165.969687 187.086975 
L 167.463098 180.826292 
L 169.659927 170.532395 
L 172.94976 155.216294 
L 174.475636 149.182586 
L 175.698502 145.200918 
L 176.715753 142.593131 
L 177.59232 140.919101 
L 178.339025 139.939788 
L 178.977513 139.440663 
L 179.540247 139.263932 
L 180.070516 139.324684 
L 180.622429 139.621583 
L 181.228451 140.219199 
L 181.910225 141.223888 
L 182.700218 142.811517 
L 183.609251 145.166533 
L 184.680611 148.59646 
L 185.979229 153.550043 
L 187.699898 161.068864 
L 192.515607 182.62104 
L 193.835869 187.270283 
L 194.918051 190.314297 
L 195.827084 192.249892 
L 196.595433 193.403325 
L 197.255564 194.0233 
L 197.82912 194.276242 
L 198.359389 194.27082 
L 198.889658 194.035287 
L 199.463215 193.523577 
L 200.112524 192.628191 
L 200.859229 191.198035 
L 201.735796 189.004787 
L 202.763869 185.792969 
L 204.008378 181.129642 
L 205.674938 173.941809 
L 210.176815 154.072909 
L 211.442967 149.704313 
L 212.47104 146.90115 
L 213.336785 145.143031 
L 214.061847 144.132271 
L 214.678691 143.620232 
L 215.219782 143.441051 
L 215.728407 143.505023 
L 216.247855 143.802873 
L 216.821411 144.402016 
L 217.481542 145.434471 
L 218.249891 147.078557 
L 219.148102 149.55988 
L 220.219462 153.212531 
L 221.572189 158.676237 
L 223.704087 168.362688 
L 226.16064 179.249552 
L 227.491724 184.171718 
L 228.54144 187.259861 
L 229.407185 189.169006 
L 230.132247 190.275535 
L 230.749091 190.842214 
L 231.27936 191.045273 
L 231.766342 190.997228 
L 232.264145 190.715647 
L 232.816058 190.131268 
L 233.454545 189.106431 
L 234.201251 187.454122 
L 235.077818 184.93771 
L 236.138356 181.170997 
L 238.865455 171.034342 
L 239.655447 169.120741 
L 240.293935 168.10327 
L 240.824204 167.635712 
L 241.27872 167.506819 
L 241.711593 167.611642 
L 242.187753 167.972701 
L 242.739665 168.692933 
L 243.410618 169.960253 
L 244.25472 172.062029 
L 245.401833 175.567552 
L 249.698095 189.297078 
L 250.736989 191.613475 
L 251.6352 193.102105 
L 252.425193 194.003244 
L 253.128611 194.486014 
L 253.77792 194.672786 
L 254.416407 194.627002 
L 255.098182 194.350816 
L 255.866531 193.787235 
L 256.775564 192.830556 
L 257.922676 191.27934 
L 259.589236 188.609486 
L 263.550022 182.15765 
L 265.227404 179.916414 
L 266.764102 178.223787 
L 268.3008 176.859735 
L 269.924073 175.721551 
L 271.75296 174.721211 
L 273.971433 173.767781 
L 277.2288 172.61198 
L 282.174371 171.06739 
L 285.875433 170.115971 
L 289.25184 169.445374 
L 293.288378 168.918381 
L 298.688465 168.437112 
L 302.378705 168.326869 
L 312.269847 168.066398 
L 320.223884 167.927384 
L 348.631156 167.94466 
L 398.487273 167.947638 
L 398.487273 167.947638 
" clip-path="url(#p92c14d843b)" style="fill: none; stroke: #008000; stroke-width: 1.5; stroke-linecap: square"/>
   </g>
   <g id="patch_3">
    <path d="M 57.6 307.584 
L 57.6 41.472 
" style="fill: none; stroke: #000000; stroke-width: 0.8; stroke-linejoin: miter; stroke-linecap: square"/>
   </g>
   <g id="patch_4">
    <path d="M 414.72 307.584 
L 414.72 41.472 
" style="fill: none; stroke: #000000; stroke-width: 0.8; stroke-linejoin: miter; stroke-linecap: square"/>
   </g>
   <g id="patch_5">
    <path d="M 57.6 307.584 
L 414.72 307.584 
" style="fill: none; stroke: #000000; stroke-width: 0.8; stroke-linejoin: miter; stroke-linecap: square"/>
   </g>
   <g id="patch_6">
    <path d="M 57.6 41.472 
L 414.72 41.472 
" style="fill: none; stroke: #000000; stroke-width: 0.8; stroke-linejoin: miter; stroke-linecap: square"/>
   </g>
   <g id="text_18">
    <!-- theta vs time -->
    <g transform="translate(196.238438 35.472)scale(0.12 -0.12)">
     <defs>
      <path id="DejaVuSans-76" d="M 191 3500 
L 800 3500 
L 1894 563 
L 2988 3500 
L 3597 3500 
L 2284 0 
L 1503 0 
L 191 3500 
z
" transform="scale(0.015625)"/>
     </defs>
     <use xlink:href="#DejaVuSans-74"/>
     <use xlink:href="#DejaVuSans-68" x="39.208984"/>
     <use xlink:href="#DejaVuSans-65" x="102.587891"/>
     <use xlink:href="#DejaVuSans-74" x="164.111328"/>
     <use xlink:href="#DejaVuSans-61" x="203.320312"/>
     <use xlink:href="#DejaVuSans-20" x="264.599609"/>
     <use xlink:href="#DejaVuSans-76" x="296.386719"/>
     <use xlink:href="#DejaVuSans-73" x="355.566406"/>
     <use xlink:href="#DejaVuSans-20" x="407.666016"/>
     <use xlink:href="#DejaVuSans-74" x="439.453125"/>
     <use xlink:href="#DejaVuSans-69" x="478.662109"/>
     <use xlink:href="#DejaVuSans-6d" x="506.445312"/>
     <use xlink:href="#DejaVuSans-65" x="603.857422"/>
    </g>
   </g>
   <g id="legend_1">
    <g id="patch_7">
     <path d="M 273.271563 79.106375 
L 407.72 79.106375 
Q 409.72 79.106375 409.72 77.106375 
L 409.72 48.472 
Q 409.72 46.472 407.72 46.472 
L 273.271563 46.472 
Q 271.271563 46.472 271.271563 48.472 
L 271.271563 77.106375 
Q 271.271563 79.106375 273.271563 79.106375 
z
" style="fill: #ffffff; opacity: 0.8; stroke: #cccccc; stroke-linejoin: miter"/>
    </g>
    <g id="line2d_33">
     <path d="M 275.271563 54.570438 
L 285.271563 54.570438 
L 295.271563 54.570438 
" style="fill: none; stroke-dasharray: 5.55,2.4; stroke-dashoffset: 0; stroke: #ff0000; stroke-width: 1.5"/>
    </g>
    <g id="text_19">
     <!-- theta_dot (degree/s) -->
     <g transform="translate(303.271563 58.070438)scale(0.1 -0.1)">
      <defs>
       <path id="DejaVuSans-5f" d="M 3263 -1063 
L 3263 -1509 
L -63 -1509 
L -63 -1063 
L 3263 -1063 
z
" transform="scale(0.015625)"/>
       <path id="DejaVuSans-64" d="M 2906 2969 
L 2906 4863 
L 3481 4863 
L 3481 0 
L 2906 0 
L 2906 525 
Q 2725 213 2448 61 
Q 2172 -91 1784 -91 
Q 1150 -91 751 415 
Q 353 922 353 1747 
Q 353 2572 751 3078 
Q 1150 3584 1784 3584 
Q 2172 3584 2448 3432 
Q 2725 3281 2906 2969 
z
M 947 1747 
Q 947 1113 1208 752 
Q 1469 391 1925 391 
Q 2381 391 2643 752 
Q 2906 1113 2906 1747 
Q 2906 2381 2643 2742 
Q 2381 3103 1925 3103 
Q 1469 3103 1208 2742 
Q 947 2381 947 1747 
z
" transform="scale(0.015625)"/>
       <path id="DejaVuSans-6f" d="M 1959 3097 
Q 1497 3097 1228 2736 
Q 959 2375 959 1747 
Q 959 1119 1226 758 
Q 1494 397 1959 397 
Q 2419 397 2687 759 
Q 2956 1122 2956 1747 
Q 2956 2369 2687 2733 
Q 2419 3097 1959 3097 
z
M 1959 3584 
Q 2709 3584 3137 3096 
Q 3566 2609 3566 1747 
Q 3566 888 3137 398 
Q 2709 -91 1959 -91 
Q 1206 -91 779 398 
Q 353 888 353 1747 
Q 353 2609 779 3096 
Q 1206 3584 1959 3584 
z
" transform="scale(0.015625)"/>
       <path id="DejaVuSans-67" d="M 2906 1791 
Q 2906 2416 2648 2759 
Q 2391 3103 1925 3103 
Q 1463 3103 1205 2759 
Q 947 2416 947 1791 
Q 947 1169 1205 825 
Q 1463 481 1925 481 
Q 2391 481 2648 825 
Q 2906 1169 2906 1791 
z
M 3481 434 
Q 3481 -459 3084 -895 
Q 2688 -1331 1869 -1331 
Q 1566 -1331 1297 -1286 
Q 1028 -1241 775 -1147 
L 775 -588 
Q 1028 -725 1275 -790 
Q 1522 -856 1778 -856 
Q 2344 -856 2625 -561 
Q 2906 -266 2906 331 
L 2906 616 
Q 2728 306 2450 153 
Q 2172 0 1784 0 
Q 1141 0 747 490 
Q 353 981 353 1791 
Q 353 2603 747 3093 
Q 1141 3584 1784 3584 
Q 2172 3584 2450 3431 
Q 2728 3278 2906 2969 
L 2906 3500 
L 3481 3500 
L 3481 434 
z
" transform="scale(0.015625)"/>
       <path id="DejaVuSans-72" d="M 2631 2963 
Q 2534 3019 2420 3045 
Q 2306 3072 2169 3072 
Q 1681 3072 1420 2755 
Q 1159 2438 1159 1844 
L 1159 0 
L 581 0 
L 581 3500 
L 1159 3500 
L 1159 2956 
Q 1341 3275 1631 3429 
Q 1922 3584 2338 3584 
Q 2397 3584 2469 3576 
Q 2541 3569 2628 3553 
L 2631 2963 
z
" transform="scale(0.015625)"/>
       <path id="DejaVuSans-2f" d="M 1625 4666 
L 2156 4666 
L 531 -594 
L 0 -594 
L 1625 4666 
z
" transform="scale(0.015625)"/>
      </defs>
      <use xlink:href="#DejaVuSans-74"/>
      <use xlink:href="#DejaVuSans-68" x="39.208984"/>
      <use xlink:href="#DejaVuSans-65" x="102.587891"/>
      <use xlink:href="#DejaVuSans-74" x="164.111328"/>
      <use xlink:href="#DejaVuSans-61" x="203.320312"/>
      <use xlink:href="#DejaVuSans-5f" x="264.599609"/>
      <use xlink:href="#DejaVuSans-64" x="314.599609"/>
      <use xlink:href="#DejaVuSans-6f" x="378.076172"/>
      <use xlink:href="#DejaVuSans-74" x="439.257812"/>
      <use xlink:href="#DejaVuSans-20" x="478.466797"/>
      <use xlink:href="#DejaVuSans-28" x="510.253906"/>
      <use xlink:href="#DejaVuSans-64" x="549.267578"/>
      <use xlink:href="#DejaVuSans-65" x="612.744141"/>
      <use xlink:href="#DejaVuSans-67" x="674.267578"/>
      <use xlink:href="#DejaVuSans-72" x="737.744141"/>
      <use xlink:href="#DejaVuSans-65" x="776.607422"/>
      <use xlink:href="#DejaVuSans-65" x="838.130859"/>
      <use xlink:href="#DejaVuSans-2f" x="899.654297"/>
      <use xlink:href="#DejaVuSans-73" x="933.345703"/>
      <use xlink:href="#DejaVuSans-29" x="985.445312"/>
     </g>
    </g>
    <g id="line2d_34">
     <path d="M 275.271563 69.526688 
L 285.271563 69.526688 
L 295.271563 69.526688 
" style="fill: none; stroke: #008000; stroke-width: 1.5; stroke-linecap: square"/>
    </g>
    <g id="text_20">
     <!-- theta (degree) -->
     <g transform="translate(303.271563 73.026688)scale(0.1 -0.1)">
      <use xlink:href="#DejaVuSans-74"/>
      <use xlink:href="#DejaVuSans-68" x="39.208984"/>
      <use xlink:href="#DejaVuSans-65" x="102.587891"/>
      <use xlink:href="#DejaVuSans-74" x="164.111328"/>
      <use xlink:href="#DejaVuSans-61" x="203.320312"/>
      <use xlink:href="#DejaVuSans-20" x="264.599609"/>
      <use xlink:href="#DejaVuSans-28" x="296.386719"/>
      <use xlink:href="#DejaVuSans-64" x="335.400391"/>
      <use xlink:href="#DejaVuSans-65" x="398.876953"/>
      <use xlink:href="#DejaVuSans-67" x="460.400391"/>
      <use xlink:href="#DejaVuSans-72" x="523.876953"/>
      <use xlink:href="#DejaVuSans-65" x="562.740234"/>
      <use xlink:href="#DejaVuSans-65" x="624.263672"/>
      <use xlink:href="#DejaVuSans-29" x="685.787109"/>
     </g>
    </g>
   </g>
  </g>
 </g>
 <defs>
  <clipPath id="p92c14d843b">
   <rect x="57.6" y="41.472" width="357.12" height="266.112"/>
  </clipPath>
 </defs>
</svg>
