<?xml version="1.0" encoding="utf-8" standalone="no"?>
<!DOCTYPE svg PUBLIC "-//W3C//DTD SVG 1.1//EN"
  "http://www.w3.org/Graphics/SVG/1.1/DTD/svg11.dtd">
<svg xmlns:xlink="http://www.w3.org/1999/xlink" width="460.8pt" height="345.6pt" viewBox="0 0 460.8 345.6" xmlns="http://www.w3.org/2000/svg" version="1.1">
 <metadata>
  <rdf:RDF xmlns:dc="http://purl.org/dc/elements/1.1/" xmlns:cc="http://creativecommons.org/ns#" xmlns:rdf="http://www.w3.org/1999/02/22-rdf-syntax-ns#">
   <cc:Work>
    <dc:type rdf:resource="http://purl.org/dc/dcmitype/StillImage"/>
    <dc:date>2023-08-23T17:54:34.376538</dc:date>
    <dc:format>image/svg+xml</dc:format>
    <dc:creator>
     <cc:Agent>
      <dc:title>Matplotlib v3.5.3, https://matplotlib.org/</dc:title>
     </cc:Agent>
    </dc:creator>
   </cc:Work>
  </rdf:RDF>
 </metadata>
 <defs>
  <style type="text/css">*{stroke-linejoin: round; stroke-linecap: butt}</style>
 </defs>
 <g id="figure_1">
  <g id="patch_1">
   <path d="M 0 345.6 
L 460.8 345.6 
L 460.8 0 
L 0 0 
L 0 345.6 
z
" style="fill: none"/>
  </g>
  <g id="axes_1">
   <g id="patch_2">
    <path d="M 57.6 307.584 
L 414.72 307.584 
L 414.72 41.472 
L 57.6 41.472 
L 57.6 307.584 
z
" style="fill: none"/>
   </g>
   <g id="matplotlib.axis_1">
    <g id="xtick_1">
     <g id="line2d_1">
      <path d="M 73.832727 307.584 
L 73.832727 41.472 
" clip-path="url(#p2618f867b4)" style="fill: none; stroke: #b0b0b0; stroke-width: 0.8; stroke-linecap: square"/>
     </g>
     <g id="line2d_2">
      <defs>
       <path id="m9ad76f2e02" d="M 0 0 
L 0 3.5 
" style="stroke: #000000; stroke-width: 0.8"/>
      </defs>
      <g>
       <use xlink:href="#m9ad76f2e02" x="73.832727" y="307.584" style="stroke: #000000; stroke-width: 0.8"/>
      </g>
     </g>
     <g id="text_1">
      <!-- 0 -->
      <g transform="translate(70.651477 322.182437)scale(0.1 -0.1)">
       <defs>
        <path id="DejaVuSans-30" d="M 2034 4250 
Q 1547 4250 1301 3770 
Q 1056 3291 1056 2328 
Q 1056 1369 1301 889 
Q 1547 409 2034 409 
Q 2525 409 2770 889 
Q 3016 1369 3016 2328 
Q 3016 3291 2770 3770 
Q 2525 4250 2034 4250 
z
M 2034 4750 
Q 2819 4750 3233 4129 
Q 3647 3509 3647 2328 
Q 3647 1150 3233 529 
Q 2819 -91 2034 -91 
Q 1250 -91 836 529 
Q 422 1150 422 2328 
Q 422 3509 836 4129 
Q 1250 4750 2034 4750 
z
" transform="scale(0.015625)"/>
       </defs>
       <use xlink:href="#DejaVuSans-30"/>
      </g>
     </g>
    </g>
    <g id="xtick_2">
     <g id="line2d_3">
      <path d="M 117.12 307.584 
L 117.12 41.472 
" clip-path="url(#p2618f867b4)" style="fill: none; stroke: #b0b0b0; stroke-width: 0.8; stroke-linecap: square"/>
     </g>
     <g id="line2d_4">
      <g>
       <use xlink:href="#m9ad76f2e02" x="117.12" y="307.584" style="stroke: #000000; stroke-width: 0.8"/>
      </g>
     </g>
     <g id="text_2">
      <!-- 2 -->
      <g transform="translate(113.93875 322.182437)scale(0.1 -0.1)">
       <defs>
        <path id="DejaVuSans-32" d="M 1228 531 
L 3431 531 
L 3431 0 
L 469 0 
L 469 531 
Q 828 903 1448 1529 
Q 2069 2156 2228 2338 
Q 2531 2678 2651 2914 
Q 2772 3150 2772 3378 
Q 2772 3750 2511 3984 
Q 2250 4219 1831 4219 
Q 1534 4219 1204 4116 
Q 875 4013 500 3803 
L 500 4441 
Q 881 4594 1212 4672 
Q 1544 4750 1819 4750 
Q 2544 4750 2975 4387 
Q 3406 4025 3406 3419 
Q 3406 3131 3298 2873 
Q 3191 2616 2906 2266 
Q 2828 2175 2409 1742 
Q 1991 1309 1228 531 
z
" transform="scale(0.015625)"/>
       </defs>
       <use xlink:href="#DejaVuSans-32"/>
      </g>
     </g>
    </g>
    <g id="xtick_3">
     <g id="line2d_5">
      <path d="M 160.407273 307.584 
L 160.407273 41.472 
" clip-path="url(#p2618f867b4)" style="fill: none; stroke: #b0b0b0; stroke-width: 0.8; stroke-linecap: square"/>
     </g>
     <g id="line2d_6">
      <g>
       <use xlink:href="#m9ad76f2e02" x="160.407273" y="307.584" style="stroke: #000000; stroke-width: 0.8"/>
      </g>
     </g>
     <g id="text_3">
      <!-- 4 -->
      <g transform="translate(157.226023 322.182437)scale(0.1 -0.1)">
       <defs>
        <path id="DejaVuSans-34" d="M 2419 4116 
L 825 1625 
L 2419 1625 
L 2419 4116 
z
M 2253 4666 
L 3047 4666 
L 3047 1625 
L 3713 1625 
L 3713 1100 
L 3047 1100 
L 3047 0 
L 2419 0 
L 2419 1100 
L 313 1100 
L 313 1709 
L 2253 4666 
z
" transform="scale(0.015625)"/>
       </defs>
       <use xlink:href="#DejaVuSans-34"/>
      </g>
     </g>
    </g>
    <g id="xtick_4">
     <g id="line2d_7">
      <path d="M 203.694545 307.584 
L 203.694545 41.472 
" clip-path="url(#p2618f867b4)" style="fill: none; stroke: #b0b0b0; stroke-width: 0.8; stroke-linecap: square"/>
     </g>
     <g id="line2d_8">
      <g>
       <use xlink:href="#m9ad76f2e02" x="203.694545" y="307.584" style="stroke: #000000; stroke-width: 0.8"/>
      </g>
     </g>
     <g id="text_4">
      <!-- 6 -->
      <g transform="translate(200.513295 322.182437)scale(0.1 -0.1)">
       <defs>
        <path id="DejaVuSans-36" d="M 2113 2584 
Q 1688 2584 1439 2293 
Q 1191 2003 1191 1497 
Q 1191 994 1439 701 
Q 1688 409 2113 409 
Q 2538 409 2786 701 
Q 3034 994 3034 1497 
Q 3034 2003 2786 2293 
Q 2538 2584 2113 2584 
z
M 3366 4563 
L 3366 3988 
Q 3128 4100 2886 4159 
Q 2644 4219 2406 4219 
Q 1781 4219 1451 3797 
Q 1122 3375 1075 2522 
Q 1259 2794 1537 2939 
Q 1816 3084 2150 3084 
Q 2853 3084 3261 2657 
Q 3669 2231 3669 1497 
Q 3669 778 3244 343 
Q 2819 -91 2113 -91 
Q 1303 -91 875 529 
Q 447 1150 447 2328 
Q 447 3434 972 4092 
Q 1497 4750 2381 4750 
Q 2619 4750 2861 4703 
Q 3103 4656 3366 4563 
z
" transform="scale(0.015625)"/>
       </defs>
       <use xlink:href="#DejaVuSans-36"/>
      </g>
     </g>
    </g>
    <g id="xtick_5">
     <g id="line2d_9">
      <path d="M 246.981818 307.584 
L 246.981818 41.472 
" clip-path="url(#p2618f867b4)" style="fill: none; stroke: #b0b0b0; stroke-width: 0.8; stroke-linecap: square"/>
     </g>
     <g id="line2d_10">
      <g>
       <use xlink:href="#m9ad76f2e02" x="246.981818" y="307.584" style="stroke: #000000; stroke-width: 0.8"/>
      </g>
     </g>
     <g id="text_5">
      <!-- 8 -->
      <g transform="translate(243.800568 322.182437)scale(0.1 -0.1)">
       <defs>
        <path id="DejaVuSans-38" d="M 2034 2216 
Q 1584 2216 1326 1975 
Q 1069 1734 1069 1313 
Q 1069 891 1326 650 
Q 1584 409 2034 409 
Q 2484 409 2743 651 
Q 3003 894 3003 1313 
Q 3003 1734 2745 1975 
Q 2488 2216 2034 2216 
z
M 1403 2484 
Q 997 2584 770 2862 
Q 544 3141 544 3541 
Q 544 4100 942 4425 
Q 1341 4750 2034 4750 
Q 2731 4750 3128 4425 
Q 3525 4100 3525 3541 
Q 3525 3141 3298 2862 
Q 3072 2584 2669 2484 
Q 3125 2378 3379 2068 
Q 3634 1759 3634 1313 
Q 3634 634 3220 271 
Q 2806 -91 2034 -91 
Q 1263 -91 848 271 
Q 434 634 434 1313 
Q 434 1759 690 2068 
Q 947 2378 1403 2484 
z
M 1172 3481 
Q 1172 3119 1398 2916 
Q 1625 2713 2034 2713 
Q 2441 2713 2670 2916 
Q 2900 3119 2900 3481 
Q 2900 3844 2670 4047 
Q 2441 4250 2034 4250 
Q 1625 4250 1398 4047 
Q 1172 3844 1172 3481 
z
" transform="scale(0.015625)"/>
       </defs>
       <use xlink:href="#DejaVuSans-38"/>
      </g>
     </g>
    </g>
    <g id="xtick_6">
     <g id="line2d_11">
      <path d="M 290.269091 307.584 
L 290.269091 41.472 
" clip-path="url(#p2618f867b4)" style="fill: none; stroke: #b0b0b0; stroke-width: 0.8; stroke-linecap: square"/>
     </g>
     <g id="line2d_12">
      <g>
       <use xlink:href="#m9ad76f2e02" x="290.269091" y="307.584" style="stroke: #000000; stroke-width: 0.8"/>
      </g>
     </g>
     <g id="text_6">
      <!-- 10 -->
      <g transform="translate(283.906591 322.182437)scale(0.1 -0.1)">
       <defs>
        <path id="DejaVuSans-31" d="M 794 531 
L 1825 531 
L 1825 4091 
L 703 3866 
L 703 4441 
L 1819 4666 
L 2450 4666 
L 2450 531 
L 3481 531 
L 3481 0 
L 794 0 
L 794 531 
z
" transform="scale(0.015625)"/>
       </defs>
       <use xlink:href="#DejaVuSans-31"/>
       <use xlink:href="#DejaVuSans-30" x="63.623047"/>
      </g>
     </g>
    </g>
    <g id="xtick_7">
     <g id="line2d_13">
      <path d="M 333.556364 307.584 
L 333.556364 41.472 
" clip-path="url(#p2618f867b4)" style="fill: none; stroke: #b0b0b0; stroke-width: 0.8; stroke-linecap: square"/>
     </g>
     <g id="line2d_14">
      <g>
       <use xlink:href="#m9ad76f2e02" x="333.556364" y="307.584" style="stroke: #000000; stroke-width: 0.8"/>
      </g>
     </g>
     <g id="text_7">
      <!-- 12 -->
      <g transform="translate(327.193864 322.182437)scale(0.1 -0.1)">
       <use xlink:href="#DejaVuSans-31"/>
       <use xlink:href="#DejaVuSans-32" x="63.623047"/>
      </g>
     </g>
    </g>
    <g id="xtick_8">
     <g id="line2d_15">
      <path d="M 376.843636 307.584 
L 376.843636 41.472 
" clip-path="url(#p2618f867b4)" style="fill: none; stroke: #b0b0b0; stroke-width: 0.8; stroke-linecap: square"/>
     </g>
     <g id="line2d_16">
      <g>
       <use xlink:href="#m9ad76f2e02" x="376.843636" y="307.584" style="stroke: #000000; stroke-width: 0.8"/>
      </g>
     </g>
     <g id="text_8">
      <!-- 14 -->
      <g transform="translate(370.481136 322.182437)scale(0.1 -0.1)">
       <use xlink:href="#DejaVuSans-31"/>
       <use xlink:href="#DejaVuSans-34" x="63.623047"/>
      </g>
     </g>
    </g>
    <g id="text_9">
     <!-- time (s) -->
     <g transform="translate(216.768594 335.860562)scale(0.1 -0.1)">
      <defs>
       <path id="DejaVuSans-74" d="M 1172 4494 
L 1172 3500 
L 2356 3500 
L 2356 3053 
L 1172 3053 
L 1172 1153 
Q 1172 725 1289 603 
Q 1406 481 1766 481 
L 2356 481 
L 2356 0 
L 1766 0 
Q 1100 0 847 248 
Q 594 497 594 1153 
L 594 3053 
L 172 3053 
L 172 3500 
L 594 3500 
L 594 4494 
L 1172 4494 
z
" transform="scale(0.015625)"/>
       <path id="DejaVuSans-69" d="M 603 3500 
L 1178 3500 
L 1178 0 
L 603 0 
L 603 3500 
z
M 603 4863 
L 1178 4863 
L 1178 4134 
L 603 4134 
L 603 4863 
z
" transform="scale(0.015625)"/>
       <path id="DejaVuSans-6d" d="M 3328 2828 
Q 3544 3216 3844 3400 
Q 4144 3584 4550 3584 
Q 5097 3584 5394 3201 
Q 5691 2819 5691 2113 
L 5691 0 
L 5113 0 
L 5113 2094 
Q 5113 2597 4934 2840 
Q 4756 3084 4391 3084 
Q 3944 3084 3684 2787 
Q 3425 2491 3425 1978 
L 3425 0 
L 2847 0 
L 2847 2094 
Q 2847 2600 2669 2842 
Q 2491 3084 2119 3084 
Q 1678 3084 1418 2786 
Q 1159 2488 1159 1978 
L 1159 0 
L 581 0 
L 581 3500 
L 1159 3500 
L 1159 2956 
Q 1356 3278 1631 3431 
Q 1906 3584 2284 3584 
Q 2666 3584 2933 3390 
Q 3200 3197 3328 2828 
z
" transform="scale(0.015625)"/>
       <path id="DejaVuSans-65" d="M 3597 1894 
L 3597 1613 
L 953 1613 
Q 991 1019 1311 708 
Q 1631 397 2203 397 
Q 2534 397 2845 478 
Q 3156 559 3463 722 
L 3463 178 
Q 3153 47 2828 -22 
Q 2503 -91 2169 -91 
Q 1331 -91 842 396 
Q 353 884 353 1716 
Q 353 2575 817 3079 
Q 1281 3584 2069 3584 
Q 2775 3584 3186 3129 
Q 3597 2675 3597 1894 
z
M 3022 2063 
Q 3016 2534 2758 2815 
Q 2500 3097 2075 3097 
Q 1594 3097 1305 2825 
Q 1016 2553 972 2059 
L 3022 2063 
z
" transform="scale(0.015625)"/>
       <path id="DejaVuSans-20" transform="scale(0.015625)"/>
       <path id="DejaVuSans-28" d="M 1984 4856 
Q 1566 4138 1362 3434 
Q 1159 2731 1159 2009 
Q 1159 1288 1364 580 
Q 1569 -128 1984 -844 
L 1484 -844 
Q 1016 -109 783 600 
Q 550 1309 550 2009 
Q 550 2706 781 3412 
Q 1013 4119 1484 4856 
L 1984 4856 
z
" transform="scale(0.015625)"/>
       <path id="DejaVuSans-73" d="M 2834 3397 
L 2834 2853 
Q 2591 2978 2328 3040 
Q 2066 3103 1784 3103 
Q 1356 3103 1142 2972 
Q 928 2841 928 2578 
Q 928 2378 1081 2264 
Q 1234 2150 1697 2047 
L 1894 2003 
Q 2506 1872 2764 1633 
Q 3022 1394 3022 966 
Q 3022 478 2636 193 
Q 2250 -91 1575 -91 
Q 1294 -91 989 -36 
Q 684 19 347 128 
L 347 722 
Q 666 556 975 473 
Q 1284 391 1588 391 
Q 1994 391 2212 530 
Q 2431 669 2431 922 
Q 2431 1156 2273 1281 
Q 2116 1406 1581 1522 
L 1381 1569 
Q 847 1681 609 1914 
Q 372 2147 372 2553 
Q 372 3047 722 3315 
Q 1072 3584 1716 3584 
Q 2034 3584 2315 3537 
Q 2597 3491 2834 3397 
z
" transform="scale(0.015625)"/>
       <path id="DejaVuSans-29" d="M 513 4856 
L 1013 4856 
Q 1481 4119 1714 3412 
Q 1947 2706 1947 2009 
Q 1947 1309 1714 600 
Q 1481 -109 1013 -844 
L 513 -844 
Q 928 -128 1133 580 
Q 1338 1288 1338 2009 
Q 1338 2731 1133 3434 
Q 928 4138 513 4856 
z
" transform="scale(0.015625)"/>
      </defs>
      <use xlink:href="#DejaVuSans-74"/>
      <use xlink:href="#DejaVuSans-69" x="39.208984"/>
      <use xlink:href="#DejaVuSans-6d" x="66.992188"/>
      <use xlink:href="#DejaVuSans-65" x="164.404297"/>
      <use xlink:href="#DejaVuSans-20" x="225.927734"/>
      <use xlink:href="#DejaVuSans-28" x="257.714844"/>
      <use xlink:href="#DejaVuSans-73" x="296.728516"/>
      <use xlink:href="#DejaVuSans-29" x="348.828125"/>
     </g>
    </g>
   </g>
   <g id="matplotlib.axis_2">
    <g id="ytick_1">
     <g id="line2d_17">
      <path d="M 57.6 289.700294 
L 414.72 289.700294 
" clip-path="url(#p2618f867b4)" style="fill: none; stroke: #b0b0b0; stroke-width: 0.8; stroke-linecap: square"/>
     </g>
     <g id="line2d_18">
      <defs>
       <path id="m5f0506d4d3" d="M 0 0 
L -3.5 0 
" style="stroke: #000000; stroke-width: 0.8"/>
      </defs>
      <g>
       <use xlink:href="#m5f0506d4d3" x="57.6" y="289.700294" style="stroke: #000000; stroke-width: 0.8"/>
      </g>
     </g>
     <g id="text_10">
      <!-- −3 -->
      <g transform="translate(35.857813 293.499513)scale(0.1 -0.1)">
       <defs>
        <path id="DejaVuSans-2212" d="M 678 2272 
L 4684 2272 
L 4684 1741 
L 678 1741 
L 678 2272 
z
" transform="scale(0.015625)"/>
        <path id="DejaVuSans-33" d="M 2597 2516 
Q 3050 2419 3304 2112 
Q 3559 1806 3559 1356 
Q 3559 666 3084 287 
Q 2609 -91 1734 -91 
Q 1441 -91 1130 -33 
Q 819 25 488 141 
L 488 750 
Q 750 597 1062 519 
Q 1375 441 1716 441 
Q 2309 441 2620 675 
Q 2931 909 2931 1356 
Q 2931 1769 2642 2001 
Q 2353 2234 1838 2234 
L 1294 2234 
L 1294 2753 
L 1863 2753 
Q 2328 2753 2575 2939 
Q 2822 3125 2822 3475 
Q 2822 3834 2567 4026 
Q 2313 4219 1838 4219 
Q 1578 4219 1281 4162 
Q 984 4106 628 3988 
L 628 4550 
Q 988 4650 1302 4700 
Q 1616 4750 1894 4750 
Q 2613 4750 3031 4423 
Q 3450 4097 3450 3541 
Q 3450 3153 3228 2886 
Q 3006 2619 2597 2516 
z
" transform="scale(0.015625)"/>
       </defs>
       <use xlink:href="#DejaVuSans-2212"/>
       <use xlink:href="#DejaVuSans-33" x="83.789062"/>
      </g>
     </g>
    </g>
    <g id="ytick_2">
     <g id="line2d_19">
      <path d="M 57.6 249.106616 
L 414.72 249.106616 
" clip-path="url(#p2618f867b4)" style="fill: none; stroke: #b0b0b0; stroke-width: 0.8; stroke-linecap: square"/>
     </g>
     <g id="line2d_20">
      <g>
       <use xlink:href="#m5f0506d4d3" x="57.6" y="249.106616" style="stroke: #000000; stroke-width: 0.8"/>
      </g>
     </g>
     <g id="text_11">
      <!-- −2 -->
      <g transform="translate(35.857813 252.905835)scale(0.1 -0.1)">
       <use xlink:href="#DejaVuSans-2212"/>
       <use xlink:href="#DejaVuSans-32" x="83.789062"/>
      </g>
     </g>
    </g>
    <g id="ytick_3">
     <g id="line2d_21">
      <path d="M 57.6 208.512939 
L 414.72 208.512939 
" clip-path="url(#p2618f867b4)" style="fill: none; stroke: #b0b0b0; stroke-width: 0.8; stroke-linecap: square"/>
     </g>
     <g id="line2d_22">
      <g>
       <use xlink:href="#m5f0506d4d3" x="57.6" y="208.512939" style="stroke: #000000; stroke-width: 0.8"/>
      </g>
     </g>
     <g id="text_12">
      <!-- −1 -->
      <g transform="translate(35.857813 212.312158)scale(0.1 -0.1)">
       <use xlink:href="#DejaVuSans-2212"/>
       <use xlink:href="#DejaVuSans-31" x="83.789062"/>
      </g>
     </g>
    </g>
    <g id="ytick_4">
     <g id="line2d_23">
      <path d="M 57.6 167.919261 
L 414.72 167.919261 
" clip-path="url(#p2618f867b4)" style="fill: none; stroke: #b0b0b0; stroke-width: 0.8; stroke-linecap: square"/>
     </g>
     <g id="line2d_24">
      <g>
       <use xlink:href="#m5f0506d4d3" x="57.6" y="167.919261" style="stroke: #000000; stroke-width: 0.8"/>
      </g>
     </g>
     <g id="text_13">
      <!-- 0 -->
      <g transform="translate(44.2375 171.71848)scale(0.1 -0.1)">
       <use xlink:href="#DejaVuSans-30"/>
      </g>
     </g>
    </g>
    <g id="ytick_5">
     <g id="line2d_25">
      <path d="M 57.6 127.325584 
L 414.72 127.325584 
" clip-path="url(#p2618f867b4)" style="fill: none; stroke: #b0b0b0; stroke-width: 0.8; stroke-linecap: square"/>
     </g>
     <g id="line2d_26">
      <g>
       <use xlink:href="#m5f0506d4d3" x="57.6" y="127.325584" style="stroke: #000000; stroke-width: 0.8"/>
      </g>
     </g>
     <g id="text_14">
      <!-- 1 -->
      <g transform="translate(44.2375 131.124802)scale(0.1 -0.1)">
       <use xlink:href="#DejaVuSans-31"/>
      </g>
     </g>
    </g>
    <g id="ytick_6">
     <g id="line2d_27">
      <path d="M 57.6 86.731906 
L 414.72 86.731906 
" clip-path="url(#p2618f867b4)" style="fill: none; stroke: #b0b0b0; stroke-width: 0.8; stroke-linecap: square"/>
     </g>
     <g id="line2d_28">
      <g>
       <use xlink:href="#m5f0506d4d3" x="57.6" y="86.731906" style="stroke: #000000; stroke-width: 0.8"/>
      </g>
     </g>
     <g id="text_15">
      <!-- 2 -->
      <g transform="translate(44.2375 90.531125)scale(0.1 -0.1)">
       <use xlink:href="#DejaVuSans-32"/>
      </g>
     </g>
    </g>
    <g id="ytick_7">
     <g id="line2d_29">
      <path d="M 57.6 46.138229 
L 414.72 46.138229 
" clip-path="url(#p2618f867b4)" style="fill: none; stroke: #b0b0b0; stroke-width: 0.8; stroke-linecap: square"/>
     </g>
     <g id="line2d_30">
      <g>
       <use xlink:href="#m5f0506d4d3" x="57.6" y="46.138229" style="stroke: #000000; stroke-width: 0.8"/>
      </g>
     </g>
     <g id="text_16">
      <!-- 3 -->
      <g transform="translate(44.2375 49.937447)scale(0.1 -0.1)">
       <use xlink:href="#DejaVuSans-33"/>
      </g>
     </g>
    </g>
    <g id="text_17">
     <!-- theta -->
     <g transform="translate(29.778125 187.757688)rotate(-90)scale(0.1 -0.1)">
      <defs>
       <path id="DejaVuSans-68" d="M 3513 2113 
L 3513 0 
L 2938 0 
L 2938 2094 
Q 2938 2591 2744 2837 
Q 2550 3084 2163 3084 
Q 1697 3084 1428 2787 
Q 1159 2491 1159 1978 
L 1159 0 
L 581 0 
L 581 4863 
L 1159 4863 
L 1159 2956 
Q 1366 3272 1645 3428 
Q 1925 3584 2291 3584 
Q 2894 3584 3203 3211 
Q 3513 2838 3513 2113 
z
" transform="scale(0.015625)"/>
       <path id="DejaVuSans-61" d="M 2194 1759 
Q 1497 1759 1228 1600 
Q 959 1441 959 1056 
Q 959 750 1161 570 
Q 1363 391 1709 391 
Q 2188 391 2477 730 
Q 2766 1069 2766 1631 
L 2766 1759 
L 2194 1759 
z
M 3341 1997 
L 3341 0 
L 2766 0 
L 2766 531 
Q 2569 213 2275 61 
Q 1981 -91 1556 -91 
Q 1019 -91 701 211 
Q 384 513 384 1019 
Q 384 1609 779 1909 
Q 1175 2209 1959 2209 
L 2766 2209 
L 2766 2266 
Q 2766 2663 2505 2880 
Q 2244 3097 1772 3097 
Q 1472 3097 1187 3025 
Q 903 2953 641 2809 
L 641 3341 
Q 956 3463 1253 3523 
Q 1550 3584 1831 3584 
Q 2591 3584 2966 3190 
Q 3341 2797 3341 1997 
z
" transform="scale(0.015625)"/>
      </defs>
      <use xlink:href="#DejaVuSans-74"/>
      <use xlink:href="#DejaVuSans-68" x="39.208984"/>
      <use xlink:href="#DejaVuSans-65" x="102.587891"/>
      <use xlink:href="#DejaVuSans-74" x="164.111328"/>
      <use xlink:href="#DejaVuSans-61" x="203.320312"/>
     </g>
    </g>
   </g>
   <g id="line2d_31">
    <path d="M 73.832727 167.919261 
L 73.852207 167.816527 
L 74.577268 164.196463 
L 75.2677 161.805988 
L 75.698409 160.740545 
L 75.746025 160.782821 
L 81.066031 165.818145 
L 85.009501 169.433073 
L 87.217152 171.157436 
L 89.039546 172.307844 
L 90.656326 173.072612 
L 92.151901 173.538977 
L 93.578217 173.753691 
L 94.97856 173.740528 
L 96.394054 173.503727 
L 97.87015 173.027778 
L 99.460957 172.275164 
L 101.25305 171.172382 
L 103.454208 169.541174 
L 111.306519 163.469875 
L 113.03801 162.557858 
L 114.576873 161.992188 
L 116.007517 161.699107 
L 117.384052 161.642304 
L 118.75193 161.809026 
L 120.154438 162.206952 
L 121.639191 162.864335 
L 123.27545 163.839466 
L 125.195241 165.254484 
L 127.881216 167.540104 
L 132.127697 171.144496 
L 134.051817 172.469176 
L 135.657775 173.313728 
L 137.097076 173.825512 
L 138.441146 174.070961 
L 139.739764 174.083345 
L 141.036218 173.872564 
L 142.375959 173.426212 
L 143.808768 172.708686 
L 145.408233 171.650229 
L 147.330188 170.097131 
L 150.377612 167.300945 
L 153.446679 164.586104 
L 155.273402 163.262568 
L 156.792785 162.426785 
L 158.149841 161.927478 
L 159.41383 161.695511 
L 160.634531 161.696433 
L 161.855232 161.92127 
L 163.117056 162.383421 
L 164.471948 163.122717 
L 165.991331 164.214611 
L 167.828876 165.824778 
L 170.845999 168.819316 
L 173.612055 171.44217 
L 175.324067 172.766701 
L 176.746054 173.596236 
L 178.012207 174.084713 
L 179.187456 174.304176 
L 180.321583 174.290966 
L 181.455709 174.05378 
L 182.633123 173.575927 
L 183.90144 172.81391 
L 185.327756 171.687268 
L 187.057082 170.021504 
L 189.896727 166.920347 
L 192.517772 164.185394 
L 194.128058 162.81801 
L 195.456977 161.969803 
L 196.632227 161.475445 
L 197.716573 161.255726 
L 198.757632 161.270013 
L 199.798691 161.508492 
L 200.880873 161.989615 
L 202.047465 162.759234 
L 203.363398 163.905146 
L 204.949876 165.59878 
L 207.384785 168.572215 
L 210.161664 171.871072 
L 211.685376 173.340411 
L 212.927721 174.243143 
L 214.014231 174.767534 
L 215.00551 175.005451 
L 215.951337 175.005885 
L 216.892835 174.781948 
L 217.868963 174.316182 
L 218.925172 173.55707 
L 220.111244 172.418934 
L 221.526737 170.734977 
L 223.515788 167.984762 
L 226.794799 163.454349 
L 228.197306 161.913282 
L 229.335761 160.976642 
L 230.320547 160.442134 
L 231.2101 160.204511 
L 231.995764 160.202291 
L 232.740305 160.382221 
L 233.701283 160.877496 
L 234.740177 161.73482 
L 235.716305 162.819198 
L 236.00633 163.357647 
L 236.008495 163.340574 
L 236.175151 164.580162 
L 236.177315 164.562225 
L 236.235753 164.980511 
L 236.237917 164.962366 
L 236.400244 166.091524 
L 236.402409 166.072552 
L 236.463011 166.507949 
L 236.465175 166.488658 
L 236.621009 167.469983 
L 236.623174 167.449879 
L 236.688105 167.881297 
L 236.690269 167.860864 
L 236.843939 168.790768 
L 236.846103 168.769592 
L 236.913199 169.150206 
L 236.915363 169.128792 
L 237.069033 169.988947 
L 237.071197 169.966806 
L 237.140457 170.360228 
L 237.142621 170.3377 
L 237.289798 171.068889 
L 237.291962 171.045768 
L 237.365551 171.428208 
L 237.367715 171.404748 
L 237.510563 172.05638 
L 237.512727 172.03226 
L 237.590644 172.40113 
L 237.592809 172.376666 
L 237.733492 172.994742 
L 237.735657 172.969709 
L 237.815738 173.282239 
L 237.817903 173.256852 
L 237.958586 173.819213 
L 237.960751 173.793272 
L 238.045161 174.087968 
L 238.047325 174.061673 
L 238.18368 174.557432 
L 238.185844 174.530612 
L 238.274583 174.805336 
L 238.276748 174.778163 
L 238.408774 175.212816 
L 238.410938 175.185148 
L 238.499677 175.42799 
L 238.501841 175.399985 
L 238.631703 175.750992 
L 238.633868 175.722544 
L 238.724771 175.972632 
L 238.726935 175.943849 
L 238.852468 176.243872 
L 238.854633 176.214649 
L 238.945536 176.435959 
L 238.9477 176.406393 
L 239.071069 176.630809 
L 239.073233 176.600878 
L 239.168465 176.800153 
L 239.17063 176.769882 
L 239.291834 176.987951 
L 239.293999 176.957287 
L 239.391395 177.098195 
L 239.393559 177.067246 
L 239.514764 177.250502 
L 239.516928 177.219189 
L 239.618653 177.336585 
L 239.620817 177.304975 
L 239.737693 177.451931 
L 239.739857 177.419981 
L 239.841583 177.51064 
L 239.843747 177.478418 
L 239.960623 177.59552 
L 239.962787 177.562955 
L 240.068841 177.629309 
L 240.071005 177.596482 
L 240.187881 177.685348 
L 240.190045 177.652194 
L 240.248483 177.690993 
L 240.298263 177.659514 
L 240.382673 177.690879 
L 240.408646 177.688887 
L 240.5147 177.64077 
L 240.516864 177.673864 
L 240.519028 177.70692 
L 240.625082 177.646623 
L 240.627247 177.679498 
L 240.741958 177.605665 
L 240.744122 177.638351 
L 240.845847 177.559498 
L 240.848012 177.592023 
L 240.962723 177.496927 
L 240.964887 177.529276 
L 241.066612 177.432149 
L 241.068777 177.464348 
L 241.183488 177.349312 
L 241.185652 177.381349 
L 241.287377 177.267115 
L 241.289542 177.299013 
L 241.408582 177.161394 
L 241.410746 177.193136 
L 241.512471 177.062652 
L 241.514636 177.094266 
L 241.633676 176.938339 
L 241.63584 176.969811 
L 241.733236 176.829155 
L 241.735401 176.860516 
L 241.854441 176.687977 
L 241.856605 176.719209 
L 241.951837 176.53543 
L 241.954001 176.5666 
L 242.073041 176.380637 
L 242.075206 176.41169 
L 242.172602 176.24748 
L 242.174767 176.278442 
L 242.3003 176.035359 
L 242.302464 176.066238 
L 242.39986 175.892165 
L 242.402025 175.922963 
L 242.525393 175.704922 
L 242.527558 175.735633 
L 242.62279 175.521169 
L 242.624954 175.551834 
L 242.748323 175.323526 
L 242.750487 175.354108 
L 242.847884 175.162236 
L 242.850048 175.192756 
L 242.975581 174.917598 
L 242.977745 174.948091 
L 243.070813 174.756806 
L 243.072977 174.787236 
L 243.198511 174.504093 
L 243.200675 174.53451 
L 243.291578 174.307504 
L 243.293743 174.337897 
L 243.417111 174.086127 
L 243.419276 174.116489 
L 243.510179 173.885464 
L 243.512343 173.915808 
L 243.635712 173.658673 
L 243.637876 173.688978 
L 243.72878 173.454951 
L 243.730944 173.485264 
L 243.856477 173.185853 
L 243.858641 173.216195 
L 243.951709 173.009825 
L 243.953873 173.040151 
L 244.079407 172.738187 
L 244.081571 172.768529 
L 244.172474 172.529918 
L 244.174639 172.560253 
L 244.298007 172.294977 
L 244.300172 172.325335 
L 244.391075 172.086332 
L 244.393239 172.116687 
L 244.518772 171.812442 
L 244.520937 171.84283 
L 244.61184 171.603307 
L 244.614004 171.63373 
L 244.737373 171.368524 
L 244.739537 171.398955 
L 244.830441 171.160507 
L 244.832605 171.19098 
L 244.958138 170.888537 
L 244.960303 170.919105 
L 245.051206 170.6816 
L 245.05337 170.712218 
L 245.178903 170.412017 
L 245.181068 170.442694 
L 245.274135 170.238125 
L 245.2763 170.268826 
L 245.401833 169.971894 
L 245.403997 170.002662 
L 245.4949 169.769917 
L 245.497065 169.800745 
L 245.622598 169.507743 
L 245.624762 169.538588 
L 245.715665 169.308772 
L 245.71783 169.339681 
L 245.841199 169.089954 
L 245.843363 169.12097 
L 245.934266 168.895076 
L 245.936431 168.926098 
L 246.061964 168.643226 
L 246.064128 168.674331 
L 246.15936 168.445202 
L 246.161524 168.476382 
L 246.287057 168.199475 
L 246.289222 168.230818 
L 246.384454 168.006234 
L 246.386618 168.037657 
L 246.509987 167.805839 
L 246.512151 167.837248 
L 246.607383 167.618253 
L 246.609548 167.649825 
L 246.735081 167.386833 
L 246.737245 167.418508 
L 246.832477 167.204958 
L 246.834641 167.236721 
L 246.960175 166.981266 
L 246.962339 167.013136 
L 247.059735 166.837199 
L 247.0619 166.869128 
L 247.183104 166.628069 
L 247.185268 166.660108 
L 247.2805 166.458834 
L 247.282665 166.490873 
L 247.403869 166.25769 
L 247.406033 166.289839 
L 247.501265 166.094613 
L 247.50343 166.126856 
L 247.62247 165.939776 
L 247.624634 165.972097 
L 247.719866 165.783745 
L 247.722031 165.816163 
L 247.843235 165.599433 
L 247.845399 165.632072 
L 247.942796 165.482662 
L 247.94496 165.515262 
L 248.066164 165.307546 
L 248.068329 165.340375 
L 248.163561 165.165351 
L 248.165725 165.198283 
L 248.286929 164.998856 
L 248.289094 165.031795 
L 248.390819 164.892663 
L 248.392983 164.925792 
L 248.514188 164.735771 
L 248.516352 164.768905 
L 248.618077 164.637032 
L 248.620241 164.670362 
L 248.741446 164.489799 
L 248.74361 164.52313 
L 248.843171 164.365444 
L 248.845335 164.39901 
L 248.964375 164.264587 
L 248.96654 164.298115 
L 249.0661 164.148053 
L 249.068265 164.18182 
L 249.182976 164.059229 
L 249.18514 164.093085 
L 249.284701 163.950214 
L 249.286865 163.984181 
L 249.401577 163.869963 
L 249.403741 163.904019 
L 249.503302 163.768204 
L 249.505466 163.802233 
L 249.620177 163.696602 
L 249.622342 163.730858 
L 249.724067 163.636014 
L 249.726231 163.67035 
L 249.843107 163.536474 
L 249.845271 163.570791 
L 249.946996 163.483743 
L 249.949161 163.518138 
L 250.066036 163.391853 
L 250.068201 163.426518 
L 250.174255 163.345332 
L 250.176419 163.379931 
L 250.29113 163.298445 
L 250.293295 163.33313 
L 250.397184 163.223556 
L 250.399348 163.258507 
L 250.51406 163.1855 
L 250.516224 163.220539 
L 250.622278 163.153497 
L 250.624442 163.188616 
L 250.739153 163.122419 
L 250.741318 163.157625 
L 250.847372 163.096863 
L 250.849536 163.13215 
L 250.966412 163.037973 
L 250.968576 163.073224 
L 251.07463 163.020575 
L 251.076794 163.055904 
L 251.187177 163.00569 
L 251.189341 163.041098 
L 251.295395 162.994443 
L 251.297559 163.029928 
L 251.407942 162.985912 
L 251.412271 162.985648 
L 251.518324 163.016372 
L 251.628707 162.978458 
L 251.739089 163.015032 
L 251.849472 162.983104 
L 251.959855 163.025668 
L 251.962019 162.990048 
L 252.068073 163.035172 
L 252.070237 162.999592 
L 252.18062 163.048001 
L 252.182784 163.012461 
L 252.288838 163.063127 
L 252.291002 163.027625 
L 252.401385 163.081719 
L 252.403549 163.046255 
L 252.509603 163.102302 
L 252.511767 163.066876 
L 252.626479 163.127463 
L 252.628643 163.092075 
L 252.732532 163.187723 
L 252.734697 163.152161 
L 252.849408 163.216684 
L 252.851572 163.18116 
L 252.957626 163.246098 
L 252.959791 163.210606 
L 253.074502 163.28061 
L 253.076666 163.245153 
L 253.18272 163.315053 
L 253.184884 163.279628 
L 253.30176 163.389761 
L 253.303924 163.354509 
L 253.409978 163.427346 
L 253.412143 163.392125 
L 253.526854 163.47047 
L 253.529018 163.43528 
L 253.632908 163.547139 
L 253.635072 163.511766 
L 253.749783 163.593219 
L 253.751948 163.557876 
L 253.858001 163.63808 
L 253.860166 163.602762 
L 253.977041 163.72477 
L 253.979206 163.689621 
L 254.08526 163.772135 
L 254.087424 163.73701 
L 254.2043 163.862737 
L 254.206464 163.827427 
L 254.312518 163.912382 
L 254.314682 163.877096 
L 254.429393 163.96808 
L 254.431558 163.932816 
L 254.531119 164.05338 
L 254.533283 164.018276 
L 254.647994 164.111039 
L 254.650159 164.075956 
L 254.749719 164.198653 
L 254.751884 164.163378 
L 254.866595 164.258046 
L 254.868759 164.222965 
L 254.96832 164.347389 
L 254.970484 164.312114 
L 255.085196 164.408294 
L 255.08736 164.373037 
L 255.186921 164.498787 
L 255.189085 164.463682 
L 255.303796 164.560986 
L 255.305961 164.525897 
L 255.405521 164.65264 
L 255.407686 164.617355 
L 255.522397 164.715915 
L 255.524561 164.680643 
L 255.624122 164.808051 
L 255.626287 164.772926 
L 255.740998 164.872186 
L 255.743162 164.837073 
L 255.842723 164.964819 
L 255.844887 164.929509 
L 255.959599 165.029602 
L 255.961763 164.994472 
L 256.061324 165.122306 
L 256.063488 165.086978 
L 256.180364 165.225085 
L 256.182528 165.189898 
L 256.284253 165.282365 
L 256.286417 165.247185 
L 256.403293 165.384978 
L 256.405457 165.349601 
L 256.507183 165.442419 
L 256.509347 165.407047 
L 256.626223 165.544418 
L 256.628387 165.509015 
L 256.727948 165.636967 
L 256.730112 165.601696 
L 256.844823 165.700495 
L 256.846988 165.665226 
L 256.946548 165.79223 
L 256.948713 165.756764 
L 257.063424 165.855428 
L 257.065588 165.820125 
L 257.165149 165.946105 
L 257.167313 165.910605 
L 257.284189 166.045714 
L 257.286353 166.010339 
L 257.388079 166.100322 
L 257.390243 166.064945 
L 257.507119 166.198523 
L 257.509283 166.163108 
L 257.608844 166.287443 
L 257.611008 166.251833 
L 257.725719 166.346742 
L 257.727884 166.31113 
L 257.827444 166.433879 
L 257.829609 166.398383 
L 257.946484 166.529268 
L 257.948649 166.493731 
L 258.050374 166.579784 
L 258.052538 166.544242 
L 258.169414 166.673139 
L 258.171578 166.637403 
L 258.275468 166.759513 
L 258.277632 166.723887 
L 258.394508 166.85126 
L 258.396672 166.81559 
L 258.502726 166.899814 
L 258.50489 166.864138 
L 258.621766 166.989126 
L 258.62393 166.953258 
L 258.72782 167.071999 
L 258.729984 167.036088 
L 258.844695 167.121307 
L 258.84686 167.085388 
L 258.950749 167.201586 
L 258.952913 167.165768 
L 259.069789 167.286371 
L 259.071953 167.250507 
L 259.178007 167.328911 
L 259.180172 167.293037 
L 259.297047 167.410937 
L 259.299212 167.374876 
L 259.403101 167.486914 
L 259.405265 167.450948 
L 259.522141 167.566792 
L 259.524305 167.530778 
L 259.630359 167.604287 
L 259.632524 167.568262 
L 259.749399 167.681162 
L 259.751564 167.644954 
L 259.855453 167.75275 
L 259.857617 167.716497 
L 259.972329 167.789454 
L 259.974493 167.753189 
L 260.078383 167.858097 
L 260.080547 167.821918 
L 260.197423 167.929697 
L 260.199587 167.893469 
L 260.305641 167.960058 
L 260.307805 167.923818 
L 260.424681 168.028556 
L 260.426845 167.99214 
L 260.530735 168.092565 
L 260.532899 168.056102 
L 260.649775 168.158574 
L 260.651939 168.122188 
L 260.757993 168.183363 
L 260.760157 168.146965 
L 260.877033 168.246324 
L 260.879197 168.209877 
L 260.983087 168.30552 
L 260.985251 168.268903 
L 261.099962 168.328199 
L 261.102127 168.29157 
L 261.206016 168.384451 
L 261.20818 168.347895 
L 261.320727 168.441397 
L 261.322892 168.404792 
L 261.428945 168.458584 
L 261.43111 168.421967 
L 261.543657 168.512614 
L 261.545821 168.475832 
L 261.649711 168.564425 
L 261.651875 168.527711 
L 261.762257 168.578441 
L 261.764422 168.541602 
L 261.868311 168.627572 
L 261.870476 168.590798 
L 261.980858 168.639467 
L 261.983023 168.602681 
L 262.086912 168.68611 
L 262.089076 168.649277 
L 262.201623 168.732718 
L 262.203788 168.695729 
L 262.309841 168.740372 
L 262.312006 168.703373 
L 262.424553 168.784142 
L 262.521949 168.752265 
L 262.526278 168.826691 
L 262.532771 168.789861 
L 262.643153 168.830918 
L 262.70592 168.796097 
L 262.710249 168.870481 
L 262.751372 168.834077 
L 262.861754 168.873364 
L 262.889891 168.836699 
L 262.89422 168.911041 
L 262.969972 168.874095 
L 263.082519 168.948623 
L 263.192902 168.909887 
L 263.305449 168.982 
L 263.415831 168.941341 
L 263.528378 169.011324 
L 263.638761 168.968881 
L 263.664733 169.042057 
L 263.751308 169.036583 
L 263.86169 168.992489 
L 263.866019 169.066642 
L 263.974237 169.058122 
L 264.067305 169.013671 
L 264.071633 169.087791 
L 264.082455 169.049477 
L 264.08462 169.086565 
L 264.190673 169.039318 
L 264.192838 169.076417 
L 264.277248 169.031276 
L 264.281577 169.105365 
L 264.301056 169.066017 
L 264.30322 169.103001 
L 264.409274 169.054273 
L 264.411439 169.091269 
L 264.487191 169.045904 
L 264.49152 169.119963 
L 264.519657 169.07916 
L 264.521821 169.116218 
L 264.627875 169.065879 
L 264.630039 169.102948 
L 264.705792 169.056502 
L 264.710121 169.130535 
L 264.738257 169.089325 
L 264.740422 169.126369 
L 264.846476 169.074554 
L 264.84864 169.11161 
L 264.93305 169.062872 
L 264.937379 169.136882 
L 264.956858 169.096668 
L 264.959023 169.133616 
L 265.065076 169.080452 
L 265.067241 169.117414 
L 265.160308 169.066359 
L 265.164637 169.140348 
L 265.175459 169.101202 
L 265.177623 169.13822 
L 265.283677 169.083591 
L 265.285841 169.120622 
L 265.396224 169.065609 
L 265.400553 169.139581 
L 265.508771 169.120648 
L 265.619153 169.064206 
L 265.640797 169.135201 
L 265.636468 169.061244 
L 265.7317 169.118237 
L 265.842083 169.060573 
L 265.889699 169.126632 
L 265.88537 169.052685 
L 265.95463 169.113797 
L 266.069341 169.053971 
L 266.142929 169.114562 
L 266.138601 169.040622 
L 266.181888 169.106456 
L 266.296599 169.045474 
L 266.404817 169.023561 
L 266.409146 169.0975 
L 266.523857 169.035341 
L 266.526022 169.072273 
L 266.632076 169.012362 
L 266.63424 169.04931 
L 266.675363 169.003277 
L 266.679692 169.077218 
L 266.746787 169.024648 
L 266.748951 169.061645 
L 266.855005 169.000636 
L 266.857169 169.037648 
L 266.958895 168.977969 
L 266.963223 169.051918 
L 266.969716 169.012976 
L 266.971881 169.0499 
L 267.077935 168.987972 
L 267.080099 169.024912 
L 267.19481 168.96146 
L 267.255412 169.022839 
L 267.251084 168.948876 
L 267.307357 169.010455 
L 267.422068 168.945964 
L 267.424233 168.982985 
L 267.530287 168.921063 
L 267.532451 168.958036 
L 267.55193 168.916126 
L 267.556259 168.990106 
L 267.644998 168.931031 
L 267.647162 168.968049 
L 267.753216 168.905212 
L 267.75538 168.942247 
L 267.865763 168.878885 
L 267.867927 168.915937 
L 267.870092 168.95289 
L 267.976145 168.889295 
L 267.97831 168.926266 
L 268.093021 168.861111 
L 268.201239 168.910606 
L 268.196911 168.836569 
L 268.205568 168.909521 
L 268.320279 168.843501 
L 268.322444 168.880552 
L 268.428497 168.817233 
L 268.430662 168.854301 
L 268.536716 168.791512 
L 268.541044 168.865588 
L 268.543209 168.827507 
L 268.545373 168.864497 
L 268.651427 168.800524 
L 268.653591 168.837533 
L 268.768303 168.77203 
L 268.770467 168.809059 
L 268.876521 168.746242 
L 268.878685 168.78329 
L 268.893836 168.742169 
L 268.898164 168.816291 
L 268.991232 168.755466 
L 268.993396 168.792553 
L 269.09945 168.729037 
L 269.101615 168.766143 
L 269.216326 168.701221 
L 269.272599 168.763232 
L 269.268271 168.689056 
L 269.328873 168.749261 
L 269.443584 168.683653 
L 269.445748 168.720781 
L 269.551802 168.65791 
L 269.553967 168.695056 
L 269.66002 168.632782 
L 269.664349 168.707021 
L 269.666513 168.668881 
L 269.668678 168.705955 
L 269.774732 168.642558 
L 269.776896 168.679652 
L 269.891607 168.61485 
L 269.893772 168.651965 
L 269.999825 168.589857 
L 270.00199 168.626992 
L 270.069085 168.574195 
L 270.073414 168.648503 
L 270.114537 168.600945 
L 270.116701 168.638115 
L 270.222755 168.575418 
L 270.224919 168.612606 
L 270.339631 168.548586 
L 270.341795 168.585795 
L 270.447849 168.52442 
L 270.450013 168.561648 
L 270.504122 168.51211 
L 270.508451 168.586499 
L 270.56256 168.536252 
L 270.564724 168.573414 
L 270.670778 168.511581 
L 270.672943 168.548762 
L 270.787654 168.485688 
L 270.789818 168.52289 
L 270.895872 168.462404 
L 270.898036 168.499625 
L 270.956474 168.449652 
L 270.960803 168.524128 
L 271.010583 168.475232 
L 271.012748 168.512485 
L 271.118801 168.451461 
L 271.120966 168.488734 
L 271.235677 168.426552 
L 271.237841 168.463845 
L 271.343895 168.404187 
L 271.34606 168.4415 
L 271.434799 168.385916 
L 271.439127 168.460489 
L 271.458607 168.418593 
L 271.460771 168.455841 
L 271.566825 168.395747 
L 271.568989 168.433015 
L 271.6837 168.371844 
L 271.685865 168.409133 
L 271.791919 168.350418 
L 271.794083 168.387727 
L 271.904465 168.328847 
L 271.943424 168.397033 
L 271.939095 168.322354 
L 272.017012 168.382219 
L 272.127395 168.322802 
L 272.129559 168.360178 
L 272.235613 168.302286 
L 272.237777 168.339682 
L 272.34816 168.281665 
L 272.350324 168.319081 
L 272.456378 168.262518 
L 272.458543 168.299952 
L 272.465036 168.261015 
L 272.469364 168.335804 
L 272.566761 168.279767 
L 272.568925 168.317183 
L 272.674979 168.260116 
L 272.677143 168.297551 
L 272.787526 168.240396 
L 272.78969 168.27785 
L 272.895744 168.222114 
L 272.897908 168.259587 
L 273.008291 168.2038 
L 273.025606 168.27664 
L 273.021277 168.201732 
L 273.120838 168.260151 
L 273.23122 168.203886 
L 273.233385 168.241336 
L 273.339439 168.186454 
L 273.341603 168.223923 
L 273.451985 168.16902 
L 273.45415 168.206509 
L 273.560204 168.152916 
L 273.562368 168.190423 
L 273.603491 168.146653 
L 273.60782 168.221685 
L 273.670586 168.17385 
L 273.672751 168.211379 
L 273.778804 168.157183 
L 273.780969 168.19473 
L 273.891351 168.14054 
L 273.893516 168.178105 
L 273.999569 168.125191 
L 274.001734 168.162774 
L 274.112116 168.109898 
L 274.216006 168.172088 
L 274.211677 168.09693 
L 274.224663 168.170837 
L 274.335046 168.117389 
L 274.33721 168.15495 
L 274.443264 168.102742 
L 274.445428 168.14032 
L 274.555811 168.088171 
L 274.557975 168.125768 
L 274.664029 168.074787 
L 274.666193 168.112401 
L 274.776576 168.061508 
L 274.850164 168.128939 
L 274.845836 168.053655 
L 274.889123 168.123963 
L 274.999505 168.072368 
L 275.00167 168.110035 
L 275.107724 168.059576 
L 275.109888 168.097258 
L 275.220271 168.046901 
L 275.222435 168.084601 
L 275.328489 168.03531 
L 275.330653 168.073026 
L 275.441036 168.023862 
L 275.510295 168.092945 
L 275.505967 168.017534 
L 275.553583 168.088098 
L 275.663965 168.038239 
L 275.666129 168.075931 
L 275.772183 168.027109 
L 275.774348 168.064818 
L 275.88473 168.01613 
L 275.886895 168.053855 
L 275.992948 168.006136 
L 275.995113 168.043876 
L 276.105495 167.996314 
L 276.196399 168.064682 
L 276.19207 167.989148 
L 276.218042 168.062572 
L 276.328425 168.014167 
L 276.330589 168.051951 
L 276.436643 168.00449 
L 276.438807 168.04229 
L 276.54919 167.994988 
L 276.551354 168.032802 
L 276.657408 167.986379 
L 276.659572 168.024208 
L 276.769955 167.977962 
L 276.772119 168.015806 
L 276.878173 167.970374 
L 276.880337 168.008232 
L 276.904145 167.968625 
L 276.908474 168.044278 
L 276.988556 167.999714 
L 276.99072 168.037517 
L 277.096774 167.991248 
L 277.098938 168.029065 
L 277.209321 167.982969 
L 277.211485 168.0208 
L 277.317539 167.975502 
L 277.319703 168.013348 
L 277.430086 167.968239 
L 277.43225 168.006099 
L 277.538304 167.961726 
L 277.540468 167.999599 
L 277.637865 167.956133 
L 277.642193 168.031897 
L 277.648687 167.993399 
L 277.650851 168.031279 
L 277.756905 167.985917 
L 277.759069 168.02381 
L 277.869452 167.978626 
L 277.871616 168.016533 
L 277.97767 167.972077 
L 277.979834 168.009997 
L 278.090217 167.965733 
L 278.200599 167.998017 
L 278.310982 167.954629 
L 278.401885 168.026611 
L 278.423529 168.025306 
L 278.533911 167.98088 
L 278.644294 168.012967 
L 278.754676 167.969396 
L 278.865059 168.002331 
L 278.975441 167.959571 
L 279.085824 167.993311 
L 279.187549 167.951613 
L 279.191878 168.027578 
L 279.194042 167.989377 
L 279.304425 168.021987 
L 279.414807 167.978807 
L 279.52519 168.012206 
L 279.635572 167.969779 
L 279.745955 168.003925 
L 279.856337 167.962209 
L 279.96672 167.997059 
L 280.003514 167.95793 
L 280.007843 168.033982 
L 280.074938 167.992977 
L 280.185321 168.026566 
L 280.295703 167.984311 
L 280.406086 168.018595 
L 280.516468 167.977 
L 280.626851 168.011964 
L 280.737233 167.970966 
L 280.847616 168.006545 
L 280.854109 167.968261 
L 280.858438 168.044392 
L 280.955834 168.002584 
L 281.066217 168.036828 
L 281.176599 167.995126 
L 281.286982 168.029982 
L 281.397364 167.98886 
L 281.507747 168.024292 
L 281.618129 167.983713 
L 281.728512 168.019685 
L 281.747991 167.98118 
L 281.75232 168.057382 
L 281.83673 168.01629 
L 281.947113 168.050892 
L 282.057495 168.009414 
L 282.167878 168.044558 
L 282.27826 168.003593 
L 282.388643 168.039245 
L 282.499025 167.99876 
L 282.609408 168.034888 
L 282.689489 167.995335 
L 282.693818 168.071601 
L 282.717626 168.032626 
L 282.828009 168.067263 
L 282.938391 168.025781 
L 283.048774 168.060903 
L 283.159156 168.019879 
L 283.269539 168.055457 
L 283.379921 168.014861 
L 283.490304 168.050866 
L 283.600687 168.01067 
L 283.713233 168.084922 
L 283.823616 168.043167 
L 283.933999 168.078082 
L 284.044381 168.036744 
L 284.154764 168.072075 
L 284.265146 168.031127 
L 284.375529 168.066847 
L 284.485911 168.026265 
L 284.596294 168.06235 
L 284.706676 168.022109 
L 284.819223 168.095937 
L 284.929606 168.054123 
L 285.039988 168.088976 
L 285.150371 168.047526 
L 285.260753 168.082745 
L 285.371136 168.041638 
L 285.481519 168.0772 
L 285.591901 168.036416 
L 285.702284 168.0723 
L 285.812666 168.031816 
L 285.923049 168.068001 
L 285.955514 168.029151 
L 285.959843 168.105582 
L 286.031267 168.06481 
L 286.141649 168.099386 
L 286.252032 168.057558 
L 286.362415 168.092467 
L 286.472797 168.050954 
L 286.58318 168.086177 
L 286.693562 168.04496 
L 286.803945 168.08048 
L 286.914327 168.039541 
L 287.02471 168.075341 
L 287.135092 168.034663 
L 287.245475 168.070725 
L 287.27794 168.031778 
L 287.282269 168.108263 
L 287.353693 168.067351 
L 287.464076 168.101739 
L 287.574458 168.059674 
L 287.684841 168.094363 
L 287.795223 168.052583 
L 287.905606 168.08756 
L 288.015988 168.046049 
L 288.126371 168.081298 
L 288.236753 168.040043 
L 288.347136 168.07555 
L 288.457519 168.034536 
L 288.567901 168.070286 
L 288.678284 168.029499 
L 288.788666 168.065479 
L 288.795159 168.027013 
L 288.799488 168.103557 
L 288.896884 168.061535 
L 289.007267 168.095841 
L 289.117649 168.053594 
L 289.228032 168.088176 
L 289.338415 168.046189 
L 289.448797 168.081035 
L 289.55918 168.039297 
L 289.669562 168.074395 
L 289.779945 168.032895 
L 289.890327 168.068233 
L 290.00071 168.02696 
L 290.111092 168.062526 
L 290.221475 168.021467 
L 290.331857 168.057251 
L 290.44224 168.016396 
L 290.552623 168.052385 
L 290.602403 168.012967 
L 290.606732 168.089581 
L 290.660841 168.049152 
L 290.771223 168.083412 
L 290.881606 168.04106 
L 290.991988 168.075577 
L 291.102371 168.03347 
L 291.212753 168.068235 
L 291.323136 168.026363 
L 291.433519 168.061367 
L 291.543901 168.019721 
L 291.654284 168.054955 
L 291.764666 168.013526 
L 291.875049 168.048979 
L 291.985431 168.007757 
L 292.095814 168.043421 
L 292.206196 168.002398 
L 292.316579 168.038263 
L 292.426961 167.997429 
L 292.537344 168.033486 
L 292.647727 167.992832 
L 292.758109 168.029072 
L 292.868492 167.988589 
L 292.981039 168.061518 
L 293.091421 168.019291 
L 293.201804 168.054014 
L 293.312186 168.012014 
L 293.422569 168.046967 
L 293.532951 168.005187 
L 293.643334 168.040363 
L 293.753716 167.998795 
L 293.864099 168.034185 
L 293.974481 167.992822 
L 294.084864 168.02842 
L 294.195247 167.987253 
L 294.305629 168.02305 
L 294.416012 167.982072 
L 294.526394 168.018061 
L 294.636777 167.977265 
L 294.747159 168.013438 
L 294.857542 167.972815 
L 294.967924 168.009164 
L 295.078307 167.968707 
L 295.188689 168.005224 
L 295.299072 167.964926 
L 295.409455 168.001604 
L 295.519837 167.961456 
L 295.63022 167.998287 
L 295.740602 167.958283 
L 295.850985 167.995259 
L 295.957039 167.955445 
L 295.959203 167.993876 
L 296.069585 168.029045 
L 296.179968 167.987406 
L 296.290351 168.022778 
L 296.400733 167.981334 
L 296.511116 168.016905 
L 296.621498 167.975649 
L 296.731881 168.011411 
L 296.842263 167.970338 
L 296.952646 168.006285 
L 297.063028 167.965388 
L 297.173411 168.001515 
L 297.283793 167.960788 
L 297.394176 167.997087 
L 297.504559 167.956523 
L 297.614941 167.992988 
L 297.725324 167.952582 
L 297.835706 167.989206 
L 297.946089 167.948951 
L 298.056471 167.985728 
L 298.166854 167.945617 
L 298.277236 167.982541 
L 298.387619 167.942568 
L 298.498001 167.979631 
L 298.608384 167.93979 
L 298.718767 167.976987 
L 298.829149 167.93727 
L 298.939532 167.974593 
L 299.049914 167.934995 
L 299.160297 167.972439 
L 299.270679 167.932953 
L 299.381062 167.970512 
L 299.491444 167.931132 
L 299.601827 167.968798 
L 299.712209 167.929518 
L 299.822592 167.967286 
L 299.932975 167.928099 
L 300.043357 167.965963 
L 300.15374 167.926864 
L 300.264122 167.964817 
L 300.374505 167.925801 
L 300.484887 167.963838 
L 300.59527 167.924897 
L 300.707817 168.00056 
L 300.818199 167.959763 
L 300.928582 167.996066 
L 301.038964 167.955407 
L 301.149347 167.99185 
L 301.259729 167.951326 
L 301.370112 167.987906 
L 301.480495 167.947512 
L 301.590877 167.984224 
L 301.70126 167.943956 
L 301.811642 167.980797 
L 301.922025 167.94065 
L 302.032407 167.977614 
L 302.14279 167.937584 
L 302.253172 167.974667 
L 302.363555 167.93475 
L 302.473937 167.971948 
L 302.58432 167.932139 
L 302.694703 167.969446 
L 302.805085 167.929741 
L 302.915468 167.967154 
L 303.02585 167.927548 
L 303.136233 167.965061 
L 303.246615 167.925549 
L 303.356998 167.963159 
L 303.46738 167.923737 
L 303.577763 167.961438 
L 303.688145 167.922102 
L 303.798528 167.959891 
L 303.908911 167.920636 
L 304.019293 167.958506 
L 304.129676 167.919328 
L 304.240058 167.957277 
L 304.350441 167.918171 
L 304.460823 167.956194 
L 304.571206 167.917156 
L 304.681588 167.955248 
L 304.791971 167.916274 
L 304.902353 167.954431 
L 305.012736 167.915516 
L 305.123119 167.953734 
L 305.233501 167.914875 
L 305.343884 167.95315 
L 305.454266 167.914343 
L 305.564649 167.952671 
L 305.675031 167.913911 
L 305.785414 167.952288 
L 305.895796 167.913572 
L 306.006179 167.951994 
L 306.116561 167.913318 
L 306.226944 167.951782 
L 306.337327 167.913143 
L 306.447709 167.951645 
L 306.558092 167.913038 
L 306.668474 167.951575 
L 306.778857 167.912998 
L 306.889239 167.951566 
L 306.999622 167.913016 
L 307.110004 167.951611 
L 307.220387 167.913085 
L 307.330769 167.951705 
L 307.441152 167.913199 
L 307.551535 167.951842 
L 307.661917 167.913353 
L 307.7723 167.952014 
L 307.882682 167.913541 
L 307.993065 167.952219 
L 308.103447 167.913757 
L 308.21383 167.952449 
L 308.324212 167.913997 
L 308.434595 167.952701 
L 308.544977 167.914256 
L 308.65536 167.952969 
L 308.765743 167.91453 
L 308.876125 167.95325 
L 308.986508 167.914814 
L 309.09689 167.953538 
L 309.207273 167.915104 
L 309.317655 167.953831 
L 309.428038 167.915396 
L 309.53842 167.954125 
L 309.648803 167.915687 
L 309.76135 167.991357 
L 309.871732 167.950999 
L 309.982115 167.987844 
L 310.092497 167.947555 
L 310.20288 167.984471 
L 310.313263 167.944251 
L 310.423645 167.981238 
L 310.534028 167.941085 
L 310.64441 167.978143 
L 310.754793 167.938058 
L 310.865175 167.975186 
L 310.975558 167.935168 
L 311.08594 167.972365 
L 311.196323 167.932414 
L 311.306705 167.969679 
L 311.417088 167.929794 
L 311.527471 167.967127 
L 311.637853 167.927306 
L 311.748236 167.964706 
L 311.858618 167.924949 
L 311.969001 167.962415 
L 312.079383 167.922721 
L 312.189766 167.960251 
L 312.300148 167.920618 
L 312.410531 167.958212 
L 312.520913 167.918639 
L 312.631296 167.956295 
L 312.741679 167.916781 
L 312.852061 167.954497 
L 312.962444 167.915042 
L 313.072826 167.952816 
L 313.183209 167.913417 
L 313.293591 167.951249 
L 313.403974 167.911904 
L 313.514356 167.949792 
L 313.624739 167.9105 
L 313.735121 167.948442 
L 313.845504 167.909201 
L 313.955887 167.947196 
L 314.066269 167.908004 
L 314.176652 167.94605 
L 314.287034 167.906906 
L 314.397417 167.945001 
L 314.507799 167.905903 
L 314.618182 167.944045 
L 314.728564 167.904992 
L 314.838947 167.943179 
L 314.949329 167.904168 
L 315.059712 167.942398 
L 315.170095 167.903428 
L 315.280477 167.9417 
L 315.39086 167.902769 
L 315.501242 167.94108 
L 315.611625 167.902186 
L 315.722007 167.940535 
L 315.83239 167.901676 
L 315.942772 167.940061 
L 316.053155 167.901235 
L 316.163537 167.939655 
L 316.27392 167.90086 
L 316.384303 167.939312 
L 316.494685 167.900546 
L 316.605068 167.939029 
L 316.71545 167.900291 
L 316.825833 167.938802 
L 316.936215 167.90009 
L 317.046598 167.938628 
L 317.15698 167.89994 
L 317.267363 167.938503 
L 317.377745 167.899838 
L 317.488128 167.938424 
L 317.598511 167.89978 
L 317.708893 167.938388 
L 317.819276 167.899763 
L 317.929658 167.93839 
L 318.040041 167.899782 
L 318.150423 167.938428 
L 318.260806 167.899837 
L 318.371188 167.938499 
L 318.481571 167.899922 
L 318.591953 167.9386 
L 318.702336 167.900035 
L 318.812719 167.938727 
L 318.923101 167.900174 
L 319.033484 167.938878 
L 319.143866 167.900335 
L 319.254249 167.939049 
L 319.364631 167.900515 
L 319.475014 167.939239 
L 319.585396 167.900713 
L 319.695779 167.939445 
L 319.806161 167.900924 
L 319.916544 167.939664 
L 320.026927 167.901148 
L 320.137309 167.939894 
L 320.247692 167.901382 
L 320.358074 167.940132 
L 320.468457 167.901623 
L 320.578839 167.940377 
L 320.689222 167.90187 
L 320.799604 167.940627 
L 320.909987 167.902121 
L 321.020369 167.940879 
L 321.130752 167.902373 
L 321.241135 167.941132 
L 321.351517 167.902625 
L 321.4619 167.941384 
L 321.572282 167.902875 
L 321.682665 167.941633 
L 321.793047 167.903122 
L 321.90343 167.941879 
L 322.013812 167.903365 
L 322.124195 167.942119 
L 322.234577 167.903601 
L 322.34496 167.942353 
L 322.455343 167.903831 
L 322.565725 167.94258 
L 322.676108 167.904053 
L 322.78649 167.942797 
L 322.896873 167.904265 
L 323.007255 167.943005 
L 323.117638 167.904467 
L 323.22802 167.943203 
L 323.338403 167.904659 
L 323.448785 167.94339 
L 323.559168 167.904839 
L 323.669551 167.943565 
L 323.779933 167.905007 
L 323.890316 167.943727 
L 324.000698 167.905163 
L 324.111081 167.943877 
L 324.221463 167.905306 
L 324.331846 167.944014 
L 324.442228 167.905435 
L 324.552611 167.944137 
L 324.662993 167.905551 
L 324.773376 167.944246 
L 324.883759 167.905653 
L 324.994141 167.944342 
L 325.104524 167.905741 
L 325.214906 167.944423 
L 325.325289 167.905815 
L 325.435671 167.944491 
L 325.546054 167.905875 
L 325.656436 167.944545 
L 325.766819 167.905922 
L 325.877201 167.944585 
L 325.987584 167.905955 
L 326.097967 167.944611 
L 326.208349 167.905974 
L 326.318732 167.944624 
L 326.429114 167.90598 
L 326.539497 167.944624 
L 326.649879 167.905973 
L 326.760262 167.944611 
L 326.870644 167.905953 
L 326.981027 167.944586 
L 327.091409 167.905921 
L 327.201792 167.944549 
L 327.312175 167.905877 
L 327.422557 167.944499 
L 327.53294 167.905822 
L 327.643322 167.944439 
L 327.753705 167.905756 
L 327.864087 167.944368 
L 327.97447 167.905679 
L 328.084852 167.944287 
L 328.195235 167.905592 
L 328.305617 167.944195 
L 328.416 167.905496 
L 328.526383 167.944095 
L 328.636765 167.905391 
L 328.747148 167.943986 
L 328.85753 167.905277 
L 328.967913 167.943869 
L 329.078295 167.905156 
L 329.188678 167.943744 
L 329.29906 167.905027 
L 329.409443 167.943613 
L 329.519825 167.904892 
L 329.630208 167.943475 
L 329.740591 167.904751 
L 329.850973 167.943331 
L 329.961356 167.904604 
L 330.071738 167.943182 
L 330.182121 167.904452 
L 330.292503 167.943029 
L 330.402886 167.904296 
L 330.513268 167.942871 
L 330.623651 167.904137 
L 330.734033 167.94271 
L 330.844416 167.903974 
L 330.954799 167.942546 
L 331.065181 167.903808 
L 331.175564 167.94238 
L 331.285946 167.90364 
L 331.396329 167.942211 
L 331.506711 167.903471 
L 331.617094 167.942042 
L 331.727476 167.903301 
L 331.837859 167.941872 
L 331.948241 167.90313 
L 332.058624 167.941701 
L 332.169007 167.902959 
L 332.279389 167.94153 
L 332.389772 167.902788 
L 332.500154 167.94136 
L 332.610537 167.902618 
L 332.720919 167.941191 
L 332.831302 167.90245 
L 332.941684 167.941024 
L 333.052067 167.902283 
L 333.162449 167.940858 
L 333.272832 167.902118 
L 333.383215 167.940695 
L 333.493597 167.901955 
L 333.60398 167.940534 
L 333.714362 167.901796 
L 333.824745 167.940376 
L 333.935127 167.901639 
L 334.04551 167.940221 
L 334.155892 167.901486 
L 334.266275 167.94007 
L 334.376657 167.901336 
L 334.48704 167.939922 
L 334.597423 167.90119 
L 334.707805 167.939779 
L 334.818188 167.901048 
L 334.92857 167.939639 
L 335.038953 167.900911 
L 335.149335 167.939505 
L 335.259718 167.900778 
L 335.3701 167.939374 
L 335.480483 167.90065 
L 335.590865 167.939249 
L 335.701248 167.900526 
L 335.811631 167.939128 
L 335.922013 167.900408 
L 336.032396 167.939012 
L 336.142778 167.900294 
L 336.253161 167.938902 
L 336.363543 167.900186 
L 336.473926 167.938796 
L 336.584308 167.900083 
L 336.694691 167.938696 
L 336.805073 167.899985 
L 336.915456 167.938601 
L 337.025839 167.899893 
L 337.136221 167.938512 
L 337.246604 167.899806 
L 337.356986 167.938428 
L 337.467369 167.899724 
L 337.577751 167.938349 
L 337.688134 167.899647 
L 337.798516 167.938275 
L 337.908899 167.899576 
L 338.019281 167.938206 
L 338.129664 167.89951 
L 338.240047 167.938143 
L 338.350429 167.899449 
L 338.460812 167.938085 
L 338.571194 167.899393 
L 338.681577 167.938032 
L 338.791959 167.899342 
L 338.902342 167.937983 
L 339.012724 167.899296 
L 339.123107 167.93794 
L 339.233489 167.899255 
L 339.343872 167.937901 
L 339.454255 167.899218 
L 339.564637 167.937867 
L 339.67502 167.899186 
L 339.785402 167.937837 
L 339.895785 167.899158 
L 340.006167 167.937812 
L 340.11655 167.899134 
L 340.226932 167.93779 
L 340.337315 167.899115 
L 340.447697 167.937773 
L 340.55808 167.8991 
L 340.668463 167.93776 
L 340.778845 167.899088 
L 340.889228 167.93775 
L 340.99961 167.89908 
L 341.109993 167.937744 
L 341.220375 167.899075 
L 341.330758 167.937742 
L 341.44114 167.899074 
L 341.551523 167.937742 
L 341.661905 167.899076 
L 341.772288 167.937746 
L 341.882671 167.899081 
L 341.993053 167.937752 
L 342.103436 167.899088 
L 342.213818 167.937761 
L 342.324201 167.899099 
L 342.434583 167.937773 
L 342.544966 167.899111 
L 342.655348 167.937786 
L 342.765731 167.899126 
L 342.876113 167.937803 
L 342.986496 167.899143 
L 343.096879 167.937821 
L 343.207261 167.899162 
L 343.317644 167.937841 
L 343.428026 167.899182 
L 343.538409 167.937862 
L 343.648791 167.899204 
L 343.759174 167.937885 
L 343.869556 167.899228 
L 343.979939 167.93791 
L 344.090321 167.899253 
L 344.200704 167.937935 
L 344.311087 167.899279 
L 344.421469 167.937962 
L 344.531852 167.899306 
L 344.642234 167.937989 
L 344.752617 167.899334 
L 344.862999 167.938017 
L 344.973382 167.899362 
L 345.083764 167.938046 
L 345.194147 167.899391 
L 345.304529 167.938076 
L 345.414912 167.89942 
L 345.525295 167.938105 
L 345.635677 167.89945 
L 345.74606 167.938135 
L 345.856442 167.89948 
L 345.966825 167.938165 
L 346.077207 167.899509 
L 346.18759 167.938195 
L 346.297972 167.899539 
L 346.408355 167.938225 
L 346.518737 167.899569 
L 346.62912 167.938254 
L 346.739503 167.899598 
L 346.849885 167.938284 
L 346.960268 167.899627 
L 347.07065 167.938313 
L 347.181033 167.899656 
L 347.291415 167.938341 
L 347.401798 167.899683 
L 347.51218 167.938369 
L 347.622563 167.899711 
L 347.732945 167.938396 
L 347.843328 167.899738 
L 347.953711 167.938422 
L 348.064093 167.899764 
L 348.174476 167.938448 
L 348.284858 167.899789 
L 348.395241 167.938473 
L 348.505623 167.899813 
L 348.616006 167.938497 
L 348.726388 167.899837 
L 348.836771 167.93852 
L 348.947153 167.899859 
L 349.057536 167.938542 
L 349.167919 167.899881 
L 349.278301 167.938564 
L 349.388684 167.899901 
L 349.499066 167.938584 
L 349.609449 167.899921 
L 349.719831 167.938603 
L 349.830214 167.89994 
L 349.940596 167.938621 
L 350.050979 167.899957 
L 350.161361 167.938638 
L 350.271744 167.899974 
L 350.382127 167.938654 
L 350.492509 167.899989 
L 350.602892 167.938669 
L 350.713274 167.900003 
L 350.823657 167.938683 
L 350.934039 167.900016 
L 351.044422 167.938696 
L 351.154804 167.900029 
L 351.265187 167.938708 
L 351.375569 167.90004 
L 351.485952 167.938718 
L 351.596335 167.90005 
L 351.706717 167.938728 
L 351.8171 167.900059 
L 351.927482 167.938737 
L 352.037865 167.900067 
L 352.148247 167.938744 
L 352.25863 167.900074 
L 352.369012 167.938751 
L 352.479395 167.90008 
L 352.589777 167.938757 
L 352.70016 167.900085 
L 352.810543 167.938761 
L 352.920925 167.900089 
L 353.031308 167.938765 
L 353.14169 167.900093 
L 353.252073 167.938768 
L 353.362455 167.900095 
L 353.472838 167.93877 
L 353.58322 167.900097 
L 353.693603 167.938772 
L 353.803985 167.900098 
L 353.914368 167.938772 
L 354.024751 167.900098 
L 354.135133 167.938772 
L 354.245516 167.900097 
L 354.355898 167.938771 
L 354.466281 167.900096 
L 354.576663 167.93877 
L 354.687046 167.900094 
L 354.797428 167.938768 
L 354.907811 167.900091 
L 355.018193 167.938765 
L 355.128576 167.900088 
L 355.238959 167.938761 
L 355.349341 167.900085 
L 355.459724 167.938758 
L 355.570106 167.90008 
L 355.680489 167.938753 
L 355.790871 167.900076 
L 355.901254 167.938748 
L 356.011636 167.900071 
L 356.122019 167.938743 
L 356.232401 167.900065 
L 356.342784 167.938738 
L 356.453167 167.90006 
L 356.563549 167.938732 
L 356.673932 167.900053 
L 356.784314 167.938726 
L 356.894697 167.900047 
L 357.005079 167.938719 
L 357.115462 167.900041 
L 357.225844 167.938713 
L 357.336227 167.900034 
L 357.446609 167.938706 
L 357.556992 167.900027 
L 357.667375 167.938699 
L 357.777757 167.90002 
L 357.88814 167.938692 
L 357.998522 167.900012 
L 358.108905 167.938685 
L 358.219287 167.900005 
L 358.32967 167.938677 
L 358.440052 167.899998 
L 358.550435 167.93867 
L 358.660817 167.89999 
L 358.7712 167.938663 
L 358.881583 167.899983 
L 358.991965 167.938655 
L 359.102348 167.899976 
L 359.21273 167.938648 
L 359.323113 167.899968 
L 359.433495 167.938641 
L 359.543878 167.899961 
L 359.65426 167.938634 
L 359.764643 167.899954 
L 359.875025 167.938627 
L 359.985408 167.899947 
L 360.095791 167.93862 
L 360.206173 167.89994 
L 360.316556 167.938614 
L 360.426938 167.899934 
L 360.537321 167.938607 
L 360.647703 167.899927 
L 360.758086 167.938601 
L 360.868468 167.899921 
L 360.978851 167.938594 
L 361.089233 167.899915 
L 361.199616 167.938589 
L 361.309999 167.899909 
L 361.420381 167.938583 
L 361.530764 167.899903 
L 361.641146 167.938577 
L 361.751529 167.899898 
L 361.861911 167.938572 
L 361.972294 167.899893 
L 362.082676 167.938567 
L 362.193059 167.899888 
L 362.303441 167.938562 
L 362.413824 167.899883 
L 362.524207 167.938558 
L 362.634589 167.899879 
L 362.744972 167.938554 
L 362.855354 167.899874 
L 362.965737 167.93855 
L 363.076119 167.899871 
L 363.186502 167.938546 
L 363.296884 167.899867 
L 363.407267 167.938542 
L 363.517649 167.899864 
L 363.628032 167.938539 
L 363.738415 167.89986 
L 363.848797 167.938536 
L 363.95918 167.899858 
L 364.069562 167.938534 
L 364.179945 167.899855 
L 364.290327 167.938531 
L 364.40071 167.899853 
L 364.511092 167.938529 
L 364.621475 167.899851 
L 364.731857 167.938527 
L 364.84224 167.899849 
L 364.952623 167.938526 
L 365.063005 167.899847 
L 365.173388 167.938524 
L 365.28377 167.899846 
L 365.394153 167.938523 
L 365.504535 167.899845 
L 365.614918 167.938522 
L 365.7253 167.899844 
L 365.835683 167.938521 
L 365.946065 167.899844 
L 366.056448 167.938521 
L 366.166831 167.899843 
L 366.277213 167.938521 
L 366.387596 167.899843 
L 366.497978 167.938521 
L 366.608361 167.899843 
L 366.718743 167.938521 
L 366.829126 167.899843 
L 366.939508 167.938521 
L 367.049891 167.899844 
L 367.160273 167.938522 
L 367.270656 167.899844 
L 367.381039 167.938522 
L 367.491421 167.899845 
L 367.601804 167.938523 
L 367.712186 167.899846 
L 367.822569 167.938524 
L 367.932951 167.899847 
L 368.043334 167.938525 
L 368.153716 167.899848 
L 368.264099 167.938527 
L 368.374481 167.899849 
L 368.484864 167.938528 
L 368.595247 167.899851 
L 368.705629 167.938529 
L 368.816012 167.899852 
L 368.926394 167.938531 
L 369.036777 167.899854 
L 369.147159 167.938533 
L 369.257542 167.899855 
L 369.367924 167.938534 
L 369.478307 167.899857 
L 369.588689 167.938536 
L 369.699072 167.899859 
L 369.809455 167.938538 
L 369.919837 167.899861 
L 370.03022 167.93854 
L 370.140602 167.899863 
L 370.250985 167.938542 
L 370.361367 167.899865 
L 370.47175 167.938544 
L 370.582132 167.899867 
L 370.692515 167.938546 
L 370.802897 167.899869 
L 370.91328 167.938548 
L 371.023663 167.899871 
L 371.134045 167.938551 
L 371.244428 167.899873 
L 371.35481 167.938553 
L 371.465193 167.899875 
L 371.575575 167.938555 
L 371.685958 167.899878 
L 371.79634 167.938557 
L 371.906723 167.89988 
L 372.017105 167.938559 
L 372.127488 167.899882 
L 372.237871 167.938561 
L 372.348253 167.899884 
L 372.458636 167.938563 
L 372.569018 167.899886 
L 372.679401 167.938565 
L 372.789783 167.899888 
L 372.900166 167.938568 
L 373.010548 167.89989 
L 373.120931 167.93857 
L 373.231313 167.899892 
L 373.341696 167.938572 
L 373.452079 167.899894 
L 373.562461 167.938573 
L 373.672844 167.899896 
L 373.783226 167.938575 
L 373.893609 167.899898 
L 374.003991 167.938577 
L 374.114374 167.899899 
L 374.224756 167.938579 
L 374.335139 167.899901 
L 374.445521 167.938581 
L 374.555904 167.899903 
L 374.666287 167.938582 
L 374.776669 167.899904 
L 374.887052 167.938584 
L 374.997434 167.899906 
L 375.107817 167.938585 
L 375.218199 167.899907 
L 375.328582 167.938587 
L 375.438964 167.899909 
L 375.549347 167.938588 
L 375.659729 167.89991 
L 375.770112 167.93859 
L 375.880495 167.899911 
L 375.990877 167.938591 
L 376.10126 167.899913 
L 376.211642 167.938592 
L 376.322025 167.899914 
L 376.432407 167.938593 
L 376.54279 167.899915 
L 376.653172 167.938594 
L 376.763555 167.899916 
L 376.873937 167.938595 
L 376.98432 167.899917 
L 377.094703 167.938596 
L 377.205085 167.899918 
L 377.315468 167.938597 
L 377.42585 167.899919 
L 377.536233 167.938598 
L 377.646615 167.899919 
L 377.756998 167.938599 
L 377.86738 167.89992 
L 377.977763 167.938599 
L 378.088145 167.899921 
L 378.198528 167.9386 
L 378.308911 167.899921 
L 378.419293 167.938601 
L 378.529676 167.899922 
L 378.640058 167.938601 
L 378.750441 167.899922 
L 378.860823 167.938602 
L 378.971206 167.899923 
L 379.081588 167.938602 
L 379.191971 167.899923 
L 379.302353 167.938602 
L 379.412736 167.899923 
L 379.523119 167.938603 
L 379.633501 167.899923 
L 379.743884 167.938603 
L 379.854266 167.899924 
L 379.964649 167.938603 
L 380.075031 167.899924 
L 380.185414 167.938603 
L 380.295796 167.899924 
L 380.406179 167.938603 
L 380.516561 167.899924 
L 380.626944 167.938603 
L 380.737327 167.899924 
L 380.847709 167.938603 
L 380.958092 167.899924 
L 381.068474 167.938603 
L 381.178857 167.899924 
L 381.289239 167.938603 
L 381.399622 167.899924 
L 381.510004 167.938603 
L 381.620387 167.899924 
L 381.730769 167.938603 
L 381.841152 167.899923 
L 381.951535 167.938603 
L 382.061917 167.899923 
L 382.1723 167.938603 
L 382.282682 167.899923 
L 382.393065 167.938602 
L 382.503447 167.899923 
L 382.61383 167.938602 
L 382.724212 167.899923 
L 382.834595 167.938602 
L 382.944977 167.899922 
L 383.05536 167.938602 
L 383.165743 167.899922 
L 383.276125 167.938601 
L 383.386508 167.899922 
L 383.49689 167.938601 
L 383.607273 167.899922 
L 383.717655 167.938601 
L 383.828038 167.899921 
L 383.93842 167.938601 
L 384.048803 167.899921 
L 384.159185 167.9386 
L 384.269568 167.899921 
L 384.379951 167.9386 
L 384.490333 167.89992 
L 384.600716 167.9386 
L 384.711098 167.89992 
L 384.821481 167.938599 
L 384.931863 167.89992 
L 385.042246 167.938599 
L 385.152628 167.899919 
L 385.263011 167.938599 
L 385.373393 167.899919 
L 385.483776 167.938598 
L 385.594159 167.899919 
L 385.704541 167.938598 
L 385.814924 167.899918 
L 385.925306 167.938598 
L 386.035689 167.899918 
L 386.146071 167.938597 
L 386.256454 167.899918 
L 386.366836 167.938597 
L 386.477219 167.899917 
L 386.587601 167.938597 
L 386.697984 167.899917 
L 386.808367 167.938597 
L 386.918749 167.899917 
L 387.029132 167.938596 
L 387.139514 167.899917 
L 387.249897 167.938596 
L 387.360279 167.899916 
L 387.470662 167.938596 
L 387.581044 167.899916 
L 387.691427 167.938596 
L 387.801809 167.899916 
L 387.912192 167.938595 
L 388.022575 167.899916 
L 388.132957 167.938595 
L 388.24334 167.899915 
L 388.353722 167.938595 
L 388.464105 167.899915 
L 388.574487 167.938595 
L 388.68487 167.899915 
L 388.795252 167.938595 
L 388.905635 167.899915 
L 389.016017 167.938595 
L 389.1264 167.899915 
L 389.236783 167.938594 
L 389.347165 167.899915 
L 389.457548 167.938594 
L 389.56793 167.899914 
L 389.678313 167.938594 
L 389.788695 167.899914 
L 389.899078 167.938594 
L 390.00946 167.899914 
L 390.119843 167.938594 
L 390.230225 167.899914 
L 390.340608 167.938594 
L 390.450991 167.899914 
L 390.561373 167.938594 
L 390.671756 167.899914 
L 390.782138 167.938594 
L 390.892521 167.899914 
L 391.002903 167.938594 
L 391.113286 167.899914 
L 391.223668 167.938594 
L 391.334051 167.899914 
L 391.444433 167.938594 
L 391.554816 167.899914 
L 391.665199 167.938594 
L 391.775581 167.899914 
L 391.885964 167.938594 
L 391.996346 167.899914 
L 392.106729 167.938594 
L 392.217111 167.899914 
L 392.327494 167.938594 
L 392.437876 167.899914 
L 392.548259 167.938594 
L 392.658641 167.899914 
L 392.769024 167.938594 
L 392.879407 167.899914 
L 392.989789 167.938594 
L 393.100172 167.899914 
L 393.210554 167.938594 
L 393.320937 167.899914 
L 393.431319 167.938594 
L 393.541702 167.899914 
L 393.652084 167.938594 
L 393.762467 167.899915 
L 393.872849 167.938594 
L 393.983232 167.899915 
L 394.093615 167.938595 
L 394.203997 167.899915 
L 394.31438 167.938595 
L 394.424762 167.899915 
L 394.535145 167.938595 
L 394.645527 167.899915 
L 394.75591 167.938595 
L 394.866292 167.899915 
L 394.976675 167.938595 
L 395.087057 167.899915 
L 395.19744 167.938595 
L 395.307823 167.899915 
L 395.418205 167.938595 
L 395.528588 167.899915 
L 395.63897 167.938596 
L 395.749353 167.899916 
L 395.859735 167.938596 
L 395.970118 167.899916 
L 396.0805 167.938596 
L 396.190883 167.899916 
L 396.301265 167.938596 
L 396.411648 167.899916 
L 396.522031 167.938596 
L 396.632413 167.899916 
L 396.742796 167.938596 
L 396.853178 167.899916 
L 396.963561 167.938596 
L 397.073943 167.899917 
L 397.184326 167.938597 
L 397.294708 167.899917 
L 397.405091 167.938597 
L 397.515473 167.899917 
L 397.625856 167.938597 
L 397.736239 167.899917 
L 397.846621 167.938597 
L 397.957004 167.899917 
L 398.067386 167.938597 
L 398.177769 167.899917 
L 398.288151 167.938597 
L 398.398534 167.899917 
L 398.487273 167.938598 
L 398.487273 167.938598 
" clip-path="url(#p2618f867b4)" style="fill: none; stroke-dasharray: 9.6,2.4,1.5,2.4; stroke-dashoffset: 0; stroke: #0000ff; stroke-width: 1.5"/>
   </g>
   <g id="line2d_32">
    <path d="M 73.832727 167.919261 
L 73.951767 167.811534 
L 74.131409 167.252177 
L 74.408448 165.53546 
L 74.806691 161.489396 
L 75.365097 153.284659 
L 78.139811 108.247935 
L 79.211171 95.825993 
L 80.163491 87.208815 
L 80.996771 81.551038 
L 81.713175 78.091115 
L 82.312704 76.187948 
L 82.797521 75.304028 
L 83.176285 75.016655 
L 83.485789 75.041528 
L 83.803951 75.307835 
L 84.189207 75.952766 
L 84.663203 77.222543 
L 85.238924 79.454461 
L 85.927191 83.081323 
L 86.738828 88.634374 
L 87.688983 96.768272 
L 88.805795 108.356165 
L 90.143372 124.690036 
L 91.83374 148.251869 
L 94.58681 190.270477 
L 97.504372 233.709801 
L 99.17959 255.432383 
L 100.521495 270.105705 
L 101.649129 280.141576 
L 102.610106 286.83374 
L 103.426071 291.070522 
L 104.112175 293.558142 
L 104.672745 294.841737 
L 105.118604 295.374417 
L 105.469231 295.48706 
L 105.787392 295.355104 
L 106.144512 294.941358 
L 106.577385 294.063766 
L 107.101161 292.453688 
L 107.726662 289.753169 
L 108.460381 285.528309 
L 109.31314 279.232424 
L 110.297926 270.208043 
L 111.442874 257.55021 
L 112.795601 239.986771 
L 114.477312 215.060856 
L 117.042083 173.273963 
L 120.325423 120.506536 
L 122.011462 96.959733 
L 123.357696 81.092565 
L 124.487494 70.245365 
L 125.450636 63.002335 
L 126.268765 58.408058 
L 126.957033 55.701815 
L 127.519767 54.296477 
L 127.965626 53.705833 
L 128.314089 53.568035 
L 128.621428 53.682772 
L 128.965562 54.073896 
L 129.383284 54.920289 
L 129.894074 56.505078 
L 130.506589 59.192114 
L 131.227322 63.426258 
L 132.06926 69.783549 
L 133.049716 78.985661 
L 134.196829 91.974473 
L 135.5712 110.214692 
L 137.341649 136.900098 
L 143.58151 233.734037 
L 144.927744 249.811593 
L 146.04672 260.674991 
L 146.992547 267.836717 
L 147.793361 272.332932 
L 148.46215 274.93207 
L 149.005405 276.247057 
L 149.431785 276.771612 
L 149.762932 276.868895 
L 150.063779 276.721636 
L 150.407913 276.278179 
L 150.829964 275.334914 
L 151.347247 273.583247 
L 151.966255 270.637956 
L 152.697809 265.996041 
L 153.552733 259.047315 
L 154.550505 249.005902 
L 155.730083 234.749066 
L 157.171549 214.454946 
L 159.162764 182.967616 
L 163.322671 116.551344 
L 164.807424 96.776207 
L 165.999988 83.675896 
L 166.99776 75.005176 
L 167.837533 69.505985 
L 168.538787 66.256436 
L 169.112343 64.541755 
L 169.564695 63.800588 
L 169.910993 63.601223 
L 170.201018 63.680914 
L 170.517015 64.023949 
L 170.904436 64.808468 
L 171.382761 66.326863 
L 171.96281 68.972896 
L 172.651078 73.229813 
L 173.46055 79.725272 
L 174.408541 89.243221 
L 175.529681 102.877585 
L 176.901888 122.456491 
L 178.784884 152.820565 
L 182.916655 220.260591 
L 184.323491 239.148942 
L 185.453289 251.516213 
L 186.392623 259.527432 
L 187.178287 264.473118 
L 187.827596 267.278312 
L 188.351372 268.665435 
L 188.753943 269.189881 
L 189.059119 269.270813 
L 189.336157 269.106929 
L 189.662976 268.623002 
L 190.072041 267.575156 
L 190.576337 265.612032 
L 191.184524 262.274489 
L 191.905257 256.987707 
L 192.753687 249.008955 
L 193.755788 237.348385 
L 194.963503 220.52926 
L 196.51968 195.503784 
L 202.121053 102.361328 
L 203.283316 88.165005 
L 204.237801 79.037753 
L 205.029958 73.426151 
L 205.683596 70.238024 
L 206.207372 68.664773 
L 206.607779 68.064637 
L 206.904297 67.960543 
L 207.16402 68.108485 
L 207.47136 68.572458 
L 207.860945 69.609965 
L 208.345763 71.598021 
L 208.932305 75.020226 
L 209.633559 80.529368 
L 210.462511 88.927783 
L 211.445132 101.294263 
L 212.63986 119.324098 
L 214.217681 146.79079 
L 218.847255 229.531961 
L 220.031162 245.723806 
L 220.987811 255.981003 
L 221.775639 262.231283 
L 222.42062 265.741669 
L 222.933574 267.450002 
L 223.323159 268.089009 
L 223.602362 268.192654 
L 223.844771 268.04126 
L 224.13696 267.559885 
L 224.513559 266.457898 
L 224.985391 264.316493 
L 225.558947 260.591543 
L 226.247215 254.547136 
L 227.06318 245.280908 
L 228.039308 231.491936 
L 229.242694 211.119753 
L 230.911418 178.705671 
L 234.354921 111.109034 
L 235.571293 91.978055 
L 236.281204 83.610798 
L 236.579887 82.309277 
L 236.731392 82.211672 
L 236.750871 82.226056 
L 236.889391 82.488325 
L 237.11232 83.49018 
L 237.430481 86.059344 
L 237.891491 91.85265 
L 238.508335 102.688104 
L 239.389231 122.380022 
L 243.137908 210.767642 
L 244.007983 224.267112 
L 244.748195 232.511239 
L 245.352052 236.976898 
L 245.849856 239.159961 
L 246.232948 239.947286 
L 246.477521 240.0601 
L 246.698287 239.910631 
L 246.988311 239.365086 
L 247.375732 238.049222 
L 247.888687 235.350963 
L 248.535831 230.576121 
L 249.343139 222.859924 
L 250.511895 209.26657 
L 254.725911 157.852452 
L 255.875188 147.600854 
L 256.840495 140.968475 
L 257.630487 136.919624 
L 258.338234 134.314346 
L 258.983215 132.73449 
L 259.537292 131.937071 
L 260.041588 131.624356 
L 260.502598 131.649914 
L 261.019881 131.999538 
L 261.643217 132.809285 
L 262.491648 134.4761 
L 263.506735 137.088395 
L 265.000145 141.591914 
L 267.272727 148.486172 
L 268.748823 152.302966 
L 270.125359 155.150667 
L 271.274636 156.986978 
L 272.255092 158.18682 
L 273.532067 159.311136 
L 275.179148 160.215329 
L 277.19417 160.801757 
L 281.27616 161.61278 
L 285.5616 162.987435 
L 289.888163 164.654442 
L 291.883706 165.322241 
L 297.651735 166.598197 
L 299.086708 166.762629 
L 301.138525 166.957067 
L 302.538868 167.113848 
L 310.122799 167.493454 
L 311.575087 167.636098 
L 323.496401 167.800092 
L 325.597999 167.830585 
L 327.777513 167.865206 
L 330.0133 167.896393 
L 332.10624 167.917943 
L 334.380986 167.931183 
L 336.486912 167.935547 
L 338.709713 167.934084 
L 340.863255 167.929975 
L 343.034112 167.925073 
L 345.222284 167.921334 
L 347.380154 167.919013 
L 349.568326 167.918435 
L 351.734854 167.918728 
L 353.910039 167.919759 
L 356.085225 167.920593 
L 358.256081 167.921362 
L 360.431267 167.92151 
L 362.602124 167.921516 
L 364.777309 167.921057 
L 366.948166 167.920721 
L 369.119023 167.920182 
L 371.294208 167.919956 
L 373.465065 167.919627 
L 375.64025 167.919626 
L 377.811107 167.91948 
L 379.986292 167.919594 
L 382.161478 167.919495 
L 384.332335 167.919609 
L 386.50752 167.919483 
L 388.678377 167.919564 
L 390.853562 167.919413 
L 393.028748 167.919482 
L 395.203933 167.919333 
L 397.379119 167.919413 
L 398.487273 167.919401 
L 398.487273 167.919401 
" clip-path="url(#p2618f867b4)" style="fill: none; stroke-dasharray: 5.55,2.4; stroke-dashoffset: 0; stroke: #ff0000; stroke-width: 1.5"/>
   </g>
   <g id="line2d_33">
    <path d="M 73.832727 167.919261 
L 74.841321 167.808262 
L 75.434356 167.50358 
L 76.005748 166.947197 
L 76.659386 165.975677 
L 77.436393 164.396098 
L 78.369233 161.962781 
L 79.505524 158.336626 
L 80.953484 152.917061 
L 83.184943 143.581211 
L 86.301626 130.692149 
L 87.859968 125.194808 
L 89.104477 121.571443 
L 90.152029 119.164541 
L 91.045911 117.632127 
L 91.81426 116.727148 
L 92.47872 116.266047 
L 93.069591 116.113711 
L 93.630161 116.197344 
L 94.203718 116.515044 
L 94.829219 117.129958 
L 95.528308 118.147207 
L 96.320465 119.714944 
L 97.220841 122.017498 
L 98.246749 125.284384 
L 99.424163 129.814131 
L 100.800698 136.040239 
L 102.484573 144.750683 
L 104.887017 158.482096 
L 108.936541 181.626501 
L 110.668032 190.171616 
L 112.064047 196.002864 
L 113.245789 200.038968 
L 114.265204 202.776937 
L 115.1461 204.548039 
L 115.907956 205.616227 
L 116.568087 206.185976 
L 117.150301 206.411342 
L 117.691392 206.387351 
L 118.238976 206.135011 
L 118.834176 205.603123 
L 119.505129 204.68749 
L 120.273478 203.239283 
L 121.156538 201.071274 
L 122.175953 197.944205 
L 123.366353 193.533539 
L 124.794833 187.336536 
L 126.658351 178.18226 
L 132.558406 148.454592 
L 133.999872 142.703536 
L 135.196765 138.788805 
L 136.220509 136.155191 
L 137.101405 134.463424 
L 137.861097 133.453373 
L 138.516899 132.925658 
L 139.096948 132.728615 
L 139.640204 132.774792 
L 140.194281 133.051208 
L 140.798138 133.613694 
L 141.482077 134.573836 
L 142.263412 136.077749 
L 143.161623 138.316737 
L 144.202682 141.542498 
L 145.429876 146.111232 
L 146.934109 152.623941 
L 149.05735 162.911757 
L 152.979177 181.990561 
L 154.544012 188.423238 
L 155.801507 192.707403 
L 156.862045 195.579663 
L 157.768913 197.436567 
L 158.548084 198.561572 
L 159.221201 199.170198 
L 159.812073 199.421483 
L 160.357492 199.416799 
L 160.902912 199.185114 
L 161.493783 198.68012 
L 162.158243 197.802248 
L 162.920099 196.404243 
L 163.798831 194.298293 
L 164.82041 191.237799 
L 166.030289 186.868062 
L 167.530193 180.561162 
L 169.768145 170.063801 
L 172.954089 155.261016 
L 174.486458 149.203795 
L 175.707159 145.229936 
L 176.730903 142.606015 
L 177.603142 140.940304 
L 178.349847 139.958821 
L 178.992663 139.454639 
L 179.559727 139.276581 
L 180.094324 139.33925 
L 180.641908 139.634924 
L 181.243601 140.227049 
L 181.92754 141.232526 
L 182.713204 142.807625 
L 183.624401 145.162352 
L 184.695761 148.584758 
L 185.992215 153.518888 
L 187.708556 161.002195 
L 192.55673 182.646375 
L 193.870499 187.250175 
L 194.946188 190.260737 
L 195.853056 192.181929 
L 196.623569 193.331013 
L 197.2837 193.944578 
L 197.857257 194.192388 
L 198.383197 194.183797 
L 198.911302 193.947933 
L 199.487023 193.433522 
L 200.138496 192.534035 
L 200.88953 191.093696 
L 201.761769 188.910851 
L 202.789841 185.702512 
L 204.038679 181.029185 
L 205.705239 173.854309 
L 210.185472 154.129299 
L 211.455953 149.751323 
L 212.488355 146.940519 
L 213.351936 145.188791 
L 214.083491 144.170642 
L 214.704663 143.658202 
L 215.247919 143.481909 
L 215.75438 143.548439 
L 216.275991 143.84977 
L 216.853876 144.456543 
L 217.516172 145.496413 
L 218.284521 147.143953 
L 219.184896 149.633538 
L 220.262749 153.310298 
L 221.619805 158.789799 
L 223.786333 168.61582 
L 226.19527 179.240278 
L 227.524189 184.129341 
L 228.571741 187.19315 
L 229.439651 189.09308 
L 230.166877 190.190716 
L 230.779392 190.744614 
L 231.307497 190.941665 
L 231.794479 190.890061 
L 232.292282 190.605616 
L 232.846359 190.016185 
L 233.484847 188.988872 
L 234.229388 187.341071 
L 235.108119 184.821351 
L 236.170822 181.053838 
L 238.577594 172.215685 
L 239.404381 170.124227 
L 240.073169 168.986618 
L 240.627247 168.444135 
L 241.099078 168.26988 
L 241.540608 168.341105 
L 242.008111 168.653248 
L 242.55353 169.305231 
L 243.215825 170.471912 
L 244.044777 172.419224 
L 245.15726 175.653214 
L 249.771683 189.754014 
L 250.780276 191.813289 
L 251.648186 193.111127 
L 252.414371 193.881002 
L 253.106967 194.277865 
L 253.760605 194.403202 
L 254.416407 194.301539 
L 255.124154 193.958832 
L 255.931462 193.308336 
L 256.903261 192.221694 
L 258.154263 190.463081 
L 260.1563 187.205764 
L 263.149615 182.400096 
L 264.874612 180.062686 
L 266.439447 178.307557 
L 267.976145 176.913201 
L 269.577775 175.759628 
L 271.36121 174.75313 
L 273.549382 173.784074 
L 276.735325 172.638374 
L 281.782621 171.071106 
L 285.76505 170.048025 
L 289.314607 169.365112 
L 293.113065 168.867919 
L 297.744803 168.495995 
L 304.646959 168.190278 
L 314.501306 167.994268 
L 339.469405 167.915664 
L 398.487273 167.919208 
L 398.487273 167.919208 
" clip-path="url(#p2618f867b4)" style="fill: none; stroke: #008000; stroke-width: 1.5; stroke-linecap: square"/>
   </g>
   <g id="patch_3">
    <path d="M 57.6 307.584 
L 57.6 41.472 
" style="fill: none; stroke: #000000; stroke-width: 0.8; stroke-linejoin: miter; stroke-linecap: square"/>
   </g>
   <g id="patch_4">
    <path d="M 414.72 307.584 
L 414.72 41.472 
" style="fill: none; stroke: #000000; stroke-width: 0.8; stroke-linejoin: miter; stroke-linecap: square"/>
   </g>
   <g id="patch_5">
    <path d="M 57.6 307.584 
L 414.72 307.584 
" style="fill: none; stroke: #000000; stroke-width: 0.8; stroke-linejoin: miter; stroke-linecap: square"/>
   </g>
   <g id="patch_6">
    <path d="M 57.6 41.472 
L 414.72 41.472 
" style="fill: none; stroke: #000000; stroke-width: 0.8; stroke-linejoin: miter; stroke-linecap: square"/>
   </g>
   <g id="text_18">
    <!-- theta vs time -->
    <g transform="translate(196.238438 35.472)scale(0.12 -0.12)">
     <defs>
      <path id="DejaVuSans-76" d="M 191 3500 
L 800 3500 
L 1894 563 
L 2988 3500 
L 3597 3500 
L 2284 0 
L 1503 0 
L 191 3500 
z
" transform="scale(0.015625)"/>
     </defs>
     <use xlink:href="#DejaVuSans-74"/>
     <use xlink:href="#DejaVuSans-68" x="39.208984"/>
     <use xlink:href="#DejaVuSans-65" x="102.587891"/>
     <use xlink:href="#DejaVuSans-74" x="164.111328"/>
     <use xlink:href="#DejaVuSans-61" x="203.320312"/>
     <use xlink:href="#DejaVuSans-20" x="264.599609"/>
     <use xlink:href="#DejaVuSans-76" x="296.386719"/>
     <use xlink:href="#DejaVuSans-73" x="355.566406"/>
     <use xlink:href="#DejaVuSans-20" x="407.666016"/>
     <use xlink:href="#DejaVuSans-74" x="439.453125"/>
     <use xlink:href="#DejaVuSans-69" x="478.662109"/>
     <use xlink:href="#DejaVuSans-6d" x="506.445312"/>
     <use xlink:href="#DejaVuSans-65" x="603.857422"/>
    </g>
   </g>
   <g id="legend_1">
    <g id="patch_7">
     <path d="M 237.141875 94.062625 
L 407.72 94.062625 
Q 409.72 94.062625 409.72 92.062625 
L 409.72 48.472 
Q 409.72 46.472 407.72 46.472 
L 237.141875 46.472 
Q 235.141875 46.472 235.141875 48.472 
L 235.141875 92.062625 
Q 235.141875 94.062625 237.141875 94.062625 
z
" style="fill: #ffffff; opacity: 0.8; stroke: #cccccc; stroke-linejoin: miter"/>
    </g>
    <g id="line2d_34">
     <path d="M 239.141875 54.570437 
L 249.141875 54.570437 
L 259.141875 54.570437 
" style="fill: none; stroke-dasharray: 9.6,2.4,1.5,2.4; stroke-dashoffset: 0; stroke: #0000ff; stroke-width: 1.5"/>
    </g>
    <g id="text_19">
     <!-- theta_dot_dot (degree/s^2) -->
     <g transform="translate(267.141875 58.070437)scale(0.1 -0.1)">
      <defs>
       <path id="DejaVuSans-5f" d="M 3263 -1063 
L 3263 -1509 
L -63 -1509 
L -63 -1063 
L 3263 -1063 
z
" transform="scale(0.015625)"/>
       <path id="DejaVuSans-64" d="M 2906 2969 
L 2906 4863 
L 3481 4863 
L 3481 0 
L 2906 0 
L 2906 525 
Q 2725 213 2448 61 
Q 2172 -91 1784 -91 
Q 1150 -91 751 415 
Q 353 922 353 1747 
Q 353 2572 751 3078 
Q 1150 3584 1784 3584 
Q 2172 3584 2448 3432 
Q 2725 3281 2906 2969 
z
M 947 1747 
Q 947 1113 1208 752 
Q 1469 391 1925 391 
Q 2381 391 2643 752 
Q 2906 1113 2906 1747 
Q 2906 2381 2643 2742 
Q 2381 3103 1925 3103 
Q 1469 3103 1208 2742 
Q 947 2381 947 1747 
z
" transform="scale(0.015625)"/>
       <path id="DejaVuSans-6f" d="M 1959 3097 
Q 1497 3097 1228 2736 
Q 959 2375 959 1747 
Q 959 1119 1226 758 
Q 1494 397 1959 397 
Q 2419 397 2687 759 
Q 2956 1122 2956 1747 
Q 2956 2369 2687 2733 
Q 2419 3097 1959 3097 
z
M 1959 3584 
Q 2709 3584 3137 3096 
Q 3566 2609 3566 1747 
Q 3566 888 3137 398 
Q 2709 -91 1959 -91 
Q 1206 -91 779 398 
Q 353 888 353 1747 
Q 353 2609 779 3096 
Q 1206 3584 1959 3584 
z
" transform="scale(0.015625)"/>
       <path id="DejaVuSans-67" d="M 2906 1791 
Q 2906 2416 2648 2759 
Q 2391 3103 1925 3103 
Q 1463 3103 1205 2759 
Q 947 2416 947 1791 
Q 947 1169 1205 825 
Q 1463 481 1925 481 
Q 2391 481 2648 825 
Q 2906 1169 2906 1791 
z
M 3481 434 
Q 3481 -459 3084 -895 
Q 2688 -1331 1869 -1331 
Q 1566 -1331 1297 -1286 
Q 1028 -1241 775 -1147 
L 775 -588 
Q 1028 -725 1275 -790 
Q 1522 -856 1778 -856 
Q 2344 -856 2625 -561 
Q 2906 -266 2906 331 
L 2906 616 
Q 2728 306 2450 153 
Q 2172 0 1784 0 
Q 1141 0 747 490 
Q 353 981 353 1791 
Q 353 2603 747 3093 
Q 1141 3584 1784 3584 
Q 2172 3584 2450 3431 
Q 2728 3278 2906 2969 
L 2906 3500 
L 3481 3500 
L 3481 434 
z
" transform="scale(0.015625)"/>
       <path id="DejaVuSans-72" d="M 2631 2963 
Q 2534 3019 2420 3045 
Q 2306 3072 2169 3072 
Q 1681 3072 1420 2755 
Q 1159 2438 1159 1844 
L 1159 0 
L 581 0 
L 581 3500 
L 1159 3500 
L 1159 2956 
Q 1341 3275 1631 3429 
Q 1922 3584 2338 3584 
Q 2397 3584 2469 3576 
Q 2541 3569 2628 3553 
L 2631 2963 
z
" transform="scale(0.015625)"/>
       <path id="DejaVuSans-2f" d="M 1625 4666 
L 2156 4666 
L 531 -594 
L 0 -594 
L 1625 4666 
z
" transform="scale(0.015625)"/>
       <path id="DejaVuSans-5e" d="M 2988 4666 
L 4684 2925 
L 4056 2925 
L 2681 4159 
L 1306 2925 
L 678 2925 
L 2375 4666 
L 2988 4666 
z
" transform="scale(0.015625)"/>
      </defs>
      <use xlink:href="#DejaVuSans-74"/>
      <use xlink:href="#DejaVuSans-68" x="39.208984"/>
      <use xlink:href="#DejaVuSans-65" x="102.587891"/>
      <use xlink:href="#DejaVuSans-74" x="164.111328"/>
      <use xlink:href="#DejaVuSans-61" x="203.320312"/>
      <use xlink:href="#DejaVuSans-5f" x="264.599609"/>
      <use xlink:href="#DejaVuSans-64" x="314.599609"/>
      <use xlink:href="#DejaVuSans-6f" x="378.076172"/>
      <use xlink:href="#DejaVuSans-74" x="439.257812"/>
      <use xlink:href="#DejaVuSans-5f" x="478.466797"/>
      <use xlink:href="#DejaVuSans-64" x="528.466797"/>
      <use xlink:href="#DejaVuSans-6f" x="591.943359"/>
      <use xlink:href="#DejaVuSans-74" x="653.125"/>
      <use xlink:href="#DejaVuSans-20" x="692.333984"/>
      <use xlink:href="#DejaVuSans-28" x="724.121094"/>
      <use xlink:href="#DejaVuSans-64" x="763.134766"/>
      <use xlink:href="#DejaVuSans-65" x="826.611328"/>
      <use xlink:href="#DejaVuSans-67" x="888.134766"/>
      <use xlink:href="#DejaVuSans-72" x="951.611328"/>
      <use xlink:href="#DejaVuSans-65" x="990.474609"/>
      <use xlink:href="#DejaVuSans-65" x="1051.998047"/>
      <use xlink:href="#DejaVuSans-2f" x="1113.521484"/>
      <use xlink:href="#DejaVuSans-73" x="1147.212891"/>
      <use xlink:href="#DejaVuSans-5e" x="1199.3125"/>
      <use xlink:href="#DejaVuSans-32" x="1283.101562"/>
      <use xlink:href="#DejaVuSans-29" x="1346.724609"/>
     </g>
    </g>
    <g id="line2d_35">
     <path d="M 239.141875 69.526687 
L 249.141875 69.526687 
L 259.141875 69.526687 
" style="fill: none; stroke-dasharray: 5.55,2.4; stroke-dashoffset: 0; stroke: #ff0000; stroke-width: 1.5"/>
    </g>
    <g id="text_20">
     <!-- theta_dot (degree/s) -->
     <g transform="translate(267.141875 73.026687)scale(0.1 -0.1)">
      <use xlink:href="#DejaVuSans-74"/>
      <use xlink:href="#DejaVuSans-68" x="39.208984"/>
      <use xlink:href="#DejaVuSans-65" x="102.587891"/>
      <use xlink:href="#DejaVuSans-74" x="164.111328"/>
      <use xlink:href="#DejaVuSans-61" x="203.320312"/>
      <use xlink:href="#DejaVuSans-5f" x="264.599609"/>
      <use xlink:href="#DejaVuSans-64" x="314.599609"/>
      <use xlink:href="#DejaVuSans-6f" x="378.076172"/>
      <use xlink:href="#DejaVuSans-74" x="439.257812"/>
      <use xlink:href="#DejaVuSans-20" x="478.466797"/>
      <use xlink:href="#DejaVuSans-28" x="510.253906"/>
      <use xlink:href="#DejaVuSans-64" x="549.267578"/>
      <use xlink:href="#DejaVuSans-65" x="612.744141"/>
      <use xlink:href="#DejaVuSans-67" x="674.267578"/>
      <use xlink:href="#DejaVuSans-72" x="737.744141"/>
      <use xlink:href="#DejaVuSans-65" x="776.607422"/>
      <use xlink:href="#DejaVuSans-65" x="838.130859"/>
      <use xlink:href="#DejaVuSans-2f" x="899.654297"/>
      <use xlink:href="#DejaVuSans-73" x="933.345703"/>
      <use xlink:href="#DejaVuSans-29" x="985.445312"/>
     </g>
    </g>
    <g id="line2d_36">
     <path d="M 239.141875 84.482937 
L 249.141875 84.482937 
L 259.141875 84.482937 
" style="fill: none; stroke: #008000; stroke-width: 1.5; stroke-linecap: square"/>
    </g>
    <g id="text_21">
     <!-- theta (degree) -->
     <g transform="translate(267.141875 87.982937)scale(0.1 -0.1)">
      <use xlink:href="#DejaVuSans-74"/>
      <use xlink:href="#DejaVuSans-68" x="39.208984"/>
      <use xlink:href="#DejaVuSans-65" x="102.587891"/>
      <use xlink:href="#DejaVuSans-74" x="164.111328"/>
      <use xlink:href="#DejaVuSans-61" x="203.320312"/>
      <use xlink:href="#DejaVuSans-20" x="264.599609"/>
      <use xlink:href="#DejaVuSans-28" x="296.386719"/>
      <use xlink:href="#DejaVuSans-64" x="335.400391"/>
      <use xlink:href="#DejaVuSans-65" x="398.876953"/>
      <use xlink:href="#DejaVuSans-67" x="460.400391"/>
      <use xlink:href="#DejaVuSans-72" x="523.876953"/>
      <use xlink:href="#DejaVuSans-65" x="562.740234"/>
      <use xlink:href="#DejaVuSans-65" x="624.263672"/>
      <use xlink:href="#DejaVuSans-29" x="685.787109"/>
     </g>
    </g>
   </g>
  </g>
 </g>
 <defs>
  <clipPath id="p2618f867b4">
   <rect x="57.6" y="41.472" width="357.12" height="266.112"/>
  </clipPath>
 </defs>
</svg>
