<?xml version="1.0" encoding="utf-8" standalone="no"?>
<!DOCTYPE svg PUBLIC "-//W3C//DTD SVG 1.1//EN"
  "http://www.w3.org/Graphics/SVG/1.1/DTD/svg11.dtd">
<svg xmlns:xlink="http://www.w3.org/1999/xlink" width="460.8pt" height="345.6pt" viewBox="0 0 460.8 345.6" xmlns="http://www.w3.org/2000/svg" version="1.1">
 <metadata>
  <rdf:RDF xmlns:dc="http://purl.org/dc/elements/1.1/" xmlns:cc="http://creativecommons.org/ns#" xmlns:rdf="http://www.w3.org/1999/02/22-rdf-syntax-ns#">
   <cc:Work>
    <dc:type rdf:resource="http://purl.org/dc/dcmitype/StillImage"/>
    <dc:date>2023-12-20T11:48:48.121529</dc:date>
    <dc:format>image/svg+xml</dc:format>
    <dc:creator>
     <cc:Agent>
      <dc:title>Matplotlib v3.5.1, https://matplotlib.org/</dc:title>
     </cc:Agent>
    </dc:creator>
   </cc:Work>
  </rdf:RDF>
 </metadata>
 <defs>
  <style type="text/css">*{stroke-linejoin: round; stroke-linecap: butt}</style>
 </defs>
 <g id="figure_1">
  <g id="patch_1">
   <path d="M 0 345.6 
L 460.8 345.6 
L 460.8 0 
L 0 0 
L 0 345.6 
z
" style="fill: none"/>
  </g>
  <g id="axes_1">
   <g id="patch_2">
    <path d="M 57.6 307.584 
L 414.72 307.584 
L 414.72 41.472 
L 57.6 41.472 
L 57.6 307.584 
z
" style="fill: none"/>
   </g>
   <g id="matplotlib.axis_1">
    <g id="xtick_1">
     <g id="line2d_1">
      <path d="M 57.6 307.584 
L 57.6 41.472 
" clip-path="url(#p4a618120b7)" style="fill: none; stroke: #b0b0b0; stroke-width: 0.8; stroke-linecap: square"/>
     </g>
     <g id="line2d_2">
      <defs>
       <path id="m448de19874" d="M 0 0 
L 0 3.5 
" style="stroke: #000000; stroke-width: 0.8"/>
      </defs>
      <g>
       <use xlink:href="#m448de19874" x="57.6" y="307.584" style="stroke: #000000; stroke-width: 0.8"/>
      </g>
     </g>
     <g id="text_1">
      <!-- 0 -->
      <g transform="translate(54.41875 322.182437)scale(0.1 -0.1)">
       <defs>
        <path id="DejaVuSans-30" d="M 2034 4250 
Q 1547 4250 1301 3770 
Q 1056 3291 1056 2328 
Q 1056 1369 1301 889 
Q 1547 409 2034 409 
Q 2525 409 2770 889 
Q 3016 1369 3016 2328 
Q 3016 3291 2770 3770 
Q 2525 4250 2034 4250 
z
M 2034 4750 
Q 2819 4750 3233 4129 
Q 3647 3509 3647 2328 
Q 3647 1150 3233 529 
Q 2819 -91 2034 -91 
Q 1250 -91 836 529 
Q 422 1150 422 2328 
Q 422 3509 836 4129 
Q 1250 4750 2034 4750 
z
" transform="scale(0.015625)"/>
       </defs>
       <use xlink:href="#DejaVuSans-30"/>
      </g>
     </g>
    </g>
    <g id="xtick_2">
     <g id="line2d_3">
      <path d="M 105.216 307.584 
L 105.216 41.472 
" clip-path="url(#p4a618120b7)" style="fill: none; stroke: #b0b0b0; stroke-width: 0.8; stroke-linecap: square"/>
     </g>
     <g id="line2d_4">
      <g>
       <use xlink:href="#m448de19874" x="105.216" y="307.584" style="stroke: #000000; stroke-width: 0.8"/>
      </g>
     </g>
     <g id="text_2">
      <!-- 2 -->
      <g transform="translate(102.03475 322.182437)scale(0.1 -0.1)">
       <defs>
        <path id="DejaVuSans-32" d="M 1228 531 
L 3431 531 
L 3431 0 
L 469 0 
L 469 531 
Q 828 903 1448 1529 
Q 2069 2156 2228 2338 
Q 2531 2678 2651 2914 
Q 2772 3150 2772 3378 
Q 2772 3750 2511 3984 
Q 2250 4219 1831 4219 
Q 1534 4219 1204 4116 
Q 875 4013 500 3803 
L 500 4441 
Q 881 4594 1212 4672 
Q 1544 4750 1819 4750 
Q 2544 4750 2975 4387 
Q 3406 4025 3406 3419 
Q 3406 3131 3298 2873 
Q 3191 2616 2906 2266 
Q 2828 2175 2409 1742 
Q 1991 1309 1228 531 
z
" transform="scale(0.015625)"/>
       </defs>
       <use xlink:href="#DejaVuSans-32"/>
      </g>
     </g>
    </g>
    <g id="xtick_3">
     <g id="line2d_5">
      <path d="M 152.832 307.584 
L 152.832 41.472 
" clip-path="url(#p4a618120b7)" style="fill: none; stroke: #b0b0b0; stroke-width: 0.8; stroke-linecap: square"/>
     </g>
     <g id="line2d_6">
      <g>
       <use xlink:href="#m448de19874" x="152.832" y="307.584" style="stroke: #000000; stroke-width: 0.8"/>
      </g>
     </g>
     <g id="text_3">
      <!-- 4 -->
      <g transform="translate(149.65075 322.182437)scale(0.1 -0.1)">
       <defs>
        <path id="DejaVuSans-34" d="M 2419 4116 
L 825 1625 
L 2419 1625 
L 2419 4116 
z
M 2253 4666 
L 3047 4666 
L 3047 1625 
L 3713 1625 
L 3713 1100 
L 3047 1100 
L 3047 0 
L 2419 0 
L 2419 1100 
L 313 1100 
L 313 1709 
L 2253 4666 
z
" transform="scale(0.015625)"/>
       </defs>
       <use xlink:href="#DejaVuSans-34"/>
      </g>
     </g>
    </g>
    <g id="xtick_4">
     <g id="line2d_7">
      <path d="M 200.448 307.584 
L 200.448 41.472 
" clip-path="url(#p4a618120b7)" style="fill: none; stroke: #b0b0b0; stroke-width: 0.8; stroke-linecap: square"/>
     </g>
     <g id="line2d_8">
      <g>
       <use xlink:href="#m448de19874" x="200.448" y="307.584" style="stroke: #000000; stroke-width: 0.8"/>
      </g>
     </g>
     <g id="text_4">
      <!-- 6 -->
      <g transform="translate(197.26675 322.182437)scale(0.1 -0.1)">
       <defs>
        <path id="DejaVuSans-36" d="M 2113 2584 
Q 1688 2584 1439 2293 
Q 1191 2003 1191 1497 
Q 1191 994 1439 701 
Q 1688 409 2113 409 
Q 2538 409 2786 701 
Q 3034 994 3034 1497 
Q 3034 2003 2786 2293 
Q 2538 2584 2113 2584 
z
M 3366 4563 
L 3366 3988 
Q 3128 4100 2886 4159 
Q 2644 4219 2406 4219 
Q 1781 4219 1451 3797 
Q 1122 3375 1075 2522 
Q 1259 2794 1537 2939 
Q 1816 3084 2150 3084 
Q 2853 3084 3261 2657 
Q 3669 2231 3669 1497 
Q 3669 778 3244 343 
Q 2819 -91 2113 -91 
Q 1303 -91 875 529 
Q 447 1150 447 2328 
Q 447 3434 972 4092 
Q 1497 4750 2381 4750 
Q 2619 4750 2861 4703 
Q 3103 4656 3366 4563 
z
" transform="scale(0.015625)"/>
       </defs>
       <use xlink:href="#DejaVuSans-36"/>
      </g>
     </g>
    </g>
    <g id="xtick_5">
     <g id="line2d_9">
      <path d="M 248.064 307.584 
L 248.064 41.472 
" clip-path="url(#p4a618120b7)" style="fill: none; stroke: #b0b0b0; stroke-width: 0.8; stroke-linecap: square"/>
     </g>
     <g id="line2d_10">
      <g>
       <use xlink:href="#m448de19874" x="248.064" y="307.584" style="stroke: #000000; stroke-width: 0.8"/>
      </g>
     </g>
     <g id="text_5">
      <!-- 8 -->
      <g transform="translate(244.88275 322.182437)scale(0.1 -0.1)">
       <defs>
        <path id="DejaVuSans-38" d="M 2034 2216 
Q 1584 2216 1326 1975 
Q 1069 1734 1069 1313 
Q 1069 891 1326 650 
Q 1584 409 2034 409 
Q 2484 409 2743 651 
Q 3003 894 3003 1313 
Q 3003 1734 2745 1975 
Q 2488 2216 2034 2216 
z
M 1403 2484 
Q 997 2584 770 2862 
Q 544 3141 544 3541 
Q 544 4100 942 4425 
Q 1341 4750 2034 4750 
Q 2731 4750 3128 4425 
Q 3525 4100 3525 3541 
Q 3525 3141 3298 2862 
Q 3072 2584 2669 2484 
Q 3125 2378 3379 2068 
Q 3634 1759 3634 1313 
Q 3634 634 3220 271 
Q 2806 -91 2034 -91 
Q 1263 -91 848 271 
Q 434 634 434 1313 
Q 434 1759 690 2068 
Q 947 2378 1403 2484 
z
M 1172 3481 
Q 1172 3119 1398 2916 
Q 1625 2713 2034 2713 
Q 2441 2713 2670 2916 
Q 2900 3119 2900 3481 
Q 2900 3844 2670 4047 
Q 2441 4250 2034 4250 
Q 1625 4250 1398 4047 
Q 1172 3844 1172 3481 
z
" transform="scale(0.015625)"/>
       </defs>
       <use xlink:href="#DejaVuSans-38"/>
      </g>
     </g>
    </g>
    <g id="xtick_6">
     <g id="line2d_11">
      <path d="M 295.68 307.584 
L 295.68 41.472 
" clip-path="url(#p4a618120b7)" style="fill: none; stroke: #b0b0b0; stroke-width: 0.8; stroke-linecap: square"/>
     </g>
     <g id="line2d_12">
      <g>
       <use xlink:href="#m448de19874" x="295.68" y="307.584" style="stroke: #000000; stroke-width: 0.8"/>
      </g>
     </g>
     <g id="text_6">
      <!-- 10 -->
      <g transform="translate(289.3175 322.182437)scale(0.1 -0.1)">
       <defs>
        <path id="DejaVuSans-31" d="M 794 531 
L 1825 531 
L 1825 4091 
L 703 3866 
L 703 4441 
L 1819 4666 
L 2450 4666 
L 2450 531 
L 3481 531 
L 3481 0 
L 794 0 
L 794 531 
z
" transform="scale(0.015625)"/>
       </defs>
       <use xlink:href="#DejaVuSans-31"/>
       <use xlink:href="#DejaVuSans-30" x="63.623047"/>
      </g>
     </g>
    </g>
    <g id="xtick_7">
     <g id="line2d_13">
      <path d="M 343.296 307.584 
L 343.296 41.472 
" clip-path="url(#p4a618120b7)" style="fill: none; stroke: #b0b0b0; stroke-width: 0.8; stroke-linecap: square"/>
     </g>
     <g id="line2d_14">
      <g>
       <use xlink:href="#m448de19874" x="343.296" y="307.584" style="stroke: #000000; stroke-width: 0.8"/>
      </g>
     </g>
     <g id="text_7">
      <!-- 12 -->
      <g transform="translate(336.9335 322.182437)scale(0.1 -0.1)">
       <use xlink:href="#DejaVuSans-31"/>
       <use xlink:href="#DejaVuSans-32" x="63.623047"/>
      </g>
     </g>
    </g>
    <g id="xtick_8">
     <g id="line2d_15">
      <path d="M 390.912 307.584 
L 390.912 41.472 
" clip-path="url(#p4a618120b7)" style="fill: none; stroke: #b0b0b0; stroke-width: 0.8; stroke-linecap: square"/>
     </g>
     <g id="line2d_16">
      <g>
       <use xlink:href="#m448de19874" x="390.912" y="307.584" style="stroke: #000000; stroke-width: 0.8"/>
      </g>
     </g>
     <g id="text_8">
      <!-- 14 -->
      <g transform="translate(384.5495 322.182437)scale(0.1 -0.1)">
       <use xlink:href="#DejaVuSans-31"/>
       <use xlink:href="#DejaVuSans-34" x="63.623047"/>
      </g>
     </g>
    </g>
    <g id="xtick_9">
     <g id="line2d_17">
      <path d="M 69.504 307.584 
L 69.504 41.472 
" clip-path="url(#p4a618120b7)" style="fill: none; stroke: #b0b0b0; stroke-width: 0.2; stroke-linecap: square"/>
     </g>
     <g id="line2d_18">
      <defs>
       <path id="m1d522b6b18" d="M 0 0 
L 0 2 
" style="stroke: #000000; stroke-width: 0.6"/>
      </defs>
      <g>
       <use xlink:href="#m1d522b6b18" x="69.504" y="307.584" style="stroke: #000000; stroke-width: 0.6"/>
      </g>
     </g>
    </g>
    <g id="xtick_10">
     <g id="line2d_19">
      <path d="M 81.408 307.584 
L 81.408 41.472 
" clip-path="url(#p4a618120b7)" style="fill: none; stroke: #b0b0b0; stroke-width: 0.2; stroke-linecap: square"/>
     </g>
     <g id="line2d_20">
      <g>
       <use xlink:href="#m1d522b6b18" x="81.408" y="307.584" style="stroke: #000000; stroke-width: 0.6"/>
      </g>
     </g>
    </g>
    <g id="xtick_11">
     <g id="line2d_21">
      <path d="M 93.312 307.584 
L 93.312 41.472 
" clip-path="url(#p4a618120b7)" style="fill: none; stroke: #b0b0b0; stroke-width: 0.2; stroke-linecap: square"/>
     </g>
     <g id="line2d_22">
      <g>
       <use xlink:href="#m1d522b6b18" x="93.312" y="307.584" style="stroke: #000000; stroke-width: 0.6"/>
      </g>
     </g>
    </g>
    <g id="xtick_12">
     <g id="line2d_23">
      <path d="M 117.12 307.584 
L 117.12 41.472 
" clip-path="url(#p4a618120b7)" style="fill: none; stroke: #b0b0b0; stroke-width: 0.2; stroke-linecap: square"/>
     </g>
     <g id="line2d_24">
      <g>
       <use xlink:href="#m1d522b6b18" x="117.12" y="307.584" style="stroke: #000000; stroke-width: 0.6"/>
      </g>
     </g>
    </g>
    <g id="xtick_13">
     <g id="line2d_25">
      <path d="M 129.024 307.584 
L 129.024 41.472 
" clip-path="url(#p4a618120b7)" style="fill: none; stroke: #b0b0b0; stroke-width: 0.2; stroke-linecap: square"/>
     </g>
     <g id="line2d_26">
      <g>
       <use xlink:href="#m1d522b6b18" x="129.024" y="307.584" style="stroke: #000000; stroke-width: 0.6"/>
      </g>
     </g>
    </g>
    <g id="xtick_14">
     <g id="line2d_27">
      <path d="M 140.928 307.584 
L 140.928 41.472 
" clip-path="url(#p4a618120b7)" style="fill: none; stroke: #b0b0b0; stroke-width: 0.2; stroke-linecap: square"/>
     </g>
     <g id="line2d_28">
      <g>
       <use xlink:href="#m1d522b6b18" x="140.928" y="307.584" style="stroke: #000000; stroke-width: 0.6"/>
      </g>
     </g>
    </g>
    <g id="xtick_15">
     <g id="line2d_29">
      <path d="M 164.736 307.584 
L 164.736 41.472 
" clip-path="url(#p4a618120b7)" style="fill: none; stroke: #b0b0b0; stroke-width: 0.2; stroke-linecap: square"/>
     </g>
     <g id="line2d_30">
      <g>
       <use xlink:href="#m1d522b6b18" x="164.736" y="307.584" style="stroke: #000000; stroke-width: 0.6"/>
      </g>
     </g>
    </g>
    <g id="xtick_16">
     <g id="line2d_31">
      <path d="M 176.64 307.584 
L 176.64 41.472 
" clip-path="url(#p4a618120b7)" style="fill: none; stroke: #b0b0b0; stroke-width: 0.2; stroke-linecap: square"/>
     </g>
     <g id="line2d_32">
      <g>
       <use xlink:href="#m1d522b6b18" x="176.64" y="307.584" style="stroke: #000000; stroke-width: 0.6"/>
      </g>
     </g>
    </g>
    <g id="xtick_17">
     <g id="line2d_33">
      <path d="M 188.544 307.584 
L 188.544 41.472 
" clip-path="url(#p4a618120b7)" style="fill: none; stroke: #b0b0b0; stroke-width: 0.2; stroke-linecap: square"/>
     </g>
     <g id="line2d_34">
      <g>
       <use xlink:href="#m1d522b6b18" x="188.544" y="307.584" style="stroke: #000000; stroke-width: 0.6"/>
      </g>
     </g>
    </g>
    <g id="xtick_18">
     <g id="line2d_35">
      <path d="M 212.352 307.584 
L 212.352 41.472 
" clip-path="url(#p4a618120b7)" style="fill: none; stroke: #b0b0b0; stroke-width: 0.2; stroke-linecap: square"/>
     </g>
     <g id="line2d_36">
      <g>
       <use xlink:href="#m1d522b6b18" x="212.352" y="307.584" style="stroke: #000000; stroke-width: 0.6"/>
      </g>
     </g>
    </g>
    <g id="xtick_19">
     <g id="line2d_37">
      <path d="M 224.256 307.584 
L 224.256 41.472 
" clip-path="url(#p4a618120b7)" style="fill: none; stroke: #b0b0b0; stroke-width: 0.2; stroke-linecap: square"/>
     </g>
     <g id="line2d_38">
      <g>
       <use xlink:href="#m1d522b6b18" x="224.256" y="307.584" style="stroke: #000000; stroke-width: 0.6"/>
      </g>
     </g>
    </g>
    <g id="xtick_20">
     <g id="line2d_39">
      <path d="M 236.16 307.584 
L 236.16 41.472 
" clip-path="url(#p4a618120b7)" style="fill: none; stroke: #b0b0b0; stroke-width: 0.2; stroke-linecap: square"/>
     </g>
     <g id="line2d_40">
      <g>
       <use xlink:href="#m1d522b6b18" x="236.16" y="307.584" style="stroke: #000000; stroke-width: 0.6"/>
      </g>
     </g>
    </g>
    <g id="xtick_21">
     <g id="line2d_41">
      <path d="M 259.968 307.584 
L 259.968 41.472 
" clip-path="url(#p4a618120b7)" style="fill: none; stroke: #b0b0b0; stroke-width: 0.2; stroke-linecap: square"/>
     </g>
     <g id="line2d_42">
      <g>
       <use xlink:href="#m1d522b6b18" x="259.968" y="307.584" style="stroke: #000000; stroke-width: 0.6"/>
      </g>
     </g>
    </g>
    <g id="xtick_22">
     <g id="line2d_43">
      <path d="M 271.872 307.584 
L 271.872 41.472 
" clip-path="url(#p4a618120b7)" style="fill: none; stroke: #b0b0b0; stroke-width: 0.2; stroke-linecap: square"/>
     </g>
     <g id="line2d_44">
      <g>
       <use xlink:href="#m1d522b6b18" x="271.872" y="307.584" style="stroke: #000000; stroke-width: 0.6"/>
      </g>
     </g>
    </g>
    <g id="xtick_23">
     <g id="line2d_45">
      <path d="M 283.776 307.584 
L 283.776 41.472 
" clip-path="url(#p4a618120b7)" style="fill: none; stroke: #b0b0b0; stroke-width: 0.2; stroke-linecap: square"/>
     </g>
     <g id="line2d_46">
      <g>
       <use xlink:href="#m1d522b6b18" x="283.776" y="307.584" style="stroke: #000000; stroke-width: 0.6"/>
      </g>
     </g>
    </g>
    <g id="xtick_24">
     <g id="line2d_47">
      <path d="M 307.584 307.584 
L 307.584 41.472 
" clip-path="url(#p4a618120b7)" style="fill: none; stroke: #b0b0b0; stroke-width: 0.2; stroke-linecap: square"/>
     </g>
     <g id="line2d_48">
      <g>
       <use xlink:href="#m1d522b6b18" x="307.584" y="307.584" style="stroke: #000000; stroke-width: 0.6"/>
      </g>
     </g>
    </g>
    <g id="xtick_25">
     <g id="line2d_49">
      <path d="M 319.488 307.584 
L 319.488 41.472 
" clip-path="url(#p4a618120b7)" style="fill: none; stroke: #b0b0b0; stroke-width: 0.2; stroke-linecap: square"/>
     </g>
     <g id="line2d_50">
      <g>
       <use xlink:href="#m1d522b6b18" x="319.488" y="307.584" style="stroke: #000000; stroke-width: 0.6"/>
      </g>
     </g>
    </g>
    <g id="xtick_26">
     <g id="line2d_51">
      <path d="M 331.392 307.584 
L 331.392 41.472 
" clip-path="url(#p4a618120b7)" style="fill: none; stroke: #b0b0b0; stroke-width: 0.2; stroke-linecap: square"/>
     </g>
     <g id="line2d_52">
      <g>
       <use xlink:href="#m1d522b6b18" x="331.392" y="307.584" style="stroke: #000000; stroke-width: 0.6"/>
      </g>
     </g>
    </g>
    <g id="xtick_27">
     <g id="line2d_53">
      <path d="M 355.2 307.584 
L 355.2 41.472 
" clip-path="url(#p4a618120b7)" style="fill: none; stroke: #b0b0b0; stroke-width: 0.2; stroke-linecap: square"/>
     </g>
     <g id="line2d_54">
      <g>
       <use xlink:href="#m1d522b6b18" x="355.2" y="307.584" style="stroke: #000000; stroke-width: 0.6"/>
      </g>
     </g>
    </g>
    <g id="xtick_28">
     <g id="line2d_55">
      <path d="M 367.104 307.584 
L 367.104 41.472 
" clip-path="url(#p4a618120b7)" style="fill: none; stroke: #b0b0b0; stroke-width: 0.2; stroke-linecap: square"/>
     </g>
     <g id="line2d_56">
      <g>
       <use xlink:href="#m1d522b6b18" x="367.104" y="307.584" style="stroke: #000000; stroke-width: 0.6"/>
      </g>
     </g>
    </g>
    <g id="xtick_29">
     <g id="line2d_57">
      <path d="M 379.008 307.584 
L 379.008 41.472 
" clip-path="url(#p4a618120b7)" style="fill: none; stroke: #b0b0b0; stroke-width: 0.2; stroke-linecap: square"/>
     </g>
     <g id="line2d_58">
      <g>
       <use xlink:href="#m1d522b6b18" x="379.008" y="307.584" style="stroke: #000000; stroke-width: 0.6"/>
      </g>
     </g>
    </g>
    <g id="xtick_30">
     <g id="line2d_59">
      <path d="M 402.816 307.584 
L 402.816 41.472 
" clip-path="url(#p4a618120b7)" style="fill: none; stroke: #b0b0b0; stroke-width: 0.2; stroke-linecap: square"/>
     </g>
     <g id="line2d_60">
      <g>
       <use xlink:href="#m1d522b6b18" x="402.816" y="307.584" style="stroke: #000000; stroke-width: 0.6"/>
      </g>
     </g>
    </g>
    <g id="xtick_31">
     <g id="line2d_61">
      <path d="M 414.72 307.584 
L 414.72 41.472 
" clip-path="url(#p4a618120b7)" style="fill: none; stroke: #b0b0b0; stroke-width: 0.2; stroke-linecap: square"/>
     </g>
     <g id="line2d_62">
      <g>
       <use xlink:href="#m1d522b6b18" x="414.72" y="307.584" style="stroke: #000000; stroke-width: 0.6"/>
      </g>
     </g>
    </g>
    <g id="text_9">
     <!-- $time \; (sec.)$ -->
     <g transform="translate(208.61 335.860562)scale(0.1 -0.1)">
      <defs>
       <path id="DejaVuSans-Oblique-74" d="M 2706 3500 
L 2619 3053 
L 1472 3053 
L 1100 1153 
Q 1081 1047 1072 975 
Q 1063 903 1063 863 
Q 1063 663 1183 572 
Q 1303 481 1569 481 
L 2150 481 
L 2053 0 
L 1503 0 
Q 991 0 739 200 
Q 488 400 488 806 
Q 488 878 497 964 
Q 506 1050 525 1153 
L 897 3053 
L 409 3053 
L 500 3500 
L 978 3500 
L 1172 4494 
L 1747 4494 
L 1556 3500 
L 2706 3500 
z
" transform="scale(0.015625)"/>
       <path id="DejaVuSans-Oblique-69" d="M 1172 4863 
L 1747 4863 
L 1606 4134 
L 1031 4134 
L 1172 4863 
z
M 909 3500 
L 1484 3500 
L 800 0 
L 225 0 
L 909 3500 
z
" transform="scale(0.015625)"/>
       <path id="DejaVuSans-Oblique-6d" d="M 5747 2113 
L 5338 0 
L 4763 0 
L 5166 2094 
Q 5191 2228 5203 2325 
Q 5216 2422 5216 2491 
Q 5216 2772 5059 2928 
Q 4903 3084 4622 3084 
Q 4203 3084 3875 2770 
Q 3547 2456 3450 1953 
L 3066 0 
L 2491 0 
L 2900 2094 
Q 2925 2209 2937 2307 
Q 2950 2406 2950 2484 
Q 2950 2769 2794 2926 
Q 2638 3084 2363 3084 
Q 1938 3084 1609 2770 
Q 1281 2456 1184 1953 
L 800 0 
L 225 0 
L 909 3500 
L 1484 3500 
L 1375 2956 
Q 1609 3263 1923 3423 
Q 2238 3584 2597 3584 
Q 2978 3584 3223 3384 
Q 3469 3184 3519 2828 
Q 3781 3197 4126 3390 
Q 4472 3584 4856 3584 
Q 5306 3584 5551 3325 
Q 5797 3066 5797 2591 
Q 5797 2488 5784 2364 
Q 5772 2241 5747 2113 
z
" transform="scale(0.015625)"/>
       <path id="DejaVuSans-Oblique-65" d="M 3078 2063 
Q 3088 2113 3092 2166 
Q 3097 2219 3097 2272 
Q 3097 2653 2873 2875 
Q 2650 3097 2266 3097 
Q 1838 3097 1509 2826 
Q 1181 2556 1013 2059 
L 3078 2063 
z
M 3578 1613 
L 903 1613 
Q 884 1494 878 1425 
Q 872 1356 872 1306 
Q 872 872 1139 634 
Q 1406 397 1894 397 
Q 2269 397 2603 481 
Q 2938 566 3225 728 
L 3116 159 
Q 2806 34 2476 -28 
Q 2147 -91 1806 -91 
Q 1078 -91 686 257 
Q 294 606 294 1247 
Q 294 1794 489 2264 
Q 684 2734 1063 3103 
Q 1306 3334 1642 3459 
Q 1978 3584 2356 3584 
Q 2950 3584 3301 3228 
Q 3653 2872 3653 2272 
Q 3653 2128 3634 1964 
Q 3616 1800 3578 1613 
z
" transform="scale(0.015625)"/>
       <path id="DejaVuSans-28" d="M 1984 4856 
Q 1566 4138 1362 3434 
Q 1159 2731 1159 2009 
Q 1159 1288 1364 580 
Q 1569 -128 1984 -844 
L 1484 -844 
Q 1016 -109 783 600 
Q 550 1309 550 2009 
Q 550 2706 781 3412 
Q 1013 4119 1484 4856 
L 1984 4856 
z
" transform="scale(0.015625)"/>
       <path id="DejaVuSans-Oblique-73" d="M 3200 3397 
L 3091 2853 
Q 2863 2978 2609 3040 
Q 2356 3103 2088 3103 
Q 1634 3103 1373 2948 
Q 1113 2794 1113 2528 
Q 1113 2219 1719 2053 
Q 1766 2041 1788 2034 
L 1972 1978 
Q 2547 1819 2739 1644 
Q 2931 1469 2931 1166 
Q 2931 609 2489 259 
Q 2047 -91 1331 -91 
Q 1053 -91 747 -37 
Q 441 16 72 128 
L 184 722 
Q 500 559 806 475 
Q 1113 391 1394 391 
Q 1816 391 2080 572 
Q 2344 753 2344 1031 
Q 2344 1331 1650 1516 
L 1591 1531 
L 1394 1581 
Q 956 1697 753 1886 
Q 550 2075 550 2369 
Q 550 2928 970 3256 
Q 1391 3584 2113 3584 
Q 2397 3584 2667 3537 
Q 2938 3491 3200 3397 
z
" transform="scale(0.015625)"/>
       <path id="DejaVuSans-Oblique-63" d="M 3431 3366 
L 3316 2797 
Q 3109 2947 2876 3022 
Q 2644 3097 2394 3097 
Q 2119 3097 1870 3000 
Q 1622 2903 1453 2725 
Q 1184 2453 1037 2087 
Q 891 1722 891 1331 
Q 891 859 1127 628 
Q 1363 397 1844 397 
Q 2081 397 2348 469 
Q 2616 541 2906 684 
L 2797 116 
Q 2547 13 2283 -39 
Q 2019 -91 1741 -91 
Q 1044 -91 669 257 
Q 294 606 294 1253 
Q 294 1797 489 2255 
Q 684 2713 1069 3078 
Q 1331 3328 1684 3456 
Q 2038 3584 2456 3584 
Q 2700 3584 2940 3529 
Q 3181 3475 3431 3366 
z
" transform="scale(0.015625)"/>
       <path id="DejaVuSans-2e" d="M 684 794 
L 1344 794 
L 1344 0 
L 684 0 
L 684 794 
z
" transform="scale(0.015625)"/>
       <path id="DejaVuSans-29" d="M 513 4856 
L 1013 4856 
Q 1481 4119 1714 3412 
Q 1947 2706 1947 2009 
Q 1947 1309 1714 600 
Q 1481 -109 1013 -844 
L 513 -844 
Q 928 -128 1133 580 
Q 1338 1288 1338 2009 
Q 1338 2731 1133 3434 
Q 928 4138 513 4856 
z
" transform="scale(0.015625)"/>
      </defs>
      <use xlink:href="#DejaVuSans-Oblique-74" transform="translate(0 0.015625)"/>
      <use xlink:href="#DejaVuSans-Oblique-69" transform="translate(39.208984 0.015625)"/>
      <use xlink:href="#DejaVuSans-Oblique-6d" transform="translate(66.992188 0.015625)"/>
      <use xlink:href="#DejaVuSans-Oblique-65" transform="translate(164.404297 0.015625)"/>
      <use xlink:href="#DejaVuSans-28" transform="translate(252.98687 0.015625)"/>
      <use xlink:href="#DejaVuSans-Oblique-73" transform="translate(292.000542 0.015625)"/>
      <use xlink:href="#DejaVuSans-Oblique-65" transform="translate(344.100151 0.015625)"/>
      <use xlink:href="#DejaVuSans-Oblique-63" transform="translate(405.623589 0.015625)"/>
      <use xlink:href="#DejaVuSans-2e" transform="translate(460.604058 0.015625)"/>
      <use xlink:href="#DejaVuSans-29" transform="translate(511.873589 0.015625)"/>
     </g>
    </g>
   </g>
   <g id="matplotlib.axis_2">
    <g id="ytick_1">
     <g id="line2d_63">
      <path d="M 57.6 300.58381 
L 414.72 300.58381 
" clip-path="url(#p4a618120b7)" style="fill: none; stroke: #b0b0b0; stroke-width: 0.8; stroke-linecap: square"/>
     </g>
     <g id="line2d_64">
      <defs>
       <path id="m9bd6f02c5c" d="M 0 0 
L -3.5 0 
" style="stroke: #000000; stroke-width: 0.8"/>
      </defs>
      <g>
       <use xlink:href="#m9bd6f02c5c" x="57.6" y="300.58381" style="stroke: #000000; stroke-width: 0.8"/>
      </g>
     </g>
     <g id="text_10">
      <!-- −1.0 -->
      <g transform="translate(26.317187 304.383029)scale(0.1 -0.1)">
       <defs>
        <path id="DejaVuSans-2212" d="M 678 2272 
L 4684 2272 
L 4684 1741 
L 678 1741 
L 678 2272 
z
" transform="scale(0.015625)"/>
       </defs>
       <use xlink:href="#DejaVuSans-2212"/>
       <use xlink:href="#DejaVuSans-31" x="83.789062"/>
       <use xlink:href="#DejaVuSans-2e" x="147.412109"/>
       <use xlink:href="#DejaVuSans-30" x="179.199219"/>
      </g>
     </g>
    </g>
    <g id="ytick_2">
     <g id="line2d_65">
      <path d="M 57.6 251.180648 
L 414.72 251.180648 
" clip-path="url(#p4a618120b7)" style="fill: none; stroke: #b0b0b0; stroke-width: 0.8; stroke-linecap: square"/>
     </g>
     <g id="line2d_66">
      <g>
       <use xlink:href="#m9bd6f02c5c" x="57.6" y="251.180648" style="stroke: #000000; stroke-width: 0.8"/>
      </g>
     </g>
     <g id="text_11">
      <!-- −0.5 -->
      <g transform="translate(26.317187 254.979867)scale(0.1 -0.1)">
       <defs>
        <path id="DejaVuSans-35" d="M 691 4666 
L 3169 4666 
L 3169 4134 
L 1269 4134 
L 1269 2991 
Q 1406 3038 1543 3061 
Q 1681 3084 1819 3084 
Q 2600 3084 3056 2656 
Q 3513 2228 3513 1497 
Q 3513 744 3044 326 
Q 2575 -91 1722 -91 
Q 1428 -91 1123 -41 
Q 819 9 494 109 
L 494 744 
Q 775 591 1075 516 
Q 1375 441 1709 441 
Q 2250 441 2565 725 
Q 2881 1009 2881 1497 
Q 2881 1984 2565 2268 
Q 2250 2553 1709 2553 
Q 1456 2553 1204 2497 
Q 953 2441 691 2322 
L 691 4666 
z
" transform="scale(0.015625)"/>
       </defs>
       <use xlink:href="#DejaVuSans-2212"/>
       <use xlink:href="#DejaVuSans-30" x="83.789062"/>
       <use xlink:href="#DejaVuSans-2e" x="147.412109"/>
       <use xlink:href="#DejaVuSans-35" x="179.199219"/>
      </g>
     </g>
    </g>
    <g id="ytick_3">
     <g id="line2d_67">
      <path d="M 57.6 201.777486 
L 414.72 201.777486 
" clip-path="url(#p4a618120b7)" style="fill: none; stroke: #b0b0b0; stroke-width: 0.8; stroke-linecap: square"/>
     </g>
     <g id="line2d_68">
      <g>
       <use xlink:href="#m9bd6f02c5c" x="57.6" y="201.777486" style="stroke: #000000; stroke-width: 0.8"/>
      </g>
     </g>
     <g id="text_12">
      <!-- 0.0 -->
      <g transform="translate(34.696875 205.576705)scale(0.1 -0.1)">
       <use xlink:href="#DejaVuSans-30"/>
       <use xlink:href="#DejaVuSans-2e" x="63.623047"/>
       <use xlink:href="#DejaVuSans-30" x="95.410156"/>
      </g>
     </g>
    </g>
    <g id="ytick_4">
     <g id="line2d_69">
      <path d="M 57.6 152.374324 
L 414.72 152.374324 
" clip-path="url(#p4a618120b7)" style="fill: none; stroke: #b0b0b0; stroke-width: 0.8; stroke-linecap: square"/>
     </g>
     <g id="line2d_70">
      <g>
       <use xlink:href="#m9bd6f02c5c" x="57.6" y="152.374324" style="stroke: #000000; stroke-width: 0.8"/>
      </g>
     </g>
     <g id="text_13">
      <!-- 0.5 -->
      <g transform="translate(34.696875 156.173543)scale(0.1 -0.1)">
       <use xlink:href="#DejaVuSans-30"/>
       <use xlink:href="#DejaVuSans-2e" x="63.623047"/>
       <use xlink:href="#DejaVuSans-35" x="95.410156"/>
      </g>
     </g>
    </g>
    <g id="ytick_5">
     <g id="line2d_71">
      <path d="M 57.6 102.971162 
L 414.72 102.971162 
" clip-path="url(#p4a618120b7)" style="fill: none; stroke: #b0b0b0; stroke-width: 0.8; stroke-linecap: square"/>
     </g>
     <g id="line2d_72">
      <g>
       <use xlink:href="#m9bd6f02c5c" x="57.6" y="102.971162" style="stroke: #000000; stroke-width: 0.8"/>
      </g>
     </g>
     <g id="text_14">
      <!-- 1.0 -->
      <g transform="translate(34.696875 106.770381)scale(0.1 -0.1)">
       <use xlink:href="#DejaVuSans-31"/>
       <use xlink:href="#DejaVuSans-2e" x="63.623047"/>
       <use xlink:href="#DejaVuSans-30" x="95.410156"/>
      </g>
     </g>
    </g>
    <g id="ytick_6">
     <g id="line2d_73">
      <path d="M 57.6 53.568 
L 414.72 53.568 
" clip-path="url(#p4a618120b7)" style="fill: none; stroke: #b0b0b0; stroke-width: 0.8; stroke-linecap: square"/>
     </g>
     <g id="line2d_74">
      <g>
       <use xlink:href="#m9bd6f02c5c" x="57.6" y="53.568" style="stroke: #000000; stroke-width: 0.8"/>
      </g>
     </g>
     <g id="text_15">
      <!-- 1.5 -->
      <g transform="translate(34.696875 57.367219)scale(0.1 -0.1)">
       <use xlink:href="#DejaVuSans-31"/>
       <use xlink:href="#DejaVuSans-2e" x="63.623047"/>
       <use xlink:href="#DejaVuSans-35" x="95.410156"/>
      </g>
     </g>
    </g>
    <g id="ytick_7">
     <g id="line2d_75">
      <path d="M 57.6 290.703178 
L 414.72 290.703178 
" clip-path="url(#p4a618120b7)" style="fill: none; stroke: #b0b0b0; stroke-width: 0.2; stroke-linecap: square"/>
     </g>
     <g id="line2d_76">
      <defs>
       <path id="m3634c1a585" d="M 0 0 
L -2 0 
" style="stroke: #000000; stroke-width: 0.6"/>
      </defs>
      <g>
       <use xlink:href="#m3634c1a585" x="57.6" y="290.703178" style="stroke: #000000; stroke-width: 0.6"/>
      </g>
     </g>
    </g>
    <g id="ytick_8">
     <g id="line2d_77">
      <path d="M 57.6 280.822546 
L 414.72 280.822546 
" clip-path="url(#p4a618120b7)" style="fill: none; stroke: #b0b0b0; stroke-width: 0.2; stroke-linecap: square"/>
     </g>
     <g id="line2d_78">
      <g>
       <use xlink:href="#m3634c1a585" x="57.6" y="280.822546" style="stroke: #000000; stroke-width: 0.6"/>
      </g>
     </g>
    </g>
    <g id="ytick_9">
     <g id="line2d_79">
      <path d="M 57.6 270.941913 
L 414.72 270.941913 
" clip-path="url(#p4a618120b7)" style="fill: none; stroke: #b0b0b0; stroke-width: 0.2; stroke-linecap: square"/>
     </g>
     <g id="line2d_80">
      <g>
       <use xlink:href="#m3634c1a585" x="57.6" y="270.941913" style="stroke: #000000; stroke-width: 0.6"/>
      </g>
     </g>
    </g>
    <g id="ytick_10">
     <g id="line2d_81">
      <path d="M 57.6 261.061281 
L 414.72 261.061281 
" clip-path="url(#p4a618120b7)" style="fill: none; stroke: #b0b0b0; stroke-width: 0.2; stroke-linecap: square"/>
     </g>
     <g id="line2d_82">
      <g>
       <use xlink:href="#m3634c1a585" x="57.6" y="261.061281" style="stroke: #000000; stroke-width: 0.6"/>
      </g>
     </g>
    </g>
    <g id="ytick_11">
     <g id="line2d_83">
      <path d="M 57.6 241.300016 
L 414.72 241.300016 
" clip-path="url(#p4a618120b7)" style="fill: none; stroke: #b0b0b0; stroke-width: 0.2; stroke-linecap: square"/>
     </g>
     <g id="line2d_84">
      <g>
       <use xlink:href="#m3634c1a585" x="57.6" y="241.300016" style="stroke: #000000; stroke-width: 0.6"/>
      </g>
     </g>
    </g>
    <g id="ytick_12">
     <g id="line2d_85">
      <path d="M 57.6 231.419384 
L 414.72 231.419384 
" clip-path="url(#p4a618120b7)" style="fill: none; stroke: #b0b0b0; stroke-width: 0.2; stroke-linecap: square"/>
     </g>
     <g id="line2d_86">
      <g>
       <use xlink:href="#m3634c1a585" x="57.6" y="231.419384" style="stroke: #000000; stroke-width: 0.6"/>
      </g>
     </g>
    </g>
    <g id="ytick_13">
     <g id="line2d_87">
      <path d="M 57.6 221.538751 
L 414.72 221.538751 
" clip-path="url(#p4a618120b7)" style="fill: none; stroke: #b0b0b0; stroke-width: 0.2; stroke-linecap: square"/>
     </g>
     <g id="line2d_88">
      <g>
       <use xlink:href="#m3634c1a585" x="57.6" y="221.538751" style="stroke: #000000; stroke-width: 0.6"/>
      </g>
     </g>
    </g>
    <g id="ytick_14">
     <g id="line2d_89">
      <path d="M 57.6 211.658119 
L 414.72 211.658119 
" clip-path="url(#p4a618120b7)" style="fill: none; stroke: #b0b0b0; stroke-width: 0.2; stroke-linecap: square"/>
     </g>
     <g id="line2d_90">
      <g>
       <use xlink:href="#m3634c1a585" x="57.6" y="211.658119" style="stroke: #000000; stroke-width: 0.6"/>
      </g>
     </g>
    </g>
    <g id="ytick_15">
     <g id="line2d_91">
      <path d="M 57.6 191.896854 
L 414.72 191.896854 
" clip-path="url(#p4a618120b7)" style="fill: none; stroke: #b0b0b0; stroke-width: 0.2; stroke-linecap: square"/>
     </g>
     <g id="line2d_92">
      <g>
       <use xlink:href="#m3634c1a585" x="57.6" y="191.896854" style="stroke: #000000; stroke-width: 0.6"/>
      </g>
     </g>
    </g>
    <g id="ytick_16">
     <g id="line2d_93">
      <path d="M 57.6 182.016221 
L 414.72 182.016221 
" clip-path="url(#p4a618120b7)" style="fill: none; stroke: #b0b0b0; stroke-width: 0.2; stroke-linecap: square"/>
     </g>
     <g id="line2d_94">
      <g>
       <use xlink:href="#m3634c1a585" x="57.6" y="182.016221" style="stroke: #000000; stroke-width: 0.6"/>
      </g>
     </g>
    </g>
    <g id="ytick_17">
     <g id="line2d_95">
      <path d="M 57.6 172.135589 
L 414.72 172.135589 
" clip-path="url(#p4a618120b7)" style="fill: none; stroke: #b0b0b0; stroke-width: 0.2; stroke-linecap: square"/>
     </g>
     <g id="line2d_96">
      <g>
       <use xlink:href="#m3634c1a585" x="57.6" y="172.135589" style="stroke: #000000; stroke-width: 0.6"/>
      </g>
     </g>
    </g>
    <g id="ytick_18">
     <g id="line2d_97">
      <path d="M 57.6 162.254957 
L 414.72 162.254957 
" clip-path="url(#p4a618120b7)" style="fill: none; stroke: #b0b0b0; stroke-width: 0.2; stroke-linecap: square"/>
     </g>
     <g id="line2d_98">
      <g>
       <use xlink:href="#m3634c1a585" x="57.6" y="162.254957" style="stroke: #000000; stroke-width: 0.6"/>
      </g>
     </g>
    </g>
    <g id="ytick_19">
     <g id="line2d_99">
      <path d="M 57.6 142.493692 
L 414.72 142.493692 
" clip-path="url(#p4a618120b7)" style="fill: none; stroke: #b0b0b0; stroke-width: 0.2; stroke-linecap: square"/>
     </g>
     <g id="line2d_100">
      <g>
       <use xlink:href="#m3634c1a585" x="57.6" y="142.493692" style="stroke: #000000; stroke-width: 0.6"/>
      </g>
     </g>
    </g>
    <g id="ytick_20">
     <g id="line2d_101">
      <path d="M 57.6 132.613059 
L 414.72 132.613059 
" clip-path="url(#p4a618120b7)" style="fill: none; stroke: #b0b0b0; stroke-width: 0.2; stroke-linecap: square"/>
     </g>
     <g id="line2d_102">
      <g>
       <use xlink:href="#m3634c1a585" x="57.6" y="132.613059" style="stroke: #000000; stroke-width: 0.6"/>
      </g>
     </g>
    </g>
    <g id="ytick_21">
     <g id="line2d_103">
      <path d="M 57.6 122.732427 
L 414.72 122.732427 
" clip-path="url(#p4a618120b7)" style="fill: none; stroke: #b0b0b0; stroke-width: 0.2; stroke-linecap: square"/>
     </g>
     <g id="line2d_104">
      <g>
       <use xlink:href="#m3634c1a585" x="57.6" y="122.732427" style="stroke: #000000; stroke-width: 0.6"/>
      </g>
     </g>
    </g>
    <g id="ytick_22">
     <g id="line2d_105">
      <path d="M 57.6 112.851795 
L 414.72 112.851795 
" clip-path="url(#p4a618120b7)" style="fill: none; stroke: #b0b0b0; stroke-width: 0.2; stroke-linecap: square"/>
     </g>
     <g id="line2d_106">
      <g>
       <use xlink:href="#m3634c1a585" x="57.6" y="112.851795" style="stroke: #000000; stroke-width: 0.6"/>
      </g>
     </g>
    </g>
    <g id="ytick_23">
     <g id="line2d_107">
      <path d="M 57.6 93.09053 
L 414.72 93.09053 
" clip-path="url(#p4a618120b7)" style="fill: none; stroke: #b0b0b0; stroke-width: 0.2; stroke-linecap: square"/>
     </g>
     <g id="line2d_108">
      <g>
       <use xlink:href="#m3634c1a585" x="57.6" y="93.09053" style="stroke: #000000; stroke-width: 0.6"/>
      </g>
     </g>
    </g>
    <g id="ytick_24">
     <g id="line2d_109">
      <path d="M 57.6 83.209897 
L 414.72 83.209897 
" clip-path="url(#p4a618120b7)" style="fill: none; stroke: #b0b0b0; stroke-width: 0.2; stroke-linecap: square"/>
     </g>
     <g id="line2d_110">
      <g>
       <use xlink:href="#m3634c1a585" x="57.6" y="83.209897" style="stroke: #000000; stroke-width: 0.6"/>
      </g>
     </g>
    </g>
    <g id="ytick_25">
     <g id="line2d_111">
      <path d="M 57.6 73.329265 
L 414.72 73.329265 
" clip-path="url(#p4a618120b7)" style="fill: none; stroke: #b0b0b0; stroke-width: 0.2; stroke-linecap: square"/>
     </g>
     <g id="line2d_112">
      <g>
       <use xlink:href="#m3634c1a585" x="57.6" y="73.329265" style="stroke: #000000; stroke-width: 0.6"/>
      </g>
     </g>
    </g>
    <g id="ytick_26">
     <g id="line2d_113">
      <path d="M 57.6 63.448632 
L 414.72 63.448632 
" clip-path="url(#p4a618120b7)" style="fill: none; stroke: #b0b0b0; stroke-width: 0.2; stroke-linecap: square"/>
     </g>
     <g id="line2d_114">
      <g>
       <use xlink:href="#m3634c1a585" x="57.6" y="63.448632" style="stroke: #000000; stroke-width: 0.6"/>
      </g>
     </g>
    </g>
    <g id="ytick_27">
     <g id="line2d_115">
      <path d="M 57.6 43.687368 
L 414.72 43.687368 
" clip-path="url(#p4a618120b7)" style="fill: none; stroke: #b0b0b0; stroke-width: 0.2; stroke-linecap: square"/>
     </g>
     <g id="line2d_116">
      <g>
       <use xlink:href="#m3634c1a585" x="57.6" y="43.687368" style="stroke: #000000; stroke-width: 0.6"/>
      </g>
     </g>
    </g>
    <g id="text_16">
     <!-- $State$ -->
     <g transform="translate(20.2375 187.778)rotate(-90)scale(0.1 -0.1)">
      <defs>
       <path id="DejaVuSans-Oblique-53" d="M 3859 4513 
L 3738 3897 
Q 3422 4066 3111 4152 
Q 2800 4238 2509 4238 
Q 1944 4238 1609 3991 
Q 1275 3744 1275 3334 
Q 1275 3109 1398 2989 
Q 1522 2869 2034 2731 
L 2413 2638 
Q 3053 2472 3303 2217 
Q 3553 1963 3553 1503 
Q 3553 797 2998 353 
Q 2444 -91 1538 -91 
Q 1166 -91 791 -17 
Q 416 56 38 206 
L 166 856 
Q 513 641 861 531 
Q 1209 422 1556 422 
Q 2147 422 2503 684 
Q 2859 947 2859 1369 
Q 2859 1650 2717 1795 
Q 2575 1941 2106 2059 
L 1728 2156 
Q 1081 2325 845 2545 
Q 609 2766 609 3163 
Q 609 3859 1145 4304 
Q 1681 4750 2541 4750 
Q 2875 4750 3203 4690 
Q 3531 4631 3859 4513 
z
" transform="scale(0.015625)"/>
       <path id="DejaVuSans-Oblique-61" d="M 3438 1997 
L 3047 0 
L 2472 0 
L 2578 531 
Q 2325 219 2001 64 
Q 1678 -91 1281 -91 
Q 834 -91 548 182 
Q 263 456 263 884 
Q 263 1497 752 1853 
Q 1241 2209 2100 2209 
L 2900 2209 
L 2931 2363 
Q 2938 2388 2941 2417 
Q 2944 2447 2944 2509 
Q 2944 2788 2717 2942 
Q 2491 3097 2081 3097 
Q 1800 3097 1504 3025 
Q 1209 2953 897 2809 
L 997 3341 
Q 1322 3463 1633 3523 
Q 1944 3584 2234 3584 
Q 2853 3584 3176 3315 
Q 3500 3047 3500 2534 
Q 3500 2431 3484 2292 
Q 3469 2153 3438 1997 
z
M 2816 1759 
L 2241 1759 
Q 1534 1759 1195 1570 
Q 856 1381 856 984 
Q 856 709 1029 553 
Q 1203 397 1509 397 
Q 1978 397 2328 733 
Q 2678 1069 2791 1631 
L 2816 1759 
z
" transform="scale(0.015625)"/>
      </defs>
      <use xlink:href="#DejaVuSans-Oblique-53" transform="translate(0 0.78125)"/>
      <use xlink:href="#DejaVuSans-Oblique-74" transform="translate(63.476562 0.78125)"/>
      <use xlink:href="#DejaVuSans-Oblique-61" transform="translate(102.685547 0.78125)"/>
      <use xlink:href="#DejaVuSans-Oblique-74" transform="translate(163.964844 0.78125)"/>
      <use xlink:href="#DejaVuSans-Oblique-65" transform="translate(203.173828 0.78125)"/>
     </g>
    </g>
   </g>
   <g id="line2d_117">
    <path d="M 57.6 201.777486 
L 60.571238 201.666485 
L 62.966323 201.323915 
L 65.756621 200.692955 
L 69.17545 199.681632 
L 73.777536 198.072124 
L 81.222298 195.204716 
L 89.836032 191.670263 
L 95.864218 188.963105 
L 101.297203 186.278002 
L 107.14921 183.128662 
L 118.081843 176.916176 
L 125.314714 172.968836 
L 132.114278 169.522003 
L 149.660774 160.774756 
L 157.048397 156.701883 
L 170.495155 149.249619 
L 177.925632 145.45119 
L 192.172339 138.228936 
L 200.490854 133.667926 
L 211.273498 127.78968 
L 219.937229 123.370651 
L 229.936589 118.218129 
L 241.866778 111.969328 
L 245.352269 110.575521 
L 250.404326 108.818886 
L 256.408704 106.950639 
L 260.796518 105.810404 
L 264.808166 104.997977 
L 269.017421 104.376603 
L 273.933773 103.884059 
L 280.242893 103.4872 
L 288.601882 103.194624 
L 300.151142 103.029456 
L 323.342515 102.96937 
L 414.72 102.969577 
L 414.72 102.969577 
" clip-path="url(#p4a618120b7)" style="fill: none; stroke: #ff0000; stroke-width: 1.5; stroke-linecap: square"/>
   </g>
   <g id="line2d_118">
    <path d="M 57.6 53.568 
L 60.704563 53.679042 
L 62.547302 53.978139 
L 64.299571 54.492807 
L 66.673229 55.440847 
L 70.411085 57.199281 
L 78.448666 61.280703 
L 156.960307 101.820777 
L 236.586163 142.828867 
L 240.633523 144.584002 
L 244.509466 146.023421 
L 248.397312 147.229967 
L 252.43991 148.249862 
L 256.822963 149.122525 
L 261.803597 149.881641 
L 267.696077 150.547714 
L 274.78848 151.118611 
L 283.39031 151.580247 
L 294.315802 151.932956 
L 309.298176 152.179516 
L 332.875238 152.320868 
L 388.019328 152.369239 
L 414.72 152.370861 
L 414.72 152.370861 
" clip-path="url(#p4a618120b7)" style="fill: none; stroke: #0000ff; stroke-width: 1.5; stroke-linecap: square"/>
   </g>
   <g id="line2d_119">
    <path d="M 57.6 201.777486 
L 58.416614 201.666446 
L 58.892774 201.358143 
L 59.35465 200.777699 
L 59.854618 199.76316 
L 60.447437 198.007431 
L 61.164058 195.137662 
L 62.025907 190.706184 
L 63.063936 184.130034 
L 64.337664 174.541769 
L 65.994701 160.247274 
L 69.192115 130.21596 
L 71.522918 109.451683 
L 73.094246 97.348255 
L 74.367974 89.161437 
L 75.441715 83.613912 
L 76.355942 79.979056 
L 77.132083 77.735404 
L 77.782042 76.478713 
L 78.317722 75.881646 
L 78.76055 75.69275 
L 79.155763 75.759656 
L 79.567642 76.067415 
L 80.03904 76.719054 
L 80.593766 77.895698 
L 81.241344 79.82803 
L 81.991296 82.810402 
L 82.853146 87.204663 
L 83.836416 93.436821 
L 84.960154 102.061016 
L 86.252928 113.791598 
L 87.771878 129.711732 
L 89.657472 151.968249 
L 92.614426 189.913162 
L 95.995162 232.525809 
L 97.856947 253.229576 
L 99.35209 267.507315 
L 100.621056 277.606311 
L 101.713843 284.625955 
L 102.659021 289.347665 
L 103.470874 292.356107 
L 104.161306 294.131751 
L 104.735078 295.051628 
L 105.204096 295.426328 
L 105.599309 295.478212 
L 105.982618 295.298379 
L 106.408781 294.8335 
L 106.91351 293.924787 
L 107.511091 292.353182 
L 108.211046 289.84283 
L 109.02528 286.042628 
L 109.968077 280.516927 
L 111.058483 272.728295 
L 112.332211 261.937311 
L 113.863066 246.960341 
L 115.87008 224.959093 
L 121.917312 157.193358 
L 123.469594 143.037924 
L 124.757606 133.215246 
L 125.857536 126.435236 
L 126.802714 121.907375 
L 127.609805 119.046614 
L 128.293094 117.374069 
L 128.859725 116.518443 
L 129.323981 116.179934 
L 129.719194 116.149971 
L 130.107264 116.35155 
L 130.54295 116.849706 
L 131.057203 117.805085 
L 131.664307 119.438395 
L 132.376166 122.035622 
L 133.204685 125.953809 
L 134.164147 131.63089 
L 135.278362 139.634355 
L 136.592563 150.780368 
L 138.206746 166.490943 
L 140.516122 191.389491 
L 144.477773 234.124438 
L 146.151475 249.649969 
L 147.496627 260.169088 
L 148.629888 267.381086 
L 149.596493 272.195355 
L 150.42263 275.263917 
L 151.120205 277.072031 
L 151.698739 278.014597 
L 152.172518 278.405696 
L 152.572493 278.467605 
L 152.955802 278.296348 
L 153.381965 277.841773 
L 153.884314 276.951199 
L 154.479514 275.405609 
L 155.179469 272.922499 
L 155.993702 269.161352 
L 156.941261 263.669107 
L 158.045952 255.882877 
L 159.360154 244.943563 
L 161.007667 229.234987 
L 163.643213 201.622795 
L 166.535885 172.013697 
L 168.15721 157.642986 
L 169.452365 148.031528 
L 170.53801 141.536734 
L 171.46176 137.26876 
L 172.245043 134.621093 
L 172.902144 133.11632 
L 173.442586 132.379932 
L 173.883034 132.118227 
L 174.263962 132.138054 
L 174.652032 132.39302 
L 175.097242 132.976246 
L 175.625779 134.068379 
L 176.25193 135.914528 
L 176.985216 138.816617 
L 177.842304 143.174372 
L 178.84224 149.479174 
L 180.025498 158.445367 
L 181.475405 171.245276 
L 183.489562 191.20642 
L 187.570253 231.980632 
L 189.070157 244.524864 
L 190.277222 252.860555 
L 191.286682 258.382906 
L 192.141389 261.911652 
L 192.86039 264.012581 
L 193.45559 265.129686 
L 193.938893 265.613989 
L 194.336486 265.725688 
L 194.70551 265.597095 
L 195.107866 265.202419 
L 195.581645 264.399338 
L 196.148275 262.964318 
L 196.81728 260.619723 
L 197.602944 257.00181 
L 198.524314 251.643609 
L 199.609958 243.9391 
L 200.928922 232.883877 
L 202.683571 216.134422 
L 207.509453 169.054662 
L 208.847462 158.675179 
L 209.935488 151.860646 
L 210.847334 147.461672 
L 211.611571 144.783166 
L 212.244864 143.297876 
L 212.761498 142.593767 
L 213.178138 142.363147 
L 213.537638 142.407645 
L 213.911424 142.693313 
L 214.34711 143.333219 
L 214.868506 144.529105 
L 215.489894 146.554627 
L 216.223181 149.755992 
L 217.087411 154.591904 
L 218.108774 161.651408 
L 219.349171 171.881167 
L 220.9824 187.356251 
L 225.860659 234.801767 
L 227.101056 244.112419 
L 228.110515 250.119216 
L 228.950938 253.877938 
L 229.648512 256.066473 
L 230.219904 257.199145 
L 230.677018 257.666209 
L 231.046042 257.754991 
L 231.388877 257.605654 
L 231.772186 257.174449 
L 232.23168 256.292037 
L 232.786406 254.703133 
L 233.448269 252.078216 
L 234.231552 247.995667 
L 235.160064 241.896003 
L 236.286182 232.919351 
L 238.664602 213.468059 
L 239.550259 208.20252 
L 240.259738 205.206979 
L 240.835891 203.641479 
L 241.295386 202.961279 
L 241.654886 202.778221 
L 241.966771 202.862926 
L 242.309606 203.210026 
L 242.731008 203.987132 
L 243.257165 205.468238 
L 243.911885 208.030972 
L 244.735642 212.225071 
L 245.821286 219.008189 
L 247.61641 231.874639 
L 249.8496 247.466256 
L 251.111424 254.747652 
L 252.14231 259.475022 
L 253.020826 262.529878 
L 253.77792 264.416991 
L 254.427878 265.488729 
L 254.984986 266.014722 
L 255.47305 266.189073 
L 255.932544 266.119905 
L 256.422989 265.809917 
L 256.989619 265.16876 
L 257.665766 264.042834 
L 258.489523 262.208484 
L 259.52041 259.331169 
L 260.903654 254.753593 
L 263.710618 244.474829 
L 265.965235 236.668864 
L 267.638938 231.650628 
L 269.141222 227.825724 
L 270.567322 224.785024 
L 271.976755 222.291856 
L 273.41952 220.185499 
L 274.959898 218.328791 
L 276.707405 216.57546 
L 278.876314 214.726864 
L 281.957069 212.415052 
L 285.88777 209.738922 
L 289.051853 207.838407 
L 291.768346 206.461304 
L 294.361037 205.394771 
L 297.027533 204.539918 
L 299.955917 203.839365 
L 303.408077 203.25014 
L 307.803034 202.736774 
L 313.543142 202.299668 
L 320.542694 201.995339 
L 329.858765 201.830357 
L 348.62423 201.769643 
L 414.72 201.777411 
L 414.72 201.777411 
" clip-path="url(#p4a618120b7)" style="fill: none; stroke: #008000; stroke-width: 1.5; stroke-linecap: square"/>
   </g>
   <g id="patch_3">
    <path d="M 57.6 307.584 
L 57.6 41.472 
" style="fill: none; stroke: #000000; stroke-width: 0.8; stroke-linejoin: miter; stroke-linecap: square"/>
   </g>
   <g id="patch_4">
    <path d="M 414.72 307.584 
L 414.72 41.472 
" style="fill: none; stroke: #000000; stroke-width: 0.8; stroke-linejoin: miter; stroke-linecap: square"/>
   </g>
   <g id="patch_5">
    <path d="M 57.6 307.584 
L 414.72 307.584 
" style="fill: none; stroke: #000000; stroke-width: 0.8; stroke-linejoin: miter; stroke-linecap: square"/>
   </g>
   <g id="patch_6">
    <path d="M 57.6 41.472 
L 414.72 41.472 
" style="fill: none; stroke: #000000; stroke-width: 0.8; stroke-linejoin: miter; stroke-linecap: square"/>
   </g>
   <g id="text_17">
    <!-- constrained $State \; vs \; time$ -->
    <g transform="translate(159.48 35.472)scale(0.12 -0.12)">
     <defs>
      <path id="DejaVuSans-63" d="M 3122 3366 
L 3122 2828 
Q 2878 2963 2633 3030 
Q 2388 3097 2138 3097 
Q 1578 3097 1268 2742 
Q 959 2388 959 1747 
Q 959 1106 1268 751 
Q 1578 397 2138 397 
Q 2388 397 2633 464 
Q 2878 531 3122 666 
L 3122 134 
Q 2881 22 2623 -34 
Q 2366 -91 2075 -91 
Q 1284 -91 818 406 
Q 353 903 353 1747 
Q 353 2603 823 3093 
Q 1294 3584 2113 3584 
Q 2378 3584 2631 3529 
Q 2884 3475 3122 3366 
z
" transform="scale(0.015625)"/>
      <path id="DejaVuSans-6f" d="M 1959 3097 
Q 1497 3097 1228 2736 
Q 959 2375 959 1747 
Q 959 1119 1226 758 
Q 1494 397 1959 397 
Q 2419 397 2687 759 
Q 2956 1122 2956 1747 
Q 2956 2369 2687 2733 
Q 2419 3097 1959 3097 
z
M 1959 3584 
Q 2709 3584 3137 3096 
Q 3566 2609 3566 1747 
Q 3566 888 3137 398 
Q 2709 -91 1959 -91 
Q 1206 -91 779 398 
Q 353 888 353 1747 
Q 353 2609 779 3096 
Q 1206 3584 1959 3584 
z
" transform="scale(0.015625)"/>
      <path id="DejaVuSans-6e" d="M 3513 2113 
L 3513 0 
L 2938 0 
L 2938 2094 
Q 2938 2591 2744 2837 
Q 2550 3084 2163 3084 
Q 1697 3084 1428 2787 
Q 1159 2491 1159 1978 
L 1159 0 
L 581 0 
L 581 3500 
L 1159 3500 
L 1159 2956 
Q 1366 3272 1645 3428 
Q 1925 3584 2291 3584 
Q 2894 3584 3203 3211 
Q 3513 2838 3513 2113 
z
" transform="scale(0.015625)"/>
      <path id="DejaVuSans-73" d="M 2834 3397 
L 2834 2853 
Q 2591 2978 2328 3040 
Q 2066 3103 1784 3103 
Q 1356 3103 1142 2972 
Q 928 2841 928 2578 
Q 928 2378 1081 2264 
Q 1234 2150 1697 2047 
L 1894 2003 
Q 2506 1872 2764 1633 
Q 3022 1394 3022 966 
Q 3022 478 2636 193 
Q 2250 -91 1575 -91 
Q 1294 -91 989 -36 
Q 684 19 347 128 
L 347 722 
Q 666 556 975 473 
Q 1284 391 1588 391 
Q 1994 391 2212 530 
Q 2431 669 2431 922 
Q 2431 1156 2273 1281 
Q 2116 1406 1581 1522 
L 1381 1569 
Q 847 1681 609 1914 
Q 372 2147 372 2553 
Q 372 3047 722 3315 
Q 1072 3584 1716 3584 
Q 2034 3584 2315 3537 
Q 2597 3491 2834 3397 
z
" transform="scale(0.015625)"/>
      <path id="DejaVuSans-74" d="M 1172 4494 
L 1172 3500 
L 2356 3500 
L 2356 3053 
L 1172 3053 
L 1172 1153 
Q 1172 725 1289 603 
Q 1406 481 1766 481 
L 2356 481 
L 2356 0 
L 1766 0 
Q 1100 0 847 248 
Q 594 497 594 1153 
L 594 3053 
L 172 3053 
L 172 3500 
L 594 3500 
L 594 4494 
L 1172 4494 
z
" transform="scale(0.015625)"/>
      <path id="DejaVuSans-72" d="M 2631 2963 
Q 2534 3019 2420 3045 
Q 2306 3072 2169 3072 
Q 1681 3072 1420 2755 
Q 1159 2438 1159 1844 
L 1159 0 
L 581 0 
L 581 3500 
L 1159 3500 
L 1159 2956 
Q 1341 3275 1631 3429 
Q 1922 3584 2338 3584 
Q 2397 3584 2469 3576 
Q 2541 3569 2628 3553 
L 2631 2963 
z
" transform="scale(0.015625)"/>
      <path id="DejaVuSans-61" d="M 2194 1759 
Q 1497 1759 1228 1600 
Q 959 1441 959 1056 
Q 959 750 1161 570 
Q 1363 391 1709 391 
Q 2188 391 2477 730 
Q 2766 1069 2766 1631 
L 2766 1759 
L 2194 1759 
z
M 3341 1997 
L 3341 0 
L 2766 0 
L 2766 531 
Q 2569 213 2275 61 
Q 1981 -91 1556 -91 
Q 1019 -91 701 211 
Q 384 513 384 1019 
Q 384 1609 779 1909 
Q 1175 2209 1959 2209 
L 2766 2209 
L 2766 2266 
Q 2766 2663 2505 2880 
Q 2244 3097 1772 3097 
Q 1472 3097 1187 3025 
Q 903 2953 641 2809 
L 641 3341 
Q 956 3463 1253 3523 
Q 1550 3584 1831 3584 
Q 2591 3584 2966 3190 
Q 3341 2797 3341 1997 
z
" transform="scale(0.015625)"/>
      <path id="DejaVuSans-69" d="M 603 3500 
L 1178 3500 
L 1178 0 
L 603 0 
L 603 3500 
z
M 603 4863 
L 1178 4863 
L 1178 4134 
L 603 4134 
L 603 4863 
z
" transform="scale(0.015625)"/>
      <path id="DejaVuSans-65" d="M 3597 1894 
L 3597 1613 
L 953 1613 
Q 991 1019 1311 708 
Q 1631 397 2203 397 
Q 2534 397 2845 478 
Q 3156 559 3463 722 
L 3463 178 
Q 3153 47 2828 -22 
Q 2503 -91 2169 -91 
Q 1331 -91 842 396 
Q 353 884 353 1716 
Q 353 2575 817 3079 
Q 1281 3584 2069 3584 
Q 2775 3584 3186 3129 
Q 3597 2675 3597 1894 
z
M 3022 2063 
Q 3016 2534 2758 2815 
Q 2500 3097 2075 3097 
Q 1594 3097 1305 2825 
Q 1016 2553 972 2059 
L 3022 2063 
z
" transform="scale(0.015625)"/>
      <path id="DejaVuSans-64" d="M 2906 2969 
L 2906 4863 
L 3481 4863 
L 3481 0 
L 2906 0 
L 2906 525 
Q 2725 213 2448 61 
Q 2172 -91 1784 -91 
Q 1150 -91 751 415 
Q 353 922 353 1747 
Q 353 2572 751 3078 
Q 1150 3584 1784 3584 
Q 2172 3584 2448 3432 
Q 2725 3281 2906 2969 
z
M 947 1747 
Q 947 1113 1208 752 
Q 1469 391 1925 391 
Q 2381 391 2643 752 
Q 2906 1113 2906 1747 
Q 2906 2381 2643 2742 
Q 2381 3103 1925 3103 
Q 1469 3103 1208 2742 
Q 947 2381 947 1747 
z
" transform="scale(0.015625)"/>
      <path id="DejaVuSans-20" transform="scale(0.015625)"/>
      <path id="DejaVuSans-Oblique-76" d="M 459 3500 
L 1069 3500 
L 1581 525 
L 3256 3500 
L 3866 3500 
L 1875 0 
L 1100 0 
L 459 3500 
z
" transform="scale(0.015625)"/>
     </defs>
     <use xlink:href="#DejaVuSans-63" transform="translate(0 0.015625)"/>
     <use xlink:href="#DejaVuSans-6f" transform="translate(54.980469 0.015625)"/>
     <use xlink:href="#DejaVuSans-6e" transform="translate(116.162109 0.015625)"/>
     <use xlink:href="#DejaVuSans-73" transform="translate(179.541016 0.015625)"/>
     <use xlink:href="#DejaVuSans-74" transform="translate(231.640625 0.015625)"/>
     <use xlink:href="#DejaVuSans-72" transform="translate(270.849609 0.015625)"/>
     <use xlink:href="#DejaVuSans-61" transform="translate(311.962891 0.015625)"/>
     <use xlink:href="#DejaVuSans-69" transform="translate(373.242188 0.015625)"/>
     <use xlink:href="#DejaVuSans-6e" transform="translate(401.025391 0.015625)"/>
     <use xlink:href="#DejaVuSans-65" transform="translate(464.404297 0.015625)"/>
     <use xlink:href="#DejaVuSans-64" transform="translate(525.927734 0.015625)"/>
     <use xlink:href="#DejaVuSans-20" transform="translate(589.404297 0.015625)"/>
     <use xlink:href="#DejaVuSans-Oblique-53" transform="translate(621.191406 0.015625)"/>
     <use xlink:href="#DejaVuSans-Oblique-74" transform="translate(684.667969 0.015625)"/>
     <use xlink:href="#DejaVuSans-Oblique-61" transform="translate(723.876953 0.015625)"/>
     <use xlink:href="#DejaVuSans-Oblique-74" transform="translate(785.15625 0.015625)"/>
     <use xlink:href="#DejaVuSans-Oblique-65" transform="translate(824.365234 0.015625)"/>
     <use xlink:href="#DejaVuSans-Oblique-76" transform="translate(912.947808 0.015625)"/>
     <use xlink:href="#DejaVuSans-Oblique-73" transform="translate(972.127495 0.015625)"/>
     <use xlink:href="#DejaVuSans-Oblique-74" transform="translate(1051.28624 0.015625)"/>
     <use xlink:href="#DejaVuSans-Oblique-69" transform="translate(1090.495225 0.015625)"/>
     <use xlink:href="#DejaVuSans-Oblique-6d" transform="translate(1118.278428 0.015625)"/>
     <use xlink:href="#DejaVuSans-Oblique-65" transform="translate(1215.690537 0.015625)"/>
    </g>
   </g>
   <g id="legend_1">
    <g id="patch_7">
     <path d="M 323.82 93.62825 
L 407.72 93.62825 
Q 409.72 93.62825 409.72 91.62825 
L 409.72 48.472 
Q 409.72 46.472 407.72 46.472 
L 323.82 46.472 
Q 321.82 46.472 321.82 48.472 
L 321.82 91.62825 
Q 321.82 93.62825 323.82 93.62825 
z
" style="fill: #ffffff; opacity: 0.8; stroke: #cccccc; stroke-linejoin: miter"/>
    </g>
    <g id="line2d_120">
     <path d="M 325.82 54.570438 
L 335.82 54.570438 
L 345.82 54.570438 
" style="fill: none; stroke: #ff0000; stroke-width: 1.5; stroke-linecap: square"/>
    </g>
    <g id="text_18">
     <!-- $x \; (meter)$ -->
     <g transform="translate(353.82 58.070438)scale(0.1 -0.1)">
      <defs>
       <path id="DejaVuSans-Oblique-78" d="M 3841 3500 
L 2234 1784 
L 3219 0 
L 2559 0 
L 1819 1388 
L 531 0 
L -166 0 
L 1556 1844 
L 641 3500 
L 1300 3500 
L 1972 2234 
L 3144 3500 
L 3841 3500 
z
" transform="scale(0.015625)"/>
       <path id="DejaVuSans-Oblique-72" d="M 2853 2969 
Q 2766 3016 2653 3041 
Q 2541 3066 2413 3066 
Q 1953 3066 1609 2717 
Q 1266 2369 1153 1784 
L 800 0 
L 225 0 
L 909 3500 
L 1484 3500 
L 1375 2956 
Q 1603 3259 1920 3421 
Q 2238 3584 2597 3584 
Q 2691 3584 2781 3573 
Q 2872 3563 2963 3538 
L 2853 2969 
z
" transform="scale(0.015625)"/>
      </defs>
      <use xlink:href="#DejaVuSans-Oblique-78" transform="translate(0 0.125)"/>
      <use xlink:href="#DejaVuSans-28" transform="translate(86.238823 0.125)"/>
      <use xlink:href="#DejaVuSans-Oblique-6d" transform="translate(125.252495 0.125)"/>
      <use xlink:href="#DejaVuSans-Oblique-65" transform="translate(222.664604 0.125)"/>
      <use xlink:href="#DejaVuSans-Oblique-74" transform="translate(284.188042 0.125)"/>
      <use xlink:href="#DejaVuSans-Oblique-65" transform="translate(323.397026 0.125)"/>
      <use xlink:href="#DejaVuSans-Oblique-72" transform="translate(384.920464 0.125)"/>
      <use xlink:href="#DejaVuSans-29" transform="translate(426.033745 0.125)"/>
     </g>
    </g>
    <g id="line2d_121">
     <path d="M 325.82 69.248563 
L 335.82 69.248563 
L 345.82 69.248563 
" style="fill: none; stroke: #0000ff; stroke-width: 1.5; stroke-linecap: square"/>
    </g>
    <g id="text_19">
     <!-- $l \; (meter)$ -->
     <g transform="translate(353.82 72.748563)scale(0.1 -0.1)">
      <defs>
       <path id="DejaVuSans-Oblique-6c" d="M 1172 4863 
L 1747 4863 
L 800 0 
L 225 0 
L 1172 4863 
z
" transform="scale(0.015625)"/>
      </defs>
      <use xlink:href="#DejaVuSans-Oblique-6c" transform="translate(0 0.015625)"/>
      <use xlink:href="#DejaVuSans-28" transform="translate(54.842339 0.015625)"/>
      <use xlink:href="#DejaVuSans-Oblique-6d" transform="translate(93.856011 0.015625)"/>
      <use xlink:href="#DejaVuSans-Oblique-65" transform="translate(191.26812 0.015625)"/>
      <use xlink:href="#DejaVuSans-Oblique-74" transform="translate(252.791558 0.015625)"/>
      <use xlink:href="#DejaVuSans-Oblique-65" transform="translate(292.000542 0.015625)"/>
      <use xlink:href="#DejaVuSans-Oblique-72" transform="translate(353.523979 0.015625)"/>
      <use xlink:href="#DejaVuSans-29" transform="translate(394.637261 0.015625)"/>
     </g>
    </g>
    <g id="line2d_122">
     <path d="M 325.82 84.02825 
L 335.82 84.02825 
L 345.82 84.02825 
" style="fill: none; stroke: #008000; stroke-width: 1.5; stroke-linecap: square"/>
    </g>
    <g id="text_20">
     <!-- $\theta \; (degree)$ -->
     <g transform="translate(353.82 87.52825)scale(0.1 -0.1)">
      <defs>
       <path id="DejaVuSans-Oblique-3b8" d="M 2913 2219 
L 925 2219 
Q 791 1284 928 888 
Q 1100 400 1566 400 
Q 2034 400 2391 891 
Q 2703 1322 2913 2219 
z
M 3009 2750 
Q 3094 3638 2984 3950 
Q 2813 4444 2353 4444 
Q 1875 4444 1525 3956 
Q 1250 3563 1034 2750 
L 3009 2750 
z
M 2444 4913 
Q 3194 4913 3494 4250 
Q 3794 3591 3566 2422 
Q 3341 1256 2781 594 
Q 2225 -72 1475 -72 
Q 722 -72 425 594 
Q 128 1256 353 2422 
Q 581 3591 1134 4250 
Q 1691 4913 2444 4913 
z
" transform="scale(0.015625)"/>
       <path id="DejaVuSans-Oblique-64" d="M 2675 525 
Q 2444 222 2128 65 
Q 1813 -91 1428 -91 
Q 903 -91 598 267 
Q 294 625 294 1247 
Q 294 1766 478 2236 
Q 663 2706 1013 3078 
Q 1244 3325 1534 3454 
Q 1825 3584 2144 3584 
Q 2481 3584 2739 3421 
Q 2997 3259 3138 2956 
L 3513 4863 
L 4091 4863 
L 3144 0 
L 2566 0 
L 2675 525 
z
M 891 1350 
Q 891 897 1095 644 
Q 1300 391 1663 391 
Q 1931 391 2161 520 
Q 2391 650 2566 903 
Q 2750 1166 2856 1509 
Q 2963 1853 2963 2188 
Q 2963 2622 2758 2865 
Q 2553 3109 2194 3109 
Q 1922 3109 1687 2981 
Q 1453 2853 1288 2613 
Q 1106 2353 998 2009 
Q 891 1666 891 1350 
z
" transform="scale(0.015625)"/>
       <path id="DejaVuSans-Oblique-67" d="M 3816 3500 
L 3219 434 
Q 3047 -456 2561 -893 
Q 2075 -1331 1253 -1331 
Q 950 -1331 690 -1286 
Q 431 -1241 206 -1147 
L 313 -588 
Q 525 -725 762 -790 
Q 1000 -856 1269 -856 
Q 1816 -856 2167 -557 
Q 2519 -259 2631 300 
L 2681 563 
Q 2441 288 2122 144 
Q 1803 0 1434 0 
Q 903 0 598 351 
Q 294 703 294 1319 
Q 294 1803 478 2267 
Q 663 2731 997 3091 
Q 1219 3328 1514 3456 
Q 1809 3584 2131 3584 
Q 2484 3584 2746 3420 
Q 3009 3256 3138 2956 
L 3238 3500 
L 3816 3500 
z
M 2950 2216 
Q 2950 2641 2750 2872 
Q 2550 3103 2181 3103 
Q 1953 3103 1747 3012 
Q 1541 2922 1394 2759 
Q 1156 2491 1023 2127 
Q 891 1763 891 1375 
Q 891 944 1092 712 
Q 1294 481 1672 481 
Q 2219 481 2584 976 
Q 2950 1472 2950 2216 
z
" transform="scale(0.015625)"/>
      </defs>
      <use xlink:href="#DejaVuSans-Oblique-3b8" transform="translate(0 0.234375)"/>
      <use xlink:href="#DejaVuSans-28" transform="translate(88.240776 0.234375)"/>
      <use xlink:href="#DejaVuSans-Oblique-64" transform="translate(127.254448 0.234375)"/>
      <use xlink:href="#DejaVuSans-Oblique-65" transform="translate(190.731011 0.234375)"/>
      <use xlink:href="#DejaVuSans-Oblique-67" transform="translate(252.254448 0.234375)"/>
      <use xlink:href="#DejaVuSans-Oblique-72" transform="translate(315.731011 0.234375)"/>
      <use xlink:href="#DejaVuSans-Oblique-65" transform="translate(356.844292 0.234375)"/>
      <use xlink:href="#DejaVuSans-Oblique-65" transform="translate(418.367729 0.234375)"/>
      <use xlink:href="#DejaVuSans-29" transform="translate(479.891167 0.234375)"/>
     </g>
    </g>
   </g>
  </g>
 </g>
 <defs>
  <clipPath id="p4a618120b7">
   <rect x="57.6" y="41.472" width="357.12" height="266.112"/>
  </clipPath>
 </defs>
</svg>
