<?xml version="1.0" encoding="utf-8" standalone="no"?>
<!DOCTYPE svg PUBLIC "-//W3C//DTD SVG 1.1//EN"
  "http://www.w3.org/Graphics/SVG/1.1/DTD/svg11.dtd">
<svg xmlns:xlink="http://www.w3.org/1999/xlink" width="460.8pt" height="345.6pt" viewBox="0 0 460.8 345.6" xmlns="http://www.w3.org/2000/svg" version="1.1">
 <metadata>
  <rdf:RDF xmlns:dc="http://purl.org/dc/elements/1.1/" xmlns:cc="http://creativecommons.org/ns#" xmlns:rdf="http://www.w3.org/1999/02/22-rdf-syntax-ns#">
   <cc:Work>
    <dc:type rdf:resource="http://purl.org/dc/dcmitype/StillImage"/>
    <dc:date>2023-08-23T18:02:00.684809</dc:date>
    <dc:format>image/svg+xml</dc:format>
    <dc:creator>
     <cc:Agent>
      <dc:title>Matplotlib v3.5.3, https://matplotlib.org/</dc:title>
     </cc:Agent>
    </dc:creator>
   </cc:Work>
  </rdf:RDF>
 </metadata>
 <defs>
  <style type="text/css">*{stroke-linejoin: round; stroke-linecap: butt}</style>
 </defs>
 <g id="figure_1">
  <g id="patch_1">
   <path d="M 0 345.6 
L 460.8 345.6 
L 460.8 0 
L 0 0 
L 0 345.6 
z
" style="fill: none"/>
  </g>
  <g id="axes_1">
   <g id="patch_2">
    <path d="M 57.6 307.584 
L 414.72 307.584 
L 414.72 41.472 
L 57.6 41.472 
L 57.6 307.584 
z
" style="fill: none"/>
   </g>
   <g id="matplotlib.axis_1">
    <g id="xtick_1">
     <g id="line2d_1">
      <path d="M 73.832727 307.584 
L 73.832727 41.472 
" clip-path="url(#pa5dc14d1ec)" style="fill: none; stroke: #b0b0b0; stroke-width: 0.8; stroke-linecap: square"/>
     </g>
     <g id="line2d_2">
      <defs>
       <path id="m0cd91c188b" d="M 0 0 
L 0 3.5 
" style="stroke: #000000; stroke-width: 0.8"/>
      </defs>
      <g>
       <use xlink:href="#m0cd91c188b" x="73.832727" y="307.584" style="stroke: #000000; stroke-width: 0.8"/>
      </g>
     </g>
     <g id="text_1">
      <!-- 0 -->
      <g transform="translate(70.651477 322.182437)scale(0.1 -0.1)">
       <defs>
        <path id="DejaVuSans-30" d="M 2034 4250 
Q 1547 4250 1301 3770 
Q 1056 3291 1056 2328 
Q 1056 1369 1301 889 
Q 1547 409 2034 409 
Q 2525 409 2770 889 
Q 3016 1369 3016 2328 
Q 3016 3291 2770 3770 
Q 2525 4250 2034 4250 
z
M 2034 4750 
Q 2819 4750 3233 4129 
Q 3647 3509 3647 2328 
Q 3647 1150 3233 529 
Q 2819 -91 2034 -91 
Q 1250 -91 836 529 
Q 422 1150 422 2328 
Q 422 3509 836 4129 
Q 1250 4750 2034 4750 
z
" transform="scale(0.015625)"/>
       </defs>
       <use xlink:href="#DejaVuSans-30"/>
      </g>
     </g>
    </g>
    <g id="xtick_2">
     <g id="line2d_3">
      <path d="M 117.12 307.584 
L 117.12 41.472 
" clip-path="url(#pa5dc14d1ec)" style="fill: none; stroke: #b0b0b0; stroke-width: 0.8; stroke-linecap: square"/>
     </g>
     <g id="line2d_4">
      <g>
       <use xlink:href="#m0cd91c188b" x="117.12" y="307.584" style="stroke: #000000; stroke-width: 0.8"/>
      </g>
     </g>
     <g id="text_2">
      <!-- 2 -->
      <g transform="translate(113.93875 322.182437)scale(0.1 -0.1)">
       <defs>
        <path id="DejaVuSans-32" d="M 1228 531 
L 3431 531 
L 3431 0 
L 469 0 
L 469 531 
Q 828 903 1448 1529 
Q 2069 2156 2228 2338 
Q 2531 2678 2651 2914 
Q 2772 3150 2772 3378 
Q 2772 3750 2511 3984 
Q 2250 4219 1831 4219 
Q 1534 4219 1204 4116 
Q 875 4013 500 3803 
L 500 4441 
Q 881 4594 1212 4672 
Q 1544 4750 1819 4750 
Q 2544 4750 2975 4387 
Q 3406 4025 3406 3419 
Q 3406 3131 3298 2873 
Q 3191 2616 2906 2266 
Q 2828 2175 2409 1742 
Q 1991 1309 1228 531 
z
" transform="scale(0.015625)"/>
       </defs>
       <use xlink:href="#DejaVuSans-32"/>
      </g>
     </g>
    </g>
    <g id="xtick_3">
     <g id="line2d_5">
      <path d="M 160.407273 307.584 
L 160.407273 41.472 
" clip-path="url(#pa5dc14d1ec)" style="fill: none; stroke: #b0b0b0; stroke-width: 0.8; stroke-linecap: square"/>
     </g>
     <g id="line2d_6">
      <g>
       <use xlink:href="#m0cd91c188b" x="160.407273" y="307.584" style="stroke: #000000; stroke-width: 0.8"/>
      </g>
     </g>
     <g id="text_3">
      <!-- 4 -->
      <g transform="translate(157.226023 322.182437)scale(0.1 -0.1)">
       <defs>
        <path id="DejaVuSans-34" d="M 2419 4116 
L 825 1625 
L 2419 1625 
L 2419 4116 
z
M 2253 4666 
L 3047 4666 
L 3047 1625 
L 3713 1625 
L 3713 1100 
L 3047 1100 
L 3047 0 
L 2419 0 
L 2419 1100 
L 313 1100 
L 313 1709 
L 2253 4666 
z
" transform="scale(0.015625)"/>
       </defs>
       <use xlink:href="#DejaVuSans-34"/>
      </g>
     </g>
    </g>
    <g id="xtick_4">
     <g id="line2d_7">
      <path d="M 203.694545 307.584 
L 203.694545 41.472 
" clip-path="url(#pa5dc14d1ec)" style="fill: none; stroke: #b0b0b0; stroke-width: 0.8; stroke-linecap: square"/>
     </g>
     <g id="line2d_8">
      <g>
       <use xlink:href="#m0cd91c188b" x="203.694545" y="307.584" style="stroke: #000000; stroke-width: 0.8"/>
      </g>
     </g>
     <g id="text_4">
      <!-- 6 -->
      <g transform="translate(200.513295 322.182437)scale(0.1 -0.1)">
       <defs>
        <path id="DejaVuSans-36" d="M 2113 2584 
Q 1688 2584 1439 2293 
Q 1191 2003 1191 1497 
Q 1191 994 1439 701 
Q 1688 409 2113 409 
Q 2538 409 2786 701 
Q 3034 994 3034 1497 
Q 3034 2003 2786 2293 
Q 2538 2584 2113 2584 
z
M 3366 4563 
L 3366 3988 
Q 3128 4100 2886 4159 
Q 2644 4219 2406 4219 
Q 1781 4219 1451 3797 
Q 1122 3375 1075 2522 
Q 1259 2794 1537 2939 
Q 1816 3084 2150 3084 
Q 2853 3084 3261 2657 
Q 3669 2231 3669 1497 
Q 3669 778 3244 343 
Q 2819 -91 2113 -91 
Q 1303 -91 875 529 
Q 447 1150 447 2328 
Q 447 3434 972 4092 
Q 1497 4750 2381 4750 
Q 2619 4750 2861 4703 
Q 3103 4656 3366 4563 
z
" transform="scale(0.015625)"/>
       </defs>
       <use xlink:href="#DejaVuSans-36"/>
      </g>
     </g>
    </g>
    <g id="xtick_5">
     <g id="line2d_9">
      <path d="M 246.981818 307.584 
L 246.981818 41.472 
" clip-path="url(#pa5dc14d1ec)" style="fill: none; stroke: #b0b0b0; stroke-width: 0.8; stroke-linecap: square"/>
     </g>
     <g id="line2d_10">
      <g>
       <use xlink:href="#m0cd91c188b" x="246.981818" y="307.584" style="stroke: #000000; stroke-width: 0.8"/>
      </g>
     </g>
     <g id="text_5">
      <!-- 8 -->
      <g transform="translate(243.800568 322.182437)scale(0.1 -0.1)">
       <defs>
        <path id="DejaVuSans-38" d="M 2034 2216 
Q 1584 2216 1326 1975 
Q 1069 1734 1069 1313 
Q 1069 891 1326 650 
Q 1584 409 2034 409 
Q 2484 409 2743 651 
Q 3003 894 3003 1313 
Q 3003 1734 2745 1975 
Q 2488 2216 2034 2216 
z
M 1403 2484 
Q 997 2584 770 2862 
Q 544 3141 544 3541 
Q 544 4100 942 4425 
Q 1341 4750 2034 4750 
Q 2731 4750 3128 4425 
Q 3525 4100 3525 3541 
Q 3525 3141 3298 2862 
Q 3072 2584 2669 2484 
Q 3125 2378 3379 2068 
Q 3634 1759 3634 1313 
Q 3634 634 3220 271 
Q 2806 -91 2034 -91 
Q 1263 -91 848 271 
Q 434 634 434 1313 
Q 434 1759 690 2068 
Q 947 2378 1403 2484 
z
M 1172 3481 
Q 1172 3119 1398 2916 
Q 1625 2713 2034 2713 
Q 2441 2713 2670 2916 
Q 2900 3119 2900 3481 
Q 2900 3844 2670 4047 
Q 2441 4250 2034 4250 
Q 1625 4250 1398 4047 
Q 1172 3844 1172 3481 
z
" transform="scale(0.015625)"/>
       </defs>
       <use xlink:href="#DejaVuSans-38"/>
      </g>
     </g>
    </g>
    <g id="xtick_6">
     <g id="line2d_11">
      <path d="M 290.269091 307.584 
L 290.269091 41.472 
" clip-path="url(#pa5dc14d1ec)" style="fill: none; stroke: #b0b0b0; stroke-width: 0.8; stroke-linecap: square"/>
     </g>
     <g id="line2d_12">
      <g>
       <use xlink:href="#m0cd91c188b" x="290.269091" y="307.584" style="stroke: #000000; stroke-width: 0.8"/>
      </g>
     </g>
     <g id="text_6">
      <!-- 10 -->
      <g transform="translate(283.906591 322.182437)scale(0.1 -0.1)">
       <defs>
        <path id="DejaVuSans-31" d="M 794 531 
L 1825 531 
L 1825 4091 
L 703 3866 
L 703 4441 
L 1819 4666 
L 2450 4666 
L 2450 531 
L 3481 531 
L 3481 0 
L 794 0 
L 794 531 
z
" transform="scale(0.015625)"/>
       </defs>
       <use xlink:href="#DejaVuSans-31"/>
       <use xlink:href="#DejaVuSans-30" x="63.623047"/>
      </g>
     </g>
    </g>
    <g id="xtick_7">
     <g id="line2d_13">
      <path d="M 333.556364 307.584 
L 333.556364 41.472 
" clip-path="url(#pa5dc14d1ec)" style="fill: none; stroke: #b0b0b0; stroke-width: 0.8; stroke-linecap: square"/>
     </g>
     <g id="line2d_14">
      <g>
       <use xlink:href="#m0cd91c188b" x="333.556364" y="307.584" style="stroke: #000000; stroke-width: 0.8"/>
      </g>
     </g>
     <g id="text_7">
      <!-- 12 -->
      <g transform="translate(327.193864 322.182437)scale(0.1 -0.1)">
       <use xlink:href="#DejaVuSans-31"/>
       <use xlink:href="#DejaVuSans-32" x="63.623047"/>
      </g>
     </g>
    </g>
    <g id="xtick_8">
     <g id="line2d_15">
      <path d="M 376.843636 307.584 
L 376.843636 41.472 
" clip-path="url(#pa5dc14d1ec)" style="fill: none; stroke: #b0b0b0; stroke-width: 0.8; stroke-linecap: square"/>
     </g>
     <g id="line2d_16">
      <g>
       <use xlink:href="#m0cd91c188b" x="376.843636" y="307.584" style="stroke: #000000; stroke-width: 0.8"/>
      </g>
     </g>
     <g id="text_8">
      <!-- 14 -->
      <g transform="translate(370.481136 322.182437)scale(0.1 -0.1)">
       <use xlink:href="#DejaVuSans-31"/>
       <use xlink:href="#DejaVuSans-34" x="63.623047"/>
      </g>
     </g>
    </g>
    <g id="text_9">
     <!-- time (s) -->
     <g transform="translate(216.768594 335.860562)scale(0.1 -0.1)">
      <defs>
       <path id="DejaVuSans-74" d="M 1172 4494 
L 1172 3500 
L 2356 3500 
L 2356 3053 
L 1172 3053 
L 1172 1153 
Q 1172 725 1289 603 
Q 1406 481 1766 481 
L 2356 481 
L 2356 0 
L 1766 0 
Q 1100 0 847 248 
Q 594 497 594 1153 
L 594 3053 
L 172 3053 
L 172 3500 
L 594 3500 
L 594 4494 
L 1172 4494 
z
" transform="scale(0.015625)"/>
       <path id="DejaVuSans-69" d="M 603 3500 
L 1178 3500 
L 1178 0 
L 603 0 
L 603 3500 
z
M 603 4863 
L 1178 4863 
L 1178 4134 
L 603 4134 
L 603 4863 
z
" transform="scale(0.015625)"/>
       <path id="DejaVuSans-6d" d="M 3328 2828 
Q 3544 3216 3844 3400 
Q 4144 3584 4550 3584 
Q 5097 3584 5394 3201 
Q 5691 2819 5691 2113 
L 5691 0 
L 5113 0 
L 5113 2094 
Q 5113 2597 4934 2840 
Q 4756 3084 4391 3084 
Q 3944 3084 3684 2787 
Q 3425 2491 3425 1978 
L 3425 0 
L 2847 0 
L 2847 2094 
Q 2847 2600 2669 2842 
Q 2491 3084 2119 3084 
Q 1678 3084 1418 2786 
Q 1159 2488 1159 1978 
L 1159 0 
L 581 0 
L 581 3500 
L 1159 3500 
L 1159 2956 
Q 1356 3278 1631 3431 
Q 1906 3584 2284 3584 
Q 2666 3584 2933 3390 
Q 3200 3197 3328 2828 
z
" transform="scale(0.015625)"/>
       <path id="DejaVuSans-65" d="M 3597 1894 
L 3597 1613 
L 953 1613 
Q 991 1019 1311 708 
Q 1631 397 2203 397 
Q 2534 397 2845 478 
Q 3156 559 3463 722 
L 3463 178 
Q 3153 47 2828 -22 
Q 2503 -91 2169 -91 
Q 1331 -91 842 396 
Q 353 884 353 1716 
Q 353 2575 817 3079 
Q 1281 3584 2069 3584 
Q 2775 3584 3186 3129 
Q 3597 2675 3597 1894 
z
M 3022 2063 
Q 3016 2534 2758 2815 
Q 2500 3097 2075 3097 
Q 1594 3097 1305 2825 
Q 1016 2553 972 2059 
L 3022 2063 
z
" transform="scale(0.015625)"/>
       <path id="DejaVuSans-20" transform="scale(0.015625)"/>
       <path id="DejaVuSans-28" d="M 1984 4856 
Q 1566 4138 1362 3434 
Q 1159 2731 1159 2009 
Q 1159 1288 1364 580 
Q 1569 -128 1984 -844 
L 1484 -844 
Q 1016 -109 783 600 
Q 550 1309 550 2009 
Q 550 2706 781 3412 
Q 1013 4119 1484 4856 
L 1984 4856 
z
" transform="scale(0.015625)"/>
       <path id="DejaVuSans-73" d="M 2834 3397 
L 2834 2853 
Q 2591 2978 2328 3040 
Q 2066 3103 1784 3103 
Q 1356 3103 1142 2972 
Q 928 2841 928 2578 
Q 928 2378 1081 2264 
Q 1234 2150 1697 2047 
L 1894 2003 
Q 2506 1872 2764 1633 
Q 3022 1394 3022 966 
Q 3022 478 2636 193 
Q 2250 -91 1575 -91 
Q 1294 -91 989 -36 
Q 684 19 347 128 
L 347 722 
Q 666 556 975 473 
Q 1284 391 1588 391 
Q 1994 391 2212 530 
Q 2431 669 2431 922 
Q 2431 1156 2273 1281 
Q 2116 1406 1581 1522 
L 1381 1569 
Q 847 1681 609 1914 
Q 372 2147 372 2553 
Q 372 3047 722 3315 
Q 1072 3584 1716 3584 
Q 2034 3584 2315 3537 
Q 2597 3491 2834 3397 
z
" transform="scale(0.015625)"/>
       <path id="DejaVuSans-29" d="M 513 4856 
L 1013 4856 
Q 1481 4119 1714 3412 
Q 1947 2706 1947 2009 
Q 1947 1309 1714 600 
Q 1481 -109 1013 -844 
L 513 -844 
Q 928 -128 1133 580 
Q 1338 1288 1338 2009 
Q 1338 2731 1133 3434 
Q 928 4138 513 4856 
z
" transform="scale(0.015625)"/>
      </defs>
      <use xlink:href="#DejaVuSans-74"/>
      <use xlink:href="#DejaVuSans-69" x="39.208984"/>
      <use xlink:href="#DejaVuSans-6d" x="66.992188"/>
      <use xlink:href="#DejaVuSans-65" x="164.404297"/>
      <use xlink:href="#DejaVuSans-20" x="225.927734"/>
      <use xlink:href="#DejaVuSans-28" x="257.714844"/>
      <use xlink:href="#DejaVuSans-73" x="296.728516"/>
      <use xlink:href="#DejaVuSans-29" x="348.828125"/>
     </g>
    </g>
   </g>
   <g id="matplotlib.axis_2">
    <g id="ytick_1">
     <g id="line2d_17">
      <path d="M 57.6 260.320554 
L 414.72 260.320554 
" clip-path="url(#pa5dc14d1ec)" style="fill: none; stroke: #b0b0b0; stroke-width: 0.8; stroke-linecap: square"/>
     </g>
     <g id="line2d_18">
      <defs>
       <path id="mc0f0cd3b5d" d="M 0 0 
L -3.5 0 
" style="stroke: #000000; stroke-width: 0.8"/>
      </defs>
      <g>
       <use xlink:href="#mc0f0cd3b5d" x="57.6" y="260.320554" style="stroke: #000000; stroke-width: 0.8"/>
      </g>
     </g>
     <g id="text_10">
      <!-- −4 -->
      <g transform="translate(35.857813 264.119772)scale(0.1 -0.1)">
       <defs>
        <path id="DejaVuSans-2212" d="M 678 2272 
L 4684 2272 
L 4684 1741 
L 678 1741 
L 678 2272 
z
" transform="scale(0.015625)"/>
       </defs>
       <use xlink:href="#DejaVuSans-2212"/>
       <use xlink:href="#DejaVuSans-34" x="83.789062"/>
      </g>
     </g>
    </g>
    <g id="ytick_2">
     <g id="line2d_19">
      <path d="M 57.6 212.604103 
L 414.72 212.604103 
" clip-path="url(#pa5dc14d1ec)" style="fill: none; stroke: #b0b0b0; stroke-width: 0.8; stroke-linecap: square"/>
     </g>
     <g id="line2d_20">
      <g>
       <use xlink:href="#mc0f0cd3b5d" x="57.6" y="212.604103" style="stroke: #000000; stroke-width: 0.8"/>
      </g>
     </g>
     <g id="text_11">
      <!-- −2 -->
      <g transform="translate(35.857813 216.403321)scale(0.1 -0.1)">
       <use xlink:href="#DejaVuSans-2212"/>
       <use xlink:href="#DejaVuSans-32" x="83.789062"/>
      </g>
     </g>
    </g>
    <g id="ytick_3">
     <g id="line2d_21">
      <path d="M 57.6 164.887652 
L 414.72 164.887652 
" clip-path="url(#pa5dc14d1ec)" style="fill: none; stroke: #b0b0b0; stroke-width: 0.8; stroke-linecap: square"/>
     </g>
     <g id="line2d_22">
      <g>
       <use xlink:href="#mc0f0cd3b5d" x="57.6" y="164.887652" style="stroke: #000000; stroke-width: 0.8"/>
      </g>
     </g>
     <g id="text_12">
      <!-- 0 -->
      <g transform="translate(44.2375 168.686871)scale(0.1 -0.1)">
       <use xlink:href="#DejaVuSans-30"/>
      </g>
     </g>
    </g>
    <g id="ytick_4">
     <g id="line2d_23">
      <path d="M 57.6 117.171201 
L 414.72 117.171201 
" clip-path="url(#pa5dc14d1ec)" style="fill: none; stroke: #b0b0b0; stroke-width: 0.8; stroke-linecap: square"/>
     </g>
     <g id="line2d_24">
      <g>
       <use xlink:href="#mc0f0cd3b5d" x="57.6" y="117.171201" style="stroke: #000000; stroke-width: 0.8"/>
      </g>
     </g>
     <g id="text_13">
      <!-- 2 -->
      <g transform="translate(44.2375 120.97042)scale(0.1 -0.1)">
       <use xlink:href="#DejaVuSans-32"/>
      </g>
     </g>
    </g>
    <g id="ytick_5">
     <g id="line2d_25">
      <path d="M 57.6 69.45475 
L 414.72 69.45475 
" clip-path="url(#pa5dc14d1ec)" style="fill: none; stroke: #b0b0b0; stroke-width: 0.8; stroke-linecap: square"/>
     </g>
     <g id="line2d_26">
      <g>
       <use xlink:href="#mc0f0cd3b5d" x="57.6" y="69.45475" style="stroke: #000000; stroke-width: 0.8"/>
      </g>
     </g>
     <g id="text_14">
      <!-- 4 -->
      <g transform="translate(44.2375 73.253969)scale(0.1 -0.1)">
       <use xlink:href="#DejaVuSans-34"/>
      </g>
     </g>
    </g>
    <g id="text_15">
     <!-- theta -->
     <g transform="translate(29.778125 187.757688)rotate(-90)scale(0.1 -0.1)">
      <defs>
       <path id="DejaVuSans-68" d="M 3513 2113 
L 3513 0 
L 2938 0 
L 2938 2094 
Q 2938 2591 2744 2837 
Q 2550 3084 2163 3084 
Q 1697 3084 1428 2787 
Q 1159 2491 1159 1978 
L 1159 0 
L 581 0 
L 581 4863 
L 1159 4863 
L 1159 2956 
Q 1366 3272 1645 3428 
Q 1925 3584 2291 3584 
Q 2894 3584 3203 3211 
Q 3513 2838 3513 2113 
z
" transform="scale(0.015625)"/>
       <path id="DejaVuSans-61" d="M 2194 1759 
Q 1497 1759 1228 1600 
Q 959 1441 959 1056 
Q 959 750 1161 570 
Q 1363 391 1709 391 
Q 2188 391 2477 730 
Q 2766 1069 2766 1631 
L 2766 1759 
L 2194 1759 
z
M 3341 1997 
L 3341 0 
L 2766 0 
L 2766 531 
Q 2569 213 2275 61 
Q 1981 -91 1556 -91 
Q 1019 -91 701 211 
Q 384 513 384 1019 
Q 384 1609 779 1909 
Q 1175 2209 1959 2209 
L 2766 2209 
L 2766 2266 
Q 2766 2663 2505 2880 
Q 2244 3097 1772 3097 
Q 1472 3097 1187 3025 
Q 903 2953 641 2809 
L 641 3341 
Q 956 3463 1253 3523 
Q 1550 3584 1831 3584 
Q 2591 3584 2966 3190 
Q 3341 2797 3341 1997 
z
" transform="scale(0.015625)"/>
      </defs>
      <use xlink:href="#DejaVuSans-74"/>
      <use xlink:href="#DejaVuSans-68" x="39.208984"/>
      <use xlink:href="#DejaVuSans-65" x="102.587891"/>
      <use xlink:href="#DejaVuSans-74" x="164.111328"/>
      <use xlink:href="#DejaVuSans-61" x="203.320312"/>
     </g>
    </g>
   </g>
   <g id="line2d_27">
    <path d="M 73.832727 164.887652 
L 73.984233 164.790882 
L 74.200669 164.310619 
L 74.514502 162.97321 
L 74.958196 159.98119 
L 75.57504 154.142822 
L 76.473251 143.283801 
L 78.226385 118.736858 
L 80.152669 92.954247 
L 81.429644 78.727267 
L 82.511825 69.015071 
L 83.453324 62.452349 
L 84.26496 58.238955 
L 84.957556 55.706674 
L 85.541935 54.330739 
L 86.007273 53.731747 
L 86.386036 53.568545 
L 86.721513 53.666698 
L 87.078633 54.021455 
L 87.511505 54.797258 
L 88.030953 56.22833 
L 88.647796 58.636547 
L 89.362036 62.386948 
L 90.173673 67.901094 
L 91.093527 75.752675 
L 92.132422 86.632647 
L 93.312 101.462928 
L 94.675549 121.573377 
L 96.385396 150.328562 
L 101.893702 245.68825 
L 103.203142 263.201888 
L 104.317789 275.273025 
L 105.291753 283.536267 
L 106.135855 288.938201 
L 106.871738 292.317091 
L 107.488582 294.20666 
L 107.997207 295.127907 
L 108.397615 295.45437 
L 108.733091 295.460983 
L 109.068567 295.227065 
L 109.458153 294.657083 
L 109.934313 293.530841 
L 110.507869 291.556772 
L 111.189644 288.349516 
L 111.979636 283.492157 
L 112.888669 276.436265 
L 113.927564 266.54289 
L 115.128785 252.866707 
L 116.578909 233.643218 
L 118.970531 201.368085 
L 119.26272 200.479611 
L 119.435869 200.456081 
L 119.609018 200.785639 
L 119.879564 201.94434 
L 120.258327 204.658731 
L 120.766953 210.001595 
L 121.502836 220.03255 
L 124.587055 264.67151 
L 125.312116 270.9835 
L 125.853207 273.968468 
L 126.28608 275.210075 
L 126.578269 275.4669 
L 126.773062 275.373464 
L 127.054429 274.866636 
L 127.335796 273.912677 
L 127.725382 271.882369 
L 128.223185 268.128113 
L 128.807564 262.127576 
L 129.6192 251.24118 
L 130.517411 236.248297 
L 131.902604 208.940749 
L 135.755171 129.685444 
L 136.99968 109.623758 
L 137.952 97.408917 
L 138.850211 88.586291 
L 139.651025 82.98204 
L 140.343622 79.732704 
L 140.863069 78.311085 
L 141.252655 77.754937 
L 141.566487 77.584825 
L 141.901964 77.689464 
L 142.367302 78.326278 
L 142.756887 79.211371 
L 143.481949 81.697708 
L 144.412625 86.165977 
L 145.830284 94.953224 
L 150.321338 125.693858 
L 151.728175 133.327315 
L 153.18912 139.594892 
L 154.292945 143.227278 
L 155.158691 145.453632 
L 156.543884 148.06764 
L 157.745105 149.56451 
L 159.519884 150.895516 
L 162.138764 152.005322 
L 163.004509 152.308595 
L 163.642996 152.585044 
L 164.292305 152.849292 
L 164.97408 153.21071 
L 165.68832 153.561597 
L 166.413382 154.030889 
L 167.246662 154.528054 
L 169.324451 156.042974 
L 170.0928 156.645772 
L 171.185804 157.409802 
L 173.718109 159.189343 
L 174.075229 159.451794 
L 176.52096 160.878431 
L 177.678895 161.313111 
L 180.102982 162.362567 
L 181.239273 162.636452 
L 181.942691 162.763708 
L 182.775971 162.881555 
L 183.501033 162.970283 
L 184.269382 163.051509 
L 185.037731 163.132037 
L 185.524713 163.218138 
L 189.225775 163.976573 
L 190.059055 164.029095 
L 190.784116 164.061992 
L 191.552465 164.083652 
L 192.299171 164.10295 
L 193.045876 164.117866 
L 193.814225 164.13821 
L 194.539287 164.15769 
L 195.307636 164.186512 
L 196.032698 164.215624 
L 196.801047 164.255181 
L 197.526109 164.294017 
L 198.294458 164.342697 
L 199.01952 164.38852 
L 199.787869 164.442534 
L 200.534575 164.492767 
L 201.28128 164.546059 
L 202.027985 164.594871 
L 202.774691 164.644768 
L 203.521396 164.688448 
L 204.268102 164.731768 
L 205.014807 164.767742 
L 205.761513 164.802555 
L 206.529862 164.830299 
L 207.276567 164.855811 
L 208.044916 164.874092 
L 208.791622 164.89076 
L 209.559971 164.900516 
L 210.306676 164.909625 
L 211.053382 164.912384 
L 211.800087 164.915762 
L 212.546793 164.913714 
L 213.293498 164.913213 
L 214.040204 164.908182 
L 214.786909 164.90554 
L 215.533615 164.899138 
L 216.28032 164.895807 
L 217.027025 164.889302 
L 217.773731 164.886355 
L 218.520436 164.880617 
L 219.267142 164.878723 
L 220.013847 164.874232 
L 220.760553 164.873696 
L 221.507258 164.870597 
L 222.253964 164.871426 
L 223.000669 164.869613 
L 223.747375 164.871607 
L 224.49408 164.870811 
L 225.240785 164.873655 
L 225.987491 164.873531 
L 226.734196 164.876869 
L 227.480902 164.877067 
L 228.227607 164.880567 
L 228.974313 164.880783 
L 229.721018 164.884176 
L 230.467724 164.884181 
L 231.214429 164.887281 
L 231.961135 164.886932 
L 232.70784 164.88964 
L 233.454545 164.888878 
L 234.201251 164.891169 
L 234.947956 164.890002 
L 235.694662 164.891913 
L 236.441367 164.890399 
L 237.188073 164.892002 
L 237.934778 164.890226 
L 238.681484 164.891616 
L 239.428189 164.889674 
L 240.174895 164.890943 
L 240.9216 164.888923 
L 241.668305 164.890155 
L 242.415011 164.888133 
L 243.161716 164.889391 
L 243.908422 164.887419 
L 244.655127 164.888745 
L 245.401833 164.886854 
L 246.148538 164.88827 
L 246.895244 164.886471 
L 247.641949 164.88798 
L 248.388655 164.88627 
L 249.13536 164.88786 
L 249.882065 164.886223 
L 250.628771 164.887877 
L 251.375476 164.886293 
L 252.122182 164.887989 
L 252.868887 164.886437 
L 253.615593 164.888153 
L 254.362298 164.886612 
L 255.109004 164.888331 
L 255.855709 164.886785 
L 256.602415 164.888494 
L 257.34912 164.886932 
L 258.095825 164.888622 
L 258.842531 164.88704 
L 259.589236 164.888708 
L 260.335942 164.887103 
L 261.082647 164.88875 
L 261.829353 164.887125 
L 262.576058 164.888754 
L 263.322764 164.887114 
L 264.069469 164.888729 
L 264.816175 164.887078 
L 265.56288 164.888685 
L 266.309585 164.887029 
L 267.056291 164.888633 
L 267.802996 164.886976 
L 268.549702 164.888581 
L 269.296407 164.886926 
L 270.043113 164.888535 
L 270.789818 164.886885 
L 271.536524 164.888499 
L 272.283229 164.886854 
L 273.029935 164.888474 
L 273.77664 164.886835 
L 274.523345 164.88846 
L 275.270051 164.886826 
L 276.016756 164.888455 
L 276.763462 164.886825 
L 277.510167 164.888457 
L 278.256873 164.886829 
L 279.003578 164.888464 
L 279.750284 164.886837 
L 280.496989 164.888472 
L 281.243695 164.886845 
L 281.9904 164.88848 
L 282.737105 164.886852 
L 283.483811 164.888486 
L 284.230516 164.886858 
L 284.977222 164.888491 
L 285.723927 164.886861 
L 286.470633 164.888493 
L 287.217338 164.886862 
L 287.964044 164.888493 
L 288.710749 164.886861 
L 289.457455 164.888491 
L 290.20416 164.886858 
L 290.950865 164.888488 
L 291.697571 164.886855 
L 292.444276 164.888484 
L 293.190982 164.886851 
L 293.937687 164.88848 
L 294.684393 164.886848 
L 295.431098 164.888477 
L 296.177804 164.886844 
L 296.924509 164.888474 
L 297.671215 164.886842 
L 298.41792 164.888472 
L 299.164625 164.88684 
L 299.911331 164.88847 
L 300.658036 164.886839 
L 301.404742 164.88847 
L 302.151447 164.886838 
L 302.898153 164.888469 
L 303.644858 164.886838 
L 304.391564 164.888469 
L 305.138269 164.886838 
L 305.884975 164.88847 
L 306.63168 164.886839 
L 307.378385 164.88847 
L 308.125091 164.886839 
L 308.871796 164.88847 
L 309.618502 164.886839 
L 310.365207 164.88847 
L 311.111913 164.886839 
L 311.858618 164.88847 
L 312.605324 164.886839 
L 313.352029 164.88847 
L 314.098735 164.886839 
L 314.84544 164.88847 
L 315.592145 164.886839 
L 316.338851 164.888469 
L 317.085556 164.886838 
L 317.832262 164.888469 
L 318.578967 164.886838 
L 319.325673 164.888469 
L 320.072378 164.886838 
L 320.819084 164.888469 
L 321.565789 164.886837 
L 322.312495 164.888468 
L 323.0592 164.886837 
L 323.805905 164.888468 
L 324.552611 164.886837 
L 325.299316 164.888468 
L 326.046022 164.886837 
L 326.792727 164.888468 
L 327.539433 164.886837 
L 328.286138 164.888468 
L 329.032844 164.886837 
L 329.779549 164.888468 
L 330.526255 164.886837 
L 331.27296 164.888468 
L 332.019665 164.886837 
L 332.766371 164.888468 
L 333.513076 164.886837 
L 334.259782 164.888468 
L 335.006487 164.886837 
L 335.753193 164.888468 
L 336.499898 164.886837 
L 337.246604 164.888468 
L 337.993309 164.886837 
L 338.740015 164.888468 
L 339.48672 164.886837 
L 340.233425 164.888468 
L 340.980131 164.886837 
L 341.726836 164.888468 
L 342.473542 164.886837 
L 343.220247 164.888468 
L 343.966953 164.886836 
L 344.713658 164.888467 
L 345.460364 164.886836 
L 346.207069 164.888467 
L 346.953775 164.886836 
L 347.70048 164.888467 
L 348.447185 164.886836 
L 349.193891 164.888467 
L 349.940596 164.886836 
L 350.687302 164.888467 
L 351.434007 164.886836 
L 352.180713 164.888467 
L 352.927418 164.886836 
L 353.674124 164.888467 
L 354.420829 164.886836 
L 355.167535 164.888467 
L 355.91424 164.886836 
L 356.660945 164.888467 
L 357.407651 164.886836 
L 358.154356 164.888467 
L 358.901062 164.886836 
L 359.647767 164.888467 
L 360.394473 164.886836 
L 361.141178 164.888467 
L 361.887884 164.886836 
L 362.634589 164.888467 
L 363.381295 164.886836 
L 364.128 164.888467 
L 364.874705 164.886836 
L 365.621411 164.888467 
L 366.368116 164.886836 
L 367.114822 164.888467 
L 367.861527 164.886836 
L 368.608233 164.888467 
L 369.354938 164.886836 
L 370.101644 164.888467 
L 370.848349 164.886836 
L 371.595055 164.888467 
L 372.34176 164.886836 
L 373.088465 164.888467 
L 373.835171 164.886836 
L 374.581876 164.888467 
L 375.328582 164.886836 
L 376.075287 164.888467 
L 376.821993 164.886836 
L 377.568698 164.888467 
L 378.315404 164.886836 
L 379.062109 164.888467 
L 379.808815 164.886836 
L 380.55552 164.888467 
L 381.302225 164.886836 
L 382.048931 164.888467 
L 382.795636 164.886836 
L 383.542342 164.888467 
L 384.289047 164.886836 
L 385.035753 164.888467 
L 385.782458 164.886836 
L 386.529164 164.888467 
L 387.275869 164.886836 
L 388.022575 164.888467 
L 388.76928 164.886836 
L 389.515985 164.888467 
L 390.262691 164.886836 
L 391.009396 164.888467 
L 391.756102 164.886836 
L 392.502807 164.888467 
L 393.249513 164.886836 
L 393.996218 164.888467 
L 394.742924 164.886836 
L 395.489629 164.888467 
L 396.236335 164.886836 
L 396.98304 164.888467 
L 397.729745 164.886836 
L 398.476451 164.888467 
L 398.487273 164.886836 
L 398.487273 164.886836 
" clip-path="url(#pa5dc14d1ec)" style="fill: none; stroke-dasharray: 5.55,2.4; stroke-dashoffset: 0; stroke: #ff0000; stroke-width: 1.5"/>
   </g>
   <g id="line2d_28">
    <path d="M 73.832727 164.887652 
L 75.044771 164.776826 
L 75.769833 164.470686 
L 76.451607 163.932596 
L 77.155025 163.083149 
L 77.923375 161.789715 
L 78.778298 159.894634 
L 79.752262 157.168567 
L 80.888553 153.286847 
L 82.24128 147.823933 
L 83.951127 139.928129 
L 86.732335 125.854849 
L 89.773265 110.809797 
L 91.461469 103.545885 
L 92.792553 98.741842 
L 93.896378 95.538047 
L 94.827055 93.471389 
L 95.617047 92.217065 
L 96.288 91.534528 
L 96.872378 91.237562 
L 97.391825 91.211457 
L 97.911273 91.412013 
L 98.463185 91.874516 
L 99.090851 92.711499 
L 99.805091 94.060397 
L 100.627549 96.120263 
L 101.579869 99.146556 
L 102.683695 103.441576 
L 103.993135 109.481542 
L 105.627229 118.135765 
L 108.029673 132.204164 
L 112.141964 156.282962 
L 113.927564 165.3568 
L 115.366865 171.57697 
L 116.578909 175.886651 
L 117.628625 178.850098 
L 118.54848 180.824303 
L 121.556945 186.580804 
L 122.4768 189.267559 
L 123.504873 192.999562 
L 124.73856 198.375679 
L 126.610735 207.675692 
L 128.969891 219.156328 
L 130.203578 224.087412 
L 131.188364 227.176004 
L 132.010822 229.083414 
L 132.71424 230.194513 
L 133.30944 230.750702 
L 133.828887 230.948504 
L 134.305047 230.897918 
L 134.802851 230.61431 
L 135.365585 230.02108 
L 136.025716 228.978111 
L 136.815709 227.2813 
L 137.768029 224.67314 
L 138.969251 220.689934 
L 140.68992 214.12872 
L 144.953716 197.59294 
L 146.587811 192.291086 
L 148.037935 188.308589 
L 149.401484 185.18879 
L 150.732567 182.682844 
L 152.063651 180.638228 
L 153.459665 178.897472 
L 154.985542 177.351911 
L 156.781964 175.857674 
L 159.151942 174.194236 
L 162.614924 172.050471 
L 166.16448 170.091727 
L 169.053905 168.747517 
L 171.651142 167.779411 
L 174.345775 167.015368 
L 177.278487 166.421881 
L 180.644073 165.957559 
L 186.152378 165.463652 
L 191.541644 165.213486 
L 202.536611 164.916007 
L 213.877876 164.891422 
L 322.929338 164.887651 
L 398.487273 164.887652 
L 398.487273 164.887652 
" clip-path="url(#pa5dc14d1ec)" style="fill: none; stroke: #008000; stroke-width: 1.5; stroke-linecap: square"/>
   </g>
   <g id="patch_3">
    <path d="M 57.6 307.584 
L 57.6 41.472 
" style="fill: none; stroke: #000000; stroke-width: 0.8; stroke-linejoin: miter; stroke-linecap: square"/>
   </g>
   <g id="patch_4">
    <path d="M 414.72 307.584 
L 414.72 41.472 
" style="fill: none; stroke: #000000; stroke-width: 0.8; stroke-linejoin: miter; stroke-linecap: square"/>
   </g>
   <g id="patch_5">
    <path d="M 57.6 307.584 
L 414.72 307.584 
" style="fill: none; stroke: #000000; stroke-width: 0.8; stroke-linejoin: miter; stroke-linecap: square"/>
   </g>
   <g id="patch_6">
    <path d="M 57.6 41.472 
L 414.72 41.472 
" style="fill: none; stroke: #000000; stroke-width: 0.8; stroke-linejoin: miter; stroke-linecap: square"/>
   </g>
   <g id="text_16">
    <!-- theta vs time -->
    <g transform="translate(196.238438 35.472)scale(0.12 -0.12)">
     <defs>
      <path id="DejaVuSans-76" d="M 191 3500 
L 800 3500 
L 1894 563 
L 2988 3500 
L 3597 3500 
L 2284 0 
L 1503 0 
L 191 3500 
z
" transform="scale(0.015625)"/>
     </defs>
     <use xlink:href="#DejaVuSans-74"/>
     <use xlink:href="#DejaVuSans-68" x="39.208984"/>
     <use xlink:href="#DejaVuSans-65" x="102.587891"/>
     <use xlink:href="#DejaVuSans-74" x="164.111328"/>
     <use xlink:href="#DejaVuSans-61" x="203.320312"/>
     <use xlink:href="#DejaVuSans-20" x="264.599609"/>
     <use xlink:href="#DejaVuSans-76" x="296.386719"/>
     <use xlink:href="#DejaVuSans-73" x="355.566406"/>
     <use xlink:href="#DejaVuSans-20" x="407.666016"/>
     <use xlink:href="#DejaVuSans-74" x="439.453125"/>
     <use xlink:href="#DejaVuSans-69" x="478.662109"/>
     <use xlink:href="#DejaVuSans-6d" x="506.445312"/>
     <use xlink:href="#DejaVuSans-65" x="603.857422"/>
    </g>
   </g>
   <g id="legend_1">
    <g id="patch_7">
     <path d="M 273.271563 79.106375 
L 407.72 79.106375 
Q 409.72 79.106375 409.72 77.106375 
L 409.72 48.472 
Q 409.72 46.472 407.72 46.472 
L 273.271563 46.472 
Q 271.271563 46.472 271.271563 48.472 
L 271.271563 77.106375 
Q 271.271563 79.106375 273.271563 79.106375 
z
" style="fill: #ffffff; opacity: 0.8; stroke: #cccccc; stroke-linejoin: miter"/>
    </g>
    <g id="line2d_29">
     <path d="M 275.271563 54.570438 
L 285.271563 54.570438 
L 295.271563 54.570438 
" style="fill: none; stroke-dasharray: 5.55,2.4; stroke-dashoffset: 0; stroke: #ff0000; stroke-width: 1.5"/>
    </g>
    <g id="text_17">
     <!-- theta_dot (degree/s) -->
     <g transform="translate(303.271563 58.070438)scale(0.1 -0.1)">
      <defs>
       <path id="DejaVuSans-5f" d="M 3263 -1063 
L 3263 -1509 
L -63 -1509 
L -63 -1063 
L 3263 -1063 
z
" transform="scale(0.015625)"/>
       <path id="DejaVuSans-64" d="M 2906 2969 
L 2906 4863 
L 3481 4863 
L 3481 0 
L 2906 0 
L 2906 525 
Q 2725 213 2448 61 
Q 2172 -91 1784 -91 
Q 1150 -91 751 415 
Q 353 922 353 1747 
Q 353 2572 751 3078 
Q 1150 3584 1784 3584 
Q 2172 3584 2448 3432 
Q 2725 3281 2906 2969 
z
M 947 1747 
Q 947 1113 1208 752 
Q 1469 391 1925 391 
Q 2381 391 2643 752 
Q 2906 1113 2906 1747 
Q 2906 2381 2643 2742 
Q 2381 3103 1925 3103 
Q 1469 3103 1208 2742 
Q 947 2381 947 1747 
z
" transform="scale(0.015625)"/>
       <path id="DejaVuSans-6f" d="M 1959 3097 
Q 1497 3097 1228 2736 
Q 959 2375 959 1747 
Q 959 1119 1226 758 
Q 1494 397 1959 397 
Q 2419 397 2687 759 
Q 2956 1122 2956 1747 
Q 2956 2369 2687 2733 
Q 2419 3097 1959 3097 
z
M 1959 3584 
Q 2709 3584 3137 3096 
Q 3566 2609 3566 1747 
Q 3566 888 3137 398 
Q 2709 -91 1959 -91 
Q 1206 -91 779 398 
Q 353 888 353 1747 
Q 353 2609 779 3096 
Q 1206 3584 1959 3584 
z
" transform="scale(0.015625)"/>
       <path id="DejaVuSans-67" d="M 2906 1791 
Q 2906 2416 2648 2759 
Q 2391 3103 1925 3103 
Q 1463 3103 1205 2759 
Q 947 2416 947 1791 
Q 947 1169 1205 825 
Q 1463 481 1925 481 
Q 2391 481 2648 825 
Q 2906 1169 2906 1791 
z
M 3481 434 
Q 3481 -459 3084 -895 
Q 2688 -1331 1869 -1331 
Q 1566 -1331 1297 -1286 
Q 1028 -1241 775 -1147 
L 775 -588 
Q 1028 -725 1275 -790 
Q 1522 -856 1778 -856 
Q 2344 -856 2625 -561 
Q 2906 -266 2906 331 
L 2906 616 
Q 2728 306 2450 153 
Q 2172 0 1784 0 
Q 1141 0 747 490 
Q 353 981 353 1791 
Q 353 2603 747 3093 
Q 1141 3584 1784 3584 
Q 2172 3584 2450 3431 
Q 2728 3278 2906 2969 
L 2906 3500 
L 3481 3500 
L 3481 434 
z
" transform="scale(0.015625)"/>
       <path id="DejaVuSans-72" d="M 2631 2963 
Q 2534 3019 2420 3045 
Q 2306 3072 2169 3072 
Q 1681 3072 1420 2755 
Q 1159 2438 1159 1844 
L 1159 0 
L 581 0 
L 581 3500 
L 1159 3500 
L 1159 2956 
Q 1341 3275 1631 3429 
Q 1922 3584 2338 3584 
Q 2397 3584 2469 3576 
Q 2541 3569 2628 3553 
L 2631 2963 
z
" transform="scale(0.015625)"/>
       <path id="DejaVuSans-2f" d="M 1625 4666 
L 2156 4666 
L 531 -594 
L 0 -594 
L 1625 4666 
z
" transform="scale(0.015625)"/>
      </defs>
      <use xlink:href="#DejaVuSans-74"/>
      <use xlink:href="#DejaVuSans-68" x="39.208984"/>
      <use xlink:href="#DejaVuSans-65" x="102.587891"/>
      <use xlink:href="#DejaVuSans-74" x="164.111328"/>
      <use xlink:href="#DejaVuSans-61" x="203.320312"/>
      <use xlink:href="#DejaVuSans-5f" x="264.599609"/>
      <use xlink:href="#DejaVuSans-64" x="314.599609"/>
      <use xlink:href="#DejaVuSans-6f" x="378.076172"/>
      <use xlink:href="#DejaVuSans-74" x="439.257812"/>
      <use xlink:href="#DejaVuSans-20" x="478.466797"/>
      <use xlink:href="#DejaVuSans-28" x="510.253906"/>
      <use xlink:href="#DejaVuSans-64" x="549.267578"/>
      <use xlink:href="#DejaVuSans-65" x="612.744141"/>
      <use xlink:href="#DejaVuSans-67" x="674.267578"/>
      <use xlink:href="#DejaVuSans-72" x="737.744141"/>
      <use xlink:href="#DejaVuSans-65" x="776.607422"/>
      <use xlink:href="#DejaVuSans-65" x="838.130859"/>
      <use xlink:href="#DejaVuSans-2f" x="899.654297"/>
      <use xlink:href="#DejaVuSans-73" x="933.345703"/>
      <use xlink:href="#DejaVuSans-29" x="985.445312"/>
     </g>
    </g>
    <g id="line2d_30">
     <path d="M 275.271563 69.526688 
L 285.271563 69.526688 
L 295.271563 69.526688 
" style="fill: none; stroke: #008000; stroke-width: 1.5; stroke-linecap: square"/>
    </g>
    <g id="text_18">
     <!-- theta (degree) -->
     <g transform="translate(303.271563 73.026688)scale(0.1 -0.1)">
      <use xlink:href="#DejaVuSans-74"/>
      <use xlink:href="#DejaVuSans-68" x="39.208984"/>
      <use xlink:href="#DejaVuSans-65" x="102.587891"/>
      <use xlink:href="#DejaVuSans-74" x="164.111328"/>
      <use xlink:href="#DejaVuSans-61" x="203.320312"/>
      <use xlink:href="#DejaVuSans-20" x="264.599609"/>
      <use xlink:href="#DejaVuSans-28" x="296.386719"/>
      <use xlink:href="#DejaVuSans-64" x="335.400391"/>
      <use xlink:href="#DejaVuSans-65" x="398.876953"/>
      <use xlink:href="#DejaVuSans-67" x="460.400391"/>
      <use xlink:href="#DejaVuSans-72" x="523.876953"/>
      <use xlink:href="#DejaVuSans-65" x="562.740234"/>
      <use xlink:href="#DejaVuSans-65" x="624.263672"/>
      <use xlink:href="#DejaVuSans-29" x="685.787109"/>
     </g>
    </g>
   </g>
  </g>
 </g>
 <defs>
  <clipPath id="pa5dc14d1ec">
   <rect x="57.6" y="41.472" width="357.12" height="266.112"/>
  </clipPath>
 </defs>
</svg>
