<?xml version="1.0" encoding="utf-8" standalone="no"?>
<!DOCTYPE svg PUBLIC "-//W3C//DTD SVG 1.1//EN"
  "http://www.w3.org/Graphics/SVG/1.1/DTD/svg11.dtd">
<svg xmlns:xlink="http://www.w3.org/1999/xlink" width="460.8pt" height="345.6pt" viewBox="0 0 460.8 345.6" xmlns="http://www.w3.org/2000/svg" version="1.1">
 <metadata>
  <rdf:RDF xmlns:dc="http://purl.org/dc/elements/1.1/" xmlns:cc="http://creativecommons.org/ns#" xmlns:rdf="http://www.w3.org/1999/02/22-rdf-syntax-ns#">
   <cc:Work>
    <dc:type rdf:resource="http://purl.org/dc/dcmitype/StillImage"/>
    <dc:date>2023-08-16T15:06:28.825577</dc:date>
    <dc:format>image/svg+xml</dc:format>
    <dc:creator>
     <cc:Agent>
      <dc:title>Matplotlib v3.5.1, https://matplotlib.org/</dc:title>
     </cc:Agent>
    </dc:creator>
   </cc:Work>
  </rdf:RDF>
 </metadata>
 <defs>
  <style type="text/css">*{stroke-linejoin: round; stroke-linecap: butt}</style>
 </defs>
 <g id="figure_1">
  <g id="patch_1">
   <path d="M 0 345.6 
L 460.8 345.6 
L 460.8 0 
L 0 0 
L 0 345.6 
z
" style="fill: none"/>
  </g>
  <g id="axes_1">
   <g id="patch_2">
    <path d="M 57.6 307.584 
L 414.72 307.584 
L 414.72 41.472 
L 57.6 41.472 
L 57.6 307.584 
z
" style="fill: none"/>
   </g>
   <g id="matplotlib.axis_1">
    <g id="xtick_1">
     <g id="line2d_1">
      <path d="M 73.832727 307.584 
L 73.832727 41.472 
" clip-path="url(#p5917eda892)" style="fill: none; stroke: #b0b0b0; stroke-width: 0.8; stroke-linecap: square"/>
     </g>
     <g id="line2d_2">
      <defs>
       <path id="m236b0c219f" d="M 0 0 
L 0 3.5 
" style="stroke: #000000; stroke-width: 0.8"/>
      </defs>
      <g>
       <use xlink:href="#m236b0c219f" x="73.832727" y="307.584" style="stroke: #000000; stroke-width: 0.8"/>
      </g>
     </g>
     <g id="text_1">
      <!-- 0 -->
      <g transform="translate(70.651477 322.182437)scale(0.1 -0.1)">
       <defs>
        <path id="DejaVuSans-30" d="M 2034 4250 
Q 1547 4250 1301 3770 
Q 1056 3291 1056 2328 
Q 1056 1369 1301 889 
Q 1547 409 2034 409 
Q 2525 409 2770 889 
Q 3016 1369 3016 2328 
Q 3016 3291 2770 3770 
Q 2525 4250 2034 4250 
z
M 2034 4750 
Q 2819 4750 3233 4129 
Q 3647 3509 3647 2328 
Q 3647 1150 3233 529 
Q 2819 -91 2034 -91 
Q 1250 -91 836 529 
Q 422 1150 422 2328 
Q 422 3509 836 4129 
Q 1250 4750 2034 4750 
z
" transform="scale(0.015625)"/>
       </defs>
       <use xlink:href="#DejaVuSans-30"/>
      </g>
     </g>
    </g>
    <g id="xtick_2">
     <g id="line2d_3">
      <path d="M 127.941818 307.584 
L 127.941818 41.472 
" clip-path="url(#p5917eda892)" style="fill: none; stroke: #b0b0b0; stroke-width: 0.8; stroke-linecap: square"/>
     </g>
     <g id="line2d_4">
      <g>
       <use xlink:href="#m236b0c219f" x="127.941818" y="307.584" style="stroke: #000000; stroke-width: 0.8"/>
      </g>
     </g>
     <g id="text_2">
      <!-- 5 -->
      <g transform="translate(124.760568 322.182437)scale(0.1 -0.1)">
       <defs>
        <path id="DejaVuSans-35" d="M 691 4666 
L 3169 4666 
L 3169 4134 
L 1269 4134 
L 1269 2991 
Q 1406 3038 1543 3061 
Q 1681 3084 1819 3084 
Q 2600 3084 3056 2656 
Q 3513 2228 3513 1497 
Q 3513 744 3044 326 
Q 2575 -91 1722 -91 
Q 1428 -91 1123 -41 
Q 819 9 494 109 
L 494 744 
Q 775 591 1075 516 
Q 1375 441 1709 441 
Q 2250 441 2565 725 
Q 2881 1009 2881 1497 
Q 2881 1984 2565 2268 
Q 2250 2553 1709 2553 
Q 1456 2553 1204 2497 
Q 953 2441 691 2322 
L 691 4666 
z
" transform="scale(0.015625)"/>
       </defs>
       <use xlink:href="#DejaVuSans-35"/>
      </g>
     </g>
    </g>
    <g id="xtick_3">
     <g id="line2d_5">
      <path d="M 182.050909 307.584 
L 182.050909 41.472 
" clip-path="url(#p5917eda892)" style="fill: none; stroke: #b0b0b0; stroke-width: 0.8; stroke-linecap: square"/>
     </g>
     <g id="line2d_6">
      <g>
       <use xlink:href="#m236b0c219f" x="182.050909" y="307.584" style="stroke: #000000; stroke-width: 0.8"/>
      </g>
     </g>
     <g id="text_3">
      <!-- 10 -->
      <g transform="translate(175.688409 322.182437)scale(0.1 -0.1)">
       <defs>
        <path id="DejaVuSans-31" d="M 794 531 
L 1825 531 
L 1825 4091 
L 703 3866 
L 703 4441 
L 1819 4666 
L 2450 4666 
L 2450 531 
L 3481 531 
L 3481 0 
L 794 0 
L 794 531 
z
" transform="scale(0.015625)"/>
       </defs>
       <use xlink:href="#DejaVuSans-31"/>
       <use xlink:href="#DejaVuSans-30" x="63.623047"/>
      </g>
     </g>
    </g>
    <g id="xtick_4">
     <g id="line2d_7">
      <path d="M 236.16 307.584 
L 236.16 41.472 
" clip-path="url(#p5917eda892)" style="fill: none; stroke: #b0b0b0; stroke-width: 0.8; stroke-linecap: square"/>
     </g>
     <g id="line2d_8">
      <g>
       <use xlink:href="#m236b0c219f" x="236.16" y="307.584" style="stroke: #000000; stroke-width: 0.8"/>
      </g>
     </g>
     <g id="text_4">
      <!-- 15 -->
      <g transform="translate(229.7975 322.182437)scale(0.1 -0.1)">
       <use xlink:href="#DejaVuSans-31"/>
       <use xlink:href="#DejaVuSans-35" x="63.623047"/>
      </g>
     </g>
    </g>
    <g id="xtick_5">
     <g id="line2d_9">
      <path d="M 290.269091 307.584 
L 290.269091 41.472 
" clip-path="url(#p5917eda892)" style="fill: none; stroke: #b0b0b0; stroke-width: 0.8; stroke-linecap: square"/>
     </g>
     <g id="line2d_10">
      <g>
       <use xlink:href="#m236b0c219f" x="290.269091" y="307.584" style="stroke: #000000; stroke-width: 0.8"/>
      </g>
     </g>
     <g id="text_5">
      <!-- 20 -->
      <g transform="translate(283.906591 322.182437)scale(0.1 -0.1)">
       <defs>
        <path id="DejaVuSans-32" d="M 1228 531 
L 3431 531 
L 3431 0 
L 469 0 
L 469 531 
Q 828 903 1448 1529 
Q 2069 2156 2228 2338 
Q 2531 2678 2651 2914 
Q 2772 3150 2772 3378 
Q 2772 3750 2511 3984 
Q 2250 4219 1831 4219 
Q 1534 4219 1204 4116 
Q 875 4013 500 3803 
L 500 4441 
Q 881 4594 1212 4672 
Q 1544 4750 1819 4750 
Q 2544 4750 2975 4387 
Q 3406 4025 3406 3419 
Q 3406 3131 3298 2873 
Q 3191 2616 2906 2266 
Q 2828 2175 2409 1742 
Q 1991 1309 1228 531 
z
" transform="scale(0.015625)"/>
       </defs>
       <use xlink:href="#DejaVuSans-32"/>
       <use xlink:href="#DejaVuSans-30" x="63.623047"/>
      </g>
     </g>
    </g>
    <g id="xtick_6">
     <g id="line2d_11">
      <path d="M 344.378182 307.584 
L 344.378182 41.472 
" clip-path="url(#p5917eda892)" style="fill: none; stroke: #b0b0b0; stroke-width: 0.8; stroke-linecap: square"/>
     </g>
     <g id="line2d_12">
      <g>
       <use xlink:href="#m236b0c219f" x="344.378182" y="307.584" style="stroke: #000000; stroke-width: 0.8"/>
      </g>
     </g>
     <g id="text_6">
      <!-- 25 -->
      <g transform="translate(338.015682 322.182437)scale(0.1 -0.1)">
       <use xlink:href="#DejaVuSans-32"/>
       <use xlink:href="#DejaVuSans-35" x="63.623047"/>
      </g>
     </g>
    </g>
    <g id="xtick_7">
     <g id="line2d_13">
      <path d="M 398.487273 307.584 
L 398.487273 41.472 
" clip-path="url(#p5917eda892)" style="fill: none; stroke: #b0b0b0; stroke-width: 0.8; stroke-linecap: square"/>
     </g>
     <g id="line2d_14">
      <g>
       <use xlink:href="#m236b0c219f" x="398.487273" y="307.584" style="stroke: #000000; stroke-width: 0.8"/>
      </g>
     </g>
     <g id="text_7">
      <!-- 30 -->
      <g transform="translate(392.124773 322.182437)scale(0.1 -0.1)">
       <defs>
        <path id="DejaVuSans-33" d="M 2597 2516 
Q 3050 2419 3304 2112 
Q 3559 1806 3559 1356 
Q 3559 666 3084 287 
Q 2609 -91 1734 -91 
Q 1441 -91 1130 -33 
Q 819 25 488 141 
L 488 750 
Q 750 597 1062 519 
Q 1375 441 1716 441 
Q 2309 441 2620 675 
Q 2931 909 2931 1356 
Q 2931 1769 2642 2001 
Q 2353 2234 1838 2234 
L 1294 2234 
L 1294 2753 
L 1863 2753 
Q 2328 2753 2575 2939 
Q 2822 3125 2822 3475 
Q 2822 3834 2567 4026 
Q 2313 4219 1838 4219 
Q 1578 4219 1281 4162 
Q 984 4106 628 3988 
L 628 4550 
Q 988 4650 1302 4700 
Q 1616 4750 1894 4750 
Q 2613 4750 3031 4423 
Q 3450 4097 3450 3541 
Q 3450 3153 3228 2886 
Q 3006 2619 2597 2516 
z
" transform="scale(0.015625)"/>
       </defs>
       <use xlink:href="#DejaVuSans-33"/>
       <use xlink:href="#DejaVuSans-30" x="63.623047"/>
      </g>
     </g>
    </g>
    <g id="text_8">
     <!-- time (s) -->
     <g transform="translate(216.768594 335.860562)scale(0.1 -0.1)">
      <defs>
       <path id="DejaVuSans-74" d="M 1172 4494 
L 1172 3500 
L 2356 3500 
L 2356 3053 
L 1172 3053 
L 1172 1153 
Q 1172 725 1289 603 
Q 1406 481 1766 481 
L 2356 481 
L 2356 0 
L 1766 0 
Q 1100 0 847 248 
Q 594 497 594 1153 
L 594 3053 
L 172 3053 
L 172 3500 
L 594 3500 
L 594 4494 
L 1172 4494 
z
" transform="scale(0.015625)"/>
       <path id="DejaVuSans-69" d="M 603 3500 
L 1178 3500 
L 1178 0 
L 603 0 
L 603 3500 
z
M 603 4863 
L 1178 4863 
L 1178 4134 
L 603 4134 
L 603 4863 
z
" transform="scale(0.015625)"/>
       <path id="DejaVuSans-6d" d="M 3328 2828 
Q 3544 3216 3844 3400 
Q 4144 3584 4550 3584 
Q 5097 3584 5394 3201 
Q 5691 2819 5691 2113 
L 5691 0 
L 5113 0 
L 5113 2094 
Q 5113 2597 4934 2840 
Q 4756 3084 4391 3084 
Q 3944 3084 3684 2787 
Q 3425 2491 3425 1978 
L 3425 0 
L 2847 0 
L 2847 2094 
Q 2847 2600 2669 2842 
Q 2491 3084 2119 3084 
Q 1678 3084 1418 2786 
Q 1159 2488 1159 1978 
L 1159 0 
L 581 0 
L 581 3500 
L 1159 3500 
L 1159 2956 
Q 1356 3278 1631 3431 
Q 1906 3584 2284 3584 
Q 2666 3584 2933 3390 
Q 3200 3197 3328 2828 
z
" transform="scale(0.015625)"/>
       <path id="DejaVuSans-65" d="M 3597 1894 
L 3597 1613 
L 953 1613 
Q 991 1019 1311 708 
Q 1631 397 2203 397 
Q 2534 397 2845 478 
Q 3156 559 3463 722 
L 3463 178 
Q 3153 47 2828 -22 
Q 2503 -91 2169 -91 
Q 1331 -91 842 396 
Q 353 884 353 1716 
Q 353 2575 817 3079 
Q 1281 3584 2069 3584 
Q 2775 3584 3186 3129 
Q 3597 2675 3597 1894 
z
M 3022 2063 
Q 3016 2534 2758 2815 
Q 2500 3097 2075 3097 
Q 1594 3097 1305 2825 
Q 1016 2553 972 2059 
L 3022 2063 
z
" transform="scale(0.015625)"/>
       <path id="DejaVuSans-20" transform="scale(0.015625)"/>
       <path id="DejaVuSans-28" d="M 1984 4856 
Q 1566 4138 1362 3434 
Q 1159 2731 1159 2009 
Q 1159 1288 1364 580 
Q 1569 -128 1984 -844 
L 1484 -844 
Q 1016 -109 783 600 
Q 550 1309 550 2009 
Q 550 2706 781 3412 
Q 1013 4119 1484 4856 
L 1984 4856 
z
" transform="scale(0.015625)"/>
       <path id="DejaVuSans-73" d="M 2834 3397 
L 2834 2853 
Q 2591 2978 2328 3040 
Q 2066 3103 1784 3103 
Q 1356 3103 1142 2972 
Q 928 2841 928 2578 
Q 928 2378 1081 2264 
Q 1234 2150 1697 2047 
L 1894 2003 
Q 2506 1872 2764 1633 
Q 3022 1394 3022 966 
Q 3022 478 2636 193 
Q 2250 -91 1575 -91 
Q 1294 -91 989 -36 
Q 684 19 347 128 
L 347 722 
Q 666 556 975 473 
Q 1284 391 1588 391 
Q 1994 391 2212 530 
Q 2431 669 2431 922 
Q 2431 1156 2273 1281 
Q 2116 1406 1581 1522 
L 1381 1569 
Q 847 1681 609 1914 
Q 372 2147 372 2553 
Q 372 3047 722 3315 
Q 1072 3584 1716 3584 
Q 2034 3584 2315 3537 
Q 2597 3491 2834 3397 
z
" transform="scale(0.015625)"/>
       <path id="DejaVuSans-29" d="M 513 4856 
L 1013 4856 
Q 1481 4119 1714 3412 
Q 1947 2706 1947 2009 
Q 1947 1309 1714 600 
Q 1481 -109 1013 -844 
L 513 -844 
Q 928 -128 1133 580 
Q 1338 1288 1338 2009 
Q 1338 2731 1133 3434 
Q 928 4138 513 4856 
z
" transform="scale(0.015625)"/>
      </defs>
      <use xlink:href="#DejaVuSans-74"/>
      <use xlink:href="#DejaVuSans-69" x="39.208984"/>
      <use xlink:href="#DejaVuSans-6d" x="66.992188"/>
      <use xlink:href="#DejaVuSans-65" x="164.404297"/>
      <use xlink:href="#DejaVuSans-20" x="225.927734"/>
      <use xlink:href="#DejaVuSans-28" x="257.714844"/>
      <use xlink:href="#DejaVuSans-73" x="296.728516"/>
      <use xlink:href="#DejaVuSans-29" x="348.828125"/>
     </g>
    </g>
   </g>
   <g id="matplotlib.axis_2">
    <g id="ytick_1">
     <g id="line2d_15">
      <path d="M 57.6 305.107039 
L 414.72 305.107039 
" clip-path="url(#p5917eda892)" style="fill: none; stroke: #b0b0b0; stroke-width: 0.8; stroke-linecap: square"/>
     </g>
     <g id="line2d_16">
      <defs>
       <path id="m2476599b26" d="M 0 0 
L -3.5 0 
" style="stroke: #000000; stroke-width: 0.8"/>
      </defs>
      <g>
       <use xlink:href="#m2476599b26" x="57.6" y="305.107039" style="stroke: #000000; stroke-width: 0.8"/>
      </g>
     </g>
     <g id="text_9">
      <!-- −0.50 -->
      <g transform="translate(19.954687 308.906258)scale(0.1 -0.1)">
       <defs>
        <path id="DejaVuSans-2212" d="M 678 2272 
L 4684 2272 
L 4684 1741 
L 678 1741 
L 678 2272 
z
" transform="scale(0.015625)"/>
        <path id="DejaVuSans-2e" d="M 684 794 
L 1344 794 
L 1344 0 
L 684 0 
L 684 794 
z
" transform="scale(0.015625)"/>
       </defs>
       <use xlink:href="#DejaVuSans-2212"/>
       <use xlink:href="#DejaVuSans-30" x="83.789062"/>
       <use xlink:href="#DejaVuSans-2e" x="147.412109"/>
       <use xlink:href="#DejaVuSans-35" x="179.199219"/>
       <use xlink:href="#DejaVuSans-30" x="242.822266"/>
      </g>
     </g>
    </g>
    <g id="ytick_2">
     <g id="line2d_17">
      <path d="M 57.6 273.664659 
L 414.72 273.664659 
" clip-path="url(#p5917eda892)" style="fill: none; stroke: #b0b0b0; stroke-width: 0.8; stroke-linecap: square"/>
     </g>
     <g id="line2d_18">
      <g>
       <use xlink:href="#m2476599b26" x="57.6" y="273.664659" style="stroke: #000000; stroke-width: 0.8"/>
      </g>
     </g>
     <g id="text_10">
      <!-- −0.25 -->
      <g transform="translate(19.954687 277.463878)scale(0.1 -0.1)">
       <use xlink:href="#DejaVuSans-2212"/>
       <use xlink:href="#DejaVuSans-30" x="83.789062"/>
       <use xlink:href="#DejaVuSans-2e" x="147.412109"/>
       <use xlink:href="#DejaVuSans-32" x="179.199219"/>
       <use xlink:href="#DejaVuSans-35" x="242.822266"/>
      </g>
     </g>
    </g>
    <g id="ytick_3">
     <g id="line2d_19">
      <path d="M 57.6 242.222279 
L 414.72 242.222279 
" clip-path="url(#p5917eda892)" style="fill: none; stroke: #b0b0b0; stroke-width: 0.8; stroke-linecap: square"/>
     </g>
     <g id="line2d_20">
      <g>
       <use xlink:href="#m2476599b26" x="57.6" y="242.222279" style="stroke: #000000; stroke-width: 0.8"/>
      </g>
     </g>
     <g id="text_11">
      <!-- 0.00 -->
      <g transform="translate(28.334375 246.021498)scale(0.1 -0.1)">
       <use xlink:href="#DejaVuSans-30"/>
       <use xlink:href="#DejaVuSans-2e" x="63.623047"/>
       <use xlink:href="#DejaVuSans-30" x="95.410156"/>
       <use xlink:href="#DejaVuSans-30" x="159.033203"/>
      </g>
     </g>
    </g>
    <g id="ytick_4">
     <g id="line2d_21">
      <path d="M 57.6 210.779899 
L 414.72 210.779899 
" clip-path="url(#p5917eda892)" style="fill: none; stroke: #b0b0b0; stroke-width: 0.8; stroke-linecap: square"/>
     </g>
     <g id="line2d_22">
      <g>
       <use xlink:href="#m2476599b26" x="57.6" y="210.779899" style="stroke: #000000; stroke-width: 0.8"/>
      </g>
     </g>
     <g id="text_12">
      <!-- 0.25 -->
      <g transform="translate(28.334375 214.579118)scale(0.1 -0.1)">
       <use xlink:href="#DejaVuSans-30"/>
       <use xlink:href="#DejaVuSans-2e" x="63.623047"/>
       <use xlink:href="#DejaVuSans-32" x="95.410156"/>
       <use xlink:href="#DejaVuSans-35" x="159.033203"/>
      </g>
     </g>
    </g>
    <g id="ytick_5">
     <g id="line2d_23">
      <path d="M 57.6 179.33752 
L 414.72 179.33752 
" clip-path="url(#p5917eda892)" style="fill: none; stroke: #b0b0b0; stroke-width: 0.8; stroke-linecap: square"/>
     </g>
     <g id="line2d_24">
      <g>
       <use xlink:href="#m2476599b26" x="57.6" y="179.33752" style="stroke: #000000; stroke-width: 0.8"/>
      </g>
     </g>
     <g id="text_13">
      <!-- 0.50 -->
      <g transform="translate(28.334375 183.136738)scale(0.1 -0.1)">
       <use xlink:href="#DejaVuSans-30"/>
       <use xlink:href="#DejaVuSans-2e" x="63.623047"/>
       <use xlink:href="#DejaVuSans-35" x="95.410156"/>
       <use xlink:href="#DejaVuSans-30" x="159.033203"/>
      </g>
     </g>
    </g>
    <g id="ytick_6">
     <g id="line2d_25">
      <path d="M 57.6 147.89514 
L 414.72 147.89514 
" clip-path="url(#p5917eda892)" style="fill: none; stroke: #b0b0b0; stroke-width: 0.8; stroke-linecap: square"/>
     </g>
     <g id="line2d_26">
      <g>
       <use xlink:href="#m2476599b26" x="57.6" y="147.89514" style="stroke: #000000; stroke-width: 0.8"/>
      </g>
     </g>
     <g id="text_14">
      <!-- 0.75 -->
      <g transform="translate(28.334375 151.694358)scale(0.1 -0.1)">
       <defs>
        <path id="DejaVuSans-37" d="M 525 4666 
L 3525 4666 
L 3525 4397 
L 1831 0 
L 1172 0 
L 2766 4134 
L 525 4134 
L 525 4666 
z
" transform="scale(0.015625)"/>
       </defs>
       <use xlink:href="#DejaVuSans-30"/>
       <use xlink:href="#DejaVuSans-2e" x="63.623047"/>
       <use xlink:href="#DejaVuSans-37" x="95.410156"/>
       <use xlink:href="#DejaVuSans-35" x="159.033203"/>
      </g>
     </g>
    </g>
    <g id="ytick_7">
     <g id="line2d_27">
      <path d="M 57.6 116.45276 
L 414.72 116.45276 
" clip-path="url(#p5917eda892)" style="fill: none; stroke: #b0b0b0; stroke-width: 0.8; stroke-linecap: square"/>
     </g>
     <g id="line2d_28">
      <g>
       <use xlink:href="#m2476599b26" x="57.6" y="116.45276" style="stroke: #000000; stroke-width: 0.8"/>
      </g>
     </g>
     <g id="text_15">
      <!-- 1.00 -->
      <g transform="translate(28.334375 120.251979)scale(0.1 -0.1)">
       <use xlink:href="#DejaVuSans-31"/>
       <use xlink:href="#DejaVuSans-2e" x="63.623047"/>
       <use xlink:href="#DejaVuSans-30" x="95.410156"/>
       <use xlink:href="#DejaVuSans-30" x="159.033203"/>
      </g>
     </g>
    </g>
    <g id="ytick_8">
     <g id="line2d_29">
      <path d="M 57.6 85.01038 
L 414.72 85.01038 
" clip-path="url(#p5917eda892)" style="fill: none; stroke: #b0b0b0; stroke-width: 0.8; stroke-linecap: square"/>
     </g>
     <g id="line2d_30">
      <g>
       <use xlink:href="#m2476599b26" x="57.6" y="85.01038" style="stroke: #000000; stroke-width: 0.8"/>
      </g>
     </g>
     <g id="text_16">
      <!-- 1.25 -->
      <g transform="translate(28.334375 88.809599)scale(0.1 -0.1)">
       <use xlink:href="#DejaVuSans-31"/>
       <use xlink:href="#DejaVuSans-2e" x="63.623047"/>
       <use xlink:href="#DejaVuSans-32" x="95.410156"/>
       <use xlink:href="#DejaVuSans-35" x="159.033203"/>
      </g>
     </g>
    </g>
    <g id="ytick_9">
     <g id="line2d_31">
      <path d="M 57.6 53.568 
L 414.72 53.568 
" clip-path="url(#p5917eda892)" style="fill: none; stroke: #b0b0b0; stroke-width: 0.8; stroke-linecap: square"/>
     </g>
     <g id="line2d_32">
      <g>
       <use xlink:href="#m2476599b26" x="57.6" y="53.568" style="stroke: #000000; stroke-width: 0.8"/>
      </g>
     </g>
     <g id="text_17">
      <!-- 1.50 -->
      <g transform="translate(28.334375 57.367219)scale(0.1 -0.1)">
       <use xlink:href="#DejaVuSans-31"/>
       <use xlink:href="#DejaVuSans-2e" x="63.623047"/>
       <use xlink:href="#DejaVuSans-35" x="95.410156"/>
       <use xlink:href="#DejaVuSans-30" x="159.033203"/>
      </g>
     </g>
    </g>
    <g id="text_18">
     <!-- l -->
     <g transform="translate(13.875 175.917062)rotate(-90)scale(0.1 -0.1)">
      <defs>
       <path id="DejaVuSans-6c" d="M 603 4863 
L 1178 4863 
L 1178 0 
L 603 0 
L 603 4863 
z
" transform="scale(0.015625)"/>
      </defs>
      <use xlink:href="#DejaVuSans-6c"/>
     </g>
    </g>
   </g>
   <g id="line2d_33">
    <path d="M 73.832727 242.222279 
L 73.90848 242.346245 
L 74.049164 243.132332 
L 74.287244 245.99968 
L 74.644364 253.4703 
L 75.358604 267.885321 
L 76.072844 278.047599 
L 76.711331 284.463824 
L 77.458036 289.571017 
L 78.161455 292.635901 
L 78.637615 293.977065 
L 79.189527 294.925997 
L 79.838836 295.437696 
L 80.466502 295.421724 
L 81.310604 294.80213 
L 82.501004 293.194931 
L 84.308247 289.734703 
L 89.968058 277.279278 
L 90.952844 275.435796 
L 92.208175 273.235265 
L 92.83584 272.25782 
L 94.632262 269.610674 
L 98.019491 265.688287 
L 98.701265 264.985728 
L 101.623156 261.523983 
L 102.607942 260.538222 
L 103.333004 259.863474 
L 104.036422 259.239756 
L 104.783127 258.592344 
L 105.464902 258.022354 
L 106.179142 257.445889 
L 106.860916 256.922983 
L 107.564335 256.424713 
L 108.202822 256.002404 
L 108.7872 255.635726 
L 109.404044 255.059711 
L 110.518691 254.197949 
L 111.157178 253.767249 
L 111.795665 253.371365 
L 112.434153 252.992137 
L 113.029353 252.65714 
L 113.66784 252.305617 
L 114.26304 251.992756 
L 114.901527 251.663133 
L 115.475084 251.380315 
L 116.113571 251.070332 
L 116.687127 250.804429 
L 117.303971 250.522358 
L 117.877527 250.272502 
L 118.494371 250.008217 
L 119.067927 249.775846 
L 119.663127 249.539888 
L 120.236684 249.326705 
L 120.831884 249.111057 
L 121.383796 248.924328 
L 121.978996 248.727103 
L 122.530909 248.555783 
L 123.126109 248.372959 
L 123.678022 248.212833 
L 124.273222 248.039938 
L 124.825135 247.88738 
L 125.420335 247.721375 
L 125.972247 247.574482 
L 126.567447 247.41424 
L 127.11936 247.272662 
L 127.692916 247.123815 
L 128.244829 246.98791 
L 128.818385 246.84532 
L 129.370298 246.715822 
L 129.943855 246.580305 
L 130.495767 246.458008 
L 131.069324 246.330345 
L 131.621236 246.21589 
L 132.194793 246.096551 
L 132.746705 245.990125 
L 133.320262 245.878981 
L 133.872175 245.780132 
L 134.445731 245.676402 
L 134.997644 245.58415 
L 135.5712 245.486674 
L 136.123113 245.399868 
L 136.696669 245.307514 
L 137.226938 245.228478 
L 137.800495 245.140364 
L 138.330764 245.065027 
L 138.90432 244.980768 
L 139.434589 244.908932 
L 139.986502 244.83137 
L 140.538415 244.76015 
L 141.090327 244.68633 
L 141.64224 244.618931 
L 142.194153 244.549007 
L 142.746065 244.485564 
L 143.297978 244.419628 
L 143.849891 244.360168 
L 144.401804 244.298169 
L 144.953716 244.242554 
L 145.505629 244.18427 
L 146.057542 244.132205 
L 146.609455 244.077286 
L 147.161367 244.028389 
L 147.71328 243.976441 
L 148.265193 243.930333 
L 148.817105 243.881009 
L 149.369018 243.837386 
L 149.920931 243.790438 
L 150.472844 243.749107 
L 151.024756 243.704392 
L 151.576669 243.665258 
L 152.128582 243.62272 
L 152.680495 243.585751 
L 153.232407 243.545373 
L 153.78432 243.510558 
L 154.336233 243.472323 
L 154.888145 243.439632 
L 155.440058 243.403491 
L 155.991971 243.37285 
L 156.543884 243.33852 
L 157.095796 243.308887 
L 157.647709 243.27514 
L 158.199622 243.246689 
L 158.751535 243.214628 
L 159.303447 243.187486 
L 159.85536 243.156561 
L 160.407273 243.13073 
L 160.959185 243.101004 
L 161.511098 243.076392 
L 162.063011 243.04786 
L 162.614924 243.024399 
L 163.166836 242.997002 
L 163.718749 242.974646 
L 164.270662 242.948308 
L 164.822575 242.927008 
L 165.374487 242.901574 
L 165.9264 242.881148 
L 166.478313 242.856577 
L 167.030225 242.836808 
L 167.582138 242.81298 
L 168.134051 242.794213 
L 168.685964 242.77189 
L 169.237876 242.755343 
L 169.789789 242.736209 
L 170.341702 242.724063 
L 170.893615 242.710521 
L 171.445527 242.704846 
L 171.99744 242.698065 
L 172.549353 242.698714 
L 173.101265 242.697096 
L 173.653178 242.701211 
L 174.205091 242.701093 
L 174.757004 242.704794 
L 175.308916 242.702642 
L 175.860829 242.70316 
L 176.412742 242.697189 
L 176.964655 242.69372 
L 177.516567 242.683958 
L 178.06848 242.677135 
L 178.620393 242.664592 
L 179.172305 242.655621 
L 179.724218 242.641584 
L 180.276131 242.631768 
L 180.828044 242.617517 
L 181.379956 242.60807 
L 181.931869 242.594697 
L 182.483782 242.586525 
L 183.035695 242.574674 
L 183.587607 242.56811 
L 184.13952 242.557792 
L 184.691433 242.552548 
L 185.243345 242.543244 
L 185.795258 242.538666 
L 186.347171 242.529681 
L 186.899084 242.525123 
L 187.450996 242.515929 
L 188.002909 242.511016 
L 188.554822 242.501406 
L 189.106735 242.496089 
L 189.658647 242.486148 
L 190.21056 242.480619 
L 190.762473 242.470615 
L 191.314385 242.465187 
L 191.866298 242.455451 
L 192.418211 242.450446 
L 192.970124 242.441265 
L 193.522036 242.436912 
L 194.073949 242.428439 
L 194.625862 242.424808 
L 195.177775 242.417029 
L 195.729687 242.414029 
L 196.2816 242.406793 
L 196.833513 242.404232 
L 197.385425 242.397327 
L 197.937338 242.394999 
L 198.489251 242.388244 
L 199.041164 242.386004 
L 199.593076 242.379298 
L 200.144989 242.377092 
L 200.696902 242.370427 
L 201.248815 242.368285 
L 201.800727 242.36172 
L 202.35264 242.359723 
L 202.904553 242.35335 
L 203.456465 242.351588 
L 204.008378 242.345488 
L 204.560291 242.344028 
L 205.112204 242.338244 
L 205.664116 242.337101 
L 206.216029 242.331627 
L 206.767942 242.330774 
L 207.319855 242.325561 
L 207.871767 242.324936 
L 208.42368 242.319917 
L 208.975593 242.319455 
L 209.527505 242.314568 
L 210.079418 242.314215 
L 210.631331 242.309421 
L 211.183244 242.309151 
L 211.735156 242.304438 
L 212.287069 242.304253 
L 212.838982 242.299632 
L 213.390895 242.29955 
L 213.942807 242.295046 
L 214.49472 242.295091 
L 215.046633 242.290725 
L 215.598545 242.290915 
L 216.150458 242.286697 
L 216.702371 242.287036 
L 217.254284 242.282963 
L 217.806196 242.283441 
L 218.358109 242.279497 
L 218.910022 242.280093 
L 219.461935 242.276256 
L 220.013847 242.276947 
L 220.56576 242.273195 
L 221.117673 242.273963 
L 221.669585 242.27028 
L 222.221498 242.271112 
L 222.773411 242.267492 
L 223.325324 242.268387 
L 223.877236 242.26483 
L 224.429149 242.265789 
L 224.981062 242.2623 
L 225.532975 242.26333 
L 226.084887 242.259913 
L 226.6368 242.261017 
L 227.188713 242.257675 
L 227.740625 242.258853 
L 228.292538 242.255584 
L 228.844451 242.256832 
L 229.396364 242.253629 
L 229.948276 242.254939 
L 230.500189 242.251794 
L 231.052102 242.253158 
L 231.604015 242.250064 
L 232.155927 242.251475 
L 232.70784 242.248424 
L 233.259753 242.249876 
L 233.811665 242.246866 
L 234.363578 242.248358 
L 234.915491 242.245386 
L 235.467404 242.246917 
L 236.019316 242.243984 
L 236.571229 242.245554 
L 237.123142 242.242661 
L 237.675055 242.244271 
L 238.226967 242.241417 
L 238.77888 242.243066 
L 239.330793 242.24025 
L 239.882705 242.241935 
L 240.434618 242.239154 
L 240.986531 242.240872 
L 241.538444 242.238123 
L 242.090356 242.239872 
L 242.642269 242.237152 
L 243.194182 242.238928 
L 243.746095 242.236234 
L 244.298007 242.238035 
L 244.84992 242.235365 
L 245.401833 242.237189 
L 245.953745 242.234542 
L 246.505658 242.236389 
L 247.057571 242.233764 
L 247.609484 242.235633 
L 248.161396 242.23303 
L 248.713309 242.23492 
L 249.265222 242.232339 
L 249.817135 242.23425 
L 250.369047 242.231688 
L 250.92096 242.23362 
L 251.472873 242.231077 
L 252.024785 242.233026 
L 252.576698 242.230501 
L 253.128611 242.232468 
L 253.680524 242.229959 
L 254.232436 242.231941 
L 254.784349 242.229447 
L 255.336262 242.231443 
L 255.888175 242.228963 
L 256.440087 242.230973 
L 256.992 242.228507 
L 257.543913 242.230529 
L 258.095825 242.228075 
L 258.647738 242.23011 
L 259.199651 242.227668 
L 259.751564 242.229715 
L 260.303476 242.227285 
L 260.855389 242.229343 
L 261.407302 242.226924 
L 261.959215 242.228993 
L 262.511127 242.226584 
L 263.06304 242.228663 
L 263.614953 242.226264 
L 264.166865 242.228353 
L 264.718778 242.225963 
L 265.270691 242.22806 
L 265.822604 242.225679 
L 266.374516 242.227784 
L 266.926429 242.22541 
L 267.478342 242.227523 
L 268.030255 242.225157 
L 268.582167 242.227278 
L 269.13408 242.224919 
L 269.685993 242.227046 
L 270.237905 242.224694 
L 270.789818 242.226828 
L 271.341731 242.224482 
L 271.893644 242.226622 
L 272.445556 242.224282 
L 272.997469 242.226428 
L 273.549382 242.224094 
L 274.101295 242.226246 
L 274.653207 242.223917 
L 275.20512 242.226074 
L 275.757033 242.223751 
L 276.308945 242.225912 
L 276.860858 242.223594 
L 277.412771 242.22576 
L 277.964684 242.223445 
L 278.516596 242.225616 
L 279.068509 242.223306 
L 279.620422 242.225481 
L 280.172335 242.223174 
L 280.724247 242.225353 
L 281.27616 242.223051 
L 281.828073 242.225233 
L 282.379985 242.222934 
L 282.931898 242.22512 
L 283.483811 242.222824 
L 284.035724 242.225013 
L 284.587636 242.222721 
L 285.139549 242.224913 
L 285.691462 242.222624 
L 286.243375 242.224819 
L 286.795287 242.222532 
L 287.3472 242.22473 
L 287.899113 242.222446 
L 288.451025 242.224646 
L 289.002938 242.222365 
L 289.554851 242.224567 
L 290.106764 242.222288 
L 290.658676 242.224493 
L 291.210589 242.222216 
L 291.762502 242.224423 
L 292.314415 242.222148 
L 292.866327 242.224357 
L 293.41824 242.222085 
L 293.970153 242.224296 
L 294.522065 242.222025 
L 295.073978 242.224237 
L 295.625891 242.221968 
L 296.177804 242.224183 
L 296.729716 242.221915 
L 297.281629 242.224131 
L 297.833542 242.221865 
L 298.385455 242.224083 
L 298.937367 242.221818 
L 299.48928 242.224037 
L 300.041193 242.221774 
L 300.593105 242.223994 
L 301.145018 242.221732 
L 301.696931 242.223954 
L 302.248844 242.221693 
L 302.800756 242.223916 
L 303.352669 242.221656 
L 303.904582 242.22388 
L 304.456495 242.221622 
L 305.008407 242.223847 
L 305.56032 242.221589 
L 306.112233 242.223815 
L 306.664145 242.221559 
L 307.216058 242.223786 
L 307.767971 242.22153 
L 308.319884 242.223758 
L 308.871796 242.221503 
L 309.423709 242.223732 
L 309.975622 242.221478 
L 310.527535 242.223707 
L 311.079447 242.221454 
L 311.63136 242.223684 
L 312.183273 242.221432 
L 312.735185 242.223663 
L 313.287098 242.221411 
L 313.839011 242.223642 
L 314.390924 242.221391 
L 314.942836 242.223623 
L 315.494749 242.221373 
L 316.046662 242.223605 
L 316.598575 242.221355 
L 317.150487 242.223588 
L 317.7024 242.221339 
L 318.254313 242.223573 
L 318.806225 242.221324 
L 319.358138 242.223558 
L 319.910051 242.221309 
L 320.461964 242.223544 
L 321.013876 242.221296 
L 321.565789 242.223531 
L 322.117702 242.221283 
L 322.669615 242.223519 
L 323.221527 242.221271 
L 323.77344 242.223507 
L 324.325353 242.22126 
L 324.877265 242.223497 
L 325.429178 242.22125 
L 325.981091 242.223487 
L 326.533004 242.22124 
L 327.084916 242.223477 
L 327.636829 242.221231 
L 328.188742 242.223468 
L 328.740655 242.221223 
L 329.292567 242.22346 
L 329.84448 242.221215 
L 330.396393 242.223452 
L 330.948305 242.221207 
L 331.500218 242.223445 
L 332.052131 242.2212 
L 332.604044 242.223438 
L 333.155956 242.221194 
L 333.707869 242.223432 
L 334.259782 242.221187 
L 334.811695 242.223426 
L 335.363607 242.221182 
L 335.91552 242.223421 
L 336.467433 242.221176 
L 337.019345 242.223415 
L 337.571258 242.221171 
L 338.123171 242.223411 
L 338.675084 242.221167 
L 339.226996 242.223406 
L 339.778909 242.221162 
L 340.330822 242.223402 
L 340.882735 242.221158 
L 341.434647 242.223398 
L 341.98656 242.221155 
L 342.538473 242.223394 
L 343.090385 242.221151 
L 343.642298 242.223391 
L 344.194211 242.221148 
L 344.746124 242.223388 
L 345.298036 242.221145 
L 345.849949 242.223385 
L 346.401862 242.221142 
L 346.953775 242.223382 
L 347.505687 242.221139 
L 348.0576 242.223379 
L 348.609513 242.221137 
L 349.161425 242.223377 
L 349.713338 242.221134 
L 350.265251 242.223375 
L 350.817164 242.221132 
L 351.369076 242.223373 
L 351.920989 242.22113 
L 352.472902 242.223371 
L 353.024815 242.221129 
L 353.576727 242.223369 
L 354.12864 242.221127 
L 354.680553 242.223368 
L 355.232465 242.221125 
L 355.784378 242.223366 
L 356.336291 242.221124 
L 356.888204 242.223365 
L 357.440116 242.221122 
L 357.992029 242.223363 
L 358.543942 242.221121 
L 359.095855 242.223362 
L 359.647767 242.22112 
L 360.19968 242.223361 
L 360.751593 242.221119 
L 361.303505 242.22336 
L 361.855418 242.221118 
L 362.407331 242.223359 
L 362.959244 242.221117 
L 363.511156 242.223358 
L 364.063069 242.221116 
L 364.614982 242.223358 
L 365.166895 242.221116 
L 365.718807 242.223357 
L 366.27072 242.221115 
L 366.822633 242.223356 
L 367.374545 242.221114 
L 367.926458 242.223356 
L 368.478371 242.221114 
L 369.030284 242.223355 
L 369.582196 242.221113 
L 370.134109 242.223355 
L 370.686022 242.221113 
L 371.237935 242.223354 
L 371.789847 242.221112 
L 372.34176 242.223354 
L 372.893673 242.221112 
L 373.445585 242.223353 
L 373.997498 242.221112 
L 374.549411 242.223353 
L 375.101324 242.221111 
L 375.653236 242.223353 
L 376.205149 242.221111 
L 376.757062 242.223353 
L 377.308975 242.221111 
L 377.860887 242.223352 
L 378.4128 242.221111 
L 378.964713 242.223352 
L 379.516625 242.22111 
L 380.068538 242.223352 
L 380.620451 242.22111 
L 381.172364 242.223352 
L 381.724276 242.22111 
L 382.276189 242.223352 
L 382.828102 242.22111 
L 383.380015 242.223352 
L 383.931927 242.22111 
L 384.48384 242.223351 
L 385.035753 242.22111 
L 385.587665 242.223351 
L 386.139578 242.22111 
L 386.691491 242.223351 
L 387.243404 242.22111 
L 387.795316 242.223351 
L 388.347229 242.22111 
L 388.899142 242.223351 
L 389.451055 242.22111 
L 390.002967 242.223351 
L 390.55488 242.22111 
L 391.106793 242.223351 
L 391.658705 242.22111 
L 392.210618 242.223351 
L 392.762531 242.22111 
L 393.314444 242.223351 
L 393.866356 242.22111 
L 394.418269 242.223351 
L 394.970182 242.22111 
L 395.522095 242.223351 
L 396.074007 242.22111 
L 396.62592 242.223351 
L 397.177833 242.22111 
L 397.729745 242.223351 
L 398.281658 242.22111 
L 398.487273 242.223352 
L 398.487273 242.223352 
" clip-path="url(#p5917eda892)" style="fill: none; stroke-dasharray: 5.55,2.4; stroke-dashoffset: 0; stroke: #008000; stroke-width: 1.5"/>
   </g>
   <g id="line2d_34">
    <path d="M 73.832727 53.568 
L 74.406284 53.678122 
L 74.752582 53.993432 
L 75.185455 54.73117 
L 75.769833 56.220591 
L 76.559825 58.906479 
L 77.685295 63.602578 
L 79.589935 72.657113 
L 83.842909 92.968964 
L 86.104669 102.589221 
L 88.19328 110.523415 
L 90.249425 117.470706 
L 92.35968 123.828578 
L 94.545687 129.703329 
L 96.807447 135.148842 
L 99.209891 140.359385 
L 101.309324 144.417453 
L 103.527796 148.212189 
L 105.822022 151.703092 
L 108.181178 154.888593 
L 110.432116 157.577722 
L 112.791273 160.034649 
L 115.291113 162.319237 
L 117.877527 164.382421 
L 120.593804 166.262941 
L 123.526516 168.020711 
L 126.664844 169.642215 
L 129.922211 171.073641 
L 133.396015 172.354424 
L 137.23776 173.530136 
L 141.40416 174.57151 
L 146.025076 175.492456 
L 151.252015 176.303481 
L 157.23648 177.001254 
L 164.010938 177.564649 
L 171.889222 177.99159 
L 188.06784 178.595999 
L 202.395927 178.862939 
L 224.418327 179.026147 
L 268.506415 179.092295 
L 398.487273 179.098094 
L 398.487273 179.098094 
" clip-path="url(#p5917eda892)" style="fill: none; stroke: #0000ff; stroke-width: 1.5; stroke-linecap: square"/>
   </g>
   <g id="patch_3">
    <path d="M 57.6 307.584 
L 57.6 41.472 
" style="fill: none; stroke: #000000; stroke-width: 0.8; stroke-linejoin: miter; stroke-linecap: square"/>
   </g>
   <g id="patch_4">
    <path d="M 414.72 307.584 
L 414.72 41.472 
" style="fill: none; stroke: #000000; stroke-width: 0.8; stroke-linejoin: miter; stroke-linecap: square"/>
   </g>
   <g id="patch_5">
    <path d="M 57.6 307.584 
L 414.72 307.584 
" style="fill: none; stroke: #000000; stroke-width: 0.8; stroke-linejoin: miter; stroke-linecap: square"/>
   </g>
   <g id="patch_6">
    <path d="M 57.6 41.472 
L 414.72 41.472 
" style="fill: none; stroke: #000000; stroke-width: 0.8; stroke-linejoin: miter; stroke-linecap: square"/>
   </g>
   <g id="text_19">
    <!-- l vs time -->
    <g transform="translate(210.447187 35.472)scale(0.12 -0.12)">
     <defs>
      <path id="DejaVuSans-76" d="M 191 3500 
L 800 3500 
L 1894 563 
L 2988 3500 
L 3597 3500 
L 2284 0 
L 1503 0 
L 191 3500 
z
" transform="scale(0.015625)"/>
     </defs>
     <use xlink:href="#DejaVuSans-6c"/>
     <use xlink:href="#DejaVuSans-20" x="27.783203"/>
     <use xlink:href="#DejaVuSans-76" x="59.570312"/>
     <use xlink:href="#DejaVuSans-73" x="118.75"/>
     <use xlink:href="#DejaVuSans-20" x="170.849609"/>
     <use xlink:href="#DejaVuSans-74" x="202.636719"/>
     <use xlink:href="#DejaVuSans-69" x="241.845703"/>
     <use xlink:href="#DejaVuSans-6d" x="269.628906"/>
     <use xlink:href="#DejaVuSans-65" x="367.041016"/>
    </g>
   </g>
   <g id="legend_1">
    <g id="patch_7">
     <path d="M 322.254375 79.106375 
L 407.72 79.106375 
Q 409.72 79.106375 409.72 77.106375 
L 409.72 48.472 
Q 409.72 46.472 407.72 46.472 
L 322.254375 46.472 
Q 320.254375 46.472 320.254375 48.472 
L 320.254375 77.106375 
Q 320.254375 79.106375 322.254375 79.106375 
z
" style="fill: #ffffff; opacity: 0.8; stroke: #cccccc; stroke-linejoin: miter"/>
    </g>
    <g id="line2d_35">
     <path d="M 324.254375 54.570438 
L 334.254375 54.570438 
L 344.254375 54.570438 
" style="fill: none; stroke-dasharray: 5.55,2.4; stroke-dashoffset: 0; stroke: #008000; stroke-width: 1.5"/>
    </g>
    <g id="text_20">
     <!-- l_dot (m/s) -->
     <g transform="translate(352.254375 58.070438)scale(0.1 -0.1)">
      <defs>
       <path id="DejaVuSans-5f" d="M 3263 -1063 
L 3263 -1509 
L -63 -1509 
L -63 -1063 
L 3263 -1063 
z
" transform="scale(0.015625)"/>
       <path id="DejaVuSans-64" d="M 2906 2969 
L 2906 4863 
L 3481 4863 
L 3481 0 
L 2906 0 
L 2906 525 
Q 2725 213 2448 61 
Q 2172 -91 1784 -91 
Q 1150 -91 751 415 
Q 353 922 353 1747 
Q 353 2572 751 3078 
Q 1150 3584 1784 3584 
Q 2172 3584 2448 3432 
Q 2725 3281 2906 2969 
z
M 947 1747 
Q 947 1113 1208 752 
Q 1469 391 1925 391 
Q 2381 391 2643 752 
Q 2906 1113 2906 1747 
Q 2906 2381 2643 2742 
Q 2381 3103 1925 3103 
Q 1469 3103 1208 2742 
Q 947 2381 947 1747 
z
" transform="scale(0.015625)"/>
       <path id="DejaVuSans-6f" d="M 1959 3097 
Q 1497 3097 1228 2736 
Q 959 2375 959 1747 
Q 959 1119 1226 758 
Q 1494 397 1959 397 
Q 2419 397 2687 759 
Q 2956 1122 2956 1747 
Q 2956 2369 2687 2733 
Q 2419 3097 1959 3097 
z
M 1959 3584 
Q 2709 3584 3137 3096 
Q 3566 2609 3566 1747 
Q 3566 888 3137 398 
Q 2709 -91 1959 -91 
Q 1206 -91 779 398 
Q 353 888 353 1747 
Q 353 2609 779 3096 
Q 1206 3584 1959 3584 
z
" transform="scale(0.015625)"/>
       <path id="DejaVuSans-2f" d="M 1625 4666 
L 2156 4666 
L 531 -594 
L 0 -594 
L 1625 4666 
z
" transform="scale(0.015625)"/>
      </defs>
      <use xlink:href="#DejaVuSans-6c"/>
      <use xlink:href="#DejaVuSans-5f" x="27.783203"/>
      <use xlink:href="#DejaVuSans-64" x="77.783203"/>
      <use xlink:href="#DejaVuSans-6f" x="141.259766"/>
      <use xlink:href="#DejaVuSans-74" x="202.441406"/>
      <use xlink:href="#DejaVuSans-20" x="241.650391"/>
      <use xlink:href="#DejaVuSans-28" x="273.4375"/>
      <use xlink:href="#DejaVuSans-6d" x="312.451172"/>
      <use xlink:href="#DejaVuSans-2f" x="409.863281"/>
      <use xlink:href="#DejaVuSans-73" x="443.554688"/>
      <use xlink:href="#DejaVuSans-29" x="495.654297"/>
     </g>
    </g>
    <g id="line2d_36">
     <path d="M 324.254375 69.526688 
L 334.254375 69.526688 
L 344.254375 69.526688 
" style="fill: none; stroke: #0000ff; stroke-width: 1.5; stroke-linecap: square"/>
    </g>
    <g id="text_21">
     <!-- l (m) -->
     <g transform="translate(352.254375 73.026688)scale(0.1 -0.1)">
      <use xlink:href="#DejaVuSans-6c"/>
      <use xlink:href="#DejaVuSans-20" x="27.783203"/>
      <use xlink:href="#DejaVuSans-28" x="59.570312"/>
      <use xlink:href="#DejaVuSans-6d" x="98.583984"/>
      <use xlink:href="#DejaVuSans-29" x="195.996094"/>
     </g>
    </g>
   </g>
  </g>
 </g>
 <defs>
  <clipPath id="p5917eda892">
   <rect x="57.6" y="41.472" width="357.12" height="266.112"/>
  </clipPath>
 </defs>
</svg>
