<?xml version="1.0" encoding="utf-8" standalone="no"?>
<!DOCTYPE svg PUBLIC "-//W3C//DTD SVG 1.1//EN"
  "http://www.w3.org/Graphics/SVG/1.1/DTD/svg11.dtd">
<svg xmlns:xlink="http://www.w3.org/1999/xlink" width="460.8pt" height="345.6pt" viewBox="0 0 460.8 345.6" xmlns="http://www.w3.org/2000/svg" version="1.1">
 <metadata>
  <rdf:RDF xmlns:dc="http://purl.org/dc/elements/1.1/" xmlns:cc="http://creativecommons.org/ns#" xmlns:rdf="http://www.w3.org/1999/02/22-rdf-syntax-ns#">
   <cc:Work>
    <dc:type rdf:resource="http://purl.org/dc/dcmitype/StillImage"/>
    <dc:date>2023-08-16T15:06:28.599512</dc:date>
    <dc:format>image/svg+xml</dc:format>
    <dc:creator>
     <cc:Agent>
      <dc:title>Matplotlib v3.5.1, https://matplotlib.org/</dc:title>
     </cc:Agent>
    </dc:creator>
   </cc:Work>
  </rdf:RDF>
 </metadata>
 <defs>
  <style type="text/css">*{stroke-linejoin: round; stroke-linecap: butt}</style>
 </defs>
 <g id="figure_1">
  <g id="patch_1">
   <path d="M 0 345.6 
L 460.8 345.6 
L 460.8 0 
L 0 0 
L 0 345.6 
z
" style="fill: none"/>
  </g>
  <g id="axes_1">
   <g id="patch_2">
    <path d="M 57.6 307.584 
L 414.72 307.584 
L 414.72 41.472 
L 57.6 41.472 
L 57.6 307.584 
z
" style="fill: none"/>
   </g>
   <g id="matplotlib.axis_1">
    <g id="xtick_1">
     <g id="line2d_1">
      <path d="M 73.832727 307.584 
L 73.832727 41.472 
" clip-path="url(#p5435d046b2)" style="fill: none; stroke: #b0b0b0; stroke-width: 0.8; stroke-linecap: square"/>
     </g>
     <g id="line2d_2">
      <defs>
       <path id="mb7813f77eb" d="M 0 0 
L 0 3.5 
" style="stroke: #000000; stroke-width: 0.8"/>
      </defs>
      <g>
       <use xlink:href="#mb7813f77eb" x="73.832727" y="307.584" style="stroke: #000000; stroke-width: 0.8"/>
      </g>
     </g>
     <g id="text_1">
      <!-- 0 -->
      <g transform="translate(70.651477 322.182437)scale(0.1 -0.1)">
       <defs>
        <path id="DejaVuSans-30" d="M 2034 4250 
Q 1547 4250 1301 3770 
Q 1056 3291 1056 2328 
Q 1056 1369 1301 889 
Q 1547 409 2034 409 
Q 2525 409 2770 889 
Q 3016 1369 3016 2328 
Q 3016 3291 2770 3770 
Q 2525 4250 2034 4250 
z
M 2034 4750 
Q 2819 4750 3233 4129 
Q 3647 3509 3647 2328 
Q 3647 1150 3233 529 
Q 2819 -91 2034 -91 
Q 1250 -91 836 529 
Q 422 1150 422 2328 
Q 422 3509 836 4129 
Q 1250 4750 2034 4750 
z
" transform="scale(0.015625)"/>
       </defs>
       <use xlink:href="#DejaVuSans-30"/>
      </g>
     </g>
    </g>
    <g id="xtick_2">
     <g id="line2d_3">
      <path d="M 127.941818 307.584 
L 127.941818 41.472 
" clip-path="url(#p5435d046b2)" style="fill: none; stroke: #b0b0b0; stroke-width: 0.8; stroke-linecap: square"/>
     </g>
     <g id="line2d_4">
      <g>
       <use xlink:href="#mb7813f77eb" x="127.941818" y="307.584" style="stroke: #000000; stroke-width: 0.8"/>
      </g>
     </g>
     <g id="text_2">
      <!-- 5 -->
      <g transform="translate(124.760568 322.182437)scale(0.1 -0.1)">
       <defs>
        <path id="DejaVuSans-35" d="M 691 4666 
L 3169 4666 
L 3169 4134 
L 1269 4134 
L 1269 2991 
Q 1406 3038 1543 3061 
Q 1681 3084 1819 3084 
Q 2600 3084 3056 2656 
Q 3513 2228 3513 1497 
Q 3513 744 3044 326 
Q 2575 -91 1722 -91 
Q 1428 -91 1123 -41 
Q 819 9 494 109 
L 494 744 
Q 775 591 1075 516 
Q 1375 441 1709 441 
Q 2250 441 2565 725 
Q 2881 1009 2881 1497 
Q 2881 1984 2565 2268 
Q 2250 2553 1709 2553 
Q 1456 2553 1204 2497 
Q 953 2441 691 2322 
L 691 4666 
z
" transform="scale(0.015625)"/>
       </defs>
       <use xlink:href="#DejaVuSans-35"/>
      </g>
     </g>
    </g>
    <g id="xtick_3">
     <g id="line2d_5">
      <path d="M 182.050909 307.584 
L 182.050909 41.472 
" clip-path="url(#p5435d046b2)" style="fill: none; stroke: #b0b0b0; stroke-width: 0.8; stroke-linecap: square"/>
     </g>
     <g id="line2d_6">
      <g>
       <use xlink:href="#mb7813f77eb" x="182.050909" y="307.584" style="stroke: #000000; stroke-width: 0.8"/>
      </g>
     </g>
     <g id="text_3">
      <!-- 10 -->
      <g transform="translate(175.688409 322.182437)scale(0.1 -0.1)">
       <defs>
        <path id="DejaVuSans-31" d="M 794 531 
L 1825 531 
L 1825 4091 
L 703 3866 
L 703 4441 
L 1819 4666 
L 2450 4666 
L 2450 531 
L 3481 531 
L 3481 0 
L 794 0 
L 794 531 
z
" transform="scale(0.015625)"/>
       </defs>
       <use xlink:href="#DejaVuSans-31"/>
       <use xlink:href="#DejaVuSans-30" x="63.623047"/>
      </g>
     </g>
    </g>
    <g id="xtick_4">
     <g id="line2d_7">
      <path d="M 236.16 307.584 
L 236.16 41.472 
" clip-path="url(#p5435d046b2)" style="fill: none; stroke: #b0b0b0; stroke-width: 0.8; stroke-linecap: square"/>
     </g>
     <g id="line2d_8">
      <g>
       <use xlink:href="#mb7813f77eb" x="236.16" y="307.584" style="stroke: #000000; stroke-width: 0.8"/>
      </g>
     </g>
     <g id="text_4">
      <!-- 15 -->
      <g transform="translate(229.7975 322.182437)scale(0.1 -0.1)">
       <use xlink:href="#DejaVuSans-31"/>
       <use xlink:href="#DejaVuSans-35" x="63.623047"/>
      </g>
     </g>
    </g>
    <g id="xtick_5">
     <g id="line2d_9">
      <path d="M 290.269091 307.584 
L 290.269091 41.472 
" clip-path="url(#p5435d046b2)" style="fill: none; stroke: #b0b0b0; stroke-width: 0.8; stroke-linecap: square"/>
     </g>
     <g id="line2d_10">
      <g>
       <use xlink:href="#mb7813f77eb" x="290.269091" y="307.584" style="stroke: #000000; stroke-width: 0.8"/>
      </g>
     </g>
     <g id="text_5">
      <!-- 20 -->
      <g transform="translate(283.906591 322.182437)scale(0.1 -0.1)">
       <defs>
        <path id="DejaVuSans-32" d="M 1228 531 
L 3431 531 
L 3431 0 
L 469 0 
L 469 531 
Q 828 903 1448 1529 
Q 2069 2156 2228 2338 
Q 2531 2678 2651 2914 
Q 2772 3150 2772 3378 
Q 2772 3750 2511 3984 
Q 2250 4219 1831 4219 
Q 1534 4219 1204 4116 
Q 875 4013 500 3803 
L 500 4441 
Q 881 4594 1212 4672 
Q 1544 4750 1819 4750 
Q 2544 4750 2975 4387 
Q 3406 4025 3406 3419 
Q 3406 3131 3298 2873 
Q 3191 2616 2906 2266 
Q 2828 2175 2409 1742 
Q 1991 1309 1228 531 
z
" transform="scale(0.015625)"/>
       </defs>
       <use xlink:href="#DejaVuSans-32"/>
       <use xlink:href="#DejaVuSans-30" x="63.623047"/>
      </g>
     </g>
    </g>
    <g id="xtick_6">
     <g id="line2d_11">
      <path d="M 344.378182 307.584 
L 344.378182 41.472 
" clip-path="url(#p5435d046b2)" style="fill: none; stroke: #b0b0b0; stroke-width: 0.8; stroke-linecap: square"/>
     </g>
     <g id="line2d_12">
      <g>
       <use xlink:href="#mb7813f77eb" x="344.378182" y="307.584" style="stroke: #000000; stroke-width: 0.8"/>
      </g>
     </g>
     <g id="text_6">
      <!-- 25 -->
      <g transform="translate(338.015682 322.182437)scale(0.1 -0.1)">
       <use xlink:href="#DejaVuSans-32"/>
       <use xlink:href="#DejaVuSans-35" x="63.623047"/>
      </g>
     </g>
    </g>
    <g id="xtick_7">
     <g id="line2d_13">
      <path d="M 398.487273 307.584 
L 398.487273 41.472 
" clip-path="url(#p5435d046b2)" style="fill: none; stroke: #b0b0b0; stroke-width: 0.8; stroke-linecap: square"/>
     </g>
     <g id="line2d_14">
      <g>
       <use xlink:href="#mb7813f77eb" x="398.487273" y="307.584" style="stroke: #000000; stroke-width: 0.8"/>
      </g>
     </g>
     <g id="text_7">
      <!-- 30 -->
      <g transform="translate(392.124773 322.182437)scale(0.1 -0.1)">
       <defs>
        <path id="DejaVuSans-33" d="M 2597 2516 
Q 3050 2419 3304 2112 
Q 3559 1806 3559 1356 
Q 3559 666 3084 287 
Q 2609 -91 1734 -91 
Q 1441 -91 1130 -33 
Q 819 25 488 141 
L 488 750 
Q 750 597 1062 519 
Q 1375 441 1716 441 
Q 2309 441 2620 675 
Q 2931 909 2931 1356 
Q 2931 1769 2642 2001 
Q 2353 2234 1838 2234 
L 1294 2234 
L 1294 2753 
L 1863 2753 
Q 2328 2753 2575 2939 
Q 2822 3125 2822 3475 
Q 2822 3834 2567 4026 
Q 2313 4219 1838 4219 
Q 1578 4219 1281 4162 
Q 984 4106 628 3988 
L 628 4550 
Q 988 4650 1302 4700 
Q 1616 4750 1894 4750 
Q 2613 4750 3031 4423 
Q 3450 4097 3450 3541 
Q 3450 3153 3228 2886 
Q 3006 2619 2597 2516 
z
" transform="scale(0.015625)"/>
       </defs>
       <use xlink:href="#DejaVuSans-33"/>
       <use xlink:href="#DejaVuSans-30" x="63.623047"/>
      </g>
     </g>
    </g>
    <g id="text_8">
     <!-- time (s) -->
     <g transform="translate(216.768594 335.860562)scale(0.1 -0.1)">
      <defs>
       <path id="DejaVuSans-74" d="M 1172 4494 
L 1172 3500 
L 2356 3500 
L 2356 3053 
L 1172 3053 
L 1172 1153 
Q 1172 725 1289 603 
Q 1406 481 1766 481 
L 2356 481 
L 2356 0 
L 1766 0 
Q 1100 0 847 248 
Q 594 497 594 1153 
L 594 3053 
L 172 3053 
L 172 3500 
L 594 3500 
L 594 4494 
L 1172 4494 
z
" transform="scale(0.015625)"/>
       <path id="DejaVuSans-69" d="M 603 3500 
L 1178 3500 
L 1178 0 
L 603 0 
L 603 3500 
z
M 603 4863 
L 1178 4863 
L 1178 4134 
L 603 4134 
L 603 4863 
z
" transform="scale(0.015625)"/>
       <path id="DejaVuSans-6d" d="M 3328 2828 
Q 3544 3216 3844 3400 
Q 4144 3584 4550 3584 
Q 5097 3584 5394 3201 
Q 5691 2819 5691 2113 
L 5691 0 
L 5113 0 
L 5113 2094 
Q 5113 2597 4934 2840 
Q 4756 3084 4391 3084 
Q 3944 3084 3684 2787 
Q 3425 2491 3425 1978 
L 3425 0 
L 2847 0 
L 2847 2094 
Q 2847 2600 2669 2842 
Q 2491 3084 2119 3084 
Q 1678 3084 1418 2786 
Q 1159 2488 1159 1978 
L 1159 0 
L 581 0 
L 581 3500 
L 1159 3500 
L 1159 2956 
Q 1356 3278 1631 3431 
Q 1906 3584 2284 3584 
Q 2666 3584 2933 3390 
Q 3200 3197 3328 2828 
z
" transform="scale(0.015625)"/>
       <path id="DejaVuSans-65" d="M 3597 1894 
L 3597 1613 
L 953 1613 
Q 991 1019 1311 708 
Q 1631 397 2203 397 
Q 2534 397 2845 478 
Q 3156 559 3463 722 
L 3463 178 
Q 3153 47 2828 -22 
Q 2503 -91 2169 -91 
Q 1331 -91 842 396 
Q 353 884 353 1716 
Q 353 2575 817 3079 
Q 1281 3584 2069 3584 
Q 2775 3584 3186 3129 
Q 3597 2675 3597 1894 
z
M 3022 2063 
Q 3016 2534 2758 2815 
Q 2500 3097 2075 3097 
Q 1594 3097 1305 2825 
Q 1016 2553 972 2059 
L 3022 2063 
z
" transform="scale(0.015625)"/>
       <path id="DejaVuSans-20" transform="scale(0.015625)"/>
       <path id="DejaVuSans-28" d="M 1984 4856 
Q 1566 4138 1362 3434 
Q 1159 2731 1159 2009 
Q 1159 1288 1364 580 
Q 1569 -128 1984 -844 
L 1484 -844 
Q 1016 -109 783 600 
Q 550 1309 550 2009 
Q 550 2706 781 3412 
Q 1013 4119 1484 4856 
L 1984 4856 
z
" transform="scale(0.015625)"/>
       <path id="DejaVuSans-73" d="M 2834 3397 
L 2834 2853 
Q 2591 2978 2328 3040 
Q 2066 3103 1784 3103 
Q 1356 3103 1142 2972 
Q 928 2841 928 2578 
Q 928 2378 1081 2264 
Q 1234 2150 1697 2047 
L 1894 2003 
Q 2506 1872 2764 1633 
Q 3022 1394 3022 966 
Q 3022 478 2636 193 
Q 2250 -91 1575 -91 
Q 1294 -91 989 -36 
Q 684 19 347 128 
L 347 722 
Q 666 556 975 473 
Q 1284 391 1588 391 
Q 1994 391 2212 530 
Q 2431 669 2431 922 
Q 2431 1156 2273 1281 
Q 2116 1406 1581 1522 
L 1381 1569 
Q 847 1681 609 1914 
Q 372 2147 372 2553 
Q 372 3047 722 3315 
Q 1072 3584 1716 3584 
Q 2034 3584 2315 3537 
Q 2597 3491 2834 3397 
z
" transform="scale(0.015625)"/>
       <path id="DejaVuSans-29" d="M 513 4856 
L 1013 4856 
Q 1481 4119 1714 3412 
Q 1947 2706 1947 2009 
Q 1947 1309 1714 600 
Q 1481 -109 1013 -844 
L 513 -844 
Q 928 -128 1133 580 
Q 1338 1288 1338 2009 
Q 1338 2731 1133 3434 
Q 928 4138 513 4856 
z
" transform="scale(0.015625)"/>
      </defs>
      <use xlink:href="#DejaVuSans-74"/>
      <use xlink:href="#DejaVuSans-69" x="39.208984"/>
      <use xlink:href="#DejaVuSans-6d" x="66.992188"/>
      <use xlink:href="#DejaVuSans-65" x="164.404297"/>
      <use xlink:href="#DejaVuSans-20" x="225.927734"/>
      <use xlink:href="#DejaVuSans-28" x="257.714844"/>
      <use xlink:href="#DejaVuSans-73" x="296.728516"/>
      <use xlink:href="#DejaVuSans-29" x="348.828125"/>
     </g>
    </g>
   </g>
   <g id="matplotlib.axis_2">
    <g id="ytick_1">
     <g id="line2d_15">
      <path d="M 57.6 294.285252 
L 414.72 294.285252 
" clip-path="url(#p5435d046b2)" style="fill: none; stroke: #b0b0b0; stroke-width: 0.8; stroke-linecap: square"/>
     </g>
     <g id="line2d_16">
      <defs>
       <path id="m28cb9d387d" d="M 0 0 
L -3.5 0 
" style="stroke: #000000; stroke-width: 0.8"/>
      </defs>
      <g>
       <use xlink:href="#m28cb9d387d" x="57.6" y="294.285252" style="stroke: #000000; stroke-width: 0.8"/>
      </g>
     </g>
     <g id="text_9">
      <!-- 0.0 -->
      <g transform="translate(34.696875 298.084471)scale(0.1 -0.1)">
       <defs>
        <path id="DejaVuSans-2e" d="M 684 794 
L 1344 794 
L 1344 0 
L 684 0 
L 684 794 
z
" transform="scale(0.015625)"/>
       </defs>
       <use xlink:href="#DejaVuSans-30"/>
       <use xlink:href="#DejaVuSans-2e" x="63.623047"/>
       <use xlink:href="#DejaVuSans-30" x="95.410156"/>
      </g>
     </g>
    </g>
    <g id="ytick_2">
     <g id="line2d_17">
      <path d="M 57.6 245.146915 
L 414.72 245.146915 
" clip-path="url(#p5435d046b2)" style="fill: none; stroke: #b0b0b0; stroke-width: 0.8; stroke-linecap: square"/>
     </g>
     <g id="line2d_18">
      <g>
       <use xlink:href="#m28cb9d387d" x="57.6" y="245.146915" style="stroke: #000000; stroke-width: 0.8"/>
      </g>
     </g>
     <g id="text_10">
      <!-- 0.2 -->
      <g transform="translate(34.696875 248.946134)scale(0.1 -0.1)">
       <use xlink:href="#DejaVuSans-30"/>
       <use xlink:href="#DejaVuSans-2e" x="63.623047"/>
       <use xlink:href="#DejaVuSans-32" x="95.410156"/>
      </g>
     </g>
    </g>
    <g id="ytick_3">
     <g id="line2d_19">
      <path d="M 57.6 196.008579 
L 414.72 196.008579 
" clip-path="url(#p5435d046b2)" style="fill: none; stroke: #b0b0b0; stroke-width: 0.8; stroke-linecap: square"/>
     </g>
     <g id="line2d_20">
      <g>
       <use xlink:href="#m28cb9d387d" x="57.6" y="196.008579" style="stroke: #000000; stroke-width: 0.8"/>
      </g>
     </g>
     <g id="text_11">
      <!-- 0.4 -->
      <g transform="translate(34.696875 199.807797)scale(0.1 -0.1)">
       <defs>
        <path id="DejaVuSans-34" d="M 2419 4116 
L 825 1625 
L 2419 1625 
L 2419 4116 
z
M 2253 4666 
L 3047 4666 
L 3047 1625 
L 3713 1625 
L 3713 1100 
L 3047 1100 
L 3047 0 
L 2419 0 
L 2419 1100 
L 313 1100 
L 313 1709 
L 2253 4666 
z
" transform="scale(0.015625)"/>
       </defs>
       <use xlink:href="#DejaVuSans-30"/>
       <use xlink:href="#DejaVuSans-2e" x="63.623047"/>
       <use xlink:href="#DejaVuSans-34" x="95.410156"/>
      </g>
     </g>
    </g>
    <g id="ytick_4">
     <g id="line2d_21">
      <path d="M 57.6 146.870242 
L 414.72 146.870242 
" clip-path="url(#p5435d046b2)" style="fill: none; stroke: #b0b0b0; stroke-width: 0.8; stroke-linecap: square"/>
     </g>
     <g id="line2d_22">
      <g>
       <use xlink:href="#m28cb9d387d" x="57.6" y="146.870242" style="stroke: #000000; stroke-width: 0.8"/>
      </g>
     </g>
     <g id="text_12">
      <!-- 0.6 -->
      <g transform="translate(34.696875 150.669461)scale(0.1 -0.1)">
       <defs>
        <path id="DejaVuSans-36" d="M 2113 2584 
Q 1688 2584 1439 2293 
Q 1191 2003 1191 1497 
Q 1191 994 1439 701 
Q 1688 409 2113 409 
Q 2538 409 2786 701 
Q 3034 994 3034 1497 
Q 3034 2003 2786 2293 
Q 2538 2584 2113 2584 
z
M 3366 4563 
L 3366 3988 
Q 3128 4100 2886 4159 
Q 2644 4219 2406 4219 
Q 1781 4219 1451 3797 
Q 1122 3375 1075 2522 
Q 1259 2794 1537 2939 
Q 1816 3084 2150 3084 
Q 2853 3084 3261 2657 
Q 3669 2231 3669 1497 
Q 3669 778 3244 343 
Q 2819 -91 2113 -91 
Q 1303 -91 875 529 
Q 447 1150 447 2328 
Q 447 3434 972 4092 
Q 1497 4750 2381 4750 
Q 2619 4750 2861 4703 
Q 3103 4656 3366 4563 
z
" transform="scale(0.015625)"/>
       </defs>
       <use xlink:href="#DejaVuSans-30"/>
       <use xlink:href="#DejaVuSans-2e" x="63.623047"/>
       <use xlink:href="#DejaVuSans-36" x="95.410156"/>
      </g>
     </g>
    </g>
    <g id="ytick_5">
     <g id="line2d_23">
      <path d="M 57.6 97.731905 
L 414.72 97.731905 
" clip-path="url(#p5435d046b2)" style="fill: none; stroke: #b0b0b0; stroke-width: 0.8; stroke-linecap: square"/>
     </g>
     <g id="line2d_24">
      <g>
       <use xlink:href="#m28cb9d387d" x="57.6" y="97.731905" style="stroke: #000000; stroke-width: 0.8"/>
      </g>
     </g>
     <g id="text_13">
      <!-- 0.8 -->
      <g transform="translate(34.696875 101.531124)scale(0.1 -0.1)">
       <defs>
        <path id="DejaVuSans-38" d="M 2034 2216 
Q 1584 2216 1326 1975 
Q 1069 1734 1069 1313 
Q 1069 891 1326 650 
Q 1584 409 2034 409 
Q 2484 409 2743 651 
Q 3003 894 3003 1313 
Q 3003 1734 2745 1975 
Q 2488 2216 2034 2216 
z
M 1403 2484 
Q 997 2584 770 2862 
Q 544 3141 544 3541 
Q 544 4100 942 4425 
Q 1341 4750 2034 4750 
Q 2731 4750 3128 4425 
Q 3525 4100 3525 3541 
Q 3525 3141 3298 2862 
Q 3072 2584 2669 2484 
Q 3125 2378 3379 2068 
Q 3634 1759 3634 1313 
Q 3634 634 3220 271 
Q 2806 -91 2034 -91 
Q 1263 -91 848 271 
Q 434 634 434 1313 
Q 434 1759 690 2068 
Q 947 2378 1403 2484 
z
M 1172 3481 
Q 1172 3119 1398 2916 
Q 1625 2713 2034 2713 
Q 2441 2713 2670 2916 
Q 2900 3119 2900 3481 
Q 2900 3844 2670 4047 
Q 2441 4250 2034 4250 
Q 1625 4250 1398 4047 
Q 1172 3844 1172 3481 
z
" transform="scale(0.015625)"/>
       </defs>
       <use xlink:href="#DejaVuSans-30"/>
       <use xlink:href="#DejaVuSans-2e" x="63.623047"/>
       <use xlink:href="#DejaVuSans-38" x="95.410156"/>
      </g>
     </g>
    </g>
    <g id="ytick_6">
     <g id="line2d_25">
      <path d="M 57.6 48.593568 
L 414.72 48.593568 
" clip-path="url(#p5435d046b2)" style="fill: none; stroke: #b0b0b0; stroke-width: 0.8; stroke-linecap: square"/>
     </g>
     <g id="line2d_26">
      <g>
       <use xlink:href="#m28cb9d387d" x="57.6" y="48.593568" style="stroke: #000000; stroke-width: 0.8"/>
      </g>
     </g>
     <g id="text_14">
      <!-- 1.0 -->
      <g transform="translate(34.696875 52.392787)scale(0.1 -0.1)">
       <use xlink:href="#DejaVuSans-31"/>
       <use xlink:href="#DejaVuSans-2e" x="63.623047"/>
       <use xlink:href="#DejaVuSans-30" x="95.410156"/>
      </g>
     </g>
    </g>
    <g id="text_15">
     <!-- x -->
     <g transform="translate(28.617188 177.487375)rotate(-90)scale(0.1 -0.1)">
      <defs>
       <path id="DejaVuSans-78" d="M 3513 3500 
L 2247 1797 
L 3578 0 
L 2900 0 
L 1881 1375 
L 863 0 
L 184 0 
L 1544 1831 
L 300 3500 
L 978 3500 
L 1906 2253 
L 2834 3500 
L 3513 3500 
z
" transform="scale(0.015625)"/>
      </defs>
      <use xlink:href="#DejaVuSans-78"/>
     </g>
    </g>
   </g>
   <g id="line2d_27">
    <path d="M 73.832727 294.285252 
L 73.886836 293.762273 
L 74.070807 288.194956 
L 74.687651 271.57152 
L 75.488465 256.914636 
L 76.235171 248.909592 
L 77.219956 245.776393 
L 77.403927 245.528729 
L 77.47968 245.476985 
L 77.642007 245.357416 
L 77.825978 245.738808 
L 78.161455 246.79815 
L 78.280495 247.166122 
L 78.637615 248.387381 
L 78.778298 248.863494 
L 79.157062 250.25912 
L 79.319389 250.853743 
L 79.719796 252.425899 
L 79.882124 253.051442 
L 80.282531 254.661732 
L 80.466502 255.366752 
L 80.823622 256.735459 
L 80.985949 257.29645 
L 81.299782 258.338693 
L 81.418822 258.669644 
L 81.689367 259.377699 
L 81.76512 259.525195 
L 81.992378 259.951645 
L 82.068131 260.040462 
L 82.252102 260.249915 
L 82.349498 260.293132 
L 82.490182 260.34709 
L 82.630865 260.303675 
L 82.728262 260.265371 
L 82.923055 260.06052 
L 83.107025 260.339868 
L 83.204422 260.394772 
L 83.345105 260.437439 
L 83.529076 260.312268 
L 83.604829 260.240443 
L 84.600436 256.930473 
L 84.925091 255.518519 
L 85.022487 255.258412 
L 86.808087 246.46181 
L 87.36 241.952915 
L 87.998487 237.451135 
L 88.442182 234.721443 
L 88.799302 232.802611 
L 89.188887 230.931375 
L 89.546007 229.415818 
L 89.729978 228.742698 
L 90.043811 227.675533 
L 90.162851 227.338002 
L 90.433396 226.603352 
L 90.530793 226.393845 
L 90.779695 225.872452 
L 90.855447 225.758802 
L 91.061062 225.438102 
L 91.136815 225.363706 
L 91.320785 225.167598 
L 91.418182 225.116494 
L 91.580509 225.024559 
L 91.699549 225.019507 
L 91.818589 225.006741 
L 91.980916 225.074744 
L 92.078313 225.111277 
L 92.262284 225.279666 
L 92.338036 225.34235 
L 92.565295 225.663389 
L 92.641047 225.767345 
L 92.911593 226.29984 
L 92.987345 226.448477 
L 93.301178 227.250038 
L 93.398575 227.505418 
L 93.777338 228.70556 
L 93.918022 229.171829 
L 94.318429 230.677678 
L 94.480756 231.303734 
L 94.902807 233.077731 
L 95.086778 233.854302 
L 95.508829 235.733787 
L 95.714444 236.633817 
L 96.136495 238.532766 
L 96.342109 239.422319 
L 96.742516 241.171198 
L 96.948131 242.018104 
L 97.326895 243.572104 
L 97.510865 244.270453 
L 97.867985 245.613094 
L 98.030313 246.167175 
L 98.365789 247.300582 
L 98.506473 247.723325 
L 98.809484 248.613817 
L 99.101673 249.412877 
L 99.199069 249.63859 
L 99.469615 250.286478 
L 99.545367 250.43332 
L 99.794269 250.954197 
L 99.870022 251.078596 
L 100.09728 251.491269 
L 100.173033 251.595188 
L 100.389469 251.914912 
L 100.595084 252.199508 
L 100.670836 252.271527 
L 100.854807 252.487751 
L 100.93056 252.54433 
L 101.114531 252.724261 
L 101.211927 252.78276 
L 101.374255 252.912708 
L 101.471651 252.954216 
L 101.633978 253.05717 
L 101.731375 253.083306 
L 101.872058 253.154716 
L 101.88288 253.14083 
L 102.023564 253.201115 
L 102.142604 253.212178 
L 102.283287 253.255469 
L 102.402327 253.253285 
L 102.543011 253.282269 
L 102.662051 253.269133 
L 102.802735 253.286538 
L 102.943418 253.263648 
L 103.062458 253.273332 
L 103.203142 253.243081 
L 103.322182 253.247683 
L 103.462865 253.212772 
L 103.581905 253.214554 
L 103.722589 253.177625 
L 103.841629 253.178792 
L 103.982313 253.142406 
L 104.101353 253.145085 
L 104.242036 253.111702 
L 104.361076 253.117923 
L 104.50176 253.089877 
L 104.6208 253.101555 
L 104.761484 253.081034 
L 104.902167 253.100601 
L 105.021207 253.088973 
L 105.161891 253.1191 
L 105.280931 253.117156 
L 105.421615 253.159558 
L 105.540655 253.168659 
L 105.681338 253.224833 
L 105.800378 253.246145 
L 105.962705 253.326349 
L 106.060102 253.351823 
L 106.222429 253.450558 
L 106.319825 253.487424 
L 106.482153 253.605519 
L 106.579549 253.654181 
L 106.76352 253.809143 
L 106.860916 253.870812 
L 107.044887 254.050398 
L 107.12064 254.104186 
L 107.326255 254.329055 
L 107.402007 254.392785 
L 107.607622 254.644205 
L 107.683375 254.717519 
L 107.888989 254.994291 
L 107.964742 255.076665 
L 108.192 255.407896 
L 108.267753 255.499272 
L 108.495011 255.856143 
L 108.570764 255.955578 
L 108.798022 256.335113 
L 108.873775 256.44162 
L 109.122676 256.877588 
L 109.198429 256.99025 
L 109.447331 257.444087 
L 109.523084 257.561459 
L 109.771985 258.028324 
L 109.847738 258.148912 
L 110.09664 258.623863 
L 110.172393 258.74616 
L 110.421295 259.224276 
L 110.497047 259.346801 
L 110.745949 259.823295 
L 110.821702 259.94462 
L 111.070604 260.414939 
L 111.146356 260.533725 
L 111.395258 260.99364 
L 111.471011 261.108658 
L 111.698269 261.517615 
L 111.774022 261.628125 
L 112.00128 262.022267 
L 112.077033 262.127437 
L 112.304291 262.504466 
L 112.380044 262.603597 
L 112.607302 262.961628 
L 112.683055 263.054164 
L 112.888669 263.361956 
L 112.964422 263.447998 
L 113.170036 263.737814 
L 113.245789 263.817128 
L 113.451404 264.088497 
L 113.527156 264.16097 
L 113.732771 264.413741 
L 113.808524 264.479376 
L 113.992495 264.691523 
L 114.068247 264.750944 
L 114.252218 264.9482 
L 114.327971 265.001589 
L 114.511942 265.184487 
L 114.587695 265.232101 
L 114.771665 265.401355 
L 114.869062 265.460316 
L 115.053033 265.61578 
L 115.150429 265.667745 
L 115.312756 265.796284 
L 115.410153 265.842393 
L 115.57248 265.96169 
L 115.669876 266.002577 
L 115.832204 266.113728 
L 115.9296 266.15007 
L 116.091927 266.254235 
L 116.189324 266.286741 
L 116.351651 266.385119 
L 116.449047 266.414519 
L 116.611375 266.508332 
L 116.708771 266.53536 
L 116.871098 266.625832 
L 116.968495 266.65122 
L 117.130822 266.739558 
L 117.228218 266.76402 
L 117.390545 266.851394 
L 117.487942 266.875618 
L 117.650269 266.963146 
L 117.747665 266.987783 
L 117.909993 267.076515 
L 118.007389 267.102171 
L 118.169716 267.193074 
L 118.267113 267.220302 
L 118.42944 267.314247 
L 118.526836 267.343539 
L 118.689164 267.441292 
L 118.78656 267.473074 
L 118.948887 267.575288 
L 119.046284 267.609916 
L 119.208611 267.717123 
L 119.306007 267.75488 
L 119.468335 267.867487 
L 119.565731 267.90858 
L 119.728058 268.02687 
L 119.825455 268.071429 
L 119.987782 268.195557 
L 120.085178 268.243639 
L 120.247505 268.373639 
L 120.344902 268.425229 
L 120.528873 268.577041 
L 120.626269 268.63233 
L 120.81024 268.790975 
L 120.907636 268.849783 
L 121.091607 269.014844 
L 121.189004 269.076912 
L 121.372975 269.247839 
L 121.448727 269.294406 
L 121.632698 269.47016 
L 121.708451 269.518587 
L 121.892422 269.698525 
L 121.968175 269.748533 
L 122.152145 269.931951 
L 122.227898 269.983239 
L 122.411869 270.169386 
L 122.487622 270.221639 
L 122.671593 270.409734 
L 122.747345 270.462626 
L 122.931316 270.651871 
L 123.007069 270.705073 
L 123.19104 270.894671 
L 123.266793 270.947855 
L 123.450764 271.137022 
L 123.526516 271.189871 
L 123.710487 271.377848 
L 123.78624 271.430056 
L 123.970211 271.616123 
L 124.045964 271.667404 
L 124.229935 271.850892 
L 124.305687 271.900982 
L 124.489658 272.08128 
L 124.565411 272.129941 
L 124.749382 272.306507 
L 124.825135 272.35353 
L 125.009105 272.525895 
L 125.106502 272.588945 
L 125.290473 272.756323 
L 125.387869 272.816631 
L 125.57184 272.978669 
L 125.669236 273.036079 
L 125.853207 273.192534 
L 125.950604 273.246943 
L 126.134575 273.397679 
L 126.231971 273.449045 
L 126.394298 273.579237 
L 126.491695 273.627801 
L 126.654022 273.753359 
L 126.751418 273.799172 
L 126.913745 273.920212 
L 127.011142 273.963363 
L 127.173469 274.080061 
L 127.270865 274.120673 
L 127.433193 274.233263 
L 127.530589 274.27149 
L 127.692916 274.380253 
L 127.790313 274.416278 
L 127.95264 274.521538 
L 128.050036 274.555565 
L 128.212364 274.657677 
L 128.30976 274.689929 
L 128.472087 274.789278 
L 128.569484 274.81999 
L 128.731811 274.916975 
L 128.829207 274.946392 
L 128.991535 275.041424 
L 129.088931 275.069793 
L 129.251258 275.163286 
L 129.348655 275.190854 
L 129.510982 275.283214 
L 129.608378 275.310222 
L 129.770705 275.401844 
L 129.868102 275.428524 
L 130.030429 275.519784 
L 130.127825 275.546354 
L 130.290153 275.637603 
L 130.387549 275.664266 
L 130.549876 275.755824 
L 130.647273 275.78276 
L 130.8096 275.874913 
L 130.906996 275.902284 
L 131.069324 275.995279 
L 131.16672 276.023221 
L 131.329047 276.117266 
L 131.426444 276.14589 
L 131.588771 276.241147 
L 131.686167 276.270539 
L 131.848495 276.36713 
L 131.945891 276.397348 
L 132.108218 276.495348 
L 132.205615 276.526425 
L 132.367942 276.625868 
L 132.465338 276.657812 
L 132.627665 276.758689 
L 132.725062 276.791482 
L 132.887389 276.893746 
L 132.984785 276.92735 
L 133.147113 277.030916 
L 133.244509 277.065269 
L 133.406836 277.170021 
L 133.504233 277.205044 
L 133.66656 277.310836 
L 133.763956 277.346432 
L 133.926284 277.453093 
L 134.02368 277.489155 
L 134.186007 277.596492 
L 134.283404 277.6329 
L 134.445731 277.740708 
L 134.543127 277.777333 
L 134.705455 277.885393 
L 134.802851 277.922103 
L 134.965178 278.030192 
L 135.062575 278.066852 
L 135.224902 278.174745 
L 135.322298 278.21122 
L 135.484625 278.318696 
L 135.582022 278.354855 
L 135.744349 278.461697 
L 135.841745 278.497414 
L 136.004073 278.603421 
L 136.101469 278.638578 
L 136.263796 278.74356 
L 136.361193 278.778049 
L 136.52352 278.881834 
L 136.620916 278.915559 
L 136.783244 279.017996 
L 136.88064 279.050872 
L 137.042967 279.151832 
L 137.140364 279.183788 
L 137.302691 279.283167 
L 137.400087 279.314148 
L 137.562415 279.411863 
L 137.659811 279.441827 
L 137.822138 279.537824 
L 137.919535 279.566746 
L 138.081862 279.660994 
L 138.179258 279.688862 
L 138.341585 279.781354 
L 138.438982 279.808173 
L 138.601309 279.898926 
L 138.698705 279.924711 
L 138.861033 280.013764 
L 138.958429 280.038546 
L 139.120756 280.125959 
L 139.218153 280.149779 
L 139.38048 280.235629 
L 139.477876 280.258538 
L 139.640204 280.342919 
L 139.7376 280.364977 
L 139.899927 280.447995 
L 139.997324 280.46927 
L 140.159651 280.551044 
L 140.278691 280.580055 
L 140.441018 280.660621 
L 140.560058 280.688802 
L 140.722385 280.768315 
L 140.841425 280.79578 
L 141.003753 280.874395 
L 141.122793 280.90126 
L 141.28512 280.979132 
L 141.40416 281.005508 
L 141.566487 281.082788 
L 141.685527 281.108783 
L 141.847855 281.185615 
L 141.966895 281.211331 
L 142.129222 281.287848 
L 142.248262 281.313378 
L 142.410589 281.3897 
L 142.529629 281.415127 
L 142.691956 281.491359 
L 142.810996 281.516756 
L 142.973324 281.592988 
L 143.092364 281.618412 
L 143.254691 281.694716 
L 143.373731 281.720215 
L 143.536058 281.796646 
L 143.655098 281.822252 
L 143.817425 281.898845 
L 143.936465 281.924579 
L 144.098793 282.001352 
L 144.217833 282.02722 
L 144.38016 282.104174 
L 144.4992 282.130172 
L 144.661527 282.207293 
L 144.780567 282.233402 
L 144.942895 282.310659 
L 145.061935 282.336855 
L 145.224262 282.414204 
L 145.343302 282.440449 
L 145.505629 282.517837 
L 145.624669 282.544087 
L 145.786996 282.62145 
L 145.906036 282.647656 
L 146.068364 282.724922 
L 146.187404 282.751029 
L 146.349731 282.828121 
L 146.468771 282.854073 
L 146.631098 282.930913 
L 146.750138 282.95665 
L 146.912465 283.033157 
L 147.031505 283.058621 
L 147.193833 283.134717 
L 147.312873 283.159852 
L 147.4752 283.235461 
L 147.59424 283.260211 
L 147.756567 283.335262 
L 147.875607 283.359579 
L 148.016291 283.426451 
L 148.135331 283.450328 
L 148.276015 283.51666 
L 148.395055 283.540064 
L 148.535738 283.605819 
L 148.654778 283.62872 
L 148.795462 283.693868 
L 148.914502 283.716245 
L 149.055185 283.780762 
L 149.174225 283.802598 
L 149.314909 283.866467 
L 149.433949 283.88775 
L 149.574633 283.950962 
L 149.693673 283.971686 
L 149.834356 284.034238 
L 149.953396 284.054405 
L 150.09408 284.116299 
L 150.21312 284.135914 
L 150.353804 284.197161 
L 150.472844 284.216234 
L 150.613527 284.27685 
L 150.732567 284.295396 
L 150.873251 284.355401 
L 150.992291 284.373441 
L 151.132975 284.43286 
L 151.252015 284.450416 
L 151.392698 284.509278 
L 151.511738 284.526376 
L 151.652422 284.584714 
L 151.771462 284.601382 
L 151.912145 284.65923 
L 152.031185 284.675498 
L 152.171869 284.732892 
L 152.290909 284.748792 
L 152.431593 284.805769 
L 152.550633 284.821331 
L 152.691316 284.877928 
L 152.810356 284.893184 
L 152.95104 284.949437 
L 153.07008 284.964417 
L 153.210764 285.020361 
L 153.329804 285.035095 
L 153.470487 285.090763 
L 153.589527 285.105276 
L 153.730211 285.160699 
L 153.849251 285.175018 
L 153.989935 285.230224 
L 154.108975 285.244369 
L 154.249658 285.299383 
L 154.368698 285.313375 
L 154.509382 285.368216 
L 154.628422 285.382071 
L 154.769105 285.436759 
L 154.888145 285.450489 
L 155.028829 285.505036 
L 155.147869 285.518652 
L 155.288553 285.573068 
L 155.407593 285.586576 
L 155.548276 285.640867 
L 155.667316 285.65427 
L 155.808 285.708437 
L 155.92704 285.721736 
L 156.067724 285.775779 
L 156.186764 285.788971 
L 156.630458 286.398473 
L 156.771142 286.381004 
L 156.911825 286.399105 
L 157.052509 286.382525 
L 157.193193 286.401769 
L 157.312233 286.386151 
L 157.452916 286.406869 
L 157.571956 286.392655 
L 157.71264 286.415204 
L 157.83168 286.402674 
L 157.972364 286.42736 
L 158.091404 286.416752 
L 158.232087 286.443826 
L 158.351127 286.435327 
L 158.535098 286.94317 
L 158.600029 287.142139 
L 158.686604 287.122963 
L 158.827287 287.075625 
L 158.946327 287.06955 
L 159.087011 287.025909 
L 159.206051 287.023215 
L 159.346735 286.983846 
L 159.465775 286.984979 
L 159.606458 286.950356 
L 159.725498 286.955673 
L 159.73632 286.937061 
L 159.779607 287.072852 
L 159.898647 287.415603 
L 160.006865 287.726592 
L 160.071796 287.698206 
L 160.234124 287.612723 
L 160.353164 287.583498 
L 160.515491 287.506369 
L 160.634531 287.483629 
L 160.775215 287.422152 
L 160.894255 287.405929 
L 160.905076 287.385412 
L 160.948364 287.513681 
L 161.067404 287.836505 
L 161.240553 288.299571 
L 161.273018 288.260091 
L 161.370415 288.213622 
L 161.532742 288.094762 
L 161.630138 288.055056 
L 161.792465 287.947985 
L 161.889862 287.915629 
L 161.965615 287.861168 
L 161.99808 287.93335 
L 162.268625 288.650509 
L 162.517527 288.726882 
L 162.701498 288.554312 
L 162.798895 288.495065 
L 162.961222 288.357699 
L 162.972044 288.367687 
L 163.242589 289.033356 
L 163.318342 289.183113 
L 163.448204 289.455863 
L 163.491491 289.403866 
L 163.697105 289.15132 
L 163.772858 289.087526 
L 163.935185 288.905234 
L 163.946007 288.912329 
L 164.194909 289.466169 
L 164.270662 289.599931 
L 164.508742 290.040453 
L 164.530385 290.077901 
L 164.584495 289.978764 
L 164.595316 289.980261 
L 164.800931 289.67036 
L 164.876684 289.586916 
L 164.898327 289.558718 
L 164.952436 289.680432 
L 165.028189 289.804431 
L 165.255447 290.217986 
L 165.3312 290.322975 
L 165.558458 290.680989 
L 165.720785 290.540097 
L 165.872291 290.277338 
L 165.893935 290.311113 
L 166.121193 290.663591 
L 166.196945 290.749792 
L 166.40256 291.03009 
L 166.478313 291.102494 
L 166.683927 291.346721 
L 166.75968 291.406369 
L 166.943651 291.598204 
L 167.019404 291.647092 
L 167.095156 291.728213 
L 167.127622 291.667126 
L 167.214196 291.462516 
L 167.268305 291.529417 
L 167.344058 291.578592 
L 167.528029 291.747723 
L 167.625425 291.804583 
L 167.787753 291.937939 
L 167.885149 291.985102 
L 168.047476 292.103319 
L 168.144873 292.142014 
L 168.3072 292.247138 
L 168.404596 292.278586 
L 168.566924 292.372635 
L 168.66432 292.398033 
L 168.826647 292.48297 
L 168.945687 292.511721 
L 169.108015 292.588903 
L 169.227055 292.612737 
L 169.367738 292.677192 
L 169.486778 292.69778 
L 169.627462 292.759084 
L 169.746502 292.777557 
L 169.887185 292.836978 
L 170.006225 292.85435 
L 170.146909 292.913011 
L 170.265949 292.930166 
L 170.406633 292.989035 
L 170.525673 293.006724 
L 170.666356 293.066606 
L 170.785396 293.085442 
L 170.92608 293.146979 
L 171.04512 293.167435 
L 171.185804 293.231105 
L 171.304844 293.253518 
L 171.445527 293.319639 
L 171.564567 293.344211 
L 171.726895 293.420946 
L 171.845935 293.447941 
L 172.008262 293.527966 
L 172.127302 293.55733 
L 172.289629 293.640475 
L 172.387025 293.663019 
L 172.549353 293.748747 
L 172.646749 293.772727 
L 172.809076 293.860632 
L 172.906473 293.885776 
L 173.0688 293.975359 
L 173.166196 294.001341 
L 173.328524 294.092024 
L 173.42592 294.118481 
L 173.588247 294.209633 
L 173.685644 294.236172 
L 173.847971 294.327126 
L 173.945367 294.35334 
L 174.107695 294.443409 
L 174.205091 294.468887 
L 174.367418 294.55739 
L 174.464815 294.581727 
L 174.627142 294.667999 
L 174.724538 294.690804 
L 174.886865 294.774217 
L 175.005905 294.803578 
L 175.168233 294.883239 
L 175.287273 294.909619 
L 175.427956 294.977387 
L 175.546996 295.00065 
L 175.68768 295.064553 
L 175.80672 295.084406 
L 175.947404 295.144132 
L 176.066444 295.160341 
L 176.207127 295.215651 
L 176.326167 295.228048 
L 176.466851 295.278781 
L 176.585891 295.287261 
L 176.726575 295.333332 
L 176.845615 295.337856 
L 176.986298 295.379258 
L 177.105338 295.37985 
L 177.246022 295.416649 
L 177.365062 295.413397 
L 177.505745 295.445728 
L 177.624785 295.438775 
L 177.765469 295.466841 
L 177.884509 295.456383 
L 178.025193 295.480444 
L 178.144233 295.466723 
L 178.284916 295.487088 
L 178.4256 295.47041 
L 178.566284 295.487172 
L 178.706967 295.467116 
L 178.826007 295.481437 
L 178.966691 295.458682 
L 179.085731 295.470898 
L 179.226415 295.445867 
L 179.345455 295.45634 
L 179.486138 295.429468 
L 179.605178 295.438567 
L 179.745862 295.410288 
L 179.864902 295.418379 
L 180.005585 295.389121 
L 180.124625 295.39656 
L 180.265309 295.366736 
L 180.384349 295.373865 
L 180.525033 295.343865 
L 180.644073 295.351002 
L 180.784756 295.321189 
L 180.903796 295.328626 
L 181.04448 295.299328 
L 181.16352 295.307328 
L 181.304204 295.278834 
L 181.423244 295.287624 
L 181.563927 295.260181 
L 181.682967 295.269951 
L 181.823651 295.243764 
L 181.942691 295.254667 
L 182.083375 295.229891 
L 182.202415 295.24204 
L 182.343098 295.218787 
L 182.462138 295.232257 
L 182.602822 295.210591 
L 182.721862 295.225418 
L 182.862545 295.205362 
L 182.981585 295.221546 
L 183.122269 295.203078 
L 183.262953 295.220633 
L 183.403636 295.203817 
L 183.54432 295.222974 
L 183.66336 295.207293 
L 183.804044 295.227809 
L 183.923084 295.213222 
L 184.063767 295.234957 
L 184.182807 295.221333 
L 184.323491 295.244121 
L 184.442531 295.231313 
L 184.583215 295.254972 
L 184.702255 295.242818 
L 184.842938 295.267152 
L 184.961978 295.255485 
L 185.102662 295.28029 
L 185.221702 295.268934 
L 185.362385 295.294006 
L 185.481425 295.282788 
L 185.622109 295.307921 
L 185.741149 295.29667 
L 185.881833 295.321668 
L 186.000873 295.310221 
L 186.141556 295.334896 
L 186.260596 295.323102 
L 186.40128 295.34728 
L 186.52032 295.334999 
L 186.661004 295.358526 
L 186.780044 295.345634 
L 186.920727 295.368374 
L 187.039767 295.354765 
L 187.180451 295.376605 
L 187.299491 295.362192 
L 187.440175 295.38304 
L 187.559215 295.367758 
L 187.699898 295.387547 
L 187.818938 295.371349 
L 187.959622 295.390038 
L 188.100305 295.372934 
L 188.240989 295.39041 
L 188.381673 295.372094 
L 188.500713 295.388607 
L 188.511535 295.370895 
L 188.630575 295.386946 
L 188.771258 295.366994 
L 188.890298 295.382148 
L 189.030982 295.361163 
L 189.150022 295.37547 
L 189.290705 295.35352 
L 189.409745 295.367045 
L 189.550429 295.344213 
L 189.669469 295.357031 
L 189.810153 295.333415 
L 189.929193 295.345613 
L 190.069876 295.321319 
L 190.188916 295.332992 
L 190.3296 295.308136 
L 190.44864 295.319383 
L 190.589324 295.294084 
L 190.708364 295.305009 
L 190.849047 295.27939 
L 190.968087 295.290095 
L 191.108771 295.264278 
L 191.227811 295.274866 
L 191.368495 295.248969 
L 191.487535 295.259539 
L 191.628218 295.233676 
L 191.747258 295.24432 
L 191.887942 295.218598 
L 192.006982 295.229403 
L 192.147665 295.203919 
L 192.266705 295.214963 
L 192.407389 295.189803 
L 192.526429 295.201154 
L 192.667113 295.176392 
L 192.786153 295.188109 
L 192.926836 295.163808 
L 193.045876 295.175936 
L 193.18656 295.152144 
L 193.3056 295.16472 
L 193.446284 295.141472 
L 193.565324 295.154518 
L 193.706007 295.131835 
L 193.825047 295.145364 
L 193.965731 295.123254 
L 194.084771 295.137268 
L 194.225455 295.115727 
L 194.344495 295.130215 
L 194.485178 295.109226 
L 194.604218 295.124171 
L 194.744902 295.103706 
L 194.863942 295.11908 
L 195.004625 295.099102 
L 195.123665 295.11487 
L 195.264349 295.095335 
L 195.383389 295.111455 
L 195.524073 295.092309 
L 195.664756 295.108537 
L 195.80544 295.089747 
L 195.946124 295.106296 
L 196.086807 295.087791 
L 196.227491 295.104588 
L 196.368175 295.086292 
L 196.508858 295.103261 
L 196.649542 295.0851 
L 196.790225 295.102164 
L 196.930909 295.084063 
L 197.071593 295.101152 
L 197.212276 295.083039 
L 197.35296 295.100083 
L 197.493644 295.081893 
L 197.634327 295.098828 
L 197.775011 295.080501 
L 197.915695 295.097271 
L 198.056378 295.078753 
L 198.197062 295.09531 
L 198.337745 295.076557 
L 198.478429 295.09286 
L 198.619113 295.073836 
L 198.738153 295.090106 
L 198.878836 295.070809 
L 198.997876 295.08684 
L 199.13856 295.067255 
L 199.2576 295.083038 
L 199.398284 295.063156 
L 199.517324 295.078687 
L 199.658007 295.058508 
L 199.777047 295.07379 
L 199.917731 295.05332 
L 200.036771 295.06836 
L 200.177455 295.047612 
L 200.296495 295.062423 
L 200.437178 295.041413 
L 200.556218 295.056013 
L 200.696902 295.034765 
L 200.815942 295.049175 
L 200.956625 295.027717 
L 201.075665 295.04196 
L 201.216349 295.020322 
L 201.335389 295.034427 
L 201.476073 295.012641 
L 201.595113 295.026636 
L 201.735796 295.004738 
L 201.854836 295.018653 
L 201.99552 294.996678 
L 202.11456 295.010543 
L 202.255244 294.988528 
L 202.374284 295.002373 
L 202.514967 294.980352 
L 202.634007 294.994207 
L 202.774691 294.972214 
L 202.893731 294.986106 
L 203.034415 294.964173 
L 203.153455 294.978128 
L 203.294138 294.956284 
L 203.413178 294.970325 
L 203.553862 294.948595 
L 203.672902 294.962744 
L 203.813585 294.941152 
L 203.932625 294.955425 
L 204.073309 294.933988 
L 204.192349 294.9484 
L 204.333033 294.927135 
L 204.452073 294.941696 
L 204.592756 294.920612 
L 204.711796 294.93533 
L 204.85248 294.914434 
L 204.97152 294.929314 
L 205.112204 294.908608 
L 205.231244 294.923649 
L 205.371927 294.903134 
L 205.490967 294.918333 
L 205.631651 294.898003 
L 205.750691 294.913356 
L 205.891375 294.893202 
L 206.010415 294.908701 
L 206.151098 294.888713 
L 206.270138 294.904347 
L 206.410822 294.884512 
L 206.529862 294.900268 
L 206.670545 294.880569 
L 206.789585 294.896434 
L 206.930269 294.876855 
L 207.049309 294.892812 
L 207.189993 294.873334 
L 207.309033 294.889369 
L 207.449716 294.869972 
L 207.568756 294.886068 
L 207.70944 294.866732 
L 207.82848 294.882872 
L 207.969164 294.863579 
L 208.088204 294.879747 
L 208.228887 294.860478 
L 208.347927 294.876657 
L 208.488611 294.857393 
L 208.607651 294.87357 
L 208.748335 294.854295 
L 208.867375 294.870456 
L 209.008058 294.851154 
L 209.127098 294.867286 
L 209.267782 294.847944 
L 209.386822 294.864038 
L 209.527505 294.844644 
L 209.646545 294.86069 
L 209.787229 294.841236 
L 209.906269 294.857227 
L 210.046953 294.837705 
L 210.165993 294.853636 
L 210.306676 294.834041 
L 210.425716 294.849909 
L 210.5664 294.830239 
L 210.68544 294.846043 
L 210.826124 294.826296 
L 210.945164 294.842035 
L 211.085847 294.822214 
L 211.204887 294.837891 
L 211.345571 294.817999 
L 211.464611 294.833618 
L 211.605295 294.813658 
L 211.724335 294.829224 
L 211.865018 294.809205 
L 211.984058 294.824723 
L 212.124742 294.804652 
L 212.243782 294.82013 
L 212.384465 294.800017 
L 212.503505 294.815462 
L 212.644189 294.795315 
L 212.763229 294.810737 
L 212.903913 294.790567 
L 213.022953 294.805973 
L 213.163636 294.785791 
L 213.282676 294.801191 
L 213.42336 294.781007 
L 213.5424 294.79641 
L 213.683084 294.776234 
L 213.802124 294.791649 
L 213.942807 294.771491 
L 214.061847 294.786925 
L 214.202531 294.766796 
L 214.321571 294.782258 
L 214.462255 294.762164 
L 214.581295 294.77766 
L 214.721978 294.757611 
L 214.841018 294.773148 
L 214.981702 294.75315 
L 215.100742 294.768732 
L 215.241425 294.74879 
L 215.360465 294.764422 
L 215.501149 294.744541 
L 215.620189 294.760226 
L 215.760873 294.740409 
L 215.879913 294.756149 
L 216.020596 294.736399 
L 216.139636 294.752195 
L 216.28032 294.732511 
L 216.39936 294.748364 
L 216.540044 294.728747 
L 216.659084 294.744655 
L 216.799767 294.725103 
L 216.918807 294.741065 
L 217.059491 294.721575 
L 217.178531 294.737589 
L 217.319215 294.718159 
L 217.438255 294.734221 
L 217.578938 294.714845 
L 217.697978 294.730952 
L 217.838662 294.711627 
L 217.957702 294.727774 
L 218.098385 294.708494 
L 218.217425 294.724677 
L 218.358109 294.705436 
L 218.477149 294.72165 
L 218.617833 294.702443 
L 218.736873 294.718683 
L 218.877556 294.699503 
L 218.996596 294.715763 
L 219.13728 294.696605 
L 219.25632 294.712882 
L 219.397004 294.693739 
L 219.516044 294.710027 
L 219.656727 294.690895 
L 219.775767 294.707189 
L 219.916451 294.688062 
L 220.035491 294.704359 
L 220.176175 294.685233 
L 220.295215 294.701528 
L 220.435898 294.682399 
L 220.554938 294.69869 
L 220.695622 294.679553 
L 220.814662 294.695837 
L 220.955345 294.67669 
L 221.074385 294.692964 
L 221.215069 294.673806 
L 221.334109 294.690069 
L 221.474793 294.670896 
L 221.593833 294.687147 
L 221.734516 294.66796 
L 221.853556 294.684198 
L 221.99424 294.664996 
L 222.11328 294.681222 
L 222.253964 294.662005 
L 222.373004 294.678219 
L 222.513687 294.658988 
L 222.632727 294.675191 
L 222.773411 294.655948 
L 222.892451 294.672141 
L 223.033135 294.652888 
L 223.152175 294.669073 
L 223.292858 294.649812 
L 223.411898 294.665991 
L 223.552582 294.646725 
L 223.671622 294.6629 
L 223.812305 294.643631 
L 223.931345 294.659806 
L 224.072029 294.640536 
L 224.191069 294.656713 
L 224.331753 294.637447 
L 224.450793 294.653627 
L 224.591476 294.634368 
L 224.710516 294.650555 
L 224.8512 294.631306 
L 224.97024 294.647502 
L 225.110924 294.628265 
L 225.229964 294.644473 
L 225.370647 294.625251 
L 225.489687 294.641473 
L 225.630371 294.622269 
L 225.749411 294.638507 
L 225.890095 294.619323 
L 226.009135 294.635579 
L 226.149818 294.616417 
L 226.268858 294.632692 
L 226.409542 294.613553 
L 226.528582 294.629849 
L 226.669265 294.610736 
L 226.788305 294.627053 
L 226.928989 294.607965 
L 227.048029 294.624304 
L 227.188713 294.605243 
L 227.307753 294.621605 
L 227.448436 294.602569 
L 227.567476 294.618954 
L 227.70816 294.599945 
L 227.848844 294.616137 
L 227.989527 294.597156 
L 228.130211 294.613375 
L 228.270895 294.594421 
L 228.411578 294.610667 
L 228.552262 294.591739 
L 228.692945 294.60801 
L 228.833629 294.589106 
L 228.974313 294.6054 
L 229.114996 294.586518 
L 229.25568 294.602834 
L 229.396364 294.583973 
L 229.537047 294.600308 
L 229.677731 294.581465 
L 229.818415 294.597818 
L 229.959098 294.578991 
L 230.099782 294.595359 
L 230.240465 294.576547 
L 230.381149 294.592927 
L 230.521833 294.574127 
L 230.662516 294.590519 
L 230.8032 294.571728 
L 230.943884 294.588129 
L 231.084567 294.569347 
L 231.225251 294.585755 
L 231.365935 294.566979 
L 231.506618 294.583393 
L 231.647302 294.564622 
L 231.787985 294.58104 
L 231.928669 294.562273 
L 232.069353 294.578694 
L 232.210036 294.559929 
L 232.35072 294.576353 
L 232.491404 294.55759 
L 232.632087 294.574015 
L 232.772771 294.555254 
L 232.913455 294.57168 
L 233.054138 294.55292 
L 233.194822 294.569347 
L 233.335505 294.550588 
L 233.476189 294.567016 
L 233.616873 294.548259 
L 233.757556 294.564688 
L 233.89824 294.545932 
L 234.038924 294.562364 
L 234.179607 294.54361 
L 234.320291 294.560045 
L 234.460975 294.541294 
L 234.601658 294.557732 
L 234.742342 294.538985 
L 234.883025 294.555427 
L 235.023709 294.536685 
L 235.164393 294.553132 
L 235.305076 294.534396 
L 235.44576 294.55085 
L 235.586444 294.532121 
L 235.727127 294.548582 
L 235.867811 294.52986 
L 236.008495 294.54633 
L 236.149178 294.527617 
L 236.289862 294.544096 
L 236.430545 294.525394 
L 236.571229 294.541883 
L 236.711913 294.523191 
L 236.852596 294.539691 
L 236.99328 294.521011 
L 237.133964 294.537523 
L 237.274647 294.518855 
L 237.415331 294.53538 
L 237.556015 294.516724 
L 237.696698 294.533262 
L 237.837382 294.51462 
L 237.978065 294.531171 
L 238.118749 294.512542 
L 238.259433 294.529106 
L 238.400116 294.510491 
L 238.5408 294.527069 
L 238.681484 294.508468 
L 238.822167 294.525059 
L 238.962851 294.506471 
L 239.103535 294.523076 
L 239.244218 294.504501 
L 239.384902 294.521119 
L 239.525585 294.502557 
L 239.666269 294.519188 
L 239.806953 294.500638 
L 239.947636 294.517281 
L 240.08832 294.498743 
L 240.229004 294.515397 
L 240.369687 294.49687 
L 240.510371 294.513536 
L 240.651055 294.49502 
L 240.791738 294.511696 
L 240.932422 294.493189 
L 241.073105 294.509875 
L 241.213789 294.491378 
L 241.354473 294.508072 
L 241.495156 294.489584 
L 241.63584 294.506287 
L 241.776524 294.487807 
L 241.917207 294.504517 
L 242.057891 294.486044 
L 242.198575 294.502761 
L 242.339258 294.484295 
L 242.479942 294.501019 
L 242.620625 294.482559 
L 242.761309 294.499288 
L 242.901993 294.480834 
L 243.042676 294.497569 
L 243.18336 294.47912 
L 243.324044 294.495861 
L 243.464727 294.477417 
L 243.605411 294.494162 
L 243.746095 294.475723 
L 243.886778 294.492473 
L 244.027462 294.474039 
L 244.168145 294.490793 
L 244.308829 294.472363 
L 244.449513 294.489122 
L 244.590196 294.470697 
L 244.73088 294.487461 
L 244.871564 294.46904 
L 245.012247 294.485808 
L 245.152931 294.467392 
L 245.293615 294.484165 
L 245.434298 294.465753 
L 245.574982 294.482531 
L 245.715665 294.464125 
L 245.856349 294.480908 
L 245.997033 294.462506 
L 246.137716 294.479295 
L 246.2784 294.460899 
L 246.419084 294.477693 
L 246.559767 294.459303 
L 246.700451 294.476103 
L 246.841135 294.457719 
L 246.981818 294.474525 
L 247.122502 294.456147 
L 247.263185 294.47296 
L 247.403869 294.454589 
L 247.544553 294.471408 
L 247.685236 294.453044 
L 247.82592 294.46987 
L 247.966604 294.451512 
L 248.107287 294.468346 
L 248.247971 294.449996 
L 248.388655 294.466836 
L 248.529338 294.448494 
L 248.670022 294.465342 
L 248.810705 294.447007 
L 248.951389 294.463862 
L 249.092073 294.445535 
L 249.232756 294.462398 
L 249.37344 294.444078 
L 249.514124 294.460949 
L 249.654807 294.442637 
L 249.795491 294.459515 
L 249.936175 294.441211 
L 250.076858 294.458097 
L 250.217542 294.4398 
L 250.358225 294.456693 
L 250.498909 294.438403 
L 250.639593 294.455304 
L 250.780276 294.437022 
L 250.92096 294.45393 
L 251.061644 294.435654 
L 251.202327 294.452569 
L 251.343011 294.434301 
L 251.483695 294.451223 
L 251.624378 294.432961 
L 251.765062 294.449889 
L 251.905745 294.431634 
L 252.046429 294.448568 
L 252.187113 294.430319 
L 252.327796 294.44726 
L 252.46848 294.429017 
L 252.609164 294.445964 
L 252.749847 294.427726 
L 252.890531 294.444679 
L 253.031215 294.426447 
L 253.171898 294.443404 
L 253.312582 294.425178 
L 253.453265 294.442141 
L 253.593949 294.42392 
L 253.734633 294.440888 
L 253.875316 294.422671 
L 254.016 294.439644 
L 254.156684 294.421433 
L 254.297367 294.43841 
L 254.438051 294.420203 
L 254.578735 294.437185 
L 254.719418 294.418983 
L 254.860102 294.435969 
L 255.000785 294.417772 
L 255.141469 294.434763 
L 255.282153 294.416569 
L 255.422836 294.433564 
L 255.56352 294.415375 
L 255.704204 294.432375 
L 255.844887 294.41419 
L 255.985571 294.431194 
L 256.126255 294.413013 
L 256.266938 294.430022 
L 256.407622 294.411845 
L 256.548305 294.428858 
L 256.688989 294.410686 
L 256.829673 294.427703 
L 256.970356 294.409535 
L 257.11104 294.426557 
L 257.251724 294.408394 
L 257.392407 294.425419 
L 257.533091 294.407261 
L 257.673775 294.424291 
L 257.814458 294.406137 
L 257.955142 294.423172 
L 258.095825 294.405022 
L 258.236509 294.422061 
L 258.377193 294.403917 
L 258.517876 294.420961 
L 258.65856 294.402821 
L 258.799244 294.419869 
L 258.939927 294.401734 
L 259.080611 294.418788 
L 259.221295 294.400657 
L 259.361978 294.417715 
L 259.502662 294.39959 
L 259.643345 294.416653 
L 259.784029 294.398532 
L 259.924713 294.4156 
L 260.065396 294.397484 
L 260.20608 294.414557 
L 260.346764 294.396445 
L 260.487447 294.413523 
L 260.628131 294.395417 
L 260.768815 294.412499 
L 260.909498 294.394398 
L 261.050182 294.411485 
L 261.190865 294.393388 
L 261.331549 294.410481 
L 261.472233 294.392389 
L 261.612916 294.409485 
L 261.7536 294.391398 
L 261.894284 294.4085 
L 262.034967 294.390417 
L 262.175651 294.407523 
L 262.316335 294.389444 
L 262.457018 294.406555 
L 262.597702 294.388481 
L 262.738385 294.405596 
L 262.879069 294.387527 
L 263.019753 294.404646 
L 263.160436 294.386581 
L 263.30112 294.403704 
L 263.441804 294.385643 
L 263.582487 294.402771 
L 263.723171 294.384714 
L 263.863855 294.401846 
L 264.004538 294.383793 
L 264.145222 294.400928 
L 264.285905 294.382879 
L 264.426589 294.400019 
L 264.567273 294.381974 
L 264.707956 294.399117 
L 264.84864 294.381076 
L 264.989324 294.398223 
L 265.130007 294.380185 
L 265.270691 294.397336 
L 265.411375 294.379302 
L 265.552058 294.396456 
L 265.692742 294.378425 
L 265.833425 294.395583 
L 265.974109 294.377556 
L 266.114793 294.394718 
L 266.255476 294.376694 
L 266.39616 294.393859 
L 266.536844 294.375839 
L 266.677527 294.393007 
L 266.818211 294.37499 
L 266.958895 294.392162 
L 267.099578 294.374149 
L 267.240262 294.391324 
L 267.380945 294.373314 
L 267.521629 294.390492 
L 267.662313 294.372486 
L 267.802996 294.389667 
L 267.94368 294.371664 
L 268.084364 294.388849 
L 268.225047 294.370849 
L 268.365731 294.388038 
L 268.506415 294.370041 
L 268.647098 294.387233 
L 268.787782 294.36924 
L 268.928465 294.386435 
L 269.069149 294.368445 
L 269.209833 294.385643 
L 269.350516 294.367657 
L 269.4912 294.384858 
L 269.631884 294.366875 
L 269.772567 294.38408 
L 269.913251 294.3661 
L 270.053935 294.383309 
L 270.194618 294.365332 
L 270.335302 294.382544 
L 270.475985 294.364571 
L 270.616669 294.381786 
L 270.757353 294.363816 
L 270.898036 294.381034 
L 271.03872 294.363068 
L 271.179404 294.380289 
L 271.320087 294.362326 
L 271.460771 294.379551 
L 271.601455 294.361591 
L 271.742138 294.378819 
L 271.882822 294.360863 
L 272.023505 294.378094 
L 272.164189 294.360141 
L 272.304873 294.377375 
L 272.445556 294.359425 
L 272.58624 294.376663 
L 272.726924 294.358716 
L 272.867607 294.375957 
L 273.008291 294.358013 
L 273.148975 294.375257 
L 273.289658 294.357316 
L 273.430342 294.374563 
L 273.571025 294.356626 
L 273.711709 294.373876 
L 273.852393 294.355941 
L 273.993076 294.373194 
L 274.13376 294.355263 
L 274.274444 294.372519 
L 274.415127 294.35459 
L 274.555811 294.371849 
L 274.696495 294.353923 
L 274.837178 294.371185 
L 274.977862 294.353262 
L 275.118545 294.370527 
L 275.259229 294.352607 
L 275.399913 294.369875 
L 275.540596 294.351957 
L 275.68128 294.369228 
L 275.821964 294.351313 
L 275.962647 294.368586 
L 276.103331 294.350674 
L 276.244015 294.36795 
L 276.384698 294.350041 
L 276.525382 294.36732 
L 276.666065 294.349413 
L 276.806749 294.366694 
L 276.947433 294.34879 
L 277.088116 294.366074 
L 277.2288 294.348172 
L 277.369484 294.365459 
L 277.510167 294.34756 
L 277.650851 294.364849 
L 277.791535 294.346953 
L 277.932218 294.364244 
L 278.072902 294.34635 
L 278.213585 294.363644 
L 278.354269 294.345753 
L 278.494953 294.363049 
L 278.635636 294.34516 
L 278.77632 294.362459 
L 278.917004 294.344573 
L 279.057687 294.361874 
L 279.198371 294.34399 
L 279.339055 294.361294 
L 279.479738 294.343413 
L 279.620422 294.360719 
L 279.761105 294.34284 
L 279.901789 294.360149 
L 280.042473 294.342272 
L 280.183156 294.359583 
L 280.32384 294.341709 
L 280.464524 294.359022 
L 280.605207 294.34115 
L 280.745891 294.358466 
L 280.886575 294.340597 
L 281.027258 294.357915 
L 281.167942 294.340048 
L 281.308625 294.357368 
L 281.449309 294.339504 
L 281.589993 294.356827 
L 281.730676 294.338964 
L 281.87136 294.356289 
L 282.012044 294.338429 
L 282.152727 294.355757 
L 282.293411 294.337899 
L 282.434095 294.355229 
L 282.574778 294.337373 
L 282.715462 294.354706 
L 282.856145 294.336852 
L 282.996829 294.354187 
L 283.137513 294.336336 
L 283.278196 294.353672 
L 283.41888 294.335824 
L 283.559564 294.353163 
L 283.700247 294.335316 
L 283.840931 294.352657 
L 283.981615 294.334813 
L 284.122298 294.352156 
L 284.262982 294.334314 
L 284.403665 294.351659 
L 284.544349 294.333819 
L 284.685033 294.351167 
L 284.825716 294.333329 
L 284.9664 294.350679 
L 285.107084 294.332843 
L 285.247767 294.350195 
L 285.388451 294.332361 
L 285.529135 294.349715 
L 285.669818 294.331884 
L 285.810502 294.34924 
L 285.951185 294.33141 
L 286.091869 294.348768 
L 286.232553 294.330941 
L 286.373236 294.348301 
L 286.51392 294.330475 
L 286.654604 294.347837 
L 286.795287 294.330014 
L 286.935971 294.347378 
L 287.076655 294.329556 
L 287.217338 294.346922 
L 287.358022 294.329102 
L 287.498705 294.34647 
L 287.639389 294.328653 
L 287.780073 294.346022 
L 287.920756 294.328207 
L 288.06144 294.345578 
L 288.202124 294.327764 
L 288.342807 294.345138 
L 288.483491 294.327326 
L 288.624175 294.344701 
L 288.764858 294.326891 
L 288.905542 294.344268 
L 289.046225 294.32646 
L 289.186909 294.343839 
L 289.327593 294.326032 
L 289.468276 294.343413 
L 289.60896 294.325608 
L 289.749644 294.342991 
L 289.890327 294.325188 
L 290.031011 294.342573 
L 290.171695 294.324771 
L 290.312378 294.342158 
L 290.453062 294.324358 
L 290.593745 294.341746 
L 290.734429 294.323948 
L 290.875113 294.341338 
L 291.015796 294.323542 
L 291.15648 294.340934 
L 291.297164 294.323139 
L 291.437847 294.340533 
L 291.578531 294.32274 
L 291.719215 294.340135 
L 291.859898 294.322344 
L 292.000582 294.339741 
L 292.141265 294.321951 
L 292.281949 294.33935 
L 292.422633 294.321562 
L 292.563316 294.338962 
L 292.704 294.321176 
L 292.844684 294.338578 
L 292.985367 294.320794 
L 293.126051 294.338197 
L 293.266735 294.320414 
L 293.407418 294.337819 
L 293.548102 294.320038 
L 293.688785 294.337445 
L 293.829469 294.319665 
L 293.970153 294.337074 
L 294.110836 294.319296 
L 294.25152 294.336706 
L 294.392204 294.318929 
L 294.532887 294.336341 
L 294.673571 294.318566 
L 294.814255 294.335979 
L 294.954938 294.318206 
L 295.095622 294.33562 
L 295.236305 294.317849 
L 295.376989 294.335265 
L 295.517673 294.317495 
L 295.658356 294.334912 
L 295.79904 294.317144 
L 295.939724 294.334563 
L 296.080407 294.316796 
L 296.221091 294.334216 
L 296.361775 294.316451 
L 296.502458 294.333873 
L 296.643142 294.316109 
L 296.783825 294.333532 
L 296.924509 294.31577 
L 297.065193 294.333195 
L 297.205876 294.315434 
L 297.34656 294.33286 
L 297.487244 294.315101 
L 297.627927 294.332528 
L 297.768611 294.31477 
L 297.909295 294.332199 
L 298.049978 294.314443 
L 298.190662 294.331873 
L 298.331345 294.314118 
L 298.472029 294.33155 
L 298.612713 294.313796 
L 298.753396 294.331229 
L 298.89408 294.313476 
L 299.034764 294.330911 
L 299.175447 294.31316 
L 299.316131 294.330596 
L 299.456815 294.312846 
L 299.597498 294.330283 
L 299.738182 294.312535 
L 299.878865 294.329973 
L 300.019549 294.312226 
L 300.160233 294.329666 
L 300.300916 294.31192 
L 300.4416 294.329361 
L 300.582284 294.311617 
L 300.722967 294.329059 
L 300.863651 294.311316 
L 301.004335 294.32876 
L 301.145018 294.311018 
L 301.285702 294.328463 
L 301.426385 294.310722 
L 301.567069 294.328168 
L 301.707753 294.310429 
L 301.848436 294.327876 
L 301.98912 294.310138 
L 302.129804 294.327587 
L 302.270487 294.30985 
L 302.411171 294.3273 
L 302.551855 294.309564 
L 302.692538 294.327015 
L 302.833222 294.309281 
L 302.973905 294.326733 
L 303.114589 294.309 
L 303.255273 294.326454 
L 303.395956 294.308721 
L 303.53664 294.326176 
L 303.677324 294.308445 
L 303.818007 294.325901 
L 303.958691 294.308171 
L 304.099375 294.325629 
L 304.240058 294.3079 
L 304.380742 294.325359 
L 304.521425 294.307631 
L 304.662109 294.325091 
L 304.802793 294.307364 
L 304.943476 294.324825 
L 305.08416 294.3071 
L 305.224844 294.324562 
L 305.365527 294.306837 
L 305.506211 294.3243 
L 305.646895 294.306577 
L 305.787578 294.324042 
L 305.928262 294.30632 
L 306.068945 294.323785 
L 306.209629 294.306064 
L 306.350313 294.32353 
L 306.490996 294.305811 
L 306.63168 294.323278 
L 306.772364 294.30556 
L 306.913047 294.323028 
L 307.053731 294.305311 
L 307.194415 294.32278 
L 307.335098 294.305064 
L 307.475782 294.322534 
L 307.616465 294.304819 
L 307.757149 294.32229 
L 307.897833 294.304576 
L 308.038516 294.322049 
L 308.1792 294.304335 
L 308.319884 294.321809 
L 308.460567 294.304097 
L 308.601251 294.321572 
L 308.741935 294.30386 
L 308.882618 294.321336 
L 309.023302 294.303626 
L 309.163985 294.321103 
L 309.304669 294.303393 
L 309.445353 294.320871 
L 309.586036 294.303163 
L 309.72672 294.320642 
L 309.867404 294.302934 
L 310.008087 294.320414 
L 310.148771 294.302708 
L 310.289455 294.320188 
L 310.430138 294.302483 
L 310.570822 294.319965 
L 310.711505 294.30226 
L 310.852189 294.319743 
L 310.992873 294.302039 
L 311.133556 294.319523 
L 311.27424 294.30182 
L 311.414924 294.319305 
L 311.555607 294.301603 
L 311.696291 294.319089 
L 311.836975 294.301388 
L 311.977658 294.318874 
L 312.118342 294.301174 
L 312.259025 294.318662 
L 312.399709 294.300963 
L 312.540393 294.318451 
L 312.681076 294.300753 
L 312.82176 294.318242 
L 312.962444 294.300545 
L 313.103127 294.318035 
L 313.243811 294.300339 
L 313.384495 294.31783 
L 313.525178 294.300134 
L 313.665862 294.317626 
L 313.806545 294.299932 
L 313.947229 294.317424 
L 314.087913 294.299731 
L 314.228596 294.317224 
L 314.36928 294.299531 
L 314.509964 294.317026 
L 314.650647 294.299334 
L 314.791331 294.316829 
L 314.932015 294.299138 
L 315.072698 294.316634 
L 315.213382 294.298943 
L 315.354065 294.31644 
L 315.494749 294.298751 
L 315.635433 294.316249 
L 315.776116 294.29856 
L 315.9168 294.316058 
L 316.057484 294.298371 
L 316.198167 294.31587 
L 316.338851 294.298183 
L 316.479535 294.315683 
L 316.620218 294.297997 
L 316.760902 294.315498 
L 316.901585 294.297812 
L 317.042269 294.315314 
L 317.182953 294.29763 
L 317.323636 294.315132 
L 317.46432 294.297448 
L 317.605004 294.314951 
L 317.745687 294.297268 
L 317.886371 294.314772 
L 318.027055 294.29709 
L 318.167738 294.314595 
L 318.308422 294.296913 
L 318.449105 294.314419 
L 318.589789 294.296738 
L 318.730473 294.314244 
L 318.871156 294.296565 
L 319.01184 294.314072 
L 319.152524 294.296392 
L 319.293207 294.3139 
L 319.433891 294.296222 
L 319.574575 294.31373 
L 319.715258 294.296052 
L 319.855942 294.313561 
L 319.996625 294.295884 
L 320.137309 294.313394 
L 320.277993 294.295718 
L 320.418676 294.313229 
L 320.55936 294.295553 
L 320.700044 294.313064 
L 320.840727 294.295389 
L 320.981411 294.312901 
L 321.122095 294.295227 
L 321.262778 294.31274 
L 321.403462 294.295066 
L 321.544145 294.31258 
L 321.684829 294.294907 
L 321.825513 294.312421 
L 321.966196 294.294749 
L 322.10688 294.312264 
L 322.247564 294.294592 
L 322.388247 294.312108 
L 322.528931 294.294437 
L 322.669615 294.311953 
L 322.810298 294.294283 
L 322.950982 294.311799 
L 323.091665 294.29413 
L 323.232349 294.311647 
L 323.373033 294.293978 
L 323.513716 294.311496 
L 323.6544 294.293828 
L 323.795084 294.311347 
L 323.935767 294.293679 
L 324.076451 294.311199 
L 324.217135 294.293532 
L 324.357818 294.311052 
L 324.498502 294.293385 
L 324.639185 294.310906 
L 324.779869 294.29324 
L 324.920553 294.310762 
L 325.061236 294.293096 
L 325.20192 294.310618 
L 325.342604 294.292954 
L 325.483287 294.310476 
L 325.623971 294.292812 
L 325.764655 294.310335 
L 325.905338 294.292672 
L 326.046022 294.310196 
L 326.186705 294.292533 
L 326.327389 294.310057 
L 326.468073 294.292395 
L 326.608756 294.30992 
L 326.74944 294.292259 
L 326.890124 294.309784 
L 327.030807 294.292123 
L 327.171491 294.309649 
L 327.312175 294.291989 
L 327.452858 294.309516 
L 327.593542 294.291856 
L 327.734225 294.309383 
L 327.874909 294.291724 
L 328.015593 294.309251 
L 328.156276 294.291593 
L 328.29696 294.309121 
L 328.437644 294.291463 
L 328.578327 294.308992 
L 328.719011 294.291334 
L 328.859695 294.308864 
L 329.000378 294.291207 
L 329.141062 294.308737 
L 329.281745 294.29108 
L 329.422429 294.308611 
L 329.563113 294.290955 
L 329.703796 294.308486 
L 329.84448 294.290831 
L 329.985164 294.308362 
L 330.125847 294.290707 
L 330.266531 294.308239 
L 330.407215 294.290585 
L 330.547898 294.308118 
L 330.688582 294.290464 
L 330.829265 294.307997 
L 330.969949 294.290344 
L 331.110633 294.307877 
L 331.251316 294.290225 
L 331.392 294.307759 
L 331.532684 294.290107 
L 331.673367 294.307641 
L 331.814051 294.28999 
L 331.954735 294.307525 
L 332.095418 294.289873 
L 332.236102 294.307409 
L 332.376785 294.289758 
L 332.517469 294.307294 
L 332.658153 294.289644 
L 332.798836 294.307181 
L 332.93952 294.289531 
L 333.080204 294.307068 
L 333.220887 294.289419 
L 333.361571 294.306956 
L 333.502255 294.289308 
L 333.642938 294.306846 
L 333.783622 294.289197 
L 333.924305 294.306736 
L 334.064989 294.289088 
L 334.205673 294.306627 
L 334.346356 294.28898 
L 334.48704 294.306519 
L 334.627724 294.288872 
L 334.768407 294.306412 
L 334.909091 294.288766 
L 335.049775 294.306306 
L 335.190458 294.28866 
L 335.331142 294.306201 
L 335.471825 294.288555 
L 335.612509 294.306097 
L 335.753193 294.288451 
L 335.893876 294.305993 
L 336.03456 294.288349 
L 336.175244 294.305891 
L 336.315927 294.288246 
L 336.456611 294.305789 
L 336.597295 294.288145 
L 336.737978 294.305688 
L 336.878662 294.288045 
L 337.019345 294.305588 
L 337.160029 294.287945 
L 337.300713 294.305489 
L 337.441396 294.287847 
L 337.58208 294.305391 
L 337.722764 294.287749 
L 337.863447 294.305294 
L 338.004131 294.287652 
L 338.144815 294.305197 
L 338.285498 294.287556 
L 338.426182 294.305101 
L 338.566865 294.287461 
L 338.707549 294.305007 
L 338.848233 294.287366 
L 338.988916 294.304912 
L 339.1296 294.287272 
L 339.270284 294.304819 
L 339.410967 294.28718 
L 339.551651 294.304727 
L 339.692335 294.287087 
L 339.833018 294.304635 
L 339.973702 294.286996 
L 340.114385 294.304544 
L 340.255069 294.286906 
L 340.395753 294.304454 
L 340.536436 294.286816 
L 340.67712 294.304365 
L 340.817804 294.286727 
L 340.958487 294.304276 
L 341.099171 294.286639 
L 341.239855 294.304188 
L 341.380538 294.286551 
L 341.521222 294.304101 
L 341.661905 294.286464 
L 341.802589 294.304015 
L 341.943273 294.286378 
L 342.083956 294.303929 
L 342.22464 294.286293 
L 342.365324 294.303844 
L 342.506007 294.286209 
L 342.646691 294.30376 
L 342.787375 294.286125 
L 342.928058 294.303677 
L 343.068742 294.286042 
L 343.209425 294.303594 
L 343.350109 294.285959 
L 343.490793 294.303512 
L 343.631476 294.285878 
L 343.77216 294.30343 
L 343.912844 294.285797 
L 344.053527 294.30335 
L 344.194211 294.285717 
L 344.334895 294.30327 
L 344.475578 294.285637 
L 344.616262 294.303191 
L 344.756945 294.285558 
L 344.897629 294.303112 
L 345.038313 294.28548 
L 345.178996 294.303034 
L 345.31968 294.285402 
L 345.460364 294.302957 
L 345.601047 294.285325 
L 345.741731 294.30288 
L 345.882415 294.285249 
L 346.023098 294.302804 
L 346.163782 294.285173 
L 346.304465 294.302729 
L 346.445149 294.285098 
L 346.585833 294.302655 
L 346.726516 294.285024 
L 346.8672 294.302581 
L 347.007884 294.28495 
L 347.148567 294.302507 
L 347.289251 294.284877 
L 347.429935 294.302434 
L 347.570618 294.284805 
L 347.711302 294.302362 
L 347.851985 294.284733 
L 347.992669 294.302291 
L 348.133353 294.284662 
L 348.274036 294.30222 
L 348.41472 294.284591 
L 348.555404 294.30215 
L 348.696087 294.284521 
L 348.836771 294.30208 
L 348.977455 294.284452 
L 349.118138 294.302011 
L 349.258822 294.284383 
L 349.399505 294.301942 
L 349.540189 294.284315 
L 349.680873 294.301874 
L 349.821556 294.284247 
L 349.96224 294.301807 
L 350.102924 294.28418 
L 350.243607 294.30174 
L 350.384291 294.284114 
L 350.524975 294.301674 
L 350.665658 294.284048 
L 350.806342 294.301608 
L 350.947025 294.283983 
L 351.087709 294.301543 
L 351.228393 294.283918 
L 351.369076 294.301479 
L 351.50976 294.283854 
L 351.650444 294.301415 
L 351.791127 294.28379 
L 351.931811 294.301351 
L 352.072495 294.283727 
L 352.213178 294.301289 
L 352.353862 294.283664 
L 352.494545 294.301226 
L 352.635229 294.283602 
L 352.775913 294.301164 
L 352.916596 294.28354 
L 353.05728 294.301103 
L 353.197964 294.283479 
L 353.338647 294.301042 
L 353.479331 294.283419 
L 353.620015 294.300982 
L 353.760698 294.283359 
L 353.901382 294.300923 
L 354.042065 294.2833 
L 354.182749 294.300863 
L 354.323433 294.283241 
L 354.464116 294.300805 
L 354.6048 294.283182 
L 354.745484 294.300746 
L 354.886167 294.283124 
L 355.026851 294.300689 
L 355.167535 294.283067 
L 355.308218 294.300631 
L 355.448902 294.28301 
L 355.589585 294.300575 
L 355.730269 294.282953 
L 355.870953 294.300519 
L 356.011636 294.282897 
L 356.15232 294.300463 
L 356.293004 294.282842 
L 356.433687 294.300407 
L 356.574371 294.282787 
L 356.715055 294.300353 
L 356.855738 294.282732 
L 356.996422 294.300298 
L 357.137105 294.282678 
L 357.277789 294.300244 
L 357.418473 294.282624 
L 357.559156 294.300191 
L 357.69984 294.282571 
L 357.840524 294.300138 
L 357.981207 294.282518 
L 358.121891 294.300086 
L 358.262575 294.282466 
L 358.403258 294.300033 
L 358.543942 294.282414 
L 358.684625 294.299982 
L 358.825309 294.282363 
L 358.965993 294.299931 
L 359.106676 294.282312 
L 359.24736 294.29988 
L 359.388044 294.282261 
L 359.528727 294.29983 
L 359.669411 294.282211 
L 359.810095 294.29978 
L 359.950778 294.282162 
L 360.091462 294.29973 
L 360.232145 294.282112 
L 360.372829 294.299681 
L 360.513513 294.282064 
L 360.654196 294.299633 
L 360.79488 294.282015 
L 360.935564 294.299584 
L 361.076247 294.281967 
L 361.216931 294.299537 
L 361.357615 294.28192 
L 361.498298 294.299489 
L 361.638982 294.281873 
L 361.779665 294.299442 
L 361.920349 294.281826 
L 362.061033 294.299396 
L 362.201716 294.281779 
L 362.3424 294.29935 
L 362.483084 294.281733 
L 362.623767 294.299304 
L 362.764451 294.281688 
L 362.905135 294.299258 
L 363.045818 294.281643 
L 363.186502 294.299213 
L 363.327185 294.281598 
L 363.467869 294.299169 
L 363.608553 294.281553 
L 363.749236 294.299125 
L 363.88992 294.281509 
L 364.030604 294.299081 
L 364.171287 294.281466 
L 364.311971 294.299037 
L 364.452655 294.281422 
L 364.593338 294.298994 
L 364.734022 294.281379 
L 364.874705 294.298951 
L 365.015389 294.281337 
L 365.156073 294.298909 
L 365.296756 294.281295 
L 365.43744 294.298867 
L 365.578124 294.281253 
L 365.718807 294.298825 
L 365.859491 294.281211 
L 366.000175 294.298784 
L 366.140858 294.28117 
L 366.281542 294.298743 
L 366.422225 294.28113 
L 366.562909 294.298703 
L 366.703593 294.281089 
L 366.844276 294.298662 
L 366.98496 294.281049 
L 367.125644 294.298622 
L 367.266327 294.281009 
L 367.407011 294.298583 
L 367.547695 294.28097 
L 367.688378 294.298544 
L 367.829062 294.280931 
L 367.969745 294.298505 
L 368.110429 294.280892 
L 368.251113 294.298466 
L 368.391796 294.280854 
L 368.53248 294.298428 
L 368.673164 294.280816 
L 368.813847 294.29839 
L 368.954531 294.280778 
L 369.095215 294.298352 
L 369.235898 294.28074 
L 369.376582 294.298315 
L 369.517265 294.280703 
L 369.657949 294.298278 
L 369.798633 294.280667 
L 369.939316 294.298242 
L 370.08 294.28063 
L 370.220684 294.298205 
L 370.361367 294.280594 
L 370.502051 294.298169 
L 370.642735 294.280558 
L 370.783418 294.298134 
L 370.924102 294.280523 
L 371.064785 294.298098 
L 371.205469 294.280487 
L 371.346153 294.298063 
L 371.486836 294.280452 
L 371.62752 294.298028 
L 371.768204 294.280418 
L 371.908887 294.297994 
L 372.049571 294.280383 
L 372.190255 294.29796 
L 372.330938 294.280349 
L 372.471622 294.297926 
L 372.612305 294.280316 
L 372.752989 294.297892 
L 372.893673 294.280282 
L 373.034356 294.297859 
L 373.17504 294.280249 
L 373.315724 294.297826 
L 373.456407 294.280216 
L 373.597091 294.297793 
L 373.737775 294.280183 
L 373.878458 294.29776 
L 374.019142 294.280151 
L 374.159825 294.297728 
L 374.300509 294.280119 
L 374.441193 294.297696 
L 374.581876 294.280087 
L 374.72256 294.297665 
L 374.863244 294.280056 
L 375.003927 294.297633 
L 375.144611 294.280024 
L 375.285295 294.297602 
L 375.425978 294.279993 
L 375.566662 294.297571 
L 375.707345 294.279963 
L 375.848029 294.297541 
L 375.988713 294.279932 
L 376.129396 294.29751 
L 376.27008 294.279902 
L 376.410764 294.29748 
L 376.551447 294.279872 
L 376.692131 294.297451 
L 376.832815 294.279842 
L 376.973498 294.297421 
L 377.114182 294.279813 
L 377.254865 294.297392 
L 377.395549 294.279784 
L 377.536233 294.297363 
L 377.676916 294.279755 
L 377.8176 294.297334 
L 377.958284 294.279726 
L 378.098967 294.297305 
L 378.239651 294.279698 
L 378.380335 294.297277 
L 378.521018 294.27967 
L 378.661702 294.297249 
L 378.802385 294.279642 
L 378.943069 294.297221 
L 379.083753 294.279614 
L 379.224436 294.297193 
L 379.36512 294.279586 
L 379.505804 294.297166 
L 379.646487 294.279559 
L 379.787171 294.297139 
L 379.927855 294.279532 
L 380.068538 294.297112 
L 380.209222 294.279505 
L 380.349905 294.297085 
L 380.490589 294.279479 
L 380.631273 294.297059 
L 380.771956 294.279452 
L 380.91264 294.297033 
L 381.053324 294.279426 
L 381.194007 294.297007 
L 381.334691 294.279401 
L 381.475375 294.296981 
L 381.616058 294.279375 
L 381.756742 294.296955 
L 381.897425 294.279349 
L 382.038109 294.29693 
L 382.178793 294.279324 
L 382.319476 294.296905 
L 382.46016 294.279299 
L 382.600844 294.29688 
L 382.741527 294.279274 
L 382.882211 294.296855 
L 383.022895 294.27925 
L 383.163578 294.296831 
L 383.304262 294.279225 
L 383.444945 294.296807 
L 383.585629 294.279201 
L 383.726313 294.296783 
L 383.866996 294.279177 
L 384.00768 294.296759 
L 384.148364 294.279154 
L 384.289047 294.296735 
L 384.429731 294.27913 
L 384.570415 294.296712 
L 384.711098 294.279107 
L 384.851782 294.296688 
L 384.992465 294.279084 
L 385.133149 294.296665 
L 385.273833 294.279061 
L 385.414516 294.296642 
L 385.5552 294.279038 
L 385.695884 294.29662 
L 385.836567 294.279015 
L 385.977251 294.296597 
L 386.117935 294.278993 
L 386.258618 294.296575 
L 386.399302 294.278971 
L 386.539985 294.296553 
L 386.680669 294.278949 
L 386.821353 294.296531 
L 386.962036 294.278927 
L 387.10272 294.296509 
L 387.243404 294.278905 
L 387.384087 294.296488 
L 387.524771 294.278884 
L 387.665455 294.296467 
L 387.806138 294.278863 
L 387.946822 294.296445 
L 388.087505 294.278842 
L 388.228189 294.296424 
L 388.368873 294.278821 
L 388.509556 294.296404 
L 388.65024 294.2788 
L 388.790924 294.296383 
L 388.931607 294.278779 
L 389.072291 294.296363 
L 389.212975 294.278759 
L 389.353658 294.296342 
L 389.494342 294.278739 
L 389.635025 294.296322 
L 389.775709 294.278719 
L 389.916393 294.296302 
L 390.057076 294.278699 
L 390.19776 294.296283 
L 390.338444 294.278679 
L 390.479127 294.296263 
L 390.619811 294.27866 
L 390.760495 294.296244 
L 390.901178 294.278641 
L 391.041862 294.296224 
L 391.182545 294.278621 
L 391.323229 294.296205 
L 391.463913 294.278602 
L 391.604596 294.296186 
L 391.74528 294.278584 
L 391.885964 294.296168 
L 392.026647 294.278565 
L 392.167331 294.296149 
L 392.308015 294.278546 
L 392.448698 294.29613 
L 392.589382 294.278528 
L 392.730065 294.296112 
L 392.870749 294.27851 
L 393.011433 294.296094 
L 393.152116 294.278492 
L 393.2928 294.296076 
L 393.433484 294.278474 
L 393.574167 294.296058 
L 393.714851 294.278456 
L 393.855535 294.296041 
L 393.996218 294.278439 
L 394.136902 294.296023 
L 394.277585 294.278421 
L 394.418269 294.296006 
L 394.558953 294.278404 
L 394.699636 294.295988 
L 394.84032 294.278387 
L 394.981004 294.295971 
L 395.121687 294.27837 
L 395.262371 294.295954 
L 395.403055 294.278353 
L 395.543738 294.295938 
L 395.684422 294.278336 
L 395.825105 294.295921 
L 395.965789 294.27832 
L 396.106473 294.295905 
L 396.247156 294.278303 
L 396.38784 294.295888 
L 396.528524 294.278287 
L 396.669207 294.295872 
L 396.809891 294.278271 
L 396.950575 294.295856 
L 397.091258 294.278255 
L 397.231942 294.29584 
L 397.372625 294.278239 
L 397.513309 294.295824 
L 397.653993 294.278223 
L 397.794676 294.295809 
L 397.93536 294.278207 
L 398.076044 294.295793 
L 398.216727 294.278192 
L 398.357411 294.295778 
L 398.476451 294.278178 
L 398.487273 294.295771 
" clip-path="url(#p5435d046b2)" style="fill: none; stroke-dasharray: 5.55,2.4; stroke-dashoffset: 0; stroke: #0000ff; stroke-width: 1.5"/>
   </g>
   <g id="line2d_28">
    <path d="M 73.832727 294.285252 
L 74.14656 294.175154 
L 74.471215 293.778596 
L 74.914909 292.841751 
L 75.520931 290.987841 
L 76.40832 287.475681 
L 80.69376 269.650305 
L 82.425251 263.97452 
L 85.141527 255.084191 
L 86.570007 249.460185 
L 87.749585 243.931093 
L 89.178065 236.0687 
L 91.245033 223.309009 
L 94.816233 201.232618 
L 96.591011 191.775827 
L 98.333324 183.685019 
L 100.367825 175.333865 
L 104.793949 158.454122 
L 108.949527 143.068631 
L 111.157178 135.779898 
L 113.343185 129.332417 
L 116.070284 122.018233 
L 119.836276 112.563458 
L 122.682415 105.961815 
L 125.21472 100.648602 
L 127.974284 95.393028 
L 131.177542 89.773137 
L 134.229295 84.843424 
L 137.042967 80.710902 
L 139.986502 76.781581 
L 143.178938 72.885269 
L 146.382196 69.321412 
L 149.542167 66.141393 
L 152.875287 63.109397 
L 156.327447 60.271653 
L 159.877004 57.769805 
L 162.539171 56.207431 
L 165.028189 55.042544 
L 166.705571 54.473632 
L 168.859113 54.006511 
L 171.64032 53.66005 
L 174.042764 53.569565 
L 176.499316 53.706932 
L 201.779084 55.938884 
L 211.691869 56.501304 
L 223.628335 56.990475 
L 240.272291 57.433776 
L 263.084684 57.769954 
L 298.439564 57.990592 
L 344.399825 58.07623 
L 398.487273 58.098607 
L 398.487273 58.098607 
" clip-path="url(#p5435d046b2)" style="fill: none; stroke: #ff0000; stroke-width: 1.5; stroke-linecap: square"/>
   </g>
   <g id="patch_3">
    <path d="M 57.6 307.584 
L 57.6 41.472 
" style="fill: none; stroke: #000000; stroke-width: 0.8; stroke-linejoin: miter; stroke-linecap: square"/>
   </g>
   <g id="patch_4">
    <path d="M 414.72 307.584 
L 414.72 41.472 
" style="fill: none; stroke: #000000; stroke-width: 0.8; stroke-linejoin: miter; stroke-linecap: square"/>
   </g>
   <g id="patch_5">
    <path d="M 57.6 307.584 
L 414.72 307.584 
" style="fill: none; stroke: #000000; stroke-width: 0.8; stroke-linejoin: miter; stroke-linecap: square"/>
   </g>
   <g id="patch_6">
    <path d="M 57.6 41.472 
L 414.72 41.472 
" style="fill: none; stroke: #000000; stroke-width: 0.8; stroke-linejoin: miter; stroke-linecap: square"/>
   </g>
   <g id="text_16">
    <!-- x vs time -->
    <g transform="translate(208.562813 35.472)scale(0.12 -0.12)">
     <defs>
      <path id="DejaVuSans-76" d="M 191 3500 
L 800 3500 
L 1894 563 
L 2988 3500 
L 3597 3500 
L 2284 0 
L 1503 0 
L 191 3500 
z
" transform="scale(0.015625)"/>
     </defs>
     <use xlink:href="#DejaVuSans-78"/>
     <use xlink:href="#DejaVuSans-20" x="59.179688"/>
     <use xlink:href="#DejaVuSans-76" x="90.966797"/>
     <use xlink:href="#DejaVuSans-73" x="150.146484"/>
     <use xlink:href="#DejaVuSans-20" x="202.246094"/>
     <use xlink:href="#DejaVuSans-74" x="234.033203"/>
     <use xlink:href="#DejaVuSans-69" x="273.242188"/>
     <use xlink:href="#DejaVuSans-6d" x="301.025391"/>
     <use xlink:href="#DejaVuSans-65" x="398.4375"/>
    </g>
   </g>
   <g id="legend_1">
    <g id="patch_7">
     <path d="M 319.11375 79.106375 
L 407.72 79.106375 
Q 409.72 79.106375 409.72 77.106375 
L 409.72 48.472 
Q 409.72 46.472 407.72 46.472 
L 319.11375 46.472 
Q 317.11375 46.472 317.11375 48.472 
L 317.11375 77.106375 
Q 317.11375 79.106375 319.11375 79.106375 
z
" style="fill: #ffffff; opacity: 0.8; stroke: #cccccc; stroke-linejoin: miter"/>
    </g>
    <g id="line2d_29">
     <path d="M 321.11375 54.570438 
L 331.11375 54.570438 
L 341.11375 54.570438 
" style="fill: none; stroke-dasharray: 5.55,2.4; stroke-dashoffset: 0; stroke: #0000ff; stroke-width: 1.5"/>
    </g>
    <g id="text_17">
     <!-- x_dot (m/s) -->
     <g transform="translate(349.11375 58.070438)scale(0.1 -0.1)">
      <defs>
       <path id="DejaVuSans-5f" d="M 3263 -1063 
L 3263 -1509 
L -63 -1509 
L -63 -1063 
L 3263 -1063 
z
" transform="scale(0.015625)"/>
       <path id="DejaVuSans-64" d="M 2906 2969 
L 2906 4863 
L 3481 4863 
L 3481 0 
L 2906 0 
L 2906 525 
Q 2725 213 2448 61 
Q 2172 -91 1784 -91 
Q 1150 -91 751 415 
Q 353 922 353 1747 
Q 353 2572 751 3078 
Q 1150 3584 1784 3584 
Q 2172 3584 2448 3432 
Q 2725 3281 2906 2969 
z
M 947 1747 
Q 947 1113 1208 752 
Q 1469 391 1925 391 
Q 2381 391 2643 752 
Q 2906 1113 2906 1747 
Q 2906 2381 2643 2742 
Q 2381 3103 1925 3103 
Q 1469 3103 1208 2742 
Q 947 2381 947 1747 
z
" transform="scale(0.015625)"/>
       <path id="DejaVuSans-6f" d="M 1959 3097 
Q 1497 3097 1228 2736 
Q 959 2375 959 1747 
Q 959 1119 1226 758 
Q 1494 397 1959 397 
Q 2419 397 2687 759 
Q 2956 1122 2956 1747 
Q 2956 2369 2687 2733 
Q 2419 3097 1959 3097 
z
M 1959 3584 
Q 2709 3584 3137 3096 
Q 3566 2609 3566 1747 
Q 3566 888 3137 398 
Q 2709 -91 1959 -91 
Q 1206 -91 779 398 
Q 353 888 353 1747 
Q 353 2609 779 3096 
Q 1206 3584 1959 3584 
z
" transform="scale(0.015625)"/>
       <path id="DejaVuSans-2f" d="M 1625 4666 
L 2156 4666 
L 531 -594 
L 0 -594 
L 1625 4666 
z
" transform="scale(0.015625)"/>
      </defs>
      <use xlink:href="#DejaVuSans-78"/>
      <use xlink:href="#DejaVuSans-5f" x="59.179688"/>
      <use xlink:href="#DejaVuSans-64" x="109.179688"/>
      <use xlink:href="#DejaVuSans-6f" x="172.65625"/>
      <use xlink:href="#DejaVuSans-74" x="233.837891"/>
      <use xlink:href="#DejaVuSans-20" x="273.046875"/>
      <use xlink:href="#DejaVuSans-28" x="304.833984"/>
      <use xlink:href="#DejaVuSans-6d" x="343.847656"/>
      <use xlink:href="#DejaVuSans-2f" x="441.259766"/>
      <use xlink:href="#DejaVuSans-73" x="474.951172"/>
      <use xlink:href="#DejaVuSans-29" x="527.050781"/>
     </g>
    </g>
    <g id="line2d_30">
     <path d="M 321.11375 69.526688 
L 331.11375 69.526688 
L 341.11375 69.526688 
" style="fill: none; stroke: #ff0000; stroke-width: 1.5; stroke-linecap: square"/>
    </g>
    <g id="text_18">
     <!-- x (m) -->
     <g transform="translate(349.11375 73.026688)scale(0.1 -0.1)">
      <use xlink:href="#DejaVuSans-78"/>
      <use xlink:href="#DejaVuSans-20" x="59.179688"/>
      <use xlink:href="#DejaVuSans-28" x="90.966797"/>
      <use xlink:href="#DejaVuSans-6d" x="129.980469"/>
      <use xlink:href="#DejaVuSans-29" x="227.392578"/>
     </g>
    </g>
   </g>
  </g>
 </g>
 <defs>
  <clipPath id="p5435d046b2">
   <rect x="57.6" y="41.472" width="357.12" height="266.112"/>
  </clipPath>
 </defs>
</svg>
