<?xml version="1.0" encoding="utf-8" standalone="no"?>
<!DOCTYPE svg PUBLIC "-//W3C//DTD SVG 1.1//EN"
  "http://www.w3.org/Graphics/SVG/1.1/DTD/svg11.dtd">
<svg xmlns:xlink="http://www.w3.org/1999/xlink" width="460.8pt" height="345.6pt" viewBox="0 0 460.8 345.6" xmlns="http://www.w3.org/2000/svg" version="1.1">
 <metadata>
  <rdf:RDF xmlns:dc="http://purl.org/dc/elements/1.1/" xmlns:cc="http://creativecommons.org/ns#" xmlns:rdf="http://www.w3.org/1999/02/22-rdf-syntax-ns#">
   <cc:Work>
    <dc:type rdf:resource="http://purl.org/dc/dcmitype/StillImage"/>
    <dc:date>2023-06-29T16:31:51.215544</dc:date>
    <dc:format>image/svg+xml</dc:format>
    <dc:creator>
     <cc:Agent>
      <dc:title>Matplotlib v3.7.1, https://matplotlib.org/</dc:title>
     </cc:Agent>
    </dc:creator>
   </cc:Work>
  </rdf:RDF>
 </metadata>
 <defs>
  <style type="text/css">*{stroke-linejoin: round; stroke-linecap: butt}</style>
 </defs>
 <g id="figure_1">
  <g id="patch_1">
   <path d="M 0 345.6 
L 460.8 345.6 
L 460.8 0 
L 0 0 
L 0 345.6 
z
" style="fill: none"/>
  </g>
  <g id="axes_1">
   <g id="patch_2">
    <path d="M 57.6 307.584 
L 414.72 307.584 
L 414.72 41.472 
L 57.6 41.472 
L 57.6 307.584 
z
" style="fill: none"/>
   </g>
   <g id="matplotlib.axis_1">
    <g id="xtick_1">
     <g id="line2d_1">
      <path d="M 73.832727 307.584 
L 73.832727 41.472 
" clip-path="url(#ped8f21a7a4)" style="fill: none; stroke: #b0b0b0; stroke-width: 0.8; stroke-linecap: square"/>
     </g>
     <g id="line2d_2">
      <defs>
       <path id="md2f9772a8f" d="M 0 0 
L 0 3.5 
" style="stroke: #000000; stroke-width: 0.8"/>
      </defs>
      <g>
       <use xlink:href="#md2f9772a8f" x="73.832727" y="307.584" style="stroke: #000000; stroke-width: 0.8"/>
      </g>
     </g>
     <g id="text_1">
      <!-- 0.0 -->
      <g transform="translate(65.881165 322.182437) scale(0.1 -0.1)">
       <defs>
        <path id="DejaVuSans-30" d="M 2034 4250 
Q 1547 4250 1301 3770 
Q 1056 3291 1056 2328 
Q 1056 1369 1301 889 
Q 1547 409 2034 409 
Q 2525 409 2770 889 
Q 3016 1369 3016 2328 
Q 3016 3291 2770 3770 
Q 2525 4250 2034 4250 
z
M 2034 4750 
Q 2819 4750 3233 4129 
Q 3647 3509 3647 2328 
Q 3647 1150 3233 529 
Q 2819 -91 2034 -91 
Q 1250 -91 836 529 
Q 422 1150 422 2328 
Q 422 3509 836 4129 
Q 1250 4750 2034 4750 
z
" transform="scale(0.015625)"/>
        <path id="DejaVuSans-2e" d="M 684 794 
L 1344 794 
L 1344 0 
L 684 0 
L 684 794 
z
" transform="scale(0.015625)"/>
       </defs>
       <use xlink:href="#DejaVuSans-30"/>
       <use xlink:href="#DejaVuSans-2e" x="63.623047"/>
       <use xlink:href="#DejaVuSans-30" x="95.410156"/>
      </g>
     </g>
    </g>
    <g id="xtick_2">
     <g id="line2d_3">
      <path d="M 114.414545 307.584 
L 114.414545 41.472 
" clip-path="url(#ped8f21a7a4)" style="fill: none; stroke: #b0b0b0; stroke-width: 0.8; stroke-linecap: square"/>
     </g>
     <g id="line2d_4">
      <g>
       <use xlink:href="#md2f9772a8f" x="114.414545" y="307.584" style="stroke: #000000; stroke-width: 0.8"/>
      </g>
     </g>
     <g id="text_2">
      <!-- 2.5 -->
      <g transform="translate(106.462983 322.182437) scale(0.1 -0.1)">
       <defs>
        <path id="DejaVuSans-32" d="M 1228 531 
L 3431 531 
L 3431 0 
L 469 0 
L 469 531 
Q 828 903 1448 1529 
Q 2069 2156 2228 2338 
Q 2531 2678 2651 2914 
Q 2772 3150 2772 3378 
Q 2772 3750 2511 3984 
Q 2250 4219 1831 4219 
Q 1534 4219 1204 4116 
Q 875 4013 500 3803 
L 500 4441 
Q 881 4594 1212 4672 
Q 1544 4750 1819 4750 
Q 2544 4750 2975 4387 
Q 3406 4025 3406 3419 
Q 3406 3131 3298 2873 
Q 3191 2616 2906 2266 
Q 2828 2175 2409 1742 
Q 1991 1309 1228 531 
z
" transform="scale(0.015625)"/>
        <path id="DejaVuSans-35" d="M 691 4666 
L 3169 4666 
L 3169 4134 
L 1269 4134 
L 1269 2991 
Q 1406 3038 1543 3061 
Q 1681 3084 1819 3084 
Q 2600 3084 3056 2656 
Q 3513 2228 3513 1497 
Q 3513 744 3044 326 
Q 2575 -91 1722 -91 
Q 1428 -91 1123 -41 
Q 819 9 494 109 
L 494 744 
Q 775 591 1075 516 
Q 1375 441 1709 441 
Q 2250 441 2565 725 
Q 2881 1009 2881 1497 
Q 2881 1984 2565 2268 
Q 2250 2553 1709 2553 
Q 1456 2553 1204 2497 
Q 953 2441 691 2322 
L 691 4666 
z
" transform="scale(0.015625)"/>
       </defs>
       <use xlink:href="#DejaVuSans-32"/>
       <use xlink:href="#DejaVuSans-2e" x="63.623047"/>
       <use xlink:href="#DejaVuSans-35" x="95.410156"/>
      </g>
     </g>
    </g>
    <g id="xtick_3">
     <g id="line2d_5">
      <path d="M 154.996364 307.584 
L 154.996364 41.472 
" clip-path="url(#ped8f21a7a4)" style="fill: none; stroke: #b0b0b0; stroke-width: 0.8; stroke-linecap: square"/>
     </g>
     <g id="line2d_6">
      <g>
       <use xlink:href="#md2f9772a8f" x="154.996364" y="307.584" style="stroke: #000000; stroke-width: 0.8"/>
      </g>
     </g>
     <g id="text_3">
      <!-- 5.0 -->
      <g transform="translate(147.044801 322.182437) scale(0.1 -0.1)">
       <use xlink:href="#DejaVuSans-35"/>
       <use xlink:href="#DejaVuSans-2e" x="63.623047"/>
       <use xlink:href="#DejaVuSans-30" x="95.410156"/>
      </g>
     </g>
    </g>
    <g id="xtick_4">
     <g id="line2d_7">
      <path d="M 195.578182 307.584 
L 195.578182 41.472 
" clip-path="url(#ped8f21a7a4)" style="fill: none; stroke: #b0b0b0; stroke-width: 0.8; stroke-linecap: square"/>
     </g>
     <g id="line2d_8">
      <g>
       <use xlink:href="#md2f9772a8f" x="195.578182" y="307.584" style="stroke: #000000; stroke-width: 0.8"/>
      </g>
     </g>
     <g id="text_4">
      <!-- 7.5 -->
      <g transform="translate(187.626619 322.182437) scale(0.1 -0.1)">
       <defs>
        <path id="DejaVuSans-37" d="M 525 4666 
L 3525 4666 
L 3525 4397 
L 1831 0 
L 1172 0 
L 2766 4134 
L 525 4134 
L 525 4666 
z
" transform="scale(0.015625)"/>
       </defs>
       <use xlink:href="#DejaVuSans-37"/>
       <use xlink:href="#DejaVuSans-2e" x="63.623047"/>
       <use xlink:href="#DejaVuSans-35" x="95.410156"/>
      </g>
     </g>
    </g>
    <g id="xtick_5">
     <g id="line2d_9">
      <path d="M 236.16 307.584 
L 236.16 41.472 
" clip-path="url(#ped8f21a7a4)" style="fill: none; stroke: #b0b0b0; stroke-width: 0.8; stroke-linecap: square"/>
     </g>
     <g id="line2d_10">
      <g>
       <use xlink:href="#md2f9772a8f" x="236.16" y="307.584" style="stroke: #000000; stroke-width: 0.8"/>
      </g>
     </g>
     <g id="text_5">
      <!-- 10.0 -->
      <g transform="translate(225.027188 322.182437) scale(0.1 -0.1)">
       <defs>
        <path id="DejaVuSans-31" d="M 794 531 
L 1825 531 
L 1825 4091 
L 703 3866 
L 703 4441 
L 1819 4666 
L 2450 4666 
L 2450 531 
L 3481 531 
L 3481 0 
L 794 0 
L 794 531 
z
" transform="scale(0.015625)"/>
       </defs>
       <use xlink:href="#DejaVuSans-31"/>
       <use xlink:href="#DejaVuSans-30" x="63.623047"/>
       <use xlink:href="#DejaVuSans-2e" x="127.246094"/>
       <use xlink:href="#DejaVuSans-30" x="159.033203"/>
      </g>
     </g>
    </g>
    <g id="xtick_6">
     <g id="line2d_11">
      <path d="M 276.741818 307.584 
L 276.741818 41.472 
" clip-path="url(#ped8f21a7a4)" style="fill: none; stroke: #b0b0b0; stroke-width: 0.8; stroke-linecap: square"/>
     </g>
     <g id="line2d_12">
      <g>
       <use xlink:href="#md2f9772a8f" x="276.741818" y="307.584" style="stroke: #000000; stroke-width: 0.8"/>
      </g>
     </g>
     <g id="text_6">
      <!-- 12.5 -->
      <g transform="translate(265.609006 322.182437) scale(0.1 -0.1)">
       <use xlink:href="#DejaVuSans-31"/>
       <use xlink:href="#DejaVuSans-32" x="63.623047"/>
       <use xlink:href="#DejaVuSans-2e" x="127.246094"/>
       <use xlink:href="#DejaVuSans-35" x="159.033203"/>
      </g>
     </g>
    </g>
    <g id="xtick_7">
     <g id="line2d_13">
      <path d="M 317.323636 307.584 
L 317.323636 41.472 
" clip-path="url(#ped8f21a7a4)" style="fill: none; stroke: #b0b0b0; stroke-width: 0.8; stroke-linecap: square"/>
     </g>
     <g id="line2d_14">
      <g>
       <use xlink:href="#md2f9772a8f" x="317.323636" y="307.584" style="stroke: #000000; stroke-width: 0.8"/>
      </g>
     </g>
     <g id="text_7">
      <!-- 15.0 -->
      <g transform="translate(306.190824 322.182437) scale(0.1 -0.1)">
       <use xlink:href="#DejaVuSans-31"/>
       <use xlink:href="#DejaVuSans-35" x="63.623047"/>
       <use xlink:href="#DejaVuSans-2e" x="127.246094"/>
       <use xlink:href="#DejaVuSans-30" x="159.033203"/>
      </g>
     </g>
    </g>
    <g id="xtick_8">
     <g id="line2d_15">
      <path d="M 357.905455 307.584 
L 357.905455 41.472 
" clip-path="url(#ped8f21a7a4)" style="fill: none; stroke: #b0b0b0; stroke-width: 0.8; stroke-linecap: square"/>
     </g>
     <g id="line2d_16">
      <g>
       <use xlink:href="#md2f9772a8f" x="357.905455" y="307.584" style="stroke: #000000; stroke-width: 0.8"/>
      </g>
     </g>
     <g id="text_8">
      <!-- 17.5 -->
      <g transform="translate(346.772642 322.182437) scale(0.1 -0.1)">
       <use xlink:href="#DejaVuSans-31"/>
       <use xlink:href="#DejaVuSans-37" x="63.623047"/>
       <use xlink:href="#DejaVuSans-2e" x="127.246094"/>
       <use xlink:href="#DejaVuSans-35" x="159.033203"/>
      </g>
     </g>
    </g>
    <g id="xtick_9">
     <g id="line2d_17">
      <path d="M 398.487273 307.584 
L 398.487273 41.472 
" clip-path="url(#ped8f21a7a4)" style="fill: none; stroke: #b0b0b0; stroke-width: 0.8; stroke-linecap: square"/>
     </g>
     <g id="line2d_18">
      <g>
       <use xlink:href="#md2f9772a8f" x="398.487273" y="307.584" style="stroke: #000000; stroke-width: 0.8"/>
      </g>
     </g>
     <g id="text_9">
      <!-- 20.0 -->
      <g transform="translate(387.35446 322.182437) scale(0.1 -0.1)">
       <use xlink:href="#DejaVuSans-32"/>
       <use xlink:href="#DejaVuSans-30" x="63.623047"/>
       <use xlink:href="#DejaVuSans-2e" x="127.246094"/>
       <use xlink:href="#DejaVuSans-30" x="159.033203"/>
      </g>
     </g>
    </g>
    <g id="text_10">
     <!-- time (s) -->
     <g transform="translate(216.768594 335.860562) scale(0.1 -0.1)">
      <defs>
       <path id="DejaVuSans-74" d="M 1172 4494 
L 1172 3500 
L 2356 3500 
L 2356 3053 
L 1172 3053 
L 1172 1153 
Q 1172 725 1289 603 
Q 1406 481 1766 481 
L 2356 481 
L 2356 0 
L 1766 0 
Q 1100 0 847 248 
Q 594 497 594 1153 
L 594 3053 
L 172 3053 
L 172 3500 
L 594 3500 
L 594 4494 
L 1172 4494 
z
" transform="scale(0.015625)"/>
       <path id="DejaVuSans-69" d="M 603 3500 
L 1178 3500 
L 1178 0 
L 603 0 
L 603 3500 
z
M 603 4863 
L 1178 4863 
L 1178 4134 
L 603 4134 
L 603 4863 
z
" transform="scale(0.015625)"/>
       <path id="DejaVuSans-6d" d="M 3328 2828 
Q 3544 3216 3844 3400 
Q 4144 3584 4550 3584 
Q 5097 3584 5394 3201 
Q 5691 2819 5691 2113 
L 5691 0 
L 5113 0 
L 5113 2094 
Q 5113 2597 4934 2840 
Q 4756 3084 4391 3084 
Q 3944 3084 3684 2787 
Q 3425 2491 3425 1978 
L 3425 0 
L 2847 0 
L 2847 2094 
Q 2847 2600 2669 2842 
Q 2491 3084 2119 3084 
Q 1678 3084 1418 2786 
Q 1159 2488 1159 1978 
L 1159 0 
L 581 0 
L 581 3500 
L 1159 3500 
L 1159 2956 
Q 1356 3278 1631 3431 
Q 1906 3584 2284 3584 
Q 2666 3584 2933 3390 
Q 3200 3197 3328 2828 
z
" transform="scale(0.015625)"/>
       <path id="DejaVuSans-65" d="M 3597 1894 
L 3597 1613 
L 953 1613 
Q 991 1019 1311 708 
Q 1631 397 2203 397 
Q 2534 397 2845 478 
Q 3156 559 3463 722 
L 3463 178 
Q 3153 47 2828 -22 
Q 2503 -91 2169 -91 
Q 1331 -91 842 396 
Q 353 884 353 1716 
Q 353 2575 817 3079 
Q 1281 3584 2069 3584 
Q 2775 3584 3186 3129 
Q 3597 2675 3597 1894 
z
M 3022 2063 
Q 3016 2534 2758 2815 
Q 2500 3097 2075 3097 
Q 1594 3097 1305 2825 
Q 1016 2553 972 2059 
L 3022 2063 
z
" transform="scale(0.015625)"/>
       <path id="DejaVuSans-20" transform="scale(0.015625)"/>
       <path id="DejaVuSans-28" d="M 1984 4856 
Q 1566 4138 1362 3434 
Q 1159 2731 1159 2009 
Q 1159 1288 1364 580 
Q 1569 -128 1984 -844 
L 1484 -844 
Q 1016 -109 783 600 
Q 550 1309 550 2009 
Q 550 2706 781 3412 
Q 1013 4119 1484 4856 
L 1984 4856 
z
" transform="scale(0.015625)"/>
       <path id="DejaVuSans-73" d="M 2834 3397 
L 2834 2853 
Q 2591 2978 2328 3040 
Q 2066 3103 1784 3103 
Q 1356 3103 1142 2972 
Q 928 2841 928 2578 
Q 928 2378 1081 2264 
Q 1234 2150 1697 2047 
L 1894 2003 
Q 2506 1872 2764 1633 
Q 3022 1394 3022 966 
Q 3022 478 2636 193 
Q 2250 -91 1575 -91 
Q 1294 -91 989 -36 
Q 684 19 347 128 
L 347 722 
Q 666 556 975 473 
Q 1284 391 1588 391 
Q 1994 391 2212 530 
Q 2431 669 2431 922 
Q 2431 1156 2273 1281 
Q 2116 1406 1581 1522 
L 1381 1569 
Q 847 1681 609 1914 
Q 372 2147 372 2553 
Q 372 3047 722 3315 
Q 1072 3584 1716 3584 
Q 2034 3584 2315 3537 
Q 2597 3491 2834 3397 
z
" transform="scale(0.015625)"/>
       <path id="DejaVuSans-29" d="M 513 4856 
L 1013 4856 
Q 1481 4119 1714 3412 
Q 1947 2706 1947 2009 
Q 1947 1309 1714 600 
Q 1481 -109 1013 -844 
L 513 -844 
Q 928 -128 1133 580 
Q 1338 1288 1338 2009 
Q 1338 2731 1133 3434 
Q 928 4138 513 4856 
z
" transform="scale(0.015625)"/>
      </defs>
      <use xlink:href="#DejaVuSans-74"/>
      <use xlink:href="#DejaVuSans-69" x="39.208984"/>
      <use xlink:href="#DejaVuSans-6d" x="66.992188"/>
      <use xlink:href="#DejaVuSans-65" x="164.404297"/>
      <use xlink:href="#DejaVuSans-20" x="225.927734"/>
      <use xlink:href="#DejaVuSans-28" x="257.714844"/>
      <use xlink:href="#DejaVuSans-73" x="296.728516"/>
      <use xlink:href="#DejaVuSans-29" x="348.828125"/>
     </g>
    </g>
   </g>
   <g id="matplotlib.axis_2">
    <g id="ytick_1">
     <g id="line2d_19">
      <path d="M 57.6 300.447814 
L 414.72 300.447814 
" clip-path="url(#ped8f21a7a4)" style="fill: none; stroke: #b0b0b0; stroke-width: 0.8; stroke-linecap: square"/>
     </g>
     <g id="line2d_20">
      <defs>
       <path id="m6a3499477a" d="M 0 0 
L -3.5 0 
" style="stroke: #000000; stroke-width: 0.8"/>
      </defs>
      <g>
       <use xlink:href="#m6a3499477a" x="57.6" y="300.447814" style="stroke: #000000; stroke-width: 0.8"/>
      </g>
     </g>
     <g id="text_11">
      <!-- −0.25 -->
      <g transform="translate(19.954687 304.247033) scale(0.1 -0.1)">
       <defs>
        <path id="DejaVuSans-2212" d="M 678 2272 
L 4684 2272 
L 4684 1741 
L 678 1741 
L 678 2272 
z
" transform="scale(0.015625)"/>
       </defs>
       <use xlink:href="#DejaVuSans-2212"/>
       <use xlink:href="#DejaVuSans-30" x="83.789062"/>
       <use xlink:href="#DejaVuSans-2e" x="147.412109"/>
       <use xlink:href="#DejaVuSans-32" x="179.199219"/>
       <use xlink:href="#DejaVuSans-35" x="242.822266"/>
      </g>
     </g>
    </g>
    <g id="ytick_2">
     <g id="line2d_21">
      <path d="M 57.6 265.179269 
L 414.72 265.179269 
" clip-path="url(#ped8f21a7a4)" style="fill: none; stroke: #b0b0b0; stroke-width: 0.8; stroke-linecap: square"/>
     </g>
     <g id="line2d_22">
      <g>
       <use xlink:href="#m6a3499477a" x="57.6" y="265.179269" style="stroke: #000000; stroke-width: 0.8"/>
      </g>
     </g>
     <g id="text_12">
      <!-- 0.00 -->
      <g transform="translate(28.334375 268.978488) scale(0.1 -0.1)">
       <use xlink:href="#DejaVuSans-30"/>
       <use xlink:href="#DejaVuSans-2e" x="63.623047"/>
       <use xlink:href="#DejaVuSans-30" x="95.410156"/>
       <use xlink:href="#DejaVuSans-30" x="159.033203"/>
      </g>
     </g>
    </g>
    <g id="ytick_3">
     <g id="line2d_23">
      <path d="M 57.6 229.910724 
L 414.72 229.910724 
" clip-path="url(#ped8f21a7a4)" style="fill: none; stroke: #b0b0b0; stroke-width: 0.8; stroke-linecap: square"/>
     </g>
     <g id="line2d_24">
      <g>
       <use xlink:href="#m6a3499477a" x="57.6" y="229.910724" style="stroke: #000000; stroke-width: 0.8"/>
      </g>
     </g>
     <g id="text_13">
      <!-- 0.25 -->
      <g transform="translate(28.334375 233.709943) scale(0.1 -0.1)">
       <use xlink:href="#DejaVuSans-30"/>
       <use xlink:href="#DejaVuSans-2e" x="63.623047"/>
       <use xlink:href="#DejaVuSans-32" x="95.410156"/>
       <use xlink:href="#DejaVuSans-35" x="159.033203"/>
      </g>
     </g>
    </g>
    <g id="ytick_4">
     <g id="line2d_25">
      <path d="M 57.6 194.642179 
L 414.72 194.642179 
" clip-path="url(#ped8f21a7a4)" style="fill: none; stroke: #b0b0b0; stroke-width: 0.8; stroke-linecap: square"/>
     </g>
     <g id="line2d_26">
      <g>
       <use xlink:href="#m6a3499477a" x="57.6" y="194.642179" style="stroke: #000000; stroke-width: 0.8"/>
      </g>
     </g>
     <g id="text_14">
      <!-- 0.50 -->
      <g transform="translate(28.334375 198.441398) scale(0.1 -0.1)">
       <use xlink:href="#DejaVuSans-30"/>
       <use xlink:href="#DejaVuSans-2e" x="63.623047"/>
       <use xlink:href="#DejaVuSans-35" x="95.410156"/>
       <use xlink:href="#DejaVuSans-30" x="159.033203"/>
      </g>
     </g>
    </g>
    <g id="ytick_5">
     <g id="line2d_27">
      <path d="M 57.6 159.373635 
L 414.72 159.373635 
" clip-path="url(#ped8f21a7a4)" style="fill: none; stroke: #b0b0b0; stroke-width: 0.8; stroke-linecap: square"/>
     </g>
     <g id="line2d_28">
      <g>
       <use xlink:href="#m6a3499477a" x="57.6" y="159.373635" style="stroke: #000000; stroke-width: 0.8"/>
      </g>
     </g>
     <g id="text_15">
      <!-- 0.75 -->
      <g transform="translate(28.334375 163.172853) scale(0.1 -0.1)">
       <use xlink:href="#DejaVuSans-30"/>
       <use xlink:href="#DejaVuSans-2e" x="63.623047"/>
       <use xlink:href="#DejaVuSans-37" x="95.410156"/>
       <use xlink:href="#DejaVuSans-35" x="159.033203"/>
      </g>
     </g>
    </g>
    <g id="ytick_6">
     <g id="line2d_29">
      <path d="M 57.6 124.10509 
L 414.72 124.10509 
" clip-path="url(#ped8f21a7a4)" style="fill: none; stroke: #b0b0b0; stroke-width: 0.8; stroke-linecap: square"/>
     </g>
     <g id="line2d_30">
      <g>
       <use xlink:href="#m6a3499477a" x="57.6" y="124.10509" style="stroke: #000000; stroke-width: 0.8"/>
      </g>
     </g>
     <g id="text_16">
      <!-- 1.00 -->
      <g transform="translate(28.334375 127.904308) scale(0.1 -0.1)">
       <use xlink:href="#DejaVuSans-31"/>
       <use xlink:href="#DejaVuSans-2e" x="63.623047"/>
       <use xlink:href="#DejaVuSans-30" x="95.410156"/>
       <use xlink:href="#DejaVuSans-30" x="159.033203"/>
      </g>
     </g>
    </g>
    <g id="ytick_7">
     <g id="line2d_31">
      <path d="M 57.6 88.836545 
L 414.72 88.836545 
" clip-path="url(#ped8f21a7a4)" style="fill: none; stroke: #b0b0b0; stroke-width: 0.8; stroke-linecap: square"/>
     </g>
     <g id="line2d_32">
      <g>
       <use xlink:href="#m6a3499477a" x="57.6" y="88.836545" style="stroke: #000000; stroke-width: 0.8"/>
      </g>
     </g>
     <g id="text_17">
      <!-- 1.25 -->
      <g transform="translate(28.334375 92.635764) scale(0.1 -0.1)">
       <use xlink:href="#DejaVuSans-31"/>
       <use xlink:href="#DejaVuSans-2e" x="63.623047"/>
       <use xlink:href="#DejaVuSans-32" x="95.410156"/>
       <use xlink:href="#DejaVuSans-35" x="159.033203"/>
      </g>
     </g>
    </g>
    <g id="ytick_8">
     <g id="line2d_33">
      <path d="M 57.6 53.568 
L 414.72 53.568 
" clip-path="url(#ped8f21a7a4)" style="fill: none; stroke: #b0b0b0; stroke-width: 0.8; stroke-linecap: square"/>
     </g>
     <g id="line2d_34">
      <g>
       <use xlink:href="#m6a3499477a" x="57.6" y="53.568" style="stroke: #000000; stroke-width: 0.8"/>
      </g>
     </g>
     <g id="text_18">
      <!-- 1.50 -->
      <g transform="translate(28.334375 57.367219) scale(0.1 -0.1)">
       <use xlink:href="#DejaVuSans-31"/>
       <use xlink:href="#DejaVuSans-2e" x="63.623047"/>
       <use xlink:href="#DejaVuSans-35" x="95.410156"/>
       <use xlink:href="#DejaVuSans-30" x="159.033203"/>
      </g>
     </g>
    </g>
    <g id="text_19">
     <!-- l -->
     <g transform="translate(13.875 175.917062) rotate(-90) scale(0.1 -0.1)">
      <defs>
       <path id="DejaVuSans-6c" d="M 603 4863 
L 1178 4863 
L 1178 0 
L 603 0 
L 603 4863 
z
" transform="scale(0.015625)"/>
      </defs>
      <use xlink:href="#DejaVuSans-6c"/>
     </g>
    </g>
   </g>
   <g id="line2d_35">
    <path d="M 73.832727 265.179269 
L 73.946356 265.298455 
L 74.124916 265.894027 
L 74.400873 267.740458 
L 75.650793 277.700152 
L 76.429964 282.199177 
L 77.452625 286.631492 
L 78.410356 289.607697 
L 79.514182 292.011189 
L 80.45568 293.408929 
L 81.121222 294.11925 
L 82.695796 295.099732 
L 85.033309 295.483426 
L 88.864233 294.693794 
L 89.399913 294.515051 
L 89.821964 294.384489 
L 90.519971 294.147442 
L 93.117207 293.184093 
L 93.652887 292.977827 
L 94.107404 292.790076 
L 95.194996 292.338117 
L 96.16896 291.930334 
L 96.948131 291.600343 
L 97.646138 291.365594 
L 97.987025 291.19773 
L 99.107084 290.613538 
L 99.870022 290.265555 
L 101.282269 289.780141 
L 101.834182 289.573443 
L 104.122996 288.775498 
L 104.707375 288.554293 
L 105.600175 288.246169 
L 106.135855 288.059247 
L 106.557905 287.896929 
L 107.223447 287.662305 
L 108.246109 287.376736 
L 109.20384 287.100957 
L 110.09664 286.84888 
L 113.440582 285.641892 
L 114.089891 285.432153 
L 116.427404 284.695821 
L 116.963084 284.54517 
L 117.303971 284.418517 
L 118.407796 284.086019 
L 119.138269 283.833687 
L 120.063535 283.555377 
L 120.956335 283.288832 
L 121.946531 283.022243 
L 122.677004 282.866157 
L 123.099055 282.745726 
L 123.732131 282.553447 
L 124.413905 282.377977 
L 124.998284 282.228853 
L 127.352029 281.612402 
L 127.95264 281.475568 
L 138.698705 279.022953 
L 139.526575 278.90944 
L 140.45184 278.765407 
L 141.263476 278.630838 
L 142.123811 278.491483 
L 145.337891 277.674707 
L 145.873571 277.572178 
L 151.619956 276.519759 
L 152.480291 276.392925 
L 153.30816 276.275514 
L 154.20096 276.164538 
L 155.028829 276.066055 
L 155.564509 275.96632 
L 156.814429 275.566718 
L 157.609833 275.350085 
L 158.535098 275.128519 
L 159.362967 274.943822 
L 160.255767 274.766067 
L 161.083636 274.61418 
L 162.008902 274.471282 
L 162.804305 274.364125 
L 163.697105 274.266418 
L 164.524975 274.183414 
L 165.385309 274.107862 
L 166.245644 274.029312 
L 167.073513 273.955528 
L 167.966313 273.866441 
L 168.794182 273.782707 
L 169.686982 273.682926 
L 170.514851 273.591251 
L 171.375185 273.489708 
L 172.203055 273.395502 
L 173.063389 273.293039 
L 173.891258 273.198582 
L 174.751593 273.095738 
L 175.579462 273.000612 
L 176.439796 272.897192 
L 177.267665 272.80246 
L 178.128 272.701401 
L 178.988335 272.607918 
L 179.816204 272.518044 
L 180.676538 272.434304 
L 181.504407 272.354606 
L 182.364742 272.280751 
L 183.225076 272.205167 
L 184.052945 272.136169 
L 184.91328 272.057835 
L 185.741149 271.984246 
L 186.601484 271.901441 
L 187.429353 271.825012 
L 188.289687 271.740972 
L 189.117556 271.664505 
L 189.977891 271.580839 
L 190.80576 271.504572 
L 191.666095 271.420844 
L 192.493964 271.344666 
L 193.354298 271.261973 
L 194.214633 271.185545 
L 195.074967 271.107973 
L 195.935302 271.038849 
L 196.763171 270.972424 
L 197.623505 270.912021 
L 198.451375 270.852887 
L 199.311709 270.797826 
L 200.172044 270.738985 
L 200.999913 270.685858 
L 201.860247 270.624653 
L 202.688116 270.568166 
L 203.548451 270.50337 
L 204.37632 270.444089 
L 205.236655 270.377479 
L 206.064524 270.317488 
L 206.924858 270.2509 
L 207.752727 270.191266 
L 208.613062 270.12508 
L 209.440931 270.065776 
L 210.301265 270.000036 
L 211.129135 269.941566 
L 211.989469 269.877447 
L 212.849804 269.819191 
L 213.710138 269.758572 
L 214.570473 269.70436 
L 215.950255 269.321376 
L 216.713193 269.155643 
L 217.703389 268.982835 
L 218.498793 268.863371 
L 219.424058 268.749303 
L 220.251927 268.658193 
L 221.144727 268.577294 
L 221.972596 268.507041 
L 222.832931 268.444975 
L 223.6608 268.386031 
L 224.521135 268.333537 
L 225.349004 268.282255 
L 226.209338 268.236331 
L 227.037207 268.190319 
L 227.897542 268.149018 
L 228.757876 268.105252 
L 229.618211 268.067365 
L 230.478545 268.02649 
L 231.306415 267.992424 
L 232.166749 267.953512 
L 232.994618 267.920983 
L 233.854953 267.883359 
L 234.682822 267.851833 
L 235.543156 267.815071 
L 236.371025 267.784261 
L 237.23136 267.748178 
L 238.059229 267.718001 
L 238.919564 267.682581 
L 239.747433 267.653062 
L 240.607767 267.618358 
L 241.435636 267.589562 
L 242.295971 267.555649 
L 243.12384 267.527651 
L 243.984175 267.494602 
L 244.812044 267.467463 
L 245.672378 267.43532 
L 246.500247 267.409047 
L 247.360582 267.377781 
L 248.188451 267.352313 
L 249.048785 267.32183 
L 249.876655 267.29706 
L 250.736989 267.267248 
L 251.564858 267.243083 
L 252.425193 267.21387 
L 253.253062 267.190265 
L 254.113396 267.16163 
L 254.941265 267.138586 
L 255.8016 267.110542 
L 256.629469 267.088077 
L 257.489804 267.060645 
L 258.317673 267.038779 
L 259.178007 267.011981 
L 260.005876 266.990735 
L 260.866211 266.964589 
L 261.69408 266.943976 
L 262.554415 266.918488 
L 263.382284 266.898501 
L 264.242618 266.87365 
L 265.070487 266.854256 
L 265.930822 266.829999 
L 266.758691 266.811154 
L 267.619025 266.787445 
L 268.446895 266.769112 
L 269.307229 266.745922 
L 270.135098 266.728081 
L 270.995433 266.7054 
L 271.823302 266.688047 
L 272.683636 266.665871 
L 273.511505 266.649003 
L 274.37184 266.627331 
L 275.199709 266.610948 
L 276.060044 266.589779 
L 276.887913 266.57388 
L 277.748247 266.553212 
L 278.576116 266.537793 
L 279.436451 266.517619 
L 280.26432 266.502668 
L 281.124655 266.482972 
L 281.952524 266.46847 
L 282.812858 266.449228 
L 283.640727 266.435151 
L 284.501062 266.416342 
L 285.328931 266.402674 
L 286.189265 266.384283 
L 287.017135 266.371014 
L 287.877469 266.353033 
L 288.705338 266.340154 
L 289.565673 266.322577 
L 290.393542 266.310083 
L 291.253876 266.292901 
L 292.081745 266.280786 
L 292.94208 266.263995 
L 293.769949 266.252252 
L 294.630284 266.235845 
L 295.458153 266.224468 
L 296.318487 266.208436 
L 297.146356 266.197414 
L 298.006691 266.181745 
L 298.83456 266.171065 
L 299.694895 266.155744 
L 300.522764 266.145394 
L 301.383098 266.13041 
L 302.210967 266.12038 
L 303.071302 266.105724 
L 303.899171 266.096006 
L 304.759505 266.081672 
L 305.587375 266.072259 
L 306.447709 266.058239 
L 307.275578 266.049125 
L 308.135913 266.035411 
L 308.963782 266.02659 
L 309.824116 266.013177 
L 310.651985 266.004642 
L 311.51232 265.991524 
L 312.340189 265.983268 
L 313.200524 265.970435 
L 314.028393 265.96245 
L 314.888727 265.949895 
L 315.716596 265.942173 
L 316.576931 265.929887 
L 317.4048 265.922419 
L 318.265135 265.910393 
L 319.093004 265.903174 
L 319.953338 265.891403 
L 320.781207 265.884425 
L 321.641542 265.872903 
L 322.469411 265.866161 
L 323.329745 265.854882 
L 324.157615 265.848371 
L 325.017949 265.837328 
L 325.845818 265.831042 
L 326.706153 265.82023 
L 327.534022 265.814164 
L 328.394356 265.803578 
L 329.222225 265.797726 
L 330.08256 265.787358 
L 330.910429 265.781714 
L 331.770764 265.771559 
L 332.598633 265.766117 
L 333.458967 265.75617 
L 334.286836 265.750924 
L 335.147171 265.741178 
L 335.97504 265.736123 
L 336.835375 265.726573 
L 337.663244 265.721706 
L 338.523578 265.712348 
L 339.351447 265.707662 
L 340.211782 265.69849 
L 341.039651 265.693982 
L 341.899985 265.684993 
L 342.727855 265.680658 
L 343.588189 265.671846 
L 344.416058 265.66768 
L 345.276393 265.659041 
L 346.104262 265.655039 
L 346.964596 265.646569 
L 347.792465 265.642726 
L 348.6528 265.63442 
L 349.480669 265.630732 
L 350.341004 265.622585 
L 351.168873 265.619049 
L 352.029207 265.611057 
L 352.857076 265.607668 
L 353.717411 265.599827 
L 354.54528 265.596583 
L 355.405615 265.588889 
L 356.233484 265.585785 
L 357.093818 265.578235 
L 357.921687 265.575267 
L 358.782022 265.567857 
L 359.609891 265.565022 
L 360.470225 265.557749 
L 361.298095 265.555043 
L 362.158429 265.547903 
L 362.986298 265.545323 
L 363.846633 265.538312 
L 364.674502 265.535855 
L 365.534836 265.52897 
L 366.362705 265.526633 
L 367.22304 265.51987 
L 368.050909 265.51765 
L 368.911244 265.511006 
L 369.739113 265.508899 
L 370.599447 265.502372 
L 371.427316 265.500376 
L 372.287651 265.493962 
L 373.11552 265.492073 
L 373.975855 265.48577 
L 374.803724 265.483986 
L 375.664058 265.477791 
L 376.491927 265.476109 
L 377.352262 265.470019 
L 378.180131 265.468437 
L 379.040465 265.462449 
L 379.868335 265.460963 
L 380.728669 265.455075 
L 381.556538 265.453684 
L 382.416873 265.447892 
L 383.244742 265.446593 
L 384.105076 265.440895 
L 384.932945 265.439686 
L 385.79328 265.43408 
L 386.621149 265.432958 
L 387.481484 265.427441 
L 388.309353 265.426404 
L 389.169687 265.420975 
L 389.997556 265.420021 
L 390.857891 265.414677 
L 391.68576 265.413803 
L 392.546095 265.408542 
L 393.373964 265.407747 
L 394.234298 265.402566 
L 395.062167 265.401848 
L 395.922502 265.396745 
L 396.750371 265.396101 
L 397.610705 265.391076 
L 398.438575 265.390504 
L 398.487273 265.38819 
L 398.487273 265.38819 
" clip-path="url(#ped8f21a7a4)" style="fill: none; stroke-dasharray: 5.55,2.4; stroke-dashoffset: 0; stroke: #008000; stroke-opacity: 0.5; stroke-width: 1.5"/>
   </g>
   <g id="line2d_36">
    <path d="M 73.832727 53.568 
L 74.709295 53.677079 
L 75.391069 54.023086 
L 76.202705 54.695311 
L 77.209135 55.832296 
L 78.523985 57.679508 
L 80.309585 60.603339 
L 83.182778 65.792179 
L 92.078313 82.052677 
L 96.363753 89.326351 
L 100.324538 95.622219 
L 104.658676 102.07388 
L 108.960349 108.07738 
L 113.213324 113.651842 
L 117.466298 118.854809 
L 121.719273 123.709583 
L 126.296902 128.590871 
L 130.663505 132.92697 
L 135.419695 137.325407 
L 140.354444 141.580991 
L 144.980771 145.313249 
L 149.672029 148.797982 
L 155.158691 152.594992 
L 159.087011 155.093151 
L 163.973062 157.919183 
L 170.579782 161.478406 
L 176.488495 164.411707 
L 182.527069 167.157425 
L 189.182487 169.940695 
L 195.62688 172.391903 
L 202.931607 174.921453 
L 210.057775 177.162351 
L 216.534633 178.976612 
L 221.534313 180.097246 
L 229.050065 181.540427 
L 238.270255 183.082782 
L 248.172218 184.513797 
L 258.869585 185.833995 
L 270.524684 187.044318 
L 283.29984 188.142302 
L 297.324916 189.121431 
L 313.005731 189.990729 
L 330.7968 190.751386 
L 351.3312 191.403578 
L 376.004945 191.955795 
L 398.487273 192.304 
L 398.487273 192.304 
" clip-path="url(#ped8f21a7a4)" style="fill: none; stroke: #0000ff; stroke-width: 1.5; stroke-linecap: square"/>
   </g>
   <g id="patch_3">
    <path d="M 57.6 307.584 
L 57.6 41.472 
" style="fill: none; stroke: #000000; stroke-width: 0.8; stroke-linejoin: miter; stroke-linecap: square"/>
   </g>
   <g id="patch_4">
    <path d="M 414.72 307.584 
L 414.72 41.472 
" style="fill: none; stroke: #000000; stroke-width: 0.8; stroke-linejoin: miter; stroke-linecap: square"/>
   </g>
   <g id="patch_5">
    <path d="M 57.6 307.584 
L 414.72 307.584 
" style="fill: none; stroke: #000000; stroke-width: 0.8; stroke-linejoin: miter; stroke-linecap: square"/>
   </g>
   <g id="patch_6">
    <path d="M 57.6 41.472 
L 414.72 41.472 
" style="fill: none; stroke: #000000; stroke-width: 0.8; stroke-linejoin: miter; stroke-linecap: square"/>
   </g>
   <g id="text_20">
    <!-- l vs time -->
    <g transform="translate(210.447187 35.472) scale(0.12 -0.12)">
     <defs>
      <path id="DejaVuSans-76" d="M 191 3500 
L 800 3500 
L 1894 563 
L 2988 3500 
L 3597 3500 
L 2284 0 
L 1503 0 
L 191 3500 
z
" transform="scale(0.015625)"/>
     </defs>
     <use xlink:href="#DejaVuSans-6c"/>
     <use xlink:href="#DejaVuSans-20" x="27.783203"/>
     <use xlink:href="#DejaVuSans-76" x="59.570312"/>
     <use xlink:href="#DejaVuSans-73" x="118.75"/>
     <use xlink:href="#DejaVuSans-20" x="170.849609"/>
     <use xlink:href="#DejaVuSans-74" x="202.636719"/>
     <use xlink:href="#DejaVuSans-69" x="241.845703"/>
     <use xlink:href="#DejaVuSans-6d" x="269.628906"/>
     <use xlink:href="#DejaVuSans-65" x="367.041016"/>
    </g>
   </g>
   <g id="legend_1">
    <g id="patch_7">
     <path d="M 322.254375 79.106375 
L 407.72 79.106375 
Q 409.72 79.106375 409.72 77.106375 
L 409.72 48.472 
Q 409.72 46.472 407.72 46.472 
L 322.254375 46.472 
Q 320.254375 46.472 320.254375 48.472 
L 320.254375 77.106375 
Q 320.254375 79.106375 322.254375 79.106375 
z
" style="fill: #ffffff; opacity: 0.8; stroke: #cccccc; stroke-linejoin: miter"/>
    </g>
    <g id="line2d_37">
     <path d="M 324.254375 54.570438 
L 334.254375 54.570438 
L 344.254375 54.570438 
" style="fill: none; stroke-dasharray: 5.55,2.4; stroke-dashoffset: 0; stroke: #008000; stroke-opacity: 0.5; stroke-width: 1.5"/>
    </g>
    <g id="text_21">
     <!-- l_dot (m/s) -->
     <g transform="translate(352.254375 58.070438) scale(0.1 -0.1)">
      <defs>
       <path id="DejaVuSans-5f" d="M 3263 -1063 
L 3263 -1509 
L -63 -1509 
L -63 -1063 
L 3263 -1063 
z
" transform="scale(0.015625)"/>
       <path id="DejaVuSans-64" d="M 2906 2969 
L 2906 4863 
L 3481 4863 
L 3481 0 
L 2906 0 
L 2906 525 
Q 2725 213 2448 61 
Q 2172 -91 1784 -91 
Q 1150 -91 751 415 
Q 353 922 353 1747 
Q 353 2572 751 3078 
Q 1150 3584 1784 3584 
Q 2172 3584 2448 3432 
Q 2725 3281 2906 2969 
z
M 947 1747 
Q 947 1113 1208 752 
Q 1469 391 1925 391 
Q 2381 391 2643 752 
Q 2906 1113 2906 1747 
Q 2906 2381 2643 2742 
Q 2381 3103 1925 3103 
Q 1469 3103 1208 2742 
Q 947 2381 947 1747 
z
" transform="scale(0.015625)"/>
       <path id="DejaVuSans-6f" d="M 1959 3097 
Q 1497 3097 1228 2736 
Q 959 2375 959 1747 
Q 959 1119 1226 758 
Q 1494 397 1959 397 
Q 2419 397 2687 759 
Q 2956 1122 2956 1747 
Q 2956 2369 2687 2733 
Q 2419 3097 1959 3097 
z
M 1959 3584 
Q 2709 3584 3137 3096 
Q 3566 2609 3566 1747 
Q 3566 888 3137 398 
Q 2709 -91 1959 -91 
Q 1206 -91 779 398 
Q 353 888 353 1747 
Q 353 2609 779 3096 
Q 1206 3584 1959 3584 
z
" transform="scale(0.015625)"/>
       <path id="DejaVuSans-2f" d="M 1625 4666 
L 2156 4666 
L 531 -594 
L 0 -594 
L 1625 4666 
z
" transform="scale(0.015625)"/>
      </defs>
      <use xlink:href="#DejaVuSans-6c"/>
      <use xlink:href="#DejaVuSans-5f" x="27.783203"/>
      <use xlink:href="#DejaVuSans-64" x="77.783203"/>
      <use xlink:href="#DejaVuSans-6f" x="141.259766"/>
      <use xlink:href="#DejaVuSans-74" x="202.441406"/>
      <use xlink:href="#DejaVuSans-20" x="241.650391"/>
      <use xlink:href="#DejaVuSans-28" x="273.4375"/>
      <use xlink:href="#DejaVuSans-6d" x="312.451172"/>
      <use xlink:href="#DejaVuSans-2f" x="409.863281"/>
      <use xlink:href="#DejaVuSans-73" x="443.554688"/>
      <use xlink:href="#DejaVuSans-29" x="495.654297"/>
     </g>
    </g>
    <g id="line2d_38">
     <path d="M 324.254375 69.526688 
L 334.254375 69.526688 
L 344.254375 69.526688 
" style="fill: none; stroke: #0000ff; stroke-width: 1.5; stroke-linecap: square"/>
    </g>
    <g id="text_22">
     <!-- l (m) -->
     <g transform="translate(352.254375 73.026688) scale(0.1 -0.1)">
      <use xlink:href="#DejaVuSans-6c"/>
      <use xlink:href="#DejaVuSans-20" x="27.783203"/>
      <use xlink:href="#DejaVuSans-28" x="59.570312"/>
      <use xlink:href="#DejaVuSans-6d" x="98.583984"/>
      <use xlink:href="#DejaVuSans-29" x="195.996094"/>
     </g>
    </g>
   </g>
  </g>
 </g>
 <defs>
  <clipPath id="ped8f21a7a4">
   <rect x="57.6" y="41.472" width="357.12" height="266.112"/>
  </clipPath>
 </defs>
</svg>
