<?xml version="1.0" encoding="utf-8" standalone="no"?>
<!DOCTYPE svg PUBLIC "-//W3C//DTD SVG 1.1//EN"
  "http://www.w3.org/Graphics/SVG/1.1/DTD/svg11.dtd">
<svg xmlns:xlink="http://www.w3.org/1999/xlink" width="460.8pt" height="345.6pt" viewBox="0 0 460.8 345.6" xmlns="http://www.w3.org/2000/svg" version="1.1">
 <metadata>
  <rdf:RDF xmlns:dc="http://purl.org/dc/elements/1.1/" xmlns:cc="http://creativecommons.org/ns#" xmlns:rdf="http://www.w3.org/1999/02/22-rdf-syntax-ns#">
   <cc:Work>
    <dc:type rdf:resource="http://purl.org/dc/dcmitype/StillImage"/>
    <dc:date>2023-06-29T15:34:07.374126</dc:date>
    <dc:format>image/svg+xml</dc:format>
    <dc:creator>
     <cc:Agent>
      <dc:title>Matplotlib v3.7.1, https://matplotlib.org/</dc:title>
     </cc:Agent>
    </dc:creator>
   </cc:Work>
  </rdf:RDF>
 </metadata>
 <defs>
  <style type="text/css">*{stroke-linejoin: round; stroke-linecap: butt}</style>
 </defs>
 <g id="figure_1">
  <g id="patch_1">
   <path d="M 0 345.6 
L 460.8 345.6 
L 460.8 0 
L 0 0 
L 0 345.6 
z
" style="fill: none"/>
  </g>
  <g id="axes_1">
   <g id="patch_2">
    <path d="M 57.6 307.584 
L 414.72 307.584 
L 414.72 41.472 
L 57.6 41.472 
L 57.6 307.584 
z
" style="fill: none"/>
   </g>
   <g id="matplotlib.axis_1">
    <g id="xtick_1">
     <g id="line2d_1">
      <path d="M 73.832727 307.584 
L 73.832727 41.472 
" clip-path="url(#p3aa2f2e5d6)" style="fill: none; stroke: #b0b0b0; stroke-width: 0.8; stroke-linecap: square"/>
     </g>
     <g id="line2d_2">
      <defs>
       <path id="m6d113c4a47" d="M 0 0 
L 0 3.5 
" style="stroke: #000000; stroke-width: 0.8"/>
      </defs>
      <g>
       <use xlink:href="#m6d113c4a47" x="73.832727" y="307.584" style="stroke: #000000; stroke-width: 0.8"/>
      </g>
     </g>
     <g id="text_1">
      <!-- 0.0 -->
      <g transform="translate(65.881165 322.182437) scale(0.1 -0.1)">
       <defs>
        <path id="DejaVuSans-30" d="M 2034 4250 
Q 1547 4250 1301 3770 
Q 1056 3291 1056 2328 
Q 1056 1369 1301 889 
Q 1547 409 2034 409 
Q 2525 409 2770 889 
Q 3016 1369 3016 2328 
Q 3016 3291 2770 3770 
Q 2525 4250 2034 4250 
z
M 2034 4750 
Q 2819 4750 3233 4129 
Q 3647 3509 3647 2328 
Q 3647 1150 3233 529 
Q 2819 -91 2034 -91 
Q 1250 -91 836 529 
Q 422 1150 422 2328 
Q 422 3509 836 4129 
Q 1250 4750 2034 4750 
z
" transform="scale(0.015625)"/>
        <path id="DejaVuSans-2e" d="M 684 794 
L 1344 794 
L 1344 0 
L 684 0 
L 684 794 
z
" transform="scale(0.015625)"/>
       </defs>
       <use xlink:href="#DejaVuSans-30"/>
       <use xlink:href="#DejaVuSans-2e" x="63.623047"/>
       <use xlink:href="#DejaVuSans-30" x="95.410156"/>
      </g>
     </g>
    </g>
    <g id="xtick_2">
     <g id="line2d_3">
      <path d="M 114.414545 307.584 
L 114.414545 41.472 
" clip-path="url(#p3aa2f2e5d6)" style="fill: none; stroke: #b0b0b0; stroke-width: 0.8; stroke-linecap: square"/>
     </g>
     <g id="line2d_4">
      <g>
       <use xlink:href="#m6d113c4a47" x="114.414545" y="307.584" style="stroke: #000000; stroke-width: 0.8"/>
      </g>
     </g>
     <g id="text_2">
      <!-- 2.5 -->
      <g transform="translate(106.462983 322.182437) scale(0.1 -0.1)">
       <defs>
        <path id="DejaVuSans-32" d="M 1228 531 
L 3431 531 
L 3431 0 
L 469 0 
L 469 531 
Q 828 903 1448 1529 
Q 2069 2156 2228 2338 
Q 2531 2678 2651 2914 
Q 2772 3150 2772 3378 
Q 2772 3750 2511 3984 
Q 2250 4219 1831 4219 
Q 1534 4219 1204 4116 
Q 875 4013 500 3803 
L 500 4441 
Q 881 4594 1212 4672 
Q 1544 4750 1819 4750 
Q 2544 4750 2975 4387 
Q 3406 4025 3406 3419 
Q 3406 3131 3298 2873 
Q 3191 2616 2906 2266 
Q 2828 2175 2409 1742 
Q 1991 1309 1228 531 
z
" transform="scale(0.015625)"/>
        <path id="DejaVuSans-35" d="M 691 4666 
L 3169 4666 
L 3169 4134 
L 1269 4134 
L 1269 2991 
Q 1406 3038 1543 3061 
Q 1681 3084 1819 3084 
Q 2600 3084 3056 2656 
Q 3513 2228 3513 1497 
Q 3513 744 3044 326 
Q 2575 -91 1722 -91 
Q 1428 -91 1123 -41 
Q 819 9 494 109 
L 494 744 
Q 775 591 1075 516 
Q 1375 441 1709 441 
Q 2250 441 2565 725 
Q 2881 1009 2881 1497 
Q 2881 1984 2565 2268 
Q 2250 2553 1709 2553 
Q 1456 2553 1204 2497 
Q 953 2441 691 2322 
L 691 4666 
z
" transform="scale(0.015625)"/>
       </defs>
       <use xlink:href="#DejaVuSans-32"/>
       <use xlink:href="#DejaVuSans-2e" x="63.623047"/>
       <use xlink:href="#DejaVuSans-35" x="95.410156"/>
      </g>
     </g>
    </g>
    <g id="xtick_3">
     <g id="line2d_5">
      <path d="M 154.996364 307.584 
L 154.996364 41.472 
" clip-path="url(#p3aa2f2e5d6)" style="fill: none; stroke: #b0b0b0; stroke-width: 0.8; stroke-linecap: square"/>
     </g>
     <g id="line2d_6">
      <g>
       <use xlink:href="#m6d113c4a47" x="154.996364" y="307.584" style="stroke: #000000; stroke-width: 0.8"/>
      </g>
     </g>
     <g id="text_3">
      <!-- 5.0 -->
      <g transform="translate(147.044801 322.182437) scale(0.1 -0.1)">
       <use xlink:href="#DejaVuSans-35"/>
       <use xlink:href="#DejaVuSans-2e" x="63.623047"/>
       <use xlink:href="#DejaVuSans-30" x="95.410156"/>
      </g>
     </g>
    </g>
    <g id="xtick_4">
     <g id="line2d_7">
      <path d="M 195.578182 307.584 
L 195.578182 41.472 
" clip-path="url(#p3aa2f2e5d6)" style="fill: none; stroke: #b0b0b0; stroke-width: 0.8; stroke-linecap: square"/>
     </g>
     <g id="line2d_8">
      <g>
       <use xlink:href="#m6d113c4a47" x="195.578182" y="307.584" style="stroke: #000000; stroke-width: 0.8"/>
      </g>
     </g>
     <g id="text_4">
      <!-- 7.5 -->
      <g transform="translate(187.626619 322.182437) scale(0.1 -0.1)">
       <defs>
        <path id="DejaVuSans-37" d="M 525 4666 
L 3525 4666 
L 3525 4397 
L 1831 0 
L 1172 0 
L 2766 4134 
L 525 4134 
L 525 4666 
z
" transform="scale(0.015625)"/>
       </defs>
       <use xlink:href="#DejaVuSans-37"/>
       <use xlink:href="#DejaVuSans-2e" x="63.623047"/>
       <use xlink:href="#DejaVuSans-35" x="95.410156"/>
      </g>
     </g>
    </g>
    <g id="xtick_5">
     <g id="line2d_9">
      <path d="M 236.16 307.584 
L 236.16 41.472 
" clip-path="url(#p3aa2f2e5d6)" style="fill: none; stroke: #b0b0b0; stroke-width: 0.8; stroke-linecap: square"/>
     </g>
     <g id="line2d_10">
      <g>
       <use xlink:href="#m6d113c4a47" x="236.16" y="307.584" style="stroke: #000000; stroke-width: 0.8"/>
      </g>
     </g>
     <g id="text_5">
      <!-- 10.0 -->
      <g transform="translate(225.027188 322.182437) scale(0.1 -0.1)">
       <defs>
        <path id="DejaVuSans-31" d="M 794 531 
L 1825 531 
L 1825 4091 
L 703 3866 
L 703 4441 
L 1819 4666 
L 2450 4666 
L 2450 531 
L 3481 531 
L 3481 0 
L 794 0 
L 794 531 
z
" transform="scale(0.015625)"/>
       </defs>
       <use xlink:href="#DejaVuSans-31"/>
       <use xlink:href="#DejaVuSans-30" x="63.623047"/>
       <use xlink:href="#DejaVuSans-2e" x="127.246094"/>
       <use xlink:href="#DejaVuSans-30" x="159.033203"/>
      </g>
     </g>
    </g>
    <g id="xtick_6">
     <g id="line2d_11">
      <path d="M 276.741818 307.584 
L 276.741818 41.472 
" clip-path="url(#p3aa2f2e5d6)" style="fill: none; stroke: #b0b0b0; stroke-width: 0.8; stroke-linecap: square"/>
     </g>
     <g id="line2d_12">
      <g>
       <use xlink:href="#m6d113c4a47" x="276.741818" y="307.584" style="stroke: #000000; stroke-width: 0.8"/>
      </g>
     </g>
     <g id="text_6">
      <!-- 12.5 -->
      <g transform="translate(265.609006 322.182437) scale(0.1 -0.1)">
       <use xlink:href="#DejaVuSans-31"/>
       <use xlink:href="#DejaVuSans-32" x="63.623047"/>
       <use xlink:href="#DejaVuSans-2e" x="127.246094"/>
       <use xlink:href="#DejaVuSans-35" x="159.033203"/>
      </g>
     </g>
    </g>
    <g id="xtick_7">
     <g id="line2d_13">
      <path d="M 317.323636 307.584 
L 317.323636 41.472 
" clip-path="url(#p3aa2f2e5d6)" style="fill: none; stroke: #b0b0b0; stroke-width: 0.8; stroke-linecap: square"/>
     </g>
     <g id="line2d_14">
      <g>
       <use xlink:href="#m6d113c4a47" x="317.323636" y="307.584" style="stroke: #000000; stroke-width: 0.8"/>
      </g>
     </g>
     <g id="text_7">
      <!-- 15.0 -->
      <g transform="translate(306.190824 322.182437) scale(0.1 -0.1)">
       <use xlink:href="#DejaVuSans-31"/>
       <use xlink:href="#DejaVuSans-35" x="63.623047"/>
       <use xlink:href="#DejaVuSans-2e" x="127.246094"/>
       <use xlink:href="#DejaVuSans-30" x="159.033203"/>
      </g>
     </g>
    </g>
    <g id="xtick_8">
     <g id="line2d_15">
      <path d="M 357.905455 307.584 
L 357.905455 41.472 
" clip-path="url(#p3aa2f2e5d6)" style="fill: none; stroke: #b0b0b0; stroke-width: 0.8; stroke-linecap: square"/>
     </g>
     <g id="line2d_16">
      <g>
       <use xlink:href="#m6d113c4a47" x="357.905455" y="307.584" style="stroke: #000000; stroke-width: 0.8"/>
      </g>
     </g>
     <g id="text_8">
      <!-- 17.5 -->
      <g transform="translate(346.772642 322.182437) scale(0.1 -0.1)">
       <use xlink:href="#DejaVuSans-31"/>
       <use xlink:href="#DejaVuSans-37" x="63.623047"/>
       <use xlink:href="#DejaVuSans-2e" x="127.246094"/>
       <use xlink:href="#DejaVuSans-35" x="159.033203"/>
      </g>
     </g>
    </g>
    <g id="xtick_9">
     <g id="line2d_17">
      <path d="M 398.487273 307.584 
L 398.487273 41.472 
" clip-path="url(#p3aa2f2e5d6)" style="fill: none; stroke: #b0b0b0; stroke-width: 0.8; stroke-linecap: square"/>
     </g>
     <g id="line2d_18">
      <g>
       <use xlink:href="#m6d113c4a47" x="398.487273" y="307.584" style="stroke: #000000; stroke-width: 0.8"/>
      </g>
     </g>
     <g id="text_9">
      <!-- 20.0 -->
      <g transform="translate(387.35446 322.182437) scale(0.1 -0.1)">
       <use xlink:href="#DejaVuSans-32"/>
       <use xlink:href="#DejaVuSans-30" x="63.623047"/>
       <use xlink:href="#DejaVuSans-2e" x="127.246094"/>
       <use xlink:href="#DejaVuSans-30" x="159.033203"/>
      </g>
     </g>
    </g>
    <g id="text_10">
     <!-- time (s) -->
     <g transform="translate(216.768594 335.860562) scale(0.1 -0.1)">
      <defs>
       <path id="DejaVuSans-74" d="M 1172 4494 
L 1172 3500 
L 2356 3500 
L 2356 3053 
L 1172 3053 
L 1172 1153 
Q 1172 725 1289 603 
Q 1406 481 1766 481 
L 2356 481 
L 2356 0 
L 1766 0 
Q 1100 0 847 248 
Q 594 497 594 1153 
L 594 3053 
L 172 3053 
L 172 3500 
L 594 3500 
L 594 4494 
L 1172 4494 
z
" transform="scale(0.015625)"/>
       <path id="DejaVuSans-69" d="M 603 3500 
L 1178 3500 
L 1178 0 
L 603 0 
L 603 3500 
z
M 603 4863 
L 1178 4863 
L 1178 4134 
L 603 4134 
L 603 4863 
z
" transform="scale(0.015625)"/>
       <path id="DejaVuSans-6d" d="M 3328 2828 
Q 3544 3216 3844 3400 
Q 4144 3584 4550 3584 
Q 5097 3584 5394 3201 
Q 5691 2819 5691 2113 
L 5691 0 
L 5113 0 
L 5113 2094 
Q 5113 2597 4934 2840 
Q 4756 3084 4391 3084 
Q 3944 3084 3684 2787 
Q 3425 2491 3425 1978 
L 3425 0 
L 2847 0 
L 2847 2094 
Q 2847 2600 2669 2842 
Q 2491 3084 2119 3084 
Q 1678 3084 1418 2786 
Q 1159 2488 1159 1978 
L 1159 0 
L 581 0 
L 581 3500 
L 1159 3500 
L 1159 2956 
Q 1356 3278 1631 3431 
Q 1906 3584 2284 3584 
Q 2666 3584 2933 3390 
Q 3200 3197 3328 2828 
z
" transform="scale(0.015625)"/>
       <path id="DejaVuSans-65" d="M 3597 1894 
L 3597 1613 
L 953 1613 
Q 991 1019 1311 708 
Q 1631 397 2203 397 
Q 2534 397 2845 478 
Q 3156 559 3463 722 
L 3463 178 
Q 3153 47 2828 -22 
Q 2503 -91 2169 -91 
Q 1331 -91 842 396 
Q 353 884 353 1716 
Q 353 2575 817 3079 
Q 1281 3584 2069 3584 
Q 2775 3584 3186 3129 
Q 3597 2675 3597 1894 
z
M 3022 2063 
Q 3016 2534 2758 2815 
Q 2500 3097 2075 3097 
Q 1594 3097 1305 2825 
Q 1016 2553 972 2059 
L 3022 2063 
z
" transform="scale(0.015625)"/>
       <path id="DejaVuSans-20" transform="scale(0.015625)"/>
       <path id="DejaVuSans-28" d="M 1984 4856 
Q 1566 4138 1362 3434 
Q 1159 2731 1159 2009 
Q 1159 1288 1364 580 
Q 1569 -128 1984 -844 
L 1484 -844 
Q 1016 -109 783 600 
Q 550 1309 550 2009 
Q 550 2706 781 3412 
Q 1013 4119 1484 4856 
L 1984 4856 
z
" transform="scale(0.015625)"/>
       <path id="DejaVuSans-73" d="M 2834 3397 
L 2834 2853 
Q 2591 2978 2328 3040 
Q 2066 3103 1784 3103 
Q 1356 3103 1142 2972 
Q 928 2841 928 2578 
Q 928 2378 1081 2264 
Q 1234 2150 1697 2047 
L 1894 2003 
Q 2506 1872 2764 1633 
Q 3022 1394 3022 966 
Q 3022 478 2636 193 
Q 2250 -91 1575 -91 
Q 1294 -91 989 -36 
Q 684 19 347 128 
L 347 722 
Q 666 556 975 473 
Q 1284 391 1588 391 
Q 1994 391 2212 530 
Q 2431 669 2431 922 
Q 2431 1156 2273 1281 
Q 2116 1406 1581 1522 
L 1381 1569 
Q 847 1681 609 1914 
Q 372 2147 372 2553 
Q 372 3047 722 3315 
Q 1072 3584 1716 3584 
Q 2034 3584 2315 3537 
Q 2597 3491 2834 3397 
z
" transform="scale(0.015625)"/>
       <path id="DejaVuSans-29" d="M 513 4856 
L 1013 4856 
Q 1481 4119 1714 3412 
Q 1947 2706 1947 2009 
Q 1947 1309 1714 600 
Q 1481 -109 1013 -844 
L 513 -844 
Q 928 -128 1133 580 
Q 1338 1288 1338 2009 
Q 1338 2731 1133 3434 
Q 928 4138 513 4856 
z
" transform="scale(0.015625)"/>
      </defs>
      <use xlink:href="#DejaVuSans-74"/>
      <use xlink:href="#DejaVuSans-69" x="39.208984"/>
      <use xlink:href="#DejaVuSans-6d" x="66.992188"/>
      <use xlink:href="#DejaVuSans-65" x="164.404297"/>
      <use xlink:href="#DejaVuSans-20" x="225.927734"/>
      <use xlink:href="#DejaVuSans-28" x="257.714844"/>
      <use xlink:href="#DejaVuSans-73" x="296.728516"/>
      <use xlink:href="#DejaVuSans-29" x="348.828125"/>
     </g>
    </g>
   </g>
   <g id="matplotlib.axis_2">
    <g id="ytick_1">
     <g id="line2d_19">
      <path d="M 57.6 276.98405 
L 414.72 276.98405 
" clip-path="url(#p3aa2f2e5d6)" style="fill: none; stroke: #b0b0b0; stroke-width: 0.8; stroke-linecap: square"/>
     </g>
     <g id="line2d_20">
      <defs>
       <path id="ma1c7584072" d="M 0 0 
L -3.5 0 
" style="stroke: #000000; stroke-width: 0.8"/>
      </defs>
      <g>
       <use xlink:href="#ma1c7584072" x="57.6" y="276.98405" style="stroke: #000000; stroke-width: 0.8"/>
      </g>
     </g>
     <g id="text_11">
      <!-- −0.25 -->
      <g transform="translate(19.954687 280.783269) scale(0.1 -0.1)">
       <defs>
        <path id="DejaVuSans-2212" d="M 678 2272 
L 4684 2272 
L 4684 1741 
L 678 1741 
L 678 2272 
z
" transform="scale(0.015625)"/>
       </defs>
       <use xlink:href="#DejaVuSans-2212"/>
       <use xlink:href="#DejaVuSans-30" x="83.789062"/>
       <use xlink:href="#DejaVuSans-2e" x="147.412109"/>
       <use xlink:href="#DejaVuSans-32" x="179.199219"/>
       <use xlink:href="#DejaVuSans-35" x="242.822266"/>
      </g>
     </g>
    </g>
    <g id="ytick_2">
     <g id="line2d_21">
      <path d="M 57.6 245.067472 
L 414.72 245.067472 
" clip-path="url(#p3aa2f2e5d6)" style="fill: none; stroke: #b0b0b0; stroke-width: 0.8; stroke-linecap: square"/>
     </g>
     <g id="line2d_22">
      <g>
       <use xlink:href="#ma1c7584072" x="57.6" y="245.067472" style="stroke: #000000; stroke-width: 0.8"/>
      </g>
     </g>
     <g id="text_12">
      <!-- 0.00 -->
      <g transform="translate(28.334375 248.86669) scale(0.1 -0.1)">
       <use xlink:href="#DejaVuSans-30"/>
       <use xlink:href="#DejaVuSans-2e" x="63.623047"/>
       <use xlink:href="#DejaVuSans-30" x="95.410156"/>
       <use xlink:href="#DejaVuSans-30" x="159.033203"/>
      </g>
     </g>
    </g>
    <g id="ytick_3">
     <g id="line2d_23">
      <path d="M 57.6 213.150893 
L 414.72 213.150893 
" clip-path="url(#p3aa2f2e5d6)" style="fill: none; stroke: #b0b0b0; stroke-width: 0.8; stroke-linecap: square"/>
     </g>
     <g id="line2d_24">
      <g>
       <use xlink:href="#ma1c7584072" x="57.6" y="213.150893" style="stroke: #000000; stroke-width: 0.8"/>
      </g>
     </g>
     <g id="text_13">
      <!-- 0.25 -->
      <g transform="translate(28.334375 216.950112) scale(0.1 -0.1)">
       <use xlink:href="#DejaVuSans-30"/>
       <use xlink:href="#DejaVuSans-2e" x="63.623047"/>
       <use xlink:href="#DejaVuSans-32" x="95.410156"/>
       <use xlink:href="#DejaVuSans-35" x="159.033203"/>
      </g>
     </g>
    </g>
    <g id="ytick_4">
     <g id="line2d_25">
      <path d="M 57.6 181.234314 
L 414.72 181.234314 
" clip-path="url(#p3aa2f2e5d6)" style="fill: none; stroke: #b0b0b0; stroke-width: 0.8; stroke-linecap: square"/>
     </g>
     <g id="line2d_26">
      <g>
       <use xlink:href="#ma1c7584072" x="57.6" y="181.234314" style="stroke: #000000; stroke-width: 0.8"/>
      </g>
     </g>
     <g id="text_14">
      <!-- 0.50 -->
      <g transform="translate(28.334375 185.033533) scale(0.1 -0.1)">
       <use xlink:href="#DejaVuSans-30"/>
       <use xlink:href="#DejaVuSans-2e" x="63.623047"/>
       <use xlink:href="#DejaVuSans-35" x="95.410156"/>
       <use xlink:href="#DejaVuSans-30" x="159.033203"/>
      </g>
     </g>
    </g>
    <g id="ytick_5">
     <g id="line2d_27">
      <path d="M 57.6 149.317736 
L 414.72 149.317736 
" clip-path="url(#p3aa2f2e5d6)" style="fill: none; stroke: #b0b0b0; stroke-width: 0.8; stroke-linecap: square"/>
     </g>
     <g id="line2d_28">
      <g>
       <use xlink:href="#ma1c7584072" x="57.6" y="149.317736" style="stroke: #000000; stroke-width: 0.8"/>
      </g>
     </g>
     <g id="text_15">
      <!-- 0.75 -->
      <g transform="translate(28.334375 153.116955) scale(0.1 -0.1)">
       <use xlink:href="#DejaVuSans-30"/>
       <use xlink:href="#DejaVuSans-2e" x="63.623047"/>
       <use xlink:href="#DejaVuSans-37" x="95.410156"/>
       <use xlink:href="#DejaVuSans-35" x="159.033203"/>
      </g>
     </g>
    </g>
    <g id="ytick_6">
     <g id="line2d_29">
      <path d="M 57.6 117.401157 
L 414.72 117.401157 
" clip-path="url(#p3aa2f2e5d6)" style="fill: none; stroke: #b0b0b0; stroke-width: 0.8; stroke-linecap: square"/>
     </g>
     <g id="line2d_30">
      <g>
       <use xlink:href="#ma1c7584072" x="57.6" y="117.401157" style="stroke: #000000; stroke-width: 0.8"/>
      </g>
     </g>
     <g id="text_16">
      <!-- 1.00 -->
      <g transform="translate(28.334375 121.200376) scale(0.1 -0.1)">
       <use xlink:href="#DejaVuSans-31"/>
       <use xlink:href="#DejaVuSans-2e" x="63.623047"/>
       <use xlink:href="#DejaVuSans-30" x="95.410156"/>
       <use xlink:href="#DejaVuSans-30" x="159.033203"/>
      </g>
     </g>
    </g>
    <g id="ytick_7">
     <g id="line2d_31">
      <path d="M 57.6 85.484579 
L 414.72 85.484579 
" clip-path="url(#p3aa2f2e5d6)" style="fill: none; stroke: #b0b0b0; stroke-width: 0.8; stroke-linecap: square"/>
     </g>
     <g id="line2d_32">
      <g>
       <use xlink:href="#ma1c7584072" x="57.6" y="85.484579" style="stroke: #000000; stroke-width: 0.8"/>
      </g>
     </g>
     <g id="text_17">
      <!-- 1.25 -->
      <g transform="translate(28.334375 89.283797) scale(0.1 -0.1)">
       <use xlink:href="#DejaVuSans-31"/>
       <use xlink:href="#DejaVuSans-2e" x="63.623047"/>
       <use xlink:href="#DejaVuSans-32" x="95.410156"/>
       <use xlink:href="#DejaVuSans-35" x="159.033203"/>
      </g>
     </g>
    </g>
    <g id="ytick_8">
     <g id="line2d_33">
      <path d="M 57.6 53.568 
L 414.72 53.568 
" clip-path="url(#p3aa2f2e5d6)" style="fill: none; stroke: #b0b0b0; stroke-width: 0.8; stroke-linecap: square"/>
     </g>
     <g id="line2d_34">
      <g>
       <use xlink:href="#ma1c7584072" x="57.6" y="53.568" style="stroke: #000000; stroke-width: 0.8"/>
      </g>
     </g>
     <g id="text_18">
      <!-- 1.50 -->
      <g transform="translate(28.334375 57.367219) scale(0.1 -0.1)">
       <use xlink:href="#DejaVuSans-31"/>
       <use xlink:href="#DejaVuSans-2e" x="63.623047"/>
       <use xlink:href="#DejaVuSans-35" x="95.410156"/>
       <use xlink:href="#DejaVuSans-30" x="159.033203"/>
      </g>
     </g>
    </g>
    <g id="text_19">
     <!-- State -->
     <g transform="translate(13.875 187.763156) rotate(-90) scale(0.1 -0.1)">
      <defs>
       <path id="DejaVuSans-53" d="M 3425 4513 
L 3425 3897 
Q 3066 4069 2747 4153 
Q 2428 4238 2131 4238 
Q 1616 4238 1336 4038 
Q 1056 3838 1056 3469 
Q 1056 3159 1242 3001 
Q 1428 2844 1947 2747 
L 2328 2669 
Q 3034 2534 3370 2195 
Q 3706 1856 3706 1288 
Q 3706 609 3251 259 
Q 2797 -91 1919 -91 
Q 1588 -91 1214 -16 
Q 841 59 441 206 
L 441 856 
Q 825 641 1194 531 
Q 1563 422 1919 422 
Q 2459 422 2753 634 
Q 3047 847 3047 1241 
Q 3047 1584 2836 1778 
Q 2625 1972 2144 2069 
L 1759 2144 
Q 1053 2284 737 2584 
Q 422 2884 422 3419 
Q 422 4038 858 4394 
Q 1294 4750 2059 4750 
Q 2388 4750 2728 4690 
Q 3069 4631 3425 4513 
z
" transform="scale(0.015625)"/>
       <path id="DejaVuSans-61" d="M 2194 1759 
Q 1497 1759 1228 1600 
Q 959 1441 959 1056 
Q 959 750 1161 570 
Q 1363 391 1709 391 
Q 2188 391 2477 730 
Q 2766 1069 2766 1631 
L 2766 1759 
L 2194 1759 
z
M 3341 1997 
L 3341 0 
L 2766 0 
L 2766 531 
Q 2569 213 2275 61 
Q 1981 -91 1556 -91 
Q 1019 -91 701 211 
Q 384 513 384 1019 
Q 384 1609 779 1909 
Q 1175 2209 1959 2209 
L 2766 2209 
L 2766 2266 
Q 2766 2663 2505 2880 
Q 2244 3097 1772 3097 
Q 1472 3097 1187 3025 
Q 903 2953 641 2809 
L 641 3341 
Q 956 3463 1253 3523 
Q 1550 3584 1831 3584 
Q 2591 3584 2966 3190 
Q 3341 2797 3341 1997 
z
" transform="scale(0.015625)"/>
      </defs>
      <use xlink:href="#DejaVuSans-53"/>
      <use xlink:href="#DejaVuSans-74" x="63.476562"/>
      <use xlink:href="#DejaVuSans-61" x="102.685547"/>
      <use xlink:href="#DejaVuSans-74" x="163.964844"/>
      <use xlink:href="#DejaVuSans-65" x="203.173828"/>
     </g>
    </g>
   </g>
   <g id="line2d_35">
    <path d="M 73.832727 245.067472 
L 75.959215 244.956576 
L 77.160436 244.662746 
L 78.345425 244.131128 
L 79.790138 243.225127 
L 81.916625 241.597981 
L 86.234531 238.266057 
L 88.864233 236.571904 
L 93.750284 233.496867 
L 95.568349 232.022658 
L 97.272785 230.350119 
L 99.042153 228.29234 
L 101.038778 225.611546 
L 103.717178 221.605071 
L 109.447331 212.952852 
L 112.352989 209.052028 
L 122.725702 195.553485 
L 131.004393 183.928898 
L 134.137309 180.073388 
L 138.909731 174.614873 
L 150.288873 161.893297 
L 153.584116 158.70586 
L 157.902022 154.869279 
L 165.109353 148.775673 
L 168.924044 145.830133 
L 172.543942 143.321957 
L 177.283898 140.331033 
L 183.046516 136.941273 
L 187.169629 134.765209 
L 191.422604 132.782596 
L 197.022895 130.432411 
L 202.298531 128.44057 
L 207.006022 126.904675 
L 212.866036 125.24441 
L 218.937076 123.742175 
L 224.650996 122.563838 
L 231.696 121.34547 
L 238.546211 120.377124 
L 246.500247 119.493827 
L 254.957498 118.769037 
L 265.297745 118.13396 
L 276.287302 117.685471 
L 289.971491 117.35692 
L 307.535302 117.178653 
L 333.605062 117.149123 
L 398.487273 117.386581 
L 398.487273 117.386581 
" clip-path="url(#p3aa2f2e5d6)" style="fill: none; stroke: #ff0000; stroke-width: 1.5; stroke-linecap: square"/>
   </g>
   <g id="line2d_36">
    <path d="M 73.832727 53.568 
L 75.212509 53.676596 
L 76.024145 53.973327 
L 76.835782 54.524 
L 77.825978 55.480578 
L 79.092131 57.032578 
L 80.8128 59.522923 
L 83.458735 63.789558 
L 93.84768 80.859351 
L 98.149353 87.354713 
L 102.321164 93.254755 
L 106.606604 98.932681 
L 110.875811 104.225031 
L 115.291113 109.335768 
L 119.73888 114.14684 
L 124.284044 118.733764 
L 128.84544 123.021714 
L 133.439302 127.036751 
L 138.30912 130.988078 
L 143.341265 134.779587 
L 148.194851 138.16745 
L 153.243229 141.422634 
L 158.583796 144.603685 
L 163.8432 147.469324 
L 169.686982 150.39851 
L 175.433367 153.018778 
L 181.553105 155.564526 
L 188.240989 158.100108 
L 194.961338 160.413144 
L 201.925178 162.572842 
L 209.327302 164.635874 
L 216.989149 166.538541 
L 225.170444 168.339095 
L 233.773789 170.002844 
L 243.010211 171.559779 
L 252.863476 172.992553 
L 263.512145 174.313886 
L 275.102313 175.524314 
L 287.796305 176.622314 
L 301.837615 177.609324 
L 317.534662 178.485742 
L 335.390662 179.254865 
L 356.022458 179.914425 
L 380.387782 180.464272 
L 398.487273 180.757071 
L 398.487273 180.757071 
" clip-path="url(#p3aa2f2e5d6)" style="fill: none; stroke: #0000ff; stroke-width: 1.5; stroke-linecap: square"/>
   </g>
   <g id="line2d_37">
    <path d="M 73.832727 245.067472 
L 74.449571 244.961424 
L 74.806691 244.654784 
L 75.163811 244.026704 
L 75.553396 242.849769 
L 75.99168 240.755484 
L 76.478662 237.271858 
L 77.030575 231.591492 
L 77.663651 222.579723 
L 78.475287 207.579265 
L 79.56288 182.975117 
L 83.815855 82.031311 
L 84.676189 68.753468 
L 85.357964 61.322824 
L 85.893644 57.582566 
L 86.299462 56.034148 
L 86.591651 55.618463 
L 86.770211 55.654352 
L 86.981236 55.980579 
L 87.273425 56.93877 
L 87.663011 59.123233 
L 88.149993 63.282478 
L 88.750604 70.510765 
L 89.481076 82.198162 
L 90.390109 100.617068 
L 91.575098 129.587565 
L 93.84768 192.121262 
L 95.519651 234.914285 
L 96.639709 258.235079 
L 97.532509 272.55464 
L 98.279215 281.225561 
L 98.879825 285.901524 
L 99.366807 288.172739 
L 99.723927 288.979886 
L 99.967418 289.121394 
L 100.178444 288.982614 
L 100.438167 288.485375 
L 100.795287 287.232297 
L 101.249804 284.732084 
L 101.834182 280.149287 
L 102.580887 272.354026 
L 103.571084 259.441627 
L 105.389149 232.100604 
L 106.947491 210.135508 
L 107.921455 199.296654 
L 108.684393 193.057527 
L 109.285004 189.752071 
L 109.755753 188.218903 
L 110.112873 187.693023 
L 110.356364 187.652429 
L 110.583622 187.845981 
L 110.875811 188.421164 
L 111.265396 189.750177 
L 111.752378 192.286347 
L 112.369222 196.812538 
L 113.13216 204.225804 
L 114.106124 216.051192 
L 115.583302 237.071427 
L 117.872116 269.363117 
L 118.943476 281.326711 
L 119.771345 288.303066 
L 120.45312 292.338059 
L 121.005033 294.407617 
L 121.427084 295.259132 
L 121.751738 295.485524 
L 122.011462 295.404513 
L 122.303651 295.040785 
L 122.677004 294.171147 
L 123.147753 292.462479 
L 123.748364 289.380319 
L 124.527535 284.103809 
L 125.598895 275.160292 
L 128.829207 247.15512 
L 129.689542 242.015208 
L 130.371316 239.171454 
L 130.906996 237.779678 
L 131.329047 237.222456 
L 131.653702 237.118349 
L 131.945891 237.264649 
L 132.286778 237.719403 
L 132.708829 238.697575 
L 133.244509 240.563946 
L 133.910051 243.764101 
L 134.770385 249.102424 
L 136.004073 258.326827 
L 138.568844 277.742549 
L 139.526575 283.194124 
L 140.27328 286.278121 
L 140.873891 287.914779 
L 141.360873 288.664146 
L 141.734225 288.884475 
L 142.05888 288.832031 
L 142.399767 288.536563 
L 142.821818 287.844194 
L 143.341265 286.527329 
L 144.006807 284.17229 
L 144.867142 280.232851 
L 146.198225 272.942403 
L 148.211084 262.06601 
L 149.152582 258.164764 
L 149.899287 255.94366 
L 150.499898 254.796735 
L 150.98688 254.306632 
L 151.376465 254.19981 
L 151.749818 254.337115 
L 152.155636 254.743496 
L 152.658851 255.597355 
L 153.291927 257.157127 
L 154.087331 259.762799 
L 155.239855 264.386212 
L 157.690996 274.360205 
L 158.583796 277.006517 
L 159.281804 278.449029 
L 159.849949 279.167512 
L 160.320698 279.434368 
L 160.742749 279.422393 
L 161.1648 279.176672 
L 161.651782 278.616133 
L 162.252393 277.545696 
L 162.999098 275.713377 
L 164.005527 272.59108 
L 167.430633 261.453398 
L 168.242269 259.768994 
L 168.907811 258.857732 
L 169.459724 258.446476 
L 169.946705 258.341177 
L 170.433687 258.465921 
L 170.936902 258.83557 
L 171.537513 259.56988 
L 172.332916 260.921293 
L 173.452975 263.314988 
L 175.725556 268.270147 
L 176.585891 269.598914 
L 177.267665 270.278216 
L 177.868276 270.585907 
L 178.403956 270.620481 
L 178.939636 270.423686 
L 179.524015 269.961262 
L 180.222022 269.099426 
L 181.098589 267.62482 
L 182.380975 264.972 
L 184.55616 260.475336 
L 185.530124 258.977514 
L 186.309295 258.153081 
L 187.007302 257.725729 
L 187.624145 257.604662 
L 188.257222 257.713211 
L 188.955229 258.068733 
L 189.815564 258.774977 
L 191.081716 260.139131 
L 193.094575 262.286548 
L 194.01984 262.94138 
L 194.766545 263.212536 
L 195.497018 263.250377 
L 196.195025 263.06152 
L 196.974196 262.606216 
L 197.866996 261.807212 
L 199.051985 260.423261 
L 202.038807 256.794427 
L 203.061469 255.966656 
L 203.905571 255.553601 
L 204.765905 255.378749 
L 205.561309 255.442903 
L 206.486575 255.749424 
L 207.850124 256.467027 
L 209.846749 257.492856 
L 210.853178 257.750731 
L 211.87584 257.787165 
L 212.784873 257.594921 
L 213.872465 257.103547 
L 215.106153 256.276591 
L 219.1968 253.356996 
L 220.349324 252.949352 
L 221.323287 252.81443 
L 222.459578 252.892734 
L 224.310109 253.286115 
L 226.566458 253.684319 
L 227.962473 253.741532 
L 229.082531 253.565424 
L 230.592175 253.072807 
L 232.572567 252.139142 
L 234.958778 251.081083 
L 236.435956 250.674752 
L 237.799505 250.558612 
L 240.072087 250.632878 
L 242.328436 250.832916 
L 244.146502 250.884508 
L 245.477585 250.696468 
L 247.880029 250.023093 
L 251.223971 249.019105 
L 253.106967 248.710738 
L 254.665309 248.726104 
L 259.161775 248.917833 
L 260.996073 248.626411 
L 267.732655 247.571833 
L 273.527738 247.383356 
L 275.589295 247.218125 
L 281.449309 246.883048 
L 284.939345 246.486528 
L 287.244393 246.589318 
L 290.653265 246.721345 
L 292.617425 246.551554 
L 294.743913 246.133173 
L 296.886633 245.731967 
L 298.396276 245.723605 
L 300.246807 245.94972 
L 304.093964 246.474132 
L 305.879564 246.388089 
L 307.730095 246.071461 
L 310.651985 245.303554 
L 312.567447 244.905421 
L 313.719971 244.925144 
L 315.343244 245.217058 
L 317.891782 245.58493 
L 319.774778 245.629102 
L 321.722705 245.447667 
L 325.034182 245.086576 
L 326.592524 245.252927 
L 328.361891 245.431349 
L 330.098793 245.379295 
L 332.907055 245.233954 
L 338.718371 245.348551 
L 343.003811 245.482744 
L 346.266589 245.466026 
L 349.642996 245.202786 
L 354.334255 244.844712 
L 357.174982 244.881792 
L 366.167913 245.209918 
L 375.582895 244.82826 
L 384.884247 245.182575 
L 394.071971 244.837832 
L 398.487273 245.13915 
L 398.487273 245.13915 
" clip-path="url(#p3aa2f2e5d6)" style="fill: none; stroke: #008000; stroke-width: 1.5; stroke-linecap: square"/>
   </g>
   <g id="patch_3">
    <path d="M 57.6 307.584 
L 57.6 41.472 
" style="fill: none; stroke: #000000; stroke-width: 0.8; stroke-linejoin: miter; stroke-linecap: square"/>
   </g>
   <g id="patch_4">
    <path d="M 414.72 307.584 
L 414.72 41.472 
" style="fill: none; stroke: #000000; stroke-width: 0.8; stroke-linejoin: miter; stroke-linecap: square"/>
   </g>
   <g id="patch_5">
    <path d="M 57.6 307.584 
L 414.72 307.584 
" style="fill: none; stroke: #000000; stroke-width: 0.8; stroke-linejoin: miter; stroke-linecap: square"/>
   </g>
   <g id="patch_6">
    <path d="M 57.6 41.472 
L 414.72 41.472 
" style="fill: none; stroke: #000000; stroke-width: 0.8; stroke-linejoin: miter; stroke-linecap: square"/>
   </g>
   <g id="text_20">
    <!-- State vs time -->
    <g transform="translate(196.231875 35.472) scale(0.12 -0.12)">
     <defs>
      <path id="DejaVuSans-76" d="M 191 3500 
L 800 3500 
L 1894 563 
L 2988 3500 
L 3597 3500 
L 2284 0 
L 1503 0 
L 191 3500 
z
" transform="scale(0.015625)"/>
     </defs>
     <use xlink:href="#DejaVuSans-53"/>
     <use xlink:href="#DejaVuSans-74" x="63.476562"/>
     <use xlink:href="#DejaVuSans-61" x="102.685547"/>
     <use xlink:href="#DejaVuSans-74" x="163.964844"/>
     <use xlink:href="#DejaVuSans-65" x="203.173828"/>
     <use xlink:href="#DejaVuSans-20" x="264.697266"/>
     <use xlink:href="#DejaVuSans-76" x="296.484375"/>
     <use xlink:href="#DejaVuSans-73" x="355.664062"/>
     <use xlink:href="#DejaVuSans-20" x="407.763672"/>
     <use xlink:href="#DejaVuSans-74" x="439.550781"/>
     <use xlink:href="#DejaVuSans-69" x="478.759766"/>
     <use xlink:href="#DejaVuSans-6d" x="506.542969"/>
     <use xlink:href="#DejaVuSans-65" x="603.955078"/>
    </g>
   </g>
   <g id="legend_1">
    <g id="patch_7">
     <path d="M 303.237188 93.506375 
L 407.72 93.506375 
Q 409.72 93.506375 409.72 91.506375 
L 409.72 48.472 
Q 409.72 46.472 407.72 46.472 
L 303.237188 46.472 
Q 301.237188 46.472 301.237188 48.472 
L 301.237188 91.506375 
Q 301.237188 93.506375 303.237188 93.506375 
z
" style="fill: #ffffff; opacity: 0.8; stroke: #cccccc; stroke-linejoin: miter"/>
    </g>
    <g id="line2d_38">
     <path d="M 305.237188 54.570438 
L 315.237188 54.570438 
L 325.237188 54.570438 
" style="fill: none; stroke: #ff0000; stroke-width: 1.5; stroke-linecap: square"/>
    </g>
    <g id="text_21">
     <!-- x (m) -->
     <g transform="translate(333.237188 58.070438) scale(0.1 -0.1)">
      <defs>
       <path id="DejaVuSans-78" d="M 3513 3500 
L 2247 1797 
L 3578 0 
L 2900 0 
L 1881 1375 
L 863 0 
L 184 0 
L 1544 1831 
L 300 3500 
L 978 3500 
L 1906 2253 
L 2834 3500 
L 3513 3500 
z
" transform="scale(0.015625)"/>
      </defs>
      <use xlink:href="#DejaVuSans-78"/>
      <use xlink:href="#DejaVuSans-20" x="59.179688"/>
      <use xlink:href="#DejaVuSans-28" x="90.966797"/>
      <use xlink:href="#DejaVuSans-6d" x="129.980469"/>
      <use xlink:href="#DejaVuSans-29" x="227.392578"/>
     </g>
    </g>
    <g id="line2d_39">
     <path d="M 305.237188 69.248563 
L 315.237188 69.248563 
L 325.237188 69.248563 
" style="fill: none; stroke: #0000ff; stroke-width: 1.5; stroke-linecap: square"/>
    </g>
    <g id="text_22">
     <!-- l (m) -->
     <g transform="translate(333.237188 72.748563) scale(0.1 -0.1)">
      <defs>
       <path id="DejaVuSans-6c" d="M 603 4863 
L 1178 4863 
L 1178 0 
L 603 0 
L 603 4863 
z
" transform="scale(0.015625)"/>
      </defs>
      <use xlink:href="#DejaVuSans-6c"/>
      <use xlink:href="#DejaVuSans-20" x="27.783203"/>
      <use xlink:href="#DejaVuSans-28" x="59.570312"/>
      <use xlink:href="#DejaVuSans-6d" x="98.583984"/>
      <use xlink:href="#DejaVuSans-29" x="195.996094"/>
     </g>
    </g>
    <g id="line2d_40">
     <path d="M 305.237188 83.926688 
L 315.237188 83.926688 
L 325.237188 83.926688 
" style="fill: none; stroke: #008000; stroke-width: 1.5; stroke-linecap: square"/>
    </g>
    <g id="text_23">
     <!-- theta (degree) -->
     <g transform="translate(333.237188 87.426688) scale(0.1 -0.1)">
      <defs>
       <path id="DejaVuSans-68" d="M 3513 2113 
L 3513 0 
L 2938 0 
L 2938 2094 
Q 2938 2591 2744 2837 
Q 2550 3084 2163 3084 
Q 1697 3084 1428 2787 
Q 1159 2491 1159 1978 
L 1159 0 
L 581 0 
L 581 4863 
L 1159 4863 
L 1159 2956 
Q 1366 3272 1645 3428 
Q 1925 3584 2291 3584 
Q 2894 3584 3203 3211 
Q 3513 2838 3513 2113 
z
" transform="scale(0.015625)"/>
       <path id="DejaVuSans-64" d="M 2906 2969 
L 2906 4863 
L 3481 4863 
L 3481 0 
L 2906 0 
L 2906 525 
Q 2725 213 2448 61 
Q 2172 -91 1784 -91 
Q 1150 -91 751 415 
Q 353 922 353 1747 
Q 353 2572 751 3078 
Q 1150 3584 1784 3584 
Q 2172 3584 2448 3432 
Q 2725 3281 2906 2969 
z
M 947 1747 
Q 947 1113 1208 752 
Q 1469 391 1925 391 
Q 2381 391 2643 752 
Q 2906 1113 2906 1747 
Q 2906 2381 2643 2742 
Q 2381 3103 1925 3103 
Q 1469 3103 1208 2742 
Q 947 2381 947 1747 
z
" transform="scale(0.015625)"/>
       <path id="DejaVuSans-67" d="M 2906 1791 
Q 2906 2416 2648 2759 
Q 2391 3103 1925 3103 
Q 1463 3103 1205 2759 
Q 947 2416 947 1791 
Q 947 1169 1205 825 
Q 1463 481 1925 481 
Q 2391 481 2648 825 
Q 2906 1169 2906 1791 
z
M 3481 434 
Q 3481 -459 3084 -895 
Q 2688 -1331 1869 -1331 
Q 1566 -1331 1297 -1286 
Q 1028 -1241 775 -1147 
L 775 -588 
Q 1028 -725 1275 -790 
Q 1522 -856 1778 -856 
Q 2344 -856 2625 -561 
Q 2906 -266 2906 331 
L 2906 616 
Q 2728 306 2450 153 
Q 2172 0 1784 0 
Q 1141 0 747 490 
Q 353 981 353 1791 
Q 353 2603 747 3093 
Q 1141 3584 1784 3584 
Q 2172 3584 2450 3431 
Q 2728 3278 2906 2969 
L 2906 3500 
L 3481 3500 
L 3481 434 
z
" transform="scale(0.015625)"/>
       <path id="DejaVuSans-72" d="M 2631 2963 
Q 2534 3019 2420 3045 
Q 2306 3072 2169 3072 
Q 1681 3072 1420 2755 
Q 1159 2438 1159 1844 
L 1159 0 
L 581 0 
L 581 3500 
L 1159 3500 
L 1159 2956 
Q 1341 3275 1631 3429 
Q 1922 3584 2338 3584 
Q 2397 3584 2469 3576 
Q 2541 3569 2628 3553 
L 2631 2963 
z
" transform="scale(0.015625)"/>
      </defs>
      <use xlink:href="#DejaVuSans-74"/>
      <use xlink:href="#DejaVuSans-68" x="39.208984"/>
      <use xlink:href="#DejaVuSans-65" x="102.587891"/>
      <use xlink:href="#DejaVuSans-74" x="164.111328"/>
      <use xlink:href="#DejaVuSans-61" x="203.320312"/>
      <use xlink:href="#DejaVuSans-20" x="264.599609"/>
      <use xlink:href="#DejaVuSans-28" x="296.386719"/>
      <use xlink:href="#DejaVuSans-64" x="335.400391"/>
      <use xlink:href="#DejaVuSans-65" x="398.876953"/>
      <use xlink:href="#DejaVuSans-67" x="460.400391"/>
      <use xlink:href="#DejaVuSans-72" x="523.876953"/>
      <use xlink:href="#DejaVuSans-65" x="562.740234"/>
      <use xlink:href="#DejaVuSans-65" x="624.263672"/>
      <use xlink:href="#DejaVuSans-29" x="685.787109"/>
     </g>
    </g>
   </g>
  </g>
 </g>
 <defs>
  <clipPath id="p3aa2f2e5d6">
   <rect x="57.6" y="41.472" width="357.12" height="266.112"/>
  </clipPath>
 </defs>
</svg>
