<?xml version="1.0" encoding="utf-8" standalone="no"?>
<!DOCTYPE svg PUBLIC "-//W3C//DTD SVG 1.1//EN"
  "http://www.w3.org/Graphics/SVG/1.1/DTD/svg11.dtd">
<svg xmlns:xlink="http://www.w3.org/1999/xlink" width="460.8pt" height="345.6pt" viewBox="0 0 460.8 345.6" xmlns="http://www.w3.org/2000/svg" version="1.1">
 <metadata>
  <rdf:RDF xmlns:dc="http://purl.org/dc/elements/1.1/" xmlns:cc="http://creativecommons.org/ns#" xmlns:rdf="http://www.w3.org/1999/02/22-rdf-syntax-ns#">
   <cc:Work>
    <dc:type rdf:resource="http://purl.org/dc/dcmitype/StillImage"/>
    <dc:date>2023-06-29T17:22:37.682373</dc:date>
    <dc:format>image/svg+xml</dc:format>
    <dc:creator>
     <cc:Agent>
      <dc:title>Matplotlib v3.7.1, https://matplotlib.org/</dc:title>
     </cc:Agent>
    </dc:creator>
   </cc:Work>
  </rdf:RDF>
 </metadata>
 <defs>
  <style type="text/css">*{stroke-linejoin: round; stroke-linecap: butt}</style>
 </defs>
 <g id="figure_1">
  <g id="patch_1">
   <path d="M 0 345.6 
L 460.8 345.6 
L 460.8 0 
L 0 0 
L 0 345.6 
z
" style="fill: none"/>
  </g>
  <g id="axes_1">
   <g id="patch_2">
    <path d="M 57.6 307.584 
L 414.72 307.584 
L 414.72 41.472 
L 57.6 41.472 
L 57.6 307.584 
z
" style="fill: none"/>
   </g>
   <g id="matplotlib.axis_1">
    <g id="xtick_1">
     <g id="line2d_1">
      <path d="M 73.832727 307.584 
L 73.832727 41.472 
" clip-path="url(#pdafb3e6dda)" style="fill: none; stroke: #b0b0b0; stroke-width: 0.8; stroke-linecap: square"/>
     </g>
     <g id="line2d_2">
      <defs>
       <path id="m15a3d394c9" d="M 0 0 
L 0 3.5 
" style="stroke: #000000; stroke-width: 0.8"/>
      </defs>
      <g>
       <use xlink:href="#m15a3d394c9" x="73.832727" y="307.584" style="stroke: #000000; stroke-width: 0.8"/>
      </g>
     </g>
     <g id="text_1">
      <!-- 0.0 -->
      <g transform="translate(65.881165 322.182437) scale(0.1 -0.1)">
       <defs>
        <path id="DejaVuSans-30" d="M 2034 4250 
Q 1547 4250 1301 3770 
Q 1056 3291 1056 2328 
Q 1056 1369 1301 889 
Q 1547 409 2034 409 
Q 2525 409 2770 889 
Q 3016 1369 3016 2328 
Q 3016 3291 2770 3770 
Q 2525 4250 2034 4250 
z
M 2034 4750 
Q 2819 4750 3233 4129 
Q 3647 3509 3647 2328 
Q 3647 1150 3233 529 
Q 2819 -91 2034 -91 
Q 1250 -91 836 529 
Q 422 1150 422 2328 
Q 422 3509 836 4129 
Q 1250 4750 2034 4750 
z
" transform="scale(0.015625)"/>
        <path id="DejaVuSans-2e" d="M 684 794 
L 1344 794 
L 1344 0 
L 684 0 
L 684 794 
z
" transform="scale(0.015625)"/>
       </defs>
       <use xlink:href="#DejaVuSans-30"/>
       <use xlink:href="#DejaVuSans-2e" x="63.623047"/>
       <use xlink:href="#DejaVuSans-30" x="95.410156"/>
      </g>
     </g>
    </g>
    <g id="xtick_2">
     <g id="line2d_3">
      <path d="M 114.414545 307.584 
L 114.414545 41.472 
" clip-path="url(#pdafb3e6dda)" style="fill: none; stroke: #b0b0b0; stroke-width: 0.8; stroke-linecap: square"/>
     </g>
     <g id="line2d_4">
      <g>
       <use xlink:href="#m15a3d394c9" x="114.414545" y="307.584" style="stroke: #000000; stroke-width: 0.8"/>
      </g>
     </g>
     <g id="text_2">
      <!-- 2.5 -->
      <g transform="translate(106.462983 322.182437) scale(0.1 -0.1)">
       <defs>
        <path id="DejaVuSans-32" d="M 1228 531 
L 3431 531 
L 3431 0 
L 469 0 
L 469 531 
Q 828 903 1448 1529 
Q 2069 2156 2228 2338 
Q 2531 2678 2651 2914 
Q 2772 3150 2772 3378 
Q 2772 3750 2511 3984 
Q 2250 4219 1831 4219 
Q 1534 4219 1204 4116 
Q 875 4013 500 3803 
L 500 4441 
Q 881 4594 1212 4672 
Q 1544 4750 1819 4750 
Q 2544 4750 2975 4387 
Q 3406 4025 3406 3419 
Q 3406 3131 3298 2873 
Q 3191 2616 2906 2266 
Q 2828 2175 2409 1742 
Q 1991 1309 1228 531 
z
" transform="scale(0.015625)"/>
        <path id="DejaVuSans-35" d="M 691 4666 
L 3169 4666 
L 3169 4134 
L 1269 4134 
L 1269 2991 
Q 1406 3038 1543 3061 
Q 1681 3084 1819 3084 
Q 2600 3084 3056 2656 
Q 3513 2228 3513 1497 
Q 3513 744 3044 326 
Q 2575 -91 1722 -91 
Q 1428 -91 1123 -41 
Q 819 9 494 109 
L 494 744 
Q 775 591 1075 516 
Q 1375 441 1709 441 
Q 2250 441 2565 725 
Q 2881 1009 2881 1497 
Q 2881 1984 2565 2268 
Q 2250 2553 1709 2553 
Q 1456 2553 1204 2497 
Q 953 2441 691 2322 
L 691 4666 
z
" transform="scale(0.015625)"/>
       </defs>
       <use xlink:href="#DejaVuSans-32"/>
       <use xlink:href="#DejaVuSans-2e" x="63.623047"/>
       <use xlink:href="#DejaVuSans-35" x="95.410156"/>
      </g>
     </g>
    </g>
    <g id="xtick_3">
     <g id="line2d_5">
      <path d="M 154.996364 307.584 
L 154.996364 41.472 
" clip-path="url(#pdafb3e6dda)" style="fill: none; stroke: #b0b0b0; stroke-width: 0.8; stroke-linecap: square"/>
     </g>
     <g id="line2d_6">
      <g>
       <use xlink:href="#m15a3d394c9" x="154.996364" y="307.584" style="stroke: #000000; stroke-width: 0.8"/>
      </g>
     </g>
     <g id="text_3">
      <!-- 5.0 -->
      <g transform="translate(147.044801 322.182437) scale(0.1 -0.1)">
       <use xlink:href="#DejaVuSans-35"/>
       <use xlink:href="#DejaVuSans-2e" x="63.623047"/>
       <use xlink:href="#DejaVuSans-30" x="95.410156"/>
      </g>
     </g>
    </g>
    <g id="xtick_4">
     <g id="line2d_7">
      <path d="M 195.578182 307.584 
L 195.578182 41.472 
" clip-path="url(#pdafb3e6dda)" style="fill: none; stroke: #b0b0b0; stroke-width: 0.8; stroke-linecap: square"/>
     </g>
     <g id="line2d_8">
      <g>
       <use xlink:href="#m15a3d394c9" x="195.578182" y="307.584" style="stroke: #000000; stroke-width: 0.8"/>
      </g>
     </g>
     <g id="text_4">
      <!-- 7.5 -->
      <g transform="translate(187.626619 322.182437) scale(0.1 -0.1)">
       <defs>
        <path id="DejaVuSans-37" d="M 525 4666 
L 3525 4666 
L 3525 4397 
L 1831 0 
L 1172 0 
L 2766 4134 
L 525 4134 
L 525 4666 
z
" transform="scale(0.015625)"/>
       </defs>
       <use xlink:href="#DejaVuSans-37"/>
       <use xlink:href="#DejaVuSans-2e" x="63.623047"/>
       <use xlink:href="#DejaVuSans-35" x="95.410156"/>
      </g>
     </g>
    </g>
    <g id="xtick_5">
     <g id="line2d_9">
      <path d="M 236.16 307.584 
L 236.16 41.472 
" clip-path="url(#pdafb3e6dda)" style="fill: none; stroke: #b0b0b0; stroke-width: 0.8; stroke-linecap: square"/>
     </g>
     <g id="line2d_10">
      <g>
       <use xlink:href="#m15a3d394c9" x="236.16" y="307.584" style="stroke: #000000; stroke-width: 0.8"/>
      </g>
     </g>
     <g id="text_5">
      <!-- 10.0 -->
      <g transform="translate(225.027188 322.182437) scale(0.1 -0.1)">
       <defs>
        <path id="DejaVuSans-31" d="M 794 531 
L 1825 531 
L 1825 4091 
L 703 3866 
L 703 4441 
L 1819 4666 
L 2450 4666 
L 2450 531 
L 3481 531 
L 3481 0 
L 794 0 
L 794 531 
z
" transform="scale(0.015625)"/>
       </defs>
       <use xlink:href="#DejaVuSans-31"/>
       <use xlink:href="#DejaVuSans-30" x="63.623047"/>
       <use xlink:href="#DejaVuSans-2e" x="127.246094"/>
       <use xlink:href="#DejaVuSans-30" x="159.033203"/>
      </g>
     </g>
    </g>
    <g id="xtick_6">
     <g id="line2d_11">
      <path d="M 276.741818 307.584 
L 276.741818 41.472 
" clip-path="url(#pdafb3e6dda)" style="fill: none; stroke: #b0b0b0; stroke-width: 0.8; stroke-linecap: square"/>
     </g>
     <g id="line2d_12">
      <g>
       <use xlink:href="#m15a3d394c9" x="276.741818" y="307.584" style="stroke: #000000; stroke-width: 0.8"/>
      </g>
     </g>
     <g id="text_6">
      <!-- 12.5 -->
      <g transform="translate(265.609006 322.182437) scale(0.1 -0.1)">
       <use xlink:href="#DejaVuSans-31"/>
       <use xlink:href="#DejaVuSans-32" x="63.623047"/>
       <use xlink:href="#DejaVuSans-2e" x="127.246094"/>
       <use xlink:href="#DejaVuSans-35" x="159.033203"/>
      </g>
     </g>
    </g>
    <g id="xtick_7">
     <g id="line2d_13">
      <path d="M 317.323636 307.584 
L 317.323636 41.472 
" clip-path="url(#pdafb3e6dda)" style="fill: none; stroke: #b0b0b0; stroke-width: 0.8; stroke-linecap: square"/>
     </g>
     <g id="line2d_14">
      <g>
       <use xlink:href="#m15a3d394c9" x="317.323636" y="307.584" style="stroke: #000000; stroke-width: 0.8"/>
      </g>
     </g>
     <g id="text_7">
      <!-- 15.0 -->
      <g transform="translate(306.190824 322.182437) scale(0.1 -0.1)">
       <use xlink:href="#DejaVuSans-31"/>
       <use xlink:href="#DejaVuSans-35" x="63.623047"/>
       <use xlink:href="#DejaVuSans-2e" x="127.246094"/>
       <use xlink:href="#DejaVuSans-30" x="159.033203"/>
      </g>
     </g>
    </g>
    <g id="xtick_8">
     <g id="line2d_15">
      <path d="M 357.905455 307.584 
L 357.905455 41.472 
" clip-path="url(#pdafb3e6dda)" style="fill: none; stroke: #b0b0b0; stroke-width: 0.8; stroke-linecap: square"/>
     </g>
     <g id="line2d_16">
      <g>
       <use xlink:href="#m15a3d394c9" x="357.905455" y="307.584" style="stroke: #000000; stroke-width: 0.8"/>
      </g>
     </g>
     <g id="text_8">
      <!-- 17.5 -->
      <g transform="translate(346.772642 322.182437) scale(0.1 -0.1)">
       <use xlink:href="#DejaVuSans-31"/>
       <use xlink:href="#DejaVuSans-37" x="63.623047"/>
       <use xlink:href="#DejaVuSans-2e" x="127.246094"/>
       <use xlink:href="#DejaVuSans-35" x="159.033203"/>
      </g>
     </g>
    </g>
    <g id="xtick_9">
     <g id="line2d_17">
      <path d="M 398.487273 307.584 
L 398.487273 41.472 
" clip-path="url(#pdafb3e6dda)" style="fill: none; stroke: #b0b0b0; stroke-width: 0.8; stroke-linecap: square"/>
     </g>
     <g id="line2d_18">
      <g>
       <use xlink:href="#m15a3d394c9" x="398.487273" y="307.584" style="stroke: #000000; stroke-width: 0.8"/>
      </g>
     </g>
     <g id="text_9">
      <!-- 20.0 -->
      <g transform="translate(387.35446 322.182437) scale(0.1 -0.1)">
       <use xlink:href="#DejaVuSans-32"/>
       <use xlink:href="#DejaVuSans-30" x="63.623047"/>
       <use xlink:href="#DejaVuSans-2e" x="127.246094"/>
       <use xlink:href="#DejaVuSans-30" x="159.033203"/>
      </g>
     </g>
    </g>
    <g id="text_10">
     <!-- time (s) -->
     <g transform="translate(216.768594 335.860562) scale(0.1 -0.1)">
      <defs>
       <path id="DejaVuSans-74" d="M 1172 4494 
L 1172 3500 
L 2356 3500 
L 2356 3053 
L 1172 3053 
L 1172 1153 
Q 1172 725 1289 603 
Q 1406 481 1766 481 
L 2356 481 
L 2356 0 
L 1766 0 
Q 1100 0 847 248 
Q 594 497 594 1153 
L 594 3053 
L 172 3053 
L 172 3500 
L 594 3500 
L 594 4494 
L 1172 4494 
z
" transform="scale(0.015625)"/>
       <path id="DejaVuSans-69" d="M 603 3500 
L 1178 3500 
L 1178 0 
L 603 0 
L 603 3500 
z
M 603 4863 
L 1178 4863 
L 1178 4134 
L 603 4134 
L 603 4863 
z
" transform="scale(0.015625)"/>
       <path id="DejaVuSans-6d" d="M 3328 2828 
Q 3544 3216 3844 3400 
Q 4144 3584 4550 3584 
Q 5097 3584 5394 3201 
Q 5691 2819 5691 2113 
L 5691 0 
L 5113 0 
L 5113 2094 
Q 5113 2597 4934 2840 
Q 4756 3084 4391 3084 
Q 3944 3084 3684 2787 
Q 3425 2491 3425 1978 
L 3425 0 
L 2847 0 
L 2847 2094 
Q 2847 2600 2669 2842 
Q 2491 3084 2119 3084 
Q 1678 3084 1418 2786 
Q 1159 2488 1159 1978 
L 1159 0 
L 581 0 
L 581 3500 
L 1159 3500 
L 1159 2956 
Q 1356 3278 1631 3431 
Q 1906 3584 2284 3584 
Q 2666 3584 2933 3390 
Q 3200 3197 3328 2828 
z
" transform="scale(0.015625)"/>
       <path id="DejaVuSans-65" d="M 3597 1894 
L 3597 1613 
L 953 1613 
Q 991 1019 1311 708 
Q 1631 397 2203 397 
Q 2534 397 2845 478 
Q 3156 559 3463 722 
L 3463 178 
Q 3153 47 2828 -22 
Q 2503 -91 2169 -91 
Q 1331 -91 842 396 
Q 353 884 353 1716 
Q 353 2575 817 3079 
Q 1281 3584 2069 3584 
Q 2775 3584 3186 3129 
Q 3597 2675 3597 1894 
z
M 3022 2063 
Q 3016 2534 2758 2815 
Q 2500 3097 2075 3097 
Q 1594 3097 1305 2825 
Q 1016 2553 972 2059 
L 3022 2063 
z
" transform="scale(0.015625)"/>
       <path id="DejaVuSans-20" transform="scale(0.015625)"/>
       <path id="DejaVuSans-28" d="M 1984 4856 
Q 1566 4138 1362 3434 
Q 1159 2731 1159 2009 
Q 1159 1288 1364 580 
Q 1569 -128 1984 -844 
L 1484 -844 
Q 1016 -109 783 600 
Q 550 1309 550 2009 
Q 550 2706 781 3412 
Q 1013 4119 1484 4856 
L 1984 4856 
z
" transform="scale(0.015625)"/>
       <path id="DejaVuSans-73" d="M 2834 3397 
L 2834 2853 
Q 2591 2978 2328 3040 
Q 2066 3103 1784 3103 
Q 1356 3103 1142 2972 
Q 928 2841 928 2578 
Q 928 2378 1081 2264 
Q 1234 2150 1697 2047 
L 1894 2003 
Q 2506 1872 2764 1633 
Q 3022 1394 3022 966 
Q 3022 478 2636 193 
Q 2250 -91 1575 -91 
Q 1294 -91 989 -36 
Q 684 19 347 128 
L 347 722 
Q 666 556 975 473 
Q 1284 391 1588 391 
Q 1994 391 2212 530 
Q 2431 669 2431 922 
Q 2431 1156 2273 1281 
Q 2116 1406 1581 1522 
L 1381 1569 
Q 847 1681 609 1914 
Q 372 2147 372 2553 
Q 372 3047 722 3315 
Q 1072 3584 1716 3584 
Q 2034 3584 2315 3537 
Q 2597 3491 2834 3397 
z
" transform="scale(0.015625)"/>
       <path id="DejaVuSans-29" d="M 513 4856 
L 1013 4856 
Q 1481 4119 1714 3412 
Q 1947 2706 1947 2009 
Q 1947 1309 1714 600 
Q 1481 -109 1013 -844 
L 513 -844 
Q 928 -128 1133 580 
Q 1338 1288 1338 2009 
Q 1338 2731 1133 3434 
Q 928 4138 513 4856 
z
" transform="scale(0.015625)"/>
      </defs>
      <use xlink:href="#DejaVuSans-74"/>
      <use xlink:href="#DejaVuSans-69" x="39.208984"/>
      <use xlink:href="#DejaVuSans-6d" x="66.992188"/>
      <use xlink:href="#DejaVuSans-65" x="164.404297"/>
      <use xlink:href="#DejaVuSans-20" x="225.927734"/>
      <use xlink:href="#DejaVuSans-28" x="257.714844"/>
      <use xlink:href="#DejaVuSans-73" x="296.728516"/>
      <use xlink:href="#DejaVuSans-29" x="348.828125"/>
     </g>
    </g>
   </g>
   <g id="matplotlib.axis_2">
    <g id="ytick_1">
     <g id="line2d_19">
      <path d="M 57.6 278.111656 
L 414.72 278.111656 
" clip-path="url(#pdafb3e6dda)" style="fill: none; stroke: #b0b0b0; stroke-width: 0.8; stroke-linecap: square"/>
     </g>
     <g id="line2d_20">
      <defs>
       <path id="m28ea4ddf26" d="M 0 0 
L -3.5 0 
" style="stroke: #000000; stroke-width: 0.8"/>
      </defs>
      <g>
       <use xlink:href="#m28ea4ddf26" x="57.6" y="278.111656" style="stroke: #000000; stroke-width: 0.8"/>
      </g>
     </g>
     <g id="text_11">
      <!-- −3 -->
      <g transform="translate(35.857813 281.910875) scale(0.1 -0.1)">
       <defs>
        <path id="DejaVuSans-2212" d="M 678 2272 
L 4684 2272 
L 4684 1741 
L 678 1741 
L 678 2272 
z
" transform="scale(0.015625)"/>
        <path id="DejaVuSans-33" d="M 2597 2516 
Q 3050 2419 3304 2112 
Q 3559 1806 3559 1356 
Q 3559 666 3084 287 
Q 2609 -91 1734 -91 
Q 1441 -91 1130 -33 
Q 819 25 488 141 
L 488 750 
Q 750 597 1062 519 
Q 1375 441 1716 441 
Q 2309 441 2620 675 
Q 2931 909 2931 1356 
Q 2931 1769 2642 2001 
Q 2353 2234 1838 2234 
L 1294 2234 
L 1294 2753 
L 1863 2753 
Q 2328 2753 2575 2939 
Q 2822 3125 2822 3475 
Q 2822 3834 2567 4026 
Q 2313 4219 1838 4219 
Q 1578 4219 1281 4162 
Q 984 4106 628 3988 
L 628 4550 
Q 988 4650 1302 4700 
Q 1616 4750 1894 4750 
Q 2613 4750 3031 4423 
Q 3450 4097 3450 3541 
Q 3450 3153 3228 2886 
Q 3006 2619 2597 2516 
z
" transform="scale(0.015625)"/>
       </defs>
       <use xlink:href="#DejaVuSans-2212"/>
       <use xlink:href="#DejaVuSans-33" x="83.789062"/>
      </g>
     </g>
    </g>
    <g id="ytick_2">
     <g id="line2d_21">
      <path d="M 57.6 239.952504 
L 414.72 239.952504 
" clip-path="url(#pdafb3e6dda)" style="fill: none; stroke: #b0b0b0; stroke-width: 0.8; stroke-linecap: square"/>
     </g>
     <g id="line2d_22">
      <g>
       <use xlink:href="#m28ea4ddf26" x="57.6" y="239.952504" style="stroke: #000000; stroke-width: 0.8"/>
      </g>
     </g>
     <g id="text_12">
      <!-- −2 -->
      <g transform="translate(35.857813 243.751723) scale(0.1 -0.1)">
       <use xlink:href="#DejaVuSans-2212"/>
       <use xlink:href="#DejaVuSans-32" x="83.789062"/>
      </g>
     </g>
    </g>
    <g id="ytick_3">
     <g id="line2d_23">
      <path d="M 57.6 201.793352 
L 414.72 201.793352 
" clip-path="url(#pdafb3e6dda)" style="fill: none; stroke: #b0b0b0; stroke-width: 0.8; stroke-linecap: square"/>
     </g>
     <g id="line2d_24">
      <g>
       <use xlink:href="#m28ea4ddf26" x="57.6" y="201.793352" style="stroke: #000000; stroke-width: 0.8"/>
      </g>
     </g>
     <g id="text_13">
      <!-- −1 -->
      <g transform="translate(35.857813 205.592571) scale(0.1 -0.1)">
       <use xlink:href="#DejaVuSans-2212"/>
       <use xlink:href="#DejaVuSans-31" x="83.789062"/>
      </g>
     </g>
    </g>
    <g id="ytick_4">
     <g id="line2d_25">
      <path d="M 57.6 163.6342 
L 414.72 163.6342 
" clip-path="url(#pdafb3e6dda)" style="fill: none; stroke: #b0b0b0; stroke-width: 0.8; stroke-linecap: square"/>
     </g>
     <g id="line2d_26">
      <g>
       <use xlink:href="#m28ea4ddf26" x="57.6" y="163.6342" style="stroke: #000000; stroke-width: 0.8"/>
      </g>
     </g>
     <g id="text_14">
      <!-- 0 -->
      <g transform="translate(44.2375 167.433419) scale(0.1 -0.1)">
       <use xlink:href="#DejaVuSans-30"/>
      </g>
     </g>
    </g>
    <g id="ytick_5">
     <g id="line2d_27">
      <path d="M 57.6 125.475048 
L 414.72 125.475048 
" clip-path="url(#pdafb3e6dda)" style="fill: none; stroke: #b0b0b0; stroke-width: 0.8; stroke-linecap: square"/>
     </g>
     <g id="line2d_28">
      <g>
       <use xlink:href="#m28ea4ddf26" x="57.6" y="125.475048" style="stroke: #000000; stroke-width: 0.8"/>
      </g>
     </g>
     <g id="text_15">
      <!-- 1 -->
      <g transform="translate(44.2375 129.274267) scale(0.1 -0.1)">
       <use xlink:href="#DejaVuSans-31"/>
      </g>
     </g>
    </g>
    <g id="ytick_6">
     <g id="line2d_29">
      <path d="M 57.6 87.315896 
L 414.72 87.315896 
" clip-path="url(#pdafb3e6dda)" style="fill: none; stroke: #b0b0b0; stroke-width: 0.8; stroke-linecap: square"/>
     </g>
     <g id="line2d_30">
      <g>
       <use xlink:href="#m28ea4ddf26" x="57.6" y="87.315896" style="stroke: #000000; stroke-width: 0.8"/>
      </g>
     </g>
     <g id="text_16">
      <!-- 2 -->
      <g transform="translate(44.2375 91.115115) scale(0.1 -0.1)">
       <use xlink:href="#DejaVuSans-32"/>
      </g>
     </g>
    </g>
    <g id="ytick_7">
     <g id="line2d_31">
      <path d="M 57.6 49.156744 
L 414.72 49.156744 
" clip-path="url(#pdafb3e6dda)" style="fill: none; stroke: #b0b0b0; stroke-width: 0.8; stroke-linecap: square"/>
     </g>
     <g id="line2d_32">
      <g>
       <use xlink:href="#m28ea4ddf26" x="57.6" y="49.156744" style="stroke: #000000; stroke-width: 0.8"/>
      </g>
     </g>
     <g id="text_17">
      <!-- 3 -->
      <g transform="translate(44.2375 52.955963) scale(0.1 -0.1)">
       <use xlink:href="#DejaVuSans-33"/>
      </g>
     </g>
    </g>
    <g id="text_18">
     <!-- theta -->
     <g transform="translate(29.778125 187.757688) rotate(-90) scale(0.1 -0.1)">
      <defs>
       <path id="DejaVuSans-68" d="M 3513 2113 
L 3513 0 
L 2938 0 
L 2938 2094 
Q 2938 2591 2744 2837 
Q 2550 3084 2163 3084 
Q 1697 3084 1428 2787 
Q 1159 2491 1159 1978 
L 1159 0 
L 581 0 
L 581 4863 
L 1159 4863 
L 1159 2956 
Q 1366 3272 1645 3428 
Q 1925 3584 2291 3584 
Q 2894 3584 3203 3211 
Q 3513 2838 3513 2113 
z
" transform="scale(0.015625)"/>
       <path id="DejaVuSans-61" d="M 2194 1759 
Q 1497 1759 1228 1600 
Q 959 1441 959 1056 
Q 959 750 1161 570 
Q 1363 391 1709 391 
Q 2188 391 2477 730 
Q 2766 1069 2766 1631 
L 2766 1759 
L 2194 1759 
z
M 3341 1997 
L 3341 0 
L 2766 0 
L 2766 531 
Q 2569 213 2275 61 
Q 1981 -91 1556 -91 
Q 1019 -91 701 211 
Q 384 513 384 1019 
Q 384 1609 779 1909 
Q 1175 2209 1959 2209 
L 2766 2209 
L 2766 2266 
Q 2766 2663 2505 2880 
Q 2244 3097 1772 3097 
Q 1472 3097 1187 3025 
Q 903 2953 641 2809 
L 641 3341 
Q 956 3463 1253 3523 
Q 1550 3584 1831 3584 
Q 2591 3584 2966 3190 
Q 3341 2797 3341 1997 
z
" transform="scale(0.015625)"/>
      </defs>
      <use xlink:href="#DejaVuSans-74"/>
      <use xlink:href="#DejaVuSans-68" x="39.208984"/>
      <use xlink:href="#DejaVuSans-65" x="102.587891"/>
      <use xlink:href="#DejaVuSans-74" x="164.111328"/>
      <use xlink:href="#DejaVuSans-61" x="203.320312"/>
     </g>
    </g>
   </g>
   <g id="line2d_33">
    <path d="M 73.832727 163.6342 
L 74.043753 163.52673 
L 74.303476 163.081097 
L 74.644364 161.990997 
L 75.09888 159.691708 
L 75.667025 155.555571 
L 76.381265 148.573172 
L 77.274065 137.493829 
L 78.475287 119.569245 
L 82.371142 59.183419 
L 82.858124 55.344185 
L 83.231476 53.857477 
L 83.474967 53.568636 
L 83.621062 53.65404 
L 83.815855 54.062607 
L 84.108044 55.310103 
L 84.497629 58.138273 
L 84.984611 63.487055 
L 85.585222 72.698558 
L 86.331927 87.802758 
L 87.257193 111.228541 
L 88.539578 149.69862 
L 91.70496 246.812013 
L 92.711389 269.96811 
L 93.49056 283.241806 
L 94.123636 290.593917 
L 94.610618 294.015575 
L 94.967738 295.258481 
L 95.194996 295.488 
L 95.373556 295.360196 
L 95.584582 294.862945 
L 95.893004 293.4572 
L 96.282589 290.570909 
L 96.802036 284.841606 
L 97.41888 275.427857 
L 98.181818 260.308081 
L 99.188247 235.652991 
L 100.876451 187.619727 
L 102.77568 135.449541 
L 103.798342 113.130249 
L 104.593745 100.150148 
L 105.243055 92.868839 
L 105.730036 89.501213 
L 106.119622 88.12993 
L 106.363113 87.87507 
L 106.52544 87.961552 
L 106.752698 88.422879 
L 107.028655 89.510625 
L 107.434473 92.137447 
L 107.921455 96.826884 
L 108.570764 105.485174 
L 109.3824 119.606476 
L 110.486225 143.079237 
L 113.732771 214.682161 
L 114.609338 228.150384 
L 115.27488 235.381439 
L 115.81056 239.101316 
L 116.216378 240.627745 
L 116.492335 241.014813 
L 116.687127 240.96547 
L 116.898153 240.625131 
L 117.174109 239.722634 
L 117.579927 237.48439 
L 118.050676 233.577023 
L 118.651287 226.724036 
L 119.414225 215.401746 
L 120.45312 196.539126 
L 123.683433 135.210774 
L 124.543767 123.918036 
L 125.209309 117.827282 
L 125.744989 114.778765 
L 126.150807 113.607983 
L 126.410531 113.380936 
L 126.621556 113.494231 
L 126.88128 113.998476 
L 127.205935 115.167965 
L 127.644218 117.680801 
L 128.179898 122.098185 
L 128.894138 130.009133 
L 129.851869 143.381882 
L 131.783564 174.159722 
L 133.001018 191.359971 
L 133.877585 200.730798 
L 134.526895 205.509061 
L 135.030109 207.794796 
L 135.403462 208.667022 
L 135.646953 208.84767 
L 135.841745 208.778813 
L 136.117702 208.348711 
L 136.491055 207.171788 
L 136.961804 204.750715 
L 137.546182 200.409928 
L 138.341585 192.495482 
L 139.445411 178.834307 
L 142.140044 144.843549 
L 143.016611 137.222707 
L 143.66592 133.434929 
L 144.169135 131.700292 
L 144.526255 131.122534 
L 144.802211 131.054448 
L 145.061935 131.284836 
L 145.354124 131.876299 
L 145.792407 133.404605 
L 146.34432 136.340786 
L 147.091025 141.865834 
L 147.967593 150.046336 
L 151.279069 182.1643 
L 151.993309 186.370546 
L 152.59392 188.623711 
L 153.048436 189.483221 
L 153.356858 189.654149 
L 153.649047 189.50999 
L 153.973702 189.003461 
L 154.363287 187.936208 
L 154.817804 186.093027 
L 155.532044 182.081493 
L 156.392378 175.73785 
L 159.801251 148.890567 
L 160.499258 145.53026 
L 161.018705 143.87162 
L 161.473222 143.046669 
L 161.87904 142.808 
L 162.23616 142.993226 
L 162.577047 143.505654 
L 163.047796 144.703372 
L 163.648407 146.996362 
L 164.427578 151.019484 
L 165.872291 160.339041 
L 167.349469 169.697467 
L 168.323433 174.467687 
L 169.053905 176.906454 
L 169.622051 177.931497 
L 169.979171 178.219622 
L 170.27136 178.248979 
L 170.514851 178.114701 
L 170.839505 177.700746 
L 171.245324 176.888607 
L 171.894633 174.959033 
L 172.738735 171.489363 
L 174.086051 164.562168 
L 175.839185 155.812942 
L 176.731985 152.6254 
L 177.381295 151.125595 
L 177.803345 150.558801 
L 178.274095 150.314971 
L 178.728611 150.471542 
L 179.134429 150.935192 
L 179.718807 152.065471 
L 180.319418 153.731472 
L 181.179753 156.794569 
L 184.55616 169.587229 
L 185.173004 170.912064 
L 185.611287 171.492258 
L 186.017105 171.735866 
L 186.504087 171.715705 
L 187.023535 171.331118 
L 187.640378 170.421218 
L 188.435782 168.620628 
L 189.214953 166.342138 
L 192.396567 156.963247 
L 193.045876 155.916007 
L 193.516625 155.426973 
L 193.971142 155.207877 
L 194.328262 155.191361 
L 194.993804 155.571772 
L 195.367156 155.986148 
L 195.951535 156.898129 
L 196.51968 158.036919 
L 197.574807 160.549766 
L 199.603898 165.466832 
L 200.301905 166.670083 
L 201.113542 167.573868 
L 201.795316 167.881793 
L 202.444625 167.786329 
L 203.158865 167.267768 
L 204.035433 166.122031 
L 205.934662 162.684608 
L 207.184582 160.42465 
L 207.996218 159.348013 
L 208.613062 158.739649 
L 209.587025 158.35941 
L 210.203869 158.458929 
L 210.707084 158.724318 
L 211.632349 159.567143 
L 213.888698 162.766845 
L 214.781498 164.039057 
L 215.966487 165.239098 
L 216.5184 165.557666 
L 217.021615 165.703638 
L 217.898182 165.621338 
L 218.904611 165.049376 
L 221.51808 162.523956 
L 222.605673 161.384458 
L 223.401076 160.848768 
L 224.780858 160.3351 
L 226.274269 160.702889 
L 227.459258 161.476168 
L 228.83904 162.655145 
L 231.549905 164.426215 
L 232.76736 164.686013 
L 233.30304 164.636004 
L 234.666589 164.098583 
L 237.9456 161.942051 
L 240.137018 161.363377 
L 242.669324 162.23562 
L 245.721076 163.875139 
L 247.376815 164.228765 
L 249.065018 163.937326 
L 252.360262 162.534461 
L 253.155665 162.376137 
L 256.450909 162.342467 
L 257.635898 162.829589 
L 258.788422 163.275634 
L 259.55136 163.520338 
L 262.148596 163.809786 
L 267.018415 163.003149 
L 267.94368 162.977541 
L 268.804015 162.95827 
L 269.761745 162.955759 
L 270.589615 162.964538 
L 271.547345 162.996517 
L 272.375215 163.033804 
L 273.30048 163.090878 
L 274.01472 163.154325 
L 274.858822 163.405944 
L 275.62176 163.596191 
L 278.738444 163.767265 
L 280.605207 163.44843 
L 281.465542 163.260247 
L 282.342109 163.072622 
L 283.137513 162.925783 
L 286.822342 162.91239 
L 287.845004 163.303745 
L 289.062458 163.717637 
L 289.792931 163.909788 
L 292.455098 164.046658 
L 297.957993 162.81951 
L 301.172073 162.954718 
L 302.357062 163.21087 
L 303.217396 163.416102 
L 304.077731 163.617746 
L 305.230255 163.833309 
L 305.97696 163.926833 
L 306.707433 163.976747 
L 311.609716 163.410085 
L 312.437585 163.278708 
L 314.612771 163.361709 
L 315.505571 163.525722 
L 316.33344 163.664195 
L 317.453498 163.796396 
L 318.216436 163.847081 
L 319.531287 163.840429 
L 320.294225 163.79269 
L 321.349353 163.67891 
L 322.177222 163.572616 
L 323.070022 163.449698 
L 324.027753 163.335463 
L 324.823156 163.259263 
L 325.910749 163.206164 
L 326.673687 163.201291 
L 327.793745 163.251407 
L 328.589149 163.315201 
L 329.579345 163.423878 
L 330.43968 163.5241 
L 331.300015 163.625009 
L 332.257745 163.715654 
L 333.053149 163.772658 
L 334.108276 163.805015 
L 334.887447 163.800866 
L 335.682851 163.774654 
L 336.673047 163.709975 
L 337.500916 163.644498 
L 338.393716 163.564127 
L 339.286516 163.492527 
L 340.114385 163.4345 
L 341.104582 163.393482 
L 341.899985 163.379247 
L 342.890182 163.39503 
L 343.685585 163.424938 
L 344.643316 163.484528 
L 345.471185 163.54228 
L 346.363985 163.611315 
L 347.256785 163.670626 
L 348.084655 163.718349 
L 349.042385 163.749871 
L 349.837789 163.7618 
L 350.79552 163.749707 
L 351.623389 163.726071 
L 352.548655 163.681275 
L 353.408989 163.636133 
L 354.301789 163.584038 
L 355.194589 163.541522 
L 356.022458 163.507773 
L 356.947724 163.489409 
L 357.775593 163.484092 
L 358.733324 163.499878 
L 359.561193 163.52266 
L 360.486458 163.562758 
L 361.346793 163.601002 
L 362.207127 163.643239 
L 363.099927 163.677744 
L 363.927796 163.705457 
L 364.853062 163.719673 
L 365.680931 163.724173 
L 366.606196 163.711656 
L 367.434065 163.69442 
L 368.326865 163.66405 
L 369.1872 163.635253 
L 370.047535 163.602661 
L 370.940335 163.577354 
L 371.800669 163.556062 
L 372.725935 163.547624 
L 373.553804 163.545812 
L 374.479069 163.558501 
L 375.339404 163.574395 
L 376.232204 163.600736 
L 377.092538 163.624391 
L 377.952873 163.651404 
L 378.845673 163.671307 
L 379.706007 163.688496 
L 380.598807 163.694225 
L 381.442909 163.693759 
L 382.303244 163.687987 
L 383.196044 163.671294 
L 384.056378 163.655123 
L 384.949178 163.632339 
L 385.841978 163.614638 
L 386.702313 163.596686 
L 387.595113 163.587501 
L 388.455447 163.580666 
L 389.348247 163.58447 
L 390.208582 163.589964 
L 391.101382 163.604808 
L 391.961716 163.618039 
L 392.822051 163.636458 
L 393.714851 163.650318 
L 394.575185 163.665002 
L 395.467985 163.671686 
L 396.32832 163.677265 
L 397.22112 163.673499 
L 398.081455 163.66931 
L 398.487273 163.662947 
L 398.487273 163.662947 
" clip-path="url(#pdafb3e6dda)" style="fill: none; stroke-dasharray: 5.55,2.4; stroke-dashoffset: 0; stroke: #ff0000; stroke-opacity: 0.2; stroke-width: 1.5"/>
   </g>
   <g id="line2d_34">
    <path d="M 73.832727 163.6342 
L 75.115113 163.524811 
L 75.829353 163.231807 
L 76.478662 162.720401 
L 77.127971 161.914049 
L 77.809745 160.695786 
L 78.556451 158.872863 
L 79.368087 156.267317 
L 80.27712 152.550271 
L 81.299782 147.37553 
L 82.501004 140.081942 
L 86.072204 117.515852 
L 86.965004 113.605665 
L 87.679244 111.393282 
L 88.247389 110.288157 
L 88.685673 109.856822 
L 89.042793 109.784593 
L 89.38368 109.952373 
L 89.773265 110.427724 
L 90.244015 111.402095 
L 90.81216 113.145844 
L 91.493935 116.01389 
L 92.321804 120.520711 
L 93.376931 127.5947 
L 94.951505 139.869093 
L 97.41888 158.971518 
L 98.538938 165.910502 
L 99.431738 170.145578 
L 100.162211 172.620465 
L 100.762822 173.946725 
L 101.249804 174.545808 
L 101.655622 174.722899 
L 102.012742 174.642162 
L 102.402327 174.310157 
L 102.873076 173.586978 
L 103.457455 172.238647 
L 104.187927 169.944765 
L 105.161891 166.081828 
L 107.077353 157.310652 
L 108.457135 151.543595 
L 109.366167 148.614364 
L 110.080407 146.988064 
L 110.664785 146.163168 
L 111.135535 145.850128 
L 111.541353 145.838174 
L 111.947171 146.065095 
L 112.401687 146.598259 
L 112.9536 147.626812 
L 113.619142 149.381857 
L 114.447011 152.243301 
L 115.567069 156.999142 
L 119.138269 172.790536 
L 120.014836 175.425298 
L 120.729076 176.933405 
L 121.313455 177.704124 
L 121.800436 178.020722 
L 122.23872 178.054356 
L 122.677004 177.856857 
L 123.163985 177.380425 
L 123.764596 176.452353 
L 124.511302 174.85037 
L 125.533964 172.067765 
L 128.780509 162.825338 
L 129.592145 161.343652 
L 130.241455 160.579236 
L 130.793367 160.250673 
L 131.280349 160.212811 
L 131.767331 160.409791 
L 132.303011 160.887162 
L 132.936087 161.777539 
L 133.715258 163.291681 
L 134.770385 165.882847 
L 138.065629 174.339762 
L 138.909731 175.745525 
L 139.591505 176.485895 
L 140.175884 176.817749 
L 140.711564 176.872542 
L 141.247244 176.695559 
L 141.831622 176.254803 
L 142.529629 175.428623 
L 143.422429 173.995739 
L 144.899607 171.124893 
L 146.539113 168.08685 
L 147.464378 166.812766 
L 148.211084 166.13319 
L 148.860393 165.828458 
L 149.444771 165.79069 
L 150.045382 165.980767 
L 150.710924 166.442273 
L 151.506327 167.289276 
L 152.561455 168.771455 
L 155.596975 173.235584 
L 156.457309 174.021777 
L 157.187782 174.402755 
L 157.853324 174.503876 
L 158.502633 174.379218 
L 159.216873 174.004392 
L 160.044742 173.303881 
L 161.1648 172.035237 
L 164.054225 168.627182 
L 164.979491 167.943773 
L 165.774895 167.621884 
L 166.5216 167.557693 
L 167.284538 167.720002 
L 168.12864 168.135045 
L 169.2 168.929539 
L 172.608873 171.649802 
L 173.534138 172.002511 
L 174.362007 172.0855 
L 175.189876 171.943256 
L 176.098909 171.552423 
L 177.218967 170.811629 
L 181.082356 168.036699 
L 182.072553 167.721199 
L 183.014051 167.653181 
L 183.988015 167.810317 
L 185.156771 168.238264 
L 189.068858 169.873296 
L 190.140218 169.966335 
L 191.211578 169.831721 
L 192.396567 169.445918 
L 194.101004 168.623381 
L 196.389818 167.554894 
L 197.672204 167.209311 
L 198.857193 167.115754 
L 200.155811 167.244571 
L 202.038807 167.685516 
L 204.311389 168.168476 
L 205.723636 168.231926 
L 207.119651 168.071051 
L 208.824087 167.629155 
L 212.655011 166.557593 
L 214.229585 166.407898 
L 215.934022 166.484156 
L 221.128495 166.883551 
L 222.979025 166.692804 
L 226.387898 166.049038 
L 228.66048 165.759172 
L 230.868131 165.7178 
L 237.831971 165.791254 
L 245.753542 165.097865 
L 252.571287 165.095394 
L 260.476625 164.646447 
L 267.196975 164.575267 
L 277.163869 164.294368 
L 282.94272 164.246672 
L 290.637033 164.036065 
L 296.545745 164.077887 
L 306.950924 163.827551 
L 312.810938 163.842551 
L 318.638487 163.807571 
L 325.228975 163.786971 
L 333.637527 163.688919 
L 342.533062 163.666471 
L 350.681891 163.65225 
L 360.940975 163.615554 
L 395.467985 163.616614 
L 398.487273 163.623846 
L 398.487273 163.623846 
" clip-path="url(#pdafb3e6dda)" style="fill: none; stroke: #008000; stroke-width: 1.5; stroke-linecap: square"/>
   </g>
   <g id="patch_3">
    <path d="M 57.6 307.584 
L 57.6 41.472 
" style="fill: none; stroke: #000000; stroke-width: 0.8; stroke-linejoin: miter; stroke-linecap: square"/>
   </g>
   <g id="patch_4">
    <path d="M 414.72 307.584 
L 414.72 41.472 
" style="fill: none; stroke: #000000; stroke-width: 0.8; stroke-linejoin: miter; stroke-linecap: square"/>
   </g>
   <g id="patch_5">
    <path d="M 57.6 307.584 
L 414.72 307.584 
" style="fill: none; stroke: #000000; stroke-width: 0.8; stroke-linejoin: miter; stroke-linecap: square"/>
   </g>
   <g id="patch_6">
    <path d="M 57.6 41.472 
L 414.72 41.472 
" style="fill: none; stroke: #000000; stroke-width: 0.8; stroke-linejoin: miter; stroke-linecap: square"/>
   </g>
   <g id="text_19">
    <!-- theta vs time -->
    <g transform="translate(196.238438 35.472) scale(0.12 -0.12)">
     <defs>
      <path id="DejaVuSans-76" d="M 191 3500 
L 800 3500 
L 1894 563 
L 2988 3500 
L 3597 3500 
L 2284 0 
L 1503 0 
L 191 3500 
z
" transform="scale(0.015625)"/>
     </defs>
     <use xlink:href="#DejaVuSans-74"/>
     <use xlink:href="#DejaVuSans-68" x="39.208984"/>
     <use xlink:href="#DejaVuSans-65" x="102.587891"/>
     <use xlink:href="#DejaVuSans-74" x="164.111328"/>
     <use xlink:href="#DejaVuSans-61" x="203.320312"/>
     <use xlink:href="#DejaVuSans-20" x="264.599609"/>
     <use xlink:href="#DejaVuSans-76" x="296.386719"/>
     <use xlink:href="#DejaVuSans-73" x="355.566406"/>
     <use xlink:href="#DejaVuSans-20" x="407.666016"/>
     <use xlink:href="#DejaVuSans-74" x="439.453125"/>
     <use xlink:href="#DejaVuSans-69" x="478.662109"/>
     <use xlink:href="#DejaVuSans-6d" x="506.445312"/>
     <use xlink:href="#DejaVuSans-65" x="603.857422"/>
    </g>
   </g>
   <g id="legend_1">
    <g id="patch_7">
     <path d="M 273.271563 79.106375 
L 407.72 79.106375 
Q 409.72 79.106375 409.72 77.106375 
L 409.72 48.472 
Q 409.72 46.472 407.72 46.472 
L 273.271563 46.472 
Q 271.271563 46.472 271.271563 48.472 
L 271.271563 77.106375 
Q 271.271563 79.106375 273.271563 79.106375 
z
" style="fill: #ffffff; opacity: 0.8; stroke: #cccccc; stroke-linejoin: miter"/>
    </g>
    <g id="line2d_35">
     <path d="M 275.271563 54.570438 
L 285.271563 54.570438 
L 295.271563 54.570438 
" style="fill: none; stroke-dasharray: 5.55,2.4; stroke-dashoffset: 0; stroke: #ff0000; stroke-opacity: 0.2; stroke-width: 1.5"/>
    </g>
    <g id="text_20">
     <!-- theta_dot (degree/s) -->
     <g transform="translate(303.271563 58.070438) scale(0.1 -0.1)">
      <defs>
       <path id="DejaVuSans-5f" d="M 3263 -1063 
L 3263 -1509 
L -63 -1509 
L -63 -1063 
L 3263 -1063 
z
" transform="scale(0.015625)"/>
       <path id="DejaVuSans-64" d="M 2906 2969 
L 2906 4863 
L 3481 4863 
L 3481 0 
L 2906 0 
L 2906 525 
Q 2725 213 2448 61 
Q 2172 -91 1784 -91 
Q 1150 -91 751 415 
Q 353 922 353 1747 
Q 353 2572 751 3078 
Q 1150 3584 1784 3584 
Q 2172 3584 2448 3432 
Q 2725 3281 2906 2969 
z
M 947 1747 
Q 947 1113 1208 752 
Q 1469 391 1925 391 
Q 2381 391 2643 752 
Q 2906 1113 2906 1747 
Q 2906 2381 2643 2742 
Q 2381 3103 1925 3103 
Q 1469 3103 1208 2742 
Q 947 2381 947 1747 
z
" transform="scale(0.015625)"/>
       <path id="DejaVuSans-6f" d="M 1959 3097 
Q 1497 3097 1228 2736 
Q 959 2375 959 1747 
Q 959 1119 1226 758 
Q 1494 397 1959 397 
Q 2419 397 2687 759 
Q 2956 1122 2956 1747 
Q 2956 2369 2687 2733 
Q 2419 3097 1959 3097 
z
M 1959 3584 
Q 2709 3584 3137 3096 
Q 3566 2609 3566 1747 
Q 3566 888 3137 398 
Q 2709 -91 1959 -91 
Q 1206 -91 779 398 
Q 353 888 353 1747 
Q 353 2609 779 3096 
Q 1206 3584 1959 3584 
z
" transform="scale(0.015625)"/>
       <path id="DejaVuSans-67" d="M 2906 1791 
Q 2906 2416 2648 2759 
Q 2391 3103 1925 3103 
Q 1463 3103 1205 2759 
Q 947 2416 947 1791 
Q 947 1169 1205 825 
Q 1463 481 1925 481 
Q 2391 481 2648 825 
Q 2906 1169 2906 1791 
z
M 3481 434 
Q 3481 -459 3084 -895 
Q 2688 -1331 1869 -1331 
Q 1566 -1331 1297 -1286 
Q 1028 -1241 775 -1147 
L 775 -588 
Q 1028 -725 1275 -790 
Q 1522 -856 1778 -856 
Q 2344 -856 2625 -561 
Q 2906 -266 2906 331 
L 2906 616 
Q 2728 306 2450 153 
Q 2172 0 1784 0 
Q 1141 0 747 490 
Q 353 981 353 1791 
Q 353 2603 747 3093 
Q 1141 3584 1784 3584 
Q 2172 3584 2450 3431 
Q 2728 3278 2906 2969 
L 2906 3500 
L 3481 3500 
L 3481 434 
z
" transform="scale(0.015625)"/>
       <path id="DejaVuSans-72" d="M 2631 2963 
Q 2534 3019 2420 3045 
Q 2306 3072 2169 3072 
Q 1681 3072 1420 2755 
Q 1159 2438 1159 1844 
L 1159 0 
L 581 0 
L 581 3500 
L 1159 3500 
L 1159 2956 
Q 1341 3275 1631 3429 
Q 1922 3584 2338 3584 
Q 2397 3584 2469 3576 
Q 2541 3569 2628 3553 
L 2631 2963 
z
" transform="scale(0.015625)"/>
       <path id="DejaVuSans-2f" d="M 1625 4666 
L 2156 4666 
L 531 -594 
L 0 -594 
L 1625 4666 
z
" transform="scale(0.015625)"/>
      </defs>
      <use xlink:href="#DejaVuSans-74"/>
      <use xlink:href="#DejaVuSans-68" x="39.208984"/>
      <use xlink:href="#DejaVuSans-65" x="102.587891"/>
      <use xlink:href="#DejaVuSans-74" x="164.111328"/>
      <use xlink:href="#DejaVuSans-61" x="203.320312"/>
      <use xlink:href="#DejaVuSans-5f" x="264.599609"/>
      <use xlink:href="#DejaVuSans-64" x="314.599609"/>
      <use xlink:href="#DejaVuSans-6f" x="378.076172"/>
      <use xlink:href="#DejaVuSans-74" x="439.257812"/>
      <use xlink:href="#DejaVuSans-20" x="478.466797"/>
      <use xlink:href="#DejaVuSans-28" x="510.253906"/>
      <use xlink:href="#DejaVuSans-64" x="549.267578"/>
      <use xlink:href="#DejaVuSans-65" x="612.744141"/>
      <use xlink:href="#DejaVuSans-67" x="674.267578"/>
      <use xlink:href="#DejaVuSans-72" x="737.744141"/>
      <use xlink:href="#DejaVuSans-65" x="776.607422"/>
      <use xlink:href="#DejaVuSans-65" x="838.130859"/>
      <use xlink:href="#DejaVuSans-2f" x="899.654297"/>
      <use xlink:href="#DejaVuSans-73" x="933.345703"/>
      <use xlink:href="#DejaVuSans-29" x="985.445312"/>
     </g>
    </g>
    <g id="line2d_36">
     <path d="M 275.271563 69.526688 
L 285.271563 69.526688 
L 295.271563 69.526688 
" style="fill: none; stroke: #008000; stroke-width: 1.5; stroke-linecap: square"/>
    </g>
    <g id="text_21">
     <!-- theta (degree) -->
     <g transform="translate(303.271563 73.026688) scale(0.1 -0.1)">
      <use xlink:href="#DejaVuSans-74"/>
      <use xlink:href="#DejaVuSans-68" x="39.208984"/>
      <use xlink:href="#DejaVuSans-65" x="102.587891"/>
      <use xlink:href="#DejaVuSans-74" x="164.111328"/>
      <use xlink:href="#DejaVuSans-61" x="203.320312"/>
      <use xlink:href="#DejaVuSans-20" x="264.599609"/>
      <use xlink:href="#DejaVuSans-28" x="296.386719"/>
      <use xlink:href="#DejaVuSans-64" x="335.400391"/>
      <use xlink:href="#DejaVuSans-65" x="398.876953"/>
      <use xlink:href="#DejaVuSans-67" x="460.400391"/>
      <use xlink:href="#DejaVuSans-72" x="523.876953"/>
      <use xlink:href="#DejaVuSans-65" x="562.740234"/>
      <use xlink:href="#DejaVuSans-65" x="624.263672"/>
      <use xlink:href="#DejaVuSans-29" x="685.787109"/>
     </g>
    </g>
   </g>
  </g>
 </g>
 <defs>
  <clipPath id="pdafb3e6dda">
   <rect x="57.6" y="41.472" width="357.12" height="266.112"/>
  </clipPath>
 </defs>
</svg>
