<?xml version="1.0" encoding="utf-8" standalone="no"?>
<!DOCTYPE svg PUBLIC "-//W3C//DTD SVG 1.1//EN"
  "http://www.w3.org/Graphics/SVG/1.1/DTD/svg11.dtd">
<svg xmlns:xlink="http://www.w3.org/1999/xlink" width="460.8pt" height="345.6pt" viewBox="0 0 460.8 345.6" xmlns="http://www.w3.org/2000/svg" version="1.1">
 <metadata>
  <rdf:RDF xmlns:dc="http://purl.org/dc/elements/1.1/" xmlns:cc="http://creativecommons.org/ns#" xmlns:rdf="http://www.w3.org/1999/02/22-rdf-syntax-ns#">
   <cc:Work>
    <dc:type rdf:resource="http://purl.org/dc/dcmitype/StillImage"/>
    <dc:date>2023-06-29T15:34:06.889497</dc:date>
    <dc:format>image/svg+xml</dc:format>
    <dc:creator>
     <cc:Agent>
      <dc:title>Matplotlib v3.7.1, https://matplotlib.org/</dc:title>
     </cc:Agent>
    </dc:creator>
   </cc:Work>
  </rdf:RDF>
 </metadata>
 <defs>
  <style type="text/css">*{stroke-linejoin: round; stroke-linecap: butt}</style>
 </defs>
 <g id="figure_1">
  <g id="patch_1">
   <path d="M 0 345.6 
L 460.8 345.6 
L 460.8 0 
L 0 0 
L 0 345.6 
z
" style="fill: none"/>
  </g>
  <g id="axes_1">
   <g id="patch_2">
    <path d="M 57.6 307.584 
L 414.72 307.584 
L 414.72 41.472 
L 57.6 41.472 
L 57.6 307.584 
z
" style="fill: none"/>
   </g>
   <g id="matplotlib.axis_1">
    <g id="xtick_1">
     <g id="line2d_1">
      <path d="M 73.832727 307.584 
L 73.832727 41.472 
" clip-path="url(#p0ee3fa21bd)" style="fill: none; stroke: #b0b0b0; stroke-width: 0.8; stroke-linecap: square"/>
     </g>
     <g id="line2d_2">
      <defs>
       <path id="m7c438a02c6" d="M 0 0 
L 0 3.5 
" style="stroke: #000000; stroke-width: 0.8"/>
      </defs>
      <g>
       <use xlink:href="#m7c438a02c6" x="73.832727" y="307.584" style="stroke: #000000; stroke-width: 0.8"/>
      </g>
     </g>
     <g id="text_1">
      <!-- 0.0 -->
      <g transform="translate(65.881165 322.182437) scale(0.1 -0.1)">
       <defs>
        <path id="DejaVuSans-30" d="M 2034 4250 
Q 1547 4250 1301 3770 
Q 1056 3291 1056 2328 
Q 1056 1369 1301 889 
Q 1547 409 2034 409 
Q 2525 409 2770 889 
Q 3016 1369 3016 2328 
Q 3016 3291 2770 3770 
Q 2525 4250 2034 4250 
z
M 2034 4750 
Q 2819 4750 3233 4129 
Q 3647 3509 3647 2328 
Q 3647 1150 3233 529 
Q 2819 -91 2034 -91 
Q 1250 -91 836 529 
Q 422 1150 422 2328 
Q 422 3509 836 4129 
Q 1250 4750 2034 4750 
z
" transform="scale(0.015625)"/>
        <path id="DejaVuSans-2e" d="M 684 794 
L 1344 794 
L 1344 0 
L 684 0 
L 684 794 
z
" transform="scale(0.015625)"/>
       </defs>
       <use xlink:href="#DejaVuSans-30"/>
       <use xlink:href="#DejaVuSans-2e" x="63.623047"/>
       <use xlink:href="#DejaVuSans-30" x="95.410156"/>
      </g>
     </g>
    </g>
    <g id="xtick_2">
     <g id="line2d_3">
      <path d="M 114.414545 307.584 
L 114.414545 41.472 
" clip-path="url(#p0ee3fa21bd)" style="fill: none; stroke: #b0b0b0; stroke-width: 0.8; stroke-linecap: square"/>
     </g>
     <g id="line2d_4">
      <g>
       <use xlink:href="#m7c438a02c6" x="114.414545" y="307.584" style="stroke: #000000; stroke-width: 0.8"/>
      </g>
     </g>
     <g id="text_2">
      <!-- 2.5 -->
      <g transform="translate(106.462983 322.182437) scale(0.1 -0.1)">
       <defs>
        <path id="DejaVuSans-32" d="M 1228 531 
L 3431 531 
L 3431 0 
L 469 0 
L 469 531 
Q 828 903 1448 1529 
Q 2069 2156 2228 2338 
Q 2531 2678 2651 2914 
Q 2772 3150 2772 3378 
Q 2772 3750 2511 3984 
Q 2250 4219 1831 4219 
Q 1534 4219 1204 4116 
Q 875 4013 500 3803 
L 500 4441 
Q 881 4594 1212 4672 
Q 1544 4750 1819 4750 
Q 2544 4750 2975 4387 
Q 3406 4025 3406 3419 
Q 3406 3131 3298 2873 
Q 3191 2616 2906 2266 
Q 2828 2175 2409 1742 
Q 1991 1309 1228 531 
z
" transform="scale(0.015625)"/>
        <path id="DejaVuSans-35" d="M 691 4666 
L 3169 4666 
L 3169 4134 
L 1269 4134 
L 1269 2991 
Q 1406 3038 1543 3061 
Q 1681 3084 1819 3084 
Q 2600 3084 3056 2656 
Q 3513 2228 3513 1497 
Q 3513 744 3044 326 
Q 2575 -91 1722 -91 
Q 1428 -91 1123 -41 
Q 819 9 494 109 
L 494 744 
Q 775 591 1075 516 
Q 1375 441 1709 441 
Q 2250 441 2565 725 
Q 2881 1009 2881 1497 
Q 2881 1984 2565 2268 
Q 2250 2553 1709 2553 
Q 1456 2553 1204 2497 
Q 953 2441 691 2322 
L 691 4666 
z
" transform="scale(0.015625)"/>
       </defs>
       <use xlink:href="#DejaVuSans-32"/>
       <use xlink:href="#DejaVuSans-2e" x="63.623047"/>
       <use xlink:href="#DejaVuSans-35" x="95.410156"/>
      </g>
     </g>
    </g>
    <g id="xtick_3">
     <g id="line2d_5">
      <path d="M 154.996364 307.584 
L 154.996364 41.472 
" clip-path="url(#p0ee3fa21bd)" style="fill: none; stroke: #b0b0b0; stroke-width: 0.8; stroke-linecap: square"/>
     </g>
     <g id="line2d_6">
      <g>
       <use xlink:href="#m7c438a02c6" x="154.996364" y="307.584" style="stroke: #000000; stroke-width: 0.8"/>
      </g>
     </g>
     <g id="text_3">
      <!-- 5.0 -->
      <g transform="translate(147.044801 322.182437) scale(0.1 -0.1)">
       <use xlink:href="#DejaVuSans-35"/>
       <use xlink:href="#DejaVuSans-2e" x="63.623047"/>
       <use xlink:href="#DejaVuSans-30" x="95.410156"/>
      </g>
     </g>
    </g>
    <g id="xtick_4">
     <g id="line2d_7">
      <path d="M 195.578182 307.584 
L 195.578182 41.472 
" clip-path="url(#p0ee3fa21bd)" style="fill: none; stroke: #b0b0b0; stroke-width: 0.8; stroke-linecap: square"/>
     </g>
     <g id="line2d_8">
      <g>
       <use xlink:href="#m7c438a02c6" x="195.578182" y="307.584" style="stroke: #000000; stroke-width: 0.8"/>
      </g>
     </g>
     <g id="text_4">
      <!-- 7.5 -->
      <g transform="translate(187.626619 322.182437) scale(0.1 -0.1)">
       <defs>
        <path id="DejaVuSans-37" d="M 525 4666 
L 3525 4666 
L 3525 4397 
L 1831 0 
L 1172 0 
L 2766 4134 
L 525 4134 
L 525 4666 
z
" transform="scale(0.015625)"/>
       </defs>
       <use xlink:href="#DejaVuSans-37"/>
       <use xlink:href="#DejaVuSans-2e" x="63.623047"/>
       <use xlink:href="#DejaVuSans-35" x="95.410156"/>
      </g>
     </g>
    </g>
    <g id="xtick_5">
     <g id="line2d_9">
      <path d="M 236.16 307.584 
L 236.16 41.472 
" clip-path="url(#p0ee3fa21bd)" style="fill: none; stroke: #b0b0b0; stroke-width: 0.8; stroke-linecap: square"/>
     </g>
     <g id="line2d_10">
      <g>
       <use xlink:href="#m7c438a02c6" x="236.16" y="307.584" style="stroke: #000000; stroke-width: 0.8"/>
      </g>
     </g>
     <g id="text_5">
      <!-- 10.0 -->
      <g transform="translate(225.027188 322.182437) scale(0.1 -0.1)">
       <defs>
        <path id="DejaVuSans-31" d="M 794 531 
L 1825 531 
L 1825 4091 
L 703 3866 
L 703 4441 
L 1819 4666 
L 2450 4666 
L 2450 531 
L 3481 531 
L 3481 0 
L 794 0 
L 794 531 
z
" transform="scale(0.015625)"/>
       </defs>
       <use xlink:href="#DejaVuSans-31"/>
       <use xlink:href="#DejaVuSans-30" x="63.623047"/>
       <use xlink:href="#DejaVuSans-2e" x="127.246094"/>
       <use xlink:href="#DejaVuSans-30" x="159.033203"/>
      </g>
     </g>
    </g>
    <g id="xtick_6">
     <g id="line2d_11">
      <path d="M 276.741818 307.584 
L 276.741818 41.472 
" clip-path="url(#p0ee3fa21bd)" style="fill: none; stroke: #b0b0b0; stroke-width: 0.8; stroke-linecap: square"/>
     </g>
     <g id="line2d_12">
      <g>
       <use xlink:href="#m7c438a02c6" x="276.741818" y="307.584" style="stroke: #000000; stroke-width: 0.8"/>
      </g>
     </g>
     <g id="text_6">
      <!-- 12.5 -->
      <g transform="translate(265.609006 322.182437) scale(0.1 -0.1)">
       <use xlink:href="#DejaVuSans-31"/>
       <use xlink:href="#DejaVuSans-32" x="63.623047"/>
       <use xlink:href="#DejaVuSans-2e" x="127.246094"/>
       <use xlink:href="#DejaVuSans-35" x="159.033203"/>
      </g>
     </g>
    </g>
    <g id="xtick_7">
     <g id="line2d_13">
      <path d="M 317.323636 307.584 
L 317.323636 41.472 
" clip-path="url(#p0ee3fa21bd)" style="fill: none; stroke: #b0b0b0; stroke-width: 0.8; stroke-linecap: square"/>
     </g>
     <g id="line2d_14">
      <g>
       <use xlink:href="#m7c438a02c6" x="317.323636" y="307.584" style="stroke: #000000; stroke-width: 0.8"/>
      </g>
     </g>
     <g id="text_7">
      <!-- 15.0 -->
      <g transform="translate(306.190824 322.182437) scale(0.1 -0.1)">
       <use xlink:href="#DejaVuSans-31"/>
       <use xlink:href="#DejaVuSans-35" x="63.623047"/>
       <use xlink:href="#DejaVuSans-2e" x="127.246094"/>
       <use xlink:href="#DejaVuSans-30" x="159.033203"/>
      </g>
     </g>
    </g>
    <g id="xtick_8">
     <g id="line2d_15">
      <path d="M 357.905455 307.584 
L 357.905455 41.472 
" clip-path="url(#p0ee3fa21bd)" style="fill: none; stroke: #b0b0b0; stroke-width: 0.8; stroke-linecap: square"/>
     </g>
     <g id="line2d_16">
      <g>
       <use xlink:href="#m7c438a02c6" x="357.905455" y="307.584" style="stroke: #000000; stroke-width: 0.8"/>
      </g>
     </g>
     <g id="text_8">
      <!-- 17.5 -->
      <g transform="translate(346.772642 322.182437) scale(0.1 -0.1)">
       <use xlink:href="#DejaVuSans-31"/>
       <use xlink:href="#DejaVuSans-37" x="63.623047"/>
       <use xlink:href="#DejaVuSans-2e" x="127.246094"/>
       <use xlink:href="#DejaVuSans-35" x="159.033203"/>
      </g>
     </g>
    </g>
    <g id="xtick_9">
     <g id="line2d_17">
      <path d="M 398.487273 307.584 
L 398.487273 41.472 
" clip-path="url(#p0ee3fa21bd)" style="fill: none; stroke: #b0b0b0; stroke-width: 0.8; stroke-linecap: square"/>
     </g>
     <g id="line2d_18">
      <g>
       <use xlink:href="#m7c438a02c6" x="398.487273" y="307.584" style="stroke: #000000; stroke-width: 0.8"/>
      </g>
     </g>
     <g id="text_9">
      <!-- 20.0 -->
      <g transform="translate(387.35446 322.182437) scale(0.1 -0.1)">
       <use xlink:href="#DejaVuSans-32"/>
       <use xlink:href="#DejaVuSans-30" x="63.623047"/>
       <use xlink:href="#DejaVuSans-2e" x="127.246094"/>
       <use xlink:href="#DejaVuSans-30" x="159.033203"/>
      </g>
     </g>
    </g>
    <g id="text_10">
     <!-- time (s) -->
     <g transform="translate(216.768594 335.860562) scale(0.1 -0.1)">
      <defs>
       <path id="DejaVuSans-74" d="M 1172 4494 
L 1172 3500 
L 2356 3500 
L 2356 3053 
L 1172 3053 
L 1172 1153 
Q 1172 725 1289 603 
Q 1406 481 1766 481 
L 2356 481 
L 2356 0 
L 1766 0 
Q 1100 0 847 248 
Q 594 497 594 1153 
L 594 3053 
L 172 3053 
L 172 3500 
L 594 3500 
L 594 4494 
L 1172 4494 
z
" transform="scale(0.015625)"/>
       <path id="DejaVuSans-69" d="M 603 3500 
L 1178 3500 
L 1178 0 
L 603 0 
L 603 3500 
z
M 603 4863 
L 1178 4863 
L 1178 4134 
L 603 4134 
L 603 4863 
z
" transform="scale(0.015625)"/>
       <path id="DejaVuSans-6d" d="M 3328 2828 
Q 3544 3216 3844 3400 
Q 4144 3584 4550 3584 
Q 5097 3584 5394 3201 
Q 5691 2819 5691 2113 
L 5691 0 
L 5113 0 
L 5113 2094 
Q 5113 2597 4934 2840 
Q 4756 3084 4391 3084 
Q 3944 3084 3684 2787 
Q 3425 2491 3425 1978 
L 3425 0 
L 2847 0 
L 2847 2094 
Q 2847 2600 2669 2842 
Q 2491 3084 2119 3084 
Q 1678 3084 1418 2786 
Q 1159 2488 1159 1978 
L 1159 0 
L 581 0 
L 581 3500 
L 1159 3500 
L 1159 2956 
Q 1356 3278 1631 3431 
Q 1906 3584 2284 3584 
Q 2666 3584 2933 3390 
Q 3200 3197 3328 2828 
z
" transform="scale(0.015625)"/>
       <path id="DejaVuSans-65" d="M 3597 1894 
L 3597 1613 
L 953 1613 
Q 991 1019 1311 708 
Q 1631 397 2203 397 
Q 2534 397 2845 478 
Q 3156 559 3463 722 
L 3463 178 
Q 3153 47 2828 -22 
Q 2503 -91 2169 -91 
Q 1331 -91 842 396 
Q 353 884 353 1716 
Q 353 2575 817 3079 
Q 1281 3584 2069 3584 
Q 2775 3584 3186 3129 
Q 3597 2675 3597 1894 
z
M 3022 2063 
Q 3016 2534 2758 2815 
Q 2500 3097 2075 3097 
Q 1594 3097 1305 2825 
Q 1016 2553 972 2059 
L 3022 2063 
z
" transform="scale(0.015625)"/>
       <path id="DejaVuSans-20" transform="scale(0.015625)"/>
       <path id="DejaVuSans-28" d="M 1984 4856 
Q 1566 4138 1362 3434 
Q 1159 2731 1159 2009 
Q 1159 1288 1364 580 
Q 1569 -128 1984 -844 
L 1484 -844 
Q 1016 -109 783 600 
Q 550 1309 550 2009 
Q 550 2706 781 3412 
Q 1013 4119 1484 4856 
L 1984 4856 
z
" transform="scale(0.015625)"/>
       <path id="DejaVuSans-73" d="M 2834 3397 
L 2834 2853 
Q 2591 2978 2328 3040 
Q 2066 3103 1784 3103 
Q 1356 3103 1142 2972 
Q 928 2841 928 2578 
Q 928 2378 1081 2264 
Q 1234 2150 1697 2047 
L 1894 2003 
Q 2506 1872 2764 1633 
Q 3022 1394 3022 966 
Q 3022 478 2636 193 
Q 2250 -91 1575 -91 
Q 1294 -91 989 -36 
Q 684 19 347 128 
L 347 722 
Q 666 556 975 473 
Q 1284 391 1588 391 
Q 1994 391 2212 530 
Q 2431 669 2431 922 
Q 2431 1156 2273 1281 
Q 2116 1406 1581 1522 
L 1381 1569 
Q 847 1681 609 1914 
Q 372 2147 372 2553 
Q 372 3047 722 3315 
Q 1072 3584 1716 3584 
Q 2034 3584 2315 3537 
Q 2597 3491 2834 3397 
z
" transform="scale(0.015625)"/>
       <path id="DejaVuSans-29" d="M 513 4856 
L 1013 4856 
Q 1481 4119 1714 3412 
Q 1947 2706 1947 2009 
Q 1947 1309 1714 600 
Q 1481 -109 1013 -844 
L 513 -844 
Q 928 -128 1133 580 
Q 1338 1288 1338 2009 
Q 1338 2731 1133 3434 
Q 928 4138 513 4856 
z
" transform="scale(0.015625)"/>
      </defs>
      <use xlink:href="#DejaVuSans-74"/>
      <use xlink:href="#DejaVuSans-69" x="39.208984"/>
      <use xlink:href="#DejaVuSans-6d" x="66.992188"/>
      <use xlink:href="#DejaVuSans-65" x="164.404297"/>
      <use xlink:href="#DejaVuSans-20" x="225.927734"/>
      <use xlink:href="#DejaVuSans-28" x="257.714844"/>
      <use xlink:href="#DejaVuSans-73" x="296.728516"/>
      <use xlink:href="#DejaVuSans-29" x="348.828125"/>
     </g>
    </g>
   </g>
   <g id="matplotlib.axis_2">
    <g id="ytick_1">
     <g id="line2d_19">
      <path d="M 57.6 275.891189 
L 414.72 275.891189 
" clip-path="url(#p0ee3fa21bd)" style="fill: none; stroke: #b0b0b0; stroke-width: 0.8; stroke-linecap: square"/>
     </g>
     <g id="line2d_20">
      <defs>
       <path id="m0d4283d92d" d="M 0 0 
L -3.5 0 
" style="stroke: #000000; stroke-width: 0.8"/>
      </defs>
      <g>
       <use xlink:href="#m0d4283d92d" x="57.6" y="275.891189" style="stroke: #000000; stroke-width: 0.8"/>
      </g>
     </g>
     <g id="text_11">
      <!-- −3 -->
      <g transform="translate(35.857813 279.690408) scale(0.1 -0.1)">
       <defs>
        <path id="DejaVuSans-2212" d="M 678 2272 
L 4684 2272 
L 4684 1741 
L 678 1741 
L 678 2272 
z
" transform="scale(0.015625)"/>
        <path id="DejaVuSans-33" d="M 2597 2516 
Q 3050 2419 3304 2112 
Q 3559 1806 3559 1356 
Q 3559 666 3084 287 
Q 2609 -91 1734 -91 
Q 1441 -91 1130 -33 
Q 819 25 488 141 
L 488 750 
Q 750 597 1062 519 
Q 1375 441 1716 441 
Q 2309 441 2620 675 
Q 2931 909 2931 1356 
Q 2931 1769 2642 2001 
Q 2353 2234 1838 2234 
L 1294 2234 
L 1294 2753 
L 1863 2753 
Q 2328 2753 2575 2939 
Q 2822 3125 2822 3475 
Q 2822 3834 2567 4026 
Q 2313 4219 1838 4219 
Q 1578 4219 1281 4162 
Q 984 4106 628 3988 
L 628 4550 
Q 988 4650 1302 4700 
Q 1616 4750 1894 4750 
Q 2613 4750 3031 4423 
Q 3450 4097 3450 3541 
Q 3450 3153 3228 2886 
Q 3006 2619 2597 2516 
z
" transform="scale(0.015625)"/>
       </defs>
       <use xlink:href="#DejaVuSans-2212"/>
       <use xlink:href="#DejaVuSans-33" x="83.789062"/>
      </g>
     </g>
    </g>
    <g id="ytick_2">
     <g id="line2d_21">
      <path d="M 57.6 240.530217 
L 414.72 240.530217 
" clip-path="url(#p0ee3fa21bd)" style="fill: none; stroke: #b0b0b0; stroke-width: 0.8; stroke-linecap: square"/>
     </g>
     <g id="line2d_22">
      <g>
       <use xlink:href="#m0d4283d92d" x="57.6" y="240.530217" style="stroke: #000000; stroke-width: 0.8"/>
      </g>
     </g>
     <g id="text_12">
      <!-- −2 -->
      <g transform="translate(35.857813 244.329436) scale(0.1 -0.1)">
       <use xlink:href="#DejaVuSans-2212"/>
       <use xlink:href="#DejaVuSans-32" x="83.789062"/>
      </g>
     </g>
    </g>
    <g id="ytick_3">
     <g id="line2d_23">
      <path d="M 57.6 205.169246 
L 414.72 205.169246 
" clip-path="url(#p0ee3fa21bd)" style="fill: none; stroke: #b0b0b0; stroke-width: 0.8; stroke-linecap: square"/>
     </g>
     <g id="line2d_24">
      <g>
       <use xlink:href="#m0d4283d92d" x="57.6" y="205.169246" style="stroke: #000000; stroke-width: 0.8"/>
      </g>
     </g>
     <g id="text_13">
      <!-- −1 -->
      <g transform="translate(35.857813 208.968464) scale(0.1 -0.1)">
       <use xlink:href="#DejaVuSans-2212"/>
       <use xlink:href="#DejaVuSans-31" x="83.789062"/>
      </g>
     </g>
    </g>
    <g id="ytick_4">
     <g id="line2d_25">
      <path d="M 57.6 169.808274 
L 414.72 169.808274 
" clip-path="url(#p0ee3fa21bd)" style="fill: none; stroke: #b0b0b0; stroke-width: 0.8; stroke-linecap: square"/>
     </g>
     <g id="line2d_26">
      <g>
       <use xlink:href="#m0d4283d92d" x="57.6" y="169.808274" style="stroke: #000000; stroke-width: 0.8"/>
      </g>
     </g>
     <g id="text_14">
      <!-- 0 -->
      <g transform="translate(44.2375 173.607493) scale(0.1 -0.1)">
       <use xlink:href="#DejaVuSans-30"/>
      </g>
     </g>
    </g>
    <g id="ytick_5">
     <g id="line2d_27">
      <path d="M 57.6 134.447302 
L 414.72 134.447302 
" clip-path="url(#p0ee3fa21bd)" style="fill: none; stroke: #b0b0b0; stroke-width: 0.8; stroke-linecap: square"/>
     </g>
     <g id="line2d_28">
      <g>
       <use xlink:href="#m0d4283d92d" x="57.6" y="134.447302" style="stroke: #000000; stroke-width: 0.8"/>
      </g>
     </g>
     <g id="text_15">
      <!-- 1 -->
      <g transform="translate(44.2375 138.246521) scale(0.1 -0.1)">
       <use xlink:href="#DejaVuSans-31"/>
      </g>
     </g>
    </g>
    <g id="ytick_6">
     <g id="line2d_29">
      <path d="M 57.6 99.08633 
L 414.72 99.08633 
" clip-path="url(#p0ee3fa21bd)" style="fill: none; stroke: #b0b0b0; stroke-width: 0.8; stroke-linecap: square"/>
     </g>
     <g id="line2d_30">
      <g>
       <use xlink:href="#m0d4283d92d" x="57.6" y="99.08633" style="stroke: #000000; stroke-width: 0.8"/>
      </g>
     </g>
     <g id="text_16">
      <!-- 2 -->
      <g transform="translate(44.2375 102.885549) scale(0.1 -0.1)">
       <use xlink:href="#DejaVuSans-32"/>
      </g>
     </g>
    </g>
    <g id="ytick_7">
     <g id="line2d_31">
      <path d="M 57.6 63.725358 
L 414.72 63.725358 
" clip-path="url(#p0ee3fa21bd)" style="fill: none; stroke: #b0b0b0; stroke-width: 0.8; stroke-linecap: square"/>
     </g>
     <g id="line2d_32">
      <g>
       <use xlink:href="#m0d4283d92d" x="57.6" y="63.725358" style="stroke: #000000; stroke-width: 0.8"/>
      </g>
     </g>
     <g id="text_17">
      <!-- 3 -->
      <g transform="translate(44.2375 67.524577) scale(0.1 -0.1)">
       <use xlink:href="#DejaVuSans-33"/>
      </g>
     </g>
    </g>
    <g id="text_18">
     <!-- theta -->
     <g transform="translate(29.778125 187.757688) rotate(-90) scale(0.1 -0.1)">
      <defs>
       <path id="DejaVuSans-68" d="M 3513 2113 
L 3513 0 
L 2938 0 
L 2938 2094 
Q 2938 2591 2744 2837 
Q 2550 3084 2163 3084 
Q 1697 3084 1428 2787 
Q 1159 2491 1159 1978 
L 1159 0 
L 581 0 
L 581 4863 
L 1159 4863 
L 1159 2956 
Q 1366 3272 1645 3428 
Q 1925 3584 2291 3584 
Q 2894 3584 3203 3211 
Q 3513 2838 3513 2113 
z
" transform="scale(0.015625)"/>
       <path id="DejaVuSans-61" d="M 2194 1759 
Q 1497 1759 1228 1600 
Q 959 1441 959 1056 
Q 959 750 1161 570 
Q 1363 391 1709 391 
Q 2188 391 2477 730 
Q 2766 1069 2766 1631 
L 2766 1759 
L 2194 1759 
z
M 3341 1997 
L 3341 0 
L 2766 0 
L 2766 531 
Q 2569 213 2275 61 
Q 1981 -91 1556 -91 
Q 1019 -91 701 211 
Q 384 513 384 1019 
Q 384 1609 779 1909 
Q 1175 2209 1959 2209 
L 2766 2209 
L 2766 2266 
Q 2766 2663 2505 2880 
Q 2244 3097 1772 3097 
Q 1472 3097 1187 3025 
Q 903 2953 641 2809 
L 641 3341 
Q 956 3463 1253 3523 
Q 1550 3584 1831 3584 
Q 2591 3584 2966 3190 
Q 3341 2797 3341 1997 
z
" transform="scale(0.015625)"/>
      </defs>
      <use xlink:href="#DejaVuSans-74"/>
      <use xlink:href="#DejaVuSans-68" x="39.208984"/>
      <use xlink:href="#DejaVuSans-65" x="102.587891"/>
      <use xlink:href="#DejaVuSans-74" x="164.111328"/>
      <use xlink:href="#DejaVuSans-61" x="203.320312"/>
     </g>
    </g>
   </g>
   <g id="line2d_33">
    <path d="M 73.832727 169.808274 
L 73.962589 169.71696 
L 74.141149 169.254799 
L 74.417105 167.793464 
L 74.790458 164.427613 
L 75.27744 157.772103 
L 75.894284 145.951546 
L 76.657222 126.661042 
L 78.523985 76.699224 
L 79.238225 64.526965 
L 79.838836 57.744721 
L 80.309585 54.668992 
L 80.63424 53.699522 
L 80.845265 53.571281 
L 81.040058 53.796203 
L 81.299782 54.612265 
L 81.624436 56.432304 
L 82.06272 60.266068 
L 82.647098 67.731426 
L 83.31264 79.251235 
L 84.156742 97.870107 
L 85.260567 127.424959 
L 87.289658 189.312585 
L 89.091491 241.014444 
L 90.179084 265.966738 
L 91.023185 280.595633 
L 91.688727 288.781793 
L 92.224407 293.052673 
L 92.630225 294.879399 
L 92.922415 295.438715 
L 93.13344 295.448993 
L 93.344465 295.13117 
L 93.620422 294.222293 
L 94.010007 292.014926 
L 94.496989 287.769604 
L 95.130065 279.938402 
L 95.925469 266.756074 
L 96.8832 246.874175 
L 98.409076 209.420489 
L 101.006313 145.559616 
L 102.110138 124.45952 
L 102.970473 112.236129 
L 103.636015 105.709412 
L 104.155462 102.501251 
L 104.545047 101.199806 
L 104.837236 100.850841 
L 105.032029 100.914482 
L 105.27552 101.323136 
L 105.551476 102.212647 
L 105.973527 104.443359 
L 106.444276 108.117806 
L 107.142284 115.670136 
L 107.95392 127.156125 
L 109.090211 146.848619 
L 112.921135 215.867483 
L 113.765236 226.023192 
L 114.430778 231.750693 
L 114.950225 234.706678 
L 115.420975 236.181323 
L 115.713164 236.511478 
L 115.924189 236.491308 
L 116.216378 236.07268 
L 116.589731 234.92084 
L 117.076713 232.398128 
L 117.579927 228.659252 
L 118.342865 221.013226 
L 119.186967 210.273071 
L 120.420655 191.722986 
L 122.871796 154.117398 
L 123.813295 142.648438 
L 124.576233 135.505719 
L 125.258007 131.047837 
L 125.80992 128.854714 
L 126.183273 128.095005 
L 126.475462 127.931834 
L 126.767651 128.119546 
L 127.157236 128.932498 
L 127.660451 130.86536 
L 128.1312 133.519662 
L 128.796742 138.545297 
L 129.689542 147.194501 
L 131.118022 163.772645 
L 133.147113 187.197429 
L 134.267171 197.21118 
L 135.09504 202.335352 
L 135.598255 204.355252 
L 136.069004 205.453371 
L 136.361193 205.750271 
L 136.653382 205.749049 
L 136.831942 205.601221 
L 137.091665 205.201362 
L 137.578647 203.852343 
L 138.244189 200.814073 
L 138.925964 196.433226 
L 139.91616 188.341428 
L 141.360873 174.386735 
L 142.821818 160.647825 
L 143.974342 151.887819 
L 144.753513 147.648635 
L 145.305425 145.591827 
L 145.727476 144.599717 
L 146.084596 144.146228 
L 146.409251 144.049584 
L 146.831302 144.374952 
L 147.091025 144.807077 
L 147.545542 146.008621 
L 148.211084 148.646497 
L 148.827927 151.910804 
L 149.672029 157.364417 
L 151.149207 168.264188 
L 152.480291 177.877254 
L 153.66528 184.442661 
L 154.509382 187.535151 
L 154.996364 188.634305 
L 155.548276 189.214762 
L 155.824233 189.231555 
L 156.230051 188.970223 
L 156.830662 187.922116 
L 157.642298 185.379702 
L 158.356538 182.157361 
L 159.233105 177.482374 
L 160.596655 169.348759 
L 161.895273 162.110579 
L 162.723142 158.383195 
L 163.632175 155.48204 
L 164.265251 154.31418 
L 164.654836 153.95277 
L 165.174284 153.903211 
L 165.385309 154.025527 
L 165.709964 154.35571 
L 166.489135 155.855502 
L 167.544262 159.272135 
L 168.469527 163.149461 
L 169.800611 169.23604 
L 171.16416 175.021503 
L 171.992029 177.603946 
L 172.917295 179.502765 
L 173.371811 180.066318 
L 173.631535 180.207275 
L 174.264611 180.110776 
L 174.573033 179.897116 
L 175.319738 178.922715 
L 175.839185 177.680206 
L 176.456029 175.887607 
L 177.267665 173.15352 
L 180.205789 163.328553 
L 180.952495 161.628132 
L 181.910225 160.259699 
L 182.41344 159.959476 
L 182.819258 159.959726 
L 183.419869 160.257664 
L 184.085411 161.027648 
L 184.864582 162.433623 
L 189.182487 173.181291 
L 189.7344 173.997199 
L 190.205149 174.509825 
L 191.114182 174.983634 
L 191.990749 174.800435 
L 192.980945 173.873274 
L 193.419229 173.249246 
L 195.740509 168.836803 
L 196.487215 167.368432 
L 198.467607 164.532912 
L 199.717527 163.922935 
L 200.350604 164.050062 
L 201.470662 164.816424 
L 202.720582 166.371311 
L 206.243084 171.53892 
L 207.509236 172.344399 
L 208.694225 172.272126 
L 209.035113 172.114406 
L 210.496058 170.797441 
L 210.853178 170.469918 
L 211.258996 170.098675 
L 213.109527 167.986416 
L 213.596509 167.537776 
L 214.132189 167.0277 
L 214.489309 166.760053 
L 214.960058 166.531654 
L 215.528204 166.248573 
L 216.16128 166.205166 
L 216.632029 166.218847 
L 216.956684 166.244939 
L 217.524829 166.544565 
L 217.995578 166.778769 
L 220.398022 168.697949 
L 220.998633 169.357396 
L 222.94656 170.699329 
L 224.683462 170.753881 
L 225.056815 170.634872 
L 225.316538 170.588553 
L 225.689891 170.578751 
L 227.702749 169.74099 
L 228.595549 169.048234 
L 231.127855 167.679235 
L 231.566138 167.663712 
L 232.036887 167.628862 
L 232.475171 167.598442 
L 232.94592 167.553744 
L 233.83872 167.817117 
L 234.309469 167.996098 
L 234.780218 168.151591 
L 235.250967 168.299344 
L 235.543156 168.413453 
L 236.078836 168.812808 
L 236.646982 169.175833 
L 237.117731 169.438941 
L 237.685876 169.687557 
L 238.12416 169.83996 
L 238.65984 169.959739 
L 239.065658 170.015899 
L 239.633804 170.024433 
L 240.007156 170.000312 
L 240.218182 170.035098 
L 240.818793 170.200112 
L 241.224611 170.265323 
L 241.825222 170.273331 
L 242.198575 170.239793 
L 242.831651 170.096976 
L 243.205004 169.979081 
L 243.83808 169.707907 
L 244.227665 169.511767 
L 244.633484 169.290965 
L 245.234095 168.924822 
L 246.451549 168.601946 
L 246.857367 168.529097 
L 247.328116 168.425937 
L 247.733935 168.339949 
L 248.204684 168.228598 
L 249.324742 168.382954 
L 249.779258 168.5016 
L 250.217542 168.609972 
L 250.655825 168.69904 
L 251.094109 168.785763 
L 251.532393 168.852631 
L 251.970676 168.91694 
L 252.197935 168.995466 
L 252.701149 169.305032 
L 253.204364 169.56897 
L 253.65888 169.775834 
L 254.097164 169.945204 
L 254.600378 170.086236 
L 255.006196 170.172503 
L 255.509411 170.225295 
L 255.882764 170.240595 
L 256.385978 170.209637 
L 256.759331 170.165017 
L 257.295011 170.049811 
L 257.668364 169.951243 
L 258.204044 169.766963 
L 258.577396 169.626976 
L 259.113076 169.394114 
L 259.518895 169.213373 
L 259.973411 168.998874 
L 260.379229 169.024158 
L 260.817513 169.029278 
L 261.223331 169.031379 
L 261.661615 169.01366 
L 262.067433 168.99697 
L 262.505716 168.96176 
L 262.911535 168.931712 
L 263.349818 168.885298 
L 263.755636 168.848 
L 264.19392 168.797172 
L 264.599738 168.758981 
L 264.778298 168.806879 
L 265.216582 168.988655 
L 265.687331 169.178431 
L 266.125615 169.330516 
L 266.563898 169.474129 
L 267.002182 169.589806 
L 267.424233 169.68632 
L 267.830051 169.765053 
L 268.268335 169.819832 
L 268.674153 169.859596 
L 269.112436 169.872262 
L 269.502022 169.869663 
L 269.875375 169.856526 
L 270.346124 169.809958 
L 270.719476 169.766534 
L 271.190225 169.685278 
L 271.563578 169.61759 
L 272.034327 169.510345 
L 272.440145 169.41808 
L 272.910895 169.294887 
L 273.316713 169.194113 
L 273.527738 169.206128 
L 273.966022 169.320328 
L 274.404305 169.429452 
L 274.842589 169.514422 
L 275.248407 169.587562 
L 275.686691 169.641316 
L 276.092509 169.684876 
L 276.530793 169.706466 
L 276.936611 169.720553 
L 277.374895 169.711168 
L 277.76448 169.694287 
L 278.154065 169.666419 
L 278.527418 169.634818 
L 278.965702 169.577437 
L 279.355287 169.522339 
L 279.761105 169.462863 
L 280.199389 169.383447 
L 280.605207 169.315139 
L 281.043491 169.230172 
L 281.449309 169.160488 
L 281.887593 169.078067 
L 282.293411 169.014411 
L 282.618065 168.981818 
L 283.088815 169.174861 
L 283.494633 169.325127 
L 283.932916 169.486548 
L 284.338735 169.615653 
L 284.777018 169.75013 
L 285.182836 169.850888 
L 285.588655 169.945152 
L 286.026938 170.018752 
L 286.432756 170.077673 
L 286.87104 170.111819 
L 287.244393 170.132952 
L 287.682676 170.128713 
L 288.056029 170.117789 
L 288.494313 170.077293 
L 288.867665 170.037172 
L 289.338415 169.959336 
L 289.711767 169.893957 
L 290.182516 169.788428 
L 290.555869 169.704769 
L 291.026618 169.581236 
L 291.399971 169.487548 
L 291.838255 169.365623 
L 292.244073 169.262107 
L 292.682356 169.143911 
L 293.088175 169.048633 
L 293.526458 168.944282 
L 293.932276 168.866148 
L 294.338095 168.78979 
L 294.743913 168.735213 
L 295.149731 168.685226 
L 295.847738 168.932085 
L 296.350953 169.186557 
L 296.756771 169.379759 
L 297.22752 169.605591 
L 297.633338 169.78128 
L 298.071622 169.96661 
L 298.47744 170.11364 
L 298.915724 170.262555 
L 299.354007 170.379587 
L 299.759825 170.475016 
L 300.198109 170.543413 
L 300.571462 170.589062 
L 301.009745 170.607227 
L 301.383098 170.609754 
L 301.853847 170.57473 
L 302.2272 170.534131 
L 302.697949 170.447372 
L 303.071302 170.368588 
L 304.418618 169.771034 
L 304.791971 169.660009 
L 305.26272 169.505463 
L 305.636073 169.390566 
L 306.074356 169.24774 
L 306.480175 169.129264 
L 306.918458 168.999679 
L 307.324276 168.898647 
L 307.730095 168.800032 
L 308.135913 168.724433 
L 308.541731 168.654792 
L 308.947549 168.611178 
L 309.320902 168.577695 
L 309.759185 168.568455 
L 310.132538 168.5692 
L 310.570822 168.600596 
L 310.944175 168.635703 
L 311.382458 168.706388 
L 311.707113 168.76801 
L 312.275258 169.219565 
L 312.713542 169.556289 
L 313.249222 169.963952 
L 313.719971 170.291803 
L 314.19072 170.601173 
L 314.823796 170.695658 
L 315.26208 170.664831 
L 315.635433 170.633188 
L 316.073716 170.570064 
L 316.447069 170.512479 
L 316.885353 170.421304 
L 317.258705 170.342305 
L 317.696989 170.229366 
L 318.070342 170.135041 
L 318.508625 170.00821 
L 318.881978 169.905763 
L 319.320262 169.773918 
L 319.693615 169.671137 
L 320.131898 169.543514 
L 320.537716 169.439765 
L 320.943535 169.333723 
L 321.349353 169.246124 
L 321.755171 169.159745 
L 322.160989 169.094971 
L 322.566807 169.034147 
L 322.972625 168.997197 
L 323.167418 169.038923 
L 323.670633 169.300989 
L 324.076451 169.50262 
L 324.5472 169.740684 
L 324.953018 169.928144 
L 325.391302 170.12736 
L 325.79712 170.287448 
L 326.235404 170.450608 
L 327.128204 170.38437 
L 327.598953 170.225244 
L 327.972305 170.103267 
L 328.410589 169.947659 
L 328.783942 169.8243 
L 329.222225 169.672343 
L 329.595578 169.556544 
L 330.033862 169.418516 
L 330.43968 169.31004 
L 330.699404 169.281508 
L 331.137687 169.432964 
L 331.51104 169.551729 
L 331.949324 169.697452 
L 332.322676 169.807482 
L 332.76096 169.938604 
L 333.166778 170.040853 
L 333.572596 170.141311 
L 333.978415 170.219457 
L 334.384233 170.29311 
L 335.212102 170.070234 
L 335.682851 169.8474 
L 336.088669 169.668797 
L 336.494487 169.507352 
L 336.86784 169.563535 
L 337.273658 169.63251 
L 337.647011 169.684146 
L 338.052829 169.746545 
L 338.458647 169.794759 
L 338.864465 169.847163 
L 339.270284 169.884003 
L 339.676102 169.923856 
L 340.08192 169.947175 
L 340.455273 169.971384 
L 340.861091 169.980563 
L 341.234444 169.99156 
L 341.640262 169.986381 
L 342.013615 169.984391 
L 342.419433 169.965561 
L 342.792785 169.951647 
L 343.198604 169.920751 
L 343.571956 169.896743 
L 343.977775 169.856138 
L 344.351127 169.824508 
L 344.756945 169.777167 
L 345.130298 169.740864 
L 345.536116 169.690171 
L 345.909469 169.652423 
L 346.315287 169.601948 
L 346.68864 169.56604 
L 347.094458 169.519296 
L 347.467811 169.488352 
L 347.873629 169.448556 
L 348.279447 169.423093 
L 348.685265 169.393405 
L 349.091084 169.379236 
L 349.464436 169.362572 
L 349.870255 169.36085 
L 350.243607 169.356054 
L 350.649425 169.36746 
L 351.022778 169.374737 
L 351.428596 169.399031 
L 351.801949 169.417739 
L 352.207767 169.45378 
L 352.58112 169.482477 
L 352.986938 169.528303 
L 353.360291 169.564852 
L 353.766109 169.617817 
L 354.139462 169.659532 
L 354.54528 169.716494 
L 354.918633 169.760327 
L 355.324451 169.817863 
L 355.697804 169.860618 
L 356.103622 169.915261 
L 356.476975 169.953809 
L 356.882793 170.002287 
L 357.256145 170.033789 
L 357.661964 170.073251 
L 358.067782 170.097447 
L 358.441135 170.123558 
L 358.846953 170.135633 
L 359.220305 170.150025 
L 359.626124 170.148958 
L 359.999476 170.151099 
L 360.405295 170.136767 
L 360.778647 170.126961 
L 361.184465 170.100144 
L 361.557818 170.079511 
L 361.963636 170.041837 
L 362.336989 170.01223 
L 362.742807 169.966066 
L 363.11616 169.929947 
L 363.521978 169.878229 
L 363.895331 169.838494 
L 364.301149 169.784529 
L 364.674502 169.744311 
L 365.08032 169.691544 
L 365.453673 169.653997 
L 365.859491 169.605778 
L 366.232844 169.573859 
L 366.638662 169.533211 
L 367.012015 169.509477 
L 367.385367 169.480734 
L 367.791185 169.465323 
L 368.164538 169.44745 
L 368.570356 169.444453 
L 368.943709 169.438351 
L 369.349527 169.448307 
L 369.72288 169.454058 
L 370.128698 169.476607 
L 370.502051 169.493474 
L 370.907869 169.527387 
L 371.281222 169.553865 
L 371.68704 169.597129 
L 372.060393 169.631051 
L 372.466211 169.681012 
L 372.839564 169.719704 
L 373.245382 169.77325 
L 373.618735 169.813712 
L 374.024553 169.867493 
L 374.397905 169.90661 
L 374.803724 169.957267 
L 375.177076 169.992025 
L 375.582895 170.036422 
L 375.956247 170.064116 
L 376.345833 170.093585 
L 376.719185 170.121919 
L 377.125004 170.136877 
L 377.498356 170.154398 
L 377.904175 170.157045 
L 378.277527 170.162926 
L 378.683345 170.152795 
L 379.056698 170.147014 
L 379.462516 170.124524 
L 379.835869 170.107864 
L 380.241687 170.074286 
L 380.61504 170.04828 
L 381.020858 170.005646 
L 381.394211 169.972469 
L 381.800029 169.923432 
L 382.173382 169.885746 
L 382.5792 169.833392 
L 382.952553 169.794165 
L 383.358371 169.7418 
L 383.731724 169.704095 
L 384.137542 169.655014 
L 384.510895 169.621779 
L 384.916713 169.57904 
L 385.290065 169.552905 
L 385.663418 169.521233 
L 386.036771 169.503907 
L 386.410124 169.481814 
L 386.815942 169.473896 
L 387.189295 169.462929 
L 387.595113 169.467425 
L 387.968465 169.467973 
L 388.374284 169.484871 
L 388.747636 169.496524 
L 389.153455 169.524952 
L 389.526807 169.546529 
L 389.932625 169.584818 
L 390.305978 169.614456 
L 390.711796 169.660257 
L 391.085149 169.695539 
L 391.490967 169.745991 
L 391.86432 169.784113 
L 392.270138 169.836041 
L 392.643491 169.874013 
L 393.049309 169.924149 
L 393.422662 169.959 
L 393.82848 170.004211 
L 394.201833 170.033197 
L 394.591418 170.064613 
L 394.964771 170.095346 
L 395.338124 170.111757 
L 395.711476 170.133016 
L 396.117295 170.140088 
L 396.490647 170.150389 
L 396.896465 170.14526 
L 397.269818 170.144267 
L 397.675636 170.126997 
L 398.048989 170.115156 
L 398.454807 170.086651 
L 398.487273 170.084528 
L 398.487273 170.084528 
" clip-path="url(#p0ee3fa21bd)" style="fill: none; stroke-dasharray: 5.55,2.4; stroke-dashoffset: 0; stroke: #ff0000; stroke-opacity: 0.2; stroke-width: 1.5"/>
   </g>
   <g id="line2d_34">
    <path d="M 73.832727 169.808274 
L 74.790458 169.69953 
L 75.326138 169.403441 
L 75.829353 168.857997 
L 76.3488 167.942584 
L 76.900713 166.49569 
L 77.517556 164.218906 
L 78.296727 160.419394 
L 79.319389 154.230045 
L 81.056291 142.090138 
L 82.923055 129.54929 
L 83.994415 123.795686 
L 84.822284 120.464897 
L 85.487825 118.615339 
L 86.023505 117.707742 
L 86.445556 117.37196 
L 86.802676 117.353047 
L 87.143564 117.562431 
L 87.549382 118.099599 
L 88.036364 119.150086 
L 88.636975 121.033323 
L 89.351215 124.060963 
L 90.227782 128.809963 
L 91.364073 136.305532 
L 93.198371 150.157568 
L 95.308625 165.622162 
L 96.477382 172.615028 
L 97.402647 176.916759 
L 98.181818 179.559377 
L 98.831127 181.034865 
L 99.366807 181.747556 
L 99.805091 181.994275 
L 100.194676 181.966172 
L 100.600495 181.698618 
L 101.071244 181.098974 
L 101.655622 179.955554 
L 102.369862 178.030886 
L 103.295127 174.851185 
L 104.723607 169.035312 
L 106.866327 160.417105 
L 107.888989 157.217255 
L 108.684393 155.402577 
L 109.333702 154.430985 
L 109.869382 153.999383 
L 110.323898 153.902872 
L 110.762182 154.04445 
L 111.232931 154.449139 
L 111.784844 155.245066 
L 112.450385 156.635979 
L 113.262022 158.894433 
L 114.317149 162.555895 
L 116.086516 169.660082 
L 117.920815 176.705288 
L 118.992175 179.981369 
L 119.836276 181.909114 
L 120.550516 183.024213 
L 121.151127 183.575968 
L 121.670575 183.76695 
L 122.157556 183.71012 
L 122.677004 183.408993 
L 123.261382 182.794776 
L 123.975622 181.693407 
L 124.884655 179.843135 
L 126.264436 176.453804 
L 128.407156 171.235529 
L 129.413585 169.370461 
L 130.208989 168.333379 
L 130.874531 167.807046 
L 131.458909 167.614464 
L 132.010822 167.664546 
L 132.578967 167.947271 
L 133.212044 168.524323 
L 133.958749 169.521745 
L 134.900247 171.175421 
L 136.328727 174.196305 
L 138.503913 178.741734 
L 139.526575 180.368581 
L 140.354444 181.296545 
L 141.052451 181.76904 
L 141.685527 181.941464 
L 142.302371 181.878476 
L 142.95168 181.578281 
L 143.682153 180.981749 
L 144.574953 179.945188 
L 145.841105 178.092204 
L 148.438342 174.228413 
L 149.428538 173.181517 
L 150.256407 172.611921 
L 150.98688 172.367333 
L 151.684887 172.36458 
L 152.399127 172.590105 
L 153.210764 173.093711 
L 154.184727 173.978087 
L 155.678138 175.681554 
L 157.690996 177.921765 
L 158.729891 178.751804 
L 159.606458 179.182432 
L 160.401862 179.331578 
L 161.181033 179.251948 
L 162.008902 178.93747 
L 162.966633 178.321427 
L 164.249018 177.201997 
L 167.317004 174.424937 
L 168.372131 173.821562 
L 169.297396 173.538405 
L 170.190196 173.494236 
L 171.099229 173.668498 
L 172.170589 174.115024 
L 173.680233 175.007781 
L 176.001513 176.36728 
L 177.137804 176.762916 
L 178.176698 176.889771 
L 179.183127 176.786734 
L 180.27072 176.444833 
L 181.618036 175.772018 
L 185.578822 173.643873 
L 186.763811 173.346149 
L 187.883869 173.285701 
L 189.150022 173.447318 
L 190.854458 173.910807 
L 193.808815 174.725533 
L 195.188596 174.847901 
L 196.51968 174.747764 
L 197.996858 174.40704 
L 200.399302 173.578088 
L 202.574487 172.925516 
L 204.116596 172.69482 
L 205.674938 172.689187 
L 207.655331 172.9347 
L 210.772015 173.317826 
L 212.655011 173.289724 
L 214.602938 173.013115 
L 220.592815 171.976172 
L 222.573207 171.980679 
L 229.0176 172.166479 
L 231.87456 171.861264 
L 236.468422 171.359887 
L 239.357847 171.340551 
L 246.143127 171.322065 
L 254.714007 170.822551 
L 260.44416 170.820497 
L 269.258531 170.504329 
L 274.793891 170.415366 
L 289.078691 170.262108 
L 293.071942 170.19961 
L 299.354007 170.015823 
L 306.382778 170.156144 
L 310.716916 169.868869 
L 313.622575 169.766103 
L 322.323316 169.887918 
L 325.926982 169.833067 
L 330.634473 169.878726 
L 334.059578 169.876277 
L 338.620975 169.886035 
L 351.899345 169.78584 
L 357.629498 169.763605 
L 367.872349 169.816405 
L 376.134807 169.750533 
L 386.475055 169.812451 
L 394.834909 169.756331 
L 398.487273 169.828127 
L 398.487273 169.828127 
" clip-path="url(#p0ee3fa21bd)" style="fill: none; stroke: #008000; stroke-width: 1.5; stroke-linecap: square"/>
   </g>
   <g id="patch_3">
    <path d="M 57.6 307.584 
L 57.6 41.472 
" style="fill: none; stroke: #000000; stroke-width: 0.8; stroke-linejoin: miter; stroke-linecap: square"/>
   </g>
   <g id="patch_4">
    <path d="M 414.72 307.584 
L 414.72 41.472 
" style="fill: none; stroke: #000000; stroke-width: 0.8; stroke-linejoin: miter; stroke-linecap: square"/>
   </g>
   <g id="patch_5">
    <path d="M 57.6 307.584 
L 414.72 307.584 
" style="fill: none; stroke: #000000; stroke-width: 0.8; stroke-linejoin: miter; stroke-linecap: square"/>
   </g>
   <g id="patch_6">
    <path d="M 57.6 41.472 
L 414.72 41.472 
" style="fill: none; stroke: #000000; stroke-width: 0.8; stroke-linejoin: miter; stroke-linecap: square"/>
   </g>
   <g id="text_19">
    <!-- theta vs time -->
    <g transform="translate(196.238438 35.472) scale(0.12 -0.12)">
     <defs>
      <path id="DejaVuSans-76" d="M 191 3500 
L 800 3500 
L 1894 563 
L 2988 3500 
L 3597 3500 
L 2284 0 
L 1503 0 
L 191 3500 
z
" transform="scale(0.015625)"/>
     </defs>
     <use xlink:href="#DejaVuSans-74"/>
     <use xlink:href="#DejaVuSans-68" x="39.208984"/>
     <use xlink:href="#DejaVuSans-65" x="102.587891"/>
     <use xlink:href="#DejaVuSans-74" x="164.111328"/>
     <use xlink:href="#DejaVuSans-61" x="203.320312"/>
     <use xlink:href="#DejaVuSans-20" x="264.599609"/>
     <use xlink:href="#DejaVuSans-76" x="296.386719"/>
     <use xlink:href="#DejaVuSans-73" x="355.566406"/>
     <use xlink:href="#DejaVuSans-20" x="407.666016"/>
     <use xlink:href="#DejaVuSans-74" x="439.453125"/>
     <use xlink:href="#DejaVuSans-69" x="478.662109"/>
     <use xlink:href="#DejaVuSans-6d" x="506.445312"/>
     <use xlink:href="#DejaVuSans-65" x="603.857422"/>
    </g>
   </g>
   <g id="legend_1">
    <g id="patch_7">
     <path d="M 273.271563 79.106375 
L 407.72 79.106375 
Q 409.72 79.106375 409.72 77.106375 
L 409.72 48.472 
Q 409.72 46.472 407.72 46.472 
L 273.271563 46.472 
Q 271.271563 46.472 271.271563 48.472 
L 271.271563 77.106375 
Q 271.271563 79.106375 273.271563 79.106375 
z
" style="fill: #ffffff; opacity: 0.8; stroke: #cccccc; stroke-linejoin: miter"/>
    </g>
    <g id="line2d_35">
     <path d="M 275.271563 54.570438 
L 285.271563 54.570438 
L 295.271563 54.570438 
" style="fill: none; stroke-dasharray: 5.55,2.4; stroke-dashoffset: 0; stroke: #ff0000; stroke-opacity: 0.2; stroke-width: 1.5"/>
    </g>
    <g id="text_20">
     <!-- theta_dot (degree/s) -->
     <g transform="translate(303.271563 58.070438) scale(0.1 -0.1)">
      <defs>
       <path id="DejaVuSans-5f" d="M 3263 -1063 
L 3263 -1509 
L -63 -1509 
L -63 -1063 
L 3263 -1063 
z
" transform="scale(0.015625)"/>
       <path id="DejaVuSans-64" d="M 2906 2969 
L 2906 4863 
L 3481 4863 
L 3481 0 
L 2906 0 
L 2906 525 
Q 2725 213 2448 61 
Q 2172 -91 1784 -91 
Q 1150 -91 751 415 
Q 353 922 353 1747 
Q 353 2572 751 3078 
Q 1150 3584 1784 3584 
Q 2172 3584 2448 3432 
Q 2725 3281 2906 2969 
z
M 947 1747 
Q 947 1113 1208 752 
Q 1469 391 1925 391 
Q 2381 391 2643 752 
Q 2906 1113 2906 1747 
Q 2906 2381 2643 2742 
Q 2381 3103 1925 3103 
Q 1469 3103 1208 2742 
Q 947 2381 947 1747 
z
" transform="scale(0.015625)"/>
       <path id="DejaVuSans-6f" d="M 1959 3097 
Q 1497 3097 1228 2736 
Q 959 2375 959 1747 
Q 959 1119 1226 758 
Q 1494 397 1959 397 
Q 2419 397 2687 759 
Q 2956 1122 2956 1747 
Q 2956 2369 2687 2733 
Q 2419 3097 1959 3097 
z
M 1959 3584 
Q 2709 3584 3137 3096 
Q 3566 2609 3566 1747 
Q 3566 888 3137 398 
Q 2709 -91 1959 -91 
Q 1206 -91 779 398 
Q 353 888 353 1747 
Q 353 2609 779 3096 
Q 1206 3584 1959 3584 
z
" transform="scale(0.015625)"/>
       <path id="DejaVuSans-67" d="M 2906 1791 
Q 2906 2416 2648 2759 
Q 2391 3103 1925 3103 
Q 1463 3103 1205 2759 
Q 947 2416 947 1791 
Q 947 1169 1205 825 
Q 1463 481 1925 481 
Q 2391 481 2648 825 
Q 2906 1169 2906 1791 
z
M 3481 434 
Q 3481 -459 3084 -895 
Q 2688 -1331 1869 -1331 
Q 1566 -1331 1297 -1286 
Q 1028 -1241 775 -1147 
L 775 -588 
Q 1028 -725 1275 -790 
Q 1522 -856 1778 -856 
Q 2344 -856 2625 -561 
Q 2906 -266 2906 331 
L 2906 616 
Q 2728 306 2450 153 
Q 2172 0 1784 0 
Q 1141 0 747 490 
Q 353 981 353 1791 
Q 353 2603 747 3093 
Q 1141 3584 1784 3584 
Q 2172 3584 2450 3431 
Q 2728 3278 2906 2969 
L 2906 3500 
L 3481 3500 
L 3481 434 
z
" transform="scale(0.015625)"/>
       <path id="DejaVuSans-72" d="M 2631 2963 
Q 2534 3019 2420 3045 
Q 2306 3072 2169 3072 
Q 1681 3072 1420 2755 
Q 1159 2438 1159 1844 
L 1159 0 
L 581 0 
L 581 3500 
L 1159 3500 
L 1159 2956 
Q 1341 3275 1631 3429 
Q 1922 3584 2338 3584 
Q 2397 3584 2469 3576 
Q 2541 3569 2628 3553 
L 2631 2963 
z
" transform="scale(0.015625)"/>
       <path id="DejaVuSans-2f" d="M 1625 4666 
L 2156 4666 
L 531 -594 
L 0 -594 
L 1625 4666 
z
" transform="scale(0.015625)"/>
      </defs>
      <use xlink:href="#DejaVuSans-74"/>
      <use xlink:href="#DejaVuSans-68" x="39.208984"/>
      <use xlink:href="#DejaVuSans-65" x="102.587891"/>
      <use xlink:href="#DejaVuSans-74" x="164.111328"/>
      <use xlink:href="#DejaVuSans-61" x="203.320312"/>
      <use xlink:href="#DejaVuSans-5f" x="264.599609"/>
      <use xlink:href="#DejaVuSans-64" x="314.599609"/>
      <use xlink:href="#DejaVuSans-6f" x="378.076172"/>
      <use xlink:href="#DejaVuSans-74" x="439.257812"/>
      <use xlink:href="#DejaVuSans-20" x="478.466797"/>
      <use xlink:href="#DejaVuSans-28" x="510.253906"/>
      <use xlink:href="#DejaVuSans-64" x="549.267578"/>
      <use xlink:href="#DejaVuSans-65" x="612.744141"/>
      <use xlink:href="#DejaVuSans-67" x="674.267578"/>
      <use xlink:href="#DejaVuSans-72" x="737.744141"/>
      <use xlink:href="#DejaVuSans-65" x="776.607422"/>
      <use xlink:href="#DejaVuSans-65" x="838.130859"/>
      <use xlink:href="#DejaVuSans-2f" x="899.654297"/>
      <use xlink:href="#DejaVuSans-73" x="933.345703"/>
      <use xlink:href="#DejaVuSans-29" x="985.445312"/>
     </g>
    </g>
    <g id="line2d_36">
     <path d="M 275.271563 69.526688 
L 285.271563 69.526688 
L 295.271563 69.526688 
" style="fill: none; stroke: #008000; stroke-width: 1.5; stroke-linecap: square"/>
    </g>
    <g id="text_21">
     <!-- theta (degree) -->
     <g transform="translate(303.271563 73.026688) scale(0.1 -0.1)">
      <use xlink:href="#DejaVuSans-74"/>
      <use xlink:href="#DejaVuSans-68" x="39.208984"/>
      <use xlink:href="#DejaVuSans-65" x="102.587891"/>
      <use xlink:href="#DejaVuSans-74" x="164.111328"/>
      <use xlink:href="#DejaVuSans-61" x="203.320312"/>
      <use xlink:href="#DejaVuSans-20" x="264.599609"/>
      <use xlink:href="#DejaVuSans-28" x="296.386719"/>
      <use xlink:href="#DejaVuSans-64" x="335.400391"/>
      <use xlink:href="#DejaVuSans-65" x="398.876953"/>
      <use xlink:href="#DejaVuSans-67" x="460.400391"/>
      <use xlink:href="#DejaVuSans-72" x="523.876953"/>
      <use xlink:href="#DejaVuSans-65" x="562.740234"/>
      <use xlink:href="#DejaVuSans-65" x="624.263672"/>
      <use xlink:href="#DejaVuSans-29" x="685.787109"/>
     </g>
    </g>
   </g>
  </g>
 </g>
 <defs>
  <clipPath id="p0ee3fa21bd">
   <rect x="57.6" y="41.472" width="357.12" height="266.112"/>
  </clipPath>
 </defs>
</svg>
