<?xml version="1.0" encoding="utf-8" standalone="no"?>
<!DOCTYPE svg PUBLIC "-//W3C//DTD SVG 1.1//EN"
  "http://www.w3.org/Graphics/SVG/1.1/DTD/svg11.dtd">
<svg xmlns:xlink="http://www.w3.org/1999/xlink" width="460.8pt" height="345.6pt" viewBox="0 0 460.8 345.6" xmlns="http://www.w3.org/2000/svg" version="1.1">
 <metadata>
  <rdf:RDF xmlns:dc="http://purl.org/dc/elements/1.1/" xmlns:cc="http://creativecommons.org/ns#" xmlns:rdf="http://www.w3.org/1999/02/22-rdf-syntax-ns#">
   <cc:Work>
    <dc:type rdf:resource="http://purl.org/dc/dcmitype/StillImage"/>
    <dc:date>2023-06-29T16:31:51.592560</dc:date>
    <dc:format>image/svg+xml</dc:format>
    <dc:creator>
     <cc:Agent>
      <dc:title>Matplotlib v3.7.1, https://matplotlib.org/</dc:title>
     </cc:Agent>
    </dc:creator>
   </cc:Work>
  </rdf:RDF>
 </metadata>
 <defs>
  <style type="text/css">*{stroke-linejoin: round; stroke-linecap: butt}</style>
 </defs>
 <g id="figure_1">
  <g id="patch_1">
   <path d="M 0 345.6 
L 460.8 345.6 
L 460.8 0 
L 0 0 
L 0 345.6 
z
" style="fill: none"/>
  </g>
  <g id="axes_1">
   <g id="patch_2">
    <path d="M 57.6 307.584 
L 414.72 307.584 
L 414.72 41.472 
L 57.6 41.472 
L 57.6 307.584 
z
" style="fill: none"/>
   </g>
   <g id="matplotlib.axis_1">
    <g id="xtick_1">
     <g id="line2d_1">
      <path d="M 73.832727 307.584 
L 73.832727 41.472 
" clip-path="url(#pc6d4ffab16)" style="fill: none; stroke: #b0b0b0; stroke-width: 0.8; stroke-linecap: square"/>
     </g>
     <g id="line2d_2">
      <defs>
       <path id="mdf4d9a3e92" d="M 0 0 
L 0 3.5 
" style="stroke: #000000; stroke-width: 0.8"/>
      </defs>
      <g>
       <use xlink:href="#mdf4d9a3e92" x="73.832727" y="307.584" style="stroke: #000000; stroke-width: 0.8"/>
      </g>
     </g>
     <g id="text_1">
      <!-- 0.0 -->
      <g transform="translate(65.881165 322.182437) scale(0.1 -0.1)">
       <defs>
        <path id="DejaVuSans-30" d="M 2034 4250 
Q 1547 4250 1301 3770 
Q 1056 3291 1056 2328 
Q 1056 1369 1301 889 
Q 1547 409 2034 409 
Q 2525 409 2770 889 
Q 3016 1369 3016 2328 
Q 3016 3291 2770 3770 
Q 2525 4250 2034 4250 
z
M 2034 4750 
Q 2819 4750 3233 4129 
Q 3647 3509 3647 2328 
Q 3647 1150 3233 529 
Q 2819 -91 2034 -91 
Q 1250 -91 836 529 
Q 422 1150 422 2328 
Q 422 3509 836 4129 
Q 1250 4750 2034 4750 
z
" transform="scale(0.015625)"/>
        <path id="DejaVuSans-2e" d="M 684 794 
L 1344 794 
L 1344 0 
L 684 0 
L 684 794 
z
" transform="scale(0.015625)"/>
       </defs>
       <use xlink:href="#DejaVuSans-30"/>
       <use xlink:href="#DejaVuSans-2e" x="63.623047"/>
       <use xlink:href="#DejaVuSans-30" x="95.410156"/>
      </g>
     </g>
    </g>
    <g id="xtick_2">
     <g id="line2d_3">
      <path d="M 114.414545 307.584 
L 114.414545 41.472 
" clip-path="url(#pc6d4ffab16)" style="fill: none; stroke: #b0b0b0; stroke-width: 0.8; stroke-linecap: square"/>
     </g>
     <g id="line2d_4">
      <g>
       <use xlink:href="#mdf4d9a3e92" x="114.414545" y="307.584" style="stroke: #000000; stroke-width: 0.8"/>
      </g>
     </g>
     <g id="text_2">
      <!-- 2.5 -->
      <g transform="translate(106.462983 322.182437) scale(0.1 -0.1)">
       <defs>
        <path id="DejaVuSans-32" d="M 1228 531 
L 3431 531 
L 3431 0 
L 469 0 
L 469 531 
Q 828 903 1448 1529 
Q 2069 2156 2228 2338 
Q 2531 2678 2651 2914 
Q 2772 3150 2772 3378 
Q 2772 3750 2511 3984 
Q 2250 4219 1831 4219 
Q 1534 4219 1204 4116 
Q 875 4013 500 3803 
L 500 4441 
Q 881 4594 1212 4672 
Q 1544 4750 1819 4750 
Q 2544 4750 2975 4387 
Q 3406 4025 3406 3419 
Q 3406 3131 3298 2873 
Q 3191 2616 2906 2266 
Q 2828 2175 2409 1742 
Q 1991 1309 1228 531 
z
" transform="scale(0.015625)"/>
        <path id="DejaVuSans-35" d="M 691 4666 
L 3169 4666 
L 3169 4134 
L 1269 4134 
L 1269 2991 
Q 1406 3038 1543 3061 
Q 1681 3084 1819 3084 
Q 2600 3084 3056 2656 
Q 3513 2228 3513 1497 
Q 3513 744 3044 326 
Q 2575 -91 1722 -91 
Q 1428 -91 1123 -41 
Q 819 9 494 109 
L 494 744 
Q 775 591 1075 516 
Q 1375 441 1709 441 
Q 2250 441 2565 725 
Q 2881 1009 2881 1497 
Q 2881 1984 2565 2268 
Q 2250 2553 1709 2553 
Q 1456 2553 1204 2497 
Q 953 2441 691 2322 
L 691 4666 
z
" transform="scale(0.015625)"/>
       </defs>
       <use xlink:href="#DejaVuSans-32"/>
       <use xlink:href="#DejaVuSans-2e" x="63.623047"/>
       <use xlink:href="#DejaVuSans-35" x="95.410156"/>
      </g>
     </g>
    </g>
    <g id="xtick_3">
     <g id="line2d_5">
      <path d="M 154.996364 307.584 
L 154.996364 41.472 
" clip-path="url(#pc6d4ffab16)" style="fill: none; stroke: #b0b0b0; stroke-width: 0.8; stroke-linecap: square"/>
     </g>
     <g id="line2d_6">
      <g>
       <use xlink:href="#mdf4d9a3e92" x="154.996364" y="307.584" style="stroke: #000000; stroke-width: 0.8"/>
      </g>
     </g>
     <g id="text_3">
      <!-- 5.0 -->
      <g transform="translate(147.044801 322.182437) scale(0.1 -0.1)">
       <use xlink:href="#DejaVuSans-35"/>
       <use xlink:href="#DejaVuSans-2e" x="63.623047"/>
       <use xlink:href="#DejaVuSans-30" x="95.410156"/>
      </g>
     </g>
    </g>
    <g id="xtick_4">
     <g id="line2d_7">
      <path d="M 195.578182 307.584 
L 195.578182 41.472 
" clip-path="url(#pc6d4ffab16)" style="fill: none; stroke: #b0b0b0; stroke-width: 0.8; stroke-linecap: square"/>
     </g>
     <g id="line2d_8">
      <g>
       <use xlink:href="#mdf4d9a3e92" x="195.578182" y="307.584" style="stroke: #000000; stroke-width: 0.8"/>
      </g>
     </g>
     <g id="text_4">
      <!-- 7.5 -->
      <g transform="translate(187.626619 322.182437) scale(0.1 -0.1)">
       <defs>
        <path id="DejaVuSans-37" d="M 525 4666 
L 3525 4666 
L 3525 4397 
L 1831 0 
L 1172 0 
L 2766 4134 
L 525 4134 
L 525 4666 
z
" transform="scale(0.015625)"/>
       </defs>
       <use xlink:href="#DejaVuSans-37"/>
       <use xlink:href="#DejaVuSans-2e" x="63.623047"/>
       <use xlink:href="#DejaVuSans-35" x="95.410156"/>
      </g>
     </g>
    </g>
    <g id="xtick_5">
     <g id="line2d_9">
      <path d="M 236.16 307.584 
L 236.16 41.472 
" clip-path="url(#pc6d4ffab16)" style="fill: none; stroke: #b0b0b0; stroke-width: 0.8; stroke-linecap: square"/>
     </g>
     <g id="line2d_10">
      <g>
       <use xlink:href="#mdf4d9a3e92" x="236.16" y="307.584" style="stroke: #000000; stroke-width: 0.8"/>
      </g>
     </g>
     <g id="text_5">
      <!-- 10.0 -->
      <g transform="translate(225.027188 322.182437) scale(0.1 -0.1)">
       <defs>
        <path id="DejaVuSans-31" d="M 794 531 
L 1825 531 
L 1825 4091 
L 703 3866 
L 703 4441 
L 1819 4666 
L 2450 4666 
L 2450 531 
L 3481 531 
L 3481 0 
L 794 0 
L 794 531 
z
" transform="scale(0.015625)"/>
       </defs>
       <use xlink:href="#DejaVuSans-31"/>
       <use xlink:href="#DejaVuSans-30" x="63.623047"/>
       <use xlink:href="#DejaVuSans-2e" x="127.246094"/>
       <use xlink:href="#DejaVuSans-30" x="159.033203"/>
      </g>
     </g>
    </g>
    <g id="xtick_6">
     <g id="line2d_11">
      <path d="M 276.741818 307.584 
L 276.741818 41.472 
" clip-path="url(#pc6d4ffab16)" style="fill: none; stroke: #b0b0b0; stroke-width: 0.8; stroke-linecap: square"/>
     </g>
     <g id="line2d_12">
      <g>
       <use xlink:href="#mdf4d9a3e92" x="276.741818" y="307.584" style="stroke: #000000; stroke-width: 0.8"/>
      </g>
     </g>
     <g id="text_6">
      <!-- 12.5 -->
      <g transform="translate(265.609006 322.182437) scale(0.1 -0.1)">
       <use xlink:href="#DejaVuSans-31"/>
       <use xlink:href="#DejaVuSans-32" x="63.623047"/>
       <use xlink:href="#DejaVuSans-2e" x="127.246094"/>
       <use xlink:href="#DejaVuSans-35" x="159.033203"/>
      </g>
     </g>
    </g>
    <g id="xtick_7">
     <g id="line2d_13">
      <path d="M 317.323636 307.584 
L 317.323636 41.472 
" clip-path="url(#pc6d4ffab16)" style="fill: none; stroke: #b0b0b0; stroke-width: 0.8; stroke-linecap: square"/>
     </g>
     <g id="line2d_14">
      <g>
       <use xlink:href="#mdf4d9a3e92" x="317.323636" y="307.584" style="stroke: #000000; stroke-width: 0.8"/>
      </g>
     </g>
     <g id="text_7">
      <!-- 15.0 -->
      <g transform="translate(306.190824 322.182437) scale(0.1 -0.1)">
       <use xlink:href="#DejaVuSans-31"/>
       <use xlink:href="#DejaVuSans-35" x="63.623047"/>
       <use xlink:href="#DejaVuSans-2e" x="127.246094"/>
       <use xlink:href="#DejaVuSans-30" x="159.033203"/>
      </g>
     </g>
    </g>
    <g id="xtick_8">
     <g id="line2d_15">
      <path d="M 357.905455 307.584 
L 357.905455 41.472 
" clip-path="url(#pc6d4ffab16)" style="fill: none; stroke: #b0b0b0; stroke-width: 0.8; stroke-linecap: square"/>
     </g>
     <g id="line2d_16">
      <g>
       <use xlink:href="#mdf4d9a3e92" x="357.905455" y="307.584" style="stroke: #000000; stroke-width: 0.8"/>
      </g>
     </g>
     <g id="text_8">
      <!-- 17.5 -->
      <g transform="translate(346.772642 322.182437) scale(0.1 -0.1)">
       <use xlink:href="#DejaVuSans-31"/>
       <use xlink:href="#DejaVuSans-37" x="63.623047"/>
       <use xlink:href="#DejaVuSans-2e" x="127.246094"/>
       <use xlink:href="#DejaVuSans-35" x="159.033203"/>
      </g>
     </g>
    </g>
    <g id="xtick_9">
     <g id="line2d_17">
      <path d="M 398.487273 307.584 
L 398.487273 41.472 
" clip-path="url(#pc6d4ffab16)" style="fill: none; stroke: #b0b0b0; stroke-width: 0.8; stroke-linecap: square"/>
     </g>
     <g id="line2d_18">
      <g>
       <use xlink:href="#mdf4d9a3e92" x="398.487273" y="307.584" style="stroke: #000000; stroke-width: 0.8"/>
      </g>
     </g>
     <g id="text_9">
      <!-- 20.0 -->
      <g transform="translate(387.35446 322.182437) scale(0.1 -0.1)">
       <use xlink:href="#DejaVuSans-32"/>
       <use xlink:href="#DejaVuSans-30" x="63.623047"/>
       <use xlink:href="#DejaVuSans-2e" x="127.246094"/>
       <use xlink:href="#DejaVuSans-30" x="159.033203"/>
      </g>
     </g>
    </g>
    <g id="text_10">
     <!-- time (s) -->
     <g transform="translate(216.768594 335.860562) scale(0.1 -0.1)">
      <defs>
       <path id="DejaVuSans-74" d="M 1172 4494 
L 1172 3500 
L 2356 3500 
L 2356 3053 
L 1172 3053 
L 1172 1153 
Q 1172 725 1289 603 
Q 1406 481 1766 481 
L 2356 481 
L 2356 0 
L 1766 0 
Q 1100 0 847 248 
Q 594 497 594 1153 
L 594 3053 
L 172 3053 
L 172 3500 
L 594 3500 
L 594 4494 
L 1172 4494 
z
" transform="scale(0.015625)"/>
       <path id="DejaVuSans-69" d="M 603 3500 
L 1178 3500 
L 1178 0 
L 603 0 
L 603 3500 
z
M 603 4863 
L 1178 4863 
L 1178 4134 
L 603 4134 
L 603 4863 
z
" transform="scale(0.015625)"/>
       <path id="DejaVuSans-6d" d="M 3328 2828 
Q 3544 3216 3844 3400 
Q 4144 3584 4550 3584 
Q 5097 3584 5394 3201 
Q 5691 2819 5691 2113 
L 5691 0 
L 5113 0 
L 5113 2094 
Q 5113 2597 4934 2840 
Q 4756 3084 4391 3084 
Q 3944 3084 3684 2787 
Q 3425 2491 3425 1978 
L 3425 0 
L 2847 0 
L 2847 2094 
Q 2847 2600 2669 2842 
Q 2491 3084 2119 3084 
Q 1678 3084 1418 2786 
Q 1159 2488 1159 1978 
L 1159 0 
L 581 0 
L 581 3500 
L 1159 3500 
L 1159 2956 
Q 1356 3278 1631 3431 
Q 1906 3584 2284 3584 
Q 2666 3584 2933 3390 
Q 3200 3197 3328 2828 
z
" transform="scale(0.015625)"/>
       <path id="DejaVuSans-65" d="M 3597 1894 
L 3597 1613 
L 953 1613 
Q 991 1019 1311 708 
Q 1631 397 2203 397 
Q 2534 397 2845 478 
Q 3156 559 3463 722 
L 3463 178 
Q 3153 47 2828 -22 
Q 2503 -91 2169 -91 
Q 1331 -91 842 396 
Q 353 884 353 1716 
Q 353 2575 817 3079 
Q 1281 3584 2069 3584 
Q 2775 3584 3186 3129 
Q 3597 2675 3597 1894 
z
M 3022 2063 
Q 3016 2534 2758 2815 
Q 2500 3097 2075 3097 
Q 1594 3097 1305 2825 
Q 1016 2553 972 2059 
L 3022 2063 
z
" transform="scale(0.015625)"/>
       <path id="DejaVuSans-20" transform="scale(0.015625)"/>
       <path id="DejaVuSans-28" d="M 1984 4856 
Q 1566 4138 1362 3434 
Q 1159 2731 1159 2009 
Q 1159 1288 1364 580 
Q 1569 -128 1984 -844 
L 1484 -844 
Q 1016 -109 783 600 
Q 550 1309 550 2009 
Q 550 2706 781 3412 
Q 1013 4119 1484 4856 
L 1984 4856 
z
" transform="scale(0.015625)"/>
       <path id="DejaVuSans-73" d="M 2834 3397 
L 2834 2853 
Q 2591 2978 2328 3040 
Q 2066 3103 1784 3103 
Q 1356 3103 1142 2972 
Q 928 2841 928 2578 
Q 928 2378 1081 2264 
Q 1234 2150 1697 2047 
L 1894 2003 
Q 2506 1872 2764 1633 
Q 3022 1394 3022 966 
Q 3022 478 2636 193 
Q 2250 -91 1575 -91 
Q 1294 -91 989 -36 
Q 684 19 347 128 
L 347 722 
Q 666 556 975 473 
Q 1284 391 1588 391 
Q 1994 391 2212 530 
Q 2431 669 2431 922 
Q 2431 1156 2273 1281 
Q 2116 1406 1581 1522 
L 1381 1569 
Q 847 1681 609 1914 
Q 372 2147 372 2553 
Q 372 3047 722 3315 
Q 1072 3584 1716 3584 
Q 2034 3584 2315 3537 
Q 2597 3491 2834 3397 
z
" transform="scale(0.015625)"/>
       <path id="DejaVuSans-29" d="M 513 4856 
L 1013 4856 
Q 1481 4119 1714 3412 
Q 1947 2706 1947 2009 
Q 1947 1309 1714 600 
Q 1481 -109 1013 -844 
L 513 -844 
Q 928 -128 1133 580 
Q 1338 1288 1338 2009 
Q 1338 2731 1133 3434 
Q 928 4138 513 4856 
z
" transform="scale(0.015625)"/>
      </defs>
      <use xlink:href="#DejaVuSans-74"/>
      <use xlink:href="#DejaVuSans-69" x="39.208984"/>
      <use xlink:href="#DejaVuSans-6d" x="66.992188"/>
      <use xlink:href="#DejaVuSans-65" x="164.404297"/>
      <use xlink:href="#DejaVuSans-20" x="225.927734"/>
      <use xlink:href="#DejaVuSans-28" x="257.714844"/>
      <use xlink:href="#DejaVuSans-73" x="296.728516"/>
      <use xlink:href="#DejaVuSans-29" x="348.828125"/>
     </g>
    </g>
   </g>
   <g id="matplotlib.axis_2">
    <g id="ytick_1">
     <g id="line2d_19">
      <path d="M 57.6 274.126925 
L 414.72 274.126925 
" clip-path="url(#pc6d4ffab16)" style="fill: none; stroke: #b0b0b0; stroke-width: 0.8; stroke-linecap: square"/>
     </g>
     <g id="line2d_20">
      <defs>
       <path id="m44d807abb1" d="M 0 0 
L -3.5 0 
" style="stroke: #000000; stroke-width: 0.8"/>
      </defs>
      <g>
       <use xlink:href="#m44d807abb1" x="57.6" y="274.126925" style="stroke: #000000; stroke-width: 0.8"/>
      </g>
     </g>
     <g id="text_11">
      <!-- −3 -->
      <g transform="translate(35.857813 277.926143) scale(0.1 -0.1)">
       <defs>
        <path id="DejaVuSans-2212" d="M 678 2272 
L 4684 2272 
L 4684 1741 
L 678 1741 
L 678 2272 
z
" transform="scale(0.015625)"/>
        <path id="DejaVuSans-33" d="M 2597 2516 
Q 3050 2419 3304 2112 
Q 3559 1806 3559 1356 
Q 3559 666 3084 287 
Q 2609 -91 1734 -91 
Q 1441 -91 1130 -33 
Q 819 25 488 141 
L 488 750 
Q 750 597 1062 519 
Q 1375 441 1716 441 
Q 2309 441 2620 675 
Q 2931 909 2931 1356 
Q 2931 1769 2642 2001 
Q 2353 2234 1838 2234 
L 1294 2234 
L 1294 2753 
L 1863 2753 
Q 2328 2753 2575 2939 
Q 2822 3125 2822 3475 
Q 2822 3834 2567 4026 
Q 2313 4219 1838 4219 
Q 1578 4219 1281 4162 
Q 984 4106 628 3988 
L 628 4550 
Q 988 4650 1302 4700 
Q 1616 4750 1894 4750 
Q 2613 4750 3031 4423 
Q 3450 4097 3450 3541 
Q 3450 3153 3228 2886 
Q 3006 2619 2597 2516 
z
" transform="scale(0.015625)"/>
       </defs>
       <use xlink:href="#DejaVuSans-2212"/>
       <use xlink:href="#DejaVuSans-33" x="83.789062"/>
      </g>
     </g>
    </g>
    <g id="ytick_2">
     <g id="line2d_21">
      <path d="M 57.6 239.532192 
L 414.72 239.532192 
" clip-path="url(#pc6d4ffab16)" style="fill: none; stroke: #b0b0b0; stroke-width: 0.8; stroke-linecap: square"/>
     </g>
     <g id="line2d_22">
      <g>
       <use xlink:href="#m44d807abb1" x="57.6" y="239.532192" style="stroke: #000000; stroke-width: 0.8"/>
      </g>
     </g>
     <g id="text_12">
      <!-- −2 -->
      <g transform="translate(35.857813 243.331411) scale(0.1 -0.1)">
       <use xlink:href="#DejaVuSans-2212"/>
       <use xlink:href="#DejaVuSans-32" x="83.789062"/>
      </g>
     </g>
    </g>
    <g id="ytick_3">
     <g id="line2d_23">
      <path d="M 57.6 204.93746 
L 414.72 204.93746 
" clip-path="url(#pc6d4ffab16)" style="fill: none; stroke: #b0b0b0; stroke-width: 0.8; stroke-linecap: square"/>
     </g>
     <g id="line2d_24">
      <g>
       <use xlink:href="#m44d807abb1" x="57.6" y="204.93746" style="stroke: #000000; stroke-width: 0.8"/>
      </g>
     </g>
     <g id="text_13">
      <!-- −1 -->
      <g transform="translate(35.857813 208.736679) scale(0.1 -0.1)">
       <use xlink:href="#DejaVuSans-2212"/>
       <use xlink:href="#DejaVuSans-31" x="83.789062"/>
      </g>
     </g>
    </g>
    <g id="ytick_4">
     <g id="line2d_25">
      <path d="M 57.6 170.342727 
L 414.72 170.342727 
" clip-path="url(#pc6d4ffab16)" style="fill: none; stroke: #b0b0b0; stroke-width: 0.8; stroke-linecap: square"/>
     </g>
     <g id="line2d_26">
      <g>
       <use xlink:href="#m44d807abb1" x="57.6" y="170.342727" style="stroke: #000000; stroke-width: 0.8"/>
      </g>
     </g>
     <g id="text_14">
      <!-- 0 -->
      <g transform="translate(44.2375 174.141946) scale(0.1 -0.1)">
       <use xlink:href="#DejaVuSans-30"/>
      </g>
     </g>
    </g>
    <g id="ytick_5">
     <g id="line2d_27">
      <path d="M 57.6 135.747995 
L 414.72 135.747995 
" clip-path="url(#pc6d4ffab16)" style="fill: none; stroke: #b0b0b0; stroke-width: 0.8; stroke-linecap: square"/>
     </g>
     <g id="line2d_28">
      <g>
       <use xlink:href="#m44d807abb1" x="57.6" y="135.747995" style="stroke: #000000; stroke-width: 0.8"/>
      </g>
     </g>
     <g id="text_15">
      <!-- 1 -->
      <g transform="translate(44.2375 139.547214) scale(0.1 -0.1)">
       <use xlink:href="#DejaVuSans-31"/>
      </g>
     </g>
    </g>
    <g id="ytick_6">
     <g id="line2d_29">
      <path d="M 57.6 101.153263 
L 414.72 101.153263 
" clip-path="url(#pc6d4ffab16)" style="fill: none; stroke: #b0b0b0; stroke-width: 0.8; stroke-linecap: square"/>
     </g>
     <g id="line2d_30">
      <g>
       <use xlink:href="#m44d807abb1" x="57.6" y="101.153263" style="stroke: #000000; stroke-width: 0.8"/>
      </g>
     </g>
     <g id="text_16">
      <!-- 2 -->
      <g transform="translate(44.2375 104.952481) scale(0.1 -0.1)">
       <use xlink:href="#DejaVuSans-32"/>
      </g>
     </g>
    </g>
    <g id="ytick_7">
     <g id="line2d_31">
      <path d="M 57.6 66.55853 
L 414.72 66.55853 
" clip-path="url(#pc6d4ffab16)" style="fill: none; stroke: #b0b0b0; stroke-width: 0.8; stroke-linecap: square"/>
     </g>
     <g id="line2d_32">
      <g>
       <use xlink:href="#m44d807abb1" x="57.6" y="66.55853" style="stroke: #000000; stroke-width: 0.8"/>
      </g>
     </g>
     <g id="text_17">
      <!-- 3 -->
      <g transform="translate(44.2375 70.357749) scale(0.1 -0.1)">
       <use xlink:href="#DejaVuSans-33"/>
      </g>
     </g>
    </g>
    <g id="text_18">
     <!-- theta -->
     <g transform="translate(29.778125 187.757688) rotate(-90) scale(0.1 -0.1)">
      <defs>
       <path id="DejaVuSans-68" d="M 3513 2113 
L 3513 0 
L 2938 0 
L 2938 2094 
Q 2938 2591 2744 2837 
Q 2550 3084 2163 3084 
Q 1697 3084 1428 2787 
Q 1159 2491 1159 1978 
L 1159 0 
L 581 0 
L 581 4863 
L 1159 4863 
L 1159 2956 
Q 1366 3272 1645 3428 
Q 1925 3584 2291 3584 
Q 2894 3584 3203 3211 
Q 3513 2838 3513 2113 
z
" transform="scale(0.015625)"/>
       <path id="DejaVuSans-61" d="M 2194 1759 
Q 1497 1759 1228 1600 
Q 959 1441 959 1056 
Q 959 750 1161 570 
Q 1363 391 1709 391 
Q 2188 391 2477 730 
Q 2766 1069 2766 1631 
L 2766 1759 
L 2194 1759 
z
M 3341 1997 
L 3341 0 
L 2766 0 
L 2766 531 
Q 2569 213 2275 61 
Q 1981 -91 1556 -91 
Q 1019 -91 701 211 
Q 384 513 384 1019 
Q 384 1609 779 1909 
Q 1175 2209 1959 2209 
L 2766 2209 
L 2766 2266 
Q 2766 2663 2505 2880 
Q 2244 3097 1772 3097 
Q 1472 3097 1187 3025 
Q 903 2953 641 2809 
L 641 3341 
Q 956 3463 1253 3523 
Q 1550 3584 1831 3584 
Q 2591 3584 2966 3190 
Q 3341 2797 3341 1997 
z
" transform="scale(0.015625)"/>
      </defs>
      <use xlink:href="#DejaVuSans-74"/>
      <use xlink:href="#DejaVuSans-68" x="39.208984"/>
      <use xlink:href="#DejaVuSans-65" x="102.587891"/>
      <use xlink:href="#DejaVuSans-74" x="164.111328"/>
      <use xlink:href="#DejaVuSans-61" x="203.320312"/>
     </g>
    </g>
   </g>
   <g id="line2d_33">
    <path d="M 73.832727 170.342727 
L 73.881425 170.286133 
L 73.995055 169.497829 
L 74.189847 166.041674 
L 74.498269 155.621587 
L 75.618327 116.441211 
L 76.70592 86.216571 
L 77.403927 71.774994 
L 78.053236 62.075352 
L 78.540218 57.119104 
L 79.059665 54.316779 
L 79.433018 53.594946 
L 79.497949 53.576092 
L 79.530415 53.617483 
L 79.887535 54.587244 
L 80.358284 57.294231 
L 80.682938 60.224313 
L 81.413411 69.920735 
L 82.014022 80.596078 
L 82.825658 98.830219 
L 83.815855 125.073963 
L 86.1696 196.497521 
L 87.679244 238.841582 
L 88.912931 267.009536 
L 89.854429 282.680646 
L 90.601135 290.917537 
L 91.201745 294.693734 
L 91.461469 295.41204 
L 91.769891 295.391253 
L 91.88352 295.235786 
L 92.305571 293.865011 
L 92.857484 290.344286 
L 93.539258 283.381386 
L 94.172335 273.919673 
L 95.292393 252.765977 
L 97.224087 205.912898 
L 100.016116 139.796245 
L 101.217338 118.679323 
L 102.012742 109.046121 
L 102.743215 103.826 
L 103.116567 102.282426 
L 103.587316 101.474946 
L 103.733411 101.459454 
L 104.155462 102.109284 
L 104.447651 103.509543 
L 104.788538 105.737405 
L 105.600175 113.304397 
L 106.639069 126.993059 
L 108.148713 152.630588 
L 109.804451 183.859254 
L 111.719913 216.135831 
L 112.77504 228.939996 
L 113.635375 234.783383 
L 114.008727 236.324 
L 114.593105 237.444423 
L 115.063855 237.20362 
L 115.177484 237.012409 
L 115.420975 235.996627 
L 116.216378 230.925668 
L 116.687127 226.809948 
L 117.872116 213.259287 
L 118.66752 202.201759 
L 119.949905 180.737908 
L 121.086196 162.497904 
L 122.758167 141.929594 
L 123.391244 136.124884 
L 124.348975 130.025801 
L 124.722327 128.559118 
L 125.193076 127.511787 
L 125.27424 127.575113 
L 125.387869 127.669814 
L 126.085876 129.381689 
L 126.329367 130.360617 
L 127.303331 136.233523 
L 128.650647 148.477958 
L 129.397353 156.647148 
L 130.387549 168.145672 
L 131.540073 181.338404 
L 133.30944 197.898775 
L 133.861353 201.577549 
L 134.332102 204.038872 
L 135.224902 206.773063 
L 135.468393 207.094723 
L 135.614487 207.170551 
L 135.760582 207.208632 
L 136.409891 206.357525 
L 136.685847 205.141317 
L 137.887069 197.477391 
L 139.883695 179.032563 
L 140.938822 168.368146 
L 141.815389 160.00153 
L 142.529629 153.949985 
L 142.984145 150.854674 
L 144.266531 146.309614 
L 144.542487 145.792167 
L 144.688582 145.615176 
L 144.899607 145.406792 
L 145.045702 145.351495 
L 145.191796 145.31256 
L 145.402822 145.384236 
L 145.516451 145.439533 
L 145.889804 145.899353 
L 146.003433 146.079266 
L 147.269585 150.069851 
L 149.055185 160.308078 
L 149.818124 166.896003 
L 150.678458 174.183588 
L 152.41536 185.691914 
L 152.788713 186.833659 
L 153.097135 187.615854 
L 153.275695 187.958726 
L 153.519185 188.368847 
L 153.632815 188.494959 
L 153.84384 188.712486 
L 153.957469 188.766296 
L 154.136029 188.845097 
L 154.282124 188.831029 
L 154.395753 188.822796 
L 154.606778 188.690666 
L 154.720407 188.61144 
L 155.028829 188.20784 
L 155.142458 188.039085 
L 155.645673 186.919978 
L 155.824233 186.443446 
L 157.804625 178.044007 
L 158.600029 173.679637 
L 159.038313 171.22567 
L 159.687622 167.592382 
L 160.272 164.466635 
L 160.80768 161.798285 
L 161.278429 159.718978 
L 161.716713 157.983384 
L 162.317324 156.726259 
L 162.333556 156.735552 
L 162.512116 156.636624 
L 162.658211 156.618182 
L 162.804305 156.588512 
L 162.9504 156.621748 
L 163.064029 156.63229 
L 163.242589 156.727728 
L 163.356218 156.777597 
L 163.567244 156.96321 
L 163.648407 157.022381 
L 163.924364 157.360733 
L 164.005527 157.451967 
L 164.313949 157.95172 
L 164.427578 158.134745 
L 164.768465 158.833454 
L 164.898327 159.120549 
L 165.044422 159.442175 
L 165.45024 160.496101 
L 165.6288 160.970698 
L 166.067084 162.284381 
L 166.278109 162.925045 
L 166.748858 164.478894 
L 166.959884 165.168859 
L 167.398167 166.681949 
L 167.641658 167.496618 
L 168.079942 169.002411 
L 168.323433 169.792446 
L 168.729251 171.116733 
L 168.940276 171.748696 
L 169.313629 172.862228 
L 169.492189 173.336734 
L 169.833076 174.237876 
L 169.979171 174.570273 
L 170.287593 175.275699 
L 170.433687 175.553447 
L 170.709644 176.08206 
L 170.823273 176.252132 
L 171.066764 176.636078 
L 171.180393 176.76723 
L 171.391418 177.032284 
L 171.472582 177.095536 
L 171.683607 177.298626 
L 171.797236 177.359336 
L 171.975796 177.477969 
L 172.089425 177.504609 
L 172.23552 177.563847 
L 172.381615 177.56228 
L 172.527709 177.577901 
L 172.706269 177.524316 
L 172.819898 177.505492 
L 172.998458 177.399862 
L 173.112087 177.348394 
L 173.323113 177.164104 
L 173.404276 177.109164 
L 173.647767 176.829828 
L 173.728931 176.751078 
L 174.004887 176.354704 
L 174.086051 176.251496 
L 174.394473 175.71782 
L 174.508102 175.530197 
L 174.848989 174.835332 
L 174.962618 174.6135 
L 175.303505 173.825056 
L 175.4496 173.497178 
L 175.822953 172.547426 
L 175.969047 172.189654 
L 176.3424 171.178774 
L 176.488495 170.803303 
L 176.861847 169.762979 
L 177.040407 169.293384 
L 177.41376 168.256847 
L 177.559855 167.88433 
L 177.900742 166.967388 
L 178.046836 166.613299 
L 178.387724 165.750907 
L 178.533818 165.4251 
L 178.84224 164.70949 
L 178.955869 164.4863 
L 179.248058 163.895969 
L 179.524015 163.368632 
L 179.637644 163.19514 
L 179.881135 162.79142 
L 179.962298 162.693593 
L 180.205789 162.349874 
L 180.286953 162.272666 
L 180.497978 162.024086 
L 180.579142 161.966255 
L 180.790167 161.768758 
L 180.903796 161.709181 
L 181.082356 161.585681 
L 181.195985 161.554554 
L 181.34208 161.484475 
L 181.358313 161.500401 
L 181.504407 161.450773 
L 181.650502 161.460207 
L 181.796596 161.447278 
L 181.942691 161.493279 
L 182.05632 161.505334 
L 182.494604 162.392304 
L 182.932887 163.81828 
L 183.143913 164.49636 
L 183.582196 165.992729 
L 183.793222 166.687375 
L 184.19904 168.074288 
L 184.410065 168.752869 
L 184.799651 170.008481 
L 185.173004 171.173401 
L 185.351564 171.674472 
L 185.692451 172.636838 
L 185.838545 172.995685 
L 186.146967 173.765092 
L 186.260596 174.001165 
L 186.536553 174.599909 
L 186.650182 174.797663 
L 186.926138 175.299458 
L 187.007302 175.406443 
L 187.250793 175.771938 
L 187.331956 175.852985 
L 187.542982 176.107478 
L 187.624145 176.16445 
L 187.802705 176.332566 
L 187.916335 176.388268 
L 188.094895 176.502307 
L 188.208524 176.52346 
L 188.354618 176.578653 
L 188.500713 176.569957 
L 188.646807 176.581082 
L 188.792902 176.528589 
L 188.906531 176.510048 
L 189.085091 176.401072 
L 189.19872 176.349703 
L 189.409745 176.161507 
L 189.490909 176.107009 
L 189.7344 175.823504 
L 189.815564 175.745302 
L 190.059055 175.392966 
L 190.140218 175.292712 
L 190.416175 174.820883 
L 190.497338 174.698586 
L 190.80576 174.091388 
L 190.919389 173.881138 
L 191.227811 173.19468 
L 191.34144 172.958181 
L 191.682327 172.129695 
L 191.795956 171.871831 
L 192.136844 170.99033 
L 192.282938 170.634539 
L 192.623825 169.721827 
L 192.76992 169.358474 
L 193.110807 168.441406 
L 193.256902 168.081966 
L 193.597789 167.18702 
L 193.743884 166.842643 
L 194.052305 166.071977 
L 194.165935 165.82642 
L 194.474356 165.109659 
L 194.587985 164.886784 
L 194.863942 164.301869 
L 194.977571 164.104447 
L 195.253527 163.585974 
L 195.334691 163.471057 
L 195.578182 163.068495 
L 195.659345 162.972671 
L 195.902836 162.629346 
L 195.984 162.553937 
L 196.195025 162.305134 
L 196.276189 162.248998 
L 196.454749 162.075783 
L 196.568378 162.014857 
L 196.746938 161.885804 
L 196.860567 161.853284 
L 197.006662 161.778415 
L 197.120291 161.771396 
L 197.266385 161.729302 
L 197.41248 161.748932 
L 197.526109 161.738354 
L 197.542342 161.762519 
L 197.655971 161.764523 
L 197.834531 161.845496 
L 197.94816 161.875381 
L 198.12672 161.999632 
L 198.207884 162.033039 
L 198.224116 162.066438 
L 198.30528 162.106133 
L 198.516305 162.311671 
L 198.597469 162.369637 
L 198.808495 162.621482 
L 198.889658 162.69669 
L 199.133149 163.036649 
L 199.214313 163.129597 
L 199.457804 163.520405 
L 199.538967 163.629394 
L 199.814924 164.123272 
L 199.896087 164.247719 
L 200.172044 164.790101 
L 200.253207 164.927505 
L 200.561629 165.577188 
L 200.675258 165.794382 
L 200.98368 166.482445 
L 201.097309 166.710955 
L 201.405731 167.422206 
L 201.51936 167.656367 
L 201.827782 168.375342 
L 201.941411 168.609455 
L 202.249833 169.320771 
L 202.363462 169.549227 
L 202.671884 170.237924 
L 202.785513 170.455333 
L 203.061469 171.042457 
L 203.175098 171.245173 
L 203.451055 171.791809 
L 203.532218 171.917555 
L 203.775709 172.364622 
L 203.856873 172.477391 
L 204.100364 172.883203 
L 204.181527 172.98142 
L 204.425018 173.341572 
L 204.506182 173.423879 
L 204.717207 173.698392 
L 204.798371 173.765406 
L 205.009396 173.999232 
L 205.09056 174.050215 
L 205.26912 174.217676 
L 205.382749 174.276065 
L 205.561309 174.406701 
L 205.674938 174.441383 
L 205.821033 174.523398 
L 205.934662 174.536774 
L 206.080756 174.591397 
L 206.226851 174.585855 
L 206.372945 174.609775 
L 206.51904 174.573665 
L 206.632669 174.575008 
L 206.778764 174.512226 
L 206.892393 174.49311 
L 207.070953 174.387685 
L 207.184582 174.34632 
L 207.363142 174.206645 
L 207.444305 174.169186 
L 207.655331 173.971945 
L 207.736495 173.920183 
L 207.94752 173.686979 
L 208.028684 173.62195 
L 208.239709 173.355655 
L 208.320873 173.278528 
L 208.564364 172.938475 
L 208.645527 172.849422 
L 208.889018 172.476049 
L 208.970182 172.376801 
L 209.213673 171.975486 
L 209.294836 171.867893 
L 209.538327 171.444322 
L 209.619491 171.33032 
L 209.895447 170.834074 
L 209.976611 170.715333 
L 210.252567 170.20703 
L 210.333731 170.086011 
L 210.609687 169.574038 
L 210.690851 169.453205 
L 210.966807 168.945883 
L 211.047971 168.827659 
L 211.291462 168.38791 
L 211.372625 168.274097 
L 211.616116 167.850287 
L 211.69728 167.742735 
L 211.940771 167.340261 
L 212.021935 167.240712 
L 212.265425 166.864603 
L 212.346589 166.774664 
L 212.557615 166.471034 
L 212.638778 166.390991 
L 212.849804 166.114414 
L 212.930967 166.04532 
L 213.141993 165.798357 
L 213.223156 165.741127 
L 213.434182 165.525977 
L 213.515345 165.481384 
L 213.693905 165.322631 
L 213.807535 165.268524 
L 213.986095 165.139359 
L 214.099724 165.104423 
L 214.245818 165.018076 
L 214.262051 165.034828 
L 214.408145 164.962512 
L 214.521775 164.955983 
L 214.667869 164.90642 
L 214.813964 164.915937 
L 214.960058 164.892019 
L 215.106153 164.926975 
L 215.219782 164.921772 
L 215.365876 164.978988 
L 215.479505 164.990879 
L 215.658065 165.083845 
L 215.771695 165.114371 
L 215.950255 165.236059 
L 216.063884 165.284393 
L 216.242444 165.433348 
L 216.258676 165.422389 
L 216.274909 165.457936 
L 216.680727 166.957598 
L 216.859287 167.584439 
L 217.265105 169.067378 
L 217.443665 169.67255 
L 217.817018 170.967709 
L 217.995578 171.527556 
L 218.336465 172.608242 
L 218.48256 173.012734 
L 218.790982 173.882702 
L 218.904611 174.150538 
L 219.180567 174.830785 
L 219.294196 175.056281 
L 219.570153 175.628591 
L 219.651316 175.751272 
L 219.894807 176.169359 
L 219.975971 176.262783 
L 220.186996 176.554646 
L 220.26816 176.620786 
L 220.44672 176.814079 
L 220.527884 176.855479 
L 220.544116 176.890932 
L 220.592815 176.808236 
L 220.901236 176.067978 
L 221.014865 175.809361 
L 221.355753 174.888681 
L 221.469382 174.59807 
L 221.810269 173.595257 
L 221.956364 173.185087 
L 222.329716 172.026672 
L 222.475811 171.59938 
L 222.849164 170.418561 
L 222.995258 169.990922 
L 223.222516 169.389291 
L 223.336145 169.395464 
L 223.48224 169.3473 
L 223.595869 169.350122 
L 223.741964 169.297813 
L 223.855593 169.297597 
L 224.001687 169.241562 
L 224.115316 169.238644 
L 224.261411 169.179331 
L 224.37504 169.174068 
L 224.521135 169.111945 
L 224.634764 169.104711 
L 224.780858 169.040267 
L 224.894487 169.031447 
L 225.040582 168.965185 
L 225.154211 168.955175 
L 225.300305 168.887605 
L 225.413935 168.876805 
L 225.560029 168.808446 
L 225.673658 168.797257 
L 225.819753 168.728625 
L 225.933382 168.717448 
L 226.079476 168.649053 
L 226.193105 168.638283 
L 226.3392 168.570627 
L 226.452829 168.560648 
L 226.598924 168.494219 
L 226.712553 168.485404 
L 226.858647 168.420672 
L 226.972276 168.413377 
L 227.118371 168.350788 
L 227.232 168.34535 
L 227.378095 168.285325 
L 227.491724 168.282061 
L 227.637818 168.22499 
L 227.751447 168.22419 
L 227.897542 168.17043 
L 228.011171 168.17236 
L 228.157265 168.122233 
L 228.270895 168.127126 
L 228.416989 168.080915 
L 228.530618 168.088976 
L 228.676713 168.046922 
L 228.790342 168.058324 
L 228.936436 168.020628 
L 229.050065 168.035508 
L 229.19616 168.002325 
L 229.342255 168.019526 
L 229.488349 167.991551 
L 229.634444 168.014037 
L 229.780538 167.991346 
L 229.926633 168.01916 
L 230.072727 168.001765 
L 230.218822 168.034888 
L 230.332451 168.019891 
L 230.478545 168.057665 
L 230.592175 168.046223 
L 230.738269 168.088538 
L 230.851898 168.080551 
L 230.997993 168.127257 
L 231.111622 168.122592 
L 231.257716 168.1735 
L 231.371345 168.171994 
L 231.51744 168.226875 
L 231.631069 168.228337 
L 231.777164 168.28693 
L 231.890793 168.291145 
L 232.036887 168.353154 
L 232.150516 168.35988 
L 232.296611 168.424984 
L 232.41024 168.43396 
L 232.556335 168.501809 
L 232.669964 168.512755 
L 232.816058 168.582979 
L 232.929687 168.595599 
L 233.075782 168.667809 
L 233.189411 168.681795 
L 233.335505 168.755588 
L 233.449135 168.770622 
L 233.595229 168.845583 
L 233.708858 168.861341 
L 233.854953 168.937052 
L 233.968582 168.953205 
L 234.114676 169.029242 
L 234.228305 169.045463 
L 234.3744 169.121406 
L 234.488029 169.137369 
L 234.634124 169.212802 
L 234.747753 169.228186 
L 234.893847 169.302704 
L 235.007476 169.317199 
L 235.153571 169.390407 
L 235.2672 169.403714 
L 235.413295 169.475237 
L 235.526924 169.48707 
L 235.673018 169.556551 
L 235.786647 169.566641 
L 235.932742 169.633746 
L 236.046371 169.641844 
L 236.192465 169.706265 
L 236.306095 169.712142 
L 236.452189 169.773601 
L 236.565818 169.777051 
L 236.711913 169.835299 
L 236.825542 169.836142 
L 236.971636 169.890962 
L 237.085265 169.889043 
L 237.23136 169.940254 
L 237.344989 169.935447 
L 237.491084 169.982902 
L 237.604713 169.975107 
L 237.750807 170.018698 
L 237.864436 170.007844 
L 238.010531 170.047499 
L 238.12416 170.033544 
L 238.270255 170.069228 
L 238.383884 170.05216 
L 238.529978 170.083876 
L 238.676073 170.064662 
L 238.822167 170.091963 
L 238.968262 170.068351 
L 239.114356 170.091337 
L 239.260451 170.063454 
L 239.406545 170.082276 
L 239.55264 170.050295 
L 239.666269 170.067438 
L 239.812364 170.031998 
L 239.925993 170.046548 
L 240.072087 170.007852 
L 240.185716 170.019978 
L 240.331811 169.978257 
L 240.44544 169.988149 
L 240.591535 169.943659 
L 240.705164 169.951524 
L 240.851258 169.904544 
L 240.964887 169.910606 
L 241.110982 169.861433 
L 241.224611 169.865931 
L 241.370705 169.814879 
L 241.484335 169.818062 
L 241.630429 169.765458 
L 241.744058 169.767585 
L 241.890153 169.713765 
L 242.003782 169.7151 
L 242.149876 169.660409 
L 242.263505 169.661222 
L 242.4096 169.606006 
L 242.523229 169.606566 
L 242.669324 169.551172 
L 242.782953 169.551747 
L 242.929047 169.496518 
L 243.042676 169.497375 
L 243.188771 169.442648 
L 243.3024 169.444043 
L 243.448495 169.390145 
L 243.562124 169.392329 
L 243.708218 169.339575 
L 243.821847 169.342786 
L 243.967942 169.291474 
L 244.081571 169.295938 
L 244.227665 169.246349 
L 244.341295 169.252277 
L 244.487389 169.20467 
L 244.601018 169.212256 
L 244.747113 169.16687 
L 244.860742 169.176287 
L 245.006836 169.133334 
L 245.120465 169.144738 
L 245.26656 169.104404 
L 245.380189 169.117929 
L 245.526284 169.080371 
L 245.639913 169.09613 
L 245.786007 169.061477 
L 245.899636 169.079557 
L 246.045731 169.047909 
L 246.191825 169.067362 
L 246.33792 169.039174 
L 246.484015 169.062139 
L 246.630109 169.037453 
L 246.776204 169.063951 
L 246.922298 169.042767 
L 247.068393 169.072774 
L 247.182022 169.053343 
L 247.198255 169.07892 
L 247.311884 169.060665 
L 247.457978 169.095242 
L 247.571607 169.079289 
L 247.717702 169.1168 
L 247.831331 169.103065 
L 247.977425 169.143388 
L 248.091055 169.131765 
L 248.237149 169.174752 
L 248.350778 169.165117 
L 248.496873 169.210595 
L 248.610502 169.202807 
L 248.756596 169.250583 
L 248.870225 169.244481 
L 249.01632 169.294342 
L 249.129949 169.289754 
L 249.276044 169.341467 
L 249.389673 169.338206 
L 249.535767 169.391526 
L 249.649396 169.389397 
L 249.795491 169.444064 
L 249.90912 169.44286 
L 250.055215 169.498605 
L 250.168844 169.498115 
L 250.314938 169.554662 
L 250.428567 169.554668 
L 250.574662 169.611738 
L 250.688291 169.612021 
L 250.834385 169.669331 
L 250.948015 169.669672 
L 251.094109 169.72694 
L 251.207738 169.727122 
L 251.353833 169.784071 
L 251.467462 169.783881 
L 251.613556 169.840239 
L 251.727185 169.839469 
L 251.87328 169.894976 
L 251.986909 169.893426 
L 252.133004 169.94783 
L 252.246633 169.945311 
L 252.392727 169.998375 
L 252.506356 169.994708 
L 252.652451 170.046212 
L 252.76608 170.041231 
L 252.912175 170.090971 
L 253.025804 170.084526 
L 253.171898 170.132317 
L 253.285527 170.124273 
L 253.431622 170.169952 
L 253.545251 170.160191 
L 253.691345 170.203618 
L 253.804975 170.192039 
L 253.951069 170.233096 
L 254.064698 170.219618 
L 254.210793 170.258212 
L 254.324422 170.242771 
L 254.470516 170.278834 
L 254.584145 170.261387 
L 254.73024 170.294875 
L 254.843869 170.275399 
L 254.989964 170.306295 
L 255.136058 170.285635 
L 255.282153 170.313624 
L 255.428247 170.290053 
L 255.574342 170.315181 
L 255.720436 170.288761 
L 255.866531 170.311106 
L 256.012625 170.281933 
L 256.15872 170.301606 
L 256.304815 170.269806 
L 256.418444 170.288823 
L 256.564538 170.25482 
L 256.678167 170.272193 
L 256.824262 170.23613 
L 256.937891 170.251979 
L 257.083985 170.214017 
L 257.197615 170.228474 
L 257.343709 170.18879 
L 257.457338 170.201997 
L 257.603433 170.160783 
L 257.717062 170.172895 
L 257.863156 170.130352 
L 257.976785 170.141531 
L 258.12288 170.097874 
L 258.236509 170.108288 
L 258.382604 170.063738 
L 258.496233 170.073561 
L 258.642327 170.028343 
L 258.755956 170.037753 
L 258.902051 169.992098 
L 259.01568 170.001273 
L 259.161775 169.95541 
L 259.275404 169.96453 
L 259.421498 169.918688 
L 259.535127 169.927929 
L 259.681222 169.882333 
L 259.794851 169.891868 
L 259.940945 169.846739 
L 260.054575 169.856736 
L 260.200669 169.812284 
L 260.314298 169.822905 
L 260.460393 169.779333 
L 260.574022 169.79073 
L 260.720116 169.748228 
L 260.833745 169.760544 
L 260.97984 169.719289 
L 261.093469 169.732656 
L 261.239564 169.69281 
L 261.353193 169.707348 
L 261.499287 169.669058 
L 261.612916 169.684873 
L 261.759011 169.648266 
L 261.87264 169.665452 
L 262.018735 169.630639 
L 262.132364 169.649272 
L 262.278458 169.616343 
L 262.392087 169.636488 
L 262.538182 169.605513 
L 262.684276 169.626307 
L 262.830371 169.59759 
L 262.976465 169.620683 
L 263.12256 169.594257 
L 263.268655 169.619668 
L 263.414749 169.595538 
L 263.560844 169.623256 
L 263.706938 169.601398 
L 263.853033 169.631385 
L 263.966662 169.610379 
L 264.112756 169.642328 
L 264.226385 169.622805 
L 264.37248 169.656644 
L 264.486109 169.638544 
L 264.632204 169.674184 
L 264.745833 169.657429 
L 264.891927 169.694766 
L 265.005556 169.679268 
L 265.151651 169.718179 
L 265.26528 169.70384 
L 265.411375 169.74419 
L 265.525004 169.730898 
L 265.671098 169.77254 
L 265.784727 169.760177 
L 265.930822 169.802951 
L 266.044451 169.79139 
L 266.190545 169.835131 
L 266.304175 169.824238 
L 266.450269 169.868769 
L 266.563898 169.858405 
L 266.709993 169.903546 
L 266.823622 169.893571 
L 266.969716 169.939137 
L 267.083345 169.929406 
L 267.22944 169.975212 
L 267.343069 169.965578 
L 267.489164 170.011438 
L 267.602793 170.001759 
L 267.748887 170.047487 
L 267.862516 170.037621 
L 268.008611 170.083038 
L 268.12224 170.072846 
L 268.268335 170.117775 
L 268.381964 170.107124 
L 268.528058 170.151398 
L 268.641687 170.140159 
L 268.787782 170.18362 
L 268.901411 170.171673 
L 269.047505 170.21417 
L 269.161135 170.201404 
L 269.307229 170.242798 
L 269.420858 170.229111 
L 269.566953 170.269278 
L 269.680582 170.254577 
L 269.826676 170.293405 
L 269.940305 170.277609 
L 270.0864 170.315001 
L 270.200029 170.29804 
L 270.346124 170.333916 
L 270.459753 170.315733 
L 270.605847 170.350026 
L 270.719476 170.330577 
L 270.865571 170.363238 
L 270.9792 170.342492 
L 271.125295 170.373489 
L 271.238924 170.351427 
L 271.385018 170.380745 
L 271.531113 170.357893 
L 271.677207 170.385324 
L 271.823302 170.360577 
L 271.969396 170.386147 
L 272.115491 170.359542 
L 272.261585 170.383299 
L 272.40768 170.354895 
L 272.553775 170.376909 
L 272.699869 170.346788 
L 272.813498 170.368395 
L 272.959593 170.336831 
L 273.073222 170.357363 
L 273.219316 170.324449 
L 273.332945 170.343985 
L 273.47904 170.309825 
L 273.592669 170.328449 
L 273.738764 170.293159 
L 273.852393 170.310966 
L 273.998487 170.27467 
L 274.112116 170.291759 
L 274.258211 170.254591 
L 274.37184 170.271069 
L 274.517935 170.233167 
L 274.631564 170.249144 
L 274.777658 170.210654 
L 274.891287 170.226245 
L 275.037382 170.187315 
L 275.151011 170.202635 
L 275.297105 170.163416 
L 275.410735 170.178584 
L 275.556829 170.139226 
L 275.670458 170.154358 
L 275.816553 170.115013 
L 275.930182 170.130226 
L 276.076276 170.091041 
L 276.189905 170.106448 
L 276.336 170.067568 
L 276.449629 170.08328 
L 276.595724 170.044842 
L 276.709353 170.060964 
L 276.855447 170.023102 
L 276.969076 170.039735 
L 277.115171 170.002573 
L 277.2288 170.019809 
L 277.374895 169.983464 
L 277.488524 170.00139 
L 277.634618 169.965966 
L 277.748247 169.984661 
L 277.894342 169.950254 
L 278.007971 169.969786 
L 278.154065 169.93648 
L 278.267695 169.95691 
L 278.413789 169.924774 
L 278.527418 169.946152 
L 278.673513 169.915246 
L 278.787142 169.937612 
L 278.933236 169.90798 
L 279.079331 169.930746 
L 279.225425 169.902584 
L 279.37152 169.92685 
L 279.517615 169.900178 
L 279.663709 169.925953 
L 279.809804 169.900772 
L 279.955898 169.928047 
L 280.101993 169.904339 
L 280.248087 169.933086 
L 280.361716 169.909953 
L 280.507811 169.939971 
L 280.62144 169.917796 
L 280.767535 169.949035 
L 280.881164 169.927775 
L 281.027258 169.960176 
L 281.140887 169.93978 
L 281.286982 169.973271 
L 281.400611 169.953679 
L 281.546705 169.988178 
L 281.660335 169.969325 
L 281.806429 170.004743 
L 281.920058 169.986553 
L 282.066153 170.022791 
L 282.179782 170.005187 
L 282.325876 170.042139 
L 282.439505 170.025036 
L 282.5856 170.062592 
L 282.699229 170.045901 
L 282.845324 170.083945 
L 282.958953 170.067576 
L 283.105047 170.105989 
L 283.218676 170.089848 
L 283.364771 170.12851 
L 283.4784 170.112502 
L 283.624495 170.151289 
L 283.738124 170.13532 
L 283.884218 170.174112 
L 283.997847 170.158087 
L 284.143942 170.196764 
L 284.257571 170.180592 
L 284.403665 170.219036 
L 284.517295 170.202626 
L 284.663389 170.240725 
L 284.777018 170.223992 
L 284.923113 170.261636 
L 285.036742 170.244498 
L 285.182836 170.281586 
L 285.296465 170.263965 
L 285.44256 170.300402 
L 285.556189 170.282228 
L 285.702284 170.317925 
L 285.815913 170.299134 
L 285.962007 170.334014 
L 286.075636 170.314547 
L 286.221731 170.34854 
L 286.33536 170.328347 
L 286.481455 170.361394 
L 286.595084 170.340433 
L 286.741178 170.372484 
L 286.854807 170.350722 
L 287.000902 170.381739 
L 287.114531 170.359148 
L 287.260625 170.389103 
L 287.374255 170.365668 
L 287.520349 170.394545 
L 287.666444 170.370694 
L 287.812538 170.398352 
L 287.958633 170.37327 
L 288.104727 170.399718 
L 288.250822 170.373422 
L 288.396916 170.398684 
L 288.543011 170.371206 
L 288.689105 170.395321 
L 288.8352 170.366706 
L 288.948829 170.390456 
L 289.094924 170.36088 
L 289.208553 170.383914 
L 289.354647 170.353434 
L 289.468276 170.375801 
L 289.614371 170.344481 
L 289.728 170.366232 
L 289.874095 170.334144 
L 289.987724 170.355338 
L 290.133818 170.32256 
L 290.247447 170.343261 
L 290.393542 170.309877 
L 290.507171 170.330153 
L 290.653265 170.296252 
L 290.766895 170.316172 
L 290.912989 170.281848 
L 291.026618 170.301486 
L 291.172713 170.266834 
L 291.286342 170.286265 
L 291.432436 170.251382 
L 291.546065 170.270684 
L 291.69216 170.235669 
L 291.805789 170.254917 
L 291.951884 170.219868 
L 292.065513 170.239139 
L 292.211607 170.204154 
L 292.325236 170.223522 
L 292.471331 170.188695 
L 292.58496 170.208233 
L 292.731055 170.173656 
L 292.844684 170.193434 
L 292.990778 170.159196 
L 293.104407 170.179281 
L 293.250502 170.145464 
L 293.364131 170.165918 
L 293.510225 170.132601 
L 293.623855 170.153482 
L 293.769949 170.120736 
L 293.883578 170.142098 
L 294.029673 170.109986 
L 294.143302 170.131875 
L 294.289396 170.100456 
L 294.403025 170.122914 
L 294.54912 170.092236 
L 294.662749 170.115298 
L 294.808844 170.085402 
L 294.922473 170.109096 
L 295.068567 170.080014 
L 295.182196 170.104361 
L 295.328291 170.076116 
L 295.474385 170.100835 
L 295.62048 170.073549 
L 295.766575 170.099243 
L 295.912669 170.072921 
L 296.058764 170.09959 
L 296.204858 170.074225 
L 296.350953 170.101855 
L 296.464582 170.076978 
L 296.480815 170.103466 
L 296.594444 170.078906 
L 296.740538 170.107775 
L 296.854167 170.083831 
L 297.000262 170.113488 
L 297.113891 170.090131 
L 297.259985 170.120535 
L 297.373615 170.097731 
L 297.519709 170.128836 
L 297.633338 170.106546 
L 297.779433 170.138297 
L 297.893062 170.116478 
L 298.039156 170.148816 
L 298.152785 170.127419 
L 298.29888 170.160279 
L 298.412509 170.139252 
L 298.558604 170.172565 
L 298.672233 170.151853 
L 298.818327 170.185547 
L 298.931956 170.165092 
L 299.078051 170.199092 
L 299.19168 170.178835 
L 299.337775 170.213062 
L 299.451404 170.192941 
L 299.597498 170.227317 
L 299.711127 170.207272 
L 299.857222 170.241718 
L 299.970851 170.221687 
L 300.116945 170.256123 
L 300.230575 170.236045 
L 300.376669 170.270394 
L 300.490298 170.250209 
L 300.636393 170.284397 
L 300.750022 170.264047 
L 300.896116 170.297999 
L 301.009745 170.27743 
L 301.15584 170.311077 
L 301.269469 170.290235 
L 301.415564 170.323512 
L 301.529193 170.302349 
L 301.675287 170.335195 
L 301.788916 170.313665 
L 301.935011 170.346026 
L 302.04864 170.324088 
L 302.194735 170.355913 
L 302.308364 170.333532 
L 302.454458 170.364777 
L 302.568087 170.341921 
L 302.714182 170.37255 
L 302.827811 170.349193 
L 302.973905 170.379176 
L 303.087535 170.355298 
L 303.233629 170.384611 
L 303.347258 170.360196 
L 303.493353 170.388824 
L 303.606982 170.363863 
L 303.753076 170.391797 
L 303.899171 170.366502 
L 304.045265 170.393654 
L 304.19136 170.367568 
L 304.337455 170.393947 
L 304.483549 170.367084 
L 304.629644 170.392709 
L 304.775738 170.365092 
L 304.889367 170.390362 
L 305.035462 170.362103 
L 305.149091 170.386894 
L 305.295185 170.358023 
L 305.408815 170.382362 
L 305.554909 170.352917 
L 305.668538 170.376834 
L 305.814633 170.346859 
L 305.928262 170.37039 
L 306.074356 170.339932 
L 306.187985 170.363116 
L 306.33408 170.332225 
L 306.447709 170.355103 
L 306.593804 170.323836 
L 306.707433 170.346453 
L 306.853527 170.314868 
L 306.967156 170.337269 
L 307.113251 170.305427 
L 307.22688 170.327661 
L 307.372975 170.295624 
L 307.486604 170.31774 
L 307.632698 170.285571 
L 307.746327 170.307617 
L 307.892422 170.275381 
L 308.006051 170.297408 
L 308.152145 170.265167 
L 308.265775 170.287224 
L 308.411869 170.255041 
L 308.525498 170.277176 
L 308.671593 170.245113 
L 308.785222 170.267372 
L 308.931316 170.235486 
L 309.044945 170.257914 
L 309.19104 170.226263 
L 309.304669 170.248902 
L 309.450764 170.217537 
L 309.564393 170.240428 
L 309.710487 170.209399 
L 309.824116 170.232577 
L 309.970211 170.201929 
L 310.08384 170.225427 
L 310.229935 170.1952 
L 310.343564 170.219048 
L 310.489658 170.189277 
L 310.603287 170.2135 
L 310.749382 170.184214 
L 310.863011 170.208834 
L 311.009105 170.180058 
L 311.122735 170.205091 
L 311.268829 170.176844 
L 311.382458 170.202302 
L 311.528553 170.174598 
L 311.674647 170.200331 
L 311.820742 170.173244 
L 311.966836 170.199607 
L 312.112931 170.173138 
L 312.259025 170.200127 
L 312.40512 170.174269 
L 312.551215 170.201873 
L 312.664844 170.176292 
L 312.810938 170.204425 
L 312.924567 170.179241 
L 313.070662 170.207884 
L 313.184291 170.183079 
L 313.330385 170.212206 
L 313.444015 170.187759 
L 313.590109 170.21734 
L 313.703738 170.193225 
L 313.849833 170.223226 
L 313.963462 170.199415 
L 314.109556 170.229797 
L 314.223185 170.206259 
L 314.36928 170.236982 
L 314.482909 170.213684 
L 314.629004 170.244702 
L 314.742633 170.221608 
L 314.888727 170.252875 
L 315.002356 170.229948 
L 315.148451 170.261416 
L 315.26208 170.238617 
L 315.408175 170.270235 
L 315.521804 170.247525 
L 315.667898 170.279242 
L 315.781527 170.256582 
L 315.927622 170.288347 
L 316.041251 170.265697 
L 316.187345 170.297459 
L 316.300975 170.27478 
L 316.447069 170.306489 
L 316.560698 170.283742 
L 316.706793 170.315349 
L 316.820422 170.292496 
L 316.966516 170.323955 
L 317.080145 170.300961 
L 317.22624 170.332226 
L 317.339869 170.309057 
L 317.485964 170.340086 
L 317.599593 170.31671 
L 317.745687 170.347464 
L 317.859316 170.323852 
L 318.005411 170.354295 
L 318.11904 170.330422 
L 318.265135 170.360522 
L 318.378764 170.336363 
L 318.524858 170.366092 
L 318.638487 170.341628 
L 318.784582 170.370963 
L 318.898211 170.346177 
L 319.044305 170.375098 
L 319.157935 170.349976 
L 319.304029 170.378469 
L 319.417658 170.353002 
L 319.563753 170.381056 
L 319.677382 170.355239 
L 319.823476 170.382849 
L 319.937105 170.356678 
L 320.0832 170.383844 
L 320.229295 170.357346 
L 320.375389 170.384017 
L 320.521484 170.35702 
L 320.635113 170.383345 
L 320.781207 170.355917 
L 320.894836 170.381919 
L 321.040931 170.354075 
L 321.15456 170.379768 
L 321.300655 170.351527 
L 321.414284 170.376928 
L 321.560378 170.348316 
L 321.674007 170.373445 
L 321.820102 170.344487 
L 321.933731 170.369365 
L 322.079825 170.340092 
L 322.193455 170.364745 
L 322.339549 170.33519 
L 322.453178 170.359644 
L 322.599273 170.329842 
L 322.712902 170.354126 
L 322.858996 170.324114 
L 322.972625 170.348256 
L 323.11872 170.318074 
L 323.232349 170.342106 
L 323.378444 170.311794 
L 323.492073 170.335747 
L 323.638167 170.305345 
L 323.751796 170.329251 
L 323.897891 170.2988 
L 324.01152 170.322691 
L 324.157615 170.292232 
L 324.271244 170.31614 
L 324.417338 170.285714 
L 324.530967 170.309669 
L 324.677062 170.279315 
L 324.790691 170.303348 
L 324.936785 170.273104 
L 325.050415 170.297244 
L 325.196509 170.267146 
L 325.310138 170.29142 
L 325.456233 170.261503 
L 325.569862 170.285937 
L 325.715956 170.256232 
L 325.829585 170.280849 
L 325.97568 170.251385 
L 326.089309 170.276207 
L 326.235404 170.247011 
L 326.349033 170.272056 
L 326.495127 170.24315 
L 326.608756 170.268436 
L 326.754851 170.23984 
L 326.86848 170.26538 
L 327.014575 170.237109 
L 327.128204 170.262914 
L 327.274298 170.234981 
L 327.387927 170.261058 
L 327.534022 170.233472 
L 327.647651 170.259828 
L 327.793745 170.232592 
L 327.907375 170.259228 
L 328.053469 170.232345 
L 328.199564 170.259309 
L 328.313193 170.232726 
L 328.459287 170.260043 
L 328.572916 170.233726 
L 328.719011 170.261388 
L 328.83264 170.235328 
L 328.978735 170.263323 
L 329.092364 170.23751 
L 329.238458 170.265823 
L 329.352087 170.240244 
L 329.498182 170.268857 
L 329.611811 170.243497 
L 329.757905 170.272387 
L 329.871535 170.247228 
L 330.017629 170.276374 
L 330.131258 170.251397 
L 330.277353 170.280771 
L 330.390982 170.255956 
L 330.537076 170.285531 
L 330.650705 170.260854 
L 330.7968 170.2906 
L 330.910429 170.266039 
L 331.056524 170.295926 
L 331.170153 170.271455 
L 331.316247 170.30145 
L 331.429876 170.277044 
L 331.575971 170.307116 
L 331.6896 170.28275 
L 331.835695 170.312865 
L 331.949324 170.288514 
L 332.095418 170.318639 
L 332.209047 170.294277 
L 332.355142 170.324379 
L 332.468771 170.299982 
L 332.614865 170.33003 
L 332.728495 170.305573 
L 332.874589 170.335537 
L 332.988218 170.310996 
L 333.134313 170.340846 
L 333.247942 170.3162 
L 333.394036 170.345908 
L 333.507665 170.321135 
L 333.65376 170.350676 
L 333.767389 170.325758 
L 333.913484 170.355107 
L 334.027113 170.330026 
L 334.173207 170.359163 
L 334.286836 170.333903 
L 334.432931 170.362809 
L 334.54656 170.337357 
L 334.692655 170.366016 
L 334.806284 170.34036 
L 334.952378 170.368758 
L 335.066007 170.34289 
L 335.212102 170.371017 
L 335.325731 170.344929 
L 335.471825 170.372779 
L 335.585455 170.346467 
L 335.731549 170.374034 
L 335.845178 170.347496 
L 335.991273 170.37478 
L 336.104902 170.348016 
L 336.218531 170.375016 
L 336.33216 170.348056 
L 336.445789 170.374868 
L 336.559418 170.347716 
L 336.673047 170.374343 
L 336.819142 170.346873 
L 336.932771 170.373296 
L 337.078865 170.345562 
L 337.192495 170.371791 
L 337.338589 170.343808 
L 337.452218 170.369854 
L 337.598313 170.341636 
L 337.711942 170.367512 
L 337.858036 170.339078 
L 337.971665 170.364799 
L 338.11776 170.336168 
L 338.231389 170.36175 
L 338.377484 170.332944 
L 338.491113 170.358404 
L 338.637207 170.329446 
L 338.750836 170.354803 
L 338.896931 170.325718 
L 339.01056 170.350991 
L 339.156655 170.321803 
L 339.270284 170.347012 
L 339.416378 170.317747 
L 339.530007 170.342912 
L 339.676102 170.313597 
L 339.789731 170.338739 
L 339.935825 170.3094 
L 340.049455 170.334538 
L 340.195549 170.305202 
L 340.309178 170.330358 
L 340.455273 170.301049 
L 340.568902 170.326242 
L 340.714996 170.296986 
L 340.828625 170.322235 
L 340.97472 170.293056 
L 341.088349 170.31838 
L 341.234444 170.289301 
L 341.348073 170.314716 
L 341.494167 170.285759 
L 341.607796 170.311281 
L 341.753891 170.282465 
L 341.86752 170.30811 
L 342.013615 170.279453 
L 342.127244 170.305233 
L 342.273338 170.276752 
L 342.386967 170.30268 
L 342.533062 170.274388 
L 342.646691 170.300473 
L 342.792785 170.272382 
L 342.906415 170.298632 
L 343.052509 170.270752 
L 343.166138 170.297174 
L 343.312233 170.269511 
L 343.425862 170.296109 
L 343.539491 170.268752 
L 343.65312 170.295507 
L 343.766749 170.268301 
L 343.880378 170.295214 
L 343.994007 170.26816 
L 344.107636 170.295229 
L 344.221265 170.268327 
L 344.334895 170.295551 
L 344.448524 170.268797 
L 344.562153 170.296173 
L 344.675782 170.269565 
L 344.821876 170.297243 
L 344.935505 170.270794 
L 345.0816 170.29868 
L 345.195229 170.272384 
L 345.341324 170.300466 
L 345.454953 170.274313 
L 345.601047 170.302579 
L 345.714676 170.276558 
L 345.860771 170.304994 
L 345.9744 170.279093 
L 346.120495 170.307682 
L 346.234124 170.281889 
L 346.380218 170.310613 
L 346.493847 170.284914 
L 346.639942 170.313755 
L 346.753571 170.288134 
L 346.899665 170.317072 
L 347.013295 170.291515 
L 347.159389 170.320531 
L 347.273018 170.29502 
L 347.419113 170.324092 
L 347.532742 170.298613 
L 347.678836 170.32772 
L 347.792465 170.302255 
L 347.93856 170.331377 
L 348.052189 170.305911 
L 348.198284 170.335026 
L 348.311913 170.309541 
L 348.458007 170.33863 
L 348.571636 170.313112 
L 348.717731 170.342153 
L 348.83136 170.316586 
L 348.977455 170.345562 
L 349.091084 170.319932 
L 349.237178 170.348823 
L 349.350807 170.323116 
L 349.496902 170.351907 
L 349.610531 170.32611 
L 349.756625 170.354784 
L 349.870255 170.328886 
L 350.016349 170.357429 
L 350.129978 170.33142 
L 350.276073 170.35982 
L 350.389702 170.33369 
L 350.535796 170.361936 
L 350.649425 170.335678 
L 350.79552 170.363761 
L 350.909149 170.337368 
L 351.022778 170.365108 
L 351.136407 170.338594 
L 351.250036 170.366214 
L 351.363665 170.339576 
L 351.477295 170.367076 
L 351.590924 170.340311 
L 351.704553 170.367689 
L 351.818182 170.340798 
L 351.931811 170.368053 
L 352.04544 170.341036 
L 352.159069 170.36817 
L 352.272698 170.341028 
L 352.386327 170.368043 
L 352.499956 170.340778 
L 352.613585 170.367676 
L 352.727215 170.340291 
L 352.840844 170.367076 
L 352.954473 170.339577 
L 353.068102 170.366253 
L 353.181731 170.338643 
L 353.29536 170.365217 
L 353.408989 170.337502 
L 353.522618 170.363979 
L 353.636247 170.336167 
L 353.749876 170.362553 
L 353.895971 170.33442 
L 354.0096 170.360713 
L 354.155695 170.332461 
L 354.269324 170.358671 
L 354.415418 170.330314 
L 354.529047 170.356452 
L 354.675142 170.328005 
L 354.788771 170.354085 
L 354.934865 170.325564 
L 355.048495 170.351597 
L 355.194589 170.323018 
L 355.308218 170.349017 
L 355.454313 170.320398 
L 355.567942 170.346376 
L 355.714036 170.317732 
L 355.827665 170.343703 
L 355.97376 170.315052 
L 356.087389 170.341027 
L 356.233484 170.312387 
L 356.347113 170.33838 
L 356.493207 170.309765 
L 356.606836 170.335788 
L 356.752931 170.307215 
L 356.86656 170.333281 
L 357.012655 170.304764 
L 357.126284 170.330884 
L 357.272378 170.302437 
L 357.386007 170.328621 
L 357.532102 170.300258 
L 357.645731 170.326517 
L 357.791825 170.29825 
L 357.905455 170.324592 
L 358.019084 170.296648 
L 358.132713 170.323069 
L 358.246342 170.295203 
L 358.359971 170.321709 
L 358.4736 170.293926 
L 358.587229 170.320521 
L 358.700858 170.292825 
L 358.814487 170.319513 
L 358.928116 170.291908 
L 359.041745 170.318693 
L 359.155375 170.291181 
L 359.269004 170.318064 
L 359.382633 170.290648 
L 359.496262 170.317631 
L 359.609891 170.290311 
L 359.72352 170.317395 
L 359.837149 170.290172 
L 359.950778 170.317356 
L 360.064407 170.290229 
L 360.178036 170.317512 
L 360.291665 170.29048 
L 360.405295 170.317861 
L 360.518924 170.290922 
L 360.632553 170.318398 
L 360.746182 170.291549 
L 360.859811 170.319118 
L 360.97344 170.292355 
L 361.087069 170.320011 
L 361.200698 170.29333 
L 361.314327 170.321071 
L 361.427956 170.294467 
L 361.541585 170.322286 
L 361.655215 170.295754 
L 361.768844 170.323646 
L 361.882473 170.29718 
L 361.996102 170.325138 
L 362.109731 170.298731 
L 362.22336 170.326749 
L 362.336989 170.300395 
L 362.450618 170.328467 
L 362.564247 170.302158 
L 362.677876 170.330275 
L 362.791505 170.304004 
L 362.9376 170.332433 
L 363.051229 170.306196 
L 363.197324 170.334667 
L 363.310953 170.308453 
L 363.457047 170.336953 
L 363.570676 170.310753 
L 363.716771 170.339267 
L 363.8304 170.313069 
L 363.976495 170.341585 
L 364.090124 170.31538 
L 364.236218 170.343885 
L 364.349847 170.317662 
L 364.495942 170.346141 
L 364.609571 170.319891 
L 364.7232 170.348064 
L 364.836829 170.321781 
L 364.950458 170.349923 
L 365.064087 170.323601 
L 365.177716 170.351704 
L 365.291345 170.325337 
L 365.404975 170.353396 
L 365.518604 170.326977 
L 365.632233 170.354985 
L 365.745862 170.32851 
L 365.859491 170.356462 
L 365.97312 170.329924 
L 366.086749 170.357815 
L 366.200378 170.331211 
L 366.314007 170.359037 
L 366.427636 170.332363 
L 366.541265 170.36012 
L 366.654895 170.333372 
L 366.768524 170.361057 
L 366.882153 170.334233 
L 366.995782 170.361844 
L 367.109411 170.334941 
L 367.22304 170.362476 
L 367.336669 170.335493 
L 367.450298 170.362951 
L 367.563927 170.335887 
L 367.677556 170.363268 
L 367.791185 170.336123 
L 367.904815 170.363427 
L 368.018444 170.336201 
L 368.132073 170.363429 
L 368.245702 170.336124 
L 368.359331 170.363276 
L 368.47296 170.335893 
L 368.586589 170.362973 
L 368.700218 170.335515 
L 368.813847 170.362524 
L 368.927476 170.334994 
L 369.041105 170.361936 
L 369.154735 170.334337 
L 369.268364 170.361216 
L 369.381993 170.333552 
L 369.495622 170.360371 
L 369.609251 170.332647 
L 369.72288 170.359411 
L 369.836509 170.331631 
L 369.950138 170.358346 
L 370.063767 170.330516 
L 370.177396 170.357186 
L 370.291025 170.32931 
L 370.404655 170.355942 
L 370.518284 170.328027 
L 370.631913 170.354626 
L 370.745542 170.326678 
L 370.859171 170.35325 
L 370.9728 170.325275 
L 371.086429 170.351827 
L 371.200058 170.323831 
L 371.313687 170.350368 
L 371.427316 170.322359 
L 371.540945 170.348888 
L 371.654575 170.320871 
L 371.768204 170.347399 
L 371.881833 170.31938 
L 371.995462 170.345913 
L 372.109091 170.317899 
L 372.22272 170.344443 
L 372.336349 170.31644 
L 372.449978 170.343002 
L 372.563607 170.315016 
L 372.677236 170.341601 
L 372.790865 170.313637 
L 372.904495 170.340251 
L 373.018124 170.312315 
L 373.131753 170.338963 
L 373.245382 170.31106 
L 373.359011 170.337747 
L 373.47264 170.309883 
L 373.586269 170.336614 
L 373.699898 170.308792 
L 373.813527 170.33557 
L 373.927156 170.307795 
L 374.040785 170.334625 
L 374.154415 170.3069 
L 374.268044 170.333785 
L 374.381673 170.306113 
L 374.495302 170.333056 
L 374.608931 170.30544 
L 374.72256 170.332442 
L 374.836189 170.304884 
L 374.949818 170.331949 
L 375.063447 170.304451 
L 375.177076 170.331579 
L 375.290705 170.304141 
L 375.404335 170.331333 
L 375.517964 170.303956 
L 375.631593 170.331212 
L 375.745222 170.303897 
L 375.858851 170.331217 
L 375.97248 170.303962 
L 376.086109 170.331346 
L 376.199738 170.304151 
L 376.313367 170.331597 
L 376.426996 170.304461 
L 376.540625 170.331967 
L 376.654255 170.304887 
L 376.767884 170.332452 
L 376.881513 170.305425 
L 376.995142 170.333046 
L 377.108771 170.306071 
L 377.2224 170.333744 
L 377.336029 170.306817 
L 377.449658 170.334539 
L 377.563287 170.307656 
L 377.676916 170.335425 
L 377.790545 170.308583 
L 377.904175 170.336392 
L 378.017804 170.309587 
L 378.131433 170.337434 
L 378.245062 170.31066 
L 378.358691 170.338539 
L 378.47232 170.311793 
L 378.585949 170.339701 
L 378.699578 170.312977 
L 378.813207 170.340907 
L 378.926836 170.314201 
L 379.040465 170.34215 
L 379.154095 170.315456 
L 379.267724 170.343417 
L 379.381353 170.316731 
L 379.494982 170.3447 
L 379.608611 170.318016 
L 379.72224 170.345988 
L 379.835869 170.319301 
L 379.949498 170.347271 
L 380.063127 170.320576 
L 380.176756 170.348539 
L 380.290385 170.321832 
L 380.404015 170.349782 
L 380.517644 170.323057 
L 380.631273 170.350991 
L 380.744902 170.324244 
L 380.858531 170.352157 
L 380.97216 170.325384 
L 381.085789 170.353271 
L 381.199418 170.326468 
L 381.313047 170.354326 
L 381.426676 170.327489 
L 381.540305 170.355313 
L 381.653935 170.328439 
L 381.767564 170.356227 
L 381.881193 170.329312 
L 381.994822 170.357061 
L 382.108451 170.330102 
L 382.22208 170.35781 
L 382.335709 170.330805 
L 382.449338 170.358469 
L 382.562967 170.331416 
L 382.676596 170.359034 
L 382.790225 170.331932 
L 382.903855 170.359503 
L 383.017484 170.33235 
L 383.131113 170.359873 
L 383.244742 170.332669 
L 383.358371 170.360142 
L 383.472 170.332887 
L 383.585629 170.360311 
L 383.699258 170.333004 
L 383.812887 170.36038 
L 383.926516 170.333021 
L 384.040145 170.360349 
L 384.153775 170.33294 
L 384.267404 170.360221 
L 384.381033 170.332763 
L 384.494662 170.359998 
L 384.608291 170.332493 
L 384.72192 170.359684 
L 384.835549 170.332133 
L 384.949178 170.359283 
L 385.062807 170.331688 
L 385.176436 170.358799 
L 385.290065 170.331164 
L 385.403695 170.358238 
L 385.517324 170.330565 
L 385.630953 170.357606 
L 385.744582 170.329899 
L 385.858211 170.356909 
L 385.97184 170.329171 
L 386.085469 170.356154 
L 386.199098 170.328388 
L 386.312727 170.355348 
L 386.426356 170.327559 
L 386.539985 170.3545 
L 386.653615 170.32669 
L 386.767244 170.353616 
L 386.880873 170.32579 
L 386.994502 170.352705 
L 387.108131 170.324867 
L 387.22176 170.351774 
L 387.335389 170.323929 
L 387.449018 170.350832 
L 387.562647 170.322983 
L 387.676276 170.349888 
L 387.789905 170.322039 
L 387.903535 170.348949 
L 388.017164 170.321104 
L 388.130793 170.348022 
L 388.244422 170.320186 
L 388.358051 170.347117 
L 388.47168 170.319292 
L 388.585309 170.346239 
L 388.698938 170.31843 
L 388.812567 170.345397 
L 388.926196 170.317606 
L 389.039825 170.344597 
L 389.153455 170.316828 
L 389.267084 170.343845 
L 389.380713 170.316101 
L 389.494342 170.343147 
L 389.607971 170.315431 
L 389.7216 170.342508 
L 389.835229 170.314823 
L 389.948858 170.341934 
L 390.062487 170.314281 
L 390.176116 170.341428 
L 390.289745 170.313809 
L 390.403375 170.340993 
L 390.517004 170.31341 
L 390.630633 170.340634 
L 390.744262 170.313088 
L 390.857891 170.340351 
L 390.97152 170.312843 
L 391.085149 170.340147 
L 391.198778 170.312677 
L 391.312407 170.340022 
L 391.426036 170.312591 
L 391.539665 170.339978 
L 391.653295 170.312585 
L 391.766924 170.340012 
L 391.880553 170.312658 
L 391.994182 170.340125 
L 392.107811 170.312809 
L 392.22144 170.340315 
L 392.335069 170.313035 
L 392.448698 170.34058 
L 392.562327 170.313335 
L 392.675956 170.340916 
L 392.789585 170.313704 
L 392.903215 170.34132 
L 393.016844 170.31414 
L 393.130473 170.341789 
L 393.244102 170.314638 
L 393.357731 170.342318 
L 393.47136 170.315194 
L 393.584989 170.342902 
L 393.698618 170.315803 
L 393.812247 170.343536 
L 393.925876 170.316459 
L 394.039505 170.344215 
L 394.153135 170.317156 
L 394.266764 170.344933 
L 394.380393 170.31789 
L 394.494022 170.345683 
L 394.607651 170.318652 
L 394.72128 170.346459 
L 394.834909 170.319438 
L 394.948538 170.347255 
L 395.062167 170.320241 
L 395.175796 170.348065 
L 395.289425 170.321054 
L 395.403055 170.348882 
L 395.516684 170.321871 
L 395.630313 170.349699 
L 395.743942 170.322684 
L 395.857571 170.35051 
L 395.9712 170.323489 
L 396.084829 170.351309 
L 396.198458 170.324279 
L 396.312087 170.35209 
L 396.425716 170.325047 
L 396.539345 170.352847 
L 396.652975 170.325789 
L 396.766604 170.353574 
L 396.880233 170.326498 
L 396.993862 170.354266 
L 397.107491 170.327169 
L 397.22112 170.354918 
L 397.334749 170.327798 
L 397.448378 170.355525 
L 397.562007 170.328381 
L 397.675636 170.356084 
L 397.789265 170.328913 
L 397.902895 170.356591 
L 398.016524 170.329391 
L 398.130153 170.357042 
L 398.243782 170.329813 
L 398.357411 170.357435 
L 398.47104 170.330175 
L 398.487273 170.357633 
L 398.487273 170.357633 
" clip-path="url(#pc6d4ffab16)" style="fill: none; stroke-dasharray: 5.55,2.4; stroke-dashoffset: 0; stroke: #ff0000; stroke-opacity: 0.2; stroke-width: 1.5"/>
   </g>
   <g id="line2d_34">
    <path d="M 73.832727 170.342727 
L 74.352175 170.241323 
L 74.676829 169.92867 
L 75.082647 169.199924 
L 75.602095 167.755089 
L 76.251404 165.218107 
L 77.06304 161.070527 
L 78.166865 154.14682 
L 82.484771 125.692672 
L 83.345105 122.03699 
L 84.043113 119.956078 
L 84.595025 118.923763 
L 85.033309 118.508077 
L 85.390429 118.439851 
L 85.731316 118.60332 
L 86.120902 119.06177 
L 86.591651 119.986672 
L 87.159796 121.627637 
L 87.857804 124.387866 
L 88.701905 128.714049 
L 89.757033 135.370592 
L 91.282909 146.580519 
L 93.993775 166.554293 
L 95.162531 173.476113 
L 96.087796 177.727461 
L 96.850735 180.280828 
L 97.500044 181.744857 
L 98.035724 182.457573 
L 98.474007 182.711855 
L 98.863593 182.695399 
L 99.269411 182.443677 
L 99.74016 181.865707 
L 100.308305 180.787155 
L 101.006313 178.952588 
L 101.899113 175.933478 
L 103.295127 170.316833 
L 105.63264 160.916204 
L 106.655302 157.759918 
L 107.450705 155.963519 
L 108.100015 154.990483 
L 108.635695 154.545441 
L 109.090211 154.429225 
L 109.528495 154.546187 
L 109.999244 154.920155 
L 110.534924 155.65041 
L 111.184233 156.947863 
L 111.963404 159.045436 
L 112.9536 162.413052 
L 114.544407 168.738138 
L 116.70336 177.197645 
L 117.790953 180.570135 
L 118.66752 182.619592 
L 119.365527 183.736323 
L 119.949905 184.283343 
L 120.45312 184.470004 
L 120.923869 184.411563 
L 121.443316 184.114205 
L 122.043927 183.493985 
L 122.758167 182.409932 
L 123.650967 180.616925 
L 124.900887 177.554619 
L 127.2384 171.767689 
L 128.261062 169.856798 
L 129.072698 168.778079 
L 129.754473 168.21487 
L 130.355084 167.993025 
L 130.906996 168.018527 
L 131.475142 168.270038 
L 132.108218 168.806469 
L 132.854924 169.754968 
L 133.763956 171.296868 
L 135.030109 173.933376 
L 137.757207 179.73423 
L 138.698705 181.140043 
L 139.477876 181.931073 
L 140.159651 182.320249 
L 140.776495 182.421968 
L 141.377105 182.295564 
L 142.026415 181.92096 
L 142.77312 181.213055 
L 143.84448 179.833759 
L 145.906036 176.721541 
L 147.448145 174.602634 
L 148.48704 173.531271 
L 149.314909 172.968789 
L 149.996684 172.768178 
L 150.645993 172.8052 
L 151.327767 173.07145 
L 152.090705 173.61773 
L 153.30816 174.829473 
L 156.749498 178.426885 
L 157.739695 179.063391 
L 158.600029 179.364083 
L 159.411665 179.414694 
L 160.223302 179.239652 
L 161.099869 178.815895 
L 162.138764 178.051554 
L 165.304145 175.562282 
L 166.5216 174.926478 
L 167.59296 174.609684 
L 168.631855 174.531301 
L 169.73568 174.676285 
L 171.034298 175.082562 
L 175.839185 176.817377 
L 177.007942 176.86032 
L 178.176698 176.675699 
L 179.459084 176.23723 
L 181.147287 175.403896 
L 183.371171 174.326969 
L 184.426298 174.114769 
L 185.497658 174.126917 
L 186.69888 174.368875 
L 188.419549 174.968054 
L 190.789527 175.759375 
L 192.088145 175.945752 
L 193.273135 175.888596 
L 194.474356 175.605239 
L 195.886604 175.032986 
L 200.967447 172.741475 
L 202.266065 172.546593 
L 203.580916 172.579165 
L 205.139258 172.852801 
L 209.619491 173.777329 
L 211.064204 173.750717 
L 212.557615 173.495376 
L 214.521775 172.913302 
L 217.086545 172.173517 
L 218.109207 172.166139 
L 219.229265 172.385639 
L 220.80384 172.950128 
L 222.005062 173.273483 
L 223.092655 173.339897 
L 226.290502 173.086178 
L 230.673338 172.498922 
L 234.471796 172.075823 
L 237.913135 171.930899 
L 244.763345 171.681466 
L 252.879709 171.20234 
L 267.456698 170.840326 
L 273.722531 170.812858 
L 280.962327 170.679689 
L 287.877469 170.615678 
L 298.639767 170.52473 
L 317.22624 170.446419 
L 398.487273 170.358962 
L 398.487273 170.358962 
" clip-path="url(#pc6d4ffab16)" style="fill: none; stroke: #008000; stroke-width: 1.5; stroke-linecap: square"/>
   </g>
   <g id="patch_3">
    <path d="M 57.6 307.584 
L 57.6 41.472 
" style="fill: none; stroke: #000000; stroke-width: 0.8; stroke-linejoin: miter; stroke-linecap: square"/>
   </g>
   <g id="patch_4">
    <path d="M 414.72 307.584 
L 414.72 41.472 
" style="fill: none; stroke: #000000; stroke-width: 0.8; stroke-linejoin: miter; stroke-linecap: square"/>
   </g>
   <g id="patch_5">
    <path d="M 57.6 307.584 
L 414.72 307.584 
" style="fill: none; stroke: #000000; stroke-width: 0.8; stroke-linejoin: miter; stroke-linecap: square"/>
   </g>
   <g id="patch_6">
    <path d="M 57.6 41.472 
L 414.72 41.472 
" style="fill: none; stroke: #000000; stroke-width: 0.8; stroke-linejoin: miter; stroke-linecap: square"/>
   </g>
   <g id="text_19">
    <!-- theta vs time -->
    <g transform="translate(196.238438 35.472) scale(0.12 -0.12)">
     <defs>
      <path id="DejaVuSans-76" d="M 191 3500 
L 800 3500 
L 1894 563 
L 2988 3500 
L 3597 3500 
L 2284 0 
L 1503 0 
L 191 3500 
z
" transform="scale(0.015625)"/>
     </defs>
     <use xlink:href="#DejaVuSans-74"/>
     <use xlink:href="#DejaVuSans-68" x="39.208984"/>
     <use xlink:href="#DejaVuSans-65" x="102.587891"/>
     <use xlink:href="#DejaVuSans-74" x="164.111328"/>
     <use xlink:href="#DejaVuSans-61" x="203.320312"/>
     <use xlink:href="#DejaVuSans-20" x="264.599609"/>
     <use xlink:href="#DejaVuSans-76" x="296.386719"/>
     <use xlink:href="#DejaVuSans-73" x="355.566406"/>
     <use xlink:href="#DejaVuSans-20" x="407.666016"/>
     <use xlink:href="#DejaVuSans-74" x="439.453125"/>
     <use xlink:href="#DejaVuSans-69" x="478.662109"/>
     <use xlink:href="#DejaVuSans-6d" x="506.445312"/>
     <use xlink:href="#DejaVuSans-65" x="603.857422"/>
    </g>
   </g>
   <g id="legend_1">
    <g id="patch_7">
     <path d="M 273.271563 79.106375 
L 407.72 79.106375 
Q 409.72 79.106375 409.72 77.106375 
L 409.72 48.472 
Q 409.72 46.472 407.72 46.472 
L 273.271563 46.472 
Q 271.271563 46.472 271.271563 48.472 
L 271.271563 77.106375 
Q 271.271563 79.106375 273.271563 79.106375 
z
" style="fill: #ffffff; opacity: 0.8; stroke: #cccccc; stroke-linejoin: miter"/>
    </g>
    <g id="line2d_35">
     <path d="M 275.271563 54.570438 
L 285.271563 54.570438 
L 295.271563 54.570438 
" style="fill: none; stroke-dasharray: 5.55,2.4; stroke-dashoffset: 0; stroke: #ff0000; stroke-opacity: 0.2; stroke-width: 1.5"/>
    </g>
    <g id="text_20">
     <!-- theta_dot (degree/s) -->
     <g transform="translate(303.271563 58.070438) scale(0.1 -0.1)">
      <defs>
       <path id="DejaVuSans-5f" d="M 3263 -1063 
L 3263 -1509 
L -63 -1509 
L -63 -1063 
L 3263 -1063 
z
" transform="scale(0.015625)"/>
       <path id="DejaVuSans-64" d="M 2906 2969 
L 2906 4863 
L 3481 4863 
L 3481 0 
L 2906 0 
L 2906 525 
Q 2725 213 2448 61 
Q 2172 -91 1784 -91 
Q 1150 -91 751 415 
Q 353 922 353 1747 
Q 353 2572 751 3078 
Q 1150 3584 1784 3584 
Q 2172 3584 2448 3432 
Q 2725 3281 2906 2969 
z
M 947 1747 
Q 947 1113 1208 752 
Q 1469 391 1925 391 
Q 2381 391 2643 752 
Q 2906 1113 2906 1747 
Q 2906 2381 2643 2742 
Q 2381 3103 1925 3103 
Q 1469 3103 1208 2742 
Q 947 2381 947 1747 
z
" transform="scale(0.015625)"/>
       <path id="DejaVuSans-6f" d="M 1959 3097 
Q 1497 3097 1228 2736 
Q 959 2375 959 1747 
Q 959 1119 1226 758 
Q 1494 397 1959 397 
Q 2419 397 2687 759 
Q 2956 1122 2956 1747 
Q 2956 2369 2687 2733 
Q 2419 3097 1959 3097 
z
M 1959 3584 
Q 2709 3584 3137 3096 
Q 3566 2609 3566 1747 
Q 3566 888 3137 398 
Q 2709 -91 1959 -91 
Q 1206 -91 779 398 
Q 353 888 353 1747 
Q 353 2609 779 3096 
Q 1206 3584 1959 3584 
z
" transform="scale(0.015625)"/>
       <path id="DejaVuSans-67" d="M 2906 1791 
Q 2906 2416 2648 2759 
Q 2391 3103 1925 3103 
Q 1463 3103 1205 2759 
Q 947 2416 947 1791 
Q 947 1169 1205 825 
Q 1463 481 1925 481 
Q 2391 481 2648 825 
Q 2906 1169 2906 1791 
z
M 3481 434 
Q 3481 -459 3084 -895 
Q 2688 -1331 1869 -1331 
Q 1566 -1331 1297 -1286 
Q 1028 -1241 775 -1147 
L 775 -588 
Q 1028 -725 1275 -790 
Q 1522 -856 1778 -856 
Q 2344 -856 2625 -561 
Q 2906 -266 2906 331 
L 2906 616 
Q 2728 306 2450 153 
Q 2172 0 1784 0 
Q 1141 0 747 490 
Q 353 981 353 1791 
Q 353 2603 747 3093 
Q 1141 3584 1784 3584 
Q 2172 3584 2450 3431 
Q 2728 3278 2906 2969 
L 2906 3500 
L 3481 3500 
L 3481 434 
z
" transform="scale(0.015625)"/>
       <path id="DejaVuSans-72" d="M 2631 2963 
Q 2534 3019 2420 3045 
Q 2306 3072 2169 3072 
Q 1681 3072 1420 2755 
Q 1159 2438 1159 1844 
L 1159 0 
L 581 0 
L 581 3500 
L 1159 3500 
L 1159 2956 
Q 1341 3275 1631 3429 
Q 1922 3584 2338 3584 
Q 2397 3584 2469 3576 
Q 2541 3569 2628 3553 
L 2631 2963 
z
" transform="scale(0.015625)"/>
       <path id="DejaVuSans-2f" d="M 1625 4666 
L 2156 4666 
L 531 -594 
L 0 -594 
L 1625 4666 
z
" transform="scale(0.015625)"/>
      </defs>
      <use xlink:href="#DejaVuSans-74"/>
      <use xlink:href="#DejaVuSans-68" x="39.208984"/>
      <use xlink:href="#DejaVuSans-65" x="102.587891"/>
      <use xlink:href="#DejaVuSans-74" x="164.111328"/>
      <use xlink:href="#DejaVuSans-61" x="203.320312"/>
      <use xlink:href="#DejaVuSans-5f" x="264.599609"/>
      <use xlink:href="#DejaVuSans-64" x="314.599609"/>
      <use xlink:href="#DejaVuSans-6f" x="378.076172"/>
      <use xlink:href="#DejaVuSans-74" x="439.257812"/>
      <use xlink:href="#DejaVuSans-20" x="478.466797"/>
      <use xlink:href="#DejaVuSans-28" x="510.253906"/>
      <use xlink:href="#DejaVuSans-64" x="549.267578"/>
      <use xlink:href="#DejaVuSans-65" x="612.744141"/>
      <use xlink:href="#DejaVuSans-67" x="674.267578"/>
      <use xlink:href="#DejaVuSans-72" x="737.744141"/>
      <use xlink:href="#DejaVuSans-65" x="776.607422"/>
      <use xlink:href="#DejaVuSans-65" x="838.130859"/>
      <use xlink:href="#DejaVuSans-2f" x="899.654297"/>
      <use xlink:href="#DejaVuSans-73" x="933.345703"/>
      <use xlink:href="#DejaVuSans-29" x="985.445312"/>
     </g>
    </g>
    <g id="line2d_36">
     <path d="M 275.271563 69.526688 
L 285.271563 69.526688 
L 295.271563 69.526688 
" style="fill: none; stroke: #008000; stroke-width: 1.5; stroke-linecap: square"/>
    </g>
    <g id="text_21">
     <!-- theta (degree) -->
     <g transform="translate(303.271563 73.026688) scale(0.1 -0.1)">
      <use xlink:href="#DejaVuSans-74"/>
      <use xlink:href="#DejaVuSans-68" x="39.208984"/>
      <use xlink:href="#DejaVuSans-65" x="102.587891"/>
      <use xlink:href="#DejaVuSans-74" x="164.111328"/>
      <use xlink:href="#DejaVuSans-61" x="203.320312"/>
      <use xlink:href="#DejaVuSans-20" x="264.599609"/>
      <use xlink:href="#DejaVuSans-28" x="296.386719"/>
      <use xlink:href="#DejaVuSans-64" x="335.400391"/>
      <use xlink:href="#DejaVuSans-65" x="398.876953"/>
      <use xlink:href="#DejaVuSans-67" x="460.400391"/>
      <use xlink:href="#DejaVuSans-72" x="523.876953"/>
      <use xlink:href="#DejaVuSans-65" x="562.740234"/>
      <use xlink:href="#DejaVuSans-65" x="624.263672"/>
      <use xlink:href="#DejaVuSans-29" x="685.787109"/>
     </g>
    </g>
   </g>
  </g>
 </g>
 <defs>
  <clipPath id="pc6d4ffab16">
   <rect x="57.6" y="41.472" width="357.12" height="266.112"/>
  </clipPath>
 </defs>
</svg>
