<?xml version="1.0" encoding="utf-8" standalone="no"?>
<!DOCTYPE svg PUBLIC "-//W3C//DTD SVG 1.1//EN"
  "http://www.w3.org/Graphics/SVG/1.1/DTD/svg11.dtd">
<svg xmlns:xlink="http://www.w3.org/1999/xlink" width="460.8pt" height="345.6pt" viewBox="0 0 460.8 345.6" xmlns="http://www.w3.org/2000/svg" version="1.1">
 <metadata>
  <rdf:RDF xmlns:dc="http://purl.org/dc/elements/1.1/" xmlns:cc="http://creativecommons.org/ns#" xmlns:rdf="http://www.w3.org/1999/02/22-rdf-syntax-ns#">
   <cc:Work>
    <dc:type rdf:resource="http://purl.org/dc/dcmitype/StillImage"/>
    <dc:date>2023-06-30T10:19:16.787820</dc:date>
    <dc:format>image/svg+xml</dc:format>
    <dc:creator>
     <cc:Agent>
      <dc:title>Matplotlib v3.7.1, https://matplotlib.org/</dc:title>
     </cc:Agent>
    </dc:creator>
   </cc:Work>
  </rdf:RDF>
 </metadata>
 <defs>
  <style type="text/css">*{stroke-linejoin: round; stroke-linecap: butt}</style>
 </defs>
 <g id="figure_1">
  <g id="patch_1">
   <path d="M 0 345.6 
L 460.8 345.6 
L 460.8 0 
L 0 0 
L 0 345.6 
z
" style="fill: none"/>
  </g>
  <g id="axes_1">
   <g id="patch_2">
    <path d="M 57.6 307.584 
L 414.72 307.584 
L 414.72 41.472 
L 57.6 41.472 
L 57.6 307.584 
z
" style="fill: none"/>
   </g>
   <g id="matplotlib.axis_1">
    <g id="xtick_1">
     <g id="line2d_1">
      <path d="M 73.832727 307.584 
L 73.832727 41.472 
" clip-path="url(#p8c6fea811b)" style="fill: none; stroke: #b0b0b0; stroke-width: 0.8; stroke-linecap: square"/>
     </g>
     <g id="line2d_2">
      <defs>
       <path id="mfb1bee709f" d="M 0 0 
L 0 3.5 
" style="stroke: #000000; stroke-width: 0.8"/>
      </defs>
      <g>
       <use xlink:href="#mfb1bee709f" x="73.832727" y="307.584" style="stroke: #000000; stroke-width: 0.8"/>
      </g>
     </g>
     <g id="text_1">
      <!-- 0.0 -->
      <g transform="translate(65.881165 322.182437) scale(0.1 -0.1)">
       <defs>
        <path id="DejaVuSans-30" d="M 2034 4250 
Q 1547 4250 1301 3770 
Q 1056 3291 1056 2328 
Q 1056 1369 1301 889 
Q 1547 409 2034 409 
Q 2525 409 2770 889 
Q 3016 1369 3016 2328 
Q 3016 3291 2770 3770 
Q 2525 4250 2034 4250 
z
M 2034 4750 
Q 2819 4750 3233 4129 
Q 3647 3509 3647 2328 
Q 3647 1150 3233 529 
Q 2819 -91 2034 -91 
Q 1250 -91 836 529 
Q 422 1150 422 2328 
Q 422 3509 836 4129 
Q 1250 4750 2034 4750 
z
" transform="scale(0.015625)"/>
        <path id="DejaVuSans-2e" d="M 684 794 
L 1344 794 
L 1344 0 
L 684 0 
L 684 794 
z
" transform="scale(0.015625)"/>
       </defs>
       <use xlink:href="#DejaVuSans-30"/>
       <use xlink:href="#DejaVuSans-2e" x="63.623047"/>
       <use xlink:href="#DejaVuSans-30" x="95.410156"/>
      </g>
     </g>
    </g>
    <g id="xtick_2">
     <g id="line2d_3">
      <path d="M 114.414545 307.584 
L 114.414545 41.472 
" clip-path="url(#p8c6fea811b)" style="fill: none; stroke: #b0b0b0; stroke-width: 0.8; stroke-linecap: square"/>
     </g>
     <g id="line2d_4">
      <g>
       <use xlink:href="#mfb1bee709f" x="114.414545" y="307.584" style="stroke: #000000; stroke-width: 0.8"/>
      </g>
     </g>
     <g id="text_2">
      <!-- 2.5 -->
      <g transform="translate(106.462983 322.182437) scale(0.1 -0.1)">
       <defs>
        <path id="DejaVuSans-32" d="M 1228 531 
L 3431 531 
L 3431 0 
L 469 0 
L 469 531 
Q 828 903 1448 1529 
Q 2069 2156 2228 2338 
Q 2531 2678 2651 2914 
Q 2772 3150 2772 3378 
Q 2772 3750 2511 3984 
Q 2250 4219 1831 4219 
Q 1534 4219 1204 4116 
Q 875 4013 500 3803 
L 500 4441 
Q 881 4594 1212 4672 
Q 1544 4750 1819 4750 
Q 2544 4750 2975 4387 
Q 3406 4025 3406 3419 
Q 3406 3131 3298 2873 
Q 3191 2616 2906 2266 
Q 2828 2175 2409 1742 
Q 1991 1309 1228 531 
z
" transform="scale(0.015625)"/>
        <path id="DejaVuSans-35" d="M 691 4666 
L 3169 4666 
L 3169 4134 
L 1269 4134 
L 1269 2991 
Q 1406 3038 1543 3061 
Q 1681 3084 1819 3084 
Q 2600 3084 3056 2656 
Q 3513 2228 3513 1497 
Q 3513 744 3044 326 
Q 2575 -91 1722 -91 
Q 1428 -91 1123 -41 
Q 819 9 494 109 
L 494 744 
Q 775 591 1075 516 
Q 1375 441 1709 441 
Q 2250 441 2565 725 
Q 2881 1009 2881 1497 
Q 2881 1984 2565 2268 
Q 2250 2553 1709 2553 
Q 1456 2553 1204 2497 
Q 953 2441 691 2322 
L 691 4666 
z
" transform="scale(0.015625)"/>
       </defs>
       <use xlink:href="#DejaVuSans-32"/>
       <use xlink:href="#DejaVuSans-2e" x="63.623047"/>
       <use xlink:href="#DejaVuSans-35" x="95.410156"/>
      </g>
     </g>
    </g>
    <g id="xtick_3">
     <g id="line2d_5">
      <path d="M 154.996364 307.584 
L 154.996364 41.472 
" clip-path="url(#p8c6fea811b)" style="fill: none; stroke: #b0b0b0; stroke-width: 0.8; stroke-linecap: square"/>
     </g>
     <g id="line2d_6">
      <g>
       <use xlink:href="#mfb1bee709f" x="154.996364" y="307.584" style="stroke: #000000; stroke-width: 0.8"/>
      </g>
     </g>
     <g id="text_3">
      <!-- 5.0 -->
      <g transform="translate(147.044801 322.182437) scale(0.1 -0.1)">
       <use xlink:href="#DejaVuSans-35"/>
       <use xlink:href="#DejaVuSans-2e" x="63.623047"/>
       <use xlink:href="#DejaVuSans-30" x="95.410156"/>
      </g>
     </g>
    </g>
    <g id="xtick_4">
     <g id="line2d_7">
      <path d="M 195.578182 307.584 
L 195.578182 41.472 
" clip-path="url(#p8c6fea811b)" style="fill: none; stroke: #b0b0b0; stroke-width: 0.8; stroke-linecap: square"/>
     </g>
     <g id="line2d_8">
      <g>
       <use xlink:href="#mfb1bee709f" x="195.578182" y="307.584" style="stroke: #000000; stroke-width: 0.8"/>
      </g>
     </g>
     <g id="text_4">
      <!-- 7.5 -->
      <g transform="translate(187.626619 322.182437) scale(0.1 -0.1)">
       <defs>
        <path id="DejaVuSans-37" d="M 525 4666 
L 3525 4666 
L 3525 4397 
L 1831 0 
L 1172 0 
L 2766 4134 
L 525 4134 
L 525 4666 
z
" transform="scale(0.015625)"/>
       </defs>
       <use xlink:href="#DejaVuSans-37"/>
       <use xlink:href="#DejaVuSans-2e" x="63.623047"/>
       <use xlink:href="#DejaVuSans-35" x="95.410156"/>
      </g>
     </g>
    </g>
    <g id="xtick_5">
     <g id="line2d_9">
      <path d="M 236.16 307.584 
L 236.16 41.472 
" clip-path="url(#p8c6fea811b)" style="fill: none; stroke: #b0b0b0; stroke-width: 0.8; stroke-linecap: square"/>
     </g>
     <g id="line2d_10">
      <g>
       <use xlink:href="#mfb1bee709f" x="236.16" y="307.584" style="stroke: #000000; stroke-width: 0.8"/>
      </g>
     </g>
     <g id="text_5">
      <!-- 10.0 -->
      <g transform="translate(225.027188 322.182437) scale(0.1 -0.1)">
       <defs>
        <path id="DejaVuSans-31" d="M 794 531 
L 1825 531 
L 1825 4091 
L 703 3866 
L 703 4441 
L 1819 4666 
L 2450 4666 
L 2450 531 
L 3481 531 
L 3481 0 
L 794 0 
L 794 531 
z
" transform="scale(0.015625)"/>
       </defs>
       <use xlink:href="#DejaVuSans-31"/>
       <use xlink:href="#DejaVuSans-30" x="63.623047"/>
       <use xlink:href="#DejaVuSans-2e" x="127.246094"/>
       <use xlink:href="#DejaVuSans-30" x="159.033203"/>
      </g>
     </g>
    </g>
    <g id="xtick_6">
     <g id="line2d_11">
      <path d="M 276.741818 307.584 
L 276.741818 41.472 
" clip-path="url(#p8c6fea811b)" style="fill: none; stroke: #b0b0b0; stroke-width: 0.8; stroke-linecap: square"/>
     </g>
     <g id="line2d_12">
      <g>
       <use xlink:href="#mfb1bee709f" x="276.741818" y="307.584" style="stroke: #000000; stroke-width: 0.8"/>
      </g>
     </g>
     <g id="text_6">
      <!-- 12.5 -->
      <g transform="translate(265.609006 322.182437) scale(0.1 -0.1)">
       <use xlink:href="#DejaVuSans-31"/>
       <use xlink:href="#DejaVuSans-32" x="63.623047"/>
       <use xlink:href="#DejaVuSans-2e" x="127.246094"/>
       <use xlink:href="#DejaVuSans-35" x="159.033203"/>
      </g>
     </g>
    </g>
    <g id="xtick_7">
     <g id="line2d_13">
      <path d="M 317.323636 307.584 
L 317.323636 41.472 
" clip-path="url(#p8c6fea811b)" style="fill: none; stroke: #b0b0b0; stroke-width: 0.8; stroke-linecap: square"/>
     </g>
     <g id="line2d_14">
      <g>
       <use xlink:href="#mfb1bee709f" x="317.323636" y="307.584" style="stroke: #000000; stroke-width: 0.8"/>
      </g>
     </g>
     <g id="text_7">
      <!-- 15.0 -->
      <g transform="translate(306.190824 322.182437) scale(0.1 -0.1)">
       <use xlink:href="#DejaVuSans-31"/>
       <use xlink:href="#DejaVuSans-35" x="63.623047"/>
       <use xlink:href="#DejaVuSans-2e" x="127.246094"/>
       <use xlink:href="#DejaVuSans-30" x="159.033203"/>
      </g>
     </g>
    </g>
    <g id="xtick_8">
     <g id="line2d_15">
      <path d="M 357.905455 307.584 
L 357.905455 41.472 
" clip-path="url(#p8c6fea811b)" style="fill: none; stroke: #b0b0b0; stroke-width: 0.8; stroke-linecap: square"/>
     </g>
     <g id="line2d_16">
      <g>
       <use xlink:href="#mfb1bee709f" x="357.905455" y="307.584" style="stroke: #000000; stroke-width: 0.8"/>
      </g>
     </g>
     <g id="text_8">
      <!-- 17.5 -->
      <g transform="translate(346.772642 322.182437) scale(0.1 -0.1)">
       <use xlink:href="#DejaVuSans-31"/>
       <use xlink:href="#DejaVuSans-37" x="63.623047"/>
       <use xlink:href="#DejaVuSans-2e" x="127.246094"/>
       <use xlink:href="#DejaVuSans-35" x="159.033203"/>
      </g>
     </g>
    </g>
    <g id="xtick_9">
     <g id="line2d_17">
      <path d="M 398.487273 307.584 
L 398.487273 41.472 
" clip-path="url(#p8c6fea811b)" style="fill: none; stroke: #b0b0b0; stroke-width: 0.8; stroke-linecap: square"/>
     </g>
     <g id="line2d_18">
      <g>
       <use xlink:href="#mfb1bee709f" x="398.487273" y="307.584" style="stroke: #000000; stroke-width: 0.8"/>
      </g>
     </g>
     <g id="text_9">
      <!-- 20.0 -->
      <g transform="translate(387.35446 322.182437) scale(0.1 -0.1)">
       <use xlink:href="#DejaVuSans-32"/>
       <use xlink:href="#DejaVuSans-30" x="63.623047"/>
       <use xlink:href="#DejaVuSans-2e" x="127.246094"/>
       <use xlink:href="#DejaVuSans-30" x="159.033203"/>
      </g>
     </g>
    </g>
    <g id="text_10">
     <!-- time (s) -->
     <g transform="translate(216.768594 335.860562) scale(0.1 -0.1)">
      <defs>
       <path id="DejaVuSans-74" d="M 1172 4494 
L 1172 3500 
L 2356 3500 
L 2356 3053 
L 1172 3053 
L 1172 1153 
Q 1172 725 1289 603 
Q 1406 481 1766 481 
L 2356 481 
L 2356 0 
L 1766 0 
Q 1100 0 847 248 
Q 594 497 594 1153 
L 594 3053 
L 172 3053 
L 172 3500 
L 594 3500 
L 594 4494 
L 1172 4494 
z
" transform="scale(0.015625)"/>
       <path id="DejaVuSans-69" d="M 603 3500 
L 1178 3500 
L 1178 0 
L 603 0 
L 603 3500 
z
M 603 4863 
L 1178 4863 
L 1178 4134 
L 603 4134 
L 603 4863 
z
" transform="scale(0.015625)"/>
       <path id="DejaVuSans-6d" d="M 3328 2828 
Q 3544 3216 3844 3400 
Q 4144 3584 4550 3584 
Q 5097 3584 5394 3201 
Q 5691 2819 5691 2113 
L 5691 0 
L 5113 0 
L 5113 2094 
Q 5113 2597 4934 2840 
Q 4756 3084 4391 3084 
Q 3944 3084 3684 2787 
Q 3425 2491 3425 1978 
L 3425 0 
L 2847 0 
L 2847 2094 
Q 2847 2600 2669 2842 
Q 2491 3084 2119 3084 
Q 1678 3084 1418 2786 
Q 1159 2488 1159 1978 
L 1159 0 
L 581 0 
L 581 3500 
L 1159 3500 
L 1159 2956 
Q 1356 3278 1631 3431 
Q 1906 3584 2284 3584 
Q 2666 3584 2933 3390 
Q 3200 3197 3328 2828 
z
" transform="scale(0.015625)"/>
       <path id="DejaVuSans-65" d="M 3597 1894 
L 3597 1613 
L 953 1613 
Q 991 1019 1311 708 
Q 1631 397 2203 397 
Q 2534 397 2845 478 
Q 3156 559 3463 722 
L 3463 178 
Q 3153 47 2828 -22 
Q 2503 -91 2169 -91 
Q 1331 -91 842 396 
Q 353 884 353 1716 
Q 353 2575 817 3079 
Q 1281 3584 2069 3584 
Q 2775 3584 3186 3129 
Q 3597 2675 3597 1894 
z
M 3022 2063 
Q 3016 2534 2758 2815 
Q 2500 3097 2075 3097 
Q 1594 3097 1305 2825 
Q 1016 2553 972 2059 
L 3022 2063 
z
" transform="scale(0.015625)"/>
       <path id="DejaVuSans-20" transform="scale(0.015625)"/>
       <path id="DejaVuSans-28" d="M 1984 4856 
Q 1566 4138 1362 3434 
Q 1159 2731 1159 2009 
Q 1159 1288 1364 580 
Q 1569 -128 1984 -844 
L 1484 -844 
Q 1016 -109 783 600 
Q 550 1309 550 2009 
Q 550 2706 781 3412 
Q 1013 4119 1484 4856 
L 1984 4856 
z
" transform="scale(0.015625)"/>
       <path id="DejaVuSans-73" d="M 2834 3397 
L 2834 2853 
Q 2591 2978 2328 3040 
Q 2066 3103 1784 3103 
Q 1356 3103 1142 2972 
Q 928 2841 928 2578 
Q 928 2378 1081 2264 
Q 1234 2150 1697 2047 
L 1894 2003 
Q 2506 1872 2764 1633 
Q 3022 1394 3022 966 
Q 3022 478 2636 193 
Q 2250 -91 1575 -91 
Q 1294 -91 989 -36 
Q 684 19 347 128 
L 347 722 
Q 666 556 975 473 
Q 1284 391 1588 391 
Q 1994 391 2212 530 
Q 2431 669 2431 922 
Q 2431 1156 2273 1281 
Q 2116 1406 1581 1522 
L 1381 1569 
Q 847 1681 609 1914 
Q 372 2147 372 2553 
Q 372 3047 722 3315 
Q 1072 3584 1716 3584 
Q 2034 3584 2315 3537 
Q 2597 3491 2834 3397 
z
" transform="scale(0.015625)"/>
       <path id="DejaVuSans-29" d="M 513 4856 
L 1013 4856 
Q 1481 4119 1714 3412 
Q 1947 2706 1947 2009 
Q 1947 1309 1714 600 
Q 1481 -109 1013 -844 
L 513 -844 
Q 928 -128 1133 580 
Q 1338 1288 1338 2009 
Q 1338 2731 1133 3434 
Q 928 4138 513 4856 
z
" transform="scale(0.015625)"/>
      </defs>
      <use xlink:href="#DejaVuSans-74"/>
      <use xlink:href="#DejaVuSans-69" x="39.208984"/>
      <use xlink:href="#DejaVuSans-6d" x="66.992188"/>
      <use xlink:href="#DejaVuSans-65" x="164.404297"/>
      <use xlink:href="#DejaVuSans-20" x="225.927734"/>
      <use xlink:href="#DejaVuSans-28" x="257.714844"/>
      <use xlink:href="#DejaVuSans-73" x="296.728516"/>
      <use xlink:href="#DejaVuSans-29" x="348.828125"/>
     </g>
    </g>
   </g>
   <g id="matplotlib.axis_2">
    <g id="ytick_1">
     <g id="line2d_19">
      <path d="M 57.6 304.047222 
L 414.72 304.047222 
" clip-path="url(#p8c6fea811b)" style="fill: none; stroke: #b0b0b0; stroke-width: 0.8; stroke-linecap: square"/>
     </g>
     <g id="line2d_20">
      <defs>
       <path id="m9eefbfe7f6" d="M 0 0 
L -3.5 0 
" style="stroke: #000000; stroke-width: 0.8"/>
      </defs>
      <g>
       <use xlink:href="#m9eefbfe7f6" x="57.6" y="304.047222" style="stroke: #000000; stroke-width: 0.8"/>
      </g>
     </g>
     <g id="text_11">
      <!-- −4 -->
      <g transform="translate(35.857813 307.84644) scale(0.1 -0.1)">
       <defs>
        <path id="DejaVuSans-2212" d="M 678 2272 
L 4684 2272 
L 4684 1741 
L 678 1741 
L 678 2272 
z
" transform="scale(0.015625)"/>
        <path id="DejaVuSans-34" d="M 2419 4116 
L 825 1625 
L 2419 1625 
L 2419 4116 
z
M 2253 4666 
L 3047 4666 
L 3047 1625 
L 3713 1625 
L 3713 1100 
L 3047 1100 
L 3047 0 
L 2419 0 
L 2419 1100 
L 313 1100 
L 313 1709 
L 2253 4666 
z
" transform="scale(0.015625)"/>
       </defs>
       <use xlink:href="#DejaVuSans-2212"/>
       <use xlink:href="#DejaVuSans-34" x="83.789062"/>
      </g>
     </g>
    </g>
    <g id="ytick_2">
     <g id="line2d_21">
      <path d="M 57.6 268.640784 
L 414.72 268.640784 
" clip-path="url(#p8c6fea811b)" style="fill: none; stroke: #b0b0b0; stroke-width: 0.8; stroke-linecap: square"/>
     </g>
     <g id="line2d_22">
      <g>
       <use xlink:href="#m9eefbfe7f6" x="57.6" y="268.640784" style="stroke: #000000; stroke-width: 0.8"/>
      </g>
     </g>
     <g id="text_12">
      <!-- −3 -->
      <g transform="translate(35.857813 272.440002) scale(0.1 -0.1)">
       <defs>
        <path id="DejaVuSans-33" d="M 2597 2516 
Q 3050 2419 3304 2112 
Q 3559 1806 3559 1356 
Q 3559 666 3084 287 
Q 2609 -91 1734 -91 
Q 1441 -91 1130 -33 
Q 819 25 488 141 
L 488 750 
Q 750 597 1062 519 
Q 1375 441 1716 441 
Q 2309 441 2620 675 
Q 2931 909 2931 1356 
Q 2931 1769 2642 2001 
Q 2353 2234 1838 2234 
L 1294 2234 
L 1294 2753 
L 1863 2753 
Q 2328 2753 2575 2939 
Q 2822 3125 2822 3475 
Q 2822 3834 2567 4026 
Q 2313 4219 1838 4219 
Q 1578 4219 1281 4162 
Q 984 4106 628 3988 
L 628 4550 
Q 988 4650 1302 4700 
Q 1616 4750 1894 4750 
Q 2613 4750 3031 4423 
Q 3450 4097 3450 3541 
Q 3450 3153 3228 2886 
Q 3006 2619 2597 2516 
z
" transform="scale(0.015625)"/>
       </defs>
       <use xlink:href="#DejaVuSans-2212"/>
       <use xlink:href="#DejaVuSans-33" x="83.789062"/>
      </g>
     </g>
    </g>
    <g id="ytick_3">
     <g id="line2d_23">
      <path d="M 57.6 233.234346 
L 414.72 233.234346 
" clip-path="url(#p8c6fea811b)" style="fill: none; stroke: #b0b0b0; stroke-width: 0.8; stroke-linecap: square"/>
     </g>
     <g id="line2d_24">
      <g>
       <use xlink:href="#m9eefbfe7f6" x="57.6" y="233.234346" style="stroke: #000000; stroke-width: 0.8"/>
      </g>
     </g>
     <g id="text_13">
      <!-- −2 -->
      <g transform="translate(35.857813 237.033565) scale(0.1 -0.1)">
       <use xlink:href="#DejaVuSans-2212"/>
       <use xlink:href="#DejaVuSans-32" x="83.789062"/>
      </g>
     </g>
    </g>
    <g id="ytick_4">
     <g id="line2d_25">
      <path d="M 57.6 197.827908 
L 414.72 197.827908 
" clip-path="url(#p8c6fea811b)" style="fill: none; stroke: #b0b0b0; stroke-width: 0.8; stroke-linecap: square"/>
     </g>
     <g id="line2d_26">
      <g>
       <use xlink:href="#m9eefbfe7f6" x="57.6" y="197.827908" style="stroke: #000000; stroke-width: 0.8"/>
      </g>
     </g>
     <g id="text_14">
      <!-- −1 -->
      <g transform="translate(35.857813 201.627127) scale(0.1 -0.1)">
       <use xlink:href="#DejaVuSans-2212"/>
       <use xlink:href="#DejaVuSans-31" x="83.789062"/>
      </g>
     </g>
    </g>
    <g id="ytick_5">
     <g id="line2d_27">
      <path d="M 57.6 162.42147 
L 414.72 162.42147 
" clip-path="url(#p8c6fea811b)" style="fill: none; stroke: #b0b0b0; stroke-width: 0.8; stroke-linecap: square"/>
     </g>
     <g id="line2d_28">
      <g>
       <use xlink:href="#m9eefbfe7f6" x="57.6" y="162.42147" style="stroke: #000000; stroke-width: 0.8"/>
      </g>
     </g>
     <g id="text_15">
      <!-- 0 -->
      <g transform="translate(44.2375 166.220689) scale(0.1 -0.1)">
       <use xlink:href="#DejaVuSans-30"/>
      </g>
     </g>
    </g>
    <g id="ytick_6">
     <g id="line2d_29">
      <path d="M 57.6 127.015032 
L 414.72 127.015032 
" clip-path="url(#p8c6fea811b)" style="fill: none; stroke: #b0b0b0; stroke-width: 0.8; stroke-linecap: square"/>
     </g>
     <g id="line2d_30">
      <g>
       <use xlink:href="#m9eefbfe7f6" x="57.6" y="127.015032" style="stroke: #000000; stroke-width: 0.8"/>
      </g>
     </g>
     <g id="text_16">
      <!-- 1 -->
      <g transform="translate(44.2375 130.814251) scale(0.1 -0.1)">
       <use xlink:href="#DejaVuSans-31"/>
      </g>
     </g>
    </g>
    <g id="ytick_7">
     <g id="line2d_31">
      <path d="M 57.6 91.608595 
L 414.72 91.608595 
" clip-path="url(#p8c6fea811b)" style="fill: none; stroke: #b0b0b0; stroke-width: 0.8; stroke-linecap: square"/>
     </g>
     <g id="line2d_32">
      <g>
       <use xlink:href="#m9eefbfe7f6" x="57.6" y="91.608595" style="stroke: #000000; stroke-width: 0.8"/>
      </g>
     </g>
     <g id="text_17">
      <!-- 2 -->
      <g transform="translate(44.2375 95.407813) scale(0.1 -0.1)">
       <use xlink:href="#DejaVuSans-32"/>
      </g>
     </g>
    </g>
    <g id="ytick_8">
     <g id="line2d_33">
      <path d="M 57.6 56.202157 
L 414.72 56.202157 
" clip-path="url(#p8c6fea811b)" style="fill: none; stroke: #b0b0b0; stroke-width: 0.8; stroke-linecap: square"/>
     </g>
     <g id="line2d_34">
      <g>
       <use xlink:href="#m9eefbfe7f6" x="57.6" y="56.202157" style="stroke: #000000; stroke-width: 0.8"/>
      </g>
     </g>
     <g id="text_18">
      <!-- 3 -->
      <g transform="translate(44.2375 60.001375) scale(0.1 -0.1)">
       <use xlink:href="#DejaVuSans-33"/>
      </g>
     </g>
    </g>
    <g id="text_19">
     <!-- theta -->
     <g transform="translate(29.778125 187.757688) rotate(-90) scale(0.1 -0.1)">
      <defs>
       <path id="DejaVuSans-68" d="M 3513 2113 
L 3513 0 
L 2938 0 
L 2938 2094 
Q 2938 2591 2744 2837 
Q 2550 3084 2163 3084 
Q 1697 3084 1428 2787 
Q 1159 2491 1159 1978 
L 1159 0 
L 581 0 
L 581 4863 
L 1159 4863 
L 1159 2956 
Q 1366 3272 1645 3428 
Q 1925 3584 2291 3584 
Q 2894 3584 3203 3211 
Q 3513 2838 3513 2113 
z
" transform="scale(0.015625)"/>
       <path id="DejaVuSans-61" d="M 2194 1759 
Q 1497 1759 1228 1600 
Q 959 1441 959 1056 
Q 959 750 1161 570 
Q 1363 391 1709 391 
Q 2188 391 2477 730 
Q 2766 1069 2766 1631 
L 2766 1759 
L 2194 1759 
z
M 3341 1997 
L 3341 0 
L 2766 0 
L 2766 531 
Q 2569 213 2275 61 
Q 1981 -91 1556 -91 
Q 1019 -91 701 211 
Q 384 513 384 1019 
Q 384 1609 779 1909 
Q 1175 2209 1959 2209 
L 2766 2209 
L 2766 2266 
Q 2766 2663 2505 2880 
Q 2244 3097 1772 3097 
Q 1472 3097 1187 3025 
Q 903 2953 641 2809 
L 641 3341 
Q 956 3463 1253 3523 
Q 1550 3584 1831 3584 
Q 2591 3584 2966 3190 
Q 3341 2797 3341 1997 
z
" transform="scale(0.015625)"/>
      </defs>
      <use xlink:href="#DejaVuSans-74"/>
      <use xlink:href="#DejaVuSans-68" x="39.208984"/>
      <use xlink:href="#DejaVuSans-65" x="102.587891"/>
      <use xlink:href="#DejaVuSans-74" x="164.111328"/>
      <use xlink:href="#DejaVuSans-61" x="203.320312"/>
     </g>
    </g>
   </g>
   <g id="line2d_35">
    <path d="M 73.832727 162.42147 
L 74.011287 162.315855 
L 74.238545 161.851041 
L 74.546967 160.647876 
L 74.969018 157.985855 
L 75.504698 153.041272 
L 76.186473 144.494398 
L 77.06304 130.422446 
L 78.248029 107.416978 
L 80.390749 65.101977 
L 81.007593 58.181425 
L 81.494575 54.92126 
L 81.867927 53.738285 
L 82.095185 53.570935 
L 82.257513 53.704666 
L 82.484771 54.245323 
L 82.809425 55.714629 
L 83.231476 58.835321 
L 83.734691 64.261927 
L 84.400233 74.130164 
L 85.211869 89.909723 
L 86.185833 113.461056 
L 87.549382 152.476182 
L 90.844625 249.348209 
L 91.867287 271.860572 
L 92.646458 284.475953 
L 93.279535 291.352101 
L 93.750284 294.355777 
L 94.091171 295.358398 
L 94.302196 295.480418 
L 94.464524 295.313775 
L 94.708015 294.636086 
L 95.032669 292.935993 
L 95.470953 289.224363 
L 96.022865 282.28858 
L 96.672175 271.106189 
L 97.467578 253.43849 
L 98.506473 225.161668 
L 100.600495 160.005657 
L 102.077673 117.789925 
L 103.035404 96.43951 
L 103.765876 84.651816 
L 104.334022 78.570327 
L 104.788538 75.785689 
L 105.09696 74.969655 
L 105.27552 74.902074 
L 105.421615 75.063066 
L 105.63264 75.643522 
L 105.924829 77.111696 
L 106.330647 80.414637 
L 106.866327 86.936107 
L 107.499404 97.532742 
L 108.327273 115.427801 
L 109.528495 147.064733 
L 112.206895 219.028712 
L 113.067229 235.895151 
L 113.765236 245.587447 
L 114.300916 250.260729 
L 114.706735 252.10787 
L 114.966458 252.511154 
L 115.128785 252.44743 
L 115.291113 252.147131 
L 115.567069 251.092231 
L 115.924189 248.734216 
L 116.394938 243.957324 
L 117.011782 235.064901 
L 117.77472 220.4952 
L 118.84608 195.23988 
L 121.751738 124.352288 
L 122.563375 110.68606 
L 123.212684 103.203449 
L 123.715898 99.735412 
L 124.073018 98.552385 
L 124.300276 98.370436 
L 124.446371 98.484279 
L 124.657396 98.954096 
L 124.949585 100.220421 
L 125.371636 103.250265 
L 125.858618 108.406176 
L 126.491695 117.463485 
L 127.41696 134.46452 
L 129.121396 171.230183 
L 130.371316 195.945466 
L 131.231651 208.898938 
L 131.848495 215.331918 
L 132.335476 218.523296 
L 132.708829 219.777937 
L 132.95232 220.035475 
L 133.114647 219.96136 
L 133.276975 219.687691 
L 133.585396 218.635424 
L 134.007447 216.090292 
L 134.494429 211.698266 
L 135.143738 203.652772 
L 136.069004 188.885884 
L 139.396713 132.027299 
L 140.062255 125.074881 
L 140.6304 121.208886 
L 141.036218 119.699304 
L 141.328407 119.266435 
L 141.555665 119.304737 
L 141.766691 119.654936 
L 142.091345 120.725089 
L 142.464698 122.730749 
L 142.95168 126.501905 
L 143.649687 133.881969 
L 144.574953 146.336551 
L 147.431913 186.099811 
L 148.12992 192.370996 
L 148.681833 195.650743 
L 149.136349 197.146423 
L 149.428538 197.521506 
L 149.623331 197.521147 
L 149.899287 197.151349 
L 150.175244 196.408162 
L 150.564829 194.680932 
L 151.035578 191.666212 
L 151.684887 186.085926 
L 152.447825 177.799763 
L 155.694371 141.590778 
L 156.311215 137.625266 
L 156.846895 135.472543 
L 157.23648 134.707629 
L 157.479971 134.56231 
L 157.690996 134.655433 
L 157.999418 135.123631 
L 158.453935 136.529261 
L 158.957149 139.011948 
L 159.622691 143.566779 
L 160.580422 151.920082 
L 163.161425 175.378783 
L 163.794502 179.170719 
L 164.362647 181.562051 
L 164.817164 182.62842 
L 165.125585 182.942062 
L 165.45024 182.933224 
L 165.742429 182.593223 
L 166.067084 181.847467 
L 166.489135 180.417073 
L 167.024815 177.924442 
L 167.77152 173.220175 
L 168.859113 164.982238 
L 170.823273 151.163117 
L 171.618676 147.396243 
L 172.219287 145.626722 
L 172.706269 144.921931 
L 172.982225 144.842176 
L 173.355578 145.02439 
L 173.858793 145.928159 
L 174.248378 147.028553 
L 175.060015 150.35514 
L 175.969047 155.310835 
L 178.923404 171.272851 
L 179.426618 172.764931 
L 179.897367 173.636182 
L 180.384349 174.048657 
L 180.8064 174.004323 
L 181.260916 173.550445 
L 181.845295 172.387915 
L 182.429673 170.502084 
L 183.143913 167.548826 
L 185.156771 158.34726 
L 185.968407 155.164651 
L 186.893673 152.574435 
L 187.59168 151.576116 
L 187.916335 151.369302 
L 188.452015 151.502305 
L 188.760436 151.752774 
L 189.247418 152.509859 
L 189.766865 153.667583 
L 190.351244 155.305377 
L 193.500393 165.785793 
L 194.133469 167.18376 
L 194.896407 168.250477 
L 195.285993 168.517419 
L 195.62688 168.595667 
L 196.211258 168.38768 
L 196.893033 167.639961 
L 197.785833 165.962302 
L 198.467607 164.292786 
L 201.551825 157.004149 
L 202.525789 156.02453 
L 203.240029 155.812789 
L 203.613382 155.960872 
L 204.55488 156.76644 
L 205.350284 157.99358 
L 207.833891 162.765227 
L 209.570793 165.188695 
L 210.431127 165.736322 
L 210.80448 165.792436 
L 211.616116 165.530212 
L 212.59008 164.606485 
L 214.115956 162.258521 
L 215.398342 160.047101 
L 216.648262 158.412651 
L 217.817018 157.799462 
L 218.709818 157.871323 
L 220.105833 159.083596 
L 222.621905 162.465809 
L 223.319913 163.354643 
L 224.5536 164.3772 
L 225.592495 164.595908 
L 226.663855 164.207935 
L 228.1248 162.895348 
L 229.829236 160.877208 
L 231.257716 159.628879 
L 231.777164 159.429886 
L 232.264145 159.321149 
L 232.734895 159.287582 
L 234.19584 159.67636 
L 234.763985 160.159768 
L 235.98144 161.310725 
L 238.724771 163.288173 
L 239.227985 163.435469 
L 240.753862 163.367336 
L 242.864116 162.276762 
L 243.756916 161.654783 
L 244.649716 161.313465 
L 245.380189 161.105165 
L 245.9808 160.962141 
L 246.8736 160.830875 
L 247.40928 160.796151 
L 248.431942 160.843938 
L 248.967622 160.91723 
L 250.607127 161.605325 
L 251.305135 162.015371 
L 252.360262 162.528593 
L 252.928407 162.73592 
L 255.152291 162.907994 
L 255.655505 162.814772 
L 259.567593 161.315809 
L 260.492858 161.04785 
L 261.028538 160.943201 
L 261.986269 161.077773 
L 262.846604 161.393067 
L 263.447215 161.628751 
L 264.145222 161.910022 
L 264.843229 162.167445 
L 265.460073 162.367875 
L 266.044451 162.522298 
L 266.612596 162.635882 
L 267.602793 162.722881 
L 268.138473 162.718825 
L 269.063738 162.619141 
L 269.599418 162.523994 
L 270.394822 162.333831 
L 270.995433 162.174559 
L 271.69344 161.97623 
L 272.358982 161.800219 
L 272.992058 161.646225 
L 273.754996 161.505631 
L 274.323142 161.430479 
L 275.151011 161.388197 
L 275.654225 161.405457 
L 276.254836 161.650663 
L 276.985309 161.963883 
L 277.683316 162.244298 
L 278.316393 162.475546 
L 279.176727 162.716046 
L 279.744873 162.827221 
L 282.829091 162.629015 
L 283.624495 162.41026 
L 284.225105 162.232129 
L 284.923113 162.016119 
L 285.588655 161.828393 
L 286.189265 161.675672 
L 286.952204 161.532158 
L 287.520349 161.459047 
L 288.380684 161.425671 
L 288.916364 161.443438 
L 289.776698 161.544146 
L 290.328611 161.643156 
L 290.896756 161.76525 
L 291.627229 161.952132 
L 292.22784 162.109667 
L 292.893382 162.288134 
L 293.558924 162.447041 
L 294.159535 162.575409 
L 294.890007 162.689618 
L 295.458153 162.751969 
L 296.253556 162.782014 
L 296.821702 162.772543 
L 297.58464 162.709609 
L 298.152785 162.639975 
L 298.883258 162.517356 
L 299.483869 162.407307 
L 300.149411 162.273323 
L 300.782487 162.154483 
L 301.415564 162.040898 
L 302.113571 161.942915 
L 302.714182 161.876448 
L 303.444655 161.835771 
L 303.899171 161.85154 
L 304.629644 162.116616 
L 305.295185 162.346235 
L 305.928262 162.549879 
L 306.6912 162.745762 
L 307.259345 162.857269 
L 308.152145 162.94639 
L 308.687825 162.956316 
L 309.580625 162.888184 
L 310.035142 162.810312 
L 310.505891 162.615305 
L 311.236364 162.465364 
L 311.836975 162.335622 
L 312.502516 162.184177 
L 313.168058 162.04755 
L 313.768669 161.934807 
L 314.499142 161.833739 
L 315.067287 161.777325 
L 315.830225 161.750191 
L 316.398371 161.756776 
L 317.161309 161.81296 
L 317.729455 161.876456 
L 318.459927 161.991223 
L 319.060538 162.095894 
L 319.72608 162.22608 
L 320.359156 162.344162 
L 320.992233 162.460304 
L 321.657775 162.560739 
L 322.258385 162.637781 
L 322.956393 162.693565 
L 323.524538 162.720356 
L 324.255011 162.716081 
L 324.823156 162.694099 
L 325.553629 162.6323 
L 326.138007 162.567488 
L 326.738618 162.492159 
L 327.40416 162.394965 
L 328.037236 162.307117 
L 328.670313 162.21861 
L 329.335855 162.14306 
L 329.936465 162.083892 
L 330.634473 162.04269 
L 331.235084 162.022168 
L 331.933091 162.028909 
L 332.501236 162.047709 
L 333.199244 162.097626 
L 333.799855 162.150016 
L 334.465396 162.225697 
L 335.066007 162.294479 
L 335.699084 162.374268 
L 336.33216 162.444849 
L 336.965236 162.513339 
L 337.630778 162.566724 
L 338.231389 162.606503 
L 338.896931 162.627074 
L 339.497542 162.634775 
L 340.195549 162.618428 
L 340.79616 162.594837 
L 341.461702 162.549118 
L 342.062313 162.504188 
L 342.727855 162.442051 
L 343.360931 162.386546 
L 343.994007 162.327225 
L 344.627084 162.279323 
L 345.227695 162.236293 
L 345.893236 162.206495 
L 346.493847 162.186276 
L 347.159389 162.184324 
L 347.76 162.189877 
L 348.425542 162.215296 
L 349.026153 162.242951 
L 349.691695 162.288484 
L 350.292305 162.329327 
L 350.925382 162.380722 
L 351.558458 162.425678 
L 352.191535 162.472795 
L 352.824611 162.507827 
L 353.425222 162.538931 
L 354.090764 162.556817 
L 354.691375 162.568223 
L 355.356916 162.563251 
L 355.957527 162.554434 
L 356.623069 162.528946 
L 357.22368 162.504431 
L 357.889222 162.465686 
L 358.522298 162.431644 
L 359.155375 162.39159 
L 359.788451 162.359558 
L 360.421527 162.326157 
L 361.054604 162.304823 
L 361.655215 162.285978 
L 362.320756 162.280095 
L 362.921367 162.277539 
L 363.586909 162.289655 
L 364.18752 162.302268 
L 364.853062 162.328945 
L 365.486138 162.353395 
L 366.119215 162.386329 
L 366.752291 162.414153 
L 367.385367 162.446488 
L 368.018444 162.469919 
L 368.65152 162.494487 
L 369.284596 162.507396 
L 369.885207 162.519162 
L 370.550749 162.518766 
L 371.15136 162.517431 
L 371.816902 162.503239 
L 372.433745 162.487498 
L 373.066822 162.470209 
L 373.699898 162.444492 
L 374.332975 162.423526 
L 374.966051 162.397305 
L 375.599127 162.378924 
L 376.232204 162.358097 
L 376.86528 162.34747 
L 377.498356 162.336173 
L 378.131433 162.336171 
L 378.764509 162.33587 
L 379.397585 162.346516 
L 380.030662 162.35584 
L 380.663738 162.374505 
L 381.296815 162.389784 
L 381.929891 162.412029 
L 382.562967 162.42837 
L 383.196044 162.449182 
L 383.82912 162.461774 
L 384.462196 162.476845 
L 385.095273 162.482148 
L 385.728349 162.488903 
L 386.361425 162.485435 
L 386.994502 162.483546 
L 387.627578 162.472108 
L 388.260655 162.463412 
L 388.893731 162.446726 
L 389.526807 162.434622 
L 390.159884 162.416517 
L 390.79296 162.405003 
L 391.426036 162.389387 
L 392.059113 162.382029 
L 392.692189 162.37191 
L 393.325265 162.370986 
L 393.958342 162.36779 
L 394.591418 162.373815 
L 395.224495 162.377145 
L 395.857571 162.388869 
L 396.490647 162.396733 
L 397.123724 162.411576 
L 397.7568 162.420995 
L 398.389876 162.435785 
L 398.487273 162.437528 
L 398.487273 162.437528 
" clip-path="url(#p8c6fea811b)" style="fill: none; stroke-dasharray: 5.55,2.4; stroke-dashoffset: 0; stroke: #ff0000; stroke-width: 1.5"/>
   </g>
   <g id="line2d_36">
    <path d="M 73.832727 162.42147 
L 74.985251 162.310511 
L 75.63456 162.007757 
L 76.218938 161.48318 
L 76.819549 160.62879 
L 77.452625 159.322155 
L 78.150633 157.338433 
L 78.913571 154.463021 
L 79.773905 150.296719 
L 80.910196 143.554421 
L 84.968378 118.384862 
L 85.861178 114.665077 
L 86.575418 112.561798 
L 87.143564 111.508938 
L 87.59808 111.087097 
L 87.9552 111.026331 
L 88.296087 111.194024 
L 88.685673 111.657145 
L 89.156422 112.601558 
L 89.724567 114.291743 
L 90.406342 117.080053 
L 91.234211 121.485436 
L 92.256873 128.224433 
L 93.701585 139.390497 
L 96.591011 161.947178 
L 97.662371 168.454602 
L 98.506473 172.326563 
L 99.188247 174.520754 
L 99.756393 175.670775 
L 100.210909 176.138093 
L 100.568029 176.224124 
L 100.908916 176.079037 
L 101.298502 175.648987 
L 101.769251 174.770347 
L 102.353629 173.173842 
L 103.100335 170.423648 
L 104.090531 165.837313 
L 107.921455 147.106118 
L 108.66816 144.923216 
L 109.252538 143.818573 
L 109.723287 143.347275 
L 110.112873 143.249015 
L 110.469993 143.392879 
L 110.875811 143.826355 
L 111.362793 144.715798 
L 111.947171 146.285905 
L 112.677644 148.939719 
L 113.619142 153.269228 
L 115.177484 161.674864 
L 116.914385 170.676011 
L 117.872116 174.535405 
L 118.618822 176.70788 
L 119.219433 177.844586 
L 119.706415 178.343841 
L 120.112233 178.467981 
L 120.485585 178.352129 
L 120.907636 177.964188 
L 121.410851 177.166283 
L 122.043927 175.697547 
L 122.855564 173.196817 
L 124.105484 168.511836 
L 126.037178 161.348396 
L 126.913745 158.923126 
L 127.59552 157.623031 
L 128.147433 157.0024 
L 128.601949 156.796958 
L 129.007767 156.849428 
L 129.429818 157.137066 
L 129.933033 157.777173 
L 130.533644 158.930231 
L 131.296582 160.912633 
L 132.384175 164.434405 
L 134.948945 172.944549 
L 135.793047 174.903448 
L 136.458589 175.939963 
L 137.010502 176.423991 
L 137.481251 176.55968 
L 137.919535 176.458209 
L 138.406516 176.09913 
L 138.974662 175.377968 
L 139.688902 174.076657 
L 140.662865 171.790415 
L 143.503593 164.841018 
L 144.282764 163.625959 
L 144.91584 163.018001 
L 145.45152 162.790806 
L 145.938502 162.814965 
L 146.441716 163.064424 
L 147.026095 163.62183 
L 147.740335 164.641387 
L 148.698065 166.43844 
L 151.70112 172.361046 
L 152.464058 173.271734 
L 153.097135 173.712203 
L 153.66528 173.847966 
L 154.217193 173.745805 
L 154.801571 173.400379 
L 155.483345 172.723354 
L 156.359913 171.513796 
L 157.983185 168.797503 
L 159.314269 166.770322 
L 160.190836 165.815918 
L 160.905076 165.345194 
L 161.538153 165.182467 
L 162.154996 165.254002 
L 162.804305 165.558451 
L 163.567244 166.174187 
L 164.606138 167.325958 
L 167.268305 170.409739 
L 168.112407 170.995405 
L 168.84288 171.241575 
L 169.540887 171.240138 
L 170.255127 171.007238 
L 171.066764 170.491373 
L 172.105658 169.542457 
L 175.287273 166.449051 
L 176.180073 165.987607 
L 176.975476 165.818928 
L 177.754647 165.881141 
L 178.614982 166.182427 
L 179.702575 166.821402 
L 182.867956 168.820809 
L 183.793222 169.06164 
L 184.686022 169.064893 
L 185.595055 168.839777 
L 186.666415 168.327455 
L 188.387084 167.205548 
L 190.123985 166.166222 
L 191.227811 165.760167 
L 192.250473 165.621104 
L 193.3056 165.705651 
L 194.571753 166.042691 
L 198.451375 167.239822 
L 199.603898 167.263259 
L 200.837585 167.059558 
L 202.314764 166.572535 
L 205.853498 165.326618 
L 207.217047 165.15089 
L 208.66176 165.19479 
L 210.398662 165.477058 
L 213.320553 165.961423 
L 214.797731 165.953122 
L 216.291142 165.7144 
L 218.920844 165.00084 
L 220.917469 164.572574 
L 222.540742 164.446808 
L 224.277644 164.552026 
L 228.936436 164.959114 
L 230.689571 164.795421 
L 237.263825 163.901799 
L 239.861062 164.017021 
L 243.205004 164.128473 
L 245.964567 163.951061 
L 252.2304 163.49915 
L 260.703884 163.420725 
L 264.891927 163.164311 
L 269.404625 163.210766 
L 273.203084 163.131659 
L 279.468916 162.924209 
L 286.010705 162.958999 
L 295.344524 162.66278 
L 302.081105 162.685481 
L 307.632698 162.632442 
L 313.379084 162.694223 
L 324.271244 162.524946 
L 330.179956 162.521259 
L 338.848233 162.441446 
L 347.240553 162.436613 
L 355.61664 162.425529 
L 365.307578 162.39826 
L 386.751011 162.4097 
L 398.487273 162.401378 
L 398.487273 162.401378 
" clip-path="url(#p8c6fea811b)" style="fill: none; stroke: #008000; stroke-width: 1.5; stroke-linecap: square"/>
   </g>
   <g id="patch_3">
    <path d="M 57.6 307.584 
L 57.6 41.472 
" style="fill: none; stroke: #000000; stroke-width: 0.8; stroke-linejoin: miter; stroke-linecap: square"/>
   </g>
   <g id="patch_4">
    <path d="M 414.72 307.584 
L 414.72 41.472 
" style="fill: none; stroke: #000000; stroke-width: 0.8; stroke-linejoin: miter; stroke-linecap: square"/>
   </g>
   <g id="patch_5">
    <path d="M 57.6 307.584 
L 414.72 307.584 
" style="fill: none; stroke: #000000; stroke-width: 0.8; stroke-linejoin: miter; stroke-linecap: square"/>
   </g>
   <g id="patch_6">
    <path d="M 57.6 41.472 
L 414.72 41.472 
" style="fill: none; stroke: #000000; stroke-width: 0.8; stroke-linejoin: miter; stroke-linecap: square"/>
   </g>
   <g id="text_20">
    <!-- theta vs time -->
    <g transform="translate(196.238438 35.472) scale(0.12 -0.12)">
     <defs>
      <path id="DejaVuSans-76" d="M 191 3500 
L 800 3500 
L 1894 563 
L 2988 3500 
L 3597 3500 
L 2284 0 
L 1503 0 
L 191 3500 
z
" transform="scale(0.015625)"/>
     </defs>
     <use xlink:href="#DejaVuSans-74"/>
     <use xlink:href="#DejaVuSans-68" x="39.208984"/>
     <use xlink:href="#DejaVuSans-65" x="102.587891"/>
     <use xlink:href="#DejaVuSans-74" x="164.111328"/>
     <use xlink:href="#DejaVuSans-61" x="203.320312"/>
     <use xlink:href="#DejaVuSans-20" x="264.599609"/>
     <use xlink:href="#DejaVuSans-76" x="296.386719"/>
     <use xlink:href="#DejaVuSans-73" x="355.566406"/>
     <use xlink:href="#DejaVuSans-20" x="407.666016"/>
     <use xlink:href="#DejaVuSans-74" x="439.453125"/>
     <use xlink:href="#DejaVuSans-69" x="478.662109"/>
     <use xlink:href="#DejaVuSans-6d" x="506.445312"/>
     <use xlink:href="#DejaVuSans-65" x="603.857422"/>
    </g>
   </g>
   <g id="legend_1">
    <g id="patch_7">
     <path d="M 273.271563 79.106375 
L 407.72 79.106375 
Q 409.72 79.106375 409.72 77.106375 
L 409.72 48.472 
Q 409.72 46.472 407.72 46.472 
L 273.271563 46.472 
Q 271.271563 46.472 271.271563 48.472 
L 271.271563 77.106375 
Q 271.271563 79.106375 273.271563 79.106375 
z
" style="fill: #ffffff; opacity: 0.8; stroke: #cccccc; stroke-linejoin: miter"/>
    </g>
    <g id="line2d_37">
     <path d="M 275.271563 54.570438 
L 285.271563 54.570438 
L 295.271563 54.570438 
" style="fill: none; stroke-dasharray: 5.55,2.4; stroke-dashoffset: 0; stroke: #ff0000; stroke-width: 1.5"/>
    </g>
    <g id="text_21">
     <!-- theta_dot (degree/s) -->
     <g transform="translate(303.271563 58.070438) scale(0.1 -0.1)">
      <defs>
       <path id="DejaVuSans-5f" d="M 3263 -1063 
L 3263 -1509 
L -63 -1509 
L -63 -1063 
L 3263 -1063 
z
" transform="scale(0.015625)"/>
       <path id="DejaVuSans-64" d="M 2906 2969 
L 2906 4863 
L 3481 4863 
L 3481 0 
L 2906 0 
L 2906 525 
Q 2725 213 2448 61 
Q 2172 -91 1784 -91 
Q 1150 -91 751 415 
Q 353 922 353 1747 
Q 353 2572 751 3078 
Q 1150 3584 1784 3584 
Q 2172 3584 2448 3432 
Q 2725 3281 2906 2969 
z
M 947 1747 
Q 947 1113 1208 752 
Q 1469 391 1925 391 
Q 2381 391 2643 752 
Q 2906 1113 2906 1747 
Q 2906 2381 2643 2742 
Q 2381 3103 1925 3103 
Q 1469 3103 1208 2742 
Q 947 2381 947 1747 
z
" transform="scale(0.015625)"/>
       <path id="DejaVuSans-6f" d="M 1959 3097 
Q 1497 3097 1228 2736 
Q 959 2375 959 1747 
Q 959 1119 1226 758 
Q 1494 397 1959 397 
Q 2419 397 2687 759 
Q 2956 1122 2956 1747 
Q 2956 2369 2687 2733 
Q 2419 3097 1959 3097 
z
M 1959 3584 
Q 2709 3584 3137 3096 
Q 3566 2609 3566 1747 
Q 3566 888 3137 398 
Q 2709 -91 1959 -91 
Q 1206 -91 779 398 
Q 353 888 353 1747 
Q 353 2609 779 3096 
Q 1206 3584 1959 3584 
z
" transform="scale(0.015625)"/>
       <path id="DejaVuSans-67" d="M 2906 1791 
Q 2906 2416 2648 2759 
Q 2391 3103 1925 3103 
Q 1463 3103 1205 2759 
Q 947 2416 947 1791 
Q 947 1169 1205 825 
Q 1463 481 1925 481 
Q 2391 481 2648 825 
Q 2906 1169 2906 1791 
z
M 3481 434 
Q 3481 -459 3084 -895 
Q 2688 -1331 1869 -1331 
Q 1566 -1331 1297 -1286 
Q 1028 -1241 775 -1147 
L 775 -588 
Q 1028 -725 1275 -790 
Q 1522 -856 1778 -856 
Q 2344 -856 2625 -561 
Q 2906 -266 2906 331 
L 2906 616 
Q 2728 306 2450 153 
Q 2172 0 1784 0 
Q 1141 0 747 490 
Q 353 981 353 1791 
Q 353 2603 747 3093 
Q 1141 3584 1784 3584 
Q 2172 3584 2450 3431 
Q 2728 3278 2906 2969 
L 2906 3500 
L 3481 3500 
L 3481 434 
z
" transform="scale(0.015625)"/>
       <path id="DejaVuSans-72" d="M 2631 2963 
Q 2534 3019 2420 3045 
Q 2306 3072 2169 3072 
Q 1681 3072 1420 2755 
Q 1159 2438 1159 1844 
L 1159 0 
L 581 0 
L 581 3500 
L 1159 3500 
L 1159 2956 
Q 1341 3275 1631 3429 
Q 1922 3584 2338 3584 
Q 2397 3584 2469 3576 
Q 2541 3569 2628 3553 
L 2631 2963 
z
" transform="scale(0.015625)"/>
       <path id="DejaVuSans-2f" d="M 1625 4666 
L 2156 4666 
L 531 -594 
L 0 -594 
L 1625 4666 
z
" transform="scale(0.015625)"/>
      </defs>
      <use xlink:href="#DejaVuSans-74"/>
      <use xlink:href="#DejaVuSans-68" x="39.208984"/>
      <use xlink:href="#DejaVuSans-65" x="102.587891"/>
      <use xlink:href="#DejaVuSans-74" x="164.111328"/>
      <use xlink:href="#DejaVuSans-61" x="203.320312"/>
      <use xlink:href="#DejaVuSans-5f" x="264.599609"/>
      <use xlink:href="#DejaVuSans-64" x="314.599609"/>
      <use xlink:href="#DejaVuSans-6f" x="378.076172"/>
      <use xlink:href="#DejaVuSans-74" x="439.257812"/>
      <use xlink:href="#DejaVuSans-20" x="478.466797"/>
      <use xlink:href="#DejaVuSans-28" x="510.253906"/>
      <use xlink:href="#DejaVuSans-64" x="549.267578"/>
      <use xlink:href="#DejaVuSans-65" x="612.744141"/>
      <use xlink:href="#DejaVuSans-67" x="674.267578"/>
      <use xlink:href="#DejaVuSans-72" x="737.744141"/>
      <use xlink:href="#DejaVuSans-65" x="776.607422"/>
      <use xlink:href="#DejaVuSans-65" x="838.130859"/>
      <use xlink:href="#DejaVuSans-2f" x="899.654297"/>
      <use xlink:href="#DejaVuSans-73" x="933.345703"/>
      <use xlink:href="#DejaVuSans-29" x="985.445312"/>
     </g>
    </g>
    <g id="line2d_38">
     <path d="M 275.271563 69.526688 
L 285.271563 69.526688 
L 295.271563 69.526688 
" style="fill: none; stroke: #008000; stroke-width: 1.5; stroke-linecap: square"/>
    </g>
    <g id="text_22">
     <!-- theta (degree) -->
     <g transform="translate(303.271563 73.026688) scale(0.1 -0.1)">
      <use xlink:href="#DejaVuSans-74"/>
      <use xlink:href="#DejaVuSans-68" x="39.208984"/>
      <use xlink:href="#DejaVuSans-65" x="102.587891"/>
      <use xlink:href="#DejaVuSans-74" x="164.111328"/>
      <use xlink:href="#DejaVuSans-61" x="203.320312"/>
      <use xlink:href="#DejaVuSans-20" x="264.599609"/>
      <use xlink:href="#DejaVuSans-28" x="296.386719"/>
      <use xlink:href="#DejaVuSans-64" x="335.400391"/>
      <use xlink:href="#DejaVuSans-65" x="398.876953"/>
      <use xlink:href="#DejaVuSans-67" x="460.400391"/>
      <use xlink:href="#DejaVuSans-72" x="523.876953"/>
      <use xlink:href="#DejaVuSans-65" x="562.740234"/>
      <use xlink:href="#DejaVuSans-65" x="624.263672"/>
      <use xlink:href="#DejaVuSans-29" x="685.787109"/>
     </g>
    </g>
   </g>
  </g>
 </g>
 <defs>
  <clipPath id="p8c6fea811b">
   <rect x="57.6" y="41.472" width="357.12" height="266.112"/>
  </clipPath>
 </defs>
</svg>
